<svg xmlns="http://www.w3.org/2000/svg" xmlns:xlink="http://www.w3.org/1999/xlink" viewBox="0 0 320 240"><defs><style>.cls-1,.cls-5{fill:#f9eaf2;}.cls-1{fill-opacity:0.7;}.cls-2{fill:none;}.cls-2,.cls-5{stroke:#ac297e;stroke-miterlimit:10;}.cls-3{fill:#fff;}.cls-4{fill:#ac297e;}.cls-5{stroke-width:0.5px;}.cls-6{fill:url(#Gradient_bez_nazwy_18);}.cls-7{fill:url(#Gradient_bez_nazwy_13);}.cls-8{fill:url(#Gradient_bez_nazwy_18-2);}.cls-9{fill:url(#Gradient_bez_nazwy_13-2);}.cls-10{fill:url(#Gradient_bez_nazwy_18-3);}.cls-11{fill:url(#Gradient_bez_nazwy_13-3);}.cls-12{fill:url(#Gradient_bez_nazwy_18-4);}.cls-13{fill:url(#Gradient_bez_nazwy_13-4);}.cls-14{fill:#1d1d1b;}</style><linearGradient id="Gradient_bez_nazwy_18" x1="190.97" y1="62.18" x2="211.49" y2="74.02" gradientTransform="matrix(1, -0.02, -0.02, 1.19, 1.52, -18.48)" gradientUnits="userSpaceOnUse"><stop offset="0" stop-color="#f6bbcf"/><stop offset="0.5" stop-color="#ea5288"/><stop offset="1" stop-color="#ee77a2"/></linearGradient><linearGradient id="Gradient_bez_nazwy_13" x1="191.7" y1="53.97" x2="211.92" y2="65.64" gradientTransform="matrix(0.08, 1, -1.03, 0.08, 246.59, -148.09)" gradientUnits="userSpaceOnUse"><stop offset="0" stop-color="#f190b3"/><stop offset="0.5" stop-color="#f2a3c0"/><stop offset="1" stop-color="#f087ac"/></linearGradient><linearGradient id="Gradient_bez_nazwy_18-2" x1="171.94" y1="97.65" x2="192.45" y2="109.5" xlink:href="#Gradient_bez_nazwy_18"/><linearGradient id="Gradient_bez_nazwy_13-2" x1="172.21" y1="95.04" x2="192.43" y2="106.71" gradientTransform="matrix(0.08, 1, -1.03, 0.08, 271, -89.46)" xlink:href="#Gradient_bez_nazwy_13"/><linearGradient id="Gradient_bez_nazwy_18-3" x1="172.43" y1="129.34" x2="192.95" y2="141.18" xlink:href="#Gradient_bez_nazwy_18"/><linearGradient id="Gradient_bez_nazwy_13-3" x1="172.31" y1="131.5" x2="192.53" y2="143.17" gradientTransform="matrix(0.08, 1, -1.03, 0.08, 308.61, -54.8)" xlink:href="#Gradient_bez_nazwy_13"/><linearGradient id="Gradient_bez_nazwy_18-4" x1="265.71" y1="63.16" x2="286.23" y2="75.01" xlink:href="#Gradient_bez_nazwy_18"/><linearGradient id="Gradient_bez_nazwy_13-4" x1="266.51" y1="54.18" x2="286.73" y2="65.85" gradientTransform="matrix(0.08, 1, -1.03, 0.08, 315.29, -222.66)" xlink:href="#Gradient_bez_nazwy_13"/></defs><title>dawkowanie_1</title><g id="Warstwa_6" data-name="Warstwa 6"><rect class="cls-1" x="1.86" y="0.92" width="316.58" height="238.03" rx="8.4"/><rect class="cls-2" x="1.86" y="0.92" width="316.58" height="238.03" rx="8.4"/></g><g id="Warstwa_2_kopia" data-name="Warstwa 2 kopia"><rect class="cls-3" x="4.61" y="3.92" width="310.51" height="34.92" rx="17.46"/><path class="cls-4" d="M113.31,16.48h3.81a5.32,5.32,0,0,1,2.42.53,3.76,3.76,0,0,1,1.63,1.47,4.42,4.42,0,0,1,0,4.41,3.88,3.88,0,0,1-1.63,1.47,5.32,5.32,0,0,1-2.42.52h-3.81ZM117,23.29a2.86,2.86,0,0,0,2-.7,2.5,2.5,0,0,0,.75-1.91,2.48,2.48,0,0,0-.75-1.9,2.81,2.81,0,0,0-2-.7h-1.78v5.21Z"/><path class="cls-4" d="M128.63,23.08h-3.9l-.74,1.8h-2l3.74-8.4h1.92l3.76,8.4h-2ZM128,21.61l-1.33-3.22-1.33,3.22Z"/><path class="cls-4" d="M144.53,16.48l-2.75,8.4H139.7l-1.85-5.68-1.91,5.68h-2.08l-2.76-8.4h2l1.9,5.91,2-5.91h1.8l1.92,6,1.95-6Z"/><path class="cls-4" d="M148.67,21.58l-1.13,1.18v2.12h-1.93v-8.4h1.93v3.93l3.72-3.93h2.16l-3.48,3.75,3.69,4.65h-2.27Z"/><path class="cls-4" d="M155.9,24.46a4.09,4.09,0,0,1-1.64-1.55,4.3,4.3,0,0,1,1.64-6,5,5,0,0,1,2.36-.56,4.92,4.92,0,0,1,2.35.56,4.25,4.25,0,0,1,1.64,1.56,4.28,4.28,0,0,1-1.64,6,4.81,4.81,0,0,1-2.35.57A4.87,4.87,0,0,1,155.9,24.46ZM159.6,23a2.55,2.55,0,0,0,1-1,2.93,2.93,0,0,0,.34-1.4,2.89,2.89,0,0,0-.34-1.39,2.48,2.48,0,0,0-1-.95,2.81,2.81,0,0,0-2.68,0,2.48,2.48,0,0,0-.95.95,2.89,2.89,0,0,0-.34,1.39,2.93,2.93,0,0,0,.34,1.4,2.55,2.55,0,0,0,.95,1,2.81,2.81,0,0,0,2.68,0Z"/><path class="cls-4" d="M176.74,16.48,174,24.88H171.9l-1.85-5.68-1.9,5.68h-2.08l-2.76-8.4h2l1.89,5.91,2-5.91H171l1.92,6,2-6Z"/><path class="cls-4" d="M183.08,23.08h-3.91l-.74,1.8h-2l3.74-8.4h1.92l3.76,8.4h-2Zm-.62-1.47-1.33-3.22-1.33,3.22Z"/><path class="cls-4" d="M194.44,16.48v8.4h-1.6l-4.18-5.1v5.1h-1.92v-8.4h1.6l4.18,5.1v-5.1Z"/><path class="cls-4" d="M196.43,16.48h1.95v8.4h-1.95Z"/><path class="cls-4" d="M206.87,23.32v1.56h-6.5v-8.4h6.34V18H202.3v1.83h3.9v1.51h-3.9v1.94Z"/><rect class="cls-4" x="7.18" y="46.33" width="152.69" height="35.25" rx="2.2"/><rect class="cls-5" x="162.1" y="46.33" width="74.65" height="35.25" rx="2.2"/><rect class="cls-5" x="240.13" y="46.33" width="74.65" height="35.25" rx="2.2"/><rect class="cls-4" x="7.18" y="84.24" width="152.69" height="35.25" rx="2.2"/><rect class="cls-5" x="162.1" y="84.24" width="152.69" height="35.25" rx="2.2"/><rect class="cls-4" x="7.18" y="122.15" width="152.69" height="35.25" rx="2.2"/><rect class="cls-5" x="162.1" y="122.15" width="152.69" height="35.25" rx="2.2"/><rect class="cls-4" x="6.47" y="160.07" width="307.38" height="64.45" rx="2.2"/></g><g id="Warstwa_3_kopia" data-name="Warstwa 3 kopia"><path class="cls-4" d="M175.32,74.9a1.11,1.11,0,0,1,.52.43,1.32,1.32,0,0,1,0,1.33,1.11,1.11,0,0,1-.52.43,1.92,1.92,0,0,1-.79.15h-.79v1h-.65v-3.5h1.44A1.92,1.92,0,0,1,175.32,74.9Zm-.17,1.61a.64.64,0,0,0,.22-.51.65.65,0,0,0-.22-.52,1,1,0,0,0-.65-.18h-.76v1.39h.76A1,1,0,0,0,175.15,76.51Z"/><path class="cls-4" d="M179,78.25l-.71-1h-.93v1h-.65v-3.5h1.44a1.89,1.89,0,0,1,.79.15,1.11,1.11,0,0,1,.52.43,1.22,1.22,0,0,1,.18.67,1.18,1.18,0,0,1-.19.68,1.12,1.12,0,0,1-.55.42l.8,1.15Zm-.23-2.77a1,1,0,0,0-.65-.18h-.76v1.4h.76a1,1,0,0,0,.65-.19A.64.64,0,0,0,179,76,.65.65,0,0,0,178.73,75.48Z"/><path class="cls-4" d="M183.05,77.7v.55h-3v-.43l2.06-2.52h-2v-.55H183v.44l-2.06,2.51Z"/><path class="cls-4" d="M186.27,77.71v.54h-2.63v-3.5h2.56v.55h-1.91v.91H186v.53h-1.69v1Z"/><path class="cls-4" d="M187,74.75h1.53a2.16,2.16,0,0,1,1,.22,1.59,1.59,0,0,1,.67.61,1.88,1.88,0,0,1,0,1.84,1.59,1.59,0,0,1-.67.61,2.16,2.16,0,0,1-1,.22H187Zm1.5,3a1.48,1.48,0,0,0,.68-.15,1.14,1.14,0,0,0,.45-.42,1.32,1.32,0,0,0,0-1.26,1.14,1.14,0,0,0-.45-.42,1.48,1.48,0,0,0-.68-.15h-.85v2.4Z"/><path class="cls-4" d="M192.8,78.19a1.56,1.56,0,0,1-.59-.31l.22-.5a1.76,1.76,0,0,0,.53.27,2,2,0,0,0,.63.11,1.12,1.12,0,0,0,.58-.12.39.39,0,0,0,.19-.33.3.3,0,0,0-.11-.25.59.59,0,0,0-.27-.15l-.45-.13a5.39,5.39,0,0,1-.65-.19,1,1,0,0,1-.42-.3.77.77,0,0,1-.18-.54.9.9,0,0,1,.16-.53,1,1,0,0,1,.47-.38,2,2,0,0,1,.78-.14,2.72,2.72,0,0,1,.63.08,1.66,1.66,0,0,1,.54.23l-.21.51a2.06,2.06,0,0,0-.48-.21,1.69,1.69,0,0,0-.48-.07,1,1,0,0,0-.58.13.41.41,0,0,0-.18.35.3.3,0,0,0,.1.24,1.06,1.06,0,0,0,.28.15l.45.13a6,6,0,0,1,.64.18,1.15,1.15,0,0,1,.42.3.77.77,0,0,1,.18.54.92.92,0,0,1-.16.53,1.05,1.05,0,0,1-.47.37,2.05,2.05,0,0,1-.78.14A3,3,0,0,1,192.8,78.19Zm1.11-4.41h.73l-.87.69h-.54Z"/><path class="cls-4" d="M198.76,74.75v3.5h-.54l-1.93-2.37v2.37h-.64v-3.5h.53l1.93,2.37V74.75Z"/><path class="cls-4" d="M199.7,74.75h.65v3.5h-.65Z"/><path class="cls-4" d="M203.56,77.44h-1.75l-.35.81h-.67l1.58-3.5H203l1.58,3.5h-.68Zm-.21-.51-.66-1.53L202,76.93Z"/><path class="cls-4" d="M205,74.75h1.53a2.12,2.12,0,0,1,1,.22,1.61,1.61,0,0,1,.68.61,1.88,1.88,0,0,1,0,1.84,1.61,1.61,0,0,1-.68.61,2.12,2.12,0,0,1-1,.22H205Zm1.5,3a1.44,1.44,0,0,0,.67-.15,1,1,0,0,0,.45-.42,1.32,1.32,0,0,0,0-1.26,1,1,0,0,0-.45-.42,1.44,1.44,0,0,0-.67-.15h-.85v2.4Z"/><path class="cls-4" d="M211.39,77.44h-1.75l-.35.81h-.67l1.58-3.5h.64l1.58,3.5h-.68Zm-.22-.51-.66-1.53-.65,1.53Z"/><path class="cls-4" d="M216,74.75v3.5h-.53l-1.93-2.37v2.37h-.65v-3.5h.54l1.93,2.37V74.75Z"/><path class="cls-4" d="M216.91,74.75h.65v3.5h-.65Z"/><path class="cls-4" d="M221.13,77.71v.54H218.5v-3.5h2.56v.55h-1.9v.91h1.68v.53h-1.68v1Z"/><path class="cls-4" d="M225.07,78.25V75.93l-1.15,1.92h-.29L222.48,76v2.29h-.62v-3.5h.53l1.39,2.32,1.37-2.32h.53v3.5Z"/><path class="cls-4" d="M204.15,101.52V105h-.65v-3h-.74v-.54Z"/><path class="cls-4" d="M207.18,102.07H206v-.55h3v.55h-1.16v3h-.65Z"/><path class="cls-4" d="M211.58,104.21h-1.75l-.35.81h-.67l1.58-3.5H211l1.58,3.5h-.68Zm-.22-.51-.66-1.53-.65,1.53Z"/><path class="cls-4" d="M216,103.52a.84.84,0,0,1,.17.55.81.81,0,0,1-.35.7,1.71,1.71,0,0,1-1,.25h-1.74v-3.5h1.64a1.64,1.64,0,0,1,1,.24.79.79,0,0,1,.33.67.88.88,0,0,1-.12.46.82.82,0,0,1-.33.31A.86.86,0,0,1,216,103.52ZM213.7,102v1h.92a.92.92,0,0,0,.52-.13.39.39,0,0,0,.19-.35.4.4,0,0,0-.19-.37.93.93,0,0,0-.52-.12Zm1.81,2c0-.33-.26-.5-.76-.5H213.7v1h1.05C215.25,104.51,215.51,104.34,215.51,104Z"/><path class="cls-4" d="M216.86,101.52h.65v3h1.83V105h-2.48Z"/><path class="cls-4" d="M222.48,104.48V105h-2.63v-3.5h2.56v.54H220.5V103h1.69v.53H220.5v1Z"/><path class="cls-4" d="M223.91,102.07h-1.16v-.55h3v.55h-1.16v3h-.65Z"/><path class="cls-4" d="M227.42,103.56l-.56.56v.9h-.65v-3.5h.65v1.79l1.73-1.79h.73l-1.47,1.56,1.56,1.94h-.76Z"/><path class="cls-4" d="M232,104.21h-1.75l-.35.81h-.67l1.58-3.5h.64L233,105h-.68Zm-.22-.51-.66-1.53-.65,1.53Z"/><path class="cls-4" d="M235.49,104.84a1.82,1.82,0,0,1-.67-.65,1.78,1.78,0,0,1-.24-.92,1.69,1.69,0,0,1,.25-.92,1.68,1.68,0,0,1,.67-.65,2.11,2.11,0,0,1,1.74-.08,1.56,1.56,0,0,1,.6.44l-.42.39a1.22,1.22,0,0,0-.93-.41,1.28,1.28,0,0,0-.65.16,1,1,0,0,0-.44.44,1.32,1.32,0,0,0,0,1.26,1,1,0,0,0,.44.44,1.28,1.28,0,0,0,.65.16,1.2,1.2,0,0,0,.93-.42l.42.4a1.56,1.56,0,0,1-.6.44,2,2,0,0,1-.79.15A2.06,2.06,0,0,1,235.49,104.84Z"/><path class="cls-4" d="M239.06,104.84a1.68,1.68,0,0,1-.67-.65,1.82,1.82,0,0,1,0-1.84,1.68,1.68,0,0,1,.67-.65,2.14,2.14,0,0,1,1.93,0,1.79,1.79,0,0,1,0,3.14,2.14,2.14,0,0,1-1.93,0Zm1.6-.5a1.16,1.16,0,0,0,.44-.44,1.32,1.32,0,0,0,0-1.26,1.16,1.16,0,0,0-.44-.44A1.23,1.23,0,0,0,240,102a1.18,1.18,0,0,0-.63.16,1,1,0,0,0-.44.44,1.32,1.32,0,0,0,0,1.26,1,1,0,0,0,.44.44,1.18,1.18,0,0,0,.63.16A1.23,1.23,0,0,0,240.66,104.34Z"/><path class="cls-4" d="M242.6,101.52h1.53a2.16,2.16,0,0,1,1,.22,1.59,1.59,0,0,1,.67.61,1.88,1.88,0,0,1,0,1.84,1.59,1.59,0,0,1-.67.61,2.16,2.16,0,0,1-1,.22H242.6Zm1.5,3a1.48,1.48,0,0,0,.68-.15,1.14,1.14,0,0,0,.45-.42,1.32,1.32,0,0,0,0-1.26,1.14,1.14,0,0,0-.45-.42,1.48,1.48,0,0,0-.68-.15h-.85v2.4Z"/><path class="cls-4" d="M249.41,104.47V105h-3v-.44l2.06-2.51h-2v-.55h2.89V102l-2.06,2.51Z"/><path class="cls-4" d="M250,101.52h.65V105H250Z"/><path class="cls-4" d="M254.23,104.48V105H251.6v-3.5h2.56v.54h-1.91V103h1.69v.53h-1.69v1Z"/><path class="cls-4" d="M258.06,101.52V105h-.53l-1.93-2.37V105H255v-3.5h.54l1.93,2.37v-2.37Z"/><path class="cls-4" d="M262.11,101.52V105h-.53l-1.93-2.37V105H259v-3.5h.54l1.93,2.37v-2.37Z"/><path class="cls-4" d="M263.05,101.52h.65V105h-.65Z"/><path class="cls-4" d="M267.27,104.48V105h-2.62v-3.5h2.55v.54h-1.9V103H267v.53H265.3v1Z"/><path class="cls-3" d="M21.4,59.62v3.5h-.53l-1.93-2.37v2.37h-.65v-3.5h.54L20.76,62V59.62Z"/><path class="cls-3" d="M22.34,59.62H23v3.5h-.65Z"/><path class="cls-3" d="M26.56,62.58v.54H23.94v-3.5h2.55v.55h-1.9v.91h1.69v.53H24.59v1Z"/><path class="cls-3" d="M27.29,59.62h1.53a2.12,2.12,0,0,1,1,.22,1.61,1.61,0,0,1,.68.61,1.88,1.88,0,0,1,0,1.84,1.61,1.61,0,0,1-.68.61,2.12,2.12,0,0,1-1,.22H27.29Zm1.5,3a1.48,1.48,0,0,0,.68-.15,1.14,1.14,0,0,0,.45-.42,1.4,1.4,0,0,0,0-1.26,1.14,1.14,0,0,0-.45-.42,1.48,1.48,0,0,0-.68-.15h-.85v2.4Z"/><path class="cls-3" d="M32.09,62.94a1.79,1.79,0,0,1,0-3.14,2.14,2.14,0,0,1,1.93,0,1.68,1.68,0,0,1,.67.65,1.82,1.82,0,0,1,0,1.84,1.68,1.68,0,0,1-.67.65,2.14,2.14,0,0,1-1.93,0Zm1.59-.5a1,1,0,0,0,.44-.44,1.32,1.32,0,0,0,0-1.26,1,1,0,0,0-.44-.44,1.18,1.18,0,0,0-.63-.16,1.23,1.23,0,0,0-.63.16,1.16,1.16,0,0,0-.44.44A1.32,1.32,0,0,0,32,62a1.16,1.16,0,0,0,.44.44,1.23,1.23,0,0,0,.63.16A1.18,1.18,0,0,0,33.68,62.44Z"/><path class="cls-3" d="M36.83,61.66l-.55.57v.89h-.65v-3.5h.65v1.8L38,59.62h.73l-1.47,1.57,1.56,1.93h-.76Z"/><path class="cls-3" d="M41.56,63.12l-.71-1h-.93v1h-.65v-3.5h1.44a2,2,0,0,1,.8.15,1.14,1.14,0,0,1,.51.43,1.22,1.22,0,0,1,.18.67,1.15,1.15,0,0,1-.19.67,1.08,1.08,0,0,1-.55.43l.8,1.15Zm-.23-2.77a1,1,0,0,0-.65-.18h-.76v1.39h.76a1,1,0,0,0,.65-.18.61.61,0,0,0,.22-.51A.62.62,0,0,0,41.33,60.35Z"/><path class="cls-3" d="M48,59.62l-1.16,3.5h-.69l-.86-2.59-.88,2.59h-.7l-1.16-3.5h.68l.87,2.66.9-2.66h.6l.89,2.67.89-2.67Z"/><path class="cls-3" d="M48.57,59.62h.65v3.5h-.65Z"/><path class="cls-3" d="M50.47,63.06a1.69,1.69,0,0,1-.6-.31l.23-.5a1.76,1.76,0,0,0,.53.27,1.88,1.88,0,0,0,.62.11,1.05,1.05,0,0,0,.59-.13.38.38,0,0,0,.19-.32.33.33,0,0,0-.11-.25.72.72,0,0,0-.27-.16l-.45-.12a5.39,5.39,0,0,1-.65-.19,1,1,0,0,1-.42-.3.77.77,0,0,1-.18-.54.9.9,0,0,1,.16-.53,1,1,0,0,1,.47-.38,2,2,0,0,1,.78-.14,2.72,2.72,0,0,1,.63.08,1.6,1.6,0,0,1,.53.23l-.2.51a1.89,1.89,0,0,0-1-.28,1,1,0,0,0-.57.13.42.42,0,0,0-.19.34.31.31,0,0,0,.11.25A.87.87,0,0,0,51,61a3.46,3.46,0,0,0,.45.12c.26.07.48.13.64.19a1.19,1.19,0,0,1,.43.3.77.77,0,0,1,.18.54.92.92,0,0,1-.16.53A1,1,0,0,1,52,63a2,2,0,0,1-.78.14A2.88,2.88,0,0,1,50.47,63.06Z"/><path class="cls-3" d="M54,60.17H52.81v-.55h3v.55H54.62v2.95H54Z"/><path class="cls-3" d="M56.89,62.94a1.74,1.74,0,0,1-.67-.65,1.82,1.82,0,0,1,0-1.84,1.74,1.74,0,0,1,.67-.65,2.07,2.07,0,0,1,1-.23,2,2,0,0,1,1,.23,1.7,1.7,0,0,1,.68.65,1.88,1.88,0,0,1,0,1.84,1.7,1.7,0,0,1-.68.65,2,2,0,0,1-1,.23A2.07,2.07,0,0,1,56.89,62.94Zm1.6-.5a1.1,1.1,0,0,0,.44-.44,1.32,1.32,0,0,0,0-1.26,1.1,1.1,0,0,0-.44-.44,1.32,1.32,0,0,0-1.26,0,1.1,1.1,0,0,0-.44.44,1.32,1.32,0,0,0,0,1.26,1.1,1.1,0,0,0,.44.44,1.32,1.32,0,0,0,1.26,0Z"/><path class="cls-3" d="M60.74,63.06a1.53,1.53,0,0,1-.6-.31l.22-.5a1.88,1.88,0,0,0,.53.27,2,2,0,0,0,.63.11,1,1,0,0,0,.58-.13.36.36,0,0,0,.19-.32.32.32,0,0,0-.1-.25.85.85,0,0,0-.28-.16l-.45-.12a5.17,5.17,0,0,1-.64-.19,1,1,0,0,1-.43-.3.77.77,0,0,1-.18-.54,1,1,0,0,1,.16-.53,1,1,0,0,1,.48-.38,2,2,0,0,1,.77-.14,2.59,2.59,0,0,1,.63.08,1.66,1.66,0,0,1,.54.23l-.21.51a1.71,1.71,0,0,0-.48-.21,1.64,1.64,0,0,0-.48-.07,1,1,0,0,0-.57.13.39.39,0,0,0-.19.34.28.28,0,0,0,.11.25.87.87,0,0,0,.27.15,3.46,3.46,0,0,0,.45.12l.64.19a1.28,1.28,0,0,1,.43.3.81.81,0,0,1,.17.54,1,1,0,0,1-.15.53,1.15,1.15,0,0,1-.48.37,2,2,0,0,1-.78.14A2.88,2.88,0,0,1,60.74,63.06Zm1.1-4.41h.73l-.87.68h-.54Z"/><path class="cls-3" d="M64.24,62.94a1.74,1.74,0,0,1-.67-.65,1.79,1.79,0,0,1,.68-2.49,2,2,0,0,1,1-.23,2,2,0,0,1,.79.15,1.73,1.73,0,0,1,.6.44l-.42.39a1.26,1.26,0,0,0-.94-.41,1.24,1.24,0,0,0-.64.16,1.12,1.12,0,0,0-.45.44,1.32,1.32,0,0,0,0,1.26,1.12,1.12,0,0,0,.45.44,1.24,1.24,0,0,0,.64.16,1.26,1.26,0,0,0,.94-.41l.42.39A1.73,1.73,0,0,1,66,63a2.06,2.06,0,0,1-.79.15A2,2,0,0,1,64.24,62.94Zm1.19-4.29h.73l-.87.68h-.54Z"/><path class="cls-3" d="M71.31,62.57v.55h-3v-.43l2.06-2.52h-2v-.55h2.89v.44l-2.06,2.51Z"/><path class="cls-3" d="M76.4,59.62v3.5h-.54l-1.93-2.37v2.37h-.64v-3.5h.53L75.75,62V59.62Z"/><path class="cls-3" d="M77.34,59.62H78v3.5h-.65Z"/><path class="cls-3" d="M81.56,62.58v.54H78.93v-3.5h2.56v.55H79.58v.91h1.69v.53H79.58v1Z"/><path class="cls-3" d="M82.28,59.62h1.53a2.14,2.14,0,0,1,1,.22,1.59,1.59,0,0,1,.67.61,1.88,1.88,0,0,1,0,1.84,1.59,1.59,0,0,1-.67.61,2.14,2.14,0,0,1-1,.22H82.28Zm1.5,3a1.45,1.45,0,0,0,.68-.15,1,1,0,0,0,.45-.42,1.32,1.32,0,0,0,0-1.26,1,1,0,0,0-.45-.42,1.45,1.45,0,0,0-.68-.15h-.85v2.4Z"/><path class="cls-3" d="M87.08,62.94a1.74,1.74,0,0,1-.67-.65,1.82,1.82,0,0,1,0-1.84,1.74,1.74,0,0,1,.67-.65,2.07,2.07,0,0,1,1-.23,2,2,0,0,1,1,.23,1.79,1.79,0,0,1,0,3.14,2,2,0,0,1-1,.23A2.07,2.07,0,0,1,87.08,62.94Zm1.6-.5a1.16,1.16,0,0,0,.44-.44,1.32,1.32,0,0,0,0-1.26,1.16,1.16,0,0,0-.44-.44,1.23,1.23,0,0,0-.63-.16,1.18,1.18,0,0,0-.63.16,1,1,0,0,0-.44.44A1.32,1.32,0,0,0,87,62a1,1,0,0,0,.44.44,1.18,1.18,0,0,0,.63.16A1.23,1.23,0,0,0,88.68,62.44Z"/><path class="cls-3" d="M93.56,61.62a.84.84,0,0,1,.17.55.79.79,0,0,1-.35.7,1.71,1.71,0,0,1-1,.25H90.62v-3.5h1.64a1.64,1.64,0,0,1,1,.24.79.79,0,0,1,.33.67.88.88,0,0,1-.12.46.82.82,0,0,1-.33.31A.86.86,0,0,1,93.56,61.62Zm-2.29-1.49v1h.92a1,1,0,0,0,.53-.13.4.4,0,0,0,.18-.35.42.42,0,0,0-.18-.37,1,1,0,0,0-.53-.12Zm1.81,2c0-.33-.25-.5-.76-.5h-1v1h1C92.83,62.61,93.08,62.44,93.08,62.1Z"/><path class="cls-3" d="M95.1,62.94a1.79,1.79,0,0,1,0-3.14,2,2,0,0,1,1-.23,2.07,2.07,0,0,1,1,.23,1.74,1.74,0,0,1,.67.65,1.82,1.82,0,0,1,0,1.84,1.74,1.74,0,0,1-.67.65,2.07,2.07,0,0,1-1,.23A2,2,0,0,1,95.1,62.94Zm1.59-.5a1,1,0,0,0,.44-.44,1.32,1.32,0,0,0,0-1.26,1,1,0,0,0-.44-.44,1.18,1.18,0,0,0-.63-.16,1.23,1.23,0,0,0-.63.16,1.16,1.16,0,0,0-.44.44A1.32,1.32,0,0,0,95,62a1.16,1.16,0,0,0,.44.44,1.23,1.23,0,0,0,.63.16A1.18,1.18,0,0,0,96.69,62.44Z"/><path class="cls-3" d="M100.93,63.12l-.72-1h-.92v1h-.65v-3.5h1.44a1.92,1.92,0,0,1,.79.15,1.11,1.11,0,0,1,.52.43,1.22,1.22,0,0,1,.18.67,1.15,1.15,0,0,1-.2.67,1,1,0,0,1-.55.43l.81,1.15Zm-.24-2.77a1,1,0,0,0-.64-.18h-.76v1.39h.76a1,1,0,0,0,.64-.18.61.61,0,0,0,.22-.51A.62.62,0,0,0,100.69,60.35Z"/><path class="cls-3" d="M102.67,62.76a1.58,1.58,0,0,1-.41-1.16v-2h.65v2c0,.69.3,1,.89,1s.89-.34.89-1v-2h.64v2a1.62,1.62,0,0,1-.4,1.16,1.54,1.54,0,0,1-1.13.41A1.52,1.52,0,0,1,102.67,62.76Z"/><path class="cls-3" d="M110.34,62.57v.55h-3v-.43l2.06-2.52h-2v-.55h2.88v.44l-2.06,2.51Zm-1.75-3.39a.4.4,0,0,1-.1-.26.36.36,0,0,1,.1-.25.35.35,0,0,1,.26-.11.33.33,0,0,1,.25.11.32.32,0,0,1,.1.25.35.35,0,0,1-.1.26.35.35,0,0,1-.25.09A.37.37,0,0,1,108.59,59.18Z"/><path class="cls-3" d="M113.56,62.58v.54h-2.63v-3.5h2.56v.55h-1.91v.91h1.69v.53h-1.69v1Z"/><path class="cls-3" d="M114.28,59.62h.65v3h1.83v.55h-2.48Z"/><path class="cls-3" d="M119.57,62.31h-1.75l-.34.81h-.67l1.57-3.5H119l1.58,3.5h-.68Zm-.21-.51-.66-1.53L118,61.8Z"/><path class="cls-3" d="M123.77,62.57v.55h-3v-.43l2.06-2.52h-2v-.55h2.88v.44l-2.06,2.51Z"/><path class="cls-3" d="M126.63,62.31h-1.75l-.34.81h-.67l1.57-3.5h.64l1.58,3.5H127Zm-.21-.51-.66-1.53-.66,1.53Z"/><path class="cls-3" d="M19,68.94a1.74,1.74,0,0,1-.67-.65,1.82,1.82,0,0,1,0-1.84A1.74,1.74,0,0,1,19,65.8a2.07,2.07,0,0,1,1-.23,2,2,0,0,1,1,.23,1.7,1.7,0,0,1,.68.65,1.88,1.88,0,0,1,0,1.84,1.7,1.7,0,0,1-.68.65,2,2,0,0,1-1,.23A2.07,2.07,0,0,1,19,68.94Zm1.6-.5A1.1,1.1,0,0,0,21,68a1.32,1.32,0,0,0,0-1.26,1.1,1.1,0,0,0-.44-.44,1.32,1.32,0,0,0-1.26,0,1.1,1.1,0,0,0-.44.44,1.32,1.32,0,0,0,0,1.26,1.1,1.1,0,0,0,.44.44,1.32,1.32,0,0,0,1.26,0Z"/><path class="cls-3" d="M26.6,68.57v.55h-3v-.43l2.06-2.52h-2v-.55h2.89v.44l-2.06,2.51Z"/><path class="cls-3" d="M30.31,65.62v3.5h-.54l-1.93-2.37v2.37H27.2v-3.5h.53L29.66,68V65.62Z"/><path class="cls-3" d="M33.52,68.31H31.77l-.35.81h-.67l1.58-3.5H33l1.58,3.5h-.68Zm-.22-.51-.66-1.53L32,67.8Z"/><path class="cls-3" d="M35.61,68.94a1.68,1.68,0,0,1-.67-.65,1.82,1.82,0,0,1,0-1.84,1.74,1.74,0,0,1,.67-.65,2,2,0,0,1,1-.23,2,2,0,0,1,.78.15,1.56,1.56,0,0,1,.6.44l-.42.39a1.22,1.22,0,0,0-.93-.41,1.28,1.28,0,0,0-.65.16,1,1,0,0,0-.44.44,1.32,1.32,0,0,0,0,1.26,1,1,0,0,0,.44.44,1.28,1.28,0,0,0,.65.16,1.22,1.22,0,0,0,.93-.41l.42.39a1.56,1.56,0,0,1-.6.44,2,2,0,0,1-.79.15A2,2,0,0,1,35.61,68.94Z"/><path class="cls-3" d="M41.3,68.57v.55h-3v-.43l2.06-2.52h-2v-.55h2.88v.44l-2.06,2.51Z"/><path class="cls-3" d="M45,65.62v3.5h-.53l-1.93-2.37v2.37h-.65v-3.5h.54L44.36,68V65.62Z"/><path class="cls-3" d="M47.45,67.89v1.23H46.8V67.9l-1.37-2.28h.69l1,1.71,1-1.71h.64Z"/><path class="cls-3" d="M52.41,69.12V66.8l-1.15,1.92H51l-1.15-1.89v2.29H49.2v-3.5h.53l1.39,2.32,1.37-2.32H53v3.5Z"/><path class="cls-3" d="M58.46,65.62v3.5h-.53L56,66.75v2.37h-.65v-3.5h.54L57.82,68V65.62Z"/><path class="cls-3" d="M61.67,68.31H59.92l-.34.81h-.67l1.57-3.5h.64l1.58,3.5H62Zm-.21-.51-.66-1.53-.66,1.53Z"/><path class="cls-3" d="M63.45,69.06a1.69,1.69,0,0,1-.6-.31l.23-.5a1.76,1.76,0,0,0,.53.27,1.88,1.88,0,0,0,.62.11,1.05,1.05,0,0,0,.59-.13.38.38,0,0,0,.19-.32.33.33,0,0,0-.11-.25.72.72,0,0,0-.27-.16l-.45-.12a5.39,5.39,0,0,1-.65-.19,1,1,0,0,1-.42-.3.77.77,0,0,1-.18-.54.9.9,0,0,1,.16-.53,1,1,0,0,1,.47-.38,2,2,0,0,1,.78-.14,2.72,2.72,0,0,1,.63.08,1.6,1.6,0,0,1,.53.23l-.2.51a1.85,1.85,0,0,0-.48-.21,1.71,1.71,0,0,0-.49-.07,1,1,0,0,0-.57.13.42.42,0,0,0-.19.34.31.31,0,0,0,.11.25A.87.87,0,0,0,64,67a3.46,3.46,0,0,0,.45.12c.26.07.48.13.64.19a1.19,1.19,0,0,1,.43.3.77.77,0,0,1,.18.54.92.92,0,0,1-.16.53A1,1,0,0,1,65,69a2,2,0,0,1-.78.14A2.88,2.88,0,0,1,63.45,69.06Z"/><path class="cls-3" d="M66.29,65.62h.65v3.5h-.65Z"/><path class="cls-3" d="M67.89,65.62h.65v2.95h1.83v.55H67.89Z"/><path class="cls-3" d="M73.51,68.58v.54H70.88v-3.5h2.56v.55H71.53v.91h1.69v.53H71.53v1Z"/><path class="cls-3" d="M77.34,65.62v3.5h-.53l-1.93-2.37v2.37h-.65v-3.5h.54L76.7,68V65.62Z"/><path class="cls-3" d="M78.28,65.62h.65v3.5h-.65Z"/><path class="cls-3" d="M80.25,68.76a1.57,1.57,0,0,1-.4-1.16v-2h.65v1.95c0,.69.29,1,.89,1s.88-.34.88-1V65.62h.64v2a1.57,1.57,0,0,1-.4,1.16,1.52,1.52,0,0,1-1.13.41A1.54,1.54,0,0,1,80.25,68.76Z"/><path class="cls-3" d="M18.67,100.34a1.59,1.59,0,0,1-.41-1.17v-2h.65v2c0,.68.3,1,.89,1s.89-.35.89-1v-2h.64v2a1.62,1.62,0,0,1-.4,1.17,1.54,1.54,0,0,1-1.13.41A1.52,1.52,0,0,1,18.67,100.34Z"/><path class="cls-3" d="M25,100.15v.55H22v-.44L24,97.75H22V97.2h2.88v.43l-2.06,2.52Z"/><path class="cls-3" d="M25.93,100.34a1.59,1.59,0,0,1-.41-1.17v-2h.65v2c0,.68.3,1,.89,1s.89-.35.89-1v-2h.64v2a1.62,1.62,0,0,1-.4,1.17,1.54,1.54,0,0,1-1.13.41A1.52,1.52,0,0,1,25.93,100.34Z"/><path class="cls-3" d="M31.73,97.35a1.11,1.11,0,0,1,.52.43,1.19,1.19,0,0,1,.18.66,1.16,1.16,0,0,1-.18.66,1.13,1.13,0,0,1-.52.44,1.92,1.92,0,0,1-.79.15h-.79v1H29.5V97.2h1.44A1.92,1.92,0,0,1,31.73,97.35ZM31.55,99a.62.62,0,0,0,.22-.52.61.61,0,0,0-.22-.51,1,1,0,0,0-.64-.18h-.76v1.39h.76A1,1,0,0,0,31.55,99Z"/><path class="cls-3" d="M35.7,100.15v.55H33.08V97.2h2.55v.54h-1.9v.91h1.69v.54H33.73v1Z"/><path class="cls-3" d="M35.94,99.18l1.72-1.31.27.34L36.2,99.52Zm.54-2h.65v3H39v.55H36.48Z"/><path class="cls-3" d="M42.58,97.2v3.5h-.53l-1.93-2.37v2.37h-.65V97.2H40l1.93,2.37V97.2Z"/><path class="cls-3" d="M43.52,97.2h.65v3.5h-.65Z"/><path class="cls-3" d="M47.74,100.15v.55H45.12V97.2h2.55v.54h-1.9v.91h1.69v.54H45.77v1Z"/><path class="cls-3" d="M51.58,97.2v3.5H51l-1.93-2.37v2.37h-.64V97.2H49l1.93,2.37V97.2Z"/><path class="cls-3" d="M52.52,97.2h.65v3.5h-.65Z"/><path class="cls-3" d="M56.74,100.15v.55H54.11V97.2h2.56v.54H54.76v.91h1.69v.54H54.76v1Z"/><path class="cls-3" d="M61.13,100.7l-.71-1h-.93v1h-.65V97.2h1.44a2,2,0,0,1,.8.15,1.14,1.14,0,0,1,.51.43,1.19,1.19,0,0,1,.18.66,1.16,1.16,0,0,1-.19.68,1.2,1.2,0,0,1-.55.43l.8,1.15Zm-.23-2.77a1,1,0,0,0-.65-.18h-.76v1.39h.76A1,1,0,0,0,60.9,99a.62.62,0,0,0,.22-.52A.61.61,0,0,0,60.9,97.93Z"/><path class="cls-3" d="M65.12,100.15v.55H62.5V97.2h2.55v.54h-1.9v.91h1.69v.54H63.15v1Z"/><path class="cls-3" d="M68.57,100.15v.55h-3v-.44l2.06-2.51h-2V97.2H68.5v.43l-2.06,2.52Z"/><path class="cls-3" d="M71.79,100.15v.55H69.16V97.2h2.56v.54H69.81v.91H71.5v.54H69.81v1Z"/><path class="cls-3" d="M74.8,100.7l-.71-1h-.93v1h-.65V97.2H74a2,2,0,0,1,.8.15,1.14,1.14,0,0,1,.51.43,1.19,1.19,0,0,1,.18.66,1.16,1.16,0,0,1-.19.68,1.2,1.2,0,0,1-.55.43l.8,1.15Zm-.23-2.77a1,1,0,0,0-.65-.18h-.76v1.39h.76a1,1,0,0,0,.65-.18.62.62,0,0,0,.22-.52A.61.61,0,0,0,74.57,97.93Z"/><path class="cls-3" d="M81.28,97.2l-1.16,3.5h-.69l-.86-2.59-.88,2.59H77l-1.16-3.5h.68l.87,2.66.9-2.66h.6l.89,2.67.89-2.67Z"/><path class="cls-3" d="M86,100.15v.55H83v-.44l2.06-2.51H83V97.2h2.88v.43l-2.06,2.52Zm-1.75-3.4a.36.36,0,0,1-.1-.25.38.38,0,0,1,.1-.26.4.4,0,0,1,.26-.1.36.36,0,0,1,.25.1.34.34,0,0,1,.1.26.34.34,0,0,1-.35.35A.35.35,0,0,1,84.24,96.75Z"/><path class="cls-3" d="M89.21,100.15v.55H86.58V97.2h2.56v.54H87.23v.91h1.69v.54H87.23v1Z"/><path class="cls-3" d="M89.93,97.2h.65v3h1.83v.55H89.93Z"/><path class="cls-3" d="M95.22,99.89H93.47l-.34.81h-.67L94,97.2h.64l1.58,3.5h-.68ZM95,99.38l-.66-1.53-.66,1.53Z"/><path class="cls-3" d="M99.42,100.15v.55h-3v-.44l2.06-2.51h-2V97.2h2.88v.43l-2.06,2.52Z"/><path class="cls-3" d="M102.28,99.89h-1.75l-.34.81h-.67l1.57-3.5h.64l1.58,3.5h-.68Zm-.21-.51-.66-1.53-.66,1.53Z"/><path class="cls-3" d="M23.41,103.2l-1.16,3.5h-.69l-.87-2.59-.88,2.59h-.69L18,103.2h.67l.87,2.66.91-2.66H21l.88,2.67.9-2.67Z"/><path class="cls-3" d="M26.06,106.51a1.72,1.72,0,0,1-.67-.64,1.81,1.81,0,0,1-.25-.92,1.85,1.85,0,0,1,.25-.93,1.72,1.72,0,0,1,.67-.64,2,2,0,0,1,1-.23,1.9,1.9,0,0,1,1,.23,1.68,1.68,0,0,1,.68.64,1.81,1.81,0,0,1,.24.93,1.78,1.78,0,0,1-.24.92,1.62,1.62,0,0,1-.68.64,1.9,1.9,0,0,1-1,.24A2,2,0,0,1,26.06,106.51Zm1.6-.49a1.16,1.16,0,0,0,.44-.44,1.34,1.34,0,0,0,0-1.27,1.14,1.14,0,0,0-.44-.43,1.32,1.32,0,0,0-1.26,0,1.07,1.07,0,0,0-.44.43,1.34,1.34,0,0,0,0,1.27,1.1,1.1,0,0,0,.44.44,1.32,1.32,0,0,0,1.26,0Z"/><path class="cls-3" d="M31.89,106.7l-.71-1h-.93v1H29.6v-3.5H31a2,2,0,0,1,.8.15,1.14,1.14,0,0,1,.51.43,1.19,1.19,0,0,1,.18.66,1.16,1.16,0,0,1-.19.68,1.2,1.2,0,0,1-.55.43l.8,1.15Zm-.23-2.77a1,1,0,0,0-.65-.18h-.76v1.39H31a1,1,0,0,0,.65-.18.62.62,0,0,0,.22-.52A.61.61,0,0,0,31.66,103.93Z"/><path class="cls-3" d="M35.65,104.91h.61v1.39a1.73,1.73,0,0,1-.63.33,2.3,2.3,0,0,1-.74.12,2,2,0,0,1-1-.24,1.68,1.68,0,0,1-.68-.64A1.78,1.78,0,0,1,33,105a1.81,1.81,0,0,1,.24-.93,1.75,1.75,0,0,1,.68-.64,2,2,0,0,1,1-.23,2.24,2.24,0,0,1,.8.14,1.57,1.57,0,0,1,.61.43l-.41.4a1.31,1.31,0,0,0-1-.4,1.38,1.38,0,0,0-.65.15,1.06,1.06,0,0,0-.45.44,1.22,1.22,0,0,0-.17.64,1.24,1.24,0,0,0,.17.63,1.12,1.12,0,0,0,.45.44,1.39,1.39,0,0,0,.65.16,1.43,1.43,0,0,0,.72-.18Z"/><path class="cls-3" d="M39.39,105.89H37.64l-.35.81h-.67l1.58-3.5h.64l1.58,3.5h-.68Zm-.22-.51-.66-1.53-.65,1.53Z"/><path class="cls-3" d="M44,103.2v3.5h-.53l-1.93-2.37v2.37h-.65v-3.5h.54l1.93,2.37V103.2Z"/><path class="cls-3" d="M44.91,103.2h.65v3.5h-.65Z"/><path class="cls-3" d="M49.23,106.15v.55h-3v-.44l2.06-2.51h-2v-.55h2.88v.43l-2.06,2.52Z"/><path class="cls-3" d="M53,106.7v-2.32l-1.15,1.92h-.29l-1.15-1.89v2.29h-.62v-3.5h.54l1.39,2.32,1.36-2.32h.54v3.5Z"/><path class="cls-3" d="M54.6,103.2h.65v3.5H54.6Z"/><path class="cls-3" d="M58.82,106.15v.55H56.19v-3.5h2.56v.54H56.84v.91h1.69v.54H56.84v1Z"/><path class="cls-3" d="M18.67,141.91a1.59,1.59,0,0,1-.41-1.17v-2h.65v2c0,.69.3,1,.89,1s.89-.35.89-1v-2h.64v2a1.62,1.62,0,0,1-.4,1.17,1.53,1.53,0,0,1-1.13.4A1.51,1.51,0,0,1,18.67,141.91Z"/><path class="cls-3" d="M22.88,139.31H21.72v-.55h3v.55H23.53v2.95h-.65Z"/><path class="cls-3" d="M27.28,141.46H25.53l-.35.8h-.67l1.58-3.5h.64l1.58,3.5h-.68Zm-.22-.51-.66-1.53L25.75,141Z"/><path class="cls-3" d="M28.76,142.18a1.23,1.23,0,0,1-.47-.37l.37-.44a.87.87,0,0,0,.7.39c.36,0,.54-.21.54-.64v-1.81H28.66v-.55h1.89v2.32a1.28,1.28,0,0,1-.3.93,1.19,1.19,0,0,1-.88.3A1.36,1.36,0,0,1,28.76,142.18Z"/><path class="cls-3" d="M32.13,142.08a1.72,1.72,0,0,1-.67-.64,1.85,1.85,0,0,1-.25-.93,1.81,1.81,0,0,1,.25-.92,1.72,1.72,0,0,1,.67-.64,2,2,0,0,1,1-.24,1.9,1.9,0,0,1,1,.24,1.68,1.68,0,0,1,.68.64,1.9,1.9,0,0,1,0,1.85,1.68,1.68,0,0,1-.68.64,1.9,1.9,0,0,1-1,.23A2,2,0,0,1,32.13,142.08Zm1.6-.49a1.16,1.16,0,0,0,.44-.44,1.34,1.34,0,0,0,0-1.27,1.16,1.16,0,0,0-.44-.44,1.4,1.4,0,0,0-1.26,0,1.16,1.16,0,0,0-.44.44,1.34,1.34,0,0,0,0,1.27,1.16,1.16,0,0,0,.44.44,1.32,1.32,0,0,0,1.26,0Z"/><path class="cls-3" d="M38.78,138.76v3.5h-.53l-1.93-2.37v2.37h-.65v-3.5h.54l1.93,2.37v-2.37Z"/><path class="cls-3" d="M41.23,141v1.23h-.65V141l-1.37-2.28h.69l1,1.71,1-1.71h.64Z"/><path class="cls-3" d="M47.52,138.76v3.5H47l-1.93-2.37v2.37h-.64v-3.5h.53l1.93,2.37v-2.37Z"/><path class="cls-3" d="M48.46,138.76h.65v3.5h-.65Z"/><path class="cls-3" d="M52.68,141.72v.54H50.05v-3.5h2.56v.55H50.7v.91h1.69v.53H50.7v1Z"/><path class="cls-3" d="M53.4,138.76h1.53a2.26,2.26,0,0,1,1,.22,1.61,1.61,0,0,1,.67.62,1.86,1.86,0,0,1,0,1.83,1.61,1.61,0,0,1-.67.62,2.26,2.26,0,0,1-1,.21H53.4Zm1.5,3a1.45,1.45,0,0,0,.68-.14,1,1,0,0,0,.45-.42,1.22,1.22,0,0,0,.16-.64,1.18,1.18,0,0,0-.16-.63,1,1,0,0,0-.45-.42,1.45,1.45,0,0,0-.68-.15h-.85v2.4Z"/><path class="cls-3" d="M58.2,142.08a1.72,1.72,0,0,1-.67-.64,1.75,1.75,0,0,1-.25-.93A1.75,1.75,0,0,1,58.2,139a2,2,0,0,1,1-.24,1.93,1.93,0,0,1,1,.24,1.68,1.68,0,0,1,.68.64,1.9,1.9,0,0,1,0,1.85,1.68,1.68,0,0,1-.68.64,1.92,1.92,0,0,1-1,.23A2,2,0,0,1,58.2,142.08Zm1.6-.49a1.24,1.24,0,0,0,.44-.44,1.34,1.34,0,0,0,0-1.27,1.24,1.24,0,0,0-.44-.44,1.4,1.4,0,0,0-1.26,0,1.1,1.1,0,0,0-.44.44,1.34,1.34,0,0,0,0,1.27,1.1,1.1,0,0,0,.44.44,1.32,1.32,0,0,0,1.26,0Z"/><path class="cls-3" d="M64.68,140.76a.84.84,0,0,1,.17.55.81.81,0,0,1-.35.71,1.79,1.79,0,0,1-1,.24H61.74v-3.5h1.64a1.64,1.64,0,0,1,1,.25.77.77,0,0,1,.33.66.87.87,0,0,1-.45.78A.84.84,0,0,1,64.68,140.76Zm-2.29-1.49v1h.92a1,1,0,0,0,.53-.12.45.45,0,0,0,0-.72,1,1,0,0,0-.53-.13Zm1.81,2c0-.34-.25-.5-.76-.5h-1v1h1C64,141.75,64.2,141.59,64.2,141.25Z"/><path class="cls-3" d="M66.22,142.08a1.75,1.75,0,0,1-.68-.64,1.84,1.84,0,0,1-.24-.93,1.8,1.8,0,0,1,.24-.92,1.75,1.75,0,0,1,.68-.64,2.06,2.06,0,0,1,1.93,0,1.65,1.65,0,0,1,.67.64,1.84,1.84,0,0,1,0,1.85,1.65,1.65,0,0,1-.67.64,2.14,2.14,0,0,1-1.93,0Zm1.59-.49a1.1,1.1,0,0,0,.44-.44,1.34,1.34,0,0,0,0-1.27,1.1,1.1,0,0,0-.44-.44,1.28,1.28,0,0,0-.63-.15,1.33,1.33,0,0,0-.63.15,1.24,1.24,0,0,0-.44.44,1.34,1.34,0,0,0,0,1.27,1.24,1.24,0,0,0,.44.44,1.34,1.34,0,0,0,.63.16A1.28,1.28,0,0,0,67.81,141.59Zm-.37-3.8h.73l-.87.69h-.54Z"/><path class="cls-3" d="M72.05,142.26l-.72-1h-.92v1h-.65v-3.5H71.2a1.77,1.77,0,0,1,.79.16,1.1,1.1,0,0,1,.52.42,1.22,1.22,0,0,1,.18.67,1.26,1.26,0,0,1-.19.68,1.23,1.23,0,0,1-.56.43l.81,1.14Zm-.24-2.76a1,1,0,0,0-.64-.19h-.76v1.4h.76a1,1,0,0,0,.64-.18A.63.63,0,0,0,72,140,.61.61,0,0,0,71.81,139.5Z"/><path class="cls-3" d="M77.51,141.71v.55h-3v-.43l2.06-2.52h-2v-.55h2.89v.44l-2.06,2.51Zm-1.74-3.39a.34.34,0,0,1-.1-.26.33.33,0,0,1,.1-.25.32.32,0,0,1,.25-.1.34.34,0,0,1,.26.1.37.37,0,0,1,.1.25.38.38,0,0,1-.1.26.34.34,0,0,1-.26.1A.32.32,0,0,1,75.77,138.32Z"/><path class="cls-3" d="M80.73,141.72v.54H78.11v-3.5h2.55v.55h-1.9v.91h1.69v.53H78.76v1Z"/><path class="cls-3" d="M81.46,138.76h.65v3h1.83v.55H81.46Z"/><path class="cls-3" d="M86.75,141.46H85l-.35.8H84l1.58-3.5h.64l1.58,3.5H87.1Zm-.22-.51-.66-1.53L85.22,141Z"/><path class="cls-3" d="M90.94,141.71v.55H88v-.43L90,139.31H88v-.55h2.89v.44l-2.06,2.51Z"/><path class="cls-3" d="M93.81,141.46H92.06l-.35.8H91l1.58-3.5h.64l1.58,3.5h-.68Zm-.22-.51-.66-1.53L92.28,141Z"/><path class="cls-4" d="M204.15,135.11v3.5h-.65v-3h-.74v-.54Z"/><path class="cls-4" d="M207.18,135.66H206v-.55h3v.55h-1.16v3h-.65Z"/><path class="cls-4" d="M211.58,137.8h-1.75l-.35.81h-.67l1.58-3.5H211l1.58,3.5h-.68Zm-.22-.51-.66-1.53-.65,1.53Z"/><path class="cls-4" d="M216,137.1a.87.87,0,0,1,.17.56.82.82,0,0,1-.35.7,1.78,1.78,0,0,1-1,.25h-1.74v-3.5h1.64a1.64,1.64,0,0,1,1,.24.78.78,0,0,1,.33.67.84.84,0,0,1-.45.77A.9.9,0,0,1,216,137.1Zm-2.29-1.48v1h.92a.93.93,0,0,0,.52-.12.44.44,0,0,0,0-.72.93.93,0,0,0-.52-.12Zm1.81,2c0-.34-.26-.5-.76-.5H213.7v1h1.05C215.25,138.1,215.51,137.93,215.51,137.59Z"/><path class="cls-4" d="M216.86,135.11h.65v2.95h1.83v.55h-2.48Z"/><path class="cls-4" d="M222.48,138.06v.55h-2.63v-3.5h2.56v.54H220.5v.91h1.69v.54H220.5v1Z"/><path class="cls-4" d="M223.91,135.66h-1.16v-.55h3v.55h-1.16v3h-.65Z"/><path class="cls-4" d="M227.42,137.14l-.56.57v.9h-.65v-3.5h.65v1.79l1.73-1.79h.73l-1.47,1.56,1.56,1.94h-.76Z"/><path class="cls-4" d="M232,137.8h-1.75l-.35.81h-.67l1.58-3.5h.64l1.58,3.5h-.68Zm-.22-.51-.66-1.53-.65,1.53Z"/><path class="cls-4" d="M235.49,138.42a1.72,1.72,0,0,1-.91-1.56,1.73,1.73,0,0,1,.25-.93,1.65,1.65,0,0,1,.67-.64,1.9,1.9,0,0,1,1-.23,2,2,0,0,1,.78.15,1.54,1.54,0,0,1,.6.43l-.42.4a1.19,1.19,0,0,0-.93-.41,1.38,1.38,0,0,0-.65.15,1.16,1.16,0,0,0-.44.44,1.34,1.34,0,0,0,0,1.27,1.1,1.1,0,0,0,.44.44,1.39,1.39,0,0,0,.65.16,1.2,1.2,0,0,0,.93-.42l.42.4a1.56,1.56,0,0,1-.6.44,2,2,0,0,1-.79.15A2,2,0,0,1,235.49,138.42Z"/><path class="cls-4" d="M239.06,138.42a1.65,1.65,0,0,1-.67-.64,1.72,1.72,0,0,1-.25-.92,1.75,1.75,0,0,1,.25-.93,1.65,1.65,0,0,1,.67-.64,2.14,2.14,0,0,1,1.93,0,1.75,1.75,0,0,1,.68.64,1.81,1.81,0,0,1,.24.93,1.78,1.78,0,0,1-.24.92,1.75,1.75,0,0,1-.68.64,2.06,2.06,0,0,1-1.93,0Zm1.6-.49a1.24,1.24,0,0,0,.44-.44,1.34,1.34,0,0,0,0-1.27,1.17,1.17,0,0,0-1.07-.59,1.28,1.28,0,0,0-.63.15,1.16,1.16,0,0,0-.44.44,1.34,1.34,0,0,0,0,1.27,1.1,1.1,0,0,0,.44.44,1.28,1.28,0,0,0,.63.16A1.34,1.34,0,0,0,240.66,137.93Z"/><path class="cls-4" d="M242.6,135.11h1.53a2.29,2.29,0,0,1,1,.21,1.61,1.61,0,0,1,.67.62,1.86,1.86,0,0,1,0,1.83,1.61,1.61,0,0,1-.67.62,2.3,2.3,0,0,1-1,.22H242.6Zm1.5,2.95a1.48,1.48,0,0,0,.68-.15,1.14,1.14,0,0,0,.45-.42,1.28,1.28,0,0,0,.16-.63,1.35,1.35,0,0,0-.16-.64,1.14,1.14,0,0,0-.45-.42,1.62,1.62,0,0,0-.68-.14h-.85v2.4Z"/><path class="cls-4" d="M249.41,138.06v.55h-3v-.44l2.06-2.51h-2v-.55h2.89v.43l-2.06,2.52Z"/><path class="cls-4" d="M250,135.11h.65v3.5H250Z"/><path class="cls-4" d="M254.23,138.06v.55H251.6v-3.5h2.56v.54h-1.91v.91h1.69v.54h-1.69v1Z"/><path class="cls-4" d="M258.06,135.11v3.5h-.53l-1.93-2.37v2.37H255v-3.5h.54l1.93,2.37v-2.37Z"/><path class="cls-4" d="M262.11,135.11v3.5h-.53l-1.93-2.37v2.37H259v-3.5h.54l1.93,2.37v-2.37Z"/><path class="cls-4" d="M263.05,135.11h.65v3.5h-.65Z"/><path class="cls-4" d="M267.27,138.06v.55h-2.62v-3.5h2.55v.54h-1.9v.91H267v.54H265.3v1Z"/><path class="cls-4" d="M203.19,141.11h.65v2.95h1.83v.55h-2.48Z"/><path class="cls-4" d="M206.51,144.25a1.59,1.59,0,0,1-.41-1.17v-2h.65v1.95c0,.68.3,1,.89,1s.89-.35.89-1v-1.95h.64v2a1.59,1.59,0,0,1-.41,1.17,1.5,1.5,0,0,1-1.12.41A1.52,1.52,0,0,1,206.51,144.25Z"/><path class="cls-4" d="M213,143.1a.93.93,0,0,1,.17.56.82.82,0,0,1-.35.7,1.83,1.83,0,0,1-1,.25h-1.74v-3.5h1.64a1.61,1.61,0,0,1,.95.24.79.79,0,0,1,.34.67.84.84,0,0,1-.45.77A1,1,0,0,1,213,143.1Zm-2.29-1.48v1h.92a1,1,0,0,0,.52-.12.45.45,0,0,0,0-.72,1,1,0,0,0-.52-.12Zm1.8,2c0-.34-.25-.5-.75-.5h-1.05v1h1.05Q212.53,144.1,212.53,143.59Z"/><path class="cls-4" d="M215.92,144.42a1.72,1.72,0,0,1-.91-1.56,1.73,1.73,0,0,1,.25-.93,1.65,1.65,0,0,1,.67-.64,1.9,1.9,0,0,1,1-.23,2,2,0,0,1,.78.15,1.54,1.54,0,0,1,.6.43l-.42.4a1.19,1.19,0,0,0-.93-.41,1.38,1.38,0,0,0-.65.15,1.16,1.16,0,0,0-.44.44,1.34,1.34,0,0,0,0,1.27,1.1,1.1,0,0,0,.44.44,1.39,1.39,0,0,0,.65.16,1.2,1.2,0,0,0,.93-.42l.42.4a1.56,1.56,0,0,1-.6.44,2,2,0,0,1-.79.15A2,2,0,0,1,215.92,144.42Z"/><path class="cls-4" d="M219.49,144.42a1.75,1.75,0,0,1-.92-1.56,1.75,1.75,0,0,1,.25-.93,1.72,1.72,0,0,1,.67-.64,2.14,2.14,0,0,1,1.93,0,1.75,1.75,0,0,1,.68.64,1.81,1.81,0,0,1,.24.93,1.78,1.78,0,0,1-.24.92,1.75,1.75,0,0,1-.68.64,2.06,2.06,0,0,1-1.93,0Zm1.6-.49a1.24,1.24,0,0,0,.44-.44,1.34,1.34,0,0,0,0-1.27,1.17,1.17,0,0,0-1.07-.59,1.28,1.28,0,0,0-.63.15,1.16,1.16,0,0,0-.44.44,1.34,1.34,0,0,0,0,1.27,1.1,1.1,0,0,0,.44.44,1.28,1.28,0,0,0,.63.16A1.34,1.34,0,0,0,221.09,143.93Z"/><path class="cls-4" d="M224.41,141.11h1.53a2.29,2.29,0,0,1,1,.21,1.61,1.61,0,0,1,.67.62,1.86,1.86,0,0,1,0,1.83,1.61,1.61,0,0,1-.67.62,2.3,2.3,0,0,1-1,.22h-1.53Zm1.5,2.95a1.48,1.48,0,0,0,.68-.15,1.14,1.14,0,0,0,.45-.42,1.28,1.28,0,0,0,.16-.63,1.35,1.35,0,0,0-.16-.64,1.14,1.14,0,0,0-.45-.42,1.62,1.62,0,0,0-.68-.14h-.85v2.4Z"/><path class="cls-4" d="M230.83,144.61l-.71-1h-.93v1h-.65v-3.5H230a1.92,1.92,0,0,1,.79.15,1.11,1.11,0,0,1,.52.43,1.31,1.31,0,0,1,0,1.34,1.2,1.2,0,0,1-.55.43l.8,1.15Zm-.23-2.77a1,1,0,0,0-.65-.18h-.76v1.39H230a1,1,0,0,0,.65-.18.65.65,0,0,0,.22-.52A.64.64,0,0,0,230.6,141.84Z"/><path class="cls-4" d="M232.57,144.25a1.58,1.58,0,0,1-.4-1.17v-2h.65v1.95c0,.68.29,1,.89,1s.88-.35.88-1v-1.95h.64v2a1.58,1.58,0,0,1-.4,1.17,1.76,1.76,0,0,1-2.26,0Z"/><path class="cls-4" d="M238.53,142.82h.62v1.39a1.89,1.89,0,0,1-.63.33,2.34,2.34,0,0,1-.74.12,2,2,0,0,1-1-.24,1.65,1.65,0,0,1-.67-.64,1.69,1.69,0,0,1-.25-.92,1.75,1.75,0,0,1,.92-1.57,2,2,0,0,1,1-.23,2.28,2.28,0,0,1,.8.14,1.54,1.54,0,0,1,.6.43l-.41.4a1.31,1.31,0,0,0-1-.4,1.4,1.4,0,0,0-.66.15,1.12,1.12,0,0,0-.45.44,1.22,1.22,0,0,0-.16.64,1.23,1.23,0,0,0,.16.63,1.27,1.27,0,0,0,.45.44,1.39,1.39,0,0,0,.65.16,1.43,1.43,0,0,0,.72-.18Z"/><path class="cls-4" d="M240,141.11h.65v3.5H240Z"/><path class="cls-4" d="M243,141.11h1.53a2.25,2.25,0,0,1,1,.21,1.63,1.63,0,0,1,.68.62,1.86,1.86,0,0,1,0,1.83,1.63,1.63,0,0,1-.68.62,2.25,2.25,0,0,1-1,.22H243Zm1.5,2.95a1.44,1.44,0,0,0,.67-.15,1,1,0,0,0,.45-.42,1.18,1.18,0,0,0,.16-.63,1.24,1.24,0,0,0-.16-.64,1,1,0,0,0-.45-.42,1.57,1.57,0,0,0-.67-.14h-.85v2.4Z"/><path class="cls-4" d="M249.79,144.06v.55h-3v-.44l2.06-2.51h-2v-.55h2.88v.43l-2.06,2.52Z"/><path class="cls-4" d="M250.38,141.11H251v3.5h-.65Z"/><path class="cls-4" d="M254.6,144.06v.55H252v-3.5h2.55v.54h-1.9v.91h1.69v.54h-1.69v1Z"/><path class="cls-4" d="M258.44,141.11v3.5h-.54L256,142.24v2.37h-.64v-3.5h.53l1.93,2.37v-2.37Zm-1.3-1h.73l-.87.68h-.54Z"/><path class="cls-4" d="M257.35,74.9a1.14,1.14,0,0,1,.51.43,1.32,1.32,0,0,1,0,1.33,1.14,1.14,0,0,1-.51.43,2,2,0,0,1-.8.15h-.79v1h-.65v-3.5h1.44A2,2,0,0,1,257.35,74.9Zm-.18,1.61a.64.64,0,0,0,.22-.51.65.65,0,0,0-.22-.52,1,1,0,0,0-.65-.18h-.76v1.39h.76A1,1,0,0,0,257.17,76.51Z"/><path class="cls-4" d="M261,78.25l-.71-1h-.93v1h-.65v-3.5h1.44a1.89,1.89,0,0,1,.79.15,1.11,1.11,0,0,1,.52.43,1.22,1.22,0,0,1,.18.67,1.18,1.18,0,0,1-.19.68,1.12,1.12,0,0,1-.55.42l.8,1.15Zm-.23-2.77a1,1,0,0,0-.65-.18h-.76v1.4h.76a1,1,0,0,0,.65-.19A.64.64,0,0,0,261,76,.65.65,0,0,0,260.75,75.48Z"/><path class="cls-4" d="M265.07,77.7v.55h-3v-.43l2.06-2.52h-2v-.55H265v.44l-2.06,2.51Z"/><path class="cls-4" d="M268.29,77.71v.54h-2.63v-3.5h2.56v.55h-1.91v.91H268v.53h-1.69v1Z"/><path class="cls-4" d="M269,74.75h1.53a2.14,2.14,0,0,1,1,.22,1.59,1.59,0,0,1,.67.61,1.88,1.88,0,0,1,0,1.84,1.59,1.59,0,0,1-.67.61,2.14,2.14,0,0,1-1,.22H269Zm1.5,3a1.45,1.45,0,0,0,.68-.15,1,1,0,0,0,.45-.42,1.32,1.32,0,0,0,0-1.26,1,1,0,0,0-.45-.42,1.45,1.45,0,0,0-.68-.15h-.85v2.4Z"/><path class="cls-4" d="M275.73,76.79l-.56.57v.89h-.65v-3.5h.65v1.8l1.73-1.8h.73l-1.47,1.57,1.56,1.93H277Z"/><path class="cls-4" d="M278.71,78.07a1.74,1.74,0,0,1-.67-.65,1.82,1.82,0,0,1,0-1.84,1.74,1.74,0,0,1,.67-.65,2.07,2.07,0,0,1,1-.23,2,2,0,0,1,1,.23,1.73,1.73,0,0,1,.92,1.57,1.84,1.84,0,0,1-.24.93,1.82,1.82,0,0,1-.68.64,2,2,0,0,1-1,.23A2.07,2.07,0,0,1,278.71,78.07Zm1.6-.5a1.16,1.16,0,0,0,.44-.44,1.32,1.32,0,0,0,0-1.26,1.16,1.16,0,0,0-.44-.44,1.23,1.23,0,0,0-.63-.16,1.18,1.18,0,0,0-.63.16,1,1,0,0,0-.44.44,1.32,1.32,0,0,0,0,1.26,1,1,0,0,0,.44.44,1.18,1.18,0,0,0,.63.16A1.23,1.23,0,0,0,280.31,77.57Z"/><path class="cls-4" d="M282.25,74.75h.65v3h1.83v.55h-2.48Z"/><path class="cls-4" d="M287.54,77.44h-1.75l-.34.81h-.67l1.57-3.5H287l1.58,3.5h-.68Zm-.21-.51-.66-1.53L286,76.93Z"/><path class="cls-4" d="M289.63,78.07a1.72,1.72,0,0,1-.67-.64,1.84,1.84,0,0,1-.24-.93,1.78,1.78,0,0,1,.24-.92,1.74,1.74,0,0,1,.67-.65,2.06,2.06,0,0,1,1-.23,2,2,0,0,1,.79.15,1.73,1.73,0,0,1,.6.44l-.42.39a1.26,1.26,0,0,0-.94-.41,1.24,1.24,0,0,0-.64.16,1.12,1.12,0,0,0-.45.44,1.28,1.28,0,0,0-.16.63,1.35,1.35,0,0,0,.16.64,1.16,1.16,0,0,0,.45.43,1.24,1.24,0,0,0,.64.16,1.26,1.26,0,0,0,.94-.41l.42.4a1.7,1.7,0,0,1-.6.43,2.06,2.06,0,0,1-.79.15A2,2,0,0,1,289.63,78.07Z"/><path class="cls-4" d="M292.53,78.17a1.2,1.2,0,0,1-.46-.37l.37-.45a.82.82,0,0,0,.69.4c.37,0,.55-.21.55-.64V75.3h-1.25v-.55h1.9v2.32a1.26,1.26,0,0,1-.3.92,1.17,1.17,0,0,1-.88.31A1.41,1.41,0,0,1,292.53,78.17Z"/><path class="cls-4" d="M297.43,77.44h-1.75l-.34.81h-.67l1.57-3.5h.64l1.58,3.5h-.68Zm-.21-.51-.66-1.53-.66,1.53Zm.4,2.31a.49.49,0,0,1-.17-.38.66.66,0,0,1,.18-.44,1.32,1.32,0,0,1,.56-.35l.27.18a1.47,1.47,0,0,0-.45.27.42.42,0,0,0-.14.29A.25.25,0,0,0,298,79a.38.38,0,0,0,.22.06.58.58,0,0,0,.3-.08l.11.31a1.06,1.06,0,0,1-.48.11A.73.73,0,0,1,297.62,79.24Z"/><path class="cls-6" d="M214.09,60.27a13.48,13.48,0,0,1-.71,3.55c-1.82,4.07-6.77,5.94-12.35,5.48s-10.2-3.24-11.22-7.67a14.52,14.52,0,0,1-.19-3.37c.46-5.55,6.31-9.6,13.06-9S214.55,54.72,214.09,60.27Z"/><ellipse class="cls-7" cx="201.97" cy="57.94" rx="8.75" ry="12.28" transform="translate(127.71 254.49) rotate(-85.31)"/><path class="cls-8" d="M194.47,102.83a13.55,13.55,0,0,1-.71,3.56c-1.82,4.06-6.77,5.94-12.35,5.48s-10.2-3.24-11.22-7.67a14.64,14.64,0,0,1-.19-3.38c.46-5.54,6.31-9.59,13.06-9S194.93,97.28,194.47,102.83Z"/><ellipse class="cls-9" cx="182.35" cy="100.5" rx="8.75" ry="12.28" transform="translate(67.27 274.02) rotate(-85.31)"/><path class="cls-10" d="M194.47,140.57a13.55,13.55,0,0,1-.71,3.56c-1.82,4.07-6.77,5.94-12.35,5.48s-10.2-3.24-11.22-7.67a14.55,14.55,0,0,1-.19-3.37c.46-5.55,6.31-9.6,13.06-9S194.93,135,194.47,140.57Z"/><ellipse class="cls-11" cx="182.35" cy="138.24" rx="8.75" ry="12.28" transform="translate(29.65 308.67) rotate(-85.31)"/><path class="cls-12" d="M288.92,60.27a13.49,13.49,0,0,1-.72,3.55c-1.81,4.07-6.77,5.94-12.34,5.48s-10.21-3.24-11.23-7.67a14,14,0,0,1-.18-3.37c.45-5.55,6.3-9.6,13.05-9S289.37,54.72,288.92,60.27Z"/><ellipse class="cls-13" cx="276.79" cy="57.94" rx="8.75" ry="12.28" transform="translate(196.41 329.06) rotate(-85.31)"/><path class="cls-14" d="M18.07,230.05v2.8h-.28v-2.54h-.66v-.26Z"/><path class="cls-14" d="M19.28,232.7a1.16,1.16,0,0,1-.4-.49,1.94,1.94,0,0,1-.14-.76,2,2,0,0,1,.14-.76,1.22,1.22,0,0,1,.4-.49,1,1,0,0,1,.58-.17,1.06,1.06,0,0,1,.58.17,1.2,1.2,0,0,1,.39.49,1.81,1.81,0,0,1,.15.76,1.78,1.78,0,0,1-.15.76,1.14,1.14,0,0,1-.39.49,1,1,0,0,1-.58.18A1,1,0,0,1,19.28,232.7Zm1-.22a.94.94,0,0,0,.29-.4,1.67,1.67,0,0,0,.1-.63,1.74,1.74,0,0,0-.1-.63.91.91,0,0,0-.29-.39.74.74,0,0,0-.43-.14.69.69,0,0,0-.43.14.84.84,0,0,0-.29.39,1.73,1.73,0,0,0-.11.63,1.65,1.65,0,0,0,.11.63.87.87,0,0,0,.29.4.69.69,0,0,0,.43.13A.73.73,0,0,0,20.29,232.48Z"/><path class="cls-14" d="M21.41,232.81a.23.23,0,0,1-.06-.16.21.21,0,0,1,.36-.15.18.18,0,0,1,.07.15.2.2,0,0,1-.07.16.22.22,0,0,1-.3,0Z"/><path class="cls-14" d="M24,232.69a1.3,1.3,0,0,1-.53-.51,1.5,1.5,0,0,1,0-1.46,1.3,1.3,0,0,1,.53-.51,1.54,1.54,0,0,1,.75-.18,1.57,1.57,0,0,1,.58.1,1.14,1.14,0,0,1,.44.31l-.18.18a1.13,1.13,0,0,0-.83-.33,1.25,1.25,0,0,0-.61.15,1.13,1.13,0,0,0-.42.42,1.09,1.09,0,0,0-.16.59,1.17,1.17,0,0,0,.58,1,1.25,1.25,0,0,0,.61.15,1.13,1.13,0,0,0,.83-.33l.18.18a1.1,1.1,0,0,1-.45.31,1.52,1.52,0,0,1-.57.11A1.44,1.44,0,0,1,24,232.69Z"/><path class="cls-14" d="M28,231a.94.94,0,0,1,.23.67v1.22H28v-1.19a.7.7,0,0,0-.17-.5.62.62,0,0,0-.46-.17.73.73,0,0,0-.54.2.78.78,0,0,0-.2.56v1.1h-.28v-3h.28v1.24a.75.75,0,0,1,.32-.29,1.16,1.16,0,0,1,.47-.1A.89.89,0,0,1,28,231Z"/><path class="cls-14" d="M31,230.31a.95.95,0,0,1,0,1.4,1.26,1.26,0,0,1-.84.26h-.75v.88h-.3v-2.8h1.05A1.26,1.26,0,0,1,31,230.31Zm-.21,1.22a.72.72,0,0,0,0-1,1,1,0,0,0-.64-.18h-.74v1.4h.74A1,1,0,0,0,30.75,231.53Z"/><path class="cls-14" d="M31.91,230.05h.29v2.55h1.57v.25H31.91Z"/><path class="cls-14" d="M35.85,230.31h-1v-.26h2.26v.26h-1v2.54h-.3Z"/><path class="cls-14" d="M38.8,230.94a.82.82,0,0,1,.22.61v1.3h-.27v-.33a.67.67,0,0,1-.29.26,1,1,0,0,1-.44.09.83.83,0,0,1-.56-.17.56.56,0,0,1,0-.87.94.94,0,0,1,.62-.17h.66v-.12a.57.57,0,0,0-.15-.42.64.64,0,0,0-.44-.14,1,1,0,0,0-.39.07.87.87,0,0,0-.31.18l-.13-.21a1.17,1.17,0,0,1,.38-.21,1.51,1.51,0,0,1,.48-.08A.89.89,0,0,1,38.8,230.94Zm-.32,1.6a.67.67,0,0,0,.25-.32v-.34h-.66c-.36,0-.54.12-.54.37a.34.34,0,0,0,.14.29.68.68,0,0,0,.4.11A.78.78,0,0,0,38.48,232.54Z"/><path class="cls-14" d="M40.36,230.84a1,1,0,0,1,.49-.11V231h-.07a.67.67,0,0,0-.52.21.83.83,0,0,0-.19.57v1.07h-.28v-2.1h.27v.41A.72.72,0,0,1,40.36,230.84Z"/><path class="cls-14" d="M43.26,229.88v3H43v-.41a.87.87,0,0,1-.34.32,1,1,0,0,1-.47.11,1.08,1.08,0,0,1-.54-.13,1,1,0,0,1-.37-.38,1.19,1.19,0,0,1,0-1.12.94.94,0,0,1,.37-.37,1.09,1.09,0,0,1,.54-.14,1,1,0,0,1,.46.11.84.84,0,0,1,.34.31v-1.27Zm-.66,2.64a.78.78,0,0,0,.28-.29,1,1,0,0,0,0-.86.78.78,0,0,0-.28-.29.85.85,0,0,0-.8,0,.78.78,0,0,0-.28.29,1,1,0,0,0,0,.86.78.78,0,0,0,.28.29.85.85,0,0,0,.8,0Z"/><path class="cls-14" d="M45.82,230.75l-1,2.35a1,1,0,0,1-.3.42.6.6,0,0,1-.4.13.82.82,0,0,1-.28-.05.59.59,0,0,1-.23-.14l.13-.22a.51.51,0,0,0,.38.16.36.36,0,0,0,.25-.08.67.67,0,0,0,.19-.27l.09-.2-.94-2.1H44l.79,1.79.79-1.79Z"/><path class="cls-14" d="M46.64,230.2a.45.45,0,0,0-.09.3v.25h.64V231h-.64v1.86h-.28V231h-.38v-.24h.38v-.26a.64.64,0,0,1,.17-.46.63.63,0,0,1,.47-.17.93.93,0,0,1,.23,0,.5.5,0,0,1,.19.1l-.1.21a.47.47,0,0,0-.31-.11A.38.38,0,0,0,46.64,230.2Z"/><path class="cls-14" d="M49.37,231.89H47.61a.75.75,0,0,0,.26.53.84.84,0,0,0,.57.2.86.86,0,0,0,.36-.07.75.75,0,0,0,.29-.21l.16.19a.87.87,0,0,1-.35.25,1.19,1.19,0,0,1-.47.09,1.1,1.1,0,0,1-.57-.14.89.89,0,0,1-.39-.38,1.1,1.1,0,0,1-.14-.55,1.12,1.12,0,0,1,.13-.55,1,1,0,0,1,.9-.52,1,1,0,0,1,.52.14.9.9,0,0,1,.37.38,1.21,1.21,0,0,1,.13.55Zm-1.52-.72a.77.77,0,0,0-.24.51h1.5a.77.77,0,0,0-.24-.51.72.72,0,0,0-.51-.19A.69.69,0,0,0,47.85,231.17Z"/><path class="cls-14" d="M50.53,230.84a1,1,0,0,1,.49-.11V231H51a.66.66,0,0,0-.52.21.79.79,0,0,0-.19.57v1.07H50v-2.1h.27v.41A.72.72,0,0,1,50.53,230.84Z"/><path class="cls-14" d="M51.82,232.73a.93.93,0,0,1-.38-.38,1,1,0,0,1-.14-.55,1,1,0,0,1,.14-.55,1,1,0,0,1,.38-.38,1.12,1.12,0,0,1,.55-.14,1.15,1.15,0,0,1,.55.14,1,1,0,0,1,.38.38,1.12,1.12,0,0,1,.14.55,1.1,1.1,0,0,1-.14.55.93.93,0,0,1-.38.38,1,1,0,0,1-.55.14A1,1,0,0,1,51.82,232.73Zm1-.21a.78.78,0,0,0,.28-.29,1,1,0,0,0,0-.86.78.78,0,0,0-.28-.29.85.85,0,0,0-.8,0,.78.78,0,0,0-.28.29,1,1,0,0,0,0,.86.78.78,0,0,0,.28.29.85.85,0,0,0,.8,0Z"/><path class="cls-14" d="M55.72,231a.9.9,0,0,1,.23.67v1.22h-.28v-1.19a.75.75,0,0,0-.16-.5A.64.64,0,0,0,55,231a.73.73,0,0,0-.54.2.78.78,0,0,0-.2.56v1.1H54v-2.1h.27v.39a.77.77,0,0,1,.32-.3,1.06,1.06,0,0,1,.48-.11A.89.89,0,0,1,55.72,231Z"/><path class="cls-14" d="M57.62,231.64h1.05v.25H57.62Z"/><path class="cls-14" d="M61.78,231.49a.7.7,0,0,1,.23.56.82.82,0,0,1-.11.42.74.74,0,0,1-.35.3,1.28,1.28,0,0,1-.55.11,1.81,1.81,0,0,1-.58-.1,1.2,1.2,0,0,1-.43-.26l.14-.23a1.11,1.11,0,0,0,.37.23,1.39,1.39,0,0,0,.5.09.84.84,0,0,0,.53-.15.54.54,0,0,0,0-.82.92.92,0,0,0-.57-.15h-.2v-.21l.78-1H60.1v-.26h1.81v.21l-.8,1A1.05,1.05,0,0,1,61.78,231.49Z"/><path class="cls-14" d="M63,232.7a1.09,1.09,0,0,1-.4-.49,1.78,1.78,0,0,1-.14-.76,1.81,1.81,0,0,1,.14-.76,1.14,1.14,0,0,1,.4-.49,1,1,0,0,1,.57-.17,1,1,0,0,1,.58.17,1.22,1.22,0,0,1,.4.49,1.81,1.81,0,0,1,.14.76,1.78,1.78,0,0,1-.14.76,1.16,1.16,0,0,1-.4.49,1,1,0,0,1-.58.18A.94.94,0,0,1,63,232.7Zm1-.22a.87.87,0,0,0,.29-.4,1.65,1.65,0,0,0,.11-.63,1.73,1.73,0,0,0-.11-.63.84.84,0,0,0-.29-.39.69.69,0,0,0-.43-.14.74.74,0,0,0-.43.14.91.91,0,0,0-.29.39,1.74,1.74,0,0,0-.1.63,1.67,1.67,0,0,0,.1.63.94.94,0,0,0,.29.4.73.73,0,0,0,.43.13A.69.69,0,0,0,64,232.48Z"/><path class="cls-14" d="M65.09,232.81a.23.23,0,0,1-.06-.16.21.21,0,1,1,.42,0,.23.23,0,0,1-.06.16.22.22,0,0,1-.3,0Z"/><path class="cls-14" d="M66.36,232.7a1.07,1.07,0,0,1-.39-.49,1.78,1.78,0,0,1-.14-.76,1.81,1.81,0,0,1,.14-.76,1.12,1.12,0,0,1,.39-.49,1.06,1.06,0,0,1,.58-.17,1,1,0,0,1,.58.17,1.22,1.22,0,0,1,.4.49,2,2,0,0,1,.14.76,1.94,1.94,0,0,1-.14.76,1.16,1.16,0,0,1-.4.49,1,1,0,0,1-.58.18A1,1,0,0,1,66.36,232.7Zm1-.22a.87.87,0,0,0,.29-.4,1.65,1.65,0,0,0,.11-.63,1.73,1.73,0,0,0-.11-.63.84.84,0,0,0-.29-.39.71.71,0,0,0-.43-.14.74.74,0,0,0-.43.14.91.91,0,0,0-.29.39,1.74,1.74,0,0,0-.1.63,1.67,1.67,0,0,0,.1.63.94.94,0,0,0,.29.4.73.73,0,0,0,.43.13A.71.71,0,0,0,67.37,232.48Z"/><path class="cls-14" d="M70.48,231.65a.63.63,0,0,1,.14.42.69.69,0,0,1-.13.43.83.83,0,0,1-.37.28,1.72,1.72,0,0,1-.58.1,1.3,1.3,0,0,1-.79-.22.67.67,0,0,1-.29-.59.59.59,0,0,1,.14-.42.79.79,0,0,1,.4-.27.6.6,0,0,1-.33-.24.58.58,0,0,1-.11-.37.65.65,0,0,1,.26-.54,1.2,1.2,0,0,1,.72-.2,1.42,1.42,0,0,1,.52.09.74.74,0,0,1,.34.26.65.65,0,0,1,.12.39.58.58,0,0,1-.11.37.68.68,0,0,1-.33.24A.84.84,0,0,1,70.48,231.65Zm-.36.83a.51.51,0,0,0,0-.82,1.2,1.2,0,0,0-1.16,0,.51.51,0,0,0,0,.82,1.2,1.2,0,0,0,1.16,0ZM69,231.14a.77.77,0,0,0,.51.14.81.81,0,0,0,.51-.14.43.43,0,0,0,.18-.36.42.42,0,0,0-.19-.37.82.82,0,0,0-.5-.14.86.86,0,0,0-.51.14.43.43,0,0,0-.18.37A.43.43,0,0,0,69,231.14Z"/><path class="cls-14" d="M71.13,232.81a.23.23,0,0,1-.06-.16.21.21,0,0,1,.36-.15.18.18,0,0,1,.07.15.2.2,0,0,1-.07.16.22.22,0,0,1-.3,0Z"/><path class="cls-14" d="M73.86,232.6v.25h-2v-.2l1.16-1.14a1.43,1.43,0,0,0,.3-.38.6.6,0,0,0,.08-.31.48.48,0,0,0-.17-.39.74.74,0,0,0-.48-.14,1,1,0,0,0-.77.31l-.2-.17a1.08,1.08,0,0,1,.42-.3,1.45,1.45,0,0,1,.57-.1,1.1,1.1,0,0,1,.68.2.7.7,0,0,1,.25.55,1,1,0,0,1-.1.42,1.61,1.61,0,0,1-.36.46l-1,.94Z"/><path class="cls-14" d="M74.75,232.7a1.16,1.16,0,0,1-.4-.49,1.94,1.94,0,0,1-.14-.76,2,2,0,0,1,.14-.76,1.22,1.22,0,0,1,.4-.49,1.06,1.06,0,0,1,1.15,0,1.14,1.14,0,0,1,.4.49,1.81,1.81,0,0,1,.15.76,1.78,1.78,0,0,1-.15.76,1.09,1.09,0,0,1-.4.49,1,1,0,0,1-1.15,0Zm1-.22a.94.94,0,0,0,.29-.4,1.89,1.89,0,0,0,.1-.63,2,2,0,0,0-.1-.63.91.91,0,0,0-.29-.39.74.74,0,0,0-.43-.14.69.69,0,0,0-.43.14.85.85,0,0,0-.3.39,2,2,0,0,0-.1.63,1.89,1.89,0,0,0,.1.63.88.88,0,0,0,.3.4.69.69,0,0,0,.43.13A.73.73,0,0,0,75.76,232.48Z"/><path class="cls-14" d="M77.63,230.05v2.8h-.29v-2.54h-.66v-.26Z"/><path class="cls-14" d="M80.3,231.65a.64.64,0,0,1,.15.42.69.69,0,0,1-.14.43.83.83,0,0,1-.37.28,1.72,1.72,0,0,1-.58.1,1.3,1.3,0,0,1-.79-.22.67.67,0,0,1-.29-.59.59.59,0,0,1,.14-.42.79.79,0,0,1,.4-.27.6.6,0,0,1-.33-.24.58.58,0,0,1-.11-.37.65.65,0,0,1,.26-.54,1.2,1.2,0,0,1,.72-.2,1.38,1.38,0,0,1,.52.09.74.74,0,0,1,.34.26.65.65,0,0,1,.13.39.59.59,0,0,1-.12.37.68.68,0,0,1-.33.24A.84.84,0,0,1,80.3,231.65Zm-.36.83a.51.51,0,0,0,0-.82,1,1,0,0,0-.58-.15,1,1,0,0,0-.58.15.51.51,0,0,0,0,.82,1,1,0,0,0,.58.15A1,1,0,0,0,79.94,232.48Zm-1.09-1.34a.77.77,0,0,0,.51.14.81.81,0,0,0,.51-.14.43.43,0,0,0,.18-.36.42.42,0,0,0-.19-.37.82.82,0,0,0-.5-.14.86.86,0,0,0-.51.14.43.43,0,0,0-.18.37A.43.43,0,0,0,78.85,231.14Z"/></g><g id="Warstwa_7" data-name="Warstwa 7"><path class="cls-3" d="M106.67,187a1.73,1.73,0,0,1-.92-1.57,1.7,1.7,0,0,1,.92-1.56,2,2,0,0,1,1-.23,2,2,0,0,1,1,.23,1.78,1.78,0,0,1,0,3.13,2,2,0,0,1-1,.23A2,2,0,0,1,106.67,187Zm1.59-.5a1.16,1.16,0,0,0,.44-.44,1.28,1.28,0,0,0,.15-.63,1.33,1.33,0,0,0-.15-.63,1.21,1.21,0,0,0-.44-.43,1.32,1.32,0,0,0-1.26,0,1.14,1.14,0,0,0-.44.43,1.34,1.34,0,0,0-.16.63,1.28,1.28,0,0,0,.16.63,1.1,1.1,0,0,0,.44.44,1.32,1.32,0,0,0,1.26,0Z"/><path class="cls-3" d="M111.4,185.68l-.56.57v.89h-.64v-3.49h.64v1.79l1.73-1.79h.73l-1.47,1.56,1.56,1.93h-.76Z"/><path class="cls-3" d="M116.11,187.14l-.71-1h-.92v1h-.65v-3.49h1.43a1.89,1.89,0,0,1,.79.15,1.11,1.11,0,0,1,.52.43,1.16,1.16,0,0,1,.18.66,1.18,1.18,0,0,1-.19.68,1.12,1.12,0,0,1-.55.42l.8,1.15Zm-.23-2.76a1,1,0,0,0-.65-.18h-.75v1.39h.75a1,1,0,0,0,.65-.18.66.66,0,0,0,.22-.52A.64.64,0,0,0,115.88,184.38Z"/><path class="cls-3" d="M120.09,186.6v.54h-2.62v-3.49H120v.54h-1.9v.91h1.69v.53h-1.69v1Z"/><path class="cls-3" d="M121.11,187.07a1.42,1.42,0,0,1-.59-.3l.22-.5a1.76,1.76,0,0,0,.53.27,1.93,1.93,0,0,0,.62.11,1.09,1.09,0,0,0,.58-.12.4.4,0,0,0,.2-.33.33.33,0,0,0-.11-.25.59.59,0,0,0-.27-.15l-.45-.13a4,4,0,0,1-.65-.19,1.1,1.1,0,0,1-.42-.29.81.81,0,0,1-.18-.55.94.94,0,0,1,.16-.52,1,1,0,0,1,.47-.38,2,2,0,0,1,.78-.14,2.72,2.72,0,0,1,.63.08,1.7,1.7,0,0,1,.53.23l-.2.5a2,2,0,0,0-.48-.2,1.71,1.71,0,0,0-.49-.07,1,1,0,0,0-.57.13.39.39,0,0,0-.18.34.33.33,0,0,0,.1.25.87.87,0,0,0,.27.15l.45.12a4.19,4.19,0,0,1,.64.19,1.06,1.06,0,0,1,.43.29.85.85,0,0,1,.17.54.93.93,0,0,1-.15.52,1.09,1.09,0,0,1-.48.38,2,2,0,0,1-.78.14A2.54,2.54,0,0,1,121.11,187.07Z"/><path class="cls-3" d="M125.32,183.65H126v2.94h1.82v.55h-2.47Z"/><path class="cls-3" d="M130.92,186.6v.54h-2.61v-3.49h2.54v.54H129v.91h1.68v.53H129v1Z"/><path class="cls-3" d="M132.29,187a1.87,1.87,0,0,1-.67-.64,1.81,1.81,0,0,1-.24-.93,1.75,1.75,0,0,1,.92-1.56,2,2,0,0,1,.95-.23,1.94,1.94,0,0,1,.78.15,1.54,1.54,0,0,1,.6.43l-.42.4a1.19,1.19,0,0,0-.93-.41,1.24,1.24,0,0,0-.64.16,1.07,1.07,0,0,0-.44.43,1.34,1.34,0,0,0,0,1.27,1.07,1.07,0,0,0,.44.43,1.24,1.24,0,0,0,.64.16,1.22,1.22,0,0,0,.93-.41l.42.4a1.65,1.65,0,0,1-.6.43,2,2,0,0,1-.78.15A2,2,0,0,1,132.29,187Z"/><path class="cls-3" d="M138,186.59v.55h-3v-.43l2-2.51h-2v-.55h2.87v.43l-2.05,2.51Z"/><path class="cls-3" d="M141.18,186.6v.54h-2.62v-3.49h2.55v.54h-1.9v.91h1.68v.53h-1.68v1Z"/><path class="cls-3" d="M145,183.65v3.49h-.53l-1.93-2.36v2.36h-.64v-3.49h.53l1.93,2.36v-2.36Z"/><path class="cls-3" d="M145.94,183.65h.64v3.49h-.64Z"/><path class="cls-3" d="M149.79,186.33H148l-.34.81H147l1.57-3.49h.64l1.58,3.49h-.68Zm-.22-.51-.65-1.52-.66,1.52Z"/><path class="cls-3" d="M155.35,186.59v.55h-3v-.43l2-2.51h-2v-.55h2.87v.43l-2.05,2.51Z"/><path class="cls-3" d="M158.2,186.33h-1.74l-.35.81h-.66l1.57-3.49h.63l1.58,3.49h-.68Zm-.21-.51-.66-1.52-.65,1.52Z"/><path class="cls-3" d="M159.67,183.65h.65v2.94h1.82v.55h-2.47Z"/><path class="cls-3" d="M165.27,186.6v.54h-2.61v-3.49h2.55v.54h-1.9v.91H165v.53h-1.68v1Z"/><path class="cls-3" d="M168.71,186.59v.55h-3v-.43l2.06-2.51h-2v-.55h2.87v.43l-2,2.51ZM167,183.21a.35.35,0,0,1-.1-.26.32.32,0,0,1,.1-.25.33.33,0,0,1,.25-.1.34.34,0,0,1,.26.1.36.36,0,0,1,.1.25.4.4,0,0,1-.1.26.38.38,0,0,1-.26.1A.37.37,0,0,1,167,183.21Z"/><path class="cls-3" d="M170.81,185.91v1.23h-.65v-1.22l-1.37-2.27h.69l1,1.7,1-1.7h.64Z"/><path class="cls-3" d="M174.64,187a1.68,1.68,0,0,1-.67-.65,1.69,1.69,0,0,1-.25-.92,1.74,1.74,0,0,1,.25-.92,1.72,1.72,0,0,1,.67-.64,2,2,0,0,1,1-.23,2,2,0,0,1,1,.23,1.77,1.77,0,0,1,0,3.13,2,2,0,0,1-1,.23A2,2,0,0,1,174.64,187Zm1.59-.5a1.1,1.1,0,0,0,.44-.44,1.28,1.28,0,0,0,.16-.63,1.34,1.34,0,0,0-.16-.63,1.14,1.14,0,0,0-.44-.43,1.32,1.32,0,0,0-1.26,0,1.21,1.21,0,0,0-.44.43,1.33,1.33,0,0,0-.15.63,1.28,1.28,0,0,0,.15.63,1.16,1.16,0,0,0,.44.44,1.32,1.32,0,0,0,1.26,0Z"/><path class="cls-3" d="M178.17,183.65h1.52a2.07,2.07,0,0,1,1,.22,1.61,1.61,0,0,1,.68.61,1.72,1.72,0,0,1,.24.91,1.75,1.75,0,0,1-.24.92,1.61,1.61,0,0,1-.68.61,2.07,2.07,0,0,1-1,.22h-1.52Zm1.49,2.94a1.48,1.48,0,0,0,.68-.15,1,1,0,0,0,.45-.42,1.28,1.28,0,0,0,.15-.63,1.33,1.33,0,0,0-.15-.63,1.14,1.14,0,0,0-.45-.42,1.62,1.62,0,0,0-.68-.14h-.84v2.39Z"/><path class="cls-3" d="M184,187.07a1.42,1.42,0,0,1-.59-.3l.22-.5a1.76,1.76,0,0,0,.53.27,1.88,1.88,0,0,0,.62.11,1.12,1.12,0,0,0,.58-.12.39.39,0,0,0,.19-.33.32.32,0,0,0-.1-.25.63.63,0,0,0-.28-.15,4.32,4.32,0,0,0-.44-.13,4,4,0,0,1-.65-.19,1.1,1.1,0,0,1-.42-.29.81.81,0,0,1-.18-.55.87.87,0,0,1,.16-.52,1,1,0,0,1,.47-.38,2,2,0,0,1,.78-.14,2.57,2.57,0,0,1,.62.08,1.66,1.66,0,0,1,.54.23l-.21.5a1.68,1.68,0,0,0-.48-.2,1.59,1.59,0,0,0-.48-.07,1,1,0,0,0-.57.13.4.4,0,0,0-.19.34.34.34,0,0,0,.11.25.87.87,0,0,0,.27.15l.45.12a4.19,4.19,0,0,1,.64.19,1,1,0,0,1,.42.29.8.8,0,0,1,.18.54.93.93,0,0,1-.15.52,1.09,1.09,0,0,1-.48.38,2,2,0,0,1-.78.14A2.54,2.54,0,0,1,184,187.07Z"/><path class="cls-3" d="M187.45,184.2H186.3v-.55h3v.55H188.1v2.94h-.65Z"/><path class="cls-3" d="M190.36,187a1.74,1.74,0,0,1-.67-.65,1.78,1.78,0,0,1-.24-.92,1.83,1.83,0,0,1,.24-.92,1.79,1.79,0,0,1,.67-.64,2.14,2.14,0,0,1,1.93,0,1.79,1.79,0,0,1,.67.64,1.84,1.84,0,0,1,0,1.85,1.79,1.79,0,0,1-.67.64,2.14,2.14,0,0,1-1.93,0Zm1.59-.5a1,1,0,0,0,.44-.44,1.18,1.18,0,0,0,.16-.63,1.23,1.23,0,0,0-.16-.63,1.07,1.07,0,0,0-.44-.43,1.3,1.3,0,0,0-1.25,0,1.14,1.14,0,0,0-.44.43,1.23,1.23,0,0,0-.16.63,1.18,1.18,0,0,0,.16.63,1.1,1.1,0,0,0,.44.44,1.3,1.3,0,0,0,1.25,0Z"/><path class="cls-3" d="M196.12,183.8a1.14,1.14,0,0,1,.51.43,1.16,1.16,0,0,1,.18.66,1.21,1.21,0,0,1-.18.66,1.14,1.14,0,0,1-.51.43,2,2,0,0,1-.79.15h-.79v1h-.65v-3.49h1.44A2,2,0,0,1,196.12,183.8Zm-.18,1.6a.7.7,0,0,0,0-1,1,1,0,0,0-.64-.18h-.76v1.38h.76A1,1,0,0,0,195.94,185.4Z"/><path class="cls-3" d="M200.56,183.65v3.49H200l-1.93-2.36v2.36h-.64v-3.49H198l1.92,2.36v-2.36Z"/><path class="cls-3" d="M201.5,183.65h.65v3.49h-.65Z"/><path class="cls-3" d="M205.35,186.33h-1.74l-.35.81h-.67l1.58-3.49h.63l1.58,3.49h-.68Zm-.21-.51-.66-1.52-.65,1.52Z"/><path class="cls-3" d="M211.3,183.65v3.49h-.54l-1.92-2.36v2.36h-.64v-3.49h.53l1.92,2.36v-2.36Z"/><path class="cls-3" d="M212.23,183.65h.65v3.49h-.65Z"/><path class="cls-3" d="M216.44,186.6v.54h-2.62v-3.49h2.55v.54h-1.9v.91h1.69v.53h-1.69v1Z"/><path class="cls-3" d="M217.16,183.65h1.53a2.12,2.12,0,0,1,1,.22,1.59,1.59,0,0,1,.67.61,1.72,1.72,0,0,1,.24.91,1.75,1.75,0,0,1-.24.92,1.59,1.59,0,0,1-.67.61,2.12,2.12,0,0,1-1,.22h-1.53Zm1.5,2.94a1.44,1.44,0,0,0,.67-.15.92.92,0,0,0,.45-.42,1.18,1.18,0,0,0,.16-.63,1.23,1.23,0,0,0-.16-.63,1,1,0,0,0-.45-.42,1.57,1.57,0,0,0-.67-.14h-.85v2.39Z"/><path class="cls-3" d="M222,187a1.68,1.68,0,0,1-.67-.65,1.69,1.69,0,0,1-.25-.92,1.74,1.74,0,0,1,.25-.92,1.72,1.72,0,0,1,.67-.64,2.12,2.12,0,0,1,1.92,0,1.78,1.78,0,0,1,0,3.13,2.12,2.12,0,0,1-1.92,0Zm1.59-.5A1.16,1.16,0,0,0,224,186a1.28,1.28,0,0,0,.16-.63,1.34,1.34,0,0,0-.16-.63,1.21,1.21,0,0,0-.44-.43,1.32,1.32,0,0,0-1.26,0,1.21,1.21,0,0,0-.44.43,1.34,1.34,0,0,0-.16.63,1.28,1.28,0,0,0,.16.63,1.16,1.16,0,0,0,.44.44,1.32,1.32,0,0,0,1.26,0Z"/><path class="cls-3" d="M228.41,185.64a.9.9,0,0,1,.17.55.81.81,0,0,1-.35.7,1.71,1.71,0,0,1-1,.25h-1.73v-3.49h1.63a1.61,1.61,0,0,1,.95.24.76.76,0,0,1,.34.67.9.9,0,0,1-.12.46.8.8,0,0,1-.33.3A1,1,0,0,1,228.41,185.64Zm-2.29-1.48v1H227a.93.93,0,0,0,.52-.12.45.45,0,0,0,0-.72.93.93,0,0,0-.52-.12Zm1.8,2q0-.51-.75-.51h-1v1h1C227.67,186.63,227.92,186.46,227.92,186.13Z"/><path class="cls-3" d="M229.94,187a1.73,1.73,0,0,1-.92-1.57,1.7,1.7,0,0,1,.92-1.56,2,2,0,0,1,1-.23,2,2,0,0,1,1,.23,1.78,1.78,0,0,1,0,3.13,2,2,0,0,1-1,.23A2,2,0,0,1,229.94,187Zm1.59-.5A1.16,1.16,0,0,0,232,186a1.28,1.28,0,0,0,.15-.63,1.33,1.33,0,0,0-.15-.63,1.21,1.21,0,0,0-.44-.43,1.32,1.32,0,0,0-1.26,0,1.14,1.14,0,0,0-.44.43,1.34,1.34,0,0,0-.16.63,1.28,1.28,0,0,0,.16.63,1.1,1.1,0,0,0,.44.44,1.32,1.32,0,0,0,1.26,0Z"/><path class="cls-3" d="M235.75,187.14l-.71-1h-.93v1h-.64v-3.49h1.43a1.92,1.92,0,0,1,.79.15,1.11,1.11,0,0,1,.52.43,1.16,1.16,0,0,1,.18.66,1.19,1.19,0,0,1-.2.68,1.08,1.08,0,0,1-.55.42l.81,1.15Zm-.24-2.76a1,1,0,0,0-.64-.18h-.76v1.39h.76a1,1,0,0,0,.64-.18.63.63,0,0,0,.22-.52A.61.61,0,0,0,235.51,184.38Z"/><path class="cls-3" d="M237.48,186.78a1.57,1.57,0,0,1-.4-1.16v-2h.65v1.94c0,.69.29,1,.88,1s.89-.34.89-1v-1.94h.63v2a1.57,1.57,0,0,1-.4,1.16,1.5,1.5,0,0,1-1.12.41A1.54,1.54,0,0,1,237.48,186.78Z"/><path class="cls-3" d="M245.13,186.59v.55h-3v-.43l2.06-2.51h-2v-.55h2.87v.43L243,186.59Zm-1.74-3.38a.35.35,0,0,1-.1-.26.32.32,0,0,1,.1-.25.33.33,0,0,1,.25-.1.34.34,0,0,1,.26.1.36.36,0,0,1,.1.25.4.4,0,0,1-.1.26.38.38,0,0,1-.26.1A.37.37,0,0,1,243.39,183.21Z"/><path class="cls-3" d="M248.34,186.6v.54h-2.62v-3.49h2.55v.54h-1.9v.91h1.68v.53h-1.68v1Z"/><path class="cls-3" d="M249.06,183.65h.65v2.94h1.82v.55h-2.47Z"/><path class="cls-3" d="M254.33,186.33h-1.74l-.34.81h-.67l1.57-3.49h.64l1.57,3.49h-.68Zm-.21-.51-.66-1.52-.65,1.52Z"/><path class="cls-3" d="M258.52,186.59v.55h-3v-.43l2-2.51h-2v-.55h2.87v.43l-2.05,2.51Z"/><path class="cls-3" d="M261.37,186.33h-1.74l-.35.81h-.67l1.57-3.49h.64l1.58,3.49h-.68Zm-.21-.51-.66-1.52-.65,1.52Z"/><path class="cls-3" d="M262.86,187.06a.41.41,0,0,1-.12-.3.44.44,0,0,1,.11-.3.4.4,0,0,1,.3-.11.39.39,0,0,1,.29.11.44.44,0,0,1,.11.3.39.39,0,0,1-.4.41A.42.42,0,0,1,262.86,187.06Z"/><path class="cls-3" d="M108.71,192.57v.55h-3v-.43l2.05-2.51h-2v-.55h2.88v.43l-2.06,2.51Z"/><path class="cls-3" d="M111.57,192.31h-1.75l-.34.81h-.67l1.57-3.49H111l1.57,3.49h-.67Zm-.22-.51-.66-1.52L110,191.8Z"/><path class="cls-3" d="M115.75,192.57v.55h-3v-.43l2.06-2.51h-2v-.55h2.87v.43l-2.05,2.51Z"/><path class="cls-3" d="M121.44,189.63l-1.16,3.49h-.68l-.87-2.58-.87,2.58h-.7L116,189.63h.67l.87,2.65.9-2.65h.6l.88,2.67.89-2.67Z"/><path class="cls-3" d="M123.43,191.89v1.23h-.64V191.9l-1.37-2.27h.69l1,1.7,1-1.7h.64Z"/><path class="cls-3" d="M125.73,192.94a1.76,1.76,0,0,1-.66-.64,1.72,1.72,0,0,1-.25-.92,1.82,1.82,0,0,1,.25-.93,1.72,1.72,0,0,1,.67-.64,2,2,0,0,1,1-.23,2,2,0,0,1,.79.15,1.58,1.58,0,0,1,.59.43l-.42.4a1.22,1.22,0,0,0-.93-.41,1.24,1.24,0,0,0-.64.16,1.07,1.07,0,0,0-.44.43,1.34,1.34,0,0,0,0,1.27,1.07,1.07,0,0,0,.44.43,1.24,1.24,0,0,0,.64.16,1.22,1.22,0,0,0,.93-.41l.42.4a1.54,1.54,0,0,1-.6.43,2,2,0,0,1-.78.15A2.06,2.06,0,0,1,125.73,192.94Z"/><path class="cls-3" d="M131.41,192.57v.55h-3v-.43l2.06-2.51h-2v-.55h2.87v.43l-2.05,2.51Z"/><path class="cls-3" d="M134.26,192.31h-1.74l-.34.81h-.67l1.57-3.49h.64l1.57,3.49h-.68Zm-.21-.51-.66-1.52-.65,1.52Z"/><path class="cls-3" d="M135.74,193a1.2,1.2,0,0,1-.46-.37l.36-.45a.85.85,0,0,0,.7.4c.36,0,.54-.21.54-.64v-1.81h-1.24v-.54h1.89v2.31a1.26,1.26,0,0,1-.3.92,1.15,1.15,0,0,1-.88.31A1.51,1.51,0,0,1,135.74,193Z"/><path class="cls-3" d="M144.91,189.63l-1.16,3.49h-.68l-.87-2.58-.87,2.58h-.7l-1.15-3.49h.67l.87,2.65.9-2.65h.6l.88,2.67.89-2.67Z"/><path class="cls-3" d="M146.9,191.89v1.23h-.64V191.9l-1.38-2.27h.7l1,1.7,1-1.7h.64Z"/><path class="cls-3" d="M151.74,189.63v3.49h-.53l-1.92-2.36v2.36h-.65v-3.49h.54L151.1,192v-2.36Z"/><path class="cls-3" d="M153.35,192.94a1.78,1.78,0,0,1,0-3.13,2.12,2.12,0,0,1,1.92,0,1.78,1.78,0,0,1,0,3.13,2.12,2.12,0,0,1-1.92,0Zm1.59-.5a1.16,1.16,0,0,0,.44-.44,1.27,1.27,0,0,0,.16-.62,1.35,1.35,0,0,0-.16-.64,1.21,1.21,0,0,0-.44-.43,1.32,1.32,0,0,0-1.26,0,1.21,1.21,0,0,0-.44.43,1.35,1.35,0,0,0-.16.64,1.27,1.27,0,0,0,.16.62,1.16,1.16,0,0,0,.44.44,1.32,1.32,0,0,0,1.26,0Z"/><path class="cls-3" d="M157.18,193.05a1.54,1.54,0,0,1-.6-.3l.23-.5a1.7,1.7,0,0,0,.52.27,2,2,0,0,0,.63.11,1.12,1.12,0,0,0,.58-.12.39.39,0,0,0,.19-.33.34.34,0,0,0-.11-.25.87.87,0,0,0-.27-.15l-.45-.13a3.87,3.87,0,0,1-.64-.19,1.06,1.06,0,0,1-.43-.29.86.86,0,0,1-.17-.55.93.93,0,0,1,.15-.52,1.09,1.09,0,0,1,.48-.38,2,2,0,0,1,.77-.14,2.72,2.72,0,0,1,.63.08,1.6,1.6,0,0,1,.53.23l-.2.5a2,2,0,0,0-.48-.2,1.69,1.69,0,0,0-.48-.07,1,1,0,0,0-.57.13.38.38,0,0,0-.19.34.34.34,0,0,0,.11.25.87.87,0,0,0,.27.15l.45.12a4.19,4.19,0,0,1,.64.19,1.1,1.1,0,0,1,.42.29.8.8,0,0,1,.18.54.9.9,0,0,1-.16.53,1.05,1.05,0,0,1-.47.37,2.05,2.05,0,0,1-.78.14A2.54,2.54,0,0,1,157.18,193.05Z"/><path class="cls-3" d="M160,189.63h.65v3.49H160Z"/><path class="cls-3" d="M165,191.4a.93.93,0,0,1,.25.67,1.07,1.07,0,0,1-.15.56,1.09,1.09,0,0,1-.47.39,1.72,1.72,0,0,1-.76.15,2.46,2.46,0,0,1-.72-.11,2,2,0,0,1-.59-.29l.28-.51a1.36,1.36,0,0,0,.46.25,1.54,1.54,0,0,0,.56.1.87.87,0,0,0,.54-.15.42.42,0,0,0,.2-.38.44.44,0,0,0-.19-.38.89.89,0,0,0-.57-.14h-.32v-.44l.8-1h-1.59v-.54h2.38v.43l-.85,1A1.19,1.19,0,0,1,165,191.4Z"/><path class="cls-3" d="M166.78,191.15h2.5v.41h-2.5Z"/><path class="cls-3" d="M173.07,191.1a1,1,0,0,1,.43.37,1,1,0,0,1,.16.57,1.07,1.07,0,0,1-.17.59,1.12,1.12,0,0,1-.46.4,1.51,1.51,0,0,1-.65.14,1.39,1.39,0,0,1-1.11-.45,1.86,1.86,0,0,1-.4-1.29,2.08,2.08,0,0,1,.22-1,1.41,1.41,0,0,1,.6-.63,1.7,1.7,0,0,1,.89-.22,2.1,2.1,0,0,1,.51.06,1.52,1.52,0,0,1,.41.16l-.24.49a1.2,1.2,0,0,0-.66-.17,1,1,0,0,0-.79.31,1.3,1.3,0,0,0-.29.9h0a1,1,0,0,1,.4-.27,1.53,1.53,0,0,1,.54-.09A1.33,1.33,0,0,1,173.07,191.1Zm-.23,1.4a.53.53,0,0,0,.19-.43.53.53,0,0,0-.19-.44.82.82,0,0,0-.51-.16.77.77,0,0,0-.51.17.57.57,0,0,0-.2.43.53.53,0,0,0,.2.42.87.87,0,0,0,1,0Z"/><path class="cls-3" d="M178.83,193.12v-2.31l-1.15,1.91h-.29l-1.14-1.88v2.28h-.62v-3.49h.53l1.39,2.31,1.36-2.31h.53v3.49Z"/><path class="cls-3" d="M180.38,189.63H181v3.49h-.65Z"/><path class="cls-3" d="M184.59,192.58v.54H182v-3.49h2.55v.54h-1.9v.91h1.68v.53h-1.68v1Z"/><path class="cls-3" d="M185.61,193.05a1.42,1.42,0,0,1-.59-.3l.22-.5a1.76,1.76,0,0,0,.53.27,1.88,1.88,0,0,0,.62.11,1.12,1.12,0,0,0,.58-.12.39.39,0,0,0,.19-.33.33.33,0,0,0-.1-.25.87.87,0,0,0-.27-.15l-.45-.13a4,4,0,0,1-.65-.19,1.1,1.1,0,0,1-.42-.29.81.81,0,0,1-.18-.55.87.87,0,0,1,.16-.52,1,1,0,0,1,.47-.38,2,2,0,0,1,.78-.14,2.57,2.57,0,0,1,.62.08,1.66,1.66,0,0,1,.54.23l-.21.5a2,2,0,0,0-.48-.2,1.59,1.59,0,0,0-.48-.07,1,1,0,0,0-.57.13.4.4,0,0,0-.19.34.34.34,0,0,0,.11.25.87.87,0,0,0,.27.15l.45.12a4.19,4.19,0,0,1,.64.19,1,1,0,0,1,.42.29.8.8,0,0,1,.18.54,1,1,0,0,1-.15.53,1.15,1.15,0,0,1-.48.37,2,2,0,0,1-.78.14A2.54,2.54,0,0,1,185.61,193.05Z"/><path class="cls-3" d="M188.45,189.63h.64v3.49h-.64Z"/><path class="cls-3" d="M192.65,192.58v.54H190v-3.49h2.54v.54h-1.9v.91h1.69v.53h-1.69v1Zm-.83,1.53a.48.48,0,0,1-.18-.39.63.63,0,0,1,.18-.43,1.43,1.43,0,0,1,.56-.36l.27.19a1.47,1.47,0,0,0-.45.27.4.4,0,0,0-.14.28.22.22,0,0,0,.08.18.38.38,0,0,0,.22.07.58.58,0,0,0,.3-.08l.11.3a1,1,0,0,1-.48.12A.68.68,0,0,1,191.82,194.11Z"/><path class="cls-3" d="M194,192.94a1.72,1.72,0,0,1-.91-1.56,1.81,1.81,0,0,1,.24-.93,1.87,1.87,0,0,1,.67-.64,2.06,2.06,0,0,1,1-.23,2,2,0,0,1,.78.15,1.54,1.54,0,0,1,.6.43l-.42.4a1.22,1.22,0,0,0-.93-.41,1.24,1.24,0,0,0-.64.16,1.16,1.16,0,0,0-.45.43,1.34,1.34,0,0,0,0,1.27,1.16,1.16,0,0,0,.45.43,1.24,1.24,0,0,0,.64.16,1.22,1.22,0,0,0,.93-.41l.42.4a1.54,1.54,0,0,1-.6.43,2,2,0,0,1-.79.15A2,2,0,0,1,194,192.94Z"/><path class="cls-3" d="M198.44,191.89v1.23h-.65V191.9l-1.37-2.27h.69l1,1.7,1-1.7h.63Z"/><path class="cls-3" d="M200.48,192.44a.44.44,0,0,1,.11.3,1.11,1.11,0,0,1,0,.17l-.09.26-.26.7h-.4l.2-.76a.34.34,0,0,1-.17-.14.37.37,0,0,1-.07-.23.41.41,0,0,1,.12-.3.4.4,0,0,1,.29-.11A.44.44,0,0,1,200.48,192.44Z"/><path class="cls-3" d="M202.63,189.63h.65v2.94h1.83v.55h-2.48Z"/><path class="cls-3" d="M208.24,192.58v.54h-2.62v-3.49h2.55v.54h-1.9v.91H208v.53h-1.68v1Z"/><path class="cls-3" d="M209.6,192.94a1.76,1.76,0,0,1-.66-.64,1.78,1.78,0,0,1,.67-2.49,2,2,0,0,1,.95-.23,2,2,0,0,1,.79.15,1.58,1.58,0,0,1,.59.43l-.41.4a1.26,1.26,0,0,0-.94-.41,1.24,1.24,0,0,0-.64.16,1.07,1.07,0,0,0-.44.43,1.34,1.34,0,0,0,0,1.27,1.07,1.07,0,0,0,.44.43,1.24,1.24,0,0,0,.64.16,1.26,1.26,0,0,0,.94-.41l.41.4a1.54,1.54,0,0,1-.6.43,2,2,0,0,1-.78.15A2.06,2.06,0,0,1,209.6,192.94Z"/><path class="cls-3" d="M215.28,192.57v.55h-3v-.43l2.06-2.51h-2v-.55h2.87v.43l-2.05,2.51Z"/><path class="cls-3" d="M222.35,189.63l-1.16,3.49h-.69l-.86-2.58-.88,2.58h-.69l-1.16-3.49h.68l.86,2.65.91-2.65H220l.89,2.67.89-2.67Z"/><path class="cls-3" d="M226.61,193.12l-.72-1H225v1h-.64v-3.49h1.43a1.92,1.92,0,0,1,.79.15,1.16,1.16,0,0,1,.52.43,1.28,1.28,0,0,1,0,1.34,1.08,1.08,0,0,1-.55.42l.81,1.15Zm-.24-2.76a1,1,0,0,0-.64-.18H225v1.39h.76a1,1,0,0,0,.64-.18.63.63,0,0,0,.22-.52A.61.61,0,0,0,226.37,190.36Z"/><path class="cls-3" d="M230.23,192.31h-1.74l-.35.81h-.67l1.57-3.49h.64l1.58,3.49h-.68Zm-.21-.51-.66-1.52-.65,1.52Z"/><path class="cls-3" d="M234.41,192.57v.55h-3v-.43l2.05-2.51h-2v-.55h2.88v.43l-2.06,2.51Z"/><path class="cls-3" d="M235,189.63h.64v3.49H235Z"/><path class="cls-3" d="M239.21,192.58v.54H236.6v-3.49h2.54v.54h-1.9v.91h1.69v.53h-1.69v1Z"/><path class="cls-3" d="M243.54,189.78a1.14,1.14,0,0,1,.51.43,1.19,1.19,0,0,1,.18.66,1.21,1.21,0,0,1-.18.66,1.14,1.14,0,0,1-.51.43,2,2,0,0,1-.79.15H242v1h-.65v-3.49h1.44A2,2,0,0,1,243.54,189.78Zm-.18,1.6a.7.7,0,0,0,0-1,1,1,0,0,0-.64-.18H242v1.38h.76A1,1,0,0,0,243.36,191.38Z"/><path class="cls-3" d="M245.6,192.94a1.78,1.78,0,0,1,0-3.13,2,2,0,0,1,1-.23,2.06,2.06,0,0,1,1,.23,1.78,1.78,0,0,1,0,3.13,2.06,2.06,0,0,1-1,.23A2,2,0,0,1,245.6,192.94Zm1.59-.5a1.07,1.07,0,0,0,.43-.44,1.17,1.17,0,0,0,.16-.62,1.24,1.24,0,0,0-.16-.64,1.11,1.11,0,0,0-.43-.43,1.32,1.32,0,0,0-1.26,0,1.14,1.14,0,0,0-.44.43,1.35,1.35,0,0,0-.16.64,1.27,1.27,0,0,0,.16.62,1.1,1.1,0,0,0,.44.44,1.32,1.32,0,0,0,1.26,0Z"/><path class="cls-3" d="M249.78,190.18h-1.15v-.55h3v.55h-1.16v2.94h-.65Z"/><path class="cls-3" d="M254.36,193.12l-.71-1h-.93v1h-.64v-3.49h1.43a1.92,1.92,0,0,1,.79.15,1.11,1.11,0,0,1,.52.43,1.28,1.28,0,0,1,0,1.34,1.08,1.08,0,0,1-.55.42l.81,1.15Zm-.24-2.76a1,1,0,0,0-.64-.18h-.76v1.39h.76a1,1,0,0,0,.64-.18.63.63,0,0,0,.22-.52A.61.61,0,0,0,254.12,190.36Z"/><path class="cls-3" d="M258.43,192.57v.55h-3v-.43l2-2.51h-2v-.55h2.88v.43l-2.06,2.51Z"/><path class="cls-3" d="M261.64,192.58v.54H259v-3.49h2.55v.54h-1.9v.91h1.69v.53h-1.69v1Z"/><path class="cls-3" d="M265.29,191.62a.84.84,0,0,1,.17.55.79.79,0,0,1-.35.7,1.69,1.69,0,0,1-1,.25h-1.74v-3.49H264a1.61,1.61,0,0,1,.95.24.78.78,0,0,1,.33.67.9.9,0,0,1-.12.46.8.8,0,0,1-.33.3A.91.91,0,0,1,265.29,191.62ZM263,190.14v1h.92a1,1,0,0,0,.52-.12.45.45,0,0,0,0-.72,1,1,0,0,0-.52-.12Zm1.8,2q0-.51-.75-.51H263v1h1.05C264.56,192.61,264.81,192.44,264.81,192.11Z"/><path class="cls-3" d="M267.59,191.89v1.23h-.65V191.9l-1.37-2.27h.69l1,1.7,1-1.7H269Z"/><path class="cls-3" d="M106,195.61h1.52a2.14,2.14,0,0,1,1,.22,1.59,1.59,0,0,1,.67.61,1.75,1.75,0,0,1,.24.92,1.72,1.72,0,0,1-.24.91,1.52,1.52,0,0,1-.67.61,2.14,2.14,0,0,1-1,.22H106Zm1.49,2.94a1.59,1.59,0,0,0,.68-.14,1.14,1.14,0,0,0,.45-.42,1.32,1.32,0,0,0,0-1.26,1.07,1.07,0,0,0-.45-.42,1.45,1.45,0,0,0-.68-.15h-.84v2.39Z"/><path class="cls-3" d="M109.63,197.58l1.72-1.3.26.34-1.72,1.31Zm.54-2h.64v2.94h1.83v.55h-2.47Z"/><path class="cls-3" d="M113.48,198.74a1.56,1.56,0,0,1-.41-1.16v-2h.65v1.95c0,.68.3,1,.89,1s.88-.34.88-1v-1.95h.64v2a1.6,1.6,0,0,1-.4,1.16,1.54,1.54,0,0,1-1.13.41A1.5,1.5,0,0,1,113.48,198.74Z"/><path class="cls-3" d="M119.75,198.55v.55h-3v-.43l2-2.51h-2v-.55h2.88V196l-2.05,2.51ZM118,195.17a.34.34,0,0,1-.1-.26.33.33,0,0,1,.1-.25.36.36,0,0,1,.5,0,.33.33,0,0,1,.1.25.34.34,0,0,1-.1.26.36.36,0,0,1-.5,0Z"/><path class="cls-3" d="M123,198.56v.54h-2.61v-3.49h2.54v.55H121v.9h1.68v.54H121v1Z"/><path class="cls-3" d="M123.6,199a1.28,1.28,0,0,1-.46-.37l.37-.45a.85.85,0,0,0,.7.4c.36,0,.54-.21.54-.64v-1.8h-1.24v-.55h1.89v2.31a1.26,1.26,0,0,1-.3.92,1.15,1.15,0,0,1-.88.31A1.44,1.44,0,0,1,123.6,199Z"/><path class="cls-3" d="M126.7,198.42a.44.44,0,0,1,.11.3.5.5,0,0,1,0,.17c0,.06-.05.14-.09.26l-.26.7H126l.2-.76a.39.39,0,0,1-.17-.14.44.44,0,0,1-.06-.23.4.4,0,0,1,.11-.3.44.44,0,0,1,.58,0Z"/><path class="cls-3" d="M128.78,199a1.28,1.28,0,0,1-.46-.37l.37-.45a.82.82,0,0,0,.69.4c.37,0,.55-.21.55-.64v-1.8h-1.24v-.55h1.89v2.31a1.26,1.26,0,0,1-.3.92,1.17,1.17,0,0,1-.88.31A1.44,1.44,0,0,1,128.78,199Z"/><path class="cls-3" d="M134.1,198.56v.54h-2.62v-3.49H134v.55h-1.9v.9h1.69v.54h-1.69v1Z"/><path class="cls-3" d="M135.12,199a1.56,1.56,0,0,1-.59-.31l.22-.5a1.88,1.88,0,0,0,.53.27,1.69,1.69,0,0,0,.62.11,1.09,1.09,0,0,0,.58-.12.4.4,0,0,0,.2-.33.34.34,0,0,0-.11-.25.87.87,0,0,0-.27-.15,3.46,3.46,0,0,0-.45-.12c-.27-.07-.48-.13-.65-.19a1.25,1.25,0,0,1-.42-.3.81.81,0,0,1-.18-.55,1,1,0,0,1,.16-.52,1,1,0,0,1,.47-.38,2,2,0,0,1,.78-.14,2.72,2.72,0,0,1,.63.08,1.7,1.7,0,0,1,.53.23l-.2.5a2.45,2.45,0,0,0-.48-.2,1.71,1.71,0,0,0-.49-.07,1,1,0,0,0-.57.13.41.41,0,0,0-.18.34.33.33,0,0,0,.1.25.87.87,0,0,0,.27.15c.11,0,.26.08.45.12a4.19,4.19,0,0,1,.64.19,1,1,0,0,1,.43.3.8.8,0,0,1,.17.53,1,1,0,0,1-.15.53,1.15,1.15,0,0,1-.48.37,2,2,0,0,1-.78.14A2.88,2.88,0,0,1,135.12,199Zm1.1-4.4H137l-.87.69h-.54Z"/><path class="cls-3" d="M138,195.61h.64v2.94h1.83v.55H138Z"/><path class="cls-3" d="M140.94,195.61h.65v3.49h-.65Z"/><path class="cls-3" d="M146.13,195.76a1.11,1.11,0,0,1,.52.43,1.21,1.21,0,0,1,.18.66,1.16,1.16,0,0,1-.18.66,1.11,1.11,0,0,1-.52.43,1.89,1.89,0,0,1-.79.15h-.78v1h-.65v-3.49h1.43A1.89,1.89,0,0,1,146.13,195.76Zm-.17,1.61a.65.65,0,0,0,.22-.52.64.64,0,0,0-.22-.51,1,1,0,0,0-.65-.18h-.75v1.39h.75A1,1,0,0,0,146,197.37Z"/><path class="cls-3" d="M149.76,199.1l-.71-1h-.93v1h-.64v-3.49h1.43a1.92,1.92,0,0,1,.79.15,1.11,1.11,0,0,1,.52.43,1.21,1.21,0,0,1,.18.66,1.24,1.24,0,0,1-.19.68,1.15,1.15,0,0,1-.56.42l.81,1.15Zm-.24-2.76a1,1,0,0,0-.64-.18h-.76v1.39h.76a1,1,0,0,0,.64-.18.62.62,0,0,0,.22-.52A.61.61,0,0,0,149.52,196.34Z"/><path class="cls-3" d="M153.83,198.55v.55h-3v-.43l2-2.51h-2v-.55h2.88V196l-2.06,2.51Z"/><path class="cls-3" d="M155.93,197.87v1.23h-.65v-1.22l-1.37-2.27h.69l1,1.7,1-1.7h.63Z"/><path class="cls-3" d="M158.23,198.92a1.72,1.72,0,0,1-.91-1.56,1.81,1.81,0,0,1,.24-.93,1.87,1.87,0,0,1,.67-.64,2.06,2.06,0,0,1,1-.23,2,2,0,0,1,.78.15,1.56,1.56,0,0,1,.6.44l-.42.39a1.22,1.22,0,0,0-.93-.41,1.24,1.24,0,0,0-.64.16,1.16,1.16,0,0,0-.45.43,1.34,1.34,0,0,0,0,1.27,1.16,1.16,0,0,0,.45.43,1.24,1.24,0,0,0,.64.16,1.22,1.22,0,0,0,.93-.41l.42.4a1.54,1.54,0,0,1-.6.43,2,2,0,0,1-.79.15A2,2,0,0,1,158.23,198.92Z"/><path class="cls-3" d="M163.9,198.55v.55h-3v-.43l2-2.51h-2v-.55h2.88V196l-2.05,2.51Z"/><path class="cls-3" d="M166,197.87v1.23h-.65v-1.22L164,195.61h.7l1,1.7,1-1.7h.64Z"/><path class="cls-3" d="M170.84,195.61v3.49h-.53l-1.93-2.36v2.36h-.64v-3.49h.53L170.2,198v-2.36Z"/><path class="cls-3" d="M174,198.29H172.3l-.35.81h-.67l1.57-3.49h.64l1.58,3.49h-.68Zm-.21-.5-.66-1.53-.65,1.53Z"/><path class="cls-3" d="M180,195.61v3.49h-.54l-1.92-2.36v2.36h-.64v-3.49h.53l1.92,2.36v-2.36Z"/><path class="cls-3" d="M180.92,195.61h.65v3.49h-.65Z"/><path class="cls-3" d="M185.13,198.56v.54h-2.62v-3.49h2.55v.55h-1.9v.9h1.69v.54h-1.69v1Z"/><path class="cls-3" d="M185.85,195.61h1.53a2.12,2.12,0,0,1,1,.22,1.59,1.59,0,0,1,.67.61,1.75,1.75,0,0,1,.24.92,1.72,1.72,0,0,1-.24.91,1.52,1.52,0,0,1-.67.61,2.12,2.12,0,0,1-1,.22h-1.53Zm1.5,2.94a1.57,1.57,0,0,0,.67-.14,1,1,0,0,0,.45-.42,1.32,1.32,0,0,0,0-1.26,1,1,0,0,0-.45-.42,1.44,1.44,0,0,0-.67-.15h-.85v2.39Z"/><path class="cls-3" d="M190.64,198.92a1.75,1.75,0,0,1-.92-1.56,1.69,1.69,0,0,1,.25-.92,1.68,1.68,0,0,1,.67-.65,2,2,0,0,1,1-.23,2,2,0,0,1,1,.23,1.7,1.7,0,0,1,.92,1.57,1.78,1.78,0,0,1-.24.92,1.82,1.82,0,0,1-.68.64,2,2,0,0,1-1,.23A2,2,0,0,1,190.64,198.92Zm1.59-.5a1.21,1.21,0,0,0,.44-.43,1.34,1.34,0,0,0,.16-.63,1.28,1.28,0,0,0-.16-.63,1.16,1.16,0,0,0-.44-.44,1.32,1.32,0,0,0-1.26,0,1.16,1.16,0,0,0-.44.44,1.28,1.28,0,0,0-.16.63,1.34,1.34,0,0,0,.16.63,1.21,1.21,0,0,0,.44.43,1.32,1.32,0,0,0,1.26,0Z"/><path class="cls-3" d="M195.37,197.64l-.56.57v.89h-.64v-3.49h.64v1.79l1.73-1.79h.73l-1.47,1.56,1.56,1.93h-.76Z"/><path class="cls-3" d="M200.08,199.1l-.71-1h-.92v1h-.65v-3.49h1.44a2,2,0,0,1,.79.15,1.14,1.14,0,0,1,.51.43,1.21,1.21,0,0,1,.18.66,1.16,1.16,0,0,1-.19.68,1.12,1.12,0,0,1-.55.42l.8,1.15Zm-.23-2.76a1,1,0,0,0-.64-.18h-.76v1.39h.76a1,1,0,0,0,.64-.18.65.65,0,0,0,.22-.52A.64.64,0,0,0,199.85,196.34Z"/><path class="cls-3" d="M206.54,195.61l-1.15,3.49h-.69l-.86-2.58L203,199.1h-.69l-1.16-3.49h.67l.87,2.65.9-2.65h.6l.88,2.67.89-2.67Z"/><path class="cls-3" d="M207.07,195.61h.65v3.49h-.65Z"/><path class="cls-3" d="M209,199a1.56,1.56,0,0,1-.59-.31l.22-.5a1.76,1.76,0,0,0,.53.27,1.66,1.66,0,0,0,.62.11,1.12,1.12,0,0,0,.58-.12.39.39,0,0,0,.19-.33.33.33,0,0,0-.1-.25.92.92,0,0,0-.28-.15,2.87,2.87,0,0,0-.44-.12c-.27-.07-.48-.13-.65-.19a1.25,1.25,0,0,1-.42-.3.81.81,0,0,1-.18-.55.89.89,0,0,1,.16-.52,1,1,0,0,1,.47-.38,2,2,0,0,1,.78-.14,2.57,2.57,0,0,1,.62.08,1.66,1.66,0,0,1,.54.23l-.21.5a2,2,0,0,0-.48-.2,1.59,1.59,0,0,0-.48-.07,1,1,0,0,0-.57.13.42.42,0,0,0-.19.34.34.34,0,0,0,.11.25.87.87,0,0,0,.27.15c.11,0,.26.08.45.12a4.19,4.19,0,0,1,.64.19,1,1,0,0,1,.42.3.76.76,0,0,1,.18.53,1,1,0,0,1-.15.53,1.15,1.15,0,0,1-.48.37,2,2,0,0,1-.78.14A2.88,2.88,0,0,1,209,199Z"/><path class="cls-3" d="M212.45,196.16H211.3v-.55h3v.55H213.1v2.94h-.65Z"/><path class="cls-3" d="M215.36,198.92a1.82,1.82,0,0,1-.67-2.48,1.74,1.74,0,0,1,.67-.65,2.14,2.14,0,0,1,1.93,0,1.79,1.79,0,0,1,.67.64,1.82,1.82,0,0,1,.25.93,1.75,1.75,0,0,1-.92,1.56,2.14,2.14,0,0,1-1.93,0Zm1.59-.5a1.07,1.07,0,0,0,.44-.43,1.23,1.23,0,0,0,.16-.63,1.18,1.18,0,0,0-.16-.63,1,1,0,0,0-.44-.44,1.3,1.3,0,0,0-1.25,0,1.1,1.1,0,0,0-.44.44,1.18,1.18,0,0,0-.16.63,1.23,1.23,0,0,0,.16.63,1.14,1.14,0,0,0,.44.43,1.3,1.3,0,0,0,1.25,0Z"/><path class="cls-3" d="M219.19,199a1.56,1.56,0,0,1-.59-.31l.22-.5a1.88,1.88,0,0,0,.53.27,1.69,1.69,0,0,0,.62.11,1.09,1.09,0,0,0,.58-.12.4.4,0,0,0,.2-.33.34.34,0,0,0-.11-.25.87.87,0,0,0-.27-.15,3.46,3.46,0,0,0-.45-.12c-.27-.07-.48-.13-.65-.19a1.25,1.25,0,0,1-.42-.3.81.81,0,0,1-.18-.55,1,1,0,0,1,.16-.52,1,1,0,0,1,.47-.38,2,2,0,0,1,.78-.14,2.72,2.72,0,0,1,.63.08,1.7,1.7,0,0,1,.53.23l-.2.5a2.45,2.45,0,0,0-.48-.2,1.71,1.71,0,0,0-.49-.07,1,1,0,0,0-.57.13.41.41,0,0,0-.18.34.33.33,0,0,0,.1.25.87.87,0,0,0,.27.15c.11,0,.26.08.45.12a3.87,3.87,0,0,1,.64.19,1,1,0,0,1,.43.3.75.75,0,0,1,.17.53,1,1,0,0,1-.15.53,1.15,1.15,0,0,1-.48.37,2,2,0,0,1-.78.14A2.94,2.94,0,0,1,219.19,199Zm1.1-4.4H221l-.87.69h-.54Z"/><path class="cls-3" d="M222.69,198.92a1.72,1.72,0,0,1-.67-.64,1.78,1.78,0,0,1-.24-.92,1.81,1.81,0,0,1,.24-.93,1.79,1.79,0,0,1,.67-.64,2,2,0,0,1,1-.23,2,2,0,0,1,.78.15,1.64,1.64,0,0,1,.6.44l-.42.39a1.22,1.22,0,0,0-.93-.41,1.28,1.28,0,0,0-.65.16,1.14,1.14,0,0,0-.44.43,1.34,1.34,0,0,0,0,1.27,1.14,1.14,0,0,0,.44.43,1.28,1.28,0,0,0,.65.16,1.22,1.22,0,0,0,.93-.41l.42.4a1.7,1.7,0,0,1-.6.43,2,2,0,0,1-.79.15A2,2,0,0,1,222.69,198.92Z"/><path class="cls-3" d="M225.65,195.61h.65v3.49h-.65Z"/><path class="cls-3" d="M109.1,201.59v3.49h-.53l-1.93-2.36v2.36H106v-3.49h.53l1.93,2.37v-2.37Z"/><path class="cls-3" d="M110,201.59h.64v3.49H110Z"/><path class="cls-3" d="M114.24,204.54v.54h-2.61v-3.49h2.54v.55h-1.9v.9H114v.54h-1.69v1Z"/><path class="cls-3" d="M116.27,205a1.2,1.2,0,0,1-.46-.37l.37-.45a.82.82,0,0,0,.69.4c.36,0,.54-.21.54-.64v-1.8h-1.24v-.55h1.89v2.32a1.25,1.25,0,0,1-.3.91,1.15,1.15,0,0,1-.88.31A1.39,1.39,0,0,1,116.27,205Z"/><path class="cls-3" d="M121.58,204.54v.54H119v-3.49h2.54v.55h-1.89v.9h1.68v.54h-1.68v1Z"/><path class="cls-3" d="M122.61,205a1.69,1.69,0,0,1-.6-.31l.23-.5a2.12,2.12,0,0,0,.52.28,2,2,0,0,0,.63.1,1.12,1.12,0,0,0,.58-.12.38.38,0,0,0,.19-.33.34.34,0,0,0-.11-.25.87.87,0,0,0-.27-.15,3.46,3.46,0,0,0-.45-.12c-.26-.07-.48-.13-.64-.19a1.19,1.19,0,0,1-.43-.3.84.84,0,0,1-.17-.55,1,1,0,0,1,.15-.52,1.16,1.16,0,0,1,.48-.38,2,2,0,0,1,.77-.14,2.59,2.59,0,0,1,.63.08,1.6,1.6,0,0,1,.53.23l-.2.5a2,2,0,0,0-.48-.2,1.64,1.64,0,0,0-.48-.07,1,1,0,0,0-.57.13.39.39,0,0,0-.19.34.33.33,0,0,0,.11.25.87.87,0,0,0,.27.15c.11,0,.26.08.45.12a4.19,4.19,0,0,1,.64.19,1,1,0,0,1,.42.3.76.76,0,0,1,.18.53.9.9,0,0,1-.16.53,1.05,1.05,0,0,1-.47.37,2.05,2.05,0,0,1-.78.14A2.88,2.88,0,0,1,122.61,205Z"/><path class="cls-3" d="M126.1,202.14h-1.16v-.55h3v.55h-1.15v2.94h-.65Z"/><path class="cls-3" d="M130.07,205a1.69,1.69,0,0,1-.6-.31l.23-.5a2.12,2.12,0,0,0,.52.28,2,2,0,0,0,.63.1,1.12,1.12,0,0,0,.58-.12.38.38,0,0,0,.19-.33.31.31,0,0,0-.11-.25.87.87,0,0,0-.27-.15,3.46,3.46,0,0,0-.45-.12c-.26-.07-.48-.13-.64-.19a1.08,1.08,0,0,1-.42-.3.79.79,0,0,1-.18-.55.89.89,0,0,1,.16-.52,1.07,1.07,0,0,1,.47-.38,2,2,0,0,1,.77-.14,2.59,2.59,0,0,1,.63.08,1.66,1.66,0,0,1,.54.23l-.21.5a2,2,0,0,0-.48-.2,1.64,1.64,0,0,0-.48-.07,1,1,0,0,0-.57.13.39.39,0,0,0-.19.34.33.33,0,0,0,.11.25.87.87,0,0,0,.27.15c.11,0,.26.08.45.12a4.19,4.19,0,0,1,.64.19,1,1,0,0,1,.42.3.76.76,0,0,1,.18.53.9.9,0,0,1-.16.53,1.05,1.05,0,0,1-.47.37,2,2,0,0,1-.78.14A2.88,2.88,0,0,1,130.07,205Z"/><path class="cls-3" d="M134.1,203.62l-.55.57v.89h-.65v-3.49h.65v1.79l1.73-1.79H136l-1.46,1.56,1.55,1.93h-.75Z"/><path class="cls-3" d="M136.86,204.72a1.56,1.56,0,0,1-.4-1.16v-2h.64v1.95c0,.68.3,1,.89,1s.88-.34.88-1v-1.95h.64v2a1.56,1.56,0,0,1-.4,1.16,1.75,1.75,0,0,1-2.25,0Z"/><path class="cls-3" d="M141.06,202.14h-1.15v-.55h3v.55h-1.16v2.94h-.65Z"/><path class="cls-3" d="M146,204.54v.54h-2.62v-3.49h2.55v.55H144v.9h1.69v.54H144v1Z"/><path class="cls-3" d="M147.34,204.9a1.72,1.72,0,0,1-.67-.64,1.78,1.78,0,0,1-.24-.92,1.75,1.75,0,0,1,.24-.92,1.82,1.82,0,0,1,.67-.65,2.06,2.06,0,0,1,1-.23,2,2,0,0,1,.78.15,1.56,1.56,0,0,1,.6.44l-.42.39a1.22,1.22,0,0,0-.93-.41,1.24,1.24,0,0,0-.64.16,1.16,1.16,0,0,0-.45.43,1.34,1.34,0,0,0,0,1.27,1.19,1.19,0,0,0,.45.44,1.34,1.34,0,0,0,.64.15,1.22,1.22,0,0,0,.93-.41l.42.4a1.54,1.54,0,0,1-.6.43,2,2,0,0,1-.79.15A2,2,0,0,1,147.34,204.9Z"/><path class="cls-3" d="M153,204.53v.55h-3v-.43l2.05-2.51h-2v-.55H153V202l-2,2.5Z"/><path class="cls-3" d="M156.71,201.59v3.49h-.54l-1.92-2.36v2.36h-.64v-3.49h.53l1.92,2.37v-2.37Z"/><path class="cls-3" d="M157.64,201.59h.65v3.49h-.65Z"/><path class="cls-3" d="M161.85,204.54v.54h-2.62v-3.49h2.55v.55h-1.9v.9h1.69v.54h-1.69v1Z"/><path class="cls-3" d="M164,201.59h.65v2.94h1.82v.55H164Z"/><path class="cls-3" d="M169.55,204.54v.54h-2.62v-3.49h2.55v.55h-1.9v.9h1.69v.54h-1.69v1Z"/><path class="cls-3" d="M170.92,204.9a1.65,1.65,0,0,1-.67-.64,1.78,1.78,0,0,1-.24-.92,1.75,1.75,0,0,1,.24-.92,1.82,1.82,0,0,1,.67-.65,2.06,2.06,0,0,1,1-.23,2,2,0,0,1,.78.15,1.56,1.56,0,0,1,.6.44l-.42.39a1.22,1.22,0,0,0-.93-.41,1.24,1.24,0,0,0-.64.16,1.16,1.16,0,0,0-.45.43,1.34,1.34,0,0,0,0,1.27,1.19,1.19,0,0,0,.45.44,1.34,1.34,0,0,0,.64.15,1.22,1.22,0,0,0,.93-.41l.42.4a1.54,1.54,0,0,1-.6.43,2,2,0,0,1-.79.15A2,2,0,0,1,170.92,204.9Z"/><path class="cls-3" d="M176.59,204.53v.55h-3v-.43l2-2.51h-2v-.55h2.88V202l-2.06,2.5Z"/><path class="cls-3" d="M177.81,204.9a1.72,1.72,0,0,1-.67-.64,1.8,1.8,0,0,1-.24-.92,1.78,1.78,0,0,1,.24-.92,1.74,1.74,0,0,1,.67-.65,2.14,2.14,0,0,1,1.93,0,1.78,1.78,0,0,1,.92,1.57,1.79,1.79,0,0,1-.25.92,1.72,1.72,0,0,1-.67.64,2.14,2.14,0,0,1-1.93,0Zm1.59-.49a1.1,1.1,0,0,0,.44-.44,1.23,1.23,0,0,0,.16-.63,1.18,1.18,0,0,0-.16-.63,1,1,0,0,0-.44-.44,1.3,1.3,0,0,0-1.25,0,1.1,1.1,0,0,0-.44.44,1.18,1.18,0,0,0-.16.63,1.23,1.23,0,0,0,.16.63,1.16,1.16,0,0,0,.44.44,1.38,1.38,0,0,0,1.25,0Z"/><path class="cls-3" d="M184.44,201.59v3.49h-.53L182,202.72v2.36h-.65v-3.49h.54L183.8,204v-2.37Z"/><path class="cls-3" d="M187.64,204.27H185.9l-.35.81h-.66l1.57-3.49h.63l1.58,3.49H188Zm-.21-.5-.66-1.53-.65,1.53Z"/><path class="cls-3" d="M189.13,205a.41.41,0,0,1-.12-.3.38.38,0,0,1,.41-.41.44.44,0,0,1,.29.11.44.44,0,0,1,0,.6.4.4,0,0,1-.29.12A.38.38,0,0,1,189.13,205Z"/><path class="cls-3" d="M190.39,203.18a3,3,0,0,1-.09-.75,3.08,3.08,0,0,1,.09-.75,2.12,2.12,0,0,1,.26-.61H191a2.39,2.39,0,0,0-.26.65,3.19,3.19,0,0,0,0,1.42,2.27,2.27,0,0,0,.26.65h-.35A2.24,2.24,0,0,1,190.39,203.18Z"/><path class="cls-3" d="M191.92,201.39v2h-.38V201.7h-.42v-.31Z"/><path class="cls-3" d="M192.74,203.33a.88.88,0,0,1-.3-.36,1.26,1.26,0,0,1-.11-.57,1.25,1.25,0,0,1,.11-.56.77.77,0,0,1,.3-.36.8.8,0,0,1,.43-.12.81.81,0,0,1,.44.12.85.85,0,0,1,.31.36,1.4,1.4,0,0,1,.11.56,1.41,1.41,0,0,1-.11.57,1,1,0,0,1-.31.36.81.81,0,0,1-.44.12A.8.8,0,0,1,192.74,203.33Zm.78-.39a1,1,0,0,0,.13-.54,1,1,0,0,0-.13-.53.41.41,0,0,0-.35-.18.41.41,0,0,0-.34.18,1,1,0,0,0-.12.53,1,1,0,0,0,.12.54.41.41,0,0,0,.34.18A.41.41,0,0,0,193.52,202.94Z"/><path class="cls-3" d="M194.25,203.79a2.76,2.76,0,0,0,.26-.65,3.19,3.19,0,0,0,0-1.42,2.76,2.76,0,0,0-.26-.65h.34a2.13,2.13,0,0,1,.27.61,3.17,3.17,0,0,1,0,1.5,2.26,2.26,0,0,1-.27.61Z"/></g></svg>