<svg xmlns="http://www.w3.org/2000/svg" xmlns:xlink="http://www.w3.org/1999/xlink" viewBox="0 0 320 240"><defs><style>.cls-1,.cls-3{fill:none;}.cls-2,.cls-6{fill:#f9eaf2;}.cls-2{fill-opacity:0.7;}.cls-3,.cls-6{stroke:#ac297e;stroke-miterlimit:10;}.cls-4{fill:#fff;}.cls-45,.cls-5,.cls-54{fill:#ac297e;}.cls-6{stroke-width:0.5px;}.cls-7{fill:url(#Gradient_bez_nazwy_18);}.cls-8{fill:url(#Gradient_bez_nazwy_13);}.cls-9{clip-path:url(#clip-path);}.cls-10{fill:url(#Gradient_bez_nazwy_14);}.cls-11{clip-path:url(#clip-path-2);}.cls-12{fill:url(#Gradient_bez_nazwy_14-2);}.cls-13{clip-path:url(#clip-path-3);}.cls-14{fill:url(#Gradient_bez_nazwy_14-3);}.cls-15{clip-path:url(#clip-path-4);}.cls-16{fill:url(#Gradient_bez_nazwy_14-4);}.cls-17{clip-path:url(#clip-path-5);}.cls-18{fill:url(#Gradient_bez_nazwy_14-5);}.cls-19{clip-path:url(#clip-path-6);}.cls-20{fill:url(#Gradient_bez_nazwy_14-6);}.cls-21{clip-path:url(#clip-path-7);}.cls-22{fill:url(#Gradient_bez_nazwy_14-7);}.cls-23{clip-path:url(#clip-path-8);}.cls-24{fill:url(#Gradient_bez_nazwy_14-8);}.cls-25{clip-path:url(#clip-path-9);}.cls-26{fill:url(#Gradient_bez_nazwy_14-9);}.cls-27{clip-path:url(#clip-path-10);}.cls-28{fill:url(#Gradient_bez_nazwy_14-10);}.cls-29{clip-path:url(#clip-path-11);}.cls-30{fill:url(#Gradient_bez_nazwy_14-11);}.cls-31{clip-path:url(#clip-path-12);}.cls-32{fill:url(#Gradient_bez_nazwy_14-12);}.cls-33{fill:#aa1369;}.cls-34{font-size:4px;fill:#1d1d1b;font-family:Montserrat-Regular, Montserrat;}.cls-35{letter-spacing:-0.01em;}.cls-36{letter-spacing:-0.03em;}.cls-37{letter-spacing:-0.01em;}.cls-38{letter-spacing:-0.01em;}.cls-39{letter-spacing:-0.02em;}.cls-40{letter-spacing:0em;}.cls-41{letter-spacing:-0.01em;}.cls-42{letter-spacing:0em;}.cls-43{letter-spacing:0.01em;}.cls-44{letter-spacing:0em;}.cls-45,.cls-54{font-size:7.04px;font-family:Montserrat-SemiBold, Montserrat;font-weight:600;}.cls-46{letter-spacing:-0.03em;}.cls-47{letter-spacing:-0.03em;}.cls-48{letter-spacing:-0.01em;}.cls-49{letter-spacing:-0.01em;}.cls-50{letter-spacing:-0.01em;}.cls-51{letter-spacing:-0.02em;}.cls-52{letter-spacing:0em;}.cls-53{letter-spacing:0em;}.cls-54{letter-spacing:0em;}</style><linearGradient id="Gradient_bez_nazwy_18" x1="208.32" y1="116.45" x2="236.26" y2="132.58" gradientTransform="matrix(1, -0.02, -0.02, 1.19, 1.52, -18.48)" gradientUnits="userSpaceOnUse"><stop offset="0" stop-color="#f6bbcf"/><stop offset="0.5" stop-color="#ea5288"/><stop offset="1" stop-color="#ee77a2"/></linearGradient><linearGradient id="Gradient_bez_nazwy_13" x1="208.44" y1="115.98" x2="235.97" y2="131.88" gradientTransform="matrix(0.08, 1, -1.03, 0.08, 331.24, -107.35)" gradientUnits="userSpaceOnUse"><stop offset="0" stop-color="#f190b3"/><stop offset="0.5" stop-color="#f2a3c0"/><stop offset="1" stop-color="#f087ac"/></linearGradient><clipPath id="clip-path"><polygon class="cls-1" points="161.2 27.46 157.1 51.89 162.75 51.89 166.67 27.41 161.2 27.46"/></clipPath><linearGradient id="Gradient_bez_nazwy_14" x1="-292.6" y1="-237.93" x2="-291.25" y2="-237.93" gradientTransform="translate(5586.78 4498.43) scale(18.74)" gradientUnits="userSpaceOnUse"><stop offset="0" stop-color="#d70780"/><stop offset="0.46" stop-color="#c00a75"/><stop offset="1" stop-color="#aa1369"/></linearGradient><clipPath id="clip-path-2"><path class="cls-1" d="M150.11,47.74c-2.17-.24-1-6.58,1-6.13,2.15.32,1.31,6.13-.86,6.13h-.13m-6-2.38c-.13,1.53.25,7,6.42,6.92s6.92-7,7.06-9a5.54,5.54,0,0,0-5.8-5.93h-.17c-4.63,0-7.17,4-7.53,8"/></clipPath><linearGradient id="Gradient_bez_nazwy_14-2" x1="-292.6" y1="-237.91" x2="-291.25" y2="-237.91" gradientTransform="translate(5587.81 4503.15) scale(18.74)" xlink:href="#Gradient_bez_nazwy_14"/><clipPath id="clip-path-3"><polygon class="cls-1" points="138.3 27.46 133.62 52.01 139.3 52.01 142.07 39.56 144.39 39.58 146.01 39.58 146.78 35.28 142.56 35.27 143.3 31.66 148.84 31.66 149.47 27.46 138.3 27.46"/></clipPath><linearGradient id="Gradient_bez_nazwy_14-3" x1="-292.6" y1="-237.98" x2="-291.25" y2="-237.98" gradientTransform="translate(5585.86 4499.47) scale(18.74)" xlink:href="#Gradient_bez_nazwy_14"/><clipPath id="clip-path-4"><path class="cls-1" d="M169,28.36h.32c.18,0,.37,0,.37.26s-.18.27-.38.27H169Zm-.34-.26V30H169v-.8h.22l.48.8h.35l-.49-.81a.47.47,0,0,0,.48-.45v-.05c0-.39-.25-.53-.69-.53Zm-.61.93a1.24,1.24,0,0,1,2.48.16,1.24,1.24,0,0,1-1.24,1.16,1.26,1.26,0,0,1-1.24-1.27v0m-.39,0a1.64,1.64,0,1,0,1.64-1.63h0A1.63,1.63,0,0,0,167.68,29h0"/></clipPath><linearGradient id="Gradient_bez_nazwy_14-4" x1="-292.6" y1="-238.04" x2="-291.25" y2="-238.04" gradientTransform="translate(5583.91 4489.87) scale(18.74)" xlink:href="#Gradient_bez_nazwy_14"/><clipPath id="clip-path-5"><polygon class="cls-1" points="127.37 41.02 126.58 45.75 133.32 45.75 134.22 41.02 127.37 41.02"/></clipPath><linearGradient id="Gradient_bez_nazwy_14-5" x1="-292.6" y1="-238.01" x2="-291.25" y2="-238.01" gradientTransform="translate(5586.44 4503.65) scale(18.74)" xlink:href="#Gradient_bez_nazwy_14"/><clipPath id="clip-path-6"><path class="cls-1" d="M55.76,53c-1.24-.2-.89-6,1.06-5.8,1.29.26.76,5.81-.93,5.81Zm4.52-20.57L58.47,44s-.25-.93-2.71-1.18-5.33,1.93-6.12,7.2,1.86,7.19,3.72,7.3a5.63,5.63,0,0,0,3.41-1.11v.69h4.89L64.13,42.5h.35L66.1,52l-2.72,4.89h4.79l8.76-17H72L69.71,45.1,69,40H64.44l1.26-7.6Z"/></clipPath><linearGradient id="Gradient_bez_nazwy_14-6" x1="-284.58" y1="-226.29" x2="-283.23" y2="-226.29" gradientTransform="translate(11550.81 9198.29) scale(40.45)" xlink:href="#Gradient_bez_nazwy_14"/><clipPath id="clip-path-7"><polygon class="cls-1" points="23.22 32.37 22.23 37.12 26.01 37.12 23.54 52.01 29.17 52.01 31.47 37.07 34.83 37.1 35.44 32.37 23.22 32.37"/></clipPath><linearGradient id="Gradient_bez_nazwy_14-7" x1="-284.58" y1="-226.37" x2="-283.23" y2="-226.37" gradientTransform="translate(11548.41 9198.96) scale(40.45)" xlink:href="#Gradient_bez_nazwy_14"/><clipPath id="clip-path-8"><path class="cls-1" d="M37.3,47.91c-1.63-.07-.89-6,.7-5.77.68,0,1,1.42.94,2.88s-.58,2.89-1.58,2.89ZM36.8,38c-2.11.2-5.47,2.07-5.67,7.65S32.66,52.3,35,52.35A3.51,3.51,0,0,0,38.14,51V52h4.54l2.11-13.66H40.52l-.5.93A3.66,3.66,0,0,0,37.2,38h-.4"/></clipPath><linearGradient id="Gradient_bez_nazwy_14-8" x1="-284.58" y1="-226.33" x2="-283.23" y2="-226.33" gradientTransform="translate(11506.33 9165.96) scale(40.3)" xlink:href="#Gradient_bez_nazwy_14"/><clipPath id="clip-path-9"><path class="cls-1" d="M54,37.67h0a3.48,3.48,0,0,0-1.67.42,7,7,0,0,0-1.72,1.33l-.1-1.05H45.85L43.77,52h4.79s.09-6.33,1.58-8a5.14,5.14,0,0,1,3.69-1.67l.59-4.59a2.08,2.08,0,0,0-.43,0Z"/></clipPath><linearGradient id="Gradient_bez_nazwy_14-9" x1="-284.58" y1="-226.32" x2="-283.23" y2="-226.32" gradientTransform="translate(11550.17 9199.33) scale(40.45)" xlink:href="#Gradient_bez_nazwy_14"/><clipPath id="clip-path-10"><path class="cls-1" d="M122.54,37.84h0a5.9,5.9,0,0,0-3.28,1.34l-.08-.84h-4.79L112.28,52H117l1.34-7.7s.3-1.67,1.28-1.53.59,1.48.59,1.48L119.07,52H124s2-10.12,1.75-11.45a3.15,3.15,0,0,0-3-2.71Z"/></clipPath><linearGradient id="Gradient_bez_nazwy_14-10" x1="-284.58" y1="-226.18" x2="-283.23" y2="-226.18" gradientTransform="translate(11553.44 9193.86) scale(40.45)" xlink:href="#Gradient_bez_nazwy_14"/><clipPath id="clip-path-11"><path class="cls-1" d="M99.91,37.67h0a3.48,3.48,0,0,0-1.67.42,7,7,0,0,0-1.72,1.33l-.1-1.05H91.78L89.71,52H94.5s.1-6.32,1.58-8a5.17,5.17,0,0,1,3.7-1.68l.59-4.59-.42,0Z"/></clipPath><linearGradient id="Gradient_bez_nazwy_14-11" x1="-284.58" y1="-226.23" x2="-283.23" y2="-226.23" gradientTransform="translate(11552.27 9195.72) scale(40.45)" xlink:href="#Gradient_bez_nazwy_14"/><clipPath id="clip-path-12"><path class="cls-1" d="M105,47.84c-2.17-.24-1-6.57,1-6.13,2.16.32,1.31,6.13-.86,6.13H105M99,45.45c-.13,1.54.24,7,6.42,6.93s6.91-7,7-9a5.53,5.53,0,0,0-5.77-5.93h-.17c-4.63,0-7.17,4-7.53,8"/></clipPath><linearGradient id="Gradient_bez_nazwy_14-12" x1="-284.58" y1="-226.21" x2="-283.23" y2="-226.21" gradientTransform="translate(11552.82 9194.94) scale(40.45)" xlink:href="#Gradient_bez_nazwy_14"/></defs><title>dawkowanie_2</title><g id="Warstwa_4" data-name="Warstwa 4"><rect class="cls-2" x="1.46" y="19.06" width="316.58" height="218.15" rx="8.4"/></g><g id="Warstwa_4_kopia" data-name="Warstwa 4 kopia"><rect class="cls-3" x="1.46" y="19.06" width="316.58" height="218.15" rx="8.4"/></g><g id="Warstwa_2_kopia" data-name="Warstwa 2 kopia"><rect class="cls-4" x="4.61" y="24.9" width="310.51" height="34.92" rx="17.46"/><path class="cls-5" d="M197.77,44.78h3.82a5.35,5.35,0,0,1,2.42.52,3.94,3.94,0,0,1,1.63,1.47,4.5,4.5,0,0,1,0,4.42A3.94,3.94,0,0,1,204,52.66a5.35,5.35,0,0,1-2.42.52h-3.82Zm3.72,6.8a2.81,2.81,0,0,0,2-.7,2.78,2.78,0,0,0,0-3.8,2.81,2.81,0,0,0-2-.7h-1.77v5.2Z"/><path class="cls-5" d="M213.1,51.38h-3.9l-.75,1.8h-2l3.75-8.4h1.91l3.76,8.4h-2Zm-.62-1.48-1.33-3.21-1.33,3.21Z"/><path class="cls-5" d="M229,44.78l-2.75,8.4h-2.09l-1.85-5.69-1.91,5.69h-2.07l-2.76-8.4h2l1.9,5.9,2-5.9h1.8l1.92,5.95,2-5.95Z"/><path class="cls-5" d="M233.14,49.88,232,51.06v2.12h-1.93v-8.4H232V48.7l3.72-3.92h2.16l-3.48,3.74,3.68,4.66h-2.27Z"/><path class="cls-5" d="M240.37,52.76a4.25,4.25,0,0,1-1.65-1.55,4.51,4.51,0,0,1,0-4.46,4.25,4.25,0,0,1,1.65-1.55,5.23,5.23,0,0,1,4.71,0,4.29,4.29,0,0,1,1.64,1.55,4.44,4.44,0,0,1,0,4.46,4.29,4.29,0,0,1-1.64,1.55,5.23,5.23,0,0,1-4.71,0Zm3.7-1.43a2.48,2.48,0,0,0,.94-1,3,3,0,0,0,0-2.78,2.48,2.48,0,0,0-.94-1,2.83,2.83,0,0,0-2.69,0,2.48,2.48,0,0,0-.94,1,3,3,0,0,0,0,2.78,2.48,2.48,0,0,0,.94,1,2.83,2.83,0,0,0,2.69,0Z"/><path class="cls-5" d="M261.2,44.78l-2.74,8.4h-2.09l-1.85-5.69-1.91,5.69h-2.07l-2.76-8.4h2l1.9,5.9,2-5.9h1.8l1.92,5.95,1.95-5.95Z"/><path class="cls-5" d="M267.54,51.38h-3.9l-.74,1.8h-2l3.75-8.4h1.92l3.75,8.4h-2Zm-.61-1.48-1.33-3.21-1.34,3.21Z"/><path class="cls-5" d="M278.9,44.78v8.4h-1.59l-4.19-5.1v5.1H271.2v-8.4h1.61l4.17,5.1v-5.1Z"/><path class="cls-5" d="M280.9,44.78h1.94v8.4H280.9Z"/><path class="cls-5" d="M291.34,51.62v1.56h-6.51v-8.4h6.35v1.56h-4.42v1.82h3.9v1.52h-3.9v1.94Z"/><rect class="cls-5" x="7.18" y="64.62" width="152.69" height="157.84" rx="2.2"/><rect class="cls-6" x="162.1" y="64.62" width="150.4" height="158.29" rx="2.2"/></g><g id="Warstwa_3_kopia" data-name="Warstwa 3 kopia"><path class="cls-4" d="M27.73,81.62v.77H23.55v-.61l2.89-3.52H23.6v-.77h4v.61l-2.88,3.52Z"/><path class="cls-4" d="M31.74,81.25H29.29l-.48,1.14h-.94l2.21-4.9H31l2.22,4.9h-1Zm-.3-.71-.92-2.14-.92,2.14Z"/><path class="cls-4" d="M36.93,77.7a1.62,1.62,0,0,1,.73.6,1.66,1.66,0,0,1,.25.93,1.68,1.68,0,0,1-.25.93,1.62,1.62,0,0,1-.73.6,2.68,2.68,0,0,1-1.11.21h-1.1v1.42h-.91v-4.9h2A2.68,2.68,0,0,1,36.93,77.7ZM36.69,80a1,1,0,0,0,0-1.44,1.41,1.41,0,0,0-.91-.25H34.72V80.2h1.06A1.41,1.41,0,0,0,36.69,80Z"/><path class="cls-4" d="M39.83,82.13a2.42,2.42,0,0,1-.95-.9,2.49,2.49,0,0,1-.34-1.29,2.44,2.44,0,0,1,1.29-2.2,3,3,0,0,1,2.7,0,2.49,2.49,0,0,1,.95.9,2.6,2.6,0,0,1,.34,1.3,2.53,2.53,0,0,1-.34,1.29,2.35,2.35,0,0,1-.95.9,2.93,2.93,0,0,1-2.7,0Zm2.23-.69a1.61,1.61,0,0,0,.62-.62,1.74,1.74,0,0,0,.22-.88,1.78,1.78,0,0,0-.22-.89,1.58,1.58,0,0,0-.62-.61,1.87,1.87,0,0,0-1.76,0,1.58,1.58,0,0,0-.62.61,1.78,1.78,0,0,0-.22.89,1.74,1.74,0,0,0,.22.88,1.61,1.61,0,0,0,.62.62,1.87,1.87,0,0,0,1.76,0Z"/><path class="cls-4" d="M48.9,80.28a1.25,1.25,0,0,1,.24.78,1.15,1.15,0,0,1-.49,1,2.47,2.47,0,0,1-1.43.35H44.78v-4.9h2.3a2.25,2.25,0,0,1,1.34.34,1.09,1.09,0,0,1,.47.93,1.29,1.29,0,0,1-.17.65,1.19,1.19,0,0,1-.46.43A1.34,1.34,0,0,1,48.9,80.28ZM45.69,78.2v1.35H47a1.25,1.25,0,0,0,.73-.17.56.56,0,0,0,.26-.5.59.59,0,0,0-.26-.51A1.33,1.33,0,0,0,47,78.2ZM48.22,81c0-.47-.35-.71-1.06-.71H45.69v1.41h1.47C47.87,81.67,48.22,81.44,48.22,81Z"/><path class="cls-4" d="M50.11,77.49H51v4.9h-.91Z"/><path class="cls-4" d="M56,81.62v.77H52.34v-4.9h3.58v.76H53.25v1.27h2.37v.75H53.25v1.35Z"/><path class="cls-4" d="M60.36,79.88h.86v2a2.66,2.66,0,0,1-.88.47,3.64,3.64,0,0,1-1,.16A2.75,2.75,0,0,1,58,82.13a2.27,2.27,0,0,1-.94-.9,2.45,2.45,0,0,1-.35-1.29,2.51,2.51,0,0,1,.35-1.3,2.4,2.4,0,0,1,.94-.9,2.94,2.94,0,0,1,1.37-.32,3.1,3.1,0,0,1,1.12.2,2.2,2.2,0,0,1,.84.6l-.57.56a1.8,1.8,0,0,0-1.35-.56,2,2,0,0,0-.92.21,1.61,1.61,0,0,0-.63.61,1.77,1.77,0,0,0-.23.9,1.75,1.75,0,0,0,.23.88,1.63,1.63,0,0,0,.63.62,1.94,1.94,0,0,0,.91.22,2,2,0,0,0,1-.25Z"/><path class="cls-4" d="M65.59,81.25H63.15l-.49,1.14h-.94l2.21-4.9h.89L67,82.39h-1Zm-.3-.71-.92-2.14-.92,2.14Z"/><path class="cls-4" d="M72,77.49v4.9h-.75l-2.7-3.32v3.32h-.9v-4.9h.75l2.7,3.32V77.49Z"/><path class="cls-4" d="M73.33,77.49h.91v4.9h-.91Z"/><path class="cls-4" d="M79.24,81.62v.77H75.56v-4.9h3.58v.76H76.47v1.27h2.37v.75H76.47v1.35Z"/><path class="cls-4" d="M83.12,82.13a2.39,2.39,0,0,1-.94-.9,2.5,2.5,0,0,1-.35-1.29,2.45,2.45,0,0,1,.35-1.29,2.42,2.42,0,0,1,.94-.91,3,3,0,0,1,2.7,0,2.42,2.42,0,0,1,1,.9,2.5,2.5,0,0,1,.34,1.3,2.44,2.44,0,0,1-.34,1.29,2.29,2.29,0,0,1-1,.9,2.93,2.93,0,0,1-2.7,0Zm2.24-.69a1.58,1.58,0,0,0,.61-.62,1.75,1.75,0,0,0,.23-.88,1.79,1.79,0,0,0-.23-.89,1.56,1.56,0,0,0-.61-.61,1.78,1.78,0,0,0-.89-.22,1.74,1.74,0,0,0-.88.22,1.49,1.49,0,0,0-.61.61,1.79,1.79,0,0,0-.23.89,1.75,1.75,0,0,0,.23.88,1.52,1.52,0,0,0,.61.62,1.74,1.74,0,0,0,.88.22A1.78,1.78,0,0,0,85.36,81.44Z"/><path class="cls-4" d="M91.29,82.39l-1-1.44H89v1.43h-.91v-4.9h2a2.68,2.68,0,0,1,1.11.21,1.62,1.62,0,0,1,.73.6,1.66,1.66,0,0,1,.25.93,1.64,1.64,0,0,1-.27,1,1.6,1.6,0,0,1-.77.6l1.12,1.61ZM91,78.51a1.41,1.41,0,0,0-.91-.25H89v1.95h1.06A1.41,1.41,0,0,0,91,80a.93.93,0,0,0,.3-.73A.89.89,0,0,0,91,78.51Z"/><path class="cls-4" d="M96.37,81.25H93.92l-.48,1.14H92.5l2.21-4.9h.89l2.22,4.9h-1Zm-.3-.71-.92-2.14-.92,2.14Z"/><path class="cls-4" d="M102.25,81.62v.77H98.07v-.61L101,78.26H98.12v-.77h4v.61l-2.89,3.52Z"/><path class="cls-4" d="M105,77.49h.91v4.13h2.56v.77H105Z"/><path class="cls-4" d="M112.88,81.62v.77H109.2v-4.9h3.58v.76h-2.67v1.27h2.37v.75h-2.37v1.35Z"/><path class="cls-4" d="M114.8,82.13a2.33,2.33,0,0,1-.94-.9,2.53,2.53,0,0,1-.34-1.29,2.51,2.51,0,0,1,.35-1.3,2.4,2.4,0,0,1,.94-.9,3,3,0,0,1,2.44-.11,2.22,2.22,0,0,1,.84.61l-.59.55a1.73,1.73,0,0,0-1.31-.57,1.77,1.77,0,0,0-.9.22,1.54,1.54,0,0,0-.63.61,1.91,1.91,0,0,0,0,1.78,1.61,1.61,0,0,0,.63.61,1.77,1.77,0,0,0,.9.22,1.7,1.7,0,0,0,1.31-.58l.59.56a2.29,2.29,0,0,1-.85.61,2.8,2.8,0,0,1-1.1.21A2.74,2.74,0,0,1,114.8,82.13Z"/><path class="cls-4" d="M122.77,81.62v.77h-4.18v-.61l2.88-3.52h-2.83v-.77h4v.61l-2.89,3.52Z"/><path class="cls-4" d="M127.28,81.62v.77H123.6v-4.9h3.58v.76h-2.67v1.27h2.37v.75h-2.37v1.35Z"/><path class="cls-4" d="M132.65,77.49v4.9h-.75l-2.7-3.32v3.32h-.91v-4.9H129l2.7,3.32V77.49Z"/><path class="cls-4" d="M134,77.49h.91v4.9H134Z"/><path class="cls-4" d="M139.87,81.62v.77H136.2v-4.9h3.57v.76h-2.66v1.27h2.36v.75h-2.36v1.35Z"/><path class="cls-4" d="M44.27,85.89v4.9h-.75l-2.7-3.32v3.32h-.9v-4.9h.75l2.7,3.32V85.89Z"/><path class="cls-4" d="M45.59,85.89h.91v4.9h-.91Z"/><path class="cls-4" d="M51.5,90v.77H47.82v-4.9H51.4v.76H48.73v1.27H51.1v.75H48.73V90Z"/><path class="cls-4" d="M52.51,85.89h2.14a3.13,3.13,0,0,1,1.4.3,2.3,2.3,0,0,1,.94.86,2.6,2.6,0,0,1,0,2.57,2.24,2.24,0,0,1-.94.86,3,3,0,0,1-1.4.31H52.51ZM54.61,90a2,2,0,0,0,1-.21,1.5,1.5,0,0,0,.63-.59,1.69,1.69,0,0,0,.22-.88,1.73,1.73,0,0,0-.22-.89,1.56,1.56,0,0,0-.63-.59,2.18,2.18,0,0,0-1-.2H53.42V90Z"/><path class="cls-4" d="M59.23,90.53a2.47,2.47,0,0,1-.94-.9,2.5,2.5,0,0,1-.35-1.29,2.45,2.45,0,0,1,.35-1.29,2.42,2.42,0,0,1,.94-.91,3,3,0,0,1,2.7,0,2.41,2.41,0,0,1,1.29,2.2,2.41,2.41,0,0,1-1.29,2.19,2.93,2.93,0,0,1-2.7,0Zm2.23-.69a1.54,1.54,0,0,0,.62-.62,1.74,1.74,0,0,0,.22-.88,1.78,1.78,0,0,0-.22-.89,1.52,1.52,0,0,0-.62-.61,1.72,1.72,0,0,0-.88-.22,1.74,1.74,0,0,0-.88.22,1.58,1.58,0,0,0-.62.61,1.89,1.89,0,0,0-.22.89,1.85,1.85,0,0,0,.22.88,1.61,1.61,0,0,0,.62.62,1.74,1.74,0,0,0,.88.22A1.72,1.72,0,0,0,61.46,89.84Z"/><path class="cls-4" d="M68.3,88.68a1.25,1.25,0,0,1,.24.78,1.12,1.12,0,0,1-.49,1,2.47,2.47,0,0,1-1.43.35H64.19v-4.9h2.29a2.23,2.23,0,0,1,1.34.34,1.09,1.09,0,0,1,.47.93,1.29,1.29,0,0,1-.17.65,1.12,1.12,0,0,1-.46.43A1.34,1.34,0,0,1,68.3,88.68ZM65.1,86.6V88h1.29a1.27,1.27,0,0,0,.73-.17.55.55,0,0,0,.25-.5.58.58,0,0,0-.25-.51,1.36,1.36,0,0,0-.73-.17Zm2.52,2.77c0-.47-.35-.71-1.05-.71H65.1v1.41h1.47C67.27,90.07,67.62,89.84,67.62,89.37Z"/><path class="cls-4" d="M70.45,90.53a2.47,2.47,0,0,1-.94-.9,2.5,2.5,0,0,1-.35-1.29,2.45,2.45,0,0,1,.35-1.29,2.42,2.42,0,0,1,.94-.91,3,3,0,0,1,2.7,0,2.42,2.42,0,0,1,.95.9,2.5,2.5,0,0,1,.34,1.3,2.44,2.44,0,0,1-.34,1.29,2.36,2.36,0,0,1-.95.9,2.93,2.93,0,0,1-2.7,0Zm2.24-.69a1.58,1.58,0,0,0,.61-.62,1.75,1.75,0,0,0,.23-.88,1.79,1.79,0,0,0-.23-.89,1.56,1.56,0,0,0-.61-.61,1.78,1.78,0,0,0-.89-.22,1.74,1.74,0,0,0-.88.22,1.56,1.56,0,0,0-.61.61,1.79,1.79,0,0,0-.23.89,1.75,1.75,0,0,0,.23.88,1.58,1.58,0,0,0,.61.62,1.74,1.74,0,0,0,.88.22A1.78,1.78,0,0,0,72.69,89.84Z"/><path class="cls-4" d="M78.61,90.79l-1-1.44H76.32v1.43h-.91v-4.9h2a2.68,2.68,0,0,1,1.11.21,1.62,1.62,0,0,1,.73.6,1.66,1.66,0,0,1,.25.93,1.64,1.64,0,0,1-.27,1,1.6,1.6,0,0,1-.77.6l1.12,1.61Zm-.32-3.88a1.41,1.41,0,0,0-.91-.25H76.32v2h1.06a1.35,1.35,0,0,0,.91-.26,1,1,0,0,0,0-1.44Z"/><path class="cls-4" d="M81.46,90.53a2.47,2.47,0,0,1-.94-.9,2.5,2.5,0,0,1-.35-1.29,2.45,2.45,0,0,1,.35-1.29,2.42,2.42,0,0,1,.94-.91,2.86,2.86,0,0,1,1.35-.32,2.93,2.93,0,0,1,1.36.32,2.47,2.47,0,0,1,.94.9,2.5,2.5,0,0,1,.34,1.3,2.44,2.44,0,0,1-.34,1.29,2.39,2.39,0,0,1-.94.9,2.82,2.82,0,0,1-1.36.33A2.75,2.75,0,0,1,81.46,90.53Zm2.24-.69a1.58,1.58,0,0,0,.61-.62,1.75,1.75,0,0,0,.23-.88,1.79,1.79,0,0,0-.23-.89,1.56,1.56,0,0,0-.61-.61,1.78,1.78,0,0,0-.89-.22,1.74,1.74,0,0,0-.88.22,1.56,1.56,0,0,0-.61.61,1.79,1.79,0,0,0-.23.89,1.75,1.75,0,0,0,.23.88,1.58,1.58,0,0,0,.61.62,1.74,1.74,0,0,0,.88.22A1.78,1.78,0,0,0,83.7,89.84Zm-.53-5.31h1l-1.22,1h-.75Z"/><path class="cls-4" d="M93.43,85.89l-1.63,4.9h-1l-1.22-3.63-1.23,3.63h-1l-1.62-4.9h.94L88,89.61l1.27-3.72h.84l1.24,3.74,1.25-3.74Z"/><path class="cls-4" d="M100,90v.77H95.83v-.61l2.89-3.52H95.88v-.77h4v.61L97,90Zm-2.44-4.76a.48.48,0,0,1-.14-.35.48.48,0,0,1,.5-.5.48.48,0,0,1,.35.14.45.45,0,0,1,.14.36.48.48,0,0,1-.49.49A.45.45,0,0,1,97.57,85.26Z"/><path class="cls-4" d="M104.52,90v.77h-3.67v-4.9h3.57v.76h-2.66v1.27h2.36v.75h-2.36V90Z"/><path class="cls-4" d="M105.54,85.89h.91V90H109v.77h-3.47Z"/><path class="cls-4" d="M112.94,89.65h-2.45L110,90.79h-.94l2.21-4.9h.89l2.21,4.9h-.95Zm-.3-.71-.92-2.14-.92,2.14Z"/><path class="cls-4" d="M118.81,90v.77h-4.17v-.61l2.88-3.52h-2.84v-.77h4v.61L115.84,90Z"/><path class="cls-4" d="M122.83,89.65h-2.45l-.49,1.14H119l2.2-4.9h.9l2.21,4.9h-1Zm-.3-.71-.93-2.14-.92,2.14Z"/><path class="cls-4" d="M43.29,94.29h.91v4.9h-.91Z"/><path class="cls-4" d="M49.14,97.14l-.78.79v1.26h-.91v-4.9h.91V96.8l2.42-2.51h1l-2.06,2.19,2.18,2.71H50.87Z"/><path class="cls-4" d="M59.43,94.29l-1.62,4.9h-1l-1.21-3.63L54.4,99.19h-1l-1.63-4.9h1L54,98l1.26-3.72h.84L57.31,98l1.26-3.74Z"/><path class="cls-4" d="M63.2,98.05H60.75l-.48,1.14h-.94l2.2-4.9h.9l2.21,4.9h-1Zm-.3-.71L62,95.2l-.92,2.14Z"/><path class="cls-4" d="M65.69,99.1a2.36,2.36,0,0,1-.84-.43l.32-.71a2.47,2.47,0,0,0,.74.39,2.67,2.67,0,0,0,.88.15,1.58,1.58,0,0,0,.81-.17.54.54,0,0,0,.27-.47.43.43,0,0,0-.15-.34,1.27,1.27,0,0,0-.38-.22c-.16,0-.37-.11-.63-.17a7,7,0,0,1-.91-.27,1.43,1.43,0,0,1-.59-.41,1.12,1.12,0,0,1-.25-.77,1.29,1.29,0,0,1,.22-.74,1.54,1.54,0,0,1,.66-.53,2.73,2.73,0,0,1,1.09-.19,3.22,3.22,0,0,1,.88.11,2.33,2.33,0,0,1,.75.32l-.28.71a2.9,2.9,0,0,0-.68-.29,2.72,2.72,0,0,0-.67-.1,1.38,1.38,0,0,0-.81.19.56.56,0,0,0-.26.48A.43.43,0,0,0,66,96a1.07,1.07,0,0,0,.38.21l.63.18a6,6,0,0,1,.9.26,1.56,1.56,0,0,1,.6.42,1.09,1.09,0,0,1,.25.75,1.3,1.3,0,0,1-.23.74,1.41,1.41,0,0,1-.66.52,2.75,2.75,0,0,1-1.09.2A4,4,0,0,1,65.69,99.1Z"/><path class="cls-4" d="M70.19,98.69a2.26,2.26,0,0,1-.56-1.64V94.29h.91V97c0,1,.41,1.44,1.24,1.44S73,98,73,97V94.29h.9v2.76a2.23,2.23,0,0,1-.57,1.64,2.1,2.1,0,0,1-1.57.57A2.15,2.15,0,0,1,70.19,98.69Z"/><path class="cls-4" d="M78,95.05v1.49H80.4v.77H78v1.88h-.91v-4.9H80.7v.76Z"/><path class="cls-4" d="M82.46,98.93a2.43,2.43,0,0,1-1.28-2.19,2.46,2.46,0,0,1,1.28-2.2,3,3,0,0,1,2.71,0,2.47,2.47,0,0,1,.94.9,2.5,2.5,0,0,1,.34,1.3A2.44,2.44,0,0,1,86.11,98a2.39,2.39,0,0,1-.94.9,2.95,2.95,0,0,1-2.71,0Zm2.24-.69a1.58,1.58,0,0,0,.61-.62,1.75,1.75,0,0,0,.23-.88,1.79,1.79,0,0,0-.23-.89,1.56,1.56,0,0,0-.61-.61,1.89,1.89,0,0,0-1.77,0,1.56,1.56,0,0,0-.61.61,1.79,1.79,0,0,0-.23.89,1.75,1.75,0,0,0,.23.88,1.58,1.58,0,0,0,.61.62,1.89,1.89,0,0,0,1.77,0Z"/><path class="cls-4" d="M87.42,94.29h.91v4.13h2.56v.77H87.42Z"/><path class="cls-4" d="M91.61,94.29h.91v4.9h-.91Z"/><path class="cls-4" d="M94.78,98.93a2.43,2.43,0,0,1-1.28-2.19,2.46,2.46,0,0,1,1.28-2.2,3,3,0,0,1,2.71,0,2.47,2.47,0,0,1,.94.9,2.5,2.5,0,0,1,.34,1.3A2.44,2.44,0,0,1,98.43,98a2.39,2.39,0,0,1-.94.9,2.95,2.95,0,0,1-2.71,0ZM97,98.24a1.58,1.58,0,0,0,.61-.62,1.75,1.75,0,0,0,.23-.88,1.79,1.79,0,0,0-.23-.89,1.56,1.56,0,0,0-.61-.61,1.89,1.89,0,0,0-1.77,0,1.56,1.56,0,0,0-.61.61,1.79,1.79,0,0,0-.23.89,1.75,1.75,0,0,0,.23.88,1.58,1.58,0,0,0,.61.62,1.89,1.89,0,0,0,1.77,0Z"/><path class="cls-4" d="M106.75,94.29l-1.63,4.9h-1L103,95.56l-1.24,3.63h-1l-1.62-4.9h.94L101.28,98l1.27-3.72h.84L104.63,98l1.25-3.74Z"/><path class="cls-4" d="M111.16,98.42v.77h-3.67v-4.9h3.58v.76H108.4v1.27h2.36v.75H108.4v1.35Z"/><path class="cls-4" d="M115.5,96.68h.87v1.95a2.91,2.91,0,0,1-.89.47,3.57,3.57,0,0,1-1,.16,2.75,2.75,0,0,1-1.35-.33,2.36,2.36,0,0,1-.95-.9,2.44,2.44,0,0,1-.34-1.29,2.41,2.41,0,0,1,1.29-2.2,2.9,2.9,0,0,1,1.36-.32,3.06,3.06,0,0,1,1.12.2,2.16,2.16,0,0,1,.85.6l-.58.56A1.8,1.8,0,0,0,114.5,95a2,2,0,0,0-.92.21,1.61,1.61,0,0,0-.63.61,1.77,1.77,0,0,0-.23.9,1.75,1.75,0,0,0,.23.88,1.63,1.63,0,0,0,.63.62,2,2,0,0,0,.92.22,1.93,1.93,0,0,0,1-.25Z"/><path class="cls-4" d="M118.5,98.93a2.4,2.4,0,0,1-.94-.9,2.5,2.5,0,0,1-.35-1.29,2.45,2.45,0,0,1,.35-1.29,2.35,2.35,0,0,1,.94-.91,3,3,0,0,1,2.7,0,2.41,2.41,0,0,1,1.29,2.2,2.41,2.41,0,0,1-1.29,2.19,2.93,2.93,0,0,1-2.7,0Zm2.23-.69a1.61,1.61,0,0,0,.62-.62,1.74,1.74,0,0,0,.22-.88,1.78,1.78,0,0,0-.22-.89,1.58,1.58,0,0,0-.62-.61,1.87,1.87,0,0,0-1.76,0,1.58,1.58,0,0,0-.62.61,1.78,1.78,0,0,0-.22.89,1.74,1.74,0,0,0,.22.88,1.61,1.61,0,0,0,.62.62,1.87,1.87,0,0,0,1.76,0Z"/><path class="cls-4" d="M49.67,107.09a2.26,2.26,0,0,1-.56-1.64v-2.76H50v2.73c0,1,.41,1.44,1.24,1.44s1.24-.48,1.24-1.44v-2.73h.9v2.76a2.23,2.23,0,0,1-.57,1.64,2.1,2.1,0,0,1-1.57.57A2.15,2.15,0,0,1,49.67,107.09Z"/><path class="cls-4" d="M58.29,105.54l-.78.79v1.26H56.6v-4.9h.91v2.51l2.43-2.51h1l-2.06,2.19,2.18,2.71H60Z"/><path class="cls-4" d="M62.47,107.33a2.42,2.42,0,0,1-.95-.9,2.59,2.59,0,0,1-.34-1.29,2.53,2.53,0,0,1,.34-1.29,2.45,2.45,0,0,1,.95-.91,3,3,0,0,1,2.7,0,2.49,2.49,0,0,1,1,.9,2.6,2.6,0,0,1,.34,1.3,2.53,2.53,0,0,1-.34,1.29,2.35,2.35,0,0,1-1,.9,2.93,2.93,0,0,1-2.7,0Zm2.23-.69a1.61,1.61,0,0,0,.62-.62,1.74,1.74,0,0,0,.22-.88,1.78,1.78,0,0,0-.22-.89,1.58,1.58,0,0,0-.62-.61,1.87,1.87,0,0,0-1.76,0,1.58,1.58,0,0,0-.62.61,1.78,1.78,0,0,0-.22.89,1.74,1.74,0,0,0,.22.88,1.61,1.61,0,0,0,.62.62,1.87,1.87,0,0,0,1.76,0Z"/><path class="cls-4" d="M71.54,105.48a1.25,1.25,0,0,1,.24.78,1.12,1.12,0,0,1-.49,1,2.47,2.47,0,0,1-1.43.35H67.42v-4.9h2.3a2.23,2.23,0,0,1,1.34.34,1.09,1.09,0,0,1,.47.93,1.29,1.29,0,0,1-.17.65,1.19,1.19,0,0,1-.46.43A1.34,1.34,0,0,1,71.54,105.48Zm-3.21-2.08v1.35h1.29a1.25,1.25,0,0,0,.73-.17.56.56,0,0,0,.26-.5.59.59,0,0,0-.26-.51,1.33,1.33,0,0,0-.73-.17Zm2.53,2.77c0-.47-.35-.71-1.06-.71H68.33v1.41H69.8C70.51,106.87,70.86,106.64,70.86,106.17Z"/><path class="cls-4" d="M72.75,102.69h.91v4.9h-.91Z"/><path class="cls-4" d="M78.66,106.82v.77H75v-4.9h3.57v.76H75.9v1.28h2.36v.74H75.9v1.35Z"/><path class="cls-4" d="M80.67,103.46H79v-.77H83.2v.77H81.58v4.13h-.91Z"/><path class="cls-4" d="M93,102.69l-1.62,4.9h-1L89.18,104,88,107.59H87l-1.63-4.9h1l1.21,3.72,1.27-3.72h.84l1.24,3.74,1.25-3.74Z"/><path class="cls-4" d="M96.69,107.33a2.33,2.33,0,0,1-.94-.9,2.44,2.44,0,0,1-.34-1.29,2.41,2.41,0,0,1,1.29-2.2,2.79,2.79,0,0,1,1.34-.32,2.75,2.75,0,0,1,1.09.21,2.08,2.08,0,0,1,.84.61l-.58.55a1.73,1.73,0,0,0-1.31-.57,1.83,1.83,0,0,0-.91.22,1.58,1.58,0,0,0-.62.61,1.91,1.91,0,0,0,0,1.78,1.65,1.65,0,0,0,.62.61,1.83,1.83,0,0,0,.91.22,1.7,1.7,0,0,0,1.31-.58l.58.56a2.25,2.25,0,0,1-.84.61,2.8,2.8,0,0,1-1.1.21A2.72,2.72,0,0,1,96.69,107.33Z"/><path class="cls-4" d="M100.85,102.69h.91v4.9h-.91Z"/><path class="cls-4" d="M106.26,106.45h-2.45l-.48,1.14h-.94l2.2-4.9h.9l2.21,4.9h-1Zm-.3-.71L105,103.6l-.92,2.14Zm.57,3.24a.68.68,0,0,1-.24-.54.93.93,0,0,1,.25-.62,1.94,1.94,0,0,1,.78-.49l.38.26a2.4,2.4,0,0,0-.63.38.54.54,0,0,0-.19.39.3.3,0,0,0,.11.26.45.45,0,0,0,.3.09.89.89,0,0,0,.43-.11l.14.42a1.29,1.29,0,0,1-.66.16A1,1,0,0,1,106.53,109Z"/><path class="cls-4" d="M112.13,106.82v.77H108V107l2.89-3.52H108v-.77h4v.61l-2.88,3.52Zm-2.44-4.76a.48.48,0,0,1-.14-.35.48.48,0,0,1,.5-.5.48.48,0,0,1,.35.14.45.45,0,0,1,.14.36.45.45,0,0,1-.14.35.45.45,0,0,1-.35.15A.46.46,0,0,1,109.69,102.06Z"/><path class="cls-4" d="M115.08,105.86v1.73h-.91v-1.72l-1.92-3.18h1l1.43,2.38,1.45-2.38h.9Z"/><path class="cls-7" d="M238.69,127.42a18.64,18.64,0,0,1-1,4.85c-2.47,5.53-9.22,8.08-16.81,7.46-7.75-.63-13.9-4.42-15.29-10.44a19.6,19.6,0,0,1-.25-4.6c.62-7.56,8.58-13.07,17.78-12.31S239.31,119.87,238.69,127.42Z"/><ellipse class="cls-8" cx="222.18" cy="124.25" rx="11.91" ry="16.72" transform="translate(80.17 335.52) rotate(-85.31)"/><g class="cls-9"><rect class="cls-10" x="153.66" y="26.53" width="16.45" height="26.22" transform="translate(-4.45 50.17) rotate(-17.38)"/></g><g class="cls-11"><rect class="cls-12" x="142.09" y="35.59" width="17.6" height="18.44" transform="translate(-6.5 47.12) rotate(-17.38)"/></g><g class="cls-13"><rect class="cls-14" x="130.32" y="25.65" width="22.45" height="28.16" transform="translate(-5.41 44.09) rotate(-17.38)"/></g><g class="cls-15"><rect class="cls-16" x="167.26" y="26.97" width="4.09" height="4.1" transform="translate(-0.94 51.9) rotate(-17.38)"/></g><g class="cls-17"><rect class="cls-18" x="126.05" y="39.98" width="8.7" height="6.8" transform="matrix(0.95, -0.3, 0.3, 0.95, -7, 40.93)"/></g><g class="cls-19"><rect class="cls-20" x="45.72" y="28.72" width="34.32" height="32.34" transform="translate(-10.59 21) rotate(-17.51)"/></g><g class="cls-21"><rect class="cls-22" x="19.59" y="30.84" width="18.5" height="22.71" transform="translate(-11.36 10.63) rotate(-17.51)"/></g><g class="cls-23"><rect class="cls-24" x="29.02" y="36.22" width="17.45" height="17.8" transform="translate(-11.83 13.46) rotate(-17.53)"/></g><g class="cls-25"><rect class="cls-26" x="41.85" y="36.4" width="14.48" height="16.89" transform="translate(-11.22 16.85) rotate(-17.51)"/></g><g class="cls-27"><rect class="cls-28" x="110.48" y="36.12" width="17.24" height="17.61" transform="translate(-8 37.92) rotate(-17.51)"/></g><g class="cls-29"><rect class="cls-30" x="87.78" y="36.39" width="14.48" height="16.88" transform="translate(-9.09 30.67) rotate(-17.51)"/></g><g class="cls-31"><rect class="cls-32" x="96.94" y="35.71" width="17.62" height="18.45" transform="translate(-8.62 33.9) rotate(-17.51)"/></g><path class="cls-4" d="M75.66,27.6h9.71l-.64,4.22h-4.1l-.73,3.6h4.22l-.26,1.24a6.66,6.66,0,0,1,6.45-4.1,5.17,5.17,0,0,1,5.34,5c-.05.64-.26,2.91-.26,2.91H88.28A8,8,0,0,0,88,42.38c0,1,.1,1.77,1.09,1.67s1.42-2,1.42-2H95s-1,5.74-6.26,5.52c-7.06-.29-5.68-7.91-5.68-7.91H79.4L76.64,52.12H71ZM88.84,38.32h2.32s.47-2.52-1-2.27c-1.18.19-1.33,2.27-1.33,2.27"/><path class="cls-33" d="M75.66,27.6v-.2H85.6L84.9,32H80.79l-.66,3.2h4.22l-.3,1.48-.2,0-.19-.07a7.29,7.29,0,0,1,1.39-2.11A6.58,6.58,0,0,1,90,32.36h.33a5.47,5.47,0,0,1,4.58,2.32,5.53,5.53,0,0,1,1,2.83v.1h0c0,.65-.25,2.92-.25,2.92v.17H88.28v-.19l.19.05a.53.53,0,0,1,0,.15,7.87,7.87,0,0,0-.21,1.67,3.25,3.25,0,0,0,.14,1.12.56.56,0,0,0,.21.27.64.64,0,0,0,.38.1h.15a.83.83,0,0,0,.52-.29,2.73,2.73,0,0,0,.56-1c.06-.16.11-.3.14-.41s0-.09,0-.12v0l0-.15h4.84l0,.23A8.82,8.82,0,0,1,94,45a5.75,5.75,0,0,1-5,2.86H88.7a5.7,5.7,0,0,1-5-2.56,7.82,7.82,0,0,1-1-4.07,9.38,9.38,0,0,1,.11-1.5l.19,0v.2H79.54L76.78,52.37h-6l4.75-24.93h.17v.2l.19,0L71.2,52h5.27l2.76-12.44h4l0,.24a.17.17,0,0,0,0,.1,7.44,7.44,0,0,0-.09,1.33,7.34,7.34,0,0,0,1,3.86,5.28,5.28,0,0,0,4.63,2.37H89a5.34,5.34,0,0,0,4.68-2.67,9.26,9.26,0,0,0,.87-1.86c.07-.2.13-.41.18-.61a.53.53,0,0,1,0-.17v-.06l.2,0v.2H90.55v-.2l.19,0a5.14,5.14,0,0,1-.35,1,3.54,3.54,0,0,1-.48.73,1.27,1.27,0,0,1-.77.41H89a1,1,0,0,1-.6-.17,1.13,1.13,0,0,1-.45-.73,4.57,4.57,0,0,1-.07-1,7.86,7.86,0,0,1,.25-1.93l0-.15h7.26v.2h-.2s0-.57.11-1.22.11-1.37.14-1.69h0v-.07a5.07,5.07,0,0,0-.88-2.64,5,5,0,0,0-4.26-2.11H90a6.16,6.16,0,0,0-4.63,2,7.19,7.19,0,0,0-1,1.38,4.9,4.9,0,0,0-.23.45l-.06.13v0l-.38-.11.21-1H79.66l.81-4h4.1l.58-3.81h-9.5v-.2l.2,0ZM88.84,38.32v-.2h2.32v.22l-.19,0v0a4.62,4.62,0,0,0,.06-.74,2.25,2.25,0,0,0-.15-.89.66.66,0,0,0-.2-.27.54.54,0,0,0-.32-.09h-.17a1,1,0,0,0-.58.37,2.55,2.55,0,0,0-.47,1.08,3.4,3.4,0,0,0-.09.46v.17h-.4a4.77,4.77,0,0,1,.23-1.11,3,3,0,0,1,.44-.82,1.29,1.29,0,0,1,.83-.53.81.81,0,0,1,.22,0,.93.93,0,0,1,.56.17,1.29,1.29,0,0,1,.42.68,3.57,3.57,0,0,1,.09.8,5.6,5.6,0,0,1-.1.81l0,.17h-2.7v-.22Z"/><text class="cls-34" transform="translate(14.5 231.45)">11. Ch<tspan class="cls-35" x="10.37" y="0">P</tspan><tspan x="13.2" y="0">L </tspan><tspan class="cls-36" x="16.6" y="0">T</tspan><tspan x="18.78" y="0">a</tspan><tspan class="cls-37" x="21.14" y="0">r</tspan><tspan x="22.7" y="0">dy</tspan><tspan class="cls-38" x="27.58" y="0">f</tspan><tspan x="28.9" y="0">e</tspan><tspan class="cls-37" x="31.31" y="0">r</tspan><tspan x="32.86" y="0">on-</tspan><tspan class="cls-39" x="39.61" y="0">F</tspan><tspan class="cls-40" x="42.07" y="0">ol – 13</tspan><tspan class="cls-41" x="53.45" y="0">.</tspan><tspan class="cls-42" x="54.25" y="0">0</tspan><tspan class="cls-43" x="56.89" y="0">2.</tspan><tspan class="cls-44" x="60.09" y="0">2</tspan><tspan class="cls-42" x="62.35" y="0">0</tspan><tspan x="64.99" y="0">19</tspan></text></g><g id="Warstwa_8" data-name="Warstwa 8"><text class="cls-45" transform="translate(179.54 151.37)">1 <tspan class="cls-46" x="4.63" y="0">T</tspan><tspan x="8.62" y="0">ABLET</tspan><tspan class="cls-47" x="32.43" y="0">K</tspan><tspan x="37.35" y="0">A </tspan><tspan class="cls-48" x="44.56" y="0">C</tspan><tspan x="49.58" y="0">O</tspan><tspan class="cls-49" x="55.51" y="0">D</tspan><tspan x="61.27" y="0">ZIENNIE</tspan><tspan class="cls-50" x="3" y="8.45">L</tspan><tspan x="7.14" y="8.45">UB </tspan><tspan class="cls-51" x="20" y="8.45">C</tspan><tspan class="cls-52" x="25.02" y="8.45">O DRUGI </tspan><tspan class="cls-49" x="59.03" y="8.45">D</tspan><tspan class="cls-53" x="64.79" y="8.45">ZIEŃ</tspan></text><text class="cls-54" transform="translate(261.67 157.47) scale(0.58)">(11)</text></g></svg>