<svg xmlns="http://www.w3.org/2000/svg" xmlns:xlink="http://www.w3.org/1999/xlink" viewBox="0 0 670 500"><defs><style>.cls-1{fill:#ca982b;}.cls-2{fill:#523a29;}.cls-3{fill:#f59d19;}.cls-4{fill:#dbd9dc;}.cls-5{fill:#ffd500;}.cls-6{fill:#ffe864;}.cls-7{fill:#797979;}.cls-8{fill:#5f5e63;}.cls-9{fill:url(#Gradient_bez_nazwy_16);}.cls-10{fill:url(#Gradient_bez_nazwy_16-2);}.cls-11{fill:url(#Gradient_bez_nazwy_16-4);}.cls-12{fill:url(#Gradient_bez_nazwy_16-5);}.cls-13{fill:url(#Gradient_bez_nazwy_16-6);}.cls-14{fill:url(#Gradient_bez_nazwy_16-7);}.cls-15{fill:url(#Gradient_bez_nazwy_16-8);}.cls-16{fill:url(#Gradient_bez_nazwy_16-9);}.cls-17{fill:url(#Gradient_bez_nazwy_16-10);}</style><linearGradient id="Gradient_bez_nazwy_16" x1="126.44" y1="548.58" x2="128.24" y2="548.58" gradientTransform="matrix(93.89, 0, 0, -93.89, -11409.79, 51700.2)" gradientUnits="userSpaceOnUse"><stop offset="0" stop-color="#706f6f"/><stop offset="0.15" stop-color="#a2a1a1"/><stop offset="0.36" stop-color="#e5e4e4"/><stop offset="0.46" stop-color="#fff"/><stop offset="0.59" stop-color="#e2e2e2"/><stop offset="0.88" stop-color="#989898"/><stop offset="1" stop-color="#797979"/></linearGradient><linearGradient id="Gradient_bez_nazwy_16-2" x1="126.44" y1="549.55" x2="128.24" y2="549.55" xlink:href="#Gradient_bez_nazwy_16"/><linearGradient id="Gradient_bez_nazwy_16-4" x1="126.44" y1="548.58" x2="128.24" y2="548.58" xlink:href="#Gradient_bez_nazwy_16"/><linearGradient id="Gradient_bez_nazwy_16-5" x1="126.44" y1="549.06" x2="128.24" y2="549.06" xlink:href="#Gradient_bez_nazwy_16"/><linearGradient id="Gradient_bez_nazwy_16-6" x1="126.44" y1="546.42" x2="128.24" y2="546.42" xlink:href="#Gradient_bez_nazwy_16"/><linearGradient id="Gradient_bez_nazwy_16-7" x1="126.44" y1="547.39" x2="128.24" y2="547.39" xlink:href="#Gradient_bez_nazwy_16"/><linearGradient id="Gradient_bez_nazwy_16-8" x1="126.44" y1="547.39" x2="128.24" y2="547.39" xlink:href="#Gradient_bez_nazwy_16"/><linearGradient id="Gradient_bez_nazwy_16-9" x1="126.44" y1="546.42" x2="128.24" y2="546.42" xlink:href="#Gradient_bez_nazwy_16"/><linearGradient id="Gradient_bez_nazwy_16-10" x1="126.44" y1="546.9" x2="128.24" y2="546.9" xlink:href="#Gradient_bez_nazwy_16"/></defs><title>graf_str_06</title><g id="Warstwa_1" data-name="Warstwa 1"><polygon class="cls-1" points="496.94 77.75 496.94 77.75 513.47 100.97 487.97 100.97 496.94 77.75"/><polyline class="cls-2" points="496.93 77.75 496.94 77.75 487.97 100.97 480.4 100.97 496.93 77.75"/><polygon class="cls-3" points="537.28 175.17 327.75 175.17 287.41 118.49 496.94 118.49 537.28 175.17"/><polygon class="cls-4" points="480.4 141.71 487.97 141.71 472.61 181.46 238.16 181.46 238.16 175.17 456.59 175.17 480.4 141.71"/><polygon class="cls-5" points="201.24 175.17 456.59 175.17 496.93 118.48 241.58 118.48 201.24 175.17"/><polygon class="cls-6" points="295.27 118.48 387.33 118.48 448.61 175.17 356.55 175.17 295.27 118.48"/><polygon class="cls-6" points="244.33 118.48 275.58 118.48 336.86 175.17 305.61 175.17 244.33 118.48"/><path class="cls-7" d="M291.29,151.63h9V155H286.11v-2.46l8.95-14.41h-9v-3.42h14.15v2.41Z"/><path class="cls-7" d="M308,142.43l2.38-.73V144l-2.38.74v6.88h7.77V155h-12.2v-8.9l-1.57.49V144.3l1.57-.49v-9.07H308Z"/><path class="cls-7" d="M328.8,150.88h-6.05L321.58,155h-4.69l6.86-20.29h4.05L334.7,155H330Zm-5.08-3.41h4.1l-2.05-7.24Z"/><path class="cls-7" d="M342.54,134.74l4.14,14.68,4.13-14.68h5.78V155h-4.44v-5.49l.41-8.46L348.17,155h-3l-4.39-13.95.41,8.46V155h-4.43V134.74Z"/><path class="cls-7" d="M370.62,150.88h-6L363.41,155h-4.69l6.86-20.29h4.05l6.9,20.29H371.8Zm-5.08-3.41h4.1l-2.05-7.24Z"/><path class="cls-7" d="M393.92,155h-4.43L383,141.72V155h-4.43V134.74H383l6.49,13.32V134.74h4.42Z"/><path class="cls-7" d="M402.1,155h-4.43V134.74h4.43Z"/><path class="cls-7" d="M416.29,150.88h-6L409.08,155h-4.69l6.86-20.29h4.05L422.2,155h-4.73Zm-5.08-3.41h4.1l-2.05-7.24Z"/><path class="cls-7" d="M426.49,137.6h-1.11v-7.1l-1.9.79v-1l2.84-1.14h.17Z"/><path class="cls-5" d="M454.28,147.75c0,46.27,40.55,83.77,90.57,83.77s90.57-37.5,90.57-83.77S594.87,64,544.85,64s-90.57,37.5-90.57,83.77"/><path d="M531,138.09h-6.73V113.73l-6.56,2.34V110.9l12.58-4.76H531Z"/><path d="M553,127H541.39v-5.17H553Z"/><path d="M578.68,138.09H558.36v-4.38l9.33-11a23.32,23.32,0,0,0,2.62-4,7.47,7.47,0,0,0,.84-3.3,6.12,6.12,0,0,0-.79-3.33,2.59,2.59,0,0,0-2.29-1.2,3,3,0,0,0-2.6,1.4,7,7,0,0,0-1,4h-6.73a11.17,11.17,0,0,1,1.31-5.37,9.41,9.41,0,0,1,3.7-3.78,10.73,10.73,0,0,1,5.39-1.35q4.62,0,7.16,2.35a8.69,8.69,0,0,1,2.55,6.7,12,12,0,0,1-1.41,5.47,33.88,33.88,0,0,1-5.1,6.82L567,132.94h11.72Z"/><path class="cls-8" d="M514.22,146.67v3.09H516v2.46h-1.82v6.24a1.67,1.67,0,0,0,.22,1,1,1,0,0,0,.85.28,3.32,3.32,0,0,0,.84-.08l0,2.56a6.15,6.15,0,0,1-2,.31q-3.43,0-3.47-3.65v-6.68H509.1v-2.46h1.57v-3.09Z"/><path class="cls-8" d="M524.43,162.32a4.46,4.46,0,0,1-.3-1,3.09,3.09,0,0,1-2.58,1.21,4,4,0,0,1-2.83-1.05,3.49,3.49,0,0,1-1.12-2.7,3.65,3.65,0,0,1,1.36-3.05,6.24,6.24,0,0,1,3.92-1.1H524v-1a1.78,1.78,0,0,0-.32-1.2,1.15,1.15,0,0,0-.91-.35c-.89,0-1.33.48-1.33,1.44h-3.55a3.52,3.52,0,0,1,1.41-2.87,5.49,5.49,0,0,1,3.57-1.13,5.07,5.07,0,0,1,3.46,1.07,3.89,3.89,0,0,1,1.22,3.07v5.91a5.8,5.8,0,0,0,.5,2.54v.2ZM522.34,160a2.05,2.05,0,0,0,1-.22,1.62,1.62,0,0,0,.62-.52v-2.61h-.86a1.92,1.92,0,0,0-1.42.53,2,2,0,0,0-.52,1.43C521.16,159.51,521.55,160,522.34,160Z"/><path class="cls-8" d="M540.67,156.44a8.1,8.1,0,0,1-1,4.58,3.74,3.74,0,0,1-3.31,1.53,3.34,3.34,0,0,1-2.84-1.47l-.11,1.24h-3.28V144.49h3.55v6.29a3.21,3.21,0,0,1,2.65-1.25,3.74,3.74,0,0,1,3.31,1.51,7.77,7.77,0,0,1,1.08,4.44Zm-3.55-.82a5.81,5.81,0,0,0-.41-2.66,1.55,1.55,0,0,0-1.45-.68,1.73,1.73,0,0,0-1.63.94v5.72a1.72,1.72,0,0,0,1.66.88,1.54,1.54,0,0,0,1.41-.61,5.13,5.13,0,0,0,.42-2.39Z"/><path class="cls-8" d="M546.53,162.32H543V144.49h3.56Z"/><path class="cls-8" d="M554.77,162.55a5.29,5.29,0,0,1-5.8-5.83v-1a6.8,6.8,0,0,1,1.4-4.58,5,5,0,0,1,4-1.61,4.77,4.77,0,0,1,3.85,1.51,6.8,6.8,0,0,1,1.32,4.48v1.61h-7.06a3.25,3.25,0,0,0,.66,2,2.33,2.33,0,0,0,1.82.65,4.18,4.18,0,0,0,3-1.12l1.39,2a4.53,4.53,0,0,1-1.9,1.35A6.79,6.79,0,0,1,554.77,162.55Zm-2.24-7.71h3.55v-.3a3.27,3.27,0,0,0-.4-1.71,1.44,1.44,0,0,0-1.3-.58,1.52,1.52,0,0,0-1.35.62A4,4,0,0,0,552.53,154.84Z"/><path class="cls-8" d="M565.71,146.67v3.09h1.82v2.46h-1.82v6.24a1.67,1.67,0,0,0,.22,1,1,1,0,0,0,.84.28,3.35,3.35,0,0,0,.85-.08l0,2.56a6.15,6.15,0,0,1-2,.31q-3.43,0-3.47-3.65v-6.68h-1.57v-2.46h1.57v-3.09Z"/><path class="cls-8" d="M574,157.48l-1,1v3.86h-3.55V144.49H573v9.63l.44-.6,2.46-3.76h4.23l-3.94,5.18,4.32,7.38h-4.07Z"/><path class="cls-8" d="M581.77,146.51a1.62,1.62,0,0,1,.53-1.25,2.26,2.26,0,0,1,2.81,0,1.62,1.62,0,0,1,.52,1.25,1.65,1.65,0,0,1-.52,1.25,1.9,1.9,0,0,1-1.41.5,1.93,1.93,0,0,1-1.41-.5A1.65,1.65,0,0,1,581.77,146.51Zm3.73,15.81h-3.57V149.76h3.57Z"/><path class="cls-8" d="M504.88,179.88a7.73,7.73,0,0,1,1.13-4.61,3.86,3.86,0,0,1,3.29-1.52,3.26,3.26,0,0,1,2.61,1.25v-6.29h3.58v17.83h-3.23l-.16-1.28a3.33,3.33,0,0,1-2.81,1.51,3.81,3.81,0,0,1-3.26-1.51,7.46,7.46,0,0,1-1.15-4.43Zm3.57.82a5.69,5.69,0,0,0,.42,2.6,1.54,1.54,0,0,0,1.45.73,1.76,1.76,0,0,0,1.59-.87v-5.73a1.71,1.71,0,0,0-1.58-.93,1.55,1.55,0,0,0-1.43.73,5.36,5.36,0,0,0-.45,2.6Z"/><path class="cls-8" d="M522,183.81h5.37v2.73h-9.59v-2l5.24-7.77h-5.12V174h9.39v2Z"/><path class="cls-8" d="M529.73,170.73a1.62,1.62,0,0,1,.53-1.25,2.26,2.26,0,0,1,2.81,0,1.62,1.62,0,0,1,.52,1.25,1.67,1.67,0,0,1-.52,1.26,1.94,1.94,0,0,1-1.41.49,2,2,0,0,1-1.41-.49A1.67,1.67,0,0,1,529.73,170.73Zm3.73,15.81h-3.57V174h3.57Z"/><path class="cls-8" d="M541.69,186.77a5.29,5.29,0,0,1-5.8-5.82v-1a6.78,6.78,0,0,1,1.41-4.59,5.06,5.06,0,0,1,4-1.61,4.79,4.79,0,0,1,3.86,1.51,6.86,6.86,0,0,1,1.32,4.48v1.61h-7.07a3.26,3.26,0,0,0,.66,2.05,2.36,2.36,0,0,0,1.82.65,4.19,4.19,0,0,0,3-1.13l1.39,2a4.6,4.6,0,0,1-1.89,1.36A7.05,7.05,0,0,1,541.69,186.77Zm-2.23-7.7H543v-.31a3.22,3.22,0,0,0-.41-1.7,1.42,1.42,0,0,0-1.3-.58,1.51,1.51,0,0,0-1.35.61A3.9,3.9,0,0,0,539.46,179.07Z"/><path class="cls-8" d="M551.75,174l.1,1.24a3.9,3.9,0,0,1,3.15-1.47q3.51,0,3.6,4.54v8.25H555v-8a2.72,2.72,0,0,0-.34-1.55,1.42,1.42,0,0,0-1.22-.48,1.67,1.67,0,0,0-1.5.92v9.12h-3.56V174Z"/><path class="cls-8" d="M564.4,174l.1,1.24a3.9,3.9,0,0,1,3.15-1.47q3.51,0,3.6,4.54v8.25h-3.56v-8a2.63,2.63,0,0,0-.35-1.55,1.39,1.39,0,0,0-1.21-.48,1.67,1.67,0,0,0-1.5.92v9.12h-3.57V174Z"/><path class="cls-8" d="M573.8,170.73a1.62,1.62,0,0,1,.53-1.25,2.26,2.26,0,0,1,2.81,0,1.62,1.62,0,0,1,.53,1.25,1.7,1.7,0,0,1-.52,1.26,2.29,2.29,0,0,1-2.83,0A1.67,1.67,0,0,1,573.8,170.73Zm3.73,15.81H574V174h3.57Z"/><path class="cls-8" d="M585.76,186.77A5.29,5.29,0,0,1,580,181v-1a6.78,6.78,0,0,1,1.41-4.59,5.08,5.08,0,0,1,4-1.61,4.78,4.78,0,0,1,3.85,1.51,6.86,6.86,0,0,1,1.32,4.48v1.61H583.5a3.2,3.2,0,0,0,.67,2.05,2.35,2.35,0,0,0,1.82.65,4.16,4.16,0,0,0,3-1.13l1.39,2a4.53,4.53,0,0,1-1.89,1.36A7.05,7.05,0,0,1,585.76,186.77Zm-2.23-7.7h3.55v-.31a3.32,3.32,0,0,0-.4-1.7,1.44,1.44,0,0,0-1.31-.58,1.51,1.51,0,0,0-1.35.61A4,4,0,0,0,583.53,179.07Z"/><path class="cls-9" d="M626,162.1h0a2.69,2.69,0,0,1,3.17-1.95,2.51,2.51,0,0,1,2.12,2.93h0a2.71,2.71,0,0,1-3.18,2A2.52,2.52,0,0,1,626,162.1Zm-4.66,14h0a2.78,2.78,0,0,1,3.53-1.34,2.44,2.44,0,0,1,1.44,3.27h0a2.78,2.78,0,0,1-3.53,1.33A2.42,2.42,0,0,1,621.32,176.13ZM613.74,189h0a2.83,2.83,0,0,1,3.75-.66,2.37,2.37,0,0,1,.71,3.46h0a2.82,2.82,0,0,1-3.74.66,2.38,2.38,0,0,1-.72-3.46ZM603.58,200.3h0a2.85,2.85,0,0,1,3.81,0,2.37,2.37,0,0,1,0,3.53h0a2.85,2.85,0,0,1-3.81,0,2.37,2.37,0,0,1,0-3.53Zm-12.34,9.24h0a2.84,2.84,0,0,1,3.73.71,2.38,2.38,0,0,1-.77,3.46h0a2.84,2.84,0,0,1-3.73-.71,2.38,2.38,0,0,1,.77-3.46Zm-14,6.86h0a2.77,2.77,0,0,1,3.51,1.37,2.42,2.42,0,0,1-1.47,3.25h0a2.78,2.78,0,0,1-3.52-1.37,2.44,2.44,0,0,1,1.48-3.25ZM562,220.61h0a2.69,2.69,0,0,1,3.16,2A2.5,2.5,0,0,1,563,225.5h0a2.7,2.7,0,0,1-3.16-2,2.51,2.51,0,0,1,2.13-2.92Z"/><path class="cls-10" d="M562,74.35h0a2.51,2.51,0,0,1-2.13-2.92,2.68,2.68,0,0,1,3.16-2h0a2.5,2.5,0,0,1,2.13,2.92,2.69,2.69,0,0,1-3.16,2Zm15.21,4.21h0a2.44,2.44,0,0,1-1.47-3.26,2.77,2.77,0,0,1,3.51-1.36h0a2.44,2.44,0,0,1,1.48,3.25,2.78,2.78,0,0,1-3.52,1.37Zm14,6.85h0a2.38,2.38,0,0,1-.77-3.45,2.84,2.84,0,0,1,3.74-.71h0A2.38,2.38,0,0,1,595,84.7a2.82,2.82,0,0,1-3.73.71Zm12.34,9.24h0a2.36,2.36,0,0,1,0-3.52,2.86,2.86,0,0,1,3.81,0h0a2.36,2.36,0,0,1,0,3.53,2.85,2.85,0,0,1-3.81,0Zm10.16,11.29h0a2.39,2.39,0,0,1,.72-3.47,2.84,2.84,0,0,1,3.74.66h0a2.38,2.38,0,0,1-.71,3.47,2.85,2.85,0,0,1-3.75-.66Zm7.58,12.9h0a2.43,2.43,0,0,1,1.44-3.27,2.78,2.78,0,0,1,3.53,1.33h0a2.44,2.44,0,0,1-1.44,3.27A2.78,2.78,0,0,1,621.32,118.84Zm4.66,14h0a2.52,2.52,0,0,1,2.12-2.94,2.69,2.69,0,0,1,3.17,1.95h0a2.51,2.51,0,0,1-2.11,2.94,2.71,2.71,0,0,1-3.18-1.95Z"/><path class="cls-10" d="M466.33,132.85h0a2.71,2.71,0,0,1-3.18,2,2.51,2.51,0,0,1-2.11-2.94h0a2.69,2.69,0,0,1,3.17-2,2.51,2.51,0,0,1,2.12,2.93Zm4.66-14h0a2.78,2.78,0,0,1-3.53,1.33,2.44,2.44,0,0,1-1.44-3.27h0a2.78,2.78,0,0,1,3.53-1.33A2.44,2.44,0,0,1,471,118.83Zm7.57-12.9h0a2.83,2.83,0,0,1-3.74.67,2.39,2.39,0,0,1-.72-3.47h0a2.85,2.85,0,0,1,3.75-.66,2.38,2.38,0,0,1,.71,3.46Zm10.17-11.28h0a2.85,2.85,0,0,1-3.81,0,2.36,2.36,0,0,1,0-3.53h0a2.87,2.87,0,0,1,3.82,0,2.36,2.36,0,0,1,0,3.52Zm12.34-9.24h0a2.82,2.82,0,0,1-3.73-.71,2.38,2.38,0,0,1,.76-3.45h0a2.84,2.84,0,0,1,3.74.71,2.39,2.39,0,0,1-.77,3.45Zm14.05-6.86h0a2.78,2.78,0,0,1-3.52-1.36,2.43,2.43,0,0,1,1.48-3.25h0a2.77,2.77,0,0,1,3.51,1.36,2.44,2.44,0,0,1-1.47,3.25Zm15.22-4.2h0a2.7,2.7,0,0,1-3.17-2,2.52,2.52,0,0,1,2.13-2.93h0a2.71,2.71,0,0,1,3.17,2,2.52,2.52,0,0,1-2.13,2.93Z"/><path class="cls-11" d="M530.32,220.6h0a2.52,2.52,0,0,1,2.13,2.93,2.71,2.71,0,0,1-3.17,2h0a2.52,2.52,0,0,1-2.13-2.93,2.7,2.7,0,0,1,3.17-2Zm-15.22-4.2h0a2.44,2.44,0,0,1,1.48,3.25,2.79,2.79,0,0,1-3.52,1.36h0a2.42,2.42,0,0,1-1.47-3.25,2.77,2.77,0,0,1,3.51-1.36Zm-14-6.86h0a2.39,2.39,0,0,1,.76,3.46,2.82,2.82,0,0,1-3.73.7h0a2.37,2.37,0,0,1-.77-3.45,2.84,2.84,0,0,1,3.74-.71Zm-12.34-9.24h0a2.35,2.35,0,0,1,0,3.52,2.84,2.84,0,0,1-3.81,0h0a2.36,2.36,0,0,1,0-3.53,2.85,2.85,0,0,1,3.81,0ZM478.56,189h0a2.37,2.37,0,0,1-.71,3.46,2.85,2.85,0,0,1-3.75-.66h0a2.38,2.38,0,0,1,.72-3.46,2.82,2.82,0,0,1,3.74.66ZM471,176.12h0a2.42,2.42,0,0,1-1.43,3.26,2.77,2.77,0,0,1-3.53-1.33h0a2.42,2.42,0,0,1,1.43-3.26,2.77,2.77,0,0,1,3.53,1.33Zm-4.66-14h0a2.5,2.5,0,0,1-2.11,2.93,2.69,2.69,0,0,1-3.17-2h0a2.51,2.51,0,0,1,2.11-2.94,2.7,2.7,0,0,1,3.17,2Z"/><path class="cls-12" d="M546.15,222a2.86,2.86,0,0,1,1.91.73,2.37,2.37,0,0,1,0,3.53,2.85,2.85,0,0,1-3.81,0,2.37,2.37,0,0,1,0-3.53A2.83,2.83,0,0,1,546.15,222Zm-84.09-77a2.86,2.86,0,0,1,1.91.73,2.37,2.37,0,0,1,0,3.53,2.85,2.85,0,0,1-3.81,0,2.37,2.37,0,0,1,0-3.53A2.83,2.83,0,0,1,462.06,145Zm84.09-77a2.86,2.86,0,0,1,1.91.73,2.37,2.37,0,0,1,0,3.53,2.85,2.85,0,0,1-3.81,0,2.37,2.37,0,0,1,0-3.53A2.83,2.83,0,0,1,546.15,68Zm84.09,77a2.86,2.86,0,0,1,1.91.73,2.37,2.37,0,0,1,0,3.53,2.85,2.85,0,0,1-3.81,0,2.37,2.37,0,0,1,0-3.53A2.83,2.83,0,0,1,630.24,145Z"/></g><g id="Warstwa_2" data-name="Warstwa 2"><polygon class="cls-1" points="496.94 280.45 496.94 280.45 513.47 303.68 487.97 303.68 496.94 280.45"/><polyline class="cls-2" points="496.93 280.45 496.94 280.45 487.97 303.68 480.4 303.68 496.93 280.45"/><polygon class="cls-3" points="537.28 372.89 327.75 372.89 287.41 316.21 496.94 316.21 537.28 372.89"/><polygon class="cls-4" points="480.4 339.44 487.97 339.44 472.61 379.18 238.16 379.18 238.16 372.89 456.59 372.89 480.4 339.44"/><polygon class="cls-5" points="201.24 372.89 456.59 372.89 496.93 316.21 241.58 316.21 201.24 372.89"/><polygon class="cls-6" points="295.27 316.21 387.33 316.21 448.61 372.89 356.55 372.89 295.27 316.21"/><polygon class="cls-6" points="244.33 316.21 275.58 316.21 336.86 372.89 305.61 372.89 244.33 316.21"/><path class="cls-7" d="M270,344.43a9,9,0,0,1-2.09,6.35,7.51,7.51,0,0,1-5.8,2.25,7.59,7.59,0,0,1-5.8-2.23,8.91,8.91,0,0,1-2.14-6.27v-3.47a9.46,9.46,0,0,1,2.1-6.53,8.37,8.37,0,0,1,11.59,0A9.39,9.39,0,0,1,270,341Zm-4.45-3.4a7.82,7.82,0,0,0-.84-4.08,3.26,3.26,0,0,0-5.23-.05,7.46,7.46,0,0,0-.88,3.93v3.6a7.11,7.11,0,0,0,.86,3.93,3,3,0,0,0,2.65,1.26,2.91,2.91,0,0,0,2.58-1.23,7,7,0,0,0,.86-3.83Z"/><path class="cls-7" d="M282.42,347.43a2.43,2.43,0,0,0-.68-1.87,8,8,0,0,0-2.5-1.32,11.66,11.66,0,0,1-4.74-2.71,5.19,5.19,0,0,1-1.45-3.67,5,5,0,0,1,2-4.12,7.77,7.77,0,0,1,5-1.56,8,8,0,0,1,3.6.79,5.7,5.7,0,0,1,2.43,2.22,6.28,6.28,0,0,1,.86,3.27h-4.42a3.23,3.23,0,0,0-.65-2.17,2.38,2.38,0,0,0-1.89-.75,2.44,2.44,0,0,0-1.81.64,2.24,2.24,0,0,0-.65,1.7,2,2,0,0,0,.72,1.52,8.67,8.67,0,0,0,2.56,1.4,11.12,11.12,0,0,1,4.67,2.63,5.6,5.6,0,0,1,1.45,4,5.06,5.06,0,0,1-1.82,4.14,7.58,7.58,0,0,1-5,1.49,9.21,9.21,0,0,1-3.87-.8,6.16,6.16,0,0,1-3.72-5.87H277a3.68,3.68,0,0,0,.74,2.55,3.16,3.16,0,0,0,2.41.79A2,2,0,0,0,282.42,347.43Z"/><path class="cls-7" d="M304,335.88H298.6v16.87h-4.44V335.88h-5.34v-3.42H304Z"/><path class="cls-7" d="M317.9,344H311v5.38h8.17v3.4h-12.6V332.46h12.57v3.42H311v4.79h6.9Z"/><path class="cls-7" d="M337.16,344.43a9,9,0,0,1-2.09,6.35,7.5,7.5,0,0,1-5.79,2.25,7.59,7.59,0,0,1-5.8-2.23,8.86,8.86,0,0,1-2.14-6.27v-3.47a9.46,9.46,0,0,1,2.1-6.53,8.36,8.36,0,0,1,11.58,0,9.34,9.34,0,0,1,2.14,6.47Zm-4.44-3.4a7.71,7.71,0,0,0-.85-4.08,3.25,3.25,0,0,0-5.22-.05,7.37,7.37,0,0,0-.88,3.93v3.6a7.11,7.11,0,0,0,.86,3.93,3,3,0,0,0,2.65,1.26,2.91,2.91,0,0,0,2.58-1.23,7,7,0,0,0,.86-3.83Z"/><path class="cls-7" d="M344.77,345.62v7.13h-4.43V332.46h7.47a7.18,7.18,0,0,1,5.19,1.87,6.45,6.45,0,0,1,1.94,4.85,6,6,0,0,1-1.91,4.71,7.66,7.66,0,0,1-5.31,1.73Zm0-3.41h3a2.5,2.5,0,0,0,2-.77,3.24,3.24,0,0,0,.7-2.23,3.83,3.83,0,0,0-.71-2.42,2.33,2.33,0,0,0-1.9-.91h-3.09Z"/><path class="cls-7" d="M373.34,344.43a9,9,0,0,1-2.09,6.35,7.5,7.5,0,0,1-5.79,2.25,7.58,7.58,0,0,1-5.8-2.23,8.86,8.86,0,0,1-2.14-6.27v-3.47a9.45,9.45,0,0,1,2.09-6.53,8.37,8.37,0,0,1,11.59,0,9.39,9.39,0,0,1,2.14,6.47Zm-4.45-3.4a7.82,7.82,0,0,0-.84-4.08,3.26,3.26,0,0,0-5.23-.05,7.47,7.47,0,0,0-.87,3.93v3.6a7,7,0,0,0,.86,3.93,3,3,0,0,0,2.65,1.26,2.9,2.9,0,0,0,2.57-1.23,6.91,6.91,0,0,0,.86-3.83Z"/><path class="cls-7" d="M383.16,345.34H381v7.41h-4.43V332.46h7.07a7.6,7.6,0,0,1,5.15,1.6,5.71,5.71,0,0,1,1.81,4.54c0,2.69-1.06,4.58-3.18,5.65l3.84,8.31v.19h-4.76Zm-2.2-3.41h2.52a2.43,2.43,0,0,0,2-.82,3.36,3.36,0,0,0,.66-2.18c0-2-.86-3.05-2.58-3.05H381Z"/><path class="cls-7" d="M409.05,344.43a9,9,0,0,1-2.09,6.35,7.5,7.5,0,0,1-5.79,2.25,7.58,7.58,0,0,1-5.8-2.23,8.86,8.86,0,0,1-2.14-6.27v-3.47a9.5,9.5,0,0,1,2.09-6.53,8.37,8.37,0,0,1,11.59,0,9.34,9.34,0,0,1,2.14,6.47ZM404.6,341a7.82,7.82,0,0,0-.84-4.08,3.26,3.26,0,0,0-5.23-.05,7.47,7.47,0,0,0-.87,3.93v3.6a7,7,0,0,0,.86,3.93,3,3,0,0,0,2.65,1.26,2.93,2.93,0,0,0,2.58-1.23,7,7,0,0,0,.85-3.83Z"/><path class="cls-7" d="M416.82,349.35h9v3.4H411.64v-2.46l8.95-14.41h-9v-3.42H425.7v2.41Z"/><path class="cls-7" d="M439.06,348.6h-6l-1.17,4.15h-4.69L434,332.46h4.05l6.9,20.29h-4.73ZM434,345.19h4.09L436,338Z"/><path class="cls-7" d="M449.26,335.32h-1.1v-7.1l-1.91.79v-1l2.84-1.14h.17Z"/><path class="cls-5" d="M454.28,350.46c0,46.26,40.55,83.77,90.57,83.77s90.57-37.51,90.57-83.77-40.55-83.78-90.57-83.78-90.57,37.51-90.57,83.78"/><path d="M536.51,340.8H516.19v-4.38l9.33-11a23.32,23.32,0,0,0,2.62-4,7.54,7.54,0,0,0,.84-3.3,6.12,6.12,0,0,0-.79-3.33,2.58,2.58,0,0,0-2.29-1.2,3,3,0,0,0-2.59,1.4,6.91,6.91,0,0,0-1,3.94h-6.73a11.23,11.23,0,0,1,1.31-5.37,9.41,9.41,0,0,1,3.7-3.78,10.83,10.83,0,0,1,5.39-1.34q4.62,0,7.17,2.35a8.69,8.69,0,0,1,2.54,6.7,12,12,0,0,1-1.41,5.46,33.61,33.61,0,0,1-5.1,6.83l-4.43,5.85h11.72Z"/><path d="M553,329.71H541.39v-5.17H553Z"/><path d="M576,328.75H579v5.15H576v6.9h-6.7v-6.9H557.91l-.31-4,11.7-21H576Zm-11.92,0h5.22V318.08l-.15.24Z"/><path class="cls-8" d="M514.22,349.38v3.09H516v2.46h-1.82v6.24a1.67,1.67,0,0,0,.22,1,1,1,0,0,0,.85.28,3.32,3.32,0,0,0,.84-.08l0,2.55a5.88,5.88,0,0,1-2,.32q-3.43,0-3.47-3.65v-6.68H509.1v-2.46h1.57v-3.09Z"/><path class="cls-8" d="M524.43,365a4.46,4.46,0,0,1-.3-1,3.09,3.09,0,0,1-2.58,1.21,4,4,0,0,1-2.83-1.05,3.49,3.49,0,0,1-1.12-2.7,3.65,3.65,0,0,1,1.36-3.05,6.31,6.31,0,0,1,3.92-1.11H524v-1a1.77,1.77,0,0,0-.32-1.19,1.15,1.15,0,0,0-.91-.35c-.89,0-1.33.48-1.33,1.44h-3.55a3.52,3.52,0,0,1,1.41-2.87,5.5,5.5,0,0,1,3.57-1.14,5.07,5.07,0,0,1,3.46,1.08,3.88,3.88,0,0,1,1.22,3.07v5.91a5.8,5.8,0,0,0,.5,2.54v.2Zm-2.09-2.35a2.05,2.05,0,0,0,1-.22,1.72,1.72,0,0,0,.62-.52v-2.61h-.86a1.88,1.88,0,0,0-1.42.53,2,2,0,0,0-.52,1.43C521.16,362.22,521.55,362.68,522.34,362.68Z"/><path class="cls-8" d="M540.67,359.15a8.12,8.12,0,0,1-1,4.58,3.74,3.74,0,0,1-3.31,1.53,3.33,3.33,0,0,1-2.84-1.48l-.11,1.25h-3.28V347.2h3.55v6.29a3.22,3.22,0,0,1,2.65-1.26,3.74,3.74,0,0,1,3.31,1.52,7.77,7.77,0,0,1,1.08,4.44Zm-3.55-.82a5.86,5.86,0,0,0-.41-2.67,1.56,1.56,0,0,0-1.45-.67,1.73,1.73,0,0,0-1.63.94v5.72a1.72,1.72,0,0,0,1.66.88,1.54,1.54,0,0,0,1.41-.61,5.18,5.18,0,0,0,.42-2.4Z"/><path class="cls-8" d="M546.53,365H543V347.2h3.56Z"/><path class="cls-8" d="M554.77,365.26a5.29,5.29,0,0,1-5.8-5.83v-1a6.78,6.78,0,0,1,1.4-4.58,5.05,5.05,0,0,1,4-1.62,4.77,4.77,0,0,1,3.85,1.52,6.8,6.8,0,0,1,1.32,4.48v1.61h-7.06a3.25,3.25,0,0,0,.66,2,2.36,2.36,0,0,0,1.82.65,4.19,4.19,0,0,0,3-1.13l1.39,2a4.53,4.53,0,0,1-1.9,1.35A7,7,0,0,1,554.77,365.26Zm-2.24-7.71h3.55v-.3a3.27,3.27,0,0,0-.4-1.71,1.44,1.44,0,0,0-1.3-.58,1.52,1.52,0,0,0-1.35.62A4,4,0,0,0,552.53,357.55Z"/><path class="cls-8" d="M565.71,349.38v3.09h1.82v2.46h-1.82v6.24a1.67,1.67,0,0,0,.22,1,1,1,0,0,0,.84.28,3.35,3.35,0,0,0,.85-.08l0,2.55a5.88,5.88,0,0,1-2,.32q-3.43,0-3.47-3.65v-6.68h-1.57v-2.46h1.57v-3.09Z"/><path class="cls-8" d="M574,360.19l-1,1V365h-3.55V347.2H573v9.63l.44-.6,2.46-3.76h4.23l-3.94,5.17,4.32,7.39h-4.07Z"/><path class="cls-8" d="M581.77,349.22a1.66,1.66,0,0,1,.53-1.26,2.3,2.3,0,0,1,2.81,0,1.77,1.77,0,0,1,0,2.51,1.94,1.94,0,0,1-1.41.5,2,2,0,0,1-1.41-.5A1.65,1.65,0,0,1,581.77,349.22ZM585.5,365h-3.57V352.47h3.57Z"/><path class="cls-8" d="M504.88,382.59A7.73,7.73,0,0,1,506,378a3.84,3.84,0,0,1,3.29-1.52,3.26,3.26,0,0,1,2.61,1.25v-6.29h3.58v17.83h-3.23L512.1,388a3.33,3.33,0,0,1-2.81,1.51A3.81,3.81,0,0,1,506,388a7.46,7.46,0,0,1-1.15-4.43Zm3.57.82a5.64,5.64,0,0,0,.42,2.59,1.53,1.53,0,0,0,1.45.74,1.76,1.76,0,0,0,1.59-.87v-5.73a1.71,1.71,0,0,0-1.58-.93,1.55,1.55,0,0,0-1.43.73,5.33,5.33,0,0,0-.45,2.6Z"/><path class="cls-8" d="M522,386.52h5.37v2.73h-9.59v-2.06l5.24-7.76h-5.12v-2.74h9.39v2Z"/><path class="cls-8" d="M529.73,373.44a1.62,1.62,0,0,1,.53-1.25,2.26,2.26,0,0,1,2.81,0,1.62,1.62,0,0,1,.52,1.25,1.65,1.65,0,0,1-.52,1.25,1.9,1.9,0,0,1-1.41.5,1.93,1.93,0,0,1-1.41-.5A1.65,1.65,0,0,1,529.73,373.44Zm3.73,15.81h-3.57V376.69h3.57Z"/><path class="cls-8" d="M541.69,389.48a5.29,5.29,0,0,1-5.8-5.83v-1a6.78,6.78,0,0,1,1.41-4.59,5.06,5.06,0,0,1,4-1.61,4.79,4.79,0,0,1,3.86,1.51,6.86,6.86,0,0,1,1.32,4.48v1.61h-7.07a3.28,3.28,0,0,0,.66,2.05,2.36,2.36,0,0,0,1.82.64,4.18,4.18,0,0,0,3-1.12l1.39,2a4.49,4.49,0,0,1-1.89,1.35A6.88,6.88,0,0,1,541.69,389.48Zm-2.23-7.71H543v-.3a3.19,3.19,0,0,0-.41-1.7,1.42,1.42,0,0,0-1.3-.58,1.51,1.51,0,0,0-1.35.61A3.89,3.89,0,0,0,539.46,381.77Z"/><path class="cls-8" d="M551.75,376.69l.1,1.24a3.9,3.9,0,0,1,3.15-1.47q3.51,0,3.6,4.54v8.25H555v-8a2.72,2.72,0,0,0-.34-1.55,1.42,1.42,0,0,0-1.22-.48,1.65,1.65,0,0,0-1.5.92v9.12h-3.56V376.69Z"/><path class="cls-8" d="M564.4,376.69l.1,1.24a3.9,3.9,0,0,1,3.15-1.47q3.51,0,3.6,4.54v8.25h-3.56v-8a2.63,2.63,0,0,0-.35-1.55,1.39,1.39,0,0,0-1.21-.48,1.65,1.65,0,0,0-1.5.92v9.12h-3.57V376.69Z"/><path class="cls-8" d="M573.8,373.44a1.62,1.62,0,0,1,.53-1.25,2.26,2.26,0,0,1,2.81,0,1.62,1.62,0,0,1,.53,1.25,1.68,1.68,0,0,1-.52,1.25,2.25,2.25,0,0,1-2.83,0A1.65,1.65,0,0,1,573.8,373.44Zm3.73,15.81H574V376.69h3.57Z"/><path class="cls-8" d="M585.76,389.48a5.29,5.29,0,0,1-5.8-5.83v-1a6.78,6.78,0,0,1,1.41-4.59,5.08,5.08,0,0,1,4-1.61,4.78,4.78,0,0,1,3.85,1.51,6.86,6.86,0,0,1,1.32,4.48v1.61H583.5a3.22,3.22,0,0,0,.67,2.05,2.34,2.34,0,0,0,1.82.64,4.16,4.16,0,0,0,3-1.12l1.39,2a4.43,4.43,0,0,1-1.89,1.35A6.88,6.88,0,0,1,585.76,389.48Zm-2.23-7.71h3.55v-.3a3.3,3.3,0,0,0-.4-1.7,1.44,1.44,0,0,0-1.31-.58,1.51,1.51,0,0,0-1.35.61A4,4,0,0,0,583.53,381.77Z"/><path class="cls-13" d="M626,364.81h0a2.68,2.68,0,0,1,3.17-1.95,2.51,2.51,0,0,1,2.12,2.93h0a2.7,2.7,0,0,1-3.18,1.95,2.5,2.5,0,0,1-2.11-2.93Zm-4.66,14h0a2.78,2.78,0,0,1,3.53-1.33,2.44,2.44,0,0,1,1.44,3.27h0a2.78,2.78,0,0,1-3.53,1.33A2.43,2.43,0,0,1,621.32,378.83Zm-7.58,12.9h0a2.83,2.83,0,0,1,3.75-.66,2.37,2.37,0,0,1,.71,3.46h0a2.83,2.83,0,0,1-3.74.66,2.38,2.38,0,0,1-.72-3.46ZM603.58,403h0a2.85,2.85,0,0,1,3.81,0,2.37,2.37,0,0,1,0,3.53h0a2.85,2.85,0,0,1-3.81,0,2.36,2.36,0,0,1,0-3.52Zm-12.34,9.24h0A2.82,2.82,0,0,1,595,413a2.37,2.37,0,0,1-.77,3.45h0a2.82,2.82,0,0,1-3.73-.7,2.38,2.38,0,0,1,.77-3.46Zm-14,6.86h0a2.77,2.77,0,0,1,3.51,1.37,2.42,2.42,0,0,1-1.47,3.25h0a2.78,2.78,0,0,1-3.52-1.37,2.44,2.44,0,0,1,1.48-3.25ZM562,423.32h0a2.68,2.68,0,0,1,3.16,2,2.51,2.51,0,0,1-2.13,2.93h0a2.7,2.7,0,0,1-3.16-2,2.51,2.51,0,0,1,2.13-2.92Z"/><path class="cls-14" d="M562,277.06h0a2.52,2.52,0,0,1-2.13-2.93,2.7,2.7,0,0,1,3.16-2h0a2.52,2.52,0,0,1,2.13,2.93,2.69,2.69,0,0,1-3.16,2Zm15.21,4.2h0a2.43,2.43,0,0,1-1.47-3.25,2.77,2.77,0,0,1,3.51-1.36h0a2.44,2.44,0,0,1,1.48,3.25,2.79,2.79,0,0,1-3.52,1.36Zm14,6.86h0a2.38,2.38,0,0,1-.77-3.45,2.84,2.84,0,0,1,3.74-.71h0a2.38,2.38,0,0,1,.76,3.45,2.82,2.82,0,0,1-3.73.71Zm12.34,9.24h0a2.36,2.36,0,0,1,0-3.52,2.86,2.86,0,0,1,3.81,0h0a2.36,2.36,0,0,1,0,3.53,2.85,2.85,0,0,1-3.81,0Zm10.16,11.28h0a2.38,2.38,0,0,1,.72-3.46,2.83,2.83,0,0,1,3.74.66h0a2.38,2.38,0,0,1-.71,3.47,2.85,2.85,0,0,1-3.75-.67Zm7.58,12.9h0a2.42,2.42,0,0,1,1.44-3.26,2.78,2.78,0,0,1,3.53,1.33h0a2.44,2.44,0,0,1-1.44,3.27A2.79,2.79,0,0,1,621.32,321.54Zm4.66,14h0a2.51,2.51,0,0,1,2.12-2.93,2.69,2.69,0,0,1,3.17,1.95h0a2.51,2.51,0,0,1-2.11,2.94,2.71,2.71,0,0,1-3.18-2Z"/><path class="cls-15" d="M466.33,335.56h0a2.7,2.7,0,0,1-3.18,1.95,2.5,2.5,0,0,1-2.11-2.93h0a2.69,2.69,0,0,1,3.17-1.95,2.51,2.51,0,0,1,2.12,2.93Zm4.66-14h0a2.78,2.78,0,0,1-3.53,1.33A2.44,2.44,0,0,1,466,319.6h0a2.78,2.78,0,0,1,3.53-1.33A2.44,2.44,0,0,1,471,321.54Zm7.57-12.9h0a2.82,2.82,0,0,1-3.74.66,2.38,2.38,0,0,1-.72-3.46h0a2.85,2.85,0,0,1,3.75-.66,2.37,2.37,0,0,1,.71,3.46Zm10.17-11.28h0a2.85,2.85,0,0,1-3.81,0,2.36,2.36,0,0,1,0-3.53h0a2.87,2.87,0,0,1,3.82,0,2.36,2.36,0,0,1,0,3.52Zm12.34-9.24h0a2.82,2.82,0,0,1-3.73-.71,2.38,2.38,0,0,1,.76-3.45h0a2.84,2.84,0,0,1,3.74.7,2.4,2.4,0,0,1-.77,3.46Zm14.05-6.86h0a2.78,2.78,0,0,1-3.52-1.36,2.44,2.44,0,0,1,1.48-3.26h0a2.77,2.77,0,0,1,3.51,1.37,2.44,2.44,0,0,1-1.47,3.25Zm15.22-4.2h0a2.7,2.7,0,0,1-3.17-2,2.51,2.51,0,0,1,2.13-2.93h0a2.71,2.71,0,0,1,3.17,2,2.52,2.52,0,0,1-2.13,2.93Z"/><path class="cls-16" d="M530.32,423.31h0a2.52,2.52,0,0,1,2.13,2.93,2.71,2.71,0,0,1-3.17,2h0a2.52,2.52,0,0,1-2.13-2.93,2.7,2.7,0,0,1,3.17-2Zm-15.22-4.2h0a2.43,2.43,0,0,1,1.48,3.25,2.79,2.79,0,0,1-3.52,1.36h0a2.42,2.42,0,0,1-1.47-3.25,2.77,2.77,0,0,1,3.51-1.36Zm-14-6.86h0a2.39,2.39,0,0,1,.76,3.46,2.83,2.83,0,0,1-3.73.7h0a2.37,2.37,0,0,1-.77-3.45,2.84,2.84,0,0,1,3.74-.71ZM488.73,403h0a2.35,2.35,0,0,1,0,3.52,2.85,2.85,0,0,1-3.81,0h0a2.36,2.36,0,0,1,0-3.53,2.85,2.85,0,0,1,3.81,0Zm-10.17-11.28h0a2.37,2.37,0,0,1-.71,3.46,2.85,2.85,0,0,1-3.75-.66h0a2.39,2.39,0,0,1,.72-3.47,2.83,2.83,0,0,1,3.74.67ZM471,378.83h0a2.42,2.42,0,0,1-1.43,3.26,2.77,2.77,0,0,1-3.53-1.33h0a2.42,2.42,0,0,1,1.43-3.26,2.77,2.77,0,0,1,3.53,1.33Zm-4.66-14h0a2.5,2.5,0,0,1-2.11,2.93,2.69,2.69,0,0,1-3.17-2h0a2.5,2.5,0,0,1,2.11-2.94,2.7,2.7,0,0,1,3.17,2Z"/><path class="cls-17" d="M546.15,424.72a2.86,2.86,0,0,1,1.91.73,2.37,2.37,0,0,1,0,3.53,2.85,2.85,0,0,1-3.81,0,2.37,2.37,0,0,1,0-3.53A2.83,2.83,0,0,1,546.15,424.72Zm-84.09-77a2.86,2.86,0,0,1,1.91.73,2.37,2.37,0,0,1,0,3.53,2.85,2.85,0,0,1-3.81,0,2.37,2.37,0,0,1,0-3.53A2.83,2.83,0,0,1,462.06,347.69Zm84.09-77a2.86,2.86,0,0,1,1.91.73,2.37,2.37,0,0,1,0,3.53,2.85,2.85,0,0,1-3.81,0,2.37,2.37,0,0,1,0-3.53A2.83,2.83,0,0,1,546.15,270.66Zm84.09,77a2.86,2.86,0,0,1,1.91.73,2.37,2.37,0,0,1,0,3.53,2.85,2.85,0,0,1-3.81,0,2.37,2.37,0,0,1,0-3.53A2.83,2.83,0,0,1,630.24,347.69Z"/></g></svg>