<svg id="Warstwa_1" data-name="Warstwa 1" xmlns="http://www.w3.org/2000/svg" xmlns:xlink="http://www.w3.org/1999/xlink" viewBox="0 0 300 300"><defs><style>.cls-1{fill:none;}.cls-2{clip-path:url(#clip-path);}.cls-3{fill:url(#Gradient_bez_nazwy_8);}.cls-4{clip-path:url(#clip-path-2);}.cls-5{fill:url(#Gradient_bez_nazwy_8-2);}.cls-6{clip-path:url(#clip-path-3);}.cls-7{fill:url(#Gradient_bez_nazwy_8-3);}.cls-8{clip-path:url(#clip-path-4);}.cls-9{fill:url(#Gradient_bez_nazwy_8-4);}.cls-10{clip-path:url(#clip-path-5);}.cls-11{fill:url(#Gradient_bez_nazwy_8-5);}.cls-12{clip-path:url(#clip-path-6);}.cls-13{fill:url(#Gradient_bez_nazwy_8-6);}.cls-14{clip-path:url(#clip-path-7);}.cls-15{fill:url(#Gradient_bez_nazwy_8-7);}.cls-16{fill:#fff;}.cls-17{fill:#a90067;}.cls-18{clip-path:url(#clip-path-8);}.cls-19{fill:url(#Gradient_bez_nazwy_8-8);}</style><clipPath id="clip-path"><path class="cls-1" d="M94,178.84c-3.34-.53-2.41-16.26,2.79-15.72,3.51.78,2.17,15.75-2.44,15.75Zm12.22-55.61-4.9,31.48s-.67-2.53-7.32-3.19S79.62,156.71,77.48,171s5,19.42,10.11,19.69a15.33,15.33,0,0,0,9.23-3v1.86H110l6.67-38.93h.94l4.4,25.61-7.34,13.32h12.93l23.61-45.87H138l-6.26,14-1.86-13.87H117.5l3.41-20.55Z"/></clipPath><linearGradient id="Gradient_bez_nazwy_8" x1="-278.84" y1="453.81" x2="-277.84" y2="453.81" gradientTransform="matrix(263.44, 0, 0, -69.07, 73465.38, 31499.91)" gradientUnits="userSpaceOnUse"><stop offset="0" stop-color="#d7007f"/><stop offset="0.46" stop-color="#c10074"/><stop offset="1" stop-color="#a90067"/></linearGradient><clipPath id="clip-path-2"><polygon class="cls-1" points="6.09 123.23 3.44 136.09 13.62 136.09 6.97 176.32 22.19 176.32 28.4 135.95 37.48 136.03 39.11 123.23 6.09 123.23"/></clipPath><linearGradient id="Gradient_bez_nazwy_8-2" x1="-278.83" y1="452.97" x2="-277.83" y2="452.97" gradientTransform="matrix(267.58, 0, 0, -54.63, 74612.93, 24895.96)" xlink:href="#Gradient_bez_nazwy_8"/><clipPath id="clip-path-3"><path class="cls-1" d="M44.15,165.24c-4.39-.27-2.41-16.13,1.87-15.59,1.86-.14,2.79,3.83,2.56,7.79s-1.57,7.8-4.26,7.8Zm-.4-26.71c-.3,0-.62,0-.94.05-5.73.54-14.79,5.6-15.32,20.66s4.12,17.86,10.39,18,8.53-3.73,8.53-3.73v2.81H58.67l5.66-36.94H52.84l-1.35,2.53A9.85,9.85,0,0,0,44,138.53Z"/></clipPath><linearGradient id="Gradient_bez_nazwy_8-3" x1="-278.84" y1="451.64" x2="-277.84" y2="451.64" gradientTransform="matrix(264.88, 0, 0, -41.02, 73866.07, 18684.23)" xlink:href="#Gradient_bez_nazwy_8"/><clipPath id="clip-path-4"><path class="cls-1" d="M89.24,137.56h0a9.38,9.38,0,0,0-4.5,1.15A18.83,18.83,0,0,0,80,142.3l-.27-2.92H67.22l-5.6,36.94H74.56s.26-17.08,4.26-21.75a13.86,13.86,0,0,1,10-4.53l1.61-12.4a7.1,7.1,0,0,0-1.15-.08Z"/></clipPath><linearGradient id="Gradient_bez_nazwy_8-4" x1="-278.84" y1="451.59" x2="-277.84" y2="451.59" gradientTransform="matrix(263.29, 0, 0, -40.66, 73425.2, 18517.38)" xlink:href="#Gradient_bez_nazwy_8"/><clipPath id="clip-path-5"><path class="cls-1" d="M274.5,138h-.05c-4.62,0-8.87,3.62-8.87,3.62l-.18-2.27H252.48l-5.68,36.94h12.65l3.6-20.81s.81-4.53,3.47-4.13,1.6,4,1.6,4l-3,20.94h13.18s5.27-27.35,4.76-30.94a8.49,8.49,0,0,0-8.14-7.34Z"/></clipPath><linearGradient id="Gradient_bez_nazwy_8-5" x1="-278.8" y1="451.52" x2="-277.8" y2="451.52" gradientTransform="matrix(276.97, 0, 0, -40.19, 77226.62, 18303.97)" xlink:href="#Gradient_bez_nazwy_8"/><clipPath id="clip-path-6"><path class="cls-1" d="M213.34,137.56h-.05a9.44,9.44,0,0,0-4.51,1.15,18.88,18.88,0,0,0-4.66,3.59l-.27-2.92H191.32l-5.6,36.94h12.94s.27-17.08,4.25-21.75a13.91,13.91,0,0,1,10-4.53l1.6-12.4a7,7,0,0,0-1.14-.08Z"/></clipPath><linearGradient id="Gradient_bez_nazwy_8-6" x1="-278.84" y1="451.59" x2="-277.84" y2="451.59" gradientTransform="matrix(263.28, 0, 0, -40.66, 73422.5, 18518.68)" xlink:href="#Gradient_bez_nazwy_8"/><clipPath id="clip-path-7"><path class="cls-1" d="M227,165.09c-5.85-.63-2.67-17.73,2.66-16.55,5.83.87,3.54,16.57-2.3,16.57l-.36,0m-16.07-6.44c-.37,4.15.65,18.84,17.33,18.71s18.66-18.94,19.06-24.4-2.8-15.75-15.6-16h-.46c-12.51,0-19.37,10.72-20.33,21.71"/></clipPath><linearGradient id="Gradient_bez_nazwy_8-7" x1="-278.84" y1="451.84" x2="-277.84" y2="451.84" gradientTransform="matrix(265.92, 0, 0, -42.68, 74154.12, 19441.09)" xlink:href="#Gradient_bez_nazwy_8"/><clipPath id="clip-path-8"><path class="cls-1" d="M291.12,138.15H292c.48,0,1,.1,1,.69s-.48.75-1,.75h-.81Zm-.94-.71v5h.94V140.3h.56l1.29,2.16h1l-1.35-2.2a1.25,1.25,0,0,0,1.31-1.34c0-1.06-.64-1.48-1.84-1.48ZM288.55,140a3.35,3.35,0,1,1,3.34,3.56,3.38,3.38,0,0,1-3.34-3.56m-1.08,0a4.42,4.42,0,1,0,4.42-4.42,4.43,4.43,0,0,0-4.42,4.42"/></clipPath><linearGradient id="Gradient_bez_nazwy_8-8" x1="-303.14" y1="435.9" x2="-302.14" y2="435.9" gradientTransform="matrix(8.84, 0, 0, -10.43, 2966.94, 4685.03)" xlink:href="#Gradient_bez_nazwy_8"/></defs><title>logo_Tardyferon</title><g class="cls-2"><rect class="cls-3" x="75.34" y="123.23" width="75.89" height="67.69"/></g><g class="cls-4"><rect class="cls-5" x="3.44" y="123.23" width="35.67" height="53.09"/></g><g class="cls-6"><rect class="cls-7" x="26.95" y="138.53" width="37.38" height="38.85"/></g><g class="cls-8"><rect class="cls-9" x="61.62" y="137.56" width="28.8" height="38.76"/></g><g class="cls-10"><rect class="cls-11" x="246.8" y="138.03" width="36.78" height="38.29"/></g><g class="cls-12"><rect class="cls-13" x="185.72" y="137.56" width="28.8" height="38.76"/></g><g class="cls-14"><rect class="cls-15" x="210.55" y="136.94" width="37.14" height="40.55"/></g><path class="cls-16" d="M147.79,110.36h26.26l-1.72,11.35H161.24l-2,9.73,11.38,0-.7,3.34s4.38-11.63,17.45-11.1,14.54,11.87,14.41,13.61-.68,7.87-.68,7.87h-19.2a21.33,21.33,0,0,0-.67,5.06c0,2.66.29,4.8,2.95,4.54s3.86-5.34,3.86-5.34h12s-2.91,15.52-16.94,14.93c-19.06-.8-15.34-21.33-15.34-21.33h-9.86l-7.46,33.6H135.13Zm35.6,29h6.27s1.26-6.79-2.67-6.13c-3.2.54-3.6,6.13-3.6,6.13"/><path class="cls-17" d="M147.79,110.36v-.53h26.88l-1.88,12.42H161.68l-1.77,8.65,11.39,0-.83,4-.53-.11-.5-.19a19,19,0,0,1,3.75-5.73,17.7,17.7,0,0,1,13.33-5.73c.29,0,.59,0,.89,0,6.45.25,10.25,3.13,12.36,6.25a15,15,0,0,1,2.57,7.66v.27h0c-.13,1.75-.67,7.88-.67,7.88l0,.49h-19.7v-.54l.51.15-.09.39a21.05,21.05,0,0,0-.56,4.53,8.25,8.25,0,0,0,.38,3,1.58,1.58,0,0,0,.56.75,1.88,1.88,0,0,0,1,.26l.38,0a2.25,2.25,0,0,0,1.39-.78,8.09,8.09,0,0,0,1.5-2.59c.17-.44.3-.83.38-1.11l.09-.33,0-.11.1-.42H200.7l-.12.64a23.85,23.85,0,0,1-3.14,7.66,15.5,15.5,0,0,1-13.54,7.72h-.8c-7-.28-11.13-3.24-13.4-6.9a21.2,21.2,0,0,1-2.76-11,23.92,23.92,0,0,1,.31-4.07l.53.1v.54h-9.43l-7.46,33.6H134.48l12.87-67.35h.44v.53l.53.1L135.78,176.1H150l7.45-33.6h10.94l-.11.64s0,.09-.05.27A25.68,25.68,0,0,0,168,147a20,20,0,0,0,2.6,10.43c2.11,3.38,5.81,6.1,12.52,6.39l.76,0c6.46,0,10.31-3.58,12.63-7.22a23.17,23.17,0,0,0,2.37-5c.23-.69.39-1.26.49-1.65.05-.2.08-.36.11-.46l0-.16.53.1V150h-12v-.54l.53.13a14.73,14.73,0,0,1-1,2.68,7.77,7.77,0,0,1-1.29,1.95,3.31,3.31,0,0,1-2.06,1.11l-.49,0a2.8,2.8,0,0,1-1.64-.46,3,3,0,0,1-1.2-2,12.43,12.43,0,0,1-.21-2.66,21.36,21.36,0,0,1,.69-5.21l.11-.4h19.61v.54l-.53-.05s.13-1.53.29-3.28.31-3.72.38-4.59h0v-.19a14.13,14.13,0,0,0-2.39-7.06c-2-2.87-5.37-5.52-11.51-5.78l-.85,0A16.66,16.66,0,0,0,174,129.61a19.27,19.27,0,0,0-2.71,3.72,13,13,0,0,0-.62,1.21c-.07.15-.12.26-.15.34l-.05.11-1-.3L170,132l-11.38,0,2.2-10.8h11.06l1.56-10.28H147.79v-.54l.53.1Zm35.6,29v-.53h6.27v.53l-.53-.09,0-.17a13.71,13.71,0,0,0,.16-2,6.23,6.23,0,0,0-.4-2.4,1.73,1.73,0,0,0-.55-.72,1.39,1.39,0,0,0-.87-.26l-.43,0a2.58,2.58,0,0,0-1.58,1,7.48,7.48,0,0,0-1.28,2.93,10.89,10.89,0,0,0-.23,1.23,3.25,3.25,0,0,0,0,.36v.12l-.54,0v0l-.54,0a13.45,13.45,0,0,1,.63-3,7.15,7.15,0,0,1,1.18-2.25,3.65,3.65,0,0,1,2.24-1.38,4.28,4.28,0,0,1,.6-.05,2.49,2.49,0,0,1,1.51.47,3.25,3.25,0,0,1,1.13,1.83,8.06,8.06,0,0,1,.25,2.16,13.38,13.38,0,0,1-.2,2.35l-.08.44h-7.3l0-.57Z"/><g class="cls-18"><rect class="cls-19" x="287.47" y="135.55" width="8.84" height="8.84"/></g></svg>