<svg id="Warstwa_1" data-name="Warstwa 1" xmlns="http://www.w3.org/2000/svg" viewBox="0 0 400 400"><defs><style>.cls-1,.cls-2,.cls-3{fill:#003087;}.cls-2,.cls-3{font-size:34.02px;}.cls-2,.cls-5{font-family:Signika-Light, Signika;font-weight:300;}.cls-3{font-family:Signika-Bold, Signika;font-weight:700;}.cls-4{fill:none;stroke:#003087;stroke-miterlimit:10;stroke-width:0.5px;}.cls-5{font-size:17.58px;fill:#707070;}</style></defs><title>Obszar roboczy 1 kopia</title><path class="cls-1" d="M137.5,200.8c-8-1.87-16.31-1-20.43,2.17-.11.07-.21-.05,0-.21,2.16-2.62,10-6.23,17.24-3.78-15.8-7.32-33.82-7.5-44.81,5.38-.48.3-.72.26-.31-.54,10.35-16.84,35.2-14.75,48.56-4.1,1.26.94.74,1.34-.2,1.08"/><text class="cls-2" transform="translate(69.11 227.9)"><tspan xml:space="preserve">Z    BACZENIA</tspan></text><text class="cls-3" transform="translate(69.14 194.42)">D</text><circle class="cls-4" cx="103.38" cy="215.64" r="12.65"/><path class="cls-1" d="M108.93,210.61a2,2,0,1,1-2.9-2,7.5,7.5,0,1,0,4.85,7A7.44,7.44,0,0,0,108.93,210.61Zm-1,4.24a.77.77,0,1,1,.76-.76A.76.76,0,0,1,107.91,214.85Z"/><line class="cls-4" x1="54.33" y1="173.56" x2="54.33" y2="193.03"/><line class="cls-4" x1="60.03" y1="173.56" x2="60.03" y2="193.03"/><line class="cls-4" x1="47.44" y1="186.14" x2="66.92" y2="186.14"/><line class="cls-4" x1="47.44" y1="180.45" x2="66.92" y2="180.45"/><line class="cls-4" x1="47.44" y1="186.14" x2="66.92" y2="186.14"/><line class="cls-4" x1="47.44" y1="180.45" x2="66.92" y2="180.45"/><text class="cls-5" transform="translate(67.66 249.9)">Odkryj miejsca, które warto odwiedzić! </text></svg>