<svg id="Warstwa_1" data-name="Warstwa 1" xmlns="http://www.w3.org/2000/svg" viewBox="0 0 400 400"><defs><style>.cls-1{fill:#00a3e0;}.cls-2,.cls-3{font-size:30.4px;}.cls-2,.cls-3,.cls-5{fill:#003087;}.cls-2,.cls-5{font-family:Signika-Light, Signika;font-weight:300;}.cls-3{font-family:Signika-Bold, Signika;font-weight:700;}.cls-4{fill:none;stroke:#003087;stroke-miterlimit:10;stroke-width:0.75px;}.cls-5{font-size:15.7px;}</style></defs><title>Obszar roboczy 1 kopia 2</title><path class="cls-1" d="M181.72,176.57c-15.56-3.65-31.7-1.91-39.71,4.21-.21.13-.4-.09-.09-.42,4.21-5.08,19.54-12.1,33.51-7.34-30.71-14.23-65.74-14.58-87.09,10.45-.93.58-1.41.51-.61-1,20.12-32.74,68.41-28.68,94.38-8,2.45,1.83,1.43,2.6-.39,2.11"/><path class="cls-1" d="M24.43,236.58c15.56,3.64,31.7,1.9,39.7-4.22.22-.12.4.09.1.42-4.21,5.08-19.54,12.1-33.51,7.34,30.71,14.23,65.74,14.58,87.08-10.45.94-.58,1.41-.51.62,1C98.3,263.44,50,259.38,24,238.68c-2.45-1.83-1.44-2.6.39-2.1"/><text class="cls-2" transform="translate(41.56 217.79)">ZOBACZENIA</text><text class="cls-3" transform="translate(41.1 187.88)">DO</text><line class="cls-4" x1="27.87" y1="169.24" x2="27.87" y2="186.64"/><line class="cls-4" x1="32.96" y1="169.24" x2="32.96" y2="186.64"/><line class="cls-4" x1="21.71" y1="180.48" x2="39.11" y2="180.48"/><line class="cls-4" x1="21.71" y1="175.4" x2="39.11" y2="175.4"/><line class="cls-4" x1="21.71" y1="180.48" x2="39.11" y2="180.48"/><line class="cls-4" x1="21.71" y1="175.4" x2="39.11" y2="175.4"/><text class="cls-5" transform="translate(126.18 238.85)">Odkryj miejsca, które warto odwiedzić! </text></svg>