<svg id="Warstwa_1" data-name="Warstwa 1" xmlns="http://www.w3.org/2000/svg" viewBox="0 0 400 400"><defs><style>.cls-1,.cls-2{font-size:35.91px;}.cls-1,.cls-2,.cls-3{fill:#003087;}.cls-1,.cls-5{font-family:Signika-Light, Signika;font-weight:300;}.cls-2{font-family:Signika-Bold, Signika;font-weight:700;}.cls-4{fill:none;stroke:#003087;stroke-miterlimit:10;stroke-width:0.5px;}.cls-5{font-size:15.3px;fill:#00a3e0;}</style></defs><title>Obszar roboczy 1</title><text class="cls-1" transform="translate(159.22 208.06)">ZOBACZENIA</text><text class="cls-2" transform="translate(56.59 208.31)">DO</text><path class="cls-3" d="M111.53,199.45c6.49,1.51,13.21.79,16.55-1.76.09-.05.16,0,0,.18-1.76,2.11-8.14,5-14,3,12.8,5.93,27.4,6.08,36.29-4.35.39-.24.59-.22.26.43-8.38,13.64-28.51,11.95-39.33,3.32-1-.76-.6-1.08.16-.87"/><path class="cls-3" d="M151.45,192.88c-6.48-1.52-13.21-.8-16.54,1.75-.09.05-.17,0,0-.17,1.75-2.12,8.14-5,14-3.06-12.8-5.93-27.4-6.08-36.29,4.35-.39.25-.59.22-.26-.43,8.39-13.64,28.51-11.95,39.33-3.32,1,.76.6,1.08-.16.88"/><path class="cls-3" d="M136.15,192.47a1.66,1.66,0,1,1-2.35-1.6,6.08,6.08,0,1,0,3.93,5.68A6.05,6.05,0,0,0,136.15,192.47Zm-.82,3.44a.62.62,0,0,1,0-1.24.62.62,0,0,1,0,1.24Z"/><line class="cls-4" x1="40.96" y1="186.29" x2="40.96" y2="206.85"/><line class="cls-4" x1="46.97" y1="186.29" x2="46.97" y2="206.85"/><line class="cls-4" x1="33.69" y1="199.57" x2="54.24" y2="199.57"/><line class="cls-4" x1="33.69" y1="193.56" x2="54.24" y2="193.56"/><line class="cls-4" x1="33.69" y1="199.57" x2="54.24" y2="199.57"/><line class="cls-4" x1="33.69" y1="193.56" x2="54.24" y2="193.56"/><text class="cls-5" transform="translate(87.35 229.58)">Odkryj miejsca, które warto odwiedzić! </text></svg>