<svg xmlns="http://www.w3.org/2000/svg" viewBox="0 0 400 400"><defs><style>.cls-1,.cls-2,.cls-3,.cls-4{fill:#003087;}.cls-2,.cls-3{font-size:52.1px;}.cls-2,.cls-4{font-family:Signika-Light, Signika;font-weight:300;}.cls-3{font-family:Signika-SemiBold, Signika;font-weight:600;}.cls-4{font-size:15.7px;}</style></defs><title>Obszar roboczy 2</title><g id="Warstwa_2" data-name="Warstwa 2"><path class="cls-1" d="M257.81,111.57c-26.67-6.25-54.33-3.27-68.05,7.23-.37.21-.69-.16-.16-.73,7.21-8.7,33.48-20.73,57.44-12.58-52.65-24.38-112.68-25-149.27,17.92-1.6,1-2.41.87-1-1.78C131.2,65.52,214,72.48,258.48,108c4.21,3.12,2.46,4.45-.67,3.6"/><text class="cls-2" transform="translate(90.69 208.39)">zobaczenia</text><text class="cls-3" transform="translate(89.33 164.74)">#Do</text><path class="cls-1" d="M78.93,174.08c2.89-9.66,5.47-12.13,7.14-11.81,1.33.25-1,5.58-1.38,12.72a92.42,92.42,0,0,0,10.09,51.73,97.16,97.16,0,0,0,9.9,15.13,101.66,101.66,0,0,0,44.74,32,103.79,103.79,0,0,0,18.25,4.86c24.92,4.26,51.37-.63,72.39-13.9a87.66,87.66,0,0,0,26.3-25.42,81.2,81.2,0,0,0,10.83-23.83c.06-.19.11-.41.18-.64.44-1.59,1.12-3.86,1.59-3.77.76.14,1.62,2.22.86,4.91a94,94,0,0,1-10.91,24.79l-1.29,2c-.43.65-.83,1.33-1.3,2l-1.38,1.9c-.46.64-.9,1.29-1.41,1.89l-1.47,1.85c-.5.62-1,1.26-1.5,1.84L259,254c-.54.59-1,1.2-1.6,1.76A99.81,99.81,0,0,1,226,278.26c-.74.38-1.52.66-2.27,1l-2.3,1c-.75.34-1.55.59-2.33.89l-2.35.85c-.78.3-1.59.51-2.38.77l-2.41.73c-.79.25-1.61.44-2.43.65l-2.44.62a108.81,108.81,0,0,1-40.57,1.6,113.45,113.45,0,0,1-20-4.84,111.21,111.21,0,0,1-18.73-8.39,103.6,103.6,0,0,1-30.6-26.2,95.16,95.16,0,0,1-17.33-35c-.24-.77-.38-1.57-.55-2.35l-.5-2.36c-.19-.78-.28-1.58-.41-2.36L78,202.46c-.22-1.59-.34-3.18-.51-4.77s-.17-3.17-.24-4.76a86,86,0,0,1,1.66-18.85"/><text class="cls-4" transform="translate(77.88 354.3)">Odkryj miejsca, które warto odwiedzić! </text></g></svg>