<svg xmlns="http://www.w3.org/2000/svg" xmlns:xlink="http://www.w3.org/1999/xlink" viewBox="0 0 400 160"><defs><style>.cls-1{clip-path:url(#clip-path);}.cls-2,.cls-6{fill:none;}.cls-3{isolation:isolate;}.cls-4{fill:#fff;}.cls-5{fill:url(#Gradient_bez_nazwy);}.cls-10,.cls-6{stroke:#f9eaf2;stroke-linecap:round;stroke-linejoin:round;stroke-width:25px;}.cls-7{clip-path:url(#clip-path-3);}.cls-8{fill:#f9eaf2;}.cls-10,.cls-32,.cls-9{fill:#ab297d;}.cls-11{clip-path:url(#clip-path-4);}.cls-12{fill:url(#Gradient_bez_nazwy_54);}.cls-13{clip-path:url(#clip-path-5);}.cls-14{fill:url(#Gradient_bez_nazwy_54-2);}.cls-15{mask:url(#mask);}.cls-16{clip-path:url(#clip-path-6);}.cls-17{clip-path:url(#clip-path-7);}.cls-18{fill:url(#Gradient_bez_nazwy_55);}.cls-19{clip-path:url(#clip-path-8);}.cls-20{mask:url(#mask-2);}.cls-21{fill:url(#Gradient_bez_nazwy_56);}.cls-22{clip-path:url(#clip-path-9);}.cls-23{fill:url(#Gradient_bez_nazwy_54-3);}.cls-24{clip-path:url(#clip-path-10);}.cls-25{fill:url(#Gradient_bez_nazwy_54-4);}.cls-26{mask:url(#mask-3);}.cls-27{clip-path:url(#clip-path-12);}.cls-28{fill:url(#Gradient_bez_nazwy_55-2);}.cls-29{clip-path:url(#clip-path-13);}.cls-30{mask:url(#mask-4);}.cls-31{fill:url(#Gradient_bez_nazwy_56-2);}.cls-32{font-size:12px;font-family:MyriadPro-Regular, Myriad Pro;}</style><clipPath id="clip-path"><rect class="cls-2" x="20.74" y="48.83" width="31.12" height="31.12"/></clipPath><linearGradient id="Gradient_bez_nazwy" x1="-244.65" y1="407.51" x2="-242.67" y2="407.51" gradientTransform="matrix(0, 9.08, 9.08, 0, -3673.27, 2262.92)" gradientUnits="userSpaceOnUse"><stop offset="0" stop-color="#fff"/><stop offset="1"/></linearGradient><clipPath id="clip-path-3"><path class="cls-6" d="M434.9,62.4a11.83,11.83,0,1,0,11.83-11.83A11.83,11.83,0,0,0,434.9,62.4"/></clipPath><clipPath id="clip-path-4"><path class="cls-6" d="M15.11,58A12.05,12.05,0,1,0,27.16,45.94,12.06,12.06,0,0,0,15.11,58"/></clipPath><linearGradient id="Gradient_bez_nazwy_54" x1="-214.75" y1="391.31" x2="-211.28" y2="391.31" gradientTransform="matrix(7.96, -13.38, -13.38, -7.96, 6956.29, 324.74)" gradientUnits="userSpaceOnUse"><stop offset="0" stop-color="#d6007f"/><stop offset="0.46" stop-color="#c10074"/><stop offset="1" stop-color="#a80067"/></linearGradient><clipPath id="clip-path-5"><path class="cls-6" d="M16.63,58A10.53,10.53,0,1,0,27.16,47.46,10.53,10.53,0,0,0,16.63,58"/></clipPath><linearGradient id="Gradient_bez_nazwy_54-2" x1="-246.15" y1="379.92" x2="-242.46" y2="379.92" gradientTransform="matrix(-6.96, 11.69, 11.69, 6.96, -6112.93, 269.91)" xlink:href="#Gradient_bez_nazwy_54"/><mask id="mask" x="-18.57" y="9.51" width="109.74" height="109.76" maskUnits="userSpaceOnUse"><g class="cls-1"><rect x="18.86" y="46.94" width="34.88" height="34.88"/><g class="cls-3"><path class="cls-4" d="M38.07,56.9a9.41,9.41,0,1,1-9.41-9.41,9.4,9.4,0,0,1,9.41,9.41"/></g></g></mask><clipPath id="clip-path-6"><rect class="cls-2" x="20.74" y="48.83" width="31.12" height="31.12"/></clipPath><clipPath id="clip-path-7"><path class="cls-6" d="M46.31,52.47a15.56,15.56,0,1,1-21.93,1.91,15.56,15.56,0,0,1,21.93-1.91"/></clipPath><linearGradient id="Gradient_bez_nazwy_55" x1="-207.98" y1="416.9" x2="-204.93" y2="416.9" gradientTransform="matrix(5.88, -2.46, -2.46, -5.88, 2274.73, 2009.02)" gradientUnits="userSpaceOnUse"><stop offset="0" stop-color="#ca0079"/><stop offset="1" stop-color="#b7006f"/></linearGradient><clipPath id="clip-path-8"><path class="cls-6" d="M24.11,49.2c-4.25,1.58-6.85,5.11-5.82,7.88s5.32,3.72,9.56,2.13,6.86-5.11,5.83-7.88c-.7-1.86-2.86-2.9-5.5-2.9a11.78,11.78,0,0,0-4.07.77"/></clipPath><mask id="mask-2" x="-13.91" y="14.73" width="79.79" height="79.77" maskUnits="userSpaceOnUse"><rect class="cls-5" x="15.38" y="44.14" width="21.2" height="20.94" transform="translate(-30.23 32.3) rotate(-42.9)"/></mask><linearGradient id="Gradient_bez_nazwy_56" x1="-246.31" y1="407.51" x2="-241.97" y2="407.51" gradientTransform="matrix(6.18, 6.65, 6.65, -6.18, -1180.44, 4190.51)" gradientUnits="userSpaceOnUse"><stop offset="0" stop-color="#fff"/><stop offset="1" stop-color="#fff"/></linearGradient><clipPath id="clip-path-9"><path class="cls-2" d="M15.11,58A12.05,12.05,0,1,0,27.16,45.94,12.06,12.06,0,0,0,15.11,58"/></clipPath><linearGradient id="Gradient_bez_nazwy_54-3" x1="-213.94" y1="391.31" x2="-211.96" y2="391.31" gradientTransform="matrix(15.57, 0, 0, -15.57, 3340.72, 6149.32)" xlink:href="#Gradient_bez_nazwy_54"/><clipPath id="clip-path-10"><path class="cls-2" d="M16.63,58A10.53,10.53,0,1,0,27.16,47.46,10.53,10.53,0,0,0,16.63,58"/></clipPath><linearGradient id="Gradient_bez_nazwy_54-4" x1="-245.22" y1="379.92" x2="-243.25" y2="379.92" gradientTransform="matrix(-13.6, 0, 0, 13.6, -3294.35, -5110.49)" xlink:href="#Gradient_bez_nazwy_54"/><mask id="mask-3" x="6.43" y="34.51" width="59.74" height="59.74" maskUnits="userSpaceOnUse"><g class="cls-1"><rect x="18.86" y="46.94" width="34.88" height="34.88"/><g class="cls-3"><path class="cls-4" d="M38.07,56.9a9.41,9.41,0,1,1-9.41-9.41,9.4,9.4,0,0,1,9.41,9.41"/></g></g></mask><clipPath id="clip-path-12"><path class="cls-2" d="M46.31,52.47a15.56,15.56,0,1,1-21.93,1.91,15.56,15.56,0,0,1,21.93-1.91"/></clipPath><linearGradient id="Gradient_bez_nazwy_55-2" x1="-207.28" y1="416.9" x2="-205.3" y2="416.9" gradientTransform="matrix(6.38, 0, 0, -6.38, 1349.78, 2722.76)" xlink:href="#Gradient_bez_nazwy_55"/><clipPath id="clip-path-13"><path class="cls-2" d="M24.11,49.2c-4.25,1.58-6.85,5.11-5.82,7.88s5.32,3.72,9.56,2.13,6.86-5.11,5.83-7.88c-.7-1.86-2.86-2.9-5.5-2.9a11.78,11.78,0,0,0-4.07.77"/></clipPath><mask id="mask-4" x="11.09" y="39.73" width="29.79" height="29.77" maskUnits="userSpaceOnUse"><rect class="cls-5" x="15.38" y="44.14" width="21.2" height="20.94" transform="translate(-30.23 32.3) rotate(-42.9)"/></mask><linearGradient id="Gradient_bez_nazwy_56-2" x1="-244.65" y1="407.51" x2="-242.67" y2="407.51" gradientTransform="matrix(0, 9.08, 9.08, 0, -3673.27, 2262.92)" xlink:href="#Gradient_bez_nazwy_56"/></defs><title>po_3_mies</title><g id="Warstwa_1" data-name="Warstwa 1"><g class="cls-7"><path class="cls-8" d="M441.09,40.17,469,56.75,452.38,84.63,424.5,68l16.59-27.87m0-25A25,25,0,0,0,419.6,27.39L403,55.26a25,25,0,0,0,8.7,34.27l27.88,16.58a25,25,0,0,0,34.26-8.7l16.59-27.88a25,25,0,0,0-8.71-34.26L453.87,18.68a24.93,24.93,0,0,0-12.76-3.52Z"/></g><path class="cls-6" d="M434.9,62.4a11.83,11.83,0,1,0,11.83-11.83A11.83,11.83,0,0,0,434.9,62.4"/></g><g id="Warstwa_2" data-name="Warstwa 2"><path class="cls-9" d="M50.19,80.92a12.5,12.5,0,0,1-12.5-12.5V52.5A12.5,12.5,0,0,1,48.14,40.17a44.93,44.93,0,0,1,7.27-.53,20.2,20.2,0,0,1,12.64,3.88,17.4,17.4,0,0,1,6.7,13.8,17.68,17.68,0,0,1-5.56,13.16l-.1.08a18.07,18.07,0,0,1-3,2.18A12.5,12.5,0,0,1,54.4,80.92Z"/><path class="cls-8" d="M55.41,52.14a8,8,0,0,1,5,1.3,4.82,4.82,0,0,1,1.81,3.88,5.3,5.3,0,0,1-1.55,4A7.72,7.72,0,0,1,55.43,63c-.42,0-.77,0-1,0v5.49H50.19V52.5a32.14,32.14,0,0,1,5.22-.36m0,7.53c1.65,0,2.68-.86,2.68-2.25,0-1.2-.77-2-2.4-2a6,6,0,0,0-1.24.1v4.12a7.34,7.34,0,0,0,1,.05m0-32.53a56.41,56.41,0,0,0-9.32.7A25,25,0,0,0,25.19,52.5V68.42a25,25,0,0,0,25,25H54.4A25,25,0,0,0,75.92,81.15c.54-.42,1.06-.87,1.57-1.33l.18-.16a30.42,30.42,0,0,0,9.58-22.34,30,30,0,0,0-11.57-23.7c-5.57-4.3-12.39-6.48-20.27-6.48Z"/><path class="cls-9" d="M69,81.18A18.2,18.2,0,0,1,50.33,62.62,18.41,18.41,0,0,1,69.2,43.86,18.12,18.12,0,0,1,87.72,62.4,18.35,18.35,0,0,1,69,81.18Z"/><path class="cls-8" d="M69.2,56.36a5.74,5.74,0,0,1,6,6A5.9,5.9,0,0,1,69,68.68a5.77,5.77,0,0,1-6.14-6.06c0-3.76,2.42-6.26,6.37-6.26m-.11,9.28c1.15,0,1.76-1.22,1.76-3.12,0-1.63-.52-3.11-1.76-3.11-1.41,0-1.88,1.56-1.88,3.11,0,1.78.56,3.12,1.88,3.12m.11-34.28A30.86,30.86,0,0,0,37.83,62.62,30.77,30.77,0,0,0,69,93.68,30.93,30.93,0,0,0,100.22,62.4a30.71,30.71,0,0,0-31-31Z"/><path class="cls-9" d="M85.79,81.18a21.82,21.82,0,0,1-11.4-3,12.52,12.52,0,0,1-5.53-13.61l.8-3.23a13.78,13.78,0,0,1,.46-1.46l-.78-3a12.5,12.5,0,0,1,5.5-13.73,22.56,22.56,0,0,1,11.63-3.07c10.2,0,17.89,7.08,17.89,16.46a17,17,0,0,1-.22,2.69,15.9,15.9,0,0,1,.69,4.65C104.83,73.74,96.64,81.18,85.79,81.18Z"/><path class="cls-8" d="M86.47,52.57c3.39,0,5.39,1.73,5.39,4a3.71,3.71,0,0,1-2.8,3.6v0a3.76,3.76,0,0,1,3.27,3.7c0,2.87-2.59,4.81-6.54,4.81A9.57,9.57,0,0,1,81,67.58l.8-3.23a9,9,0,0,0,3.64.93c1.5,0,2.49-.55,2.49-1.65,0-1.27-1.29-1.87-2.7-1.87H83.65V58.69h1.51c1.06,0,2.4-.34,2.4-1.42,0-.79-.73-1.32-2-1.32a7.72,7.72,0,0,0-3.27.89l-.79-3.09a10.41,10.41,0,0,1,5-1.18m0-25a34.89,34.89,0,0,0-18.23,5A25,25,0,0,0,57.18,59.76l-.45,1.83A25,25,0,0,0,67.79,88.81a34.51,34.51,0,0,0,18,4.87,32.69,32.69,0,0,0,19.64-6.24,29.11,29.11,0,0,0,11.9-23.57,28.49,28.49,0,0,0-.53-5.5c0-.61.06-1.22.06-1.84,0-16.24-13.35-29-30.39-29Z"/><path class="cls-9" d="M112.91,80.92a10.7,10.7,0,0,1-1.39-.08,10.44,10.44,0,0,1-1.38.08H106a10.59,10.59,0,0,1-1.39-.08,10.7,10.7,0,0,1-1.39.08H99.14a12.5,12.5,0,0,1-12.5-12.5V60.65c0-1.37,0-2.53-.08-3.49a12.49,12.49,0,0,1,12.49-13h4.14a17.49,17.49,0,0,1,3.09-.28,16.23,16.23,0,0,1,3.36.35,17.21,17.21,0,0,1,3.46-.35c8.16,0,16.42,6.06,16.42,17.63v6.93A12.5,12.5,0,0,1,117,80.92Z"/><path class="cls-8" d="M113.1,56.36c2.49,0,3.92,1.85,3.92,5.13v6.93h-4.11V62.14c0-1.46-.42-2.3-1.36-2.3a1.31,1.31,0,0,0-1.29,1,2.45,2.45,0,0,0-.12.86v6.71H106V62c0-1.32-.4-2.18-1.37-2.18a1.41,1.41,0,0,0-1.29,1,3,3,0,0,0-.12.88v6.74H99.14V60.65c0-1.58,0-2.92-.09-4h3.54l.17,1.48h.09a4,4,0,0,1,3.43-1.75,3.19,3.19,0,0,1,3.13,1.9h0a4.66,4.66,0,0,1,1.59-1.42,4.34,4.34,0,0,1,2-.48m0-25a29.9,29.9,0,0,0-3.42.2,29.41,29.41,0,0,0-7.4.07H99.05a25,25,0,0,0-25,26.06c0,.87.07,1.84.07,3v7.77a25,25,0,0,0,25,25h4.11c.47,0,.93,0,1.39,0s.92,0,1.39,0h4.11c.46,0,.93,0,1.38,0s.93,0,1.39,0H117a25,25,0,0,0,25-25V61.49a30.85,30.85,0,0,0-6.2-19A28.39,28.39,0,0,0,113.1,31.36Z"/><path class="cls-9" d="M119.37,80.92a12.5,12.5,0,0,1-12.5-12.5V56.63a13.59,13.59,0,0,1,.08-1.44,15.27,15.27,0,0,1-.1-1.8,14.66,14.66,0,0,1,29.32-.24v.24a14.64,14.64,0,0,1-.12,1.89,11.94,11.94,0,0,1,.08,1.35V68.42a12.5,12.5,0,0,1-12.5,12.5Z"/><path class="cls-8" d="M121.51,51.33a2.05,2.05,0,1,1-2.16,2.06,2,2,0,0,1,2.16-2.06m2.12,5.3V68.42h-4.26V56.63h4.26m-2.12-30.3A27,27,0,0,0,94.35,53.39c0,.62,0,1.23.06,1.84s0,.93,0,1.4V68.42a25,25,0,0,0,25,25h4.26a25,25,0,0,0,25-25V56.63c0-.41,0-.81,0-1.21.05-.67.07-1.35.07-2V52.9a27,27,0,0,0-27.16-26.57Z"/><path class="cls-9" d="M131.83,81.18c-10.94,0-18.87-7.79-18.87-18.54a18.44,18.44,0,0,1,18.49-18.78c10.17,0,17.83,8,17.83,18.54a19.75,19.75,0,0,1-.52,4.6l-.12.46a12.49,12.49,0,0,1-7.87,12.09A23.86,23.86,0,0,1,131.83,81.18Z"/><path class="cls-8" d="M131.45,56.36c3.74,0,5.33,2.81,5.33,6a7.81,7.81,0,0,1-.16,1.63H129.5c.14.94,1.46,1.47,3,1.47a9.89,9.89,0,0,0,3.15-.46l.54,2.9a11.77,11.77,0,0,1-4.32.74c-4.07,0-6.37-2.3-6.37-6,0-2.73,1.74-6.28,6-6.28m-2,4.75h3.43a1.72,1.72,0,0,0-1.64-1.92,1.93,1.93,0,0,0-1.79,1.92m2-29.75A30.6,30.6,0,0,0,107.21,43a31.9,31.9,0,0,0-6.75,19.62c0,17.7,13.48,31,31.37,31a36.44,36.44,0,0,0,13.56-2.51A25,25,0,0,0,161.13,69a32.8,32.8,0,0,0,.65-6.56,31.42,31.42,0,0,0-6.59-19.65,29.88,29.88,0,0,0-23.74-11.39Z"/><path class="cls-9" d="M141.84,81.18a21.43,21.43,0,0,1-9.77-2.26,12.5,12.5,0,0,1-6.36-14l.29-1.21a15.55,15.55,0,0,1-.35-3.41c0-9.24,7.73-16.46,17.53-16.46a21.43,21.43,0,0,1,8.52,1.76,12.5,12.5,0,0,1,7.13,14,16.43,16.43,0,0,1,.79,4.9v.18C159.62,74.11,152,81.18,141.84,81.18Z"/><path class="cls-8" d="M143.18,56.36a9,9,0,0,1,3.43.67L145.93,60a6.57,6.57,0,0,0-2.57-.65c-.72,0-1.15.19-1.15.67s.38.63,1.74,1.08c2.28.77,3.15,2,3.17,3.67,0,2.25-1.71,4-5.28,4a9.11,9.11,0,0,1-4-.83l.73-3a7.51,7.51,0,0,0,3.2.89c.92,0,1.27-.19,1.27-.65s-.26-.62-1.51-1c-2.56-.84-3.43-2.25-3.4-3.62,0-2.35,2-4,5-4m0-25c-16.78,0-29.93,12.66-30,28.86a28.33,28.33,0,0,0,.13,3.07,25,25,0,0,0,13,26.71,33.75,33.75,0,0,0,15.57,3.68A31,31,0,0,0,161.53,87a28.49,28.49,0,0,0,10.59-22.27v-.35a30,30,0,0,0-.58-5.49A25,25,0,0,0,156.8,34.2a33.84,33.84,0,0,0-13.62-2.84Z"/><path class="cls-9" d="M148.86,80.92a12.5,12.5,0,0,1-12.5-12.5V56.63a13.94,13.94,0,0,1,.08-1.45,15,15,0,0,1-.1-1.79,14.66,14.66,0,0,1,29.32-.25v.25a14.91,14.91,0,0,1-.12,1.9,11.76,11.76,0,0,1,.08,1.34V68.42a12.5,12.5,0,0,1-12.5,12.5Z"/><path class="cls-8" d="M151,51.33a2.05,2.05,0,1,1-2.16,2.06A2,2,0,0,1,151,51.33m2.12,5.3V68.42h-4.26V56.63h4.26M151,26.33a27,27,0,0,0-27.16,27.06c0,.62,0,1.23.06,1.84s0,.93,0,1.4V68.42a25,25,0,0,0,25,25h4.26a25,25,0,0,0,25-25V56.63c0-.41,0-.81,0-1.21,0-.67.07-1.35.07-2v-.5A27,27,0,0,0,151,26.33Z"/><path class="cls-9" d="M164.11,86.29a14.91,14.91,0,0,1-12.56-6.67A16,16,0,0,1,142.33,65a17.24,17.24,0,0,1,1-5.65,12.52,12.52,0,0,1,6.26-12.79,22.54,22.54,0,0,1,10.9-2.67c10.33,0,17.83,7.45,17.83,17.7v4c0,.31,0,.54,0,.68a13,13,0,0,1,.19,2l.33,1.09a12.52,12.52,0,0,1-4.3,13.44A16.77,16.77,0,0,1,164.11,86.29Z"/><path class="cls-8" d="M160.45,56.36c4,0,5.33,2.26,5.33,5.2v4a15,15,0,0,0,.21,2.88h-1.57a3.94,3.94,0,0,0-.31,1.44,1.1,1.1,0,0,0,1.11,1.25,2.37,2.37,0,0,0,1-.22l.59,2a4.3,4.3,0,0,1-2.73.93,2.4,2.4,0,0,1-2.56-2.61,8.6,8.6,0,0,1,.61-2.76l-.21-1h-.09a4,4,0,0,1-3.2,1.29A3.67,3.67,0,0,1,154.83,65c0-3.17,2.8-4.58,6.72-4.58v-.1c0-.48-.35-1-1.9-1a7.29,7.29,0,0,0-3.27.86l-.73-2.71a10.11,10.11,0,0,1,4.8-1.08m-.26,9.33a1.6,1.6,0,0,0,1.46-1.08,3.13,3.13,0,0,0,0-.62V63c-1.74,0-2.7.48-2.7,1.53a1.07,1.07,0,0,0,1.2,1.13m.26-34.33a34.71,34.71,0,0,0-17,4.26A25,25,0,0,0,130.66,58a29.12,29.12,0,0,0-.83,6.95,28.66,28.66,0,0,0,13.22,24.2,27.38,27.38,0,0,0,21.06,9.62,29.2,29.2,0,0,0,18.09-6.21A25,25,0,0,0,190.87,66c0-.26-.05-.53-.09-.79V61.56c0-17.21-13-30.2-30.33-30.2Z"/><path class="cls-9" d="M173.89,81.16c-10.71,0-18.78-8-18.78-18.54s8.3-18.76,19.29-18.76A20.78,20.78,0,0,1,181.18,45a12.49,12.49,0,0,1,8.17,14.08l-.57,3.07a10.71,10.71,0,0,1,.21,1.13l.45,3.16a12.5,12.5,0,0,1-6.86,13A19.52,19.52,0,0,1,173.89,81.16Z"/><path class="cls-8" d="M174.4,56.36a8.43,8.43,0,0,1,2.66.41l-.59,3.16a4.87,4.87,0,0,0-1.83-.28,2.59,2.59,0,0,0-2.68,2.8,2.64,2.64,0,0,0,2.8,2.85,4.75,4.75,0,0,0,1.85-.31l.45,3.17a8.1,8.1,0,0,1-3.17.5c-3.86,0-6.28-2.3-6.28-6,0-3.38,2.28-6.26,6.79-6.26m0-25c-17.82,0-31.79,13.73-31.79,31.26A30.77,30.77,0,0,0,152,85.08a31.38,31.38,0,0,0,21.89,8.58,31.82,31.82,0,0,0,14.22-3.08,25,25,0,0,0,13.7-25.92l-.34-2.42.17-.91a25,25,0,0,0-16.33-28.16,33.7,33.7,0,0,0-10.91-1.81Z"/><path class="cls-9" d="M181.85,81.18A16.1,16.1,0,0,1,165.52,65a17,17,0,0,1,1-5.65,12.51,12.51,0,0,1,6.25-12.79,22.54,22.54,0,0,1,10.9-2.67c10.33,0,17.83,7.45,17.83,17.7v4c0,.41,0,.72,0,.87a12.5,12.5,0,0,1-12.34,14.51H185A18.92,18.92,0,0,1,181.85,81.18Z"/><path class="cls-8" d="M183.64,56.36c4,0,5.33,2.26,5.33,5.2v4a17.23,17.23,0,0,0,.19,2.88h-3.8l-.22-1h-.09a4,4,0,0,1-3.2,1.29A3.67,3.67,0,0,1,178,65c0-3.17,2.8-4.58,6.72-4.58v-.1c0-.48-.35-1-1.9-1a7.29,7.29,0,0,0-3.27.86l-.72-2.71a10,10,0,0,1,4.79-1.08m-.26,9.33a1.58,1.58,0,0,0,1.46-1.1,2.28,2.28,0,0,0,0-.6V63c-1.74,0-2.71.48-2.71,1.53a1.07,1.07,0,0,0,1.2,1.13m.26-34.33a34.71,34.71,0,0,0-17,4.26A25,25,0,0,0,153.85,58,29.64,29.64,0,0,0,153,65a28.65,28.65,0,0,0,28.83,28.71,29.43,29.43,0,0,0,4-.26h3.31A25,25,0,0,0,214,65.36v-3.8c0-17.21-13-30.2-30.33-30.2Z"/><path class="cls-9" d="M197.08,81.16c-10.7,0-18.77-8-18.77-18.54s8.29-18.76,19.29-18.76A20.73,20.73,0,0,1,204.37,45a12.49,12.49,0,0,1,8.17,14.08L212,62.12a10.71,10.71,0,0,1,.21,1.13l.45,3.16a12.51,12.51,0,0,1-6.85,13A19.57,19.57,0,0,1,197.08,81.16Z"/><path class="cls-8" d="M197.6,56.36a8.42,8.42,0,0,1,2.65.41l-.58,3.16a4.93,4.93,0,0,0-1.84-.28,2.59,2.59,0,0,0-2.68,2.8A2.64,2.64,0,0,0,198,65.3a4.8,4.8,0,0,0,1.86-.31l.44,3.17a8.1,8.1,0,0,1-3.17.5c-3.85,0-6.27-2.3-6.27-6,0-3.38,2.28-6.26,6.79-6.26m0-25c-17.83,0-31.79,13.73-31.79,31.26a30.76,30.76,0,0,0,9.38,22.46,31.39,31.39,0,0,0,21.89,8.58,31.79,31.79,0,0,0,14.22-3.08A25,25,0,0,0,225,64.66l-.34-2.42.16-.91A25,25,0,0,0,208.5,33.17a33.65,33.65,0,0,0-10.9-1.81Z"/><path class="cls-9" d="M209,80.92a12,12,0,0,1-1.49-.09,12.33,12.33,0,0,1-1.5.09h-4.25a12.5,12.5,0,0,1-12.5-12.5v-17a12.5,12.5,0,0,1,12.5-12.5H206a12.5,12.5,0,0,1,11.22,7c5.21,2.88,8.52,8.62,8.52,15.71v6.83a12.5,12.5,0,0,1-12.5,12.5Z"/><path class="cls-8" d="M206,51.4v6.47h.05a4.08,4.08,0,0,1,1.36-1.1,4,4,0,0,1,1.77-.41c2.6,0,4.06,1.9,4.06,5.23v6.83H209V62.07c0-1.39-.45-2.23-1.51-2.23a1.43,1.43,0,0,0-1.38.93,2.47,2.47,0,0,0-.1.7v7h-4.25v-17H206m0-25h-4.25a25,25,0,0,0-25,25v17a25,25,0,0,0,25,25H206c.5,0,1,0,1.5,0s1,0,1.49,0h4.25a25,25,0,0,0,25-25V61.59c0-10.44-4.58-19.32-11.88-24.7A25,25,0,0,0,206,26.4Z"/><path class="cls-9" d="M220.65,81.08a16.63,16.63,0,0,1-8.54-2.3A12.52,12.52,0,0,1,206.41,65a15.5,15.5,0,0,1-.16-2.17,14.6,14.6,0,0,1,3.1-9.06c.1-.17.19-.34.3-.52L211,51a12.51,12.51,0,0,1,10.71-6h1.5a12.5,12.5,0,0,1,12.35,14.41,12.16,12.16,0,0,1,0,3.46,15.08,15.08,0,0,1,.39,3.45C236,74.58,229.23,81.08,220.65,81.08Z"/><path class="cls-8" d="M223.22,57.46l-1.89,2.26h-1l1.37-2.26h1.5m-1.88,3.13a3.75,3.75,0,0,1,1.85.47l-.34,1a2.9,2.9,0,0,0-1.54-.45,1.1,1.1,0,0,0-1.25,1c0,.63.45.92,1.42,1.3,1.31.5,2,1.17,2,2.3,0,1.35-1,2.3-2.8,2.3a4.24,4.24,0,0,1-2.11-.52l.34-1.06a3.52,3.52,0,0,0,1.8.55c1,0,1.45-.51,1.45-1.14s-.38-1-1.39-1.41c-1.35-.49-2-1.25-2-2.16a2.33,2.33,0,0,1,2.59-2.25m1.88-28.13h-1.5a25,25,0,0,0-21.41,12.08l-1.37,2.27-.2.34a27.25,27.25,0,0,0-5,15.69c0,.53,0,1.06.05,1.58a25,25,0,0,0,11.88,25.07,29,29,0,0,0,15,4.09c15.59,0,27.8-12,27.8-27.3a28.36,28.36,0,0,0-.29-4,23.43,23.43,0,0,0,0-2.78,25,25,0,0,0-24.92-27Z"/><path class="cls-9" d="M225.05,80.92a12.5,12.5,0,0,1-12.5-12.5V63.15c0-.7,0-1.2,0-1.58A12.51,12.51,0,0,1,225,48.26h1.14a15,15,0,0,1,2.24-.17,13.61,13.61,0,0,1,3.48.44,12.5,12.5,0,0,1,9.4,12.11V62a12.55,12.55,0,0,1-2.38,7.35A12.5,12.5,0,0,1,226.4,80.92Z"/><path class="cls-8" d="M228.37,60.59a1.46,1.46,0,0,1,.38,0V62a2.09,2.09,0,0,0-.46-.05,1.93,1.93,0,0,0-1.83,1.79,4.12,4.12,0,0,0-.06.65v4.08h-1.35V63.15c0-.9,0-1.67-.06-2.39h1.19l0,1.51h.06a2.26,2.26,0,0,1,2.08-1.68m0-25a28.28,28.28,0,0,0-3.07.17H225a25,25,0,0,0-25,26.61s0,.21,0,.78v5.27a25,25,0,0,0,25,25h1.35a25,25,0,0,0,24.45-19.78A25,25,0,0,0,253.75,62V60.64A25,25,0,0,0,234.9,36.4a26.61,26.61,0,0,0-6.53-.81Z"/><path class="cls-9" d="M233,81.08a15.91,15.91,0,0,1-16.18-16.36c0-9.33,7-16.63,16-16.63,8.75,0,15.61,7.08,15.61,16.11a18.62,18.62,0,0,1-.12,2,13.43,13.43,0,0,1-.32,1.7,12.5,12.5,0,0,1-7.27,11.55A18.45,18.45,0,0,1,233,81.08Z"/><path class="cls-8" d="M232.78,60.59c2.45,0,3.11,2.2,3.11,3.61a4.64,4.64,0,0,1,0,.65h-5.27a2.42,2.42,0,0,0,2.57,2.65,4.88,4.88,0,0,0,2.08-.39l.23,1a5.8,5.8,0,0,1-2.49.48,3.52,3.52,0,0,1-3.69-3.86c0-2.31,1.33-4.13,3.51-4.13m-2.2,3.26h4c0-.89-.36-2.26-1.89-2.26a2.29,2.29,0,0,0-2.1,2.26m2.2-28.26c-16,0-28.51,12.79-28.51,29.13A28.47,28.47,0,0,0,233,93.58a30.71,30.71,0,0,0,13-2.77,25,25,0,0,0,14.5-21.4c.11-.59.2-1.19.26-1.79a28.38,28.38,0,0,0,.21-3.42c0-16-12.35-28.61-28.11-28.61Z"/><path class="cls-9" d="M240.1,81.1c-8.81,0-15.71-7.2-15.71-16.4a16.78,16.78,0,0,1,4.79-12A15.16,15.16,0,0,1,232,50.43a12.46,12.46,0,0,1,10.51-5.74h1.37a12.5,12.5,0,0,1,12.5,12.5v9.25c0,.31,0,.66,0,.93A12.43,12.43,0,0,1,244,80.92h-1.5A15.6,15.6,0,0,1,240.1,81.1Z"/><path class="cls-8" d="M243.92,57.19v9.25c0,.68,0,1.46.06,2h-1.23l-.06-1.33h0a2.76,2.76,0,0,1-2.56,1.51c-1.81,0-3.21-1.57-3.21-3.9,0-2.54,1.54-4.11,3.37-4.11a2.48,2.48,0,0,1,2.26,1.17h0V57.19h1.37m-3.43,10.28a2.06,2.06,0,0,0,2-1.66,2.31,2.31,0,0,0,.06-.6V63.88a2.29,2.29,0,0,0-.06-.58,2,2,0,0,0-2-1.62c-1.41,0-2.25,1.27-2.25,3s.75,2.83,2.22,2.83m3.43-35.28h-1.37a25,25,0,0,0-19.34,9.15,29.07,29.07,0,0,0-11.32,23.42,29.41,29.41,0,0,0,6.82,18.88,28,28,0,0,0,24.56,9.78H244a25,25,0,0,0,24.94-26.75V57.19a25,25,0,0,0-25-25Z"/><path class="cls-9" d="M251.05,80.92a12.32,12.32,0,0,1-1.83-.13,12.32,12.32,0,0,1-1.83.13H246a12.5,12.5,0,0,1-12.5-12.5V62.84c0-.54,0-.9,0-1.17A12.5,12.5,0,0,1,246,48.26h1.45a15.21,15.21,0,0,1,2.35-.18c8.5,0,15.15,6.92,15.15,15.76v4.57a12.5,12.5,0,0,1-12.5,12.5Z"/><path class="cls-8" d="M249.76,60.59c1,0,2.65.63,2.65,3.26v4.57h-1.36V64c0-1.24-.45-2.27-1.74-2.27a1.94,1.94,0,0,0-1.83,1.43,2.08,2.08,0,0,0-.09.65v4.6H246V62.84c0-.79,0-1.44-.06-2.08h1.21l.08,1.27h0a2.74,2.74,0,0,1,2.48-1.44m0-25a29.93,29.93,0,0,0-3.15.17H246A25,25,0,0,0,221,62.48c0,.11,0,.23,0,.36v5.58a25,25,0,0,0,25,25h1.37c.61,0,1.22,0,1.83-.07s1.21.07,1.83.07h1.36a25,25,0,0,0,25-25V63.85c0-15.85-12.14-28.26-27.65-28.26Z"/><path class="cls-9" d="M254.49,80.92A12.5,12.5,0,0,1,242,68.42V60.75a13.73,13.73,0,0,1-.17-2.14,13.35,13.35,0,0,1,26.69-.17,13.73,13.73,0,0,1-.15,2.22v7.76a12.5,12.5,0,0,1-12.5,12.5Z"/><path class="cls-8" d="M255.17,57.74a.87.87,0,1,1-.85.87.84.84,0,0,1,.85-.87m.68,3v7.66h-1.36V60.76h1.36m-.68-28a25.89,25.89,0,0,0-25.85,25.87,26.51,26.51,0,0,0,.17,3v6.83a25,25,0,0,0,25,25h1.36a25,25,0,0,0,25-25v-7a24.89,24.89,0,0,0,.16-3.12,25.89,25.89,0,0,0-25.84-25.58Z"/><path class="cls-9" d="M261.11,81.08a15.92,15.92,0,0,1-16.19-16.36c0-9.33,7-16.63,16-16.63,8.75,0,15.6,7.08,15.6,16.11a16.34,16.34,0,0,1-.12,2,13.42,13.42,0,0,1-.31,1.7,12.51,12.51,0,0,1-7.28,11.55A18.37,18.37,0,0,1,261.11,81.08Z"/><path class="cls-8" d="M260.94,60.59c2.45,0,3.1,2.2,3.1,3.61a4.64,4.64,0,0,1-.05.65h-5.27a2.42,2.42,0,0,0,2.58,2.65,4.86,4.86,0,0,0,2.07-.39l.24,1a5.85,5.85,0,0,1-2.5.48,3.52,3.52,0,0,1-3.69-3.86c0-2.31,1.33-4.13,3.52-4.13m-2.2,3.26h4a2,2,0,0,0-1.89-2.26,2.28,2.28,0,0,0-2.09,2.26m2.2-28.26c-16,0-28.52,12.79-28.52,29.13a28.47,28.47,0,0,0,28.69,28.86,30.71,30.71,0,0,0,13-2.77,25,25,0,0,0,14.51-21.4c.1-.59.19-1.19.26-1.79a29.12,29.12,0,0,0,.2-3.42c0-16-12.34-28.61-28.1-28.61Z"/><path class="cls-9" d="M270.32,81.08a16.63,16.63,0,0,1-8.54-2.3A12.5,12.5,0,0,1,256.09,65a14.12,14.12,0,0,1-.16-2.17A14.77,14.77,0,0,1,271,48.09a16.21,16.21,0,0,1,8.32,2.29,12.5,12.5,0,0,1,5.9,12.45,15.66,15.66,0,0,1,.39,3.45C285.63,74.58,278.9,81.08,270.32,81.08Z"/><path class="cls-8" d="M271,60.59a3.7,3.7,0,0,1,1.84.47l-.34,1a2.86,2.86,0,0,0-1.53-.45c-.81,0-1.26.48-1.26,1s.45.92,1.43,1.3c1.3.5,2,1.17,2,2.3,0,1.35-1,2.3-2.81,2.3a4.3,4.3,0,0,1-2.11-.52l.34-1.06a3.55,3.55,0,0,0,1.8.55c1,0,1.46-.51,1.46-1.14s-.39-1-1.4-1.41c-1.35-.49-2-1.25-2-2.16A2.33,2.33,0,0,1,271,60.59m0-25a27.72,27.72,0,0,0-18.77,7.21,27.19,27.19,0,0,0-8.82,20c0,.53,0,1.06,0,1.58a25,25,0,0,0,11.88,25.07,29,29,0,0,0,15,4.09c15.59,0,27.81-12,27.81-27.3a28.36,28.36,0,0,0-.29-4,25,25,0,0,0-12-22.56A28.51,28.51,0,0,0,271,35.59Z"/><path class="cls-9" d="M277,81.08a14.42,14.42,0,0,1-10.78-4.74,14.73,14.73,0,0,1-3.68-9.17,12.42,12.42,0,0,1-1.2-5.35V60.76a12.41,12.41,0,0,1,2.56-7.58,12.47,12.47,0,0,1,7.81-6.31l1.33-.36a12.37,12.37,0,0,1,3.29-.45,12.51,12.51,0,0,1,10.26,5.36,12.46,12.46,0,0,1,4.2,9.34v1.06a12.43,12.43,0,0,1-.38,3.08,13.62,13.62,0,0,1,.22,1.7l.06,1a12.51,12.51,0,0,1-7.67,12.29A15.63,15.63,0,0,1,277,81.08Z"/><path class="cls-8" d="M276.37,58.56v2.2h1.95v1.06h-1.95V66c0,1,.26,1.49,1,1.49a3.35,3.35,0,0,0,.79-.09l.06,1a3.27,3.27,0,0,1-1.21.19,1.87,1.87,0,0,1-1.47-.59,2.86,2.86,0,0,1-.53-2V61.82h-1.16V60.76H275V58.93l1.34-.37m0-25a25.07,25.07,0,0,0-6.58.89l-1.33.36a25,25,0,0,0-15.09,11.65,24.88,24.88,0,0,0-4.49,14.3v1.06a25.12,25.12,0,0,0,1.44,8.4A26.8,26.8,0,0,0,277,93.58a28.05,28.05,0,0,0,10.87-2.13A25,25,0,0,0,303.2,66.9l-.07-1.05c0-.21,0-.42,0-.62a25.58,25.58,0,0,0,.23-3.41V60.76A24.94,24.94,0,0,0,296,43.09a25,25,0,0,0-19.64-9.53Z"/><path class="cls-9" d="M283.4,84.16a13.73,13.73,0,0,1-13-8.69,16.49,16.49,0,0,1-3.88-10.75c0-9.33,7-16.63,16-16.63,8.75,0,15.6,7.08,15.6,16.11a16.34,16.34,0,0,1-.12,2,11.85,11.85,0,0,1-.31,1.7,12.45,12.45,0,0,1-.61,4,12.48,12.48,0,0,1-5,9.37A14.64,14.64,0,0,1,283.4,84.16Z"/><path class="cls-8" d="M282.58,60.59c2.45,0,3.1,2.2,3.1,3.61,0,.28,0,.5,0,.65h-5.27a2.42,2.42,0,0,0,2.57,2.65,4.88,4.88,0,0,0,2.08-.39l.23,1a4.45,4.45,0,0,1-.71.27c-.61.27-1.46,1-1.46,1.7a.61.61,0,0,0,.63.66,1.88,1.88,0,0,0,.73-.16l.22.71a2.07,2.07,0,0,1-1.26.38A1.23,1.23,0,0,1,282,70.41a2.52,2.52,0,0,1,1.13-1.83v0a2.82,2.82,0,0,1-.42,0,3.53,3.53,0,0,1-3.66-3.86c0-2.31,1.34-4.13,3.52-4.13m-2.2,3.26h4a2,2,0,0,0-1.9-2.26,2.28,2.28,0,0,0-2.09,2.26m2.2-28.26c-16,0-28.52,12.79-28.52,29.13a29,29,0,0,0,5.78,17.57,25.92,25.92,0,0,0,6.09,7.86,26.51,26.51,0,0,0,17.47,6.51,27.23,27.23,0,0,0,16.15-5.3,25,25,0,0,0,9.94-17.12,25.15,25.15,0,0,0,.73-4.83c.11-.59.2-1.19.26-1.79a29.12,29.12,0,0,0,.2-3.42c0-16-12.34-28.61-28.1-28.61Z"/><path class="cls-9" d="M286.38,80.92a12.5,12.5,0,0,1-12.5-12.5v-.81a12.22,12.22,0,0,1,.51-3.51,12.44,12.44,0,0,1-.2-2.21V60.76a12.45,12.45,0,0,1,3.93-9.09,13.24,13.24,0,0,1,22.41-.41c.27.23.54.48.8.74a12.53,12.53,0,0,1,3.58,9v.87a13.23,13.23,0,0,1-.29,2.44,12.53,12.53,0,0,1,.36,3v1.11a12.5,12.5,0,0,1-12.5,12.5Z"/><path class="cls-8" d="M289.47,57.77a.79.79,0,0,1,.76.83.77.77,0,0,1-.76.8.79.79,0,0,1-.79-.8.8.8,0,0,1,.79-.83m2.94,3h0m0,0v.87l-3.35,4.45c-.31.43-.62.81-1,1.2v0h4.38v1.11h-6.09v-.81l3.4-4.5c.32-.42.63-.78,1-1.19v0h-4.06V60.76h5.72m-2.94-28a25.77,25.77,0,0,0-21.09,11,24.92,24.92,0,0,0-6.69,17v1.13c0,.51,0,1,.05,1.52a24.55,24.55,0,0,0-.36,4.2v.81a25,25,0,0,0,25,25h6.09a25,25,0,0,0,25-25V67.31a23.82,23.82,0,0,0-.2-3.18c.07-.68.11-1.36.12-2v-.5c0-.27,0-.54,0-.82a25,25,0,0,0-7.5-17.85,25.73,25.73,0,0,0-20.45-10.14Zm2.94,53h0Z"/><path class="cls-9" d="M296.75,81.08a15.92,15.92,0,0,1-16.19-16.36c0-9.33,7-16.63,16-16.63,8.75,0,15.6,7.08,15.6,16.11a16.34,16.34,0,0,1-.12,2,11.85,11.85,0,0,1-.31,1.7,12.5,12.5,0,0,1-7.27,11.55A18.45,18.45,0,0,1,296.75,81.08Z"/><path class="cls-8" d="M296.58,60.59c2.45,0,3.1,2.2,3.1,3.61,0,.28,0,.5,0,.65h-5.27a2.42,2.42,0,0,0,2.57,2.65,4.88,4.88,0,0,0,2.08-.39l.23,1a5.82,5.82,0,0,1-2.5.48,3.52,3.52,0,0,1-3.69-3.86c0-2.31,1.34-4.13,3.52-4.13m-2.2,3.26h4a2,2,0,0,0-1.9-2.26,2.28,2.28,0,0,0-2.09,2.26m2.2-28.26c-16,0-28.52,12.79-28.52,29.13a28.48,28.48,0,0,0,28.69,28.86,30.64,30.64,0,0,0,13-2.77,25,25,0,0,0,14.51-21.4c.11-.59.2-1.19.26-1.79a28.82,28.82,0,0,0,.2-3.42c0-16-12.34-28.61-28.1-28.61Z"/><path class="cls-9" d="M306.26,80.92a12.22,12.22,0,0,1-1.83-.13,12.32,12.32,0,0,1-1.83.13h-1.37a12.5,12.5,0,0,1-12.5-12.5V62.84c0-.54,0-.9,0-1.17a12.51,12.51,0,0,1,12.47-13.41h1.45a15.21,15.21,0,0,1,2.35-.18c8.5,0,15.15,6.92,15.15,15.76v4.57a12.5,12.5,0,0,1-12.5,12.5Z"/><path class="cls-8" d="M305,60.59c1,0,2.65.63,2.65,3.26v4.57h-1.36V64c0-1.24-.45-2.27-1.74-2.27a1.94,1.94,0,0,0-1.83,1.43,2.08,2.08,0,0,0-.09.65v4.6h-1.37V62.84c0-.79,0-1.44-.06-2.08h1.21l.08,1.27h0A2.74,2.74,0,0,1,305,60.59m0-25a29.93,29.93,0,0,0-3.15.17h-.65a25,25,0,0,0-24.94,26.72v5.94a25,25,0,0,0,25,25h1.37c.61,0,1.22,0,1.83-.07s1.21.07,1.83.07h1.36a25,25,0,0,0,25-25V63.85c0-15.85-12.14-28.26-27.65-28.26Z"/><path class="cls-9" d="M309.7,80.92a12.5,12.5,0,0,1-12.5-12.5V60.75a13.64,13.64,0,0,1-.17-2.14,13.35,13.35,0,0,1,26.69-.17,12.69,12.69,0,0,1-.16,2.22v7.76a12.5,12.5,0,0,1-12.5,12.5Z"/><path class="cls-8" d="M310.38,57.74a.87.87,0,1,1-.85.87.84.84,0,0,1,.85-.87m.68,3v7.66H309.7V60.76h1.36m-.68-28a25.89,25.89,0,0,0-25.85,25.87,26.51,26.51,0,0,0,.17,3v6.83a25,25,0,0,0,25,25h1.36a25,25,0,0,0,25-25v-7a24.89,24.89,0,0,0,.16-3.12,25.89,25.89,0,0,0-25.84-25.58Z"/><path class="cls-9" d="M316.32,81.08a15.92,15.92,0,0,1-16.19-16.36c0-9.33,7-16.63,16-16.63,8.75,0,15.6,7.08,15.6,16.11a18.12,18.12,0,0,1-.11,2,12.57,12.57,0,0,1-.33,1.75A12.51,12.51,0,0,1,324,79.46,18.37,18.37,0,0,1,316.32,81.08Z"/><path class="cls-8" d="M316.15,60.59c2.45,0,3.1,2.2,3.1,3.61a4.64,4.64,0,0,1-.05.65h-5.27a2.42,2.42,0,0,0,2.57,2.65,4.88,4.88,0,0,0,2.08-.39l.23,1a5.8,5.8,0,0,1-2.49.48,3.52,3.52,0,0,1-3.69-3.86c0-2.31,1.33-4.13,3.52-4.13M314,63.85h4A2,2,0,0,0,316,61.59,2.27,2.27,0,0,0,314,63.85m2.2-28.26c-16,0-28.52,12.79-28.52,29.13a28.47,28.47,0,0,0,28.69,28.86,30.71,30.71,0,0,0,13-2.77,25,25,0,0,0,14.5-21.4c.11-.59.2-1.19.27-1.79a29.12,29.12,0,0,0,.2-3.42c0-16-12.34-28.61-28.1-28.61Z"/><path class="cls-9" d="M50,103.77a12.5,12.5,0,0,1-12.5-12.5V89.76a12.53,12.53,0,0,1-1.07-5.08V83.62a12.46,12.46,0,0,1,2.7-7.77,14.84,14.84,0,0,1,3.11-4.29,15,15,0,0,1,10.51-4.19,15.64,15.64,0,0,1,5.92,1.15,12.49,12.49,0,0,1,7.58,13.74l-.19,1.08a11.37,11.37,0,0,1-.33,1.4,12.47,12.47,0,0,1-1.85,6.49v0a12.5,12.5,0,0,1-12.5,12.5Z"/><path class="cls-8" d="M52.79,79.87a3.22,3.22,0,0,1,1.18.22l-.19,1.07A2.13,2.13,0,0,0,52.9,81c-1.19,0-1.49,1-1.49,2.21v.42h1.85v1.06H51.41v6.59H50V84.68H49V83.62H50v-.37a3.61,3.61,0,0,1,.89-2.67,2.65,2.65,0,0,1,1.87-.71m0-25a27.52,27.52,0,0,0-24.31,14.4A24.89,24.89,0,0,0,24,83.62v1.06A25.25,25.25,0,0,0,25,92a25,25,0,0,0,25,24.28h1.38A25,25,0,0,0,76.18,94.68a24.91,24.91,0,0,0,2-8.1c.08-.36.15-.71.21-1.07l.19-1.08A25,25,0,0,0,63.44,57a28.45,28.45,0,0,0-10.65-2.08Z"/><path class="cls-9" d="M57.53,103.93A16,16,0,0,1,41.27,87.57c0-9.32,7.06-16.63,16.09-16.63C66.14,70.94,73,78,73,87.05a16.6,16.6,0,0,1-.13,2,12,12,0,0,1-.31,1.69,12.52,12.52,0,0,1-7.35,11.56A18.61,18.61,0,0,1,57.53,103.93Z"/><path class="cls-8" d="M57.36,83.44c2.5,0,3.16,2.2,3.16,3.61a4.64,4.64,0,0,1-.05.65H55.09a2.46,2.46,0,0,0,2.63,2.66,5,5,0,0,0,2.12-.4l.24,1a6.25,6.25,0,0,1-2.55.47,3.55,3.55,0,0,1-3.76-3.86c0-2.31,1.36-4.13,3.59-4.13M55.11,86.7h4.07a2,2,0,0,0-1.93-2.26,2.31,2.31,0,0,0-2.14,2.26m2.25-28.26c-16,0-28.59,12.8-28.59,29.13a28.5,28.5,0,0,0,28.76,28.86,31,31,0,0,0,12.82-2.68A25,25,0,0,0,85,92.32c.11-.59.2-1.19.27-1.79a29.57,29.57,0,0,0,.21-3.48c0-16-12.37-28.61-28.16-28.61Z"/><path class="cls-9" d="M62.25,103.77a12.49,12.49,0,0,1-12.5-12.5V86c0-.69,0-1.19,0-1.55A12.49,12.49,0,0,1,62.18,71.12h1.21a14.14,14.14,0,0,1,5.71.25,12.52,12.52,0,0,1,9.43,12.12V84.8a12.47,12.47,0,0,1-2.44,7.42,12.5,12.5,0,0,1-12.47,11.55Z"/><path class="cls-8" d="M65.63,83.44a1.62,1.62,0,0,1,.4,0V84.8a2.28,2.28,0,0,0-.48,0,2,2,0,0,0-1.86,1.79,3.16,3.16,0,0,0-.07.65v4.08H62.25V86c0-.9,0-1.67-.07-2.38H63.4l.05,1.5h.06a2.3,2.3,0,0,1,2.12-1.68m0-25a26.08,26.08,0,0,0-3.07.18h-.38A25,25,0,0,0,37.24,85.27h0s0,.2,0,.73v5.27a25,25,0,0,0,25,25h1.37A25,25,0,0,0,88,96.65,25,25,0,0,0,91,84.8V83.49A25,25,0,0,0,72.17,59.25a27.12,27.12,0,0,0-6.54-.81Z"/><path class="cls-9" d="M67.47,103.77A12.49,12.49,0,0,1,55,91.27V86c0-.7,0-1.19,0-1.54A12.49,12.49,0,0,1,67.4,71.12h1.21a13.82,13.82,0,0,1,2.24-.18,13.55,13.55,0,0,1,3.48.44,12.49,12.49,0,0,1,9.42,12.11V84.8a12.47,12.47,0,0,1-2.44,7.42,12.5,12.5,0,0,1-12.47,11.55Z"/><path class="cls-8" d="M70.85,83.44a1.62,1.62,0,0,1,.4,0V84.8a2.28,2.28,0,0,0-.48,0,2,2,0,0,0-1.86,1.79,3.16,3.16,0,0,0-.07.65v4.08H67.47V86c0-.9,0-1.67-.07-2.38h1.22l0,1.5h.06a2.3,2.3,0,0,1,2.12-1.68m0-25a25.91,25.91,0,0,0-3.06.18H67.4A25,25,0,0,0,42.46,85.29h0s0,.19,0,.71v5.27a25,25,0,0,0,25,25h1.37A25,25,0,0,0,93.26,96.65a25,25,0,0,0,3-11.85V83.49A25,25,0,0,0,77.39,59.25a27.12,27.12,0,0,0-6.54-.81Z"/><path class="cls-9" d="M72.79,107.27a12.49,12.49,0,0,1-12-8.94l-.35-1.17a12.4,12.4,0,0,1,.3-8l-.35-.87A12.5,12.5,0,0,1,72,71.12h1.52a13.22,13.22,0,0,1,2.1.17,13.45,13.45,0,0,1,2.11-.17h1.47a12.49,12.49,0,0,1,11.67,17l-2.08,5.46c-1.27,3.34-2.8,6.88-6.07,9.73a16.39,16.39,0,0,1-7.7,3.8A13.34,13.34,0,0,1,72.79,107.27Z"/><path class="cls-8" d="M79.22,83.62h0m0,0-2.09,5.45c-1,2.63-1.67,4-2.62,4.8a3.74,3.74,0,0,1-1.71.9l-.35-1.17a3.61,3.61,0,0,0,1.22-.68,4.27,4.27,0,0,0,1.17-1.55A1.23,1.23,0,0,0,75,91a1.13,1.13,0,0,0-.1-.37l-2.83-7h1.52l1.68,4.52c.17.51.36,1.11.49,1.57h0c.14-.46.3-1,.49-1.6l1.52-4.49h1.47m0-25H77.75c-.71,0-1.41,0-2.11.08s-1.39-.08-2.1-.08H72a25,25,0,0,0-24.26,31,24.84,24.84,0,0,0,.73,11.09l.34,1.17a25,25,0,0,0,24,17.87,25.49,25.49,0,0,0,4.49-.4A28.71,28.71,0,0,0,91,112.67c5.15-4.52,7.62-9.73,9.5-14.69l1.85-4.82A25,25,0,0,0,79.23,58.62Zm0,50h0Z"/><path class="cls-9" d="M82.84,103.93a14.46,14.46,0,0,1-10.71-4.64,14.67,14.67,0,0,1-3.79-9.21,12.54,12.54,0,0,1-1.22-5.4V83.62a12.45,12.45,0,0,1,2.63-7.68,12.48,12.48,0,0,1,7.82-6.23l1.36-.37a12.73,12.73,0,0,1,3.23-.42,12.49,12.49,0,0,1,7.61,2.58,12.64,12.64,0,0,1,2.59,2.68,12.49,12.49,0,0,1,4.3,9.44v1.06a12.56,12.56,0,0,1-.39,3.08,11.7,11.7,0,0,1,.22,1.68l.06,1a12.49,12.49,0,0,1-7.72,12.32A15.66,15.66,0,0,1,82.84,103.93Z"/><path class="cls-8" d="M82.16,81.42v2.2h2v1.06h-2V88.8c0,1,.27,1.49,1,1.49a3.45,3.45,0,0,0,.8-.09l.07,1a3.46,3.46,0,0,1-1.24.19,2,2,0,0,1-1.5-.58,2.85,2.85,0,0,1-.54-2V84.68H79.62V83.62H80.8V81.78l1.36-.36m0-25a25,25,0,0,0-6.46.85l-1.36.36a25,25,0,0,0-15.1,11.49,24.91,24.91,0,0,0-4.62,14.5v1.06a24.88,24.88,0,0,0,1.48,8.49,26.81,26.81,0,0,0,26.74,23.26,28.13,28.13,0,0,0,10.71-2.05A25,25,0,0,0,109,89.73l-.06-1c0-.2,0-.4,0-.6a24.12,24.12,0,0,0,.24-3.41V83.62a24.94,24.94,0,0,0-7.51-17.86,24.39,24.39,0,0,0-4.26-4.17,25,25,0,0,0-15.23-5.17Z"/><path class="cls-9" d="M85.62,107.27a12.5,12.5,0,0,1-12-8.94l-.35-1.17a12.4,12.4,0,0,1,.3-8l-.35-.87a12.5,12.5,0,0,1,11.6-17.15h1.52a13.22,13.22,0,0,1,2.1.17,13.45,13.45,0,0,1,2.11-.17h1.47a12.49,12.49,0,0,1,11.67,17l-2.08,5.46c-1.27,3.34-2.8,6.88-6.08,9.74a16.34,16.34,0,0,1-7.69,3.79A13.34,13.34,0,0,1,85.62,107.27Z"/><path class="cls-8" d="M92.05,83.62h0m0,0L90,89.07c-1,2.63-1.68,4-2.62,4.8a3.74,3.74,0,0,1-1.71.9l-.35-1.17a3.61,3.61,0,0,0,1.22-.68,4.27,4.27,0,0,0,1.17-1.55,1.23,1.23,0,0,0,.11-.33,1.13,1.13,0,0,0-.1-.37l-2.83-7h1.52l1.68,4.52c.17.51.36,1.11.49,1.57h0c.14-.46.3-1,.49-1.6l1.52-4.49h1.47m0-25H90.58c-.71,0-1.41,0-2.11.08s-1.39-.08-2.1-.08H84.85a25,25,0,0,0-24.26,31,24.84,24.84,0,0,0,.73,11.09l.34,1.17a25,25,0,0,0,24,17.87,25.49,25.49,0,0,0,4.49-.4,28.71,28.71,0,0,0,13.72-6.7c5.15-4.51,7.61-9.72,9.5-14.68l1.85-4.83A25,25,0,0,0,92.06,58.62Zm0,50h0Z"/><path class="cls-9" d="M98.44,103.77a11.6,11.6,0,0,1-1.87-.14,11.39,11.39,0,0,1-1.86.14H93.32a12.49,12.49,0,0,1-12.5-12.5V85.69c0-.53,0-.88,0-1.13A12.5,12.5,0,0,1,93.25,71.12h1.51a15.56,15.56,0,0,1,2.37-.18c8.52,0,15.2,6.92,15.2,15.76v4.57a12.49,12.49,0,0,1-12.5,12.5Z"/><path class="cls-8" d="M97.13,83.44c1.06,0,2.7.63,2.7,3.26v4.57H98.44V86.86c0-1.23-.46-2.26-1.77-2.26A2,2,0,0,0,94.8,86a2.08,2.08,0,0,0-.09.65v4.6H93.32V85.69c0-.79,0-1.44-.07-2.07h1.24l.08,1.26h0a2.8,2.8,0,0,1,2.53-1.44m0-25a27.46,27.46,0,0,0-3.15.18h-.73A25,25,0,0,0,68.31,85.37c0,.1,0,.2,0,.32v5.58a25,25,0,0,0,25,25h1.39c.63,0,1.25,0,1.86-.07s1.24.07,1.87.07h1.39a25,25,0,0,0,25-25V86.7c0-15.85-12.17-28.26-27.7-28.26Z"/><path class="cls-9" d="M101.64,107.27a12.51,12.51,0,0,1-12-8.94l-.35-1.17a12.47,12.47,0,0,1,.31-8l-.35-.87a12.49,12.49,0,0,1,11.6-17.15h1.52a13.32,13.32,0,0,1,2.1.17,13.32,13.32,0,0,1,2.1-.17h1.48a12.5,12.5,0,0,1,11.67,17l-2.09,5.46c-1.27,3.34-2.79,6.87-6.07,9.73a16.39,16.39,0,0,1-7.7,3.8A13.16,13.16,0,0,1,101.64,107.27Z"/><path class="cls-8" d="M108.08,83.62h0m0,0L106,89.07c-1,2.63-1.68,4-2.63,4.8a3.74,3.74,0,0,1-1.71.9l-.35-1.17a3.61,3.61,0,0,0,1.22-.68,4.16,4.16,0,0,0,1.17-1.55,1,1,0,0,0,.11-.33,1.33,1.33,0,0,0-.09-.37l-2.83-7h1.52l1.67,4.52c.18.51.37,1.11.49,1.57h0c.14-.46.3-1,.49-1.6l1.51-4.49h1.48m0-25H106.6c-.7,0-1.4,0-2.1.08s-1.4-.08-2.1-.08h-1.52a25,25,0,0,0-24.27,31,25.09,25.09,0,0,0,.73,11.08l.35,1.17a25,25,0,0,0,23.94,17.88,25.32,25.32,0,0,0,4.49-.4,28.7,28.7,0,0,0,13.7-6.68c5.18-4.52,7.64-9.75,9.53-14.72l1.84-4.81a25,25,0,0,0-23.11-34.54Zm0,50Z"/><path class="cls-9" d="M116.51,104a15.76,15.76,0,0,1-2.4-.18h-1.48a12.5,12.5,0,0,1-12.48-13.24c0-.33,0-.81,0-1.23V80a12.5,12.5,0,0,1,12.5-12.5h1.37a12.49,12.49,0,0,1,10.29,5.39,16.05,16.05,0,0,1,3.37,2.58,16.59,16.59,0,0,1,4.71,11.93C132.44,96.66,125.44,104,116.51,104Z"/><path class="cls-8" d="M114.07,80v4.81h0a2.87,2.87,0,0,1,2.61-1.41c1.9,0,3.25,1.58,3.23,3.91,0,2.74-1.72,4.1-3.43,4.1A2.72,2.72,0,0,1,114,90h0l-.07,1.26h-1.2c0-.52.07-1.29.07-2V80h1.37m2.15,10.3c1.46,0,2.33-1.19,2.33-2.94,0-1.54-.79-2.85-2.28-2.85a2.22,2.22,0,0,0-2.12,1.71,2.89,2.89,0,0,0-.08.57V88.2a2.74,2.74,0,0,0,.06.51,2.15,2.15,0,0,0,2.09,1.63M114.07,55H112.7a25,25,0,0,0-25,25V89.3c0,.08,0,.32,0,.48a25,25,0,0,0,24.95,26.49h.68A28.25,28.25,0,0,0,137,107.59a29.3,29.3,0,0,0,7.9-20.13A29,29,0,0,0,136.6,66.7a28.26,28.26,0,0,0-3.76-3.18A24.94,24.94,0,0,0,114.07,55Z"/><path class="cls-9" d="M121.36,107.27a12.51,12.51,0,0,1-12-8.94L109,97.16a12.4,12.4,0,0,1,.3-8l-.35-.87a12.49,12.49,0,0,1,11.6-17.15h1.52a13.22,13.22,0,0,1,2.1.17,13.35,13.35,0,0,1,2.11-.17h1.47a12.49,12.49,0,0,1,11.67,17l-2.09,5.46c-1.26,3.34-2.79,6.88-6.07,9.74a16.38,16.38,0,0,1-7.69,3.79A13.34,13.34,0,0,1,121.36,107.27Z"/><path class="cls-8" d="M127.79,83.62h0m0,0-2.09,5.45c-1,2.63-1.68,4-2.63,4.8a3.74,3.74,0,0,1-1.71.9L121,93.6a3.67,3.67,0,0,0,1.21-.68,4.28,4.28,0,0,0,1.18-1.55,1.23,1.23,0,0,0,.11-.33,1.47,1.47,0,0,0-.1-.37l-2.83-7h1.52l1.67,4.52c.18.51.37,1.11.5,1.57h0c.14-.46.3-1,.49-1.6l1.52-4.49h1.47m0-25h-1.47c-.71,0-1.41,0-2.11.08s-1.4-.08-2.1-.08h-1.52a25,25,0,0,0-24.26,31,24.93,24.93,0,0,0,.72,11.08l.35,1.17a25,25,0,0,0,23.95,17.88,25.29,25.29,0,0,0,4.48-.4,28.63,28.63,0,0,0,13.71-6.7c5.17-4.51,7.64-9.73,9.52-14.7l1.84-4.81a25,25,0,0,0-23.11-34.54Zm0,50Z"/><path class="cls-9" d="M129.12,103.77A12.5,12.5,0,0,1,116.73,93a12.44,12.44,0,0,1-1.19-5.32V86.54a12.34,12.34,0,0,1,1.08-5.07V80a12.5,12.5,0,0,1,12.5-12.5h1.39a12.51,12.51,0,0,1,12.35,10.54,12.55,12.55,0,0,1,1.27,5.5v1.11A12.53,12.53,0,0,1,143,89.87v1.4a12.5,12.5,0,0,1-12.5,12.5Z"/><path class="cls-8" d="M130.51,80v4.51l1.12-1v1.11l-1.12,1v5.61h-1.39V86.72l-1.08.91V86.54l1.08-.93V80h1.39m0-25h-1.39a25,25,0,0,0-25,24.21A24.75,24.75,0,0,0,103,86.54v1.09a25,25,0,0,0,1.62,8.86,25,25,0,0,0,24.46,19.78h1.39a25,25,0,0,0,25-24.12,24.89,24.89,0,0,0,1.14-7.46V83.58a24.94,24.94,0,0,0-1.78-9.27A25,25,0,0,0,130.51,55Z"/><path class="cls-9" d="M136,104a16.51,16.51,0,1,1,16.31-16.57A16.13,16.13,0,0,1,136,104Z"/><path class="cls-8" d="M136.12,83.44a3.63,3.63,0,0,1,3.69,3.94A3.75,3.75,0,0,1,136,91.45a3.64,3.64,0,0,1-3.67-3.94,3.73,3.73,0,0,1,3.79-4.07m-.06,7c1.33,0,2.33-1.25,2.33-3,0-1.3-.65-2.94-2.3-2.94s-2.35,1.51-2.35,3c0,1.68,1,2.94,2.32,2.94m.06-32a28.63,28.63,0,0,0-28.79,29.07,28.94,28.94,0,0,0,8.07,20.24,28.79,28.79,0,0,0,49.41-20.37,28.51,28.51,0,0,0-28.69-28.94Z"/><path class="cls-9" d="M148,104a16.51,16.51,0,1,1,16.31-16.57A16.13,16.13,0,0,1,148,104Z"/><path class="cls-8" d="M148.16,83.44a3.63,3.63,0,0,1,3.69,3.94A3.75,3.75,0,0,1,148,91.45a3.64,3.64,0,0,1-3.67-3.94,3.73,3.73,0,0,1,3.79-4.07m-.06,7c1.33,0,2.33-1.25,2.33-3,0-1.3-.65-2.94-2.3-2.94s-2.36,1.51-2.36,3c0,1.68,1,2.94,2.33,2.94m.06-32a28.63,28.63,0,0,0-28.79,29.07,28.94,28.94,0,0,0,8.07,20.24,28.79,28.79,0,0,0,49.41-20.37,28.51,28.51,0,0,0-28.69-28.94Z"/><path class="cls-9" d="M157.93,103.94l-.87,0a12.52,12.52,0,0,1-11.88-12.49V90.29c0-.17,0-.35,0-.52a16.19,16.19,0,0,1,15.13-21.45c9.07,0,15.91,7.23,15.91,16.83A19,19,0,0,1,170.66,99a17.68,17.68,0,0,1-10,4.79A19.62,19.62,0,0,1,157.93,103.94Z"/><path class="cls-8" d="M160.32,80.82c2.11,0,3.41,1.7,3.41,4.33A6.5,6.5,0,0,1,162,90a5.18,5.18,0,0,1-3,1.37,7,7,0,0,1-1,.09h-.25V90.29H158a7.61,7.61,0,0,0,.86-.06,3.92,3.92,0,0,0,2.15-1,4.53,4.53,0,0,0,1.36-2.74h0a3.09,3.09,0,0,1-5.46-2,3.52,3.52,0,0,1,3.51-3.65m-.15,5.74a2.29,2.29,0,0,0,2-1.08.88.88,0,0,0,.13-.5c0-1.76-.65-3.1-2.11-3.1-1.18,0-2,1-2,2.5a2,2,0,0,0,2,2.18m.15-30.74A28.67,28.67,0,0,0,132.68,91.5a25,25,0,0,0,23.76,24.9c.49,0,1,0,1.49,0a31.37,31.37,0,0,0,4.41-.32,30.23,30.23,0,0,0,17.07-8.24,31.38,31.38,0,0,0,9.32-22.73c0-16.45-12.48-29.33-28.41-29.33Z"/><path class="cls-9" d="M168.31,104c-8.94,0-15.95-6.72-15.95-15.29a15.39,15.39,0,0,1,.46-3.74c0-.45-.06-.91-.06-1.37,0-8.54,6.89-15.23,15.68-15.23s15.49,6.6,15.49,15a13.31,13.31,0,0,1-.07,1.41,15,15,0,0,1,.45,3.7C184.31,97.14,177.28,104,168.31,104Z"/><path class="cls-8" d="M168.44,80.82c2,0,3,1.25,3,2.53a2.61,2.61,0,0,1-1.69,2.4v0a2.86,2.86,0,0,1,2.07,2.66c0,1.78-1.54,3-3.5,3-2.15,0-3.45-1.29-3.45-2.79a2.94,2.94,0,0,1,2-2.75l0,0a2.54,2.54,0,0,1-1.63-2.31c0-1.63,1.38-2.73,3.18-2.73m.09,4.54a2,2,0,0,0,1.57-1.87,1.6,1.6,0,0,0-1.74-1.68,1.64,1.64,0,0,0-1.79,1.65c0,1,.78,1.58,2,1.9m-.19,5.07a1.86,1.86,0,0,0,2.06-1.83c0-1.25-.87-1.85-2.26-2.25a2.24,2.24,0,0,0-1.85,2.12,1.89,1.89,0,0,0,2.05,2m.1-34.61a28.59,28.59,0,0,0-18.39,6.64,27.56,27.56,0,0,0-9.79,21.09v.35a28.76,28.76,0,0,0-.4,4.76,27.56,27.56,0,0,0,9.65,20.94,29.18,29.18,0,0,0,37.29.23,27.75,27.75,0,0,0,10-21.37,28.21,28.21,0,0,0-.38-4.61v-.5a27.53,27.53,0,0,0-8.55-19.89,28.06,28.06,0,0,0-19.44-7.64Z"/><path class="cls-9" d="M175.18,104a12.48,12.48,0,0,1-12.45-11.42,16.21,16.21,0,0,1-2.36-8.41c0-8.9,6.58-15.8,15-15.8a15,15,0,0,1,3.1.31,12.19,12.19,0,0,1,2.77-.31h.89a12.5,12.5,0,0,1,12.42,11.1,16.41,16.41,0,0,1,2.4,8.72c0,8.83-6.56,15.74-15,15.74a15,15,0,0,1-2.94-.29,12.79,12.79,0,0,1-3,.36Z"/><path class="cls-8" d="M182.11,80.82l-6.05,10.63h-.88l6-10.63h.89m-6.76,0c1.44,0,2.39,1.1,2.39,3.06,0,2.17-1.14,3.25-2.47,3.25s-2.39-1-2.4-3.1,1.12-3.21,2.48-3.21m0,5.47c.91,0,1.32-1,1.32-2.34s-.36-2.3-1.32-2.3S174,82.68,174,84s.46,2.31,1.33,2.31m6.75-1.22c1.44,0,2.37,1.11,2.37,3.07,0,2.17-1.14,3.24-2.45,3.24s-2.39-1-2.4-3.08,1.12-3.23,2.48-3.23M182,90.54c.92,0,1.33-1,1.33-2.34S183,85.91,182,85.91s-1.34,1-1.34,2.33.49,2.3,1.34,2.3m.1-34.72h-.89a24.33,24.33,0,0,0-2.84.16,27.43,27.43,0,0,0-3-.16c-15.41,0-27.48,12.39-27.48,28.21v.19a29,29,0,0,0,2.87,12.48,25,25,0,0,0,24.44,19.75h.88a25.41,25.41,0,0,0,3.16-.2c.91.09,1.83.13,2.76.13,15.39,0,27.45-12.4,27.45-28.24a29.07,29.07,0,0,0-3-12.88,25,25,0,0,0-24.37-19.44Z"/><path class="cls-9" d="M196,103.77a13.53,13.53,0,0,1-1.91-.14,13.28,13.28,0,0,1-1.9.14h-1.27a12.49,12.49,0,0,1-12-8.89l-2.31-7.65a12.49,12.49,0,0,1,12-16.11H190a13.2,13.2,0,0,1,1.78.12,13.09,13.09,0,0,1,1.78-.12h1.17a11.79,11.79,0,0,1,1.79.13,11.92,11.92,0,0,1,1.8-.13h1.37a12.49,12.49,0,0,1,11.9,16.33l-2.47,7.66a12.49,12.49,0,0,1-11.89,8.66Z"/><path class="cls-8" d="M199.68,83.62h0m0,0-2.46,7.65H196l-1.17-3.65a25.92,25.92,0,0,1-.68-2.52h0a22.14,22.14,0,0,1-.7,2.53l-1.23,3.64h-1.27l-2.31-7.65H190l1,3.89c.22.85.43,1.64.57,2.43h.05c.17-.77.42-1.59.68-2.42l1.25-3.9h1.17l1.18,3.82c.29.92.51,1.73.68,2.5h0a22.45,22.45,0,0,1,.59-2.48l1.09-3.84h1.37m0-25h-1.38q-.9,0-1.8.06c-.59,0-1.19-.06-1.79-.06h-1.17c-.6,0-1.19,0-1.78.06s-1.19-.06-1.78-.06h-1.43a25,25,0,0,0-23.93,32.22l2.31,7.65a25,25,0,0,0,23.93,17.78h1.27c.64,0,1.27,0,1.9-.07s1.27.07,1.91.07h1.27A25,25,0,0,0,221,98.94l2.26-7a25,25,0,0,0-23.58-33.3Z"/><path class="cls-9" d="M201,107.27a12.5,12.5,0,0,1-12-8.94l-.35-1.17a12.47,12.47,0,0,1,.3-8l-.35-.87a12.5,12.5,0,0,1,11.6-17.15h1.52a13.35,13.35,0,0,1,2.11.17,13.22,13.22,0,0,1,2.1-.17h1.47a12.5,12.5,0,0,1,11.68,17L217,93.54c-1.27,3.34-2.79,6.88-6.07,9.74a16.48,16.48,0,0,1-7.69,3.79A13.36,13.36,0,0,1,201,107.27Z"/><path class="cls-8" d="M207.45,83.62h0m0,0-2.09,5.45c-1,2.63-1.67,4-2.62,4.8a3.74,3.74,0,0,1-1.71.9l-.35-1.17a3.61,3.61,0,0,0,1.22-.68,4.27,4.27,0,0,0,1.17-1.55,1.23,1.23,0,0,0,.11-.33,1.33,1.33,0,0,0-.09-.37l-2.84-7h1.52l1.68,4.52c.17.51.36,1.11.49,1.57h0c.14-.46.3-1,.49-1.6L206,83.62h1.47m0-25H206c-.71,0-1.41,0-2.1.08s-1.4-.08-2.11-.08h-1.52a25,25,0,0,0-24.26,31,24.8,24.8,0,0,0,.73,11.08l.34,1.17A25,25,0,0,0,201,119.77a24.62,24.62,0,0,0,4.5-.41,28.57,28.57,0,0,0,13.69-6.68c5.17-4.51,7.63-9.72,9.52-14.69l1.85-4.84a25,25,0,0,0-23.11-34.53Zm0,50h0Z"/><path class="cls-9" d="M207.85,103.77a12.5,12.5,0,0,1-12.5-12.5v-.8a12.3,12.3,0,0,1,.51-3.53,12.33,12.33,0,0,1-.2-2.2V83.62a12.48,12.48,0,0,1,4-9.2A13.28,13.28,0,0,1,222,74a10.29,10.29,0,0,1,.91.84,12.49,12.49,0,0,1,3.58,9l0,.87a12.31,12.31,0,0,1-.28,2.43,12.43,12.43,0,0,1,.37,3v1.1a12.5,12.5,0,0,1-12.5,12.5Z"/><path class="cls-8" d="M211,80.63a.82.82,0,0,1,0,1.63.82.82,0,0,1,0-1.63m3,3h0m0,0v.87l-3.42,4.44c-.32.43-.63.81-1,1.2v0h4.48v1.11h-6.22v-.8L211.31,86l1-1.19v0h-4.15V83.62H214m-3-28A25.79,25.79,0,0,0,190,66.4a25,25,0,0,0-6.87,17.22v1.12c0,.5,0,1,.05,1.5a24.82,24.82,0,0,0-.36,4.23v.8a25,25,0,0,0,25,25h6.22a25,25,0,0,0,25-25V90.16a24.22,24.22,0,0,0-.21-3.2c.07-.66.11-1.33.12-2v-.5c0-.28,0-.56,0-.84a24.93,24.93,0,0,0-7.69-18A25.69,25.69,0,0,0,211,55.63Zm3,53h0Z"/><path class="cls-9" d="M217.1,103.93a16.72,16.72,0,0,1-8.48-2.25,12.49,12.49,0,0,1-5.79-13.83,15.36,15.36,0,0,1-.16-2.16,14.79,14.79,0,0,1,15.14-14.75,16.44,16.44,0,0,1,8.25,2.22,12.49,12.49,0,0,1,6,12.52,15,15,0,0,1,.4,3.46C232.47,97.43,225.72,103.93,217.1,103.93Z"/><path class="cls-8" d="M217.81,83.44a3.77,3.77,0,0,1,1.89.48l-.35,1a3,3,0,0,0-1.57-.44c-.82,0-1.28.47-1.28,1s.46.92,1.46,1.3c1.33.5,2,1.17,2,2.31,0,1.34-1.05,2.29-2.87,2.29a4.43,4.43,0,0,1-2.15-.52l.35-1.06a3.63,3.63,0,0,0,1.83.55c1,0,1.49-.5,1.49-1.14s-.39-1-1.42-1.4c-1.38-.5-2-1.25-2-2.17a2.36,2.36,0,0,1,2.64-2.25m0-25a27.81,27.81,0,0,0-18.61,7,27.15,27.15,0,0,0-9,20.21c0,.52,0,1,.05,1.57a25,25,0,0,0,12.05,25.19,29.26,29.26,0,0,0,14.83,4c15.63,0,27.87-12,27.87-27.29a27.27,27.27,0,0,0-.3-4.07,25,25,0,0,0-12.23-22.66,28.66,28.66,0,0,0-14.63-4Z"/><path class="cls-9" d="M220.88,103.77a12.5,12.5,0,0,1-12.5-12.5v-.8a12.66,12.66,0,0,1,.51-3.53,13.33,13.33,0,0,1-.19-2.2V83.62a12.5,12.5,0,0,1,12.5-12.5H227a12.5,12.5,0,0,1,12.5,12.73l0,.87a12.32,12.32,0,0,1-.29,2.43,12.55,12.55,0,0,1,.37,3v1.1a12.5,12.5,0,0,1-12.5,12.5Z"/><path class="cls-8" d="M227,83.62h0m0,0,0,.87-3.42,4.44a14.23,14.23,0,0,1-1,1.2v0h4.48v1.11h-6.22v-.8L224.35,86c.33-.41.65-.78,1-1.19v0H221.2V83.62H227m0-25H221.2a25,25,0,0,0-25,25v1.12c0,.5,0,1,0,1.5a25.87,25.87,0,0,0-.36,4.23v.8a25,25,0,0,0,25,25h6.22a25,25,0,0,0,25-25V90.16a26.06,26.06,0,0,0-.2-3.2c.06-.66.1-1.33.12-2v-.5c0-.28,0-.56,0-.84a25,25,0,0,0-25-25Zm0,50Z"/><path class="cls-9" d="M231.64,103.93a16,16,0,0,1-16.26-16.36c0-9.32,7.06-16.63,16.09-16.63,8.78,0,15.66,7.08,15.66,16.11a17.21,17.21,0,0,1-.13,2.09,13,13,0,0,1-.31,1.65,12.5,12.5,0,0,1-7.36,11.56A18.53,18.53,0,0,1,231.64,103.93Z"/><path class="cls-8" d="M231.47,83.44c2.5,0,3.16,2.2,3.16,3.61a4.64,4.64,0,0,1,0,.65h-5.37a2.45,2.45,0,0,0,2.62,2.66A5,5,0,0,0,234,90l.24,1a6.25,6.25,0,0,1-2.55.47,3.55,3.55,0,0,1-3.76-3.86c0-2.31,1.36-4.13,3.59-4.13m-2.25,3.26h4.07a2,2,0,0,0-1.93-2.26,2.31,2.31,0,0,0-2.14,2.26m2.25-28.26c-16,0-28.59,12.8-28.59,29.13a28.5,28.5,0,0,0,28.76,28.86,30.89,30.89,0,0,0,12.81-2.68,25,25,0,0,0,14.7-21.44c.11-.55.19-1.12.26-1.69a28.26,28.26,0,0,0,.22-3.57c0-16-12.37-28.61-28.16-28.61Z"/><path class="cls-9" d="M56.4,126.62a12.2,12.2,0,0,1-1.91-.15,12,12,0,0,1-1.9.15H51.32a12.49,12.49,0,0,1-12-8.89l-2.31-7.66A12.5,12.5,0,0,1,49,94h1.43a11.75,11.75,0,0,1,1.78.13A11.56,11.56,0,0,1,54,94h1.17a11.79,11.79,0,0,1,1.79.13,11.92,11.92,0,0,1,1.8-.13h1.37A12.49,12.49,0,0,1,72,110.29L69.56,118a12.49,12.49,0,0,1-11.89,8.67Z"/><path class="cls-8" d="M60.13,106.46h0m0,0-2.46,7.66H56.4l-1.17-3.66a25,25,0,0,1-.68-2.51h0a22.14,22.14,0,0,1-.7,2.53l-1.23,3.64H51.32L49,106.46h1.43l1,3.89c.22.86.43,1.65.57,2.44h0c.17-.78.42-1.6.68-2.42L54,106.46h1.17l1.18,3.83c.29.92.51,1.72.68,2.5h0a21.93,21.93,0,0,1,.59-2.48l1.09-3.85h1.37m0-25H58.76c-.6,0-1.2,0-1.8.07s-1.19-.07-1.79-.07H54c-.6,0-1.19,0-1.78.06s-1.19-.06-1.78-.06H49a25,25,0,0,0-23.93,32.22l2.31,7.66a25,25,0,0,0,23.93,17.78h1.27c.64,0,1.27,0,1.9-.07s1.27.07,1.91.07h1.27a25,25,0,0,0,23.79-17.33l2.26-7A25,25,0,0,0,60.14,81.46Z"/><path class="cls-9" d="M64.88,129.75a12.5,12.5,0,0,1-12.5-12.5V109c0-.76,0-1.38-.05-1.95A12.49,12.49,0,0,1,64.82,94h1.65a16.09,16.09,0,0,1,2.41-.18c8.83,0,15.75,7.2,15.75,16.39a16.51,16.51,0,0,1-8.51,14.74,12.45,12.45,0,0,1-9.86,4.83Z"/><path class="cls-8" d="M68.88,106.29c1.85,0,3.25,1.56,3.25,3.89,0,2.75-1.68,4.11-3.48,4.11a2.68,2.68,0,0,1-2.36-1.2h0v4.16H64.88V109c0-1,0-1.77-.06-2.5h1.25l.06,1.31h0a3,3,0,0,1,2.72-1.48m-.47,6.91c1.47,0,2.32-1.2,2.32-3,0-1.53-.8-2.85-2.27-2.85a2.24,2.24,0,0,0-2.11,1.73,2.12,2.12,0,0,0-.09.57V111a3.22,3.22,0,0,0,.06.57,2.14,2.14,0,0,0,2.09,1.63m.47-31.91a30.5,30.5,0,0,0-3.18.17h-.88a25,25,0,0,0-25,26.1c0,.6,0,1,0,1.4v8.29a25,25,0,0,0,25,25h1.38a24.94,24.94,0,0,0,17.82-7.47,29,29,0,0,0,13-24.6,29.33,29.33,0,0,0-6.87-19,28,28,0,0,0-21.38-9.89Z"/><path class="cls-9" d="M77,126.79a16.5,16.5,0,1,1,16.31-16.56A16.13,16.13,0,0,1,77,126.79Z"/><path class="cls-8" d="M77.13,106.29a3.62,3.62,0,0,1,3.68,3.94A3.74,3.74,0,0,1,77,114.29a3.64,3.64,0,0,1-3.67-3.94,3.74,3.74,0,0,1,3.8-4.06m-.07,7c1.33,0,2.33-1.25,2.33-3,0-1.29-.65-2.94-2.3-2.94s-2.35,1.52-2.35,3c0,1.67,1,2.94,2.32,2.94m.07-32a28.62,28.62,0,0,0-28.8,29.06,28.93,28.93,0,0,0,8.07,20.24,28.79,28.79,0,0,0,49.41-20.36A28.5,28.5,0,0,0,77.13,81.29Z"/><path class="cls-9" d="M82.57,126.62a12.5,12.5,0,0,1-12.5-12.5v-5.27c0-.7,0-1.19,0-1.55A12.49,12.49,0,0,1,82.5,94h1.22A15,15,0,0,1,86,93.79a13.94,13.94,0,0,1,3.4.41,12.5,12.5,0,0,1,9.5,12.13v1.32a12.49,12.49,0,0,1-2.44,7.42,12.5,12.5,0,0,1-12.47,11.55Z"/><path class="cls-8" d="M86,106.29a1.64,1.64,0,0,1,.4,0v1.32a2.21,2.21,0,0,0-.48-.05A1.94,1.94,0,0,0,84,109.39a4,4,0,0,0-.07.65v4.08H82.57v-5.27c0-.9,0-1.68-.07-2.39h1.22l0,1.5h.06A2.31,2.31,0,0,1,86,106.29m0-25a28.24,28.24,0,0,0-3.06.17H82.5a25,25,0,0,0-24.94,26.67h0s0,.2,0,.72v5.27a25,25,0,0,0,25,25h1.37a25,25,0,0,0,24.43-19.63,25,25,0,0,0,3-11.84v-1.32a25,25,0,0,0-19-24.27A26.84,26.84,0,0,0,86,81.29Z"/><path class="cls-9" d="M90.71,126.79a16.14,16.14,0,0,1-16.17-16.44A16.64,16.64,0,0,1,79.76,98.1l.93-1.49a12.48,12.48,0,0,1,10.64-6h1.54a12.48,12.48,0,0,1,12.49,12.19,16.84,16.84,0,0,1,1.67,7.38A16.26,16.26,0,0,1,90.71,126.79Z"/><path class="cls-8" d="M92.87,103.16l-1.93,2.26h-1l1.39-2.26h1.54m-2,3.13a3.62,3.62,0,0,1,3.69,3.94,3.74,3.74,0,0,1-3.82,4.06A3.64,3.64,0,0,1,87,110.35a3.74,3.74,0,0,1,3.8-4.06m-.06,7c1.33,0,2.32-1.25,2.32-3,0-1.29-.65-2.94-2.29-2.94s-2.36,1.52-2.36,3c0,1.67,1,2.94,2.33,2.94m2.09-35.09H91.33A25,25,0,0,0,70,90.05l0,0a29.56,29.56,0,0,0,.09,40.5,28.8,28.8,0,0,0,49.42-20.36,29.93,29.93,0,0,0-1.91-10.58,25.41,25.41,0,0,0-2.05-7,25,25,0,0,0-22.7-14.52Zm0,50Z"/><path class="cls-9" d="M102.71,126.62a12,12,0,0,1-1.91-.15,12,12,0,0,1-1.91.15H97.63a12.5,12.5,0,0,1-12-8.89l-2.31-7.66A12.5,12.5,0,0,1,95.32,94h1.42a11.56,11.56,0,0,1,1.78.13A11.75,11.75,0,0,1,100.3,94h1.17a11.92,11.92,0,0,1,1.8.13,11.88,11.88,0,0,1,1.79-.13h1.38a12.51,12.51,0,0,1,11.9,16.34L115.87,118a12.5,12.5,0,0,1-11.9,8.67Z"/><path class="cls-8" d="M106.44,106.46h0m0,0L104,114.12h-1.26l-1.17-3.66a25,25,0,0,1-.68-2.51h0a22.16,22.16,0,0,1-.69,2.53l-1.24,3.64H97.63l-2.31-7.66h1.42l1,3.89c.23.86.43,1.65.57,2.44h.05c.18-.78.43-1.6.68-2.42l1.25-3.91h1.17l1.19,3.83c.28.92.51,1.72.68,2.5h0a21.76,21.76,0,0,1,.58-2.48l1.09-3.85h1.38m0-25h-1.39c-.6,0-1.2,0-1.79.07s-1.2-.07-1.8-.07H100.3c-.6,0-1.19,0-1.78.06s-1.18-.06-1.78-.06H95.32a25,25,0,0,0-23.94,32.22l2.31,7.66a25,25,0,0,0,23.94,17.78h1.26c.64,0,1.28,0,1.91-.07s1.27.07,1.91.07H104a25,25,0,0,0,23.8-17.33l2.26-7a25,25,0,0,0-23.58-33.31Z"/><path class="cls-9" d="M113,126.62a12.76,12.76,0,0,1-1.87-.14,12.76,12.76,0,0,1-1.87.14h-1.39a12.5,12.5,0,0,1-12.5-12.5v-5.59c0-.52,0-.87,0-1.13A12.5,12.5,0,0,1,107.77,94h1.51a16.92,16.92,0,0,1,2.36-.17c8.53,0,15.21,6.92,15.21,15.76v4.57a12.5,12.5,0,0,1-12.5,12.5Z"/><path class="cls-8" d="M111.64,106.29c1.06,0,2.71.63,2.71,3.26v4.57H113V109.7c0-1.23-.46-2.26-1.77-2.26a2,2,0,0,0-1.87,1.43,2,2,0,0,0-.1.64v4.61h-1.39v-5.59c0-.79,0-1.44-.06-2.07H109l.08,1.27h0a2.82,2.82,0,0,1,2.53-1.44m0-25a29.93,29.93,0,0,0-3.15.17h-.72a25,25,0,0,0-24.94,26.75v5.91a25,25,0,0,0,25,25h1.39c.63,0,1.25,0,1.87-.07s1.24.07,1.87.07h1.39a25,25,0,0,0,25-25v-4.57c0-15.85-12.17-28.26-27.71-28.26Z"/><path class="cls-9" d="M118.35,126.79a14.62,14.62,0,0,1-14.84-14.7,15.09,15.09,0,0,1,.59-4.16,12.49,12.49,0,0,1,5.66-11.44,17.26,17.26,0,0,1,9.32-2.7c8.79,0,15.41,6.72,15.41,15.63v2.93a12.5,12.5,0,0,1-12.37,14.27h-1.43A16.53,16.53,0,0,1,118.35,126.79Z"/><path class="cls-8" d="M119.08,106.29c2.34,0,2.91,1.59,2.91,3.13v2.86a10.27,10.27,0,0,0,.13,1.84h-1.27l-.11-1h0a2.84,2.84,0,0,1-2.34,1.14,2.18,2.18,0,0,1-2.34-2.2c0-1.83,1.62-2.84,4.54-2.84h.06v-.16a1.58,1.58,0,0,0-1.74-1.77,3.88,3.88,0,0,0-2,.56l-.31-.91a4.75,4.75,0,0,1,2.51-.68m-.36,7a1.91,1.91,0,0,0,1.85-1.28,1.7,1.7,0,0,0,.08-.44v-1.33h-.23c-1.46,0-3,.31-3,1.72a1.23,1.23,0,0,0,1.32,1.33m.36-32A29.56,29.56,0,0,0,103,86a25,25,0,0,0-11.39,20.66,27.79,27.79,0,0,0-.55,5.43,27.08,27.08,0,0,0,7.48,18.75,27.51,27.51,0,0,0,19.86,8.45,29.55,29.55,0,0,0,3.13-.17h.64A25,25,0,0,0,147,111.61v-2.19a27.72,27.72,0,0,0-27.91-28.13Z"/><path class="cls-9" d="M129.36,126.62a12.73,12.73,0,0,1-1.86-.14,12.86,12.86,0,0,1-1.87.14h-1.39a12.5,12.5,0,0,1-12.5-12.5v-5.59c0-.52,0-.87,0-1.14A12.5,12.5,0,0,1,124.17,94h1.52a16.7,16.7,0,0,1,2.36-.17c8.53,0,15.21,6.92,15.21,15.76v4.57a12.5,12.5,0,0,1-12.5,12.5Z"/><path class="cls-8" d="M128.05,106.29c1.06,0,2.71.63,2.71,3.26v4.57h-1.4V109.7c0-1.23-.46-2.26-1.77-2.26a2,2,0,0,0-1.87,1.43,2.06,2.06,0,0,0-.09.64v4.61h-1.39v-5.59c0-.79,0-1.44-.07-2.07h1.24l.08,1.27h0a2.8,2.8,0,0,1,2.53-1.44m0-25a29.93,29.93,0,0,0-3.15.17h-.73a25,25,0,0,0-24.93,26.75v5.91a25,25,0,0,0,25,25h1.39c.63,0,1.25,0,1.87-.07s1.24.07,1.86.07h1.4a25,25,0,0,0,25-25v-4.57c0-15.85-12.17-28.26-27.71-28.26Z"/><path class="cls-9" d="M133,126.62a12.5,12.5,0,0,1-12.5-12.5v-7.65a12.85,12.85,0,0,1-.18-2.16,13.37,13.37,0,0,1,26.73-.18,14,14,0,0,1-.16,2.24v7.75a12.5,12.5,0,0,1-12.5,12.5Z"/><path class="cls-8" d="M133.71,103.44a.86.86,0,1,1-.87.87.85.85,0,0,1,.87-.87m.7,3v7.66H133v-7.66h1.39m-.7-28a25.9,25.9,0,0,0-25.87,25.87,25,25,0,0,0,.18,3v6.8a25,25,0,0,0,25,25h1.39a25,25,0,0,0,25-25v-7a25.14,25.14,0,0,0,.16-3.13,25.9,25.9,0,0,0-25.86-25.59Z"/><path class="cls-9" d="M139.31,126.79c-8.63,0-15.14-6.81-15.14-15.85v-4.48A12.5,12.5,0,0,1,136.67,94h1.39a13.86,13.86,0,0,1,1.84.13,13.83,13.83,0,0,1,1.83-.13h1.4a12.5,12.5,0,0,1,12.5,12.5V112c0,.72,0,1,0,1.12a12.49,12.49,0,0,1-12.46,13.47h-1.5A17,17,0,0,1,139.31,126.79Z"/><path class="cls-8" d="M143.13,106.46V112c0,.79,0,1.49.06,2.09H142l-.08-1.25h0a2.87,2.87,0,0,1-2.53,1.42c-1.2,0-2.64-.66-2.64-3.35v-4.48h1.39v4.24c0,1.46.45,2.44,1.71,2.44a2,2,0,0,0,1.84-1.27,2,2,0,0,0,.12-.71v-4.7h1.4m0-25h-1.4c-.61,0-1.22,0-1.83.07s-1.22-.07-1.84-.07h-1.39a25,25,0,0,0-25,25v4.48c0,15.9,12.14,28.35,27.64,28.35a29.17,29.17,0,0,0,3.11-.17h.77a25,25,0,0,0,24.94-26.75v-5.91a25,25,0,0,0-25-25Z"/><path class="cls-9" d="M151.51,126.79c-8.84,0-15.77-7.2-15.77-16.39a16.71,16.71,0,0,1,4.78-12,15.71,15.71,0,0,1,3-2.39A12.49,12.49,0,0,1,154,90.39h1.39a12.49,12.49,0,0,1,12.5,12.5v9.25c0,.31,0,.65,0,.91a12.45,12.45,0,0,1-12.45,13.57H153.9A15.73,15.73,0,0,1,151.51,126.79Z"/><path class="cls-8" d="M155.4,102.89v9.25c0,.68,0,1.46.07,2h-1.25l-.07-1.33h0a2.84,2.84,0,0,1-2.61,1.5c-1.85,0-3.27-1.56-3.27-3.89,0-2.55,1.56-4.11,3.43-4.11a2.56,2.56,0,0,1,2.31,1.17h0v-4.57h1.39m-3.49,10.28a2.1,2.1,0,0,0,2-1.66,2.84,2.84,0,0,0,.06-.6v-1.33A3,3,0,0,0,154,109a2.06,2.06,0,0,0-2-1.61c-1.44,0-2.3,1.26-2.3,3,0,1.55.76,2.83,2.27,2.83m3.49-35.28H154a24.93,24.93,0,0,0-19.19,9,29.69,29.69,0,0,0-4.59,42.66,28.07,28.07,0,0,0,21.28,9.76,30.16,30.16,0,0,0,3.17-.17h.79a25,25,0,0,0,24.93-26.77v-9.46a25,25,0,0,0-25-25Z"/><path class="cls-9" d="M160.83,126.79a16.5,16.5,0,1,1,16.31-16.56A16.13,16.13,0,0,1,160.83,126.79Z"/><path class="cls-8" d="M161,106.29a3.62,3.62,0,0,1,3.68,3.94,3.74,3.74,0,0,1-3.81,4.06,3.64,3.64,0,0,1-3.67-3.94,3.74,3.74,0,0,1,3.8-4.06m-.07,7c1.33,0,2.33-1.25,2.33-3,0-1.29-.65-2.94-2.3-2.94s-2.35,1.52-2.35,3c0,1.67,1,2.94,2.32,2.94m.07-32a28.62,28.62,0,0,0-28.8,29.06,29,29,0,0,0,8.07,20.24,28.79,28.79,0,0,0,49.41-20.36A28.5,28.5,0,0,0,161,81.29Z"/><path class="cls-9" d="M169.75,129.75a12.5,12.5,0,0,1-12.5-12.5V109c0-.77,0-1.4-.05-2a12.51,12.51,0,0,1,12.49-13h1.65a16.09,16.09,0,0,1,2.41-.18c8.83,0,15.75,7.2,15.75,16.39a16.53,16.53,0,0,1-8.5,14.74,12.48,12.48,0,0,1-9.87,4.83Z"/><path class="cls-8" d="M173.75,106.29c1.85,0,3.25,1.56,3.25,3.89,0,2.75-1.68,4.11-3.48,4.11a2.68,2.68,0,0,1-2.36-1.2h0v4.16h-1.38V109c0-1,0-1.77-.06-2.5h1.25l.06,1.31h0a3,3,0,0,1,2.72-1.48m-.47,6.91c1.47,0,2.32-1.2,2.32-3,0-1.53-.8-2.85-2.27-2.85a2.24,2.24,0,0,0-2.11,1.73,2.61,2.61,0,0,0-.09.57V111a3.22,3.22,0,0,0,.06.57,2.14,2.14,0,0,0,2.09,1.63m.47-31.91a30.5,30.5,0,0,0-3.18.17h-.88a25,25,0,0,0-25,26.07c0,.59,0,1,0,1.43v8.29a25,25,0,0,0,25,25h1.38A24.94,24.94,0,0,0,189,134.78,29,29,0,0,0,202,110.18a29.35,29.35,0,0,0-6.87-19,28,28,0,0,0-21.38-9.89Z"/><rect class="cls-9" x="166.25" y="90.39" width="26.39" height="36.23" rx="12.5"/><path class="cls-8" d="M180.15,102.89v11.23h-1.4V102.89h1.4m0-25h-1.4a25,25,0,0,0-25,25v11.23a25,25,0,0,0,25,25h1.4a25,25,0,0,0,25-25V102.89a25,25,0,0,0-25-25Z"/><path class="cls-9" d="M184.23,126.79a14.62,14.62,0,0,1-14.84-14.7,15.08,15.08,0,0,1,.58-4.16,12.51,12.51,0,0,1,5.66-11.44,17.29,17.29,0,0,1,9.32-2.7c8.79,0,15.42,6.72,15.42,15.63v2.93A12.5,12.5,0,0,1,188,126.62h-1.43A16.49,16.49,0,0,1,184.23,126.79Z"/><path class="cls-8" d="M185,106.29c2.35,0,2.92,1.59,2.92,3.13v2.86a11.36,11.36,0,0,0,.12,1.84h-1.26l-.11-1h-.05a2.86,2.86,0,0,1-2.34,1.14,2.18,2.18,0,0,1-2.34-2.2c0-1.83,1.62-2.84,4.53-2.84h.07v-.16a1.58,1.58,0,0,0-1.74-1.77,3.86,3.86,0,0,0-2,.56l-.32-.91a4.75,4.75,0,0,1,2.51-.68m-.36,7a1.9,1.9,0,0,0,1.85-1.28,1.36,1.36,0,0,0,.08-.44v-1.33h-.22c-1.46,0-3,.31-3,1.72a1.23,1.23,0,0,0,1.31,1.33m.36-32A29.56,29.56,0,0,0,168.82,86a25,25,0,0,0-11.38,20.66,27.23,27.23,0,0,0,6.92,24.18,27.51,27.51,0,0,0,19.87,8.45,29.36,29.36,0,0,0,3.12-.17H188a25,25,0,0,0,24.88-27.51v-2.19A27.72,27.72,0,0,0,185,81.29Z"/><path class="cls-9" d="M193.37,126.78a16.18,16.18,0,0,1-16.31-16.41A16.42,16.42,0,0,1,193.67,93.8a17.24,17.24,0,0,1,7.53,1.72,12.5,12.5,0,0,1,6.39,14.71v0l.18.79a12.51,12.51,0,0,1-6.39,13.84A17.47,17.47,0,0,1,193.37,126.78Z"/><path class="cls-8" d="M193.67,106.3a4.65,4.65,0,0,1,1.93.4l-.32,1.07a3.21,3.21,0,0,0-1.61-.36,2.65,2.65,0,0,0-2.7,2.9,2.62,2.62,0,0,0,2.65,2.86,4,4,0,0,0,1.71-.38l.24,1a5.09,5.09,0,0,1-2.2.45,3.64,3.64,0,0,1-3.81-3.91,3.89,3.89,0,0,1,4.11-4.07m0-25a29,29,0,0,0-.3,58,29.8,29.8,0,0,0,13.8-3.3,25,25,0,0,0,13.16-25.6,25,25,0,0,0-13.55-26,29.37,29.37,0,0,0-13.11-3Z"/><path class="cls-9" d="M200.32,126.78a16,16,0,0,1-16.27-16.36c0-9.33,7.07-16.63,16.09-16.63a15.72,15.72,0,0,1,15.67,16.1,16.09,16.09,0,0,1-.14,2.11,11.29,11.29,0,0,1-.31,1.64A12.48,12.48,0,0,1,208,125.19,18.53,18.53,0,0,1,200.32,126.78Z"/><path class="cls-8" d="M200.14,106.29c2.5,0,3.17,2.2,3.17,3.6a6.41,6.41,0,0,1-.05.65h-5.38a2.45,2.45,0,0,0,2.63,2.66,4.86,4.86,0,0,0,2.11-.4l.24,1a6.2,6.2,0,0,1-2.54.48,3.56,3.56,0,0,1-3.77-3.86c0-2.31,1.36-4.13,3.59-4.13m-2.24,3.26H202a2,2,0,0,0-1.93-2.27,2.3,2.3,0,0,0-2.13,2.27m2.24-28.26c-16,0-28.59,12.79-28.59,29.13a28.51,28.51,0,0,0,28.77,28.86,31,31,0,0,0,12.85-2.7,25,25,0,0,0,14.66-21.42c.1-.56.19-1.12.26-1.69a30.68,30.68,0,0,0,.22-3.58c0-16-12.38-28.6-28.17-28.6Z"/><path class="cls-9" d="M208.84,126.79a17.13,17.13,0,0,1-2.39-.17H205a12.5,12.5,0,0,1-12.48-13.27c0-.32,0-.79,0-1.21v-9.25A12.5,12.5,0,0,1,205,90.39h1.38a12.47,12.47,0,0,1,10.28,5.39,15.43,15.43,0,0,1,3.37,2.57,16.62,16.62,0,0,1,4.72,11.93C224.78,119.5,217.78,126.79,208.84,126.79Z"/><path class="cls-8" d="M206.41,102.89v4.81h0a2.83,2.83,0,0,1,2.61-1.41c1.9,0,3.24,1.58,3.23,3.9,0,2.74-1.73,4.1-3.44,4.1a2.74,2.74,0,0,1-2.56-1.44h-.05l-.06,1.27H205c0-.52.06-1.3.06-2v-9.25h1.38m2.15,10.29c1.45,0,2.32-1.18,2.32-2.94,0-1.53-.79-2.85-2.27-2.85a2.22,2.22,0,0,0-2.12,1.71,2.3,2.3,0,0,0-.08.57v1.38a2.63,2.63,0,0,0,.06.5,2.15,2.15,0,0,0,2.09,1.63m-2.15-35.29H205a25,25,0,0,0-25,25v9.25c0,.09,0,.33,0,.44a25,25,0,0,0,25,26.54h.68a30.54,30.54,0,0,0,3.19.17,28.34,28.34,0,0,0,20.53-8.85,29.29,29.29,0,0,0,7.91-20.16,29,29,0,0,0-8.35-20.73,27.53,27.53,0,0,0-3.76-3.18,24.93,24.93,0,0,0-18.76-8.48Z"/><path class="cls-9" d="M217.15,126.79a16.5,16.5,0,1,1,16.31-16.56A16.13,16.13,0,0,1,217.15,126.79Z"/><path class="cls-8" d="M217.27,106.29a3.62,3.62,0,0,1,3.69,3.94,3.74,3.74,0,0,1-3.81,4.06,3.64,3.64,0,0,1-3.67-3.94,3.73,3.73,0,0,1,3.79-4.06m-.06,7c1.33,0,2.33-1.25,2.33-3,0-1.29-.65-2.94-2.3-2.94s-2.35,1.52-2.35,3c0,1.67,1,2.94,2.32,2.94m.06-32a28.62,28.62,0,0,0-28.79,29.06,28.93,28.93,0,0,0,8.07,20.24A28.79,28.79,0,0,0,246,110.23a28.51,28.51,0,0,0-28.69-28.94Z"/><path class="cls-10" d="M230.85,104.77v-2.49c0-.39,0-.77,0-1.16h0c-.23.43-.41.75-.62,1.1l-1.82,2.53v0Z"/><g class="cls-11"><path class="cls-12" d="M32.9,93.13a12.44,12.44,0,0,1-6.38-1.76L-1.87,74.48a12.45,12.45,0,0,1-5.72-7.66,12.5,12.5,0,0,1,1.37-9.47L10.67,29A12.48,12.48,0,0,1,27.8,24.61L56.18,41.5a12.5,12.5,0,0,1,4.36,17.13L43.65,87A12.5,12.5,0,0,1,32.9,93.13Z"/><path class="cls-8" d="M21.41,35.36,49.79,52.24,32.91,80.62,4.52,63.74,21.41,35.36m0-25a24.68,24.68,0,0,0-6.15.77A25,25,0,0,0-.08,22.57L-17,51a25,25,0,0,0,8.7,34.26l28.39,16.89a25,25,0,0,0,34.26-8.7L71.28,65a25,25,0,0,0-8.7-34.26L34.19,13.87a25,25,0,0,0-12.78-3.51Z"/></g><path class="cls-6" d="M15.11,58A12.05,12.05,0,1,0,27.16,45.94,12.06,12.06,0,0,0,15.11,58"/><g class="cls-13"><path class="cls-14" d="M32.18,90.27a12.5,12.5,0,0,1-6.39-1.76L1,73.76A12.49,12.49,0,0,1-3.36,56.62l14.75-24.8a12.5,12.5,0,0,1,17.14-4.35l24.8,14.75a12.51,12.51,0,0,1,4.35,17.14L42.93,84.16a12.55,12.55,0,0,1-7.67,5.73A12.86,12.86,0,0,1,32.18,90.27Z"/><path class="cls-8" d="M22.13,38.21,46.94,53,32.18,77.77,7.38,63l14.75-24.8m0-25A25,25,0,0,0,.65,25.43l-14.76,24.8A25,25,0,0,0-5.4,84.5L19.4,99.26a25,25,0,0,0,34.27-8.71l14.75-24.8a25,25,0,0,0-8.7-34.27L34.92,16.72a24.92,24.92,0,0,0-12.76-3.51Z"/></g><path class="cls-6" d="M16.63,58A10.53,10.53,0,1,0,27.16,47.46,10.53,10.53,0,0,0,16.63,58"/><g class="cls-15"><g class="cls-16"><g class="cls-17"><path class="cls-18" d="M24.07,106.76a12.51,12.51,0,0,1-11.54-7.67L-5.1,57A12.5,12.5,0,0,1,1.6,40.62L43.71,23a12.5,12.5,0,0,1,16.35,6.71L77.7,71.79A12.49,12.49,0,0,1,71,88.15L28.89,105.79A12.46,12.46,0,0,1,24.07,106.76Z"/><path class="cls-8" d="M48.53,34.51,66.17,76.62,24.06,94.26,6.43,52.15l42.1-17.64m0-25a24.88,24.88,0,0,0-9.64,1.94L-3.23,29.09a25,25,0,0,0-13.4,32.72L1,103.91a25,25,0,0,0,32.72,13.41L75.83,99.68A25,25,0,0,0,89.23,67L71.59,24.86A25,25,0,0,0,48.52,9.51Z"/></g><path class="cls-6" d="M46.31,52.47a15.56,15.56,0,1,1-21.93,1.91,15.56,15.56,0,0,1,21.93-1.91"/></g></g><g class="cls-19"><g class="cls-20"><path class="cls-21" d="M24.89,82a12.5,12.5,0,0,1-8.7-4L1.93,62.67A12.5,12.5,0,0,1,2.58,45L18.11,30.57a12.52,12.52,0,0,1,8.51-3.34h.46a12.5,12.5,0,0,1,8.7,4L50,46.56a12.5,12.5,0,0,1-.64,17.66L33.85,78.66A12.48,12.48,0,0,1,25.35,82Z"/><path class="cls-8" d="M26.62,39.73,40.88,55.07,25.35,69.5,11.09,54.16,26.62,39.73m0-25a25,25,0,0,0-17,6.69L-5.93,35.85A25,25,0,0,0-7.22,71.18L7,86.52a25,25,0,0,0,17.4,8l.92,0a25,25,0,0,0,17-6.69L57.9,73.38a25,25,0,0,0,1.29-35.33L44.93,22.71a25,25,0,0,0-17.39-8Z"/></g></g><path class="cls-6" d="M24.11,49.2c-4.25,1.58-6.85,5.11-5.82,7.88s5.32,3.72,9.56,2.13,6.86-5.11,5.83-7.88c-.7-1.86-2.86-2.9-5.5-2.9a11.78,11.78,0,0,0-4.07.77"/></g><g id="Warstwa_2_kopia" data-name="Warstwa 2 kopia"><path class="cls-9" d="M50.19,52.5a32.14,32.14,0,0,1,5.22-.36,8,8,0,0,1,5,1.3,4.82,4.82,0,0,1,1.81,3.88,5.3,5.3,0,0,1-1.55,4A7.72,7.72,0,0,1,55.43,63c-.42,0-.77,0-1,0v5.49H50.19Zm4.21,7.12a7.34,7.34,0,0,0,1,.05c1.65,0,2.68-.86,2.68-2.25,0-1.2-.77-2-2.4-2a6,6,0,0,0-1.24.1Z"/><path class="cls-9" d="M75.22,62.4A5.9,5.9,0,0,1,69,68.68a5.77,5.77,0,0,1-6.14-6.06c0-3.76,2.42-6.26,6.37-6.26A5.74,5.74,0,0,1,75.22,62.4Zm-8,.12c0,1.78.56,3.12,1.88,3.12,1.15,0,1.76-1.22,1.76-3.12,0-1.63-.52-3.11-1.76-3.11C67.68,59.41,67.21,61,67.21,62.52Z"/><path class="cls-9" d="M81.8,64.35a9,9,0,0,0,3.64.93c1.5,0,2.49-.55,2.49-1.65,0-1.27-1.29-1.87-2.7-1.87H83.65V58.69h1.51c1.06,0,2.4-.34,2.4-1.42,0-.79-.73-1.32-2-1.32a7.72,7.72,0,0,0-3.27.89l-.79-3.09a10.41,10.41,0,0,1,5-1.18c3.39,0,5.39,1.73,5.39,4a3.71,3.71,0,0,1-2.8,3.6v0a3.76,3.76,0,0,1,3.27,3.7c0,2.87-2.59,4.81-6.54,4.81A9.57,9.57,0,0,1,81,67.58Z"/><path class="cls-9" d="M99.14,60.65c0-1.58,0-2.92-.09-4h3.54l.17,1.48h.09a4,4,0,0,1,3.43-1.75,3.19,3.19,0,0,1,3.13,1.9h0a4.66,4.66,0,0,1,1.59-1.42,4.34,4.34,0,0,1,2-.48c2.49,0,3.92,1.85,3.92,5.13v6.93h-4.11V62.14c0-1.46-.42-2.3-1.36-2.3a1.31,1.31,0,0,0-1.29,1,2.45,2.45,0,0,0-.12.86v6.71H106V62c0-1.32-.4-2.18-1.37-2.18a1.41,1.41,0,0,0-1.29,1,3,3,0,0,0-.12.88v6.74H99.14Z"/><path class="cls-9" d="M123.67,53.39a2,2,0,0,1-2.18,2,2.05,2.05,0,1,1,2.18-2Zm-4.3,15V56.63h4.26V68.42Z"/><path class="cls-9" d="M129.5,64c.14.94,1.46,1.47,3,1.47a9.89,9.89,0,0,0,3.15-.46l.54,2.9a11.77,11.77,0,0,1-4.32.74c-4.07,0-6.37-2.3-6.37-6,0-2.73,1.74-6.28,6-6.28,3.74,0,5.33,2.81,5.33,6a7.81,7.81,0,0,1-.16,1.63Zm3.38-2.92a1.72,1.72,0,0,0-1.64-1.92,1.93,1.93,0,0,0-1.79,1.92Z"/><path class="cls-9" d="M138.59,64.8a7.51,7.51,0,0,0,3.2.89c.92,0,1.27-.19,1.27-.65s-.26-.62-1.51-1c-2.56-.84-3.43-2.25-3.4-3.62,0-2.35,2-4,5-4a9,9,0,0,1,3.43.67L145.93,60a6.57,6.57,0,0,0-2.57-.65c-.72,0-1.15.19-1.15.67s.38.63,1.74,1.08c2.28.77,3.15,2,3.17,3.67,0,2.25-1.71,4-5.28,4a9.11,9.11,0,0,1-4-.83Z"/><path class="cls-9" d="M153.16,53.39a2,2,0,0,1-2.18,2,2.05,2.05,0,1,1,2.18-2Zm-4.3,15V56.63h4.26V68.42Z"/><path class="cls-9" d="M165.78,65.54a15,15,0,0,0,.21,2.88h-1.57a3.94,3.94,0,0,0-.31,1.44,1.1,1.1,0,0,0,1.11,1.25,2.37,2.37,0,0,0,1-.22l.59,2a4.3,4.3,0,0,1-2.73.93,2.4,2.4,0,0,1-2.56-2.61,8.6,8.6,0,0,1,.61-2.76l-.21-1h-.09a4,4,0,0,1-3.2,1.29A3.67,3.67,0,0,1,154.83,65c0-3.17,2.8-4.58,6.72-4.58v-.1c0-.48-.35-1-1.9-1a7.29,7.29,0,0,0-3.27.86l-.73-2.71a10.11,10.11,0,0,1,4.8-1.08c4,0,5.33,2.26,5.33,5.2ZM161.69,63c-1.74,0-2.7.48-2.7,1.53a1.07,1.07,0,0,0,1.2,1.13,1.6,1.6,0,0,0,1.46-1.08,3.13,3.13,0,0,0,0-.62Z"/><path class="cls-9" d="M177.06,68.16a8.1,8.1,0,0,1-3.17.5c-3.86,0-6.28-2.3-6.28-6,0-3.38,2.28-6.26,6.79-6.26a8.43,8.43,0,0,1,2.66.41l-.59,3.16a4.87,4.87,0,0,0-1.83-.28,2.59,2.59,0,0,0-2.68,2.8,2.64,2.64,0,0,0,2.8,2.85,4.75,4.75,0,0,0,1.85-.31Z"/><path class="cls-9" d="M189,65.54a17.23,17.23,0,0,0,.19,2.88h-3.8l-.22-1h-.09a4,4,0,0,1-3.2,1.29A3.67,3.67,0,0,1,178,65c0-3.17,2.8-4.58,6.72-4.58v-.1c0-.48-.35-1-1.9-1a7.29,7.29,0,0,0-3.27.86l-.72-2.71a10,10,0,0,1,4.79-1.08c4,0,5.33,2.26,5.33,5.2ZM184.89,63c-1.74,0-2.71.48-2.71,1.53a1.07,1.07,0,0,0,1.2,1.13,1.58,1.58,0,0,0,1.46-1.1,2.28,2.28,0,0,0,0-.6Z"/><path class="cls-9" d="M200.25,68.16a8.1,8.1,0,0,1-3.17.5c-3.85,0-6.27-2.3-6.27-6,0-3.38,2.28-6.26,6.79-6.26a8.42,8.42,0,0,1,2.65.41l-.58,3.16a4.93,4.93,0,0,0-1.84-.28,2.59,2.59,0,0,0-2.68,2.8A2.64,2.64,0,0,0,198,65.3a4.8,4.8,0,0,0,1.86-.31Z"/><path class="cls-9" d="M201.78,51.4H206v6.47h.05a4.08,4.08,0,0,1,1.36-1.1,4,4,0,0,1,1.77-.41c2.6,0,4.06,1.9,4.06,5.23v6.83H209V62.07c0-1.39-.45-2.23-1.51-2.23a1.43,1.43,0,0,0-1.38.93,2.47,2.47,0,0,0-.1.7v7h-4.25Z"/><path class="cls-9" d="M218.88,67a3.52,3.52,0,0,0,1.8.55c1,0,1.45-.51,1.45-1.14s-.38-1-1.39-1.41c-1.35-.49-2-1.25-2-2.16a2.33,2.33,0,0,1,2.59-2.25,3.75,3.75,0,0,1,1.85.47l-.34,1a2.9,2.9,0,0,0-1.54-.45,1.1,1.1,0,0,0-1.25,1c0,.63.45.92,1.42,1.3,1.31.5,2,1.17,2,2.3,0,1.35-1,2.3-2.8,2.3a4.24,4.24,0,0,1-2.11-.52Zm4.34-9.54-1.89,2.26h-1l1.37-2.26Z"/><path class="cls-9" d="M225.05,63.15c0-.9,0-1.67-.06-2.39h1.19l0,1.51h.06a2.26,2.26,0,0,1,2.08-1.68,1.46,1.46,0,0,1,.38,0V62a2.09,2.09,0,0,0-.46-.05,1.93,1.93,0,0,0-1.83,1.79,4.12,4.12,0,0,0-.06.65v4.08h-1.35Z"/><path class="cls-9" d="M230.57,64.85a2.42,2.42,0,0,0,2.57,2.65,4.88,4.88,0,0,0,2.08-.39l.23,1a5.8,5.8,0,0,1-2.49.48,3.52,3.52,0,0,1-3.69-3.86c0-2.31,1.33-4.13,3.51-4.13,2.45,0,3.11,2.2,3.11,3.61a4.64,4.64,0,0,1,0,.65Zm4-1c0-.89-.36-2.26-1.89-2.26a2.29,2.29,0,0,0-2.1,2.26Z"/><path class="cls-9" d="M243.92,57.19v9.25c0,.68,0,1.46.06,2h-1.23l-.06-1.33h0a2.76,2.76,0,0,1-2.56,1.51c-1.81,0-3.21-1.57-3.21-3.9,0-2.54,1.54-4.11,3.37-4.11a2.48,2.48,0,0,1,2.26,1.17h0V57.19Zm-1.37,6.69a2.29,2.29,0,0,0-.06-.58,2,2,0,0,0-2-1.62c-1.41,0-2.25,1.27-2.25,3s.75,2.83,2.22,2.83a2.06,2.06,0,0,0,2-1.66,2.31,2.31,0,0,0,.06-.6Z"/><path class="cls-9" d="M246,62.84c0-.79,0-1.44-.06-2.08h1.21l.08,1.27h0a2.74,2.74,0,0,1,2.48-1.44c1,0,2.65.63,2.65,3.26v4.57h-1.36V64c0-1.24-.45-2.27-1.74-2.27a1.94,1.94,0,0,0-1.83,1.43,2.08,2.08,0,0,0-.09.65v4.6H246Z"/><path class="cls-9" d="M256,58.61a.85.85,0,1,1-1.69,0,.84.84,0,0,1,.85-.87A.82.82,0,0,1,256,58.61Zm-1.52,9.81V60.76h1.36v7.66Z"/><path class="cls-9" d="M258.72,64.85a2.42,2.42,0,0,0,2.58,2.65,4.86,4.86,0,0,0,2.07-.39l.24,1a5.85,5.85,0,0,1-2.5.48,3.52,3.52,0,0,1-3.69-3.86c0-2.31,1.33-4.13,3.52-4.13,2.45,0,3.1,2.2,3.1,3.61a4.64,4.64,0,0,1-.05.65Zm4-1a2,2,0,0,0-1.89-2.26,2.28,2.28,0,0,0-2.09,2.26Z"/><path class="cls-9" d="M268.55,67a3.55,3.55,0,0,0,1.8.55c1,0,1.46-.51,1.46-1.14s-.39-1-1.4-1.41c-1.35-.49-2-1.25-2-2.16A2.33,2.33,0,0,1,271,60.59a3.7,3.7,0,0,1,1.84.47l-.34,1a2.86,2.86,0,0,0-1.53-.45c-.81,0-1.26.48-1.26,1s.45.92,1.43,1.3c1.3.5,2,1.17,2,2.3,0,1.35-1,2.3-2.81,2.3a4.3,4.3,0,0,1-2.11-.52Z"/><path class="cls-9" d="M276.37,58.56v2.2h1.95v1.06h-1.95V66c0,1,.26,1.49,1,1.49a3.35,3.35,0,0,0,.79-.09l.06,1a3.27,3.27,0,0,1-1.21.19,1.87,1.87,0,0,1-1.47-.59,2.86,2.86,0,0,1-.53-2V61.82h-1.16V60.76H275V58.93Z"/><path class="cls-9" d="M284.66,71.28a2.07,2.07,0,0,1-1.26.38A1.23,1.23,0,0,1,282,70.41a2.52,2.52,0,0,1,1.13-1.83v0a2.82,2.82,0,0,1-.42,0,3.53,3.53,0,0,1-3.66-3.86c0-2.31,1.34-4.13,3.52-4.13,2.45,0,3.1,2.2,3.1,3.61,0,.28,0,.5,0,.65h-5.27a2.42,2.42,0,0,0,2.57,2.65,4.88,4.88,0,0,0,2.08-.39l.23,1a4.45,4.45,0,0,1-.71.27c-.61.27-1.46,1-1.46,1.7a.61.61,0,0,0,.63.66,1.88,1.88,0,0,0,.73-.16Zm-.29-7.43a2,2,0,0,0-1.9-2.26,2.28,2.28,0,0,0-2.09,2.26Z"/><path class="cls-9" d="M286.38,67.61l3.4-4.5c.32-.42.63-.78,1-1.19v0h-4.06V60.76h5.72v.87l-3.35,4.45c-.31.43-.62.81-1,1.2v0h4.38v1.11h-6.09Zm2.3-9a.8.8,0,0,1,.79-.83.79.79,0,0,1,.76.83.77.77,0,0,1-.76.8A.79.79,0,0,1,288.68,58.6Z"/><path class="cls-9" d="M294.37,64.85a2.42,2.42,0,0,0,2.57,2.65,4.88,4.88,0,0,0,2.08-.39l.23,1a5.82,5.82,0,0,1-2.5.48,3.52,3.52,0,0,1-3.69-3.86c0-2.31,1.34-4.13,3.52-4.13,2.45,0,3.1,2.2,3.1,3.61,0,.28,0,.5,0,.65Zm4-1a2,2,0,0,0-1.9-2.26,2.28,2.28,0,0,0-2.09,2.26Z"/><path class="cls-9" d="M301.23,62.84c0-.79,0-1.44-.06-2.08h1.21l.08,1.27h0A2.74,2.74,0,0,1,305,60.59c1,0,2.65.63,2.65,3.26v4.57h-1.36V64c0-1.24-.45-2.27-1.74-2.27a1.94,1.94,0,0,0-1.83,1.43,2.08,2.08,0,0,0-.09.65v4.6h-1.37Z"/><path class="cls-9" d="M311.22,58.61a.85.85,0,1,1-1.69,0,.84.84,0,0,1,.85-.87A.82.82,0,0,1,311.22,58.61Zm-1.52,9.81V60.76h1.36v7.66Z"/><path class="cls-9" d="M313.93,64.85a2.42,2.42,0,0,0,2.57,2.65,4.88,4.88,0,0,0,2.08-.39l.23,1a5.8,5.8,0,0,1-2.49.48,3.52,3.52,0,0,1-3.69-3.86c0-2.31,1.33-4.13,3.52-4.13,2.45,0,3.1,2.2,3.1,3.61a4.64,4.64,0,0,1-.05.65Zm4-1A2,2,0,0,0,316,61.59,2.27,2.27,0,0,0,314,63.85Z"/><path class="cls-9" d="M50,91.27V84.68H49V83.62H50v-.37a3.61,3.61,0,0,1,.89-2.67,2.65,2.65,0,0,1,1.87-.71,3.22,3.22,0,0,1,1.18.22l-.19,1.07A2.13,2.13,0,0,0,52.9,81c-1.19,0-1.49,1-1.49,2.21v.42h1.85v1.06H51.41v6.59Z"/><path class="cls-9" d="M55.09,87.7a2.46,2.46,0,0,0,2.63,2.66,5,5,0,0,0,2.12-.4l.24,1a6.25,6.25,0,0,1-2.55.47,3.55,3.55,0,0,1-3.76-3.86c0-2.31,1.36-4.13,3.59-4.13,2.5,0,3.16,2.2,3.16,3.61a4.64,4.64,0,0,1-.05.65Zm4.09-1a2,2,0,0,0-1.93-2.26,2.31,2.31,0,0,0-2.14,2.26Z"/><path class="cls-9" d="M62.25,86c0-.9,0-1.67-.07-2.38H63.4l.05,1.5h.06a2.3,2.3,0,0,1,2.12-1.68,1.62,1.62,0,0,1,.4,0V84.8a2.28,2.28,0,0,0-.48,0,2,2,0,0,0-1.86,1.79,3.16,3.16,0,0,0-.07.65v4.08H62.25Z"/><path class="cls-9" d="M67.47,86c0-.9,0-1.67-.07-2.38h1.22l0,1.5h.06a2.3,2.3,0,0,1,2.12-1.68,1.62,1.62,0,0,1,.4,0V84.8a2.28,2.28,0,0,0-.48,0,2,2,0,0,0-1.86,1.79,3.16,3.16,0,0,0-.07.65v4.08H67.47Z"/><path class="cls-9" d="M73.54,83.62l1.68,4.52c.17.51.36,1.11.49,1.57h0c.14-.46.3-1,.49-1.6l1.52-4.49h1.47l-2.09,5.45c-1,2.63-1.67,4-2.62,4.8a3.74,3.74,0,0,1-1.71.9l-.35-1.17a3.61,3.61,0,0,0,1.22-.68,4.27,4.27,0,0,0,1.17-1.55A1.23,1.23,0,0,0,75,91a1.13,1.13,0,0,0-.1-.37l-2.83-7Z"/><path class="cls-9" d="M82.16,81.42v2.2h2v1.06h-2V88.8c0,1,.27,1.49,1,1.49a3.45,3.45,0,0,0,.8-.09l.07,1a3.46,3.46,0,0,1-1.24.19,2,2,0,0,1-1.5-.58,2.85,2.85,0,0,1-.54-2V84.68H79.62V83.62H80.8V81.78Z"/><path class="cls-9" d="M86.37,83.62l1.68,4.52c.17.51.36,1.11.49,1.57h0c.14-.46.3-1,.49-1.6l1.52-4.49h1.47L90,89.07c-1,2.63-1.67,4-2.62,4.8a3.74,3.74,0,0,1-1.71.9l-.35-1.17a3.61,3.61,0,0,0,1.22-.68,4.27,4.27,0,0,0,1.17-1.55,1.23,1.23,0,0,0,.11-.33,1.13,1.13,0,0,0-.1-.37l-2.83-7Z"/><path class="cls-9" d="M93.32,85.69c0-.79,0-1.44-.07-2.07h1.24l.08,1.26h0a2.8,2.8,0,0,1,2.53-1.44c1.06,0,2.7.63,2.7,3.26v4.57H98.44V86.86c0-1.23-.46-2.26-1.77-2.26A2,2,0,0,0,94.8,86a2.08,2.08,0,0,0-.09.65v4.6H93.32Z"/><path class="cls-9" d="M102.4,83.62l1.67,4.52c.18.51.37,1.11.49,1.57h0c.14-.46.3-1,.49-1.6l1.51-4.49h1.48L106,89.07c-1,2.63-1.68,4-2.63,4.8a3.74,3.74,0,0,1-1.71.9l-.35-1.17a3.61,3.61,0,0,0,1.22-.68,4.16,4.16,0,0,0,1.17-1.55,1,1,0,0,0,.11-.33,1.33,1.33,0,0,0-.09-.37l-2.83-7Z"/><path class="cls-9" d="M112.63,91.27c0-.52.07-1.29.07-2V80h1.37v4.81h0a2.87,2.87,0,0,1,2.61-1.41c1.9,0,3.25,1.58,3.23,3.91,0,2.74-1.72,4.1-3.43,4.1A2.72,2.72,0,0,1,114,90h0l-.07,1.26Zm1.44-3.07a2.74,2.74,0,0,0,.06.51,2.15,2.15,0,0,0,2.09,1.63c1.46,0,2.33-1.19,2.33-2.94,0-1.54-.79-2.85-2.28-2.85a2.22,2.22,0,0,0-2.12,1.71,2.89,2.89,0,0,0-.08.57Z"/><path class="cls-9" d="M122.11,83.62l1.67,4.52c.18.51.37,1.11.5,1.57h0c.14-.46.3-1,.49-1.6l1.52-4.49h1.47l-2.09,5.45c-1,2.63-1.68,4-2.63,4.8a3.74,3.74,0,0,1-1.71.9L121,93.6a3.67,3.67,0,0,0,1.21-.68,4.28,4.28,0,0,0,1.18-1.55,1.23,1.23,0,0,0,.11-.33,1.47,1.47,0,0,0-.1-.37l-2.83-7Z"/><path class="cls-9" d="M129.12,91.27V86.72l-1.08.91V86.54l1.08-.93V80h1.39v4.51l1.12-1v1.11l-1.12,1v5.61Z"/><path class="cls-9" d="M139.81,87.38A3.75,3.75,0,0,1,136,91.45a3.64,3.64,0,0,1-3.67-3.94,3.73,3.73,0,0,1,3.79-4.07A3.63,3.63,0,0,1,139.81,87.38Zm-6.07.08c0,1.68,1,2.94,2.32,2.94s2.33-1.25,2.33-3c0-1.3-.65-2.94-2.3-2.94S133.74,86,133.74,87.46Z"/><path class="cls-9" d="M151.85,87.38A3.75,3.75,0,0,1,148,91.45a3.64,3.64,0,0,1-3.67-3.94,3.73,3.73,0,0,1,3.79-4.07A3.63,3.63,0,0,1,151.85,87.38Zm-6.08.08c0,1.68,1,2.94,2.33,2.94s2.33-1.25,2.33-3c0-1.3-.65-2.94-2.3-2.94S145.77,86,145.77,87.46Z"/><path class="cls-9" d="M157.68,90.29a5.85,5.85,0,0,0,1.13-.05,3.92,3.92,0,0,0,2.15-1,4.53,4.53,0,0,0,1.36-2.74h0a3.09,3.09,0,0,1-5.46-2,3.52,3.52,0,0,1,3.51-3.65c2.11,0,3.41,1.7,3.41,4.33A6.5,6.5,0,0,1,162,90a5.18,5.18,0,0,1-3,1.37,6.1,6.1,0,0,1-1.28.08Zm.51-5.91a2,2,0,0,0,2,2.18,2.29,2.29,0,0,0,2-1.08.88.88,0,0,0,.13-.5c0-1.76-.65-3.1-2.11-3.1C159,81.88,158.19,82.92,158.19,84.38Z"/><path class="cls-9" d="M164.86,88.66a2.94,2.94,0,0,1,2-2.75l0,0a2.54,2.54,0,0,1-1.63-2.31c0-1.63,1.38-2.73,3.18-2.73,2,0,3,1.25,3,2.53a2.61,2.61,0,0,1-1.69,2.4v0a2.86,2.86,0,0,1,2.07,2.66c0,1.78-1.54,3-3.5,3C166.16,91.45,164.86,90.16,164.86,88.66Zm5.54-.06c0-1.25-.87-1.85-2.26-2.25a2.24,2.24,0,0,0-1.85,2.12,1.9,1.9,0,0,0,2.06,2A1.86,1.86,0,0,0,170.4,88.6Zm-3.83-5.14c0,1,.78,1.58,2,1.9a2,2,0,0,0,1.57-1.87,1.6,1.6,0,0,0-1.74-1.68A1.64,1.64,0,0,0,166.57,83.46Z"/><path class="cls-9" d="M177.74,83.88c0,2.17-1.14,3.25-2.47,3.25s-2.39-1-2.4-3.1,1.12-3.21,2.48-3.21S177.74,81.92,177.74,83.88ZM174,84c0,1.31.46,2.31,1.33,2.31s1.32-1,1.32-2.34-.36-2.3-1.32-2.3S174,82.68,174,84Zm1.2,7.47,6-10.63h.89l-6.05,10.63Zm9.25-3.31c0,2.17-1.14,3.24-2.45,3.24s-2.39-1-2.4-3.08,1.12-3.23,2.48-3.23S184.43,86.18,184.43,88.14Zm-3.76.1c0,1.31.49,2.3,1.34,2.3s1.33-1,1.33-2.34S183,85.91,182,85.91,180.67,86.94,180.67,88.24Z"/><path class="cls-9" d="M190,83.62l1,3.89c.22.85.43,1.64.57,2.43h.05c.17-.77.42-1.59.68-2.42l1.25-3.9h1.17l1.18,3.82c.29.92.51,1.73.68,2.5h0a22.45,22.45,0,0,1,.59-2.48l1.09-3.84h1.37l-2.46,7.65H196l-1.17-3.65a25.92,25.92,0,0,1-.68-2.52h0a22.14,22.14,0,0,1-.7,2.53l-1.23,3.64h-1.27l-2.31-7.65Z"/><path class="cls-9" d="M201.77,83.62l1.68,4.52c.17.51.36,1.11.49,1.57h0c.14-.46.3-1,.49-1.6L206,83.62h1.47l-2.09,5.45c-1,2.63-1.67,4-2.62,4.8a3.74,3.74,0,0,1-1.71.9l-.35-1.17a3.61,3.61,0,0,0,1.22-.68,4.27,4.27,0,0,0,1.17-1.55,1.23,1.23,0,0,0,.11-.33,1.33,1.33,0,0,0-.09-.37l-2.84-7Z"/><path class="cls-9" d="M207.85,90.47,211.31,86l1-1.19v0h-4.15V83.62H214v.87l-3.42,4.44c-.32.43-.63.81-1,1.2v0h4.48v1.11h-6.22Zm2.34-9a.8.8,0,0,1,.81-.82.82.82,0,0,1,0,1.63A.8.8,0,0,1,210.19,81.45Z"/><path class="cls-9" d="M215.3,89.85a3.63,3.63,0,0,0,1.83.55c1,0,1.49-.5,1.49-1.14s-.39-1-1.42-1.4c-1.38-.5-2-1.25-2-2.17a2.36,2.36,0,0,1,2.64-2.25,3.77,3.77,0,0,1,1.89.48l-.35,1a3,3,0,0,0-1.57-.44c-.82,0-1.28.47-1.28,1s.46.92,1.46,1.3c1.33.5,2,1.17,2,2.31,0,1.34-1.05,2.29-2.87,2.29a4.43,4.43,0,0,1-2.15-.52Z"/><path class="cls-9" d="M220.88,90.47,224.35,86c.33-.41.65-.78,1-1.19v0H221.2V83.62H227l0,.87-3.42,4.44a14.23,14.23,0,0,1-1,1.2v0h4.48v1.11h-6.22Z"/><path class="cls-9" d="M229.21,87.7a2.45,2.45,0,0,0,2.62,2.66A5,5,0,0,0,234,90l.24,1a6.25,6.25,0,0,1-2.55.47,3.55,3.55,0,0,1-3.76-3.86c0-2.31,1.36-4.13,3.59-4.13,2.5,0,3.16,2.2,3.16,3.61a4.64,4.64,0,0,1,0,.65Zm4.08-1a2,2,0,0,0-1.93-2.26,2.31,2.31,0,0,0-2.14,2.26Z"/><path class="cls-9" d="M50.44,106.46l1,3.89c.22.86.43,1.65.57,2.44h0c.17-.78.42-1.6.68-2.42L54,106.46h1.17l1.18,3.83c.29.92.51,1.72.68,2.5h0a21.93,21.93,0,0,1,.59-2.48l1.09-3.85h1.37l-2.46,7.66H56.4l-1.17-3.66a25,25,0,0,1-.68-2.51h0a22.14,22.14,0,0,1-.7,2.53l-1.23,3.64H51.32L49,106.46Z"/><path class="cls-9" d="M64.88,109c0-1,0-1.77-.06-2.5h1.25l.06,1.31h0a3,3,0,0,1,2.72-1.48c1.85,0,3.25,1.56,3.25,3.89,0,2.75-1.68,4.11-3.48,4.11a2.68,2.68,0,0,1-2.36-1.2h0v4.16H64.88Zm1.38,2a3.22,3.22,0,0,0,.06.57,2.14,2.14,0,0,0,2.09,1.63c1.47,0,2.32-1.2,2.32-3,0-1.53-.8-2.85-2.27-2.85a2.24,2.24,0,0,0-2.11,1.73,2.12,2.12,0,0,0-.09.57Z"/><path class="cls-9" d="M80.81,110.23A3.74,3.74,0,0,1,77,114.29a3.64,3.64,0,0,1-3.67-3.94,3.74,3.74,0,0,1,3.8-4.06A3.62,3.62,0,0,1,80.81,110.23Zm-6.07.08c0,1.67,1,2.94,2.32,2.94s2.33-1.25,2.33-3c0-1.29-.65-2.94-2.3-2.94S74.74,108.85,74.74,110.31Z"/><path class="cls-9" d="M82.57,108.85c0-.9,0-1.68-.07-2.39h1.22l0,1.5h.06A2.31,2.31,0,0,1,86,106.29a1.64,1.64,0,0,1,.4,0v1.32a2.21,2.21,0,0,0-.48-.05A1.94,1.94,0,0,0,84,109.39a4,4,0,0,0-.07.65v4.08H82.57Z"/><path class="cls-9" d="M94.53,110.23a3.74,3.74,0,0,1-3.82,4.06A3.64,3.64,0,0,1,87,110.35a3.74,3.74,0,0,1,3.8-4.06A3.62,3.62,0,0,1,94.53,110.23Zm-6.08.08c0,1.67,1,2.94,2.33,2.94s2.32-1.25,2.32-3c0-1.29-.65-2.94-2.29-2.94S88.45,108.85,88.45,110.31Zm4.42-7.15-1.93,2.26h-1l1.39-2.26Z"/><path class="cls-9" d="M96.74,106.46l1,3.89c.23.86.43,1.65.57,2.44h.05c.18-.78.43-1.6.68-2.42l1.25-3.91h1.17l1.19,3.83c.28.92.51,1.72.68,2.5h0a21.76,21.76,0,0,1,.58-2.48l1.09-3.85h1.38L104,114.12h-1.26l-1.17-3.66a25,25,0,0,1-.68-2.51h0a22.16,22.16,0,0,1-.69,2.53l-1.24,3.64H97.63l-2.31-7.66Z"/><path class="cls-9" d="M107.83,108.53c0-.79,0-1.44-.06-2.07H109l.08,1.27h0a2.82,2.82,0,0,1,2.53-1.44c1.06,0,2.71.63,2.71,3.26v4.57H113V109.7c0-1.23-.46-2.26-1.77-2.26a2,2,0,0,0-1.87,1.43,2,2,0,0,0-.1.64v4.61h-1.39Z"/><path class="cls-9" d="M120.85,114.12l-.11-1h0a2.84,2.84,0,0,1-2.34,1.14,2.18,2.18,0,0,1-2.34-2.2c0-1.85,1.65-2.86,4.6-2.84v-.16a1.58,1.58,0,0,0-1.74-1.77,3.88,3.88,0,0,0-2,.56l-.31-.91a4.75,4.75,0,0,1,2.51-.68c2.34,0,2.91,1.59,2.91,3.13v2.86a10.27,10.27,0,0,0,.13,1.84Zm-.2-3.91c-1.52,0-3.25.24-3.25,1.72a1.23,1.23,0,0,0,1.32,1.33,1.91,1.91,0,0,0,1.85-1.28,1.7,1.7,0,0,0,.08-.44Z"/><path class="cls-9" d="M124.24,108.53c0-.79,0-1.44-.07-2.07h1.24l.08,1.27h0a2.8,2.8,0,0,1,2.53-1.44c1.06,0,2.71.63,2.71,3.26v4.57h-1.4V109.7c0-1.23-.46-2.26-1.77-2.26a2,2,0,0,0-1.87,1.43,2.06,2.06,0,0,0-.09.64v4.61h-1.39Z"/><path class="cls-9" d="M134.57,104.31a.87.87,0,0,1-1.73,0,.85.85,0,0,1,.87-.87A.83.83,0,0,1,134.57,104.31ZM133,114.12v-7.66h1.39v7.66Z"/><path class="cls-9" d="M143.13,112c0,.79,0,1.49.06,2.09H142l-.08-1.25h0a2.87,2.87,0,0,1-2.53,1.42c-1.2,0-2.64-.66-2.64-3.35v-4.48h1.39v4.24c0,1.46.45,2.44,1.71,2.44a2,2,0,0,0,1.84-1.27,2,2,0,0,0,.12-.71v-4.7h1.4Z"/><path class="cls-9" d="M155.4,102.89v9.25c0,.68,0,1.46.07,2h-1.25l-.07-1.33h0a2.84,2.84,0,0,1-2.61,1.5c-1.85,0-3.27-1.56-3.27-3.89,0-2.55,1.56-4.11,3.43-4.11a2.56,2.56,0,0,1,2.31,1.17h0v-4.57ZM154,109.58A3,3,0,0,0,154,109a2.06,2.06,0,0,0-2-1.61c-1.44,0-2.3,1.26-2.3,3,0,1.55.76,2.83,2.27,2.83a2.1,2.1,0,0,0,2-1.66,2.84,2.84,0,0,0,.06-.6Z"/><path class="cls-9" d="M164.64,110.23a3.74,3.74,0,0,1-3.81,4.06,3.64,3.64,0,0,1-3.67-3.94,3.74,3.74,0,0,1,3.8-4.06A3.62,3.62,0,0,1,164.64,110.23Zm-6.07.08c0,1.67,1,2.94,2.32,2.94s2.33-1.25,2.33-3c0-1.29-.65-2.94-2.3-2.94S158.57,108.85,158.57,110.31Z"/><path class="cls-9" d="M169.75,109c0-1,0-1.77-.06-2.5h1.25l.06,1.31h0a3,3,0,0,1,2.72-1.48c1.85,0,3.25,1.56,3.25,3.89,0,2.75-1.68,4.11-3.48,4.11a2.68,2.68,0,0,1-2.36-1.2h0v4.16h-1.38Zm1.38,2a3.22,3.22,0,0,0,.06.57,2.14,2.14,0,0,0,2.09,1.63c1.47,0,2.32-1.2,2.32-3,0-1.53-.8-2.85-2.27-2.85a2.24,2.24,0,0,0-2.11,1.73,2.61,2.61,0,0,0-.09.57Z"/><path class="cls-9" d="M178.75,102.89h1.4v11.23h-1.4Z"/><path class="cls-9" d="M186.73,114.12l-.11-1h-.05a2.86,2.86,0,0,1-2.34,1.14,2.18,2.18,0,0,1-2.34-2.2c0-1.85,1.64-2.86,4.6-2.84v-.16a1.58,1.58,0,0,0-1.74-1.77,3.86,3.86,0,0,0-2,.56l-.32-.91a4.75,4.75,0,0,1,2.51-.68c2.35,0,2.92,1.59,2.92,3.13v2.86a11.36,11.36,0,0,0,.12,1.84Zm-.21-3.91c-1.52,0-3.24.24-3.24,1.72a1.23,1.23,0,0,0,1.31,1.33,1.9,1.9,0,0,0,1.85-1.28,1.36,1.36,0,0,0,.08-.44Z"/><path class="cls-9" d="M195.57,113.83a5.09,5.09,0,0,1-2.2.45,3.64,3.64,0,0,1-3.81-3.91,3.89,3.89,0,0,1,4.11-4.07,4.65,4.65,0,0,1,1.93.4l-.32,1.07a3.21,3.21,0,0,0-1.61-.36,2.65,2.65,0,0,0-2.7,2.9,2.62,2.62,0,0,0,2.65,2.86,4,4,0,0,0,1.71-.38Z"/><path class="cls-9" d="M197.88,110.54a2.45,2.45,0,0,0,2.63,2.66,4.86,4.86,0,0,0,2.11-.4l.24,1a6.2,6.2,0,0,1-2.54.48,3.56,3.56,0,0,1-3.77-3.86c0-2.31,1.36-4.13,3.59-4.13,2.5,0,3.17,2.2,3.17,3.6a6.41,6.41,0,0,1-.05.65Zm4.08-1a2,2,0,0,0-1.93-2.27,2.3,2.3,0,0,0-2.13,2.27Z"/><path class="cls-9" d="M205,114.12c0-.52.06-1.3.06-2v-9.25h1.38v4.81h0a2.83,2.83,0,0,1,2.61-1.41c1.9,0,3.24,1.58,3.23,3.9,0,2.74-1.73,4.1-3.44,4.1a2.72,2.72,0,0,1-2.56-1.44h-.05l-.06,1.27Zm1.44-3.07a2.63,2.63,0,0,0,.06.5,2.15,2.15,0,0,0,2.09,1.63c1.45,0,2.32-1.18,2.32-2.94,0-1.53-.79-2.85-2.27-2.85a2.22,2.22,0,0,0-2.12,1.71,2.3,2.3,0,0,0-.08.57Z"/><path class="cls-9" d="M221,110.23a3.74,3.74,0,0,1-3.81,4.06,3.64,3.64,0,0,1-3.67-3.94,3.73,3.73,0,0,1,3.79-4.06A3.62,3.62,0,0,1,221,110.23Zm-6.07.08c0,1.67,1,2.94,2.32,2.94s2.33-1.25,2.33-3c0-1.29-.65-2.94-2.3-2.94S214.89,108.85,214.89,110.31Z"/><g class="cls-22"><rect class="cls-23" x="10.65" y="41.48" width="33.02" height="33.03" transform="translate(-36.56 51.68) rotate(-59.25)"/></g><g class="cls-24"><rect class="cls-25" x="12.73" y="43.56" width="28.86" height="28.86" transform="translate(-36.56 51.68) rotate(-59.25)"/></g><g class="cls-26"><g class="cls-16"><g class="cls-27"><rect class="cls-28" x="13.47" y="41.56" width="45.65" height="45.65" transform="translate(-22.05 19.02) rotate(-22.72)"/></g></g></g><g class="cls-29"><g class="cls-30"><rect class="cls-31" x="15.38" y="44.14" width="21.2" height="20.94" transform="translate(-30.23 32.3) rotate(-42.9)"/></g></g></g><g id="Warstwa_3" data-name="Warstwa 3"><text class="cls-32" transform="translate(236.77 106.66)">***</text><text class="cls-32" transform="translate(222.53 106.85)">(6)</text></g></svg>