<svg id="Warstwa_1" data-name="Warstwa 1" xmlns="http://www.w3.org/2000/svg" viewBox="0 0 100 100"><defs><style>.cls-1{fill:none;stroke:#c1599c;stroke-linecap:round;stroke-linejoin:round;stroke-width:4px;}.cls-2{fill:#ab297d;}</style></defs><title>ptaszek_z_ptaszkiem</title><path class="cls-1" d="M89.54,54.18V87.27a10.6,10.6,0,0,1-10.61,10.6H12.76A10.6,10.6,0,0,1,2.15,87.27V21.09a10.61,10.61,0,0,1,10.61-10.6H45.85"/><path class="cls-2" d="M97.53,20.05q0,5.43-4.92,10.57l-.51.52L63.43,61.34A177.66,177.66,0,0,1,47.87,76.18q-6.43,5.25-9.07,5.25c-7.72,0-11.45-6.18-12.25-8q-1-2.33-1.93-9.84a137.23,137.23,0,0,1-.9-16.28,12.42,12.42,0,0,1,4-8.84,12.17,12.17,0,0,1,8.81-4.06q4.59,0,5.48,8.4c.06.65.11,1.13.14,1.44a41.81,41.81,0,0,0,1.71,9c.65,1.7,1.53,2.55,2.65,2.55a6,6,0,0,0,2.6-1.51,59.73,59.73,0,0,0,4.54-4.1L83.1,21a43.49,43.49,0,0,1,6.64-5.61,9.61,9.61,0,0,1,5-1.9,2.3,2.3,0,0,1,2.18,1.16,8.53,8.53,0,0,1,.65,3.9Z"/></svg>