<svg id="Warstwa_2" data-name="Warstwa 2" xmlns="http://www.w3.org/2000/svg" xmlns:xlink="http://www.w3.org/1999/xlink" viewBox="0 0 100 100"><defs><style>.cls-1{clip-path:url(#clip-path);}.cls-2{fill:none;}.cls-3{isolation:isolate;}.cls-4{fill:#fff;}.cls-5{fill:url(#Gradient_bez_nazwy);}.cls-6{clip-path:url(#clip-path-2);}.cls-7{clip-path:url(#clip-path-3);}.cls-8{fill:url(#Gradient_bez_nazwy_44);}.cls-9{clip-path:url(#clip-path-4);}.cls-10{fill:url(#Gradient_bez_nazwy_44-2);}.cls-11{mask:url(#mask);}.cls-12{clip-path:url(#clip-path-5);}.cls-13{clip-path:url(#clip-path-6);}.cls-14{fill:url(#Gradient_bez_nazwy_45);}.cls-15{clip-path:url(#clip-path-7);}.cls-16{mask:url(#mask-2);}.cls-17{fill:url(#Gradient_bez_nazwy_46);}</style><clipPath id="clip-path"><rect class="cls-2" x="23.07" y="11.54" width="130.63" height="130.63"/></clipPath><linearGradient id="Gradient_bez_nazwy" x1="-352.72" y1="365.96" x2="-347.67" y2="365.96" gradientTransform="matrix(0, 14.91, 14.91, 0, -5411.52, 5242.08)" gradientUnits="userSpaceOnUse"><stop offset="0" stop-color="#fff"/><stop offset="1"/></linearGradient><clipPath id="clip-path-2"><circle class="cls-2" cx="50" cy="50" r="50"/></clipPath><clipPath id="clip-path-3"><path class="cls-2" d="M-.54,50A50.57,50.57,0,1,0,50-.56,50.56,50.56,0,0,0-.54,50"/></clipPath><linearGradient id="Gradient_bez_nazwy_44" x1="-380.09" y1="339.43" x2="-375.04" y2="339.43" gradientTransform="matrix(25.57, 0, 0, -25.57, 9698.03, 8728.34)" gradientUnits="userSpaceOnUse"><stop offset="0" stop-color="#d7007f"/><stop offset="0.46" stop-color="#c10074"/><stop offset="1" stop-color="#a90067"/></linearGradient><clipPath id="clip-path-4"><path class="cls-2" d="M5.83,50A44.19,44.19,0,1,0,50,5.82,44.19,44.19,0,0,0,5.83,50"/></clipPath><linearGradient id="Gradient_bez_nazwy_44-2" x1="-380.31" y1="377.11" x2="-375.26" y2="377.11" gradientTransform="matrix(-22.34, 0, 0, 22.34, -8386.89, -8376.38)" xlink:href="#Gradient_bez_nazwy_44"/><mask id="mask" x="-37" y="-48.53" width="250.77" height="250.76" maskUnits="userSpaceOnUse"><g class="cls-1"><rect x="15.17" y="3.64" width="146.42" height="146.42"/><g class="cls-3"><path class="cls-4" d="M95.83,45.42A39.49,39.49,0,1,1,56.35,5.94,39.48,39.48,0,0,1,95.83,45.42"/></g></g></mask><clipPath id="clip-path-5"><rect class="cls-2" x="23.07" y="11.54" width="130.63" height="130.63"/></clipPath><clipPath id="clip-path-6"><path class="cls-2" d="M130.39,26.84a65.31,65.31,0,1,1-92,8,65.32,65.32,0,0,1,92-8"/></clipPath><linearGradient id="Gradient_bez_nazwy_45" x1="-353" y1="319.65" x2="-347.95" y2="319.65" gradientTransform="matrix(10.47, 0, 0, -10.47, 3750.89, 3424.72)" gradientUnits="userSpaceOnUse"><stop offset="0" stop-color="#cb0079"/><stop offset="1" stop-color="#b8006f"/></linearGradient><clipPath id="clip-path-7"><path class="cls-2" d="M37.24,13.09C19.41,19.75,8.46,34.56,12.8,46.17s22.31,15.63,40.14,9S81.72,33.67,77.38,22.06c-2.91-7.81-12-12.19-23.06-12.19a49.27,49.27,0,0,0-17.08,3.22"/></clipPath><mask id="mask-2" x="-17.43" y="-26.66" width="125.05" height="124.99" maskUnits="userSpaceOnUse"><rect class="cls-5" x="0.59" y="-8.12" width="89.01" height="87.91" transform="translate(-12.33 40.28) rotate(-42.9)"/></mask><linearGradient id="Gradient_bez_nazwy_46" x1="-352.72" y1="365.96" x2="-347.67" y2="365.96" gradientTransform="matrix(0, 14.91, 14.91, 0, -5411.52, 5242.08)" gradientUnits="userSpaceOnUse"><stop offset="0" stop-color="#fff"/><stop offset="1" stop-color="#fff"/></linearGradient></defs><title>rozowa_kulka</title><g class="cls-6"><g class="cls-7"><rect class="cls-8" x="-19.28" y="-19.3" width="138.61" height="138.61" transform="matrix(0.51, -0.86, 0.86, 0.51, -18.53, 67.43)"/></g><g class="cls-9"><rect class="cls-10" x="-10.55" y="-10.56" width="121.15" height="121.15" transform="translate(-18.53 67.43) rotate(-59.25)"/></g><g class="cls-11"><g class="cls-12"><g class="cls-13"><rect class="cls-14" x="-7.43" y="-18.96" width="191.62" height="191.62" transform="translate(-22.83 40.11) rotate(-22.72)"/></g></g></g><g class="cls-15"><g class="cls-16"><rect class="cls-17" x="0.59" y="-8.12" width="89.01" height="87.91" transform="translate(-12.33 40.28) rotate(-42.9)"/></g></g></g></svg>