<svg xmlns="http://www.w3.org/2000/svg" xmlns:xlink="http://www.w3.org/1999/xlink" viewBox="0 0 400 160"><defs><style>.cls-1{clip-path:url(#clip-path);}.cls-2,.cls-6{fill:none;}.cls-3{isolation:isolate;}.cls-4{fill:#fff;}.cls-5{fill:url(#Gradient_bez_nazwy);}.cls-6,.cls-7{stroke:#f9eaf2;stroke-linecap:round;stroke-linejoin:round;stroke-width:25px;}.cls-20,.cls-31,.cls-7{fill:#ab297d;}.cls-8{clip-path:url(#clip-path-3);}.cls-9{fill:url(#Gradient_bez_nazwy_54);}.cls-10{fill:#f9eaf2;}.cls-11{clip-path:url(#clip-path-4);}.cls-12{fill:url(#Gradient_bez_nazwy_54-2);}.cls-13{mask:url(#mask);}.cls-14{clip-path:url(#clip-path-5);}.cls-15{clip-path:url(#clip-path-6);}.cls-16{fill:url(#Gradient_bez_nazwy_55);}.cls-17{clip-path:url(#clip-path-7);}.cls-18{mask:url(#mask-2);}.cls-19{fill:url(#Gradient_bez_nazwy_56);}.cls-21{clip-path:url(#clip-path-8);}.cls-22{fill:url(#Gradient_bez_nazwy_54-3);}.cls-23{clip-path:url(#clip-path-9);}.cls-24{fill:url(#Gradient_bez_nazwy_54-4);}.cls-25{mask:url(#mask-3);}.cls-26{clip-path:url(#clip-path-11);}.cls-27{fill:url(#Gradient_bez_nazwy_55-2);}.cls-28{clip-path:url(#clip-path-12);}.cls-29{mask:url(#mask-4);}.cls-30{fill:url(#Gradient_bez_nazwy_56-2);}.cls-31{font-size:12px;font-family:MyriadPro-Regular, Myriad Pro;}.cls-32{clip-path:url(#clip-path-13);}.cls-33{mask:url(#mask-5);}.cls-34{clip-path:url(#clip-path-14);}.cls-35{clip-path:url(#clip-path-15);}</style><clipPath id="clip-path"><rect class="cls-2" x="20.43" y="53.4" width="30.56" height="30.56"/></clipPath><linearGradient id="Gradient_bez_nazwy" x1="-625.54" y1="436.05" x2="-623.6" y2="436.05" gradientTransform="matrix(0, 9.08, 9.08, 0, -3932.81, 5725.25)" gradientUnits="userSpaceOnUse"><stop offset="0" stop-color="#fff"/><stop offset="1"/></linearGradient><clipPath id="clip-path-3"><path class="cls-6" d="M14.9,62.4A11.83,11.83,0,1,0,26.73,50.57,11.83,11.83,0,0,0,14.9,62.4"/></clipPath><linearGradient id="Gradient_bez_nazwy_54" x1="-625.17" y1="364.76" x2="-621.73" y2="364.76" gradientTransform="matrix(7.96, -13.38, -13.38, -7.96, 9867.27, -5372.96)" gradientUnits="userSpaceOnUse"><stop offset="0" stop-color="#d6007f"/><stop offset="0.46" stop-color="#c10074"/><stop offset="1" stop-color="#a80067"/></linearGradient><clipPath id="clip-path-4"><path class="cls-6" d="M16.39,62.4A10.34,10.34,0,1,0,26.73,52.06,10.34,10.34,0,0,0,16.39,62.4"/></clipPath><linearGradient id="Gradient_bez_nazwy_54-2" x1="-677.07" y1="410.3" x2="-673.42" y2="410.3" gradientTransform="matrix(-6.96, 11.69, 11.69, 6.96, -9466.09, 5101.31)" xlink:href="#Gradient_bez_nazwy_54"/><mask id="mask" x="-18.63" y="14.33" width="108.69" height="108.69" maskUnits="userSpaceOnUse"><g class="cls-1"><rect x="18.58" y="51.55" width="34.26" height="34.26"/><g class="cls-3"><path class="cls-4" d="M37.45,61.32a9.24,9.24,0,1,1-9.24-9.24,9.24,9.24,0,0,1,9.24,9.24"/></g></g></mask><clipPath id="clip-path-5"><rect class="cls-2" x="20.43" y="53.4" width="30.56" height="30.56"/></clipPath><clipPath id="clip-path-6"><path class="cls-6" d="M45.54,57A15.28,15.28,0,1,1,24,58.85,15.28,15.28,0,0,1,45.54,57"/></clipPath><linearGradient id="Gradient_bez_nazwy_55" x1="-570.64" y1="378.72" x2="-567.62" y2="378.72" gradientTransform="matrix(5.88, -2.46, -2.46, -5.88, 4313.25, 895.42)" gradientUnits="userSpaceOnUse"><stop offset="0" stop-color="#ca0079"/><stop offset="1" stop-color="#b7006f"/></linearGradient><clipPath id="clip-path-7"><path class="cls-6" d="M23.74,53.76c-4.17,1.56-6.73,5-5.71,7.74s5.21,3.65,9.39,2.1,6.73-5,5.72-7.74C32.46,54,30.33,53,27.74,53a11.55,11.55,0,0,0-4,.75"/></clipPath><mask id="mask-2" x="-14.05" y="19.46" width="79.26" height="79.24" maskUnits="userSpaceOnUse"><rect class="cls-5" x="15.17" y="48.8" width="20.83" height="20.57" transform="translate(-33.38 33.22) rotate(-42.9)"/></mask><linearGradient id="Gradient_bez_nazwy_56" x1="-627.19" y1="436.05" x2="-622.89" y2="436.05" gradientTransform="matrix(6.18, 6.65, 6.65, -6.18, 983.3, 6904.3)" gradientUnits="userSpaceOnUse"><stop offset="0" stop-color="#fff"/><stop offset="1" stop-color="#fff"/></linearGradient><clipPath id="clip-path-8"><path class="cls-2" d="M14.9,62.4A11.83,11.83,0,1,0,26.73,50.57,11.83,11.83,0,0,0,14.9,62.4"/></clipPath><linearGradient id="Gradient_bez_nazwy_54-3" x1="-624.36" y1="364.76" x2="-622.42" y2="364.76" gradientTransform="matrix(15.57, 0, 0, -15.57, 9729.31, 5740.37)" xlink:href="#Gradient_bez_nazwy_54"/><clipPath id="clip-path-9"><path class="cls-2" d="M16.39,62.4A10.34,10.34,0,1,0,26.73,52.06,10.34,10.34,0,0,0,16.39,62.4"/></clipPath><linearGradient id="Gradient_bez_nazwy_54-4" x1="-676.15" y1="410.3" x2="-674.2" y2="410.3" gradientTransform="matrix(-13.6, 0, 0, 13.6, -9157.35, -5519.44)" xlink:href="#Gradient_bez_nazwy_54"/><mask id="mask-3" x="6.37" y="39.34" width="58.67" height="58.67" maskUnits="userSpaceOnUse"><g class="cls-1"><rect x="18.58" y="51.55" width="34.26" height="34.26"/><g class="cls-3"><path class="cls-4" d="M37.45,61.32a9.24,9.24,0,1,1-9.24-9.24,9.24,9.24,0,0,1,9.24,9.24"/></g></g></mask><clipPath id="clip-path-11"><path class="cls-2" d="M45.54,57A15.28,15.28,0,1,1,24,58.85,15.28,15.28,0,0,1,45.54,57"/></clipPath><linearGradient id="Gradient_bez_nazwy_55-2" x1="-569.93" y1="378.72" x2="-567.99" y2="378.72" gradientTransform="matrix(6.38, 0, 0, -6.38, 3661.85, 2483.64)" xlink:href="#Gradient_bez_nazwy_55"/><clipPath id="clip-path-12"><path class="cls-2" d="M23.74,53.76c-4.17,1.56-6.73,5-5.71,7.74s5.21,3.65,9.39,2.1,6.73-5,5.72-7.74C32.46,54,30.33,53,27.74,53a11.55,11.55,0,0,0-4,.75"/></clipPath><mask id="mask-4" x="10.95" y="44.46" width="29.26" height="29.24" maskUnits="userSpaceOnUse"><rect class="cls-5" x="15.17" y="48.8" width="20.83" height="20.57" transform="translate(-33.38 33.22) rotate(-42.9)"/></mask><linearGradient id="Gradient_bez_nazwy_56-2" x1="-625.54" y1="436.05" x2="-623.6" y2="436.05" gradientTransform="matrix(0, 9.08, 9.08, 0, -3932.81, 5725.25)" xlink:href="#Gradient_bez_nazwy_56"/><clipPath id="clip-path-13"><path class="cls-6" d="M433.62,43.88a12,12,0,1,0,11.95-12,12,12,0,0,0-11.95,12"/></clipPath><mask id="mask-5" x="399.99" y="-4.43" width="109.31" height="109.31" maskUnits="userSpaceOnUse"/><clipPath id="clip-path-14"><rect class="cls-2" x="439.2" y="34.78" width="30.9" height="30.9"/></clipPath><clipPath id="clip-path-15"><path class="cls-6" d="M464.58,38.41a15.44,15.44,0,1,1-21.76,1.89,15.44,15.44,0,0,1,21.76-1.89"/></clipPath></defs><title>szybka_normalizacja</title><g id="Warstwa_1" data-name="Warstwa 1"><path class="cls-7" d="M51.07,67.77a9.6,9.6,0,0,0,4.12,1c1.46,0,2.16-.5,2.16-1.3s-.7-1.22-2.49-1.83c-2.69-.95-4.48-2.43-4.48-4.78,0-2.81,2.38-5,6.38-5a10.19,10.19,0,0,1,4.29.82l-.9,3.39a8.35,8.35,0,0,0-3.43-.75c-1.3,0-2,.47-2,1.18s.84,1.13,2.84,1.86c2.85,1.06,4.13,2.59,4.13,4.8,0,2.73-2.12,5.06-6.76,5.06a11.23,11.23,0,0,1-4.66-1Z"/><path class="cls-7" d="M63.1,69.58l3-3.6c.73-.82,1.27-1.41,2-2.14v-.05H63.48V60.42h9.74V63l-2.77,3.36c-.69.8-1.35,1.58-2,2.26v0h5V72H63.1Z"/><path class="cls-7" d="M78.81,60.42l1.39,5.21c.16.63.37,1.48.51,2.07h.07c.15-.61.31-1.46.43-2l1.06-5.23h4.52l-2.47,7.37c-1.75,4.85-2.88,6.62-4.12,7.72a7,7,0,0,1-3.87,1.7l-.87-3.58a5.61,5.61,0,0,0,1.46-.45,3.39,3.39,0,0,0,1.37-1.06.93.93,0,0,0,.21-.51,1.33,1.33,0,0,0-.16-.62L74.1,60.42Z"/><path class="cls-7" d="M88.13,55.29h4.24V61.6h0a4,4,0,0,1,3.3-1.44c2.73,0,4.75,2.26,4.73,5.82,0,4.19-2.64,6.29-5.32,6.29a3.67,3.67,0,0,1-3.3-1.75h0L91.62,72H88c0-.76.09-2.24.09-3.68ZM92.37,67a5,5,0,0,0,0,.59A1.74,1.74,0,0,0,94.09,69c1.25,0,2-1,2-2.78,0-1.58-.64-2.76-2-2.76a1.71,1.71,0,0,0-1.67,1.44,5.54,5.54,0,0,0,0,.56Z"/><path class="cls-7" d="M106.74,65.13h0c.26-.52.5-1,.76-1.41l1.91-3.3h5.06l-4,4.66L115.1,72h-5.23l-2.28-4.43-.85,1.13V72H102.5V55.29h4.24Z"/><path class="cls-7" d="M126.31,69.18a18.08,18.08,0,0,0,.18,2.83h-3.81l-.21-1h-.1a4.07,4.07,0,0,1-3.2,1.28,3.64,3.64,0,0,1-3.84-3.65c0-3.11,2.81-4.5,6.74-4.5V64c0-.47-.36-1-1.91-1a7.42,7.42,0,0,0-3.27.84l-.73-2.66a10.29,10.29,0,0,1,4.8-1.06c4,0,5.35,2.22,5.35,5.11Zm-4.1-2.47c-1.74,0-2.71.47-2.71,1.51a1,1,0,0,0,1.2,1.1,1.57,1.57,0,0,0,1.46-1.08,2.2,2.2,0,0,0,0-.59Z"/><path class="cls-7" d="M132.58,66.52c0-.77,0-1.41-.06-2h1.21l.08,1.24h0a2.76,2.76,0,0,1,2.48-1.41c1.05,0,2.66.62,2.66,3.2V72h-1.37V67.67c0-1.21-.45-2.22-1.74-2.22a1.94,1.94,0,0,0-1.83,1.4,2,2,0,0,0-.09.64V72h-1.37Z"/><path class="cls-7" d="M148,68.19a3.68,3.68,0,0,1-3.75,4,3.57,3.57,0,0,1-3.6-3.87,3.67,3.67,0,0,1,3.73-4A3.56,3.56,0,0,1,148,68.19Zm-6,.07c0,1.65,1,2.89,2.29,2.89s2.28-1.23,2.28-2.92c0-1.27-.64-2.89-2.25-2.89S142,66.83,142,68.26Z"/><path class="cls-7" d="M149.74,66.83c0-.88,0-1.64-.07-2.34h1.2l0,1.47H151a2.24,2.24,0,0,1,2.08-1.64,1.61,1.61,0,0,1,.39,0v1.29a2.17,2.17,0,0,0-.47,0,1.92,1.92,0,0,0-1.83,1.75,4.1,4.1,0,0,0-.06.64v4h-1.35Z"/><path class="cls-7" d="M154.88,66.52c0-.77,0-1.41-.06-2H156l.06,1.21h.05a2.58,2.58,0,0,1,2.36-1.38,2.23,2.23,0,0,1,2.13,1.5h0a3,3,0,0,1,.84-1,2.52,2.52,0,0,1,1.66-.53c1,0,2.47.65,2.47,3.26V72h-1.33V67.75c0-1.44-.53-2.31-1.64-2.31A1.76,1.76,0,0,0,161,66.68a2.25,2.25,0,0,0-.11.68V72h-1.34V67.5c0-1.19-.52-2.06-1.56-2.06a1.87,1.87,0,0,0-1.7,1.36,1.85,1.85,0,0,0-.11.67V72h-1.33Z"/><path class="cls-7" d="M172,72l-.11-1h0a2.79,2.79,0,0,1-2.29,1.12,2.14,2.14,0,0,1-2.3-2.16c0-1.82,1.61-2.81,4.52-2.8v-.15a1.55,1.55,0,0,0-1.71-1.74,3.68,3.68,0,0,0-2,.56l-.31-.91a4.69,4.69,0,0,1,2.47-.66c2.3,0,2.86,1.57,2.86,3.07V70.2a11.06,11.06,0,0,0,.12,1.81Zm-.2-3.84c-1.49,0-3.19.23-3.19,1.69a1.21,1.21,0,0,0,1.29,1.31,1.87,1.87,0,0,0,1.82-1.26,1.36,1.36,0,0,0,.08-.44Z"/><path class="cls-7" d="M175.33,61h1.36V72h-1.36Z"/><path class="cls-7" d="M180.51,62.38a.8.8,0,0,1-.87.83.81.81,0,0,1-.82-.83.84.84,0,0,1,.86-.86A.81.81,0,0,1,180.51,62.38ZM179,72V64.49h1.37V72Z"/><path class="cls-7" d="M181.77,71.21l3.41-4.42c.32-.41.63-.76,1-1.17v0h-4.07v-1.1h5.74l0,.85-3.35,4.37c-.32.42-.63.79-1,1.18v0h4.4V72h-6.11Z"/><path class="cls-7" d="M193.44,72l-.11-1h0a2.81,2.81,0,0,1-2.3,1.12,2.14,2.14,0,0,1-2.3-2.16c0-1.82,1.61-2.81,4.52-2.8v-.15a1.55,1.55,0,0,0-1.71-1.74,3.68,3.68,0,0,0-2,.56l-.31-.91a4.69,4.69,0,0,1,2.47-.66c2.3,0,2.86,1.57,2.86,3.07V70.2a11.06,11.06,0,0,0,.12,1.81Zm-.2-3.84c-1.49,0-3.19.23-3.19,1.69a1.22,1.22,0,0,0,1.29,1.31,1.87,1.87,0,0,0,1.82-1.26,1.36,1.36,0,0,0,.08-.44Z"/><path class="cls-7" d="M202.13,71.73a5.17,5.17,0,0,1-2.16.43,3.58,3.58,0,0,1-3.75-3.84,3.82,3.82,0,0,1,4-4,4.55,4.55,0,0,1,1.9.39l-.31,1.06a3.15,3.15,0,0,0-1.59-.36,2.83,2.83,0,0,0,0,5.65,3.89,3.89,0,0,0,1.67-.37Z"/><path class="cls-7" d="M201.9,74.18a2.27,2.27,0,0,0,1.49-.57c.37-.44.51-1,.51-2.83V64.49h1.37v6.82a4.16,4.16,0,0,1-.9,3.09,3.53,3.53,0,0,1-2.34.85Zm3.52-11.8a.79.79,0,0,1-.85.83.81.81,0,0,1-.84-.83.84.84,0,0,1,.87-.86A.8.8,0,0,1,205.42,62.38Z"/><path class="cls-7" d="M211.67,72l-.11-1h-.05a2.81,2.81,0,0,1-2.3,1.12,2.14,2.14,0,0,1-2.3-2.16c0-1.82,1.62-2.81,4.52-2.8v-.15a1.55,1.55,0,0,0-1.71-1.74,3.68,3.68,0,0,0-1.95.56l-.31-.91a4.69,4.69,0,0,1,2.47-.66c2.3,0,2.85,1.57,2.85,3.07V70.2a11,11,0,0,0,.13,1.81Zm-.2-3.84c-1.5,0-3.19.23-3.19,1.69a1.21,1.21,0,0,0,1.29,1.31,1.87,1.87,0,0,0,1.82-1.26,1.7,1.7,0,0,0,.08-.44Z"/><path class="cls-7" d="M218.29,66.94c0-1,0-1.74-.06-2.45h1.22l.07,1.29h0a2.94,2.94,0,0,1,2.67-1.46c1.82,0,3.18,1.54,3.18,3.82,0,2.7-1.64,4-3.41,4A2.65,2.65,0,0,1,219.67,71h0v4.08h-1.35Zm1.35,2a3.31,3.31,0,0,0,.06.56,2.12,2.12,0,0,0,2.05,1.6c1.45,0,2.29-1.19,2.29-2.91,0-1.51-.8-2.8-2.24-2.8a2.19,2.19,0,0,0-2.07,1.7,2.52,2.52,0,0,0-.09.56Z"/><path class="cls-7" d="M233.93,68.19a3.67,3.67,0,0,1-3.74,4,3.57,3.57,0,0,1-3.6-3.87,3.66,3.66,0,0,1,3.72-4A3.56,3.56,0,0,1,233.93,68.19Zm-6,.07c0,1.65.95,2.89,2.28,2.89s2.29-1.23,2.29-2.92c0-1.27-.64-2.89-2.26-2.89S228,66.83,228,68.26Z"/><path class="cls-7" d="M234.7,71.21l3.4-4.42c.32-.41.64-.76,1-1.17v0H235v-1.1h5.73l0,.85-3.35,4.37c-.31.42-.62.79-1,1.18v0h4.39V72h-6.1Z"/><path class="cls-7" d="M243.72,62.38a.8.8,0,0,1-.87.83.81.81,0,0,1-.82-.83.83.83,0,0,1,.85-.86A.81.81,0,0,1,243.72,62.38ZM242.2,72V64.49h1.37V72Z"/><path class="cls-7" d="M252.64,68.19a3.67,3.67,0,0,1-3.74,4,3.58,3.58,0,0,1-3.61-3.87,3.67,3.67,0,0,1,3.73-4A3.56,3.56,0,0,1,252.64,68.19Zm-6,.07c0,1.65,1,2.89,2.29,2.89s2.28-1.23,2.28-2.92c0-1.27-.64-2.89-2.25-2.89S246.67,66.83,246.67,68.26Z"/><path class="cls-7" d="M254.37,66.52c0-.77,0-1.41-.07-2h1.2l.06,1.21h.05A2.58,2.58,0,0,1,258,64.32a2.23,2.23,0,0,1,2.13,1.5h0a3,3,0,0,1,.84-1,2.52,2.52,0,0,1,1.66-.53c1,0,2.47.65,2.47,3.26V72h-1.34V67.75c0-1.44-.52-2.31-1.63-2.31a1.76,1.76,0,0,0-1.61,1.24,2.25,2.25,0,0,0-.11.68V72h-1.34V67.5c0-1.19-.52-2.06-1.57-2.06a1.87,1.87,0,0,0-1.69,1.36,1.85,1.85,0,0,0-.11.67V72h-1.33Z"/><path class="cls-7" d="M273.62,70c0,.77,0,1.46.06,2.05h-1.21l-.08-1.23h0a2.85,2.85,0,0,1-2.49,1.4c-1.18,0-2.59-.66-2.59-3.3V64.49h1.37v4.16c0,1.43.43,2.39,1.67,2.39a1.94,1.94,0,0,0,1.93-1.94V64.49h1.37Z"/><path class="cls-7" d="M50.57,83.55h4.09v6.36h.05A3.9,3.9,0,0,1,56,88.82a3.85,3.85,0,0,1,1.69-.39c2.51,0,3.92,1.85,3.92,5.13v6.71h-4.1V94c0-1.37-.43-2.19-1.44-2.19a1.4,1.4,0,0,0-1.34.92,2.27,2.27,0,0,0-.09.68v6.83H50.57Z"/><path class="cls-7" d="M67.25,96c.14.92,1.41,1.44,2.85,1.44a9.43,9.43,0,0,0,3-.45l.52,2.85a11.1,11.1,0,0,1-4.16.73c-3.91,0-6.13-2.26-6.13-5.94,0-2.68,1.68-6.16,5.77-6.16,3.6,0,5.13,2.75,5.13,5.93A7.63,7.63,0,0,1,74.1,96Zm3.26-2.87a1.69,1.69,0,0,0-1.58-1.89c-1.2,0-1.65,1.16-1.72,1.89Z"/><path class="cls-7" d="M75.91,92.64c0-1.55,0-2.87-.09-4h3.42l.15,1.46h.09a3.86,3.86,0,0,1,3.31-1.71,3,3,0,0,1,3,1.85h0a4.58,4.58,0,0,1,1.54-1.38,4,4,0,0,1,2-.47c2.4,0,3.78,1.81,3.78,5v6.81h-4V94.1c0-1.44-.4-2.26-1.31-2.26a1.27,1.27,0,0,0-1.24,1,2.65,2.65,0,0,0-.12.85v6.59H82.54V94c0-1.29-.39-2.14-1.31-2.14a1.37,1.37,0,0,0-1.25.94,2.89,2.89,0,0,0-.11.87v6.62h-4Z"/><path class="cls-7" d="M106.75,94.36c0,4.21-2.89,6.17-6,6.17a5.62,5.62,0,0,1-5.91-6A5.73,5.73,0,0,1,101,88.43,5.57,5.57,0,0,1,106.75,94.36ZM99,94.48c0,1.74.54,3.06,1.81,3.06,1.11,0,1.69-1.2,1.69-3.06,0-1.61-.49-3.07-1.69-3.07C99.49,91.41,99,93,99,94.48Z"/><path class="cls-7" d="M119.55,98.57c0,2-.39,4-1.74,5.18a6.84,6.84,0,0,1-4.69,1.44,9.23,9.23,0,0,1-4.13-.87l.77-3.21A6.71,6.71,0,0,0,113,102a2.38,2.38,0,0,0,2.57-2.61v-.52h0a3.42,3.42,0,0,1-2.78,1.3c-2.72,0-4.68-2.26-4.68-5.63,0-3.65,2.26-6.07,5-6.07a3.11,3.11,0,0,1,2.87,1.5h0l.13-1.25h3.51c0,.73-.09,1.72-.09,3.58Zm-4.07-5.11a4.51,4.51,0,0,0,0-.54A1.45,1.45,0,0,0,114,91.6c-1,0-1.81,1-1.81,2.83,0,1.51.68,2.61,1.81,2.61a1.45,1.45,0,0,0,1.43-1.15,3.57,3.57,0,0,0,.07-.87Z"/><path class="cls-7" d="M121.85,83.55h4.09v16.72h-4.09Z"/><path class="cls-7" d="M139.62,94.36c0,4.21-2.89,6.17-6,6.17a5.61,5.61,0,0,1-5.9-6c0-3.7,2.32-6.14,6.12-6.14A5.56,5.56,0,0,1,139.62,94.36Zm-7.71.12c0,1.74.54,3.06,1.81,3.06,1.11,0,1.7-1.2,1.7-3.06,0-1.61-.5-3.07-1.7-3.07C132.36,91.41,131.91,93,131.91,94.48Z"/><path class="cls-7" d="M141.38,83.55h4.07v6.31h.05a3.78,3.78,0,0,1,3.16-1.43c2.63,0,4.57,2.26,4.55,5.81,0,4.19-2.53,6.29-5.11,6.29a3.49,3.49,0,0,1-3.17-1.75h0l-.16,1.49h-3.44c.05-.76.09-2.24.09-3.68Zm4.07,11.68a5,5,0,0,0,.05.59,1.69,1.69,0,0,0,1.6,1.39c1.2,0,2-.94,2-2.78,0-1.58-.61-2.76-2-2.76a1.67,1.67,0,0,0-1.6,1.44,5.48,5.48,0,0,0-.05.57Z"/><path class="cls-7" d="M159.08,85.51a2,2,0,0,1-2.1,2,2,2,0,1,1,2.1-2ZM155,100.27V88.68H159v11.59Z"/><path class="cls-7" d="M161.35,92.64c0-1.55,0-2.87-.1-4h3.53l.18,1.49H165a4,4,0,0,1,3.35-1.74c2.6,0,4,1.83,4,5v6.83h-4.09V94c0-1.34-.43-2.12-1.42-2.12a1.41,1.41,0,0,0-1.34,1,2.4,2.4,0,0,0-.11.85v6.57h-4.09Z"/><path class="cls-7" d="M177.58,88.68l1.33,5.21c.16.63.36,1.48.5,2.07h.07c.13-.61.29-1.46.41-2l1-5.23h4.34l-2.37,7.37c-1.67,4.85-2.76,6.62-4,7.73a6.54,6.54,0,0,1-3.71,1.69l-.83-3.58a5.49,5.49,0,0,0,1.4-.45,3.32,3.32,0,0,0,1.31-1.06,1,1,0,0,0,.21-.51,1.5,1.5,0,0,0-.16-.62l-4.07-10.57Z"/><path class="cls-7" d="M187.64,102.44a2.06,2.06,0,0,0,1.43-.57c.36-.44.5-1,.5-2.83V92.75h1.31v6.82a4.24,4.24,0,0,1-.87,3.09,3.21,3.21,0,0,1-2.23.85ZM191,90.64a.79.79,0,0,1-.82.84.8.8,0,0,1-.81-.84.83.83,0,0,1,.84-.86A.8.8,0,0,1,191,90.64Z"/><path class="cls-7" d="M198.93,98.22c0,.77,0,1.46.06,2h-1.16L197.75,99h0a2.71,2.71,0,0,1-2.39,1.4c-1.14,0-2.49-.65-2.49-3.29v-4.4h1.31v4.16c0,1.43.42,2.39,1.61,2.39a1.9,1.9,0,0,0,1.73-1.24,1.94,1.94,0,0,0,.12-.7V92.75h1.31Z"/><path class="cls-7" d="M200.16,99.48l3.26-4.43c.32-.41.61-.76.94-1.17v0h-3.91v-1.1H206l0,.85L202.72,98c-.3.42-.6.79-.92,1.18v0H206v1.09h-5.86Zm2.2-8.86a.78.78,0,0,1,.76-.81.77.77,0,0,1,.74.81.76.76,0,0,1-.74.79A.77.77,0,0,1,202.36,90.62Z"/><path class="cls-7" d="M210.37,92.64c0-1.55-.05-2.87-.09-4h3.5l.18,1.49h0a4.23,4.23,0,0,1,3.62-1.74c2.3,0,4.56,2.14,4.56,5.9,0,4.24-2.64,6.2-5.06,6.2a3.24,3.24,0,0,1-2.65-1.11h0v5.51h-4.07Zm4.07,2.57a3.08,3.08,0,0,0,.07.7,1.65,1.65,0,0,0,1.58,1.39c1.22,0,2-1.08,2-2.75s-.64-2.81-1.93-2.81a1.75,1.75,0,0,0-1.65,1.49,2.33,2.33,0,0,0,0,.54Z"/><path class="cls-7" d="M235.4,94.36c0,4.21-2.9,6.17-6,6.17a5.61,5.61,0,0,1-5.9-6,5.73,5.73,0,0,1,6.13-6.14A5.57,5.57,0,0,1,235.4,94.36Zm-7.72.12c0,1.74.55,3.06,1.81,3.06,1.11,0,1.7-1.2,1.7-3.06,0-1.61-.5-3.07-1.7-3.07C228.14,91.41,227.68,93,227.68,94.48Z"/><path class="cls-7" d="M247.13,100.27V96.83h-6.38V94.08L245.86,85H251v8.72h1.63v3.15H251v3.44Zm0-6.59V91.06c0-1,.07-2,.11-3h-.09c-.47,1-.88,2-1.42,3.06l-1.25,2.54,0,.05Z"/><path class="cls-7" d="M262.86,85.39v3.29h2.31v3.11h-2.31v3.32c0,1.39.3,2,1.29,2a2.75,2.75,0,0,0,1-.1v3.23a7.58,7.58,0,0,1-2.42.33,3.89,3.89,0,0,1-2.78-1.06,5.07,5.07,0,0,1-1-3.61V91.79H257.5V88.68h1.38V86.52Z"/><path class="cls-7" d="M270.3,88.68l1.33,5.21c.16.63.37,1.48.5,2.07h.07c.14-.61.29-1.46.41-2l1-5.23H278l-2.38,7.37c-1.67,4.85-2.76,6.62-4,7.73a6.52,6.52,0,0,1-3.7,1.69l-.84-3.58a5.25,5.25,0,0,0,1.4-.45,3.32,3.32,0,0,0,1.31-1.06.93.93,0,0,0,.21-.51,1.5,1.5,0,0,0-.16-.62l-4.07-10.57Z"/><path class="cls-7" d="M289.63,98.57c0,2-.38,4-1.74,5.18a6.82,6.82,0,0,1-4.68,1.44,9.25,9.25,0,0,1-4.14-.87l.77-3.21a6.78,6.78,0,0,0,3.21.85,2.39,2.39,0,0,0,2.58-2.61v-.52h-.05a3.4,3.4,0,0,1-2.78,1.3c-2.71,0-4.68-2.26-4.68-5.63,0-3.65,2.26-6.07,5.05-6.07a3.12,3.12,0,0,1,2.87,1.5h0l.14-1.25h3.5c0,.73-.09,1.72-.09,3.58Zm-4.07-5.11a4.56,4.56,0,0,0,0-.54,1.45,1.45,0,0,0-1.45-1.32c-1,0-1.81,1-1.81,2.83,0,1.51.68,2.61,1.81,2.61a1.43,1.43,0,0,0,1.42-1.15,3.57,3.57,0,0,0,.07-.87Z"/><path class="cls-7" d="M303.31,94.36c0,4.21-2.9,6.17-6,6.17a5.61,5.61,0,0,1-5.9-6,5.73,5.73,0,0,1,6.13-6.14A5.57,5.57,0,0,1,303.31,94.36Zm-7.71.12c0,1.74.54,3.06,1.81,3.06,1.11,0,1.69-1.2,1.69-3.06,0-1.61-.49-3.07-1.69-3.07C296.05,91.41,295.6,93,295.6,94.48Z"/><path class="cls-7" d="M316.4,83.55V96.62c0,1.43,0,2.87.09,3.65h-3.62l-.16-1.56h0a3.73,3.73,0,0,1-3.37,1.82c-2.58,0-4.73-2.33-4.73-6,0-3.91,2.36-6.14,5-6.14a3.15,3.15,0,0,1,2.73,1.12h.05v-6ZM312.33,93.7a4.78,4.78,0,0,0,0-.54,1.7,1.7,0,0,0-1.61-1.49c-1.38,0-2,1.28-2,2.78,0,1.79.84,2.71,2,2.71a1.62,1.62,0,0,0,1.58-1.39,2.73,2.73,0,0,0,.07-.78Z"/><path class="cls-7" d="M318.7,92.64c0-1.55,0-2.87-.09-4h3.53l.18,1.49h.07a4,4,0,0,1,3.35-1.74c2.6,0,4,1.83,4,5v6.83h-4.09V94c0-1.34-.43-2.12-1.43-2.12a1.41,1.41,0,0,0-1.33,1,2.4,2.4,0,0,0-.11.85v6.57h-4.1Z"/><path class="cls-7" d="M336.16,85.51a2,2,0,0,1-2.11,2,2,2,0,1,1,2.11-2ZM332,100.27V88.68h4.09v11.59Z"/><path class="cls-7" d="M348.3,97.44a18,18,0,0,0,.18,2.83h-3.66l-.21-1h-.09a3.82,3.82,0,0,1-3.07,1.28,3.57,3.57,0,0,1-3.69-3.65c0-3.11,2.69-4.5,6.47-4.5v-.09c0-.47-.34-1-1.83-1a6.92,6.92,0,0,0-3.15.84l-.7-2.66a9.62,9.62,0,0,1,4.62-1c3.82,0,5.13,2.21,5.13,5.1ZM344.36,95c-1.67,0-2.6.47-2.6,1.51a1,1,0,0,0,1.16,1.1,1.53,1.53,0,0,0,1.4-1.08,2.69,2.69,0,0,0,0-.59Z"/><path class="cls-7" d="M359.15,100a7.57,7.57,0,0,1-3,.49c-3.71,0-6-2.26-6-5.93,0-3.32,2.19-6.14,6.53-6.14a8.08,8.08,0,0,1,2.56.39l-.57,3.11a4.49,4.49,0,0,0-1.76-.28,2.52,2.52,0,0,0-2.58,2.76,2.57,2.57,0,0,0,2.69,2.8,4.66,4.66,0,0,0,1.79-.31Z"/><path class="cls-7" d="M360.62,83.55h4.09v6.36h.05a3.9,3.9,0,0,1,1.31-1.09,3.85,3.85,0,0,1,1.69-.39c2.51,0,3.91,1.85,3.91,5.13v6.71h-4.09V94c0-1.37-.43-2.19-1.45-2.19a1.39,1.39,0,0,0-1.33.92,2.27,2.27,0,0,0-.09.68v6.83h-4.09Z"/><path class="cls-7" d="M377.37,86a7.6,7.6,0,0,0-1.36,4.6,7.8,7.8,0,0,0,1.36,4.57h-.75a7.51,7.51,0,0,1-1.41-4.57,7.6,7.6,0,0,1,1.41-4.6Z"/><path class="cls-7" d="M382.15,87.36h-2.68l-.27,1.88a4,4,0,0,1,.57,0,2.86,2.86,0,0,1,1.51.39,2.12,2.12,0,0,1,1,1.88,2.48,2.48,0,0,1-2.61,2.5,3.36,3.36,0,0,1-1.75-.45l.24-.76a3,3,0,0,0,1.49.41,1.58,1.58,0,0,0,1.67-1.59c0-.94-.62-1.62-2-1.62a7.55,7.55,0,0,0-1,.08l.45-3.51h3.36Z"/><path class="cls-7" d="M383.13,95.21a7.84,7.84,0,0,0,1.36-4.61A7.63,7.63,0,0,0,383.13,86h.73a7.35,7.35,0,0,1,1.42,4.58,7.53,7.53,0,0,1-1.42,4.59Z"/><g class="cls-8"><path class="cls-9" d="M32.38,97.13A12.5,12.5,0,0,1,26,95.37L-1.89,78.78a12.45,12.45,0,0,1-5.72-7.66,12.51,12.51,0,0,1,1.37-9.47L10.35,33.78a12.49,12.49,0,0,1,17.13-4.35L55.35,46A12.49,12.49,0,0,1,59.7,63.14L43.12,91a12.53,12.53,0,0,1-10.74,6.11Z"/><path class="cls-10" d="M21.09,40.17,49,56.75,32.38,84.63,4.5,68,21.09,40.17m0-25A25,25,0,0,0-.4,27.39L-17,55.26a25,25,0,0,0,8.7,34.27L19.6,106.11a25,25,0,0,0,34.26-8.7L70.45,69.53a25,25,0,0,0-8.71-34.26L33.87,18.68a24.93,24.93,0,0,0-12.76-3.52Z"/></g><path class="cls-6" d="M14.9,62.4A11.83,11.83,0,1,0,26.73,50.57,11.83,11.83,0,0,0,14.9,62.4"/><g class="cls-11"><path class="cls-12" d="M31.66,94.33a12.44,12.44,0,0,1-6.38-1.76L.92,78.07A12.49,12.49,0,0,1-3.44,60.94l14.5-24.36a12.49,12.49,0,0,1,17.13-4.35L52.55,46.72A12.49,12.49,0,0,1,56.9,63.86L42.41,88.22A12.51,12.51,0,0,1,31.66,94.33Z"/><path class="cls-10" d="M21.8,43,46.16,57.46,31.67,81.82,7.31,67.33,21.8,43m0-25A25,25,0,0,0,.31,30.19L-14.18,54.55a25,25,0,0,0,8.7,34.27l24.37,14.49a25,25,0,0,0,34.26-8.7l14.5-24.36A25,25,0,0,0,58.94,36L34.58,21.49A25,25,0,0,0,21.8,18Z"/></g><path class="cls-6" d="M16.39,62.4A10.34,10.34,0,1,0,26.73,52.06,10.34,10.34,0,0,0,16.39,62.4"/><g class="cls-13"><g class="cls-14"><g class="cls-15"><path class="cls-16" d="M23.69,110.52a12.53,12.53,0,0,1-11.53-7.68L-5.16,61.49a12.51,12.51,0,0,1,6.7-16.36L42.9,27.81a12.5,12.5,0,0,1,16.36,6.7L76.57,75.87a12.5,12.5,0,0,1-6.7,16.36L28.52,109.54A12.45,12.45,0,0,1,23.69,110.52Z"/><path class="cls-10" d="M47.73,39.34,65.05,80.7,23.69,98,6.37,56.66,47.73,39.34m0-25a25,25,0,0,0-9.65,2L-3.29,33.6a25,25,0,0,0-13.4,32.72L.63,107.67a25,25,0,0,0,32.72,13.4L74.7,103.76A25,25,0,0,0,88.11,71L70.79,29.68A25,25,0,0,0,47.72,14.33Z"/></g><path class="cls-6" d="M45.54,57A15.28,15.28,0,1,1,24,58.85,15.28,15.28,0,0,1,45.54,57"/></g></g><g class="cls-17"><g class="cls-18"><path class="cls-19" d="M24.49,86.19a12.46,12.46,0,0,1-8.69-4l-14-15.06a12.51,12.51,0,0,1,.65-17.67L17.7,35.3A12.48,12.48,0,0,1,26.21,32h.45a12.46,12.46,0,0,1,8.7,4L49.36,51a12.49,12.49,0,0,1-.64,17.66L33.46,82.86A12.5,12.5,0,0,1,25,86.2Z"/><path class="cls-10" d="M26.21,44.46l14,15.06L25,73.7,11,58.64,26.21,44.46m0-25a24.88,24.88,0,0,0-17,6.69L-6.07,40.32A25,25,0,0,0-7.36,75.65l14,15.07A25,25,0,0,0,42,92L57.23,77.84a25,25,0,0,0,1.29-35.33l-14-15.07a24.93,24.93,0,0,0-18.32-8Z"/></g></g><path class="cls-6" d="M23.74,53.76c-4.17,1.56-6.73,5-5.71,7.74s5.21,3.65,9.39,2.1,6.73-5,5.72-7.74C32.46,54,30.33,53,27.74,53a11.55,11.55,0,0,0-4,.75"/></g><g id="Warstwa_1_kopia" data-name="Warstwa 1 kopia"><path class="cls-20" d="M51.07,67.77a9.6,9.6,0,0,0,4.12,1c1.46,0,2.16-.5,2.16-1.3s-.7-1.22-2.49-1.83c-2.69-.95-4.48-2.43-4.48-4.78,0-2.81,2.38-5,6.38-5a10.19,10.19,0,0,1,4.29.82l-.9,3.39a8.35,8.35,0,0,0-3.43-.75c-1.3,0-2,.47-2,1.18s.84,1.13,2.84,1.86c2.85,1.06,4.13,2.59,4.13,4.8,0,2.73-2.12,5.06-6.76,5.06a11.23,11.23,0,0,1-4.66-1Z"/><path class="cls-20" d="M63.1,69.58l3-3.6c.73-.82,1.27-1.41,2-2.14v-.05H63.48V60.42h9.74V63l-2.77,3.36c-.69.8-1.35,1.58-2,2.26v0h5V72H63.1Z"/><path class="cls-20" d="M78.81,60.42l1.39,5.21c.16.63.37,1.48.51,2.07h.07c.15-.61.31-1.46.43-2l1.06-5.23h4.52l-2.47,7.37c-1.75,4.85-2.88,6.62-4.12,7.72a7,7,0,0,1-3.87,1.7l-.87-3.58a5.61,5.61,0,0,0,1.46-.45,3.39,3.39,0,0,0,1.37-1.06.93.93,0,0,0,.21-.51,1.33,1.33,0,0,0-.16-.62L74.1,60.42Z"/><path class="cls-20" d="M88.13,55.29h4.24V61.6h0a4,4,0,0,1,3.3-1.44c2.73,0,4.75,2.26,4.73,5.82,0,4.19-2.64,6.29-5.32,6.29a3.67,3.67,0,0,1-3.3-1.75h0L91.62,72H88c0-.76.09-2.24.09-3.68ZM92.37,67a5,5,0,0,0,0,.59A1.74,1.74,0,0,0,94.09,69c1.25,0,2-1,2-2.78,0-1.58-.64-2.76-2-2.76a1.71,1.71,0,0,0-1.67,1.44,5.54,5.54,0,0,0,0,.56Z"/><path class="cls-20" d="M106.74,65.13h0c.26-.52.5-1,.76-1.41l1.91-3.3h5.06l-4,4.66L115.1,72h-5.23l-2.28-4.43-.85,1.13V72H102.5V55.29h4.24Z"/><path class="cls-20" d="M126.31,69.18a18.08,18.08,0,0,0,.18,2.83h-3.81l-.21-1h-.1a4.07,4.07,0,0,1-3.2,1.28,3.64,3.64,0,0,1-3.84-3.65c0-3.11,2.81-4.5,6.74-4.5V64c0-.47-.36-1-1.91-1a7.42,7.42,0,0,0-3.27.84l-.73-2.66a10.29,10.29,0,0,1,4.8-1.06c4,0,5.35,2.22,5.35,5.11Zm-4.1-2.47c-1.74,0-2.71.47-2.71,1.51a1,1,0,0,0,1.2,1.1,1.57,1.57,0,0,0,1.46-1.08,2.2,2.2,0,0,0,0-.59Z"/><path class="cls-20" d="M132.58,66.52c0-.77,0-1.41-.06-2h1.21l.08,1.24h0a2.76,2.76,0,0,1,2.48-1.41c1.05,0,2.66.62,2.66,3.2V72h-1.37V67.67c0-1.21-.45-2.22-1.74-2.22a1.94,1.94,0,0,0-1.83,1.4,2,2,0,0,0-.09.64V72h-1.37Z"/><path class="cls-20" d="M148,68.19a3.68,3.68,0,0,1-3.75,4,3.57,3.57,0,0,1-3.6-3.87,3.67,3.67,0,0,1,3.73-4A3.56,3.56,0,0,1,148,68.19Zm-6,.07c0,1.65,1,2.89,2.29,2.89s2.28-1.23,2.28-2.92c0-1.27-.64-2.89-2.25-2.89S142,66.83,142,68.26Z"/><path class="cls-20" d="M149.74,66.83c0-.88,0-1.64-.07-2.34h1.2l0,1.47H151a2.24,2.24,0,0,1,2.08-1.64,1.61,1.61,0,0,1,.39,0v1.29a2.17,2.17,0,0,0-.47,0,1.92,1.92,0,0,0-1.83,1.75,4.1,4.1,0,0,0-.06.64v4h-1.35Z"/><path class="cls-20" d="M154.88,66.52c0-.77,0-1.41-.06-2H156l.06,1.21h.05a2.58,2.58,0,0,1,2.36-1.38,2.23,2.23,0,0,1,2.13,1.5h0a3,3,0,0,1,.84-1,2.52,2.52,0,0,1,1.66-.53c1,0,2.47.65,2.47,3.26V72h-1.33V67.75c0-1.44-.53-2.31-1.64-2.31A1.76,1.76,0,0,0,161,66.68a2.25,2.25,0,0,0-.11.68V72h-1.34V67.5c0-1.19-.52-2.06-1.56-2.06a1.87,1.87,0,0,0-1.7,1.36,1.85,1.85,0,0,0-.11.67V72h-1.33Z"/><path class="cls-20" d="M172,72l-.11-1h0a2.79,2.79,0,0,1-2.29,1.12,2.14,2.14,0,0,1-2.3-2.16c0-1.82,1.61-2.81,4.52-2.8v-.15a1.55,1.55,0,0,0-1.71-1.74,3.68,3.68,0,0,0-2,.56l-.31-.91a4.69,4.69,0,0,1,2.47-.66c2.3,0,2.86,1.57,2.86,3.07V70.2a11.06,11.06,0,0,0,.12,1.81Zm-.2-3.84c-1.49,0-3.19.23-3.19,1.69a1.21,1.21,0,0,0,1.29,1.31,1.87,1.87,0,0,0,1.82-1.26,1.36,1.36,0,0,0,.08-.44Z"/><path class="cls-20" d="M175.33,61h1.36V72h-1.36Z"/><path class="cls-20" d="M180.51,62.38a.8.8,0,0,1-.87.83.81.81,0,0,1-.82-.83.84.84,0,0,1,.86-.86A.81.81,0,0,1,180.51,62.38ZM179,72V64.49h1.37V72Z"/><path class="cls-20" d="M181.77,71.21l3.41-4.42c.32-.41.63-.76,1-1.17v0h-4.07v-1.1h5.74l0,.85-3.35,4.37c-.32.42-.63.79-1,1.18v0h4.4V72h-6.11Z"/><path class="cls-20" d="M193.44,72l-.11-1h0a2.81,2.81,0,0,1-2.3,1.12,2.14,2.14,0,0,1-2.3-2.16c0-1.82,1.61-2.81,4.52-2.8v-.15a1.55,1.55,0,0,0-1.71-1.74,3.68,3.68,0,0,0-2,.56l-.31-.91a4.69,4.69,0,0,1,2.47-.66c2.3,0,2.86,1.57,2.86,3.07V70.2a11.06,11.06,0,0,0,.12,1.81Zm-.2-3.84c-1.49,0-3.19.23-3.19,1.69a1.22,1.22,0,0,0,1.29,1.31,1.87,1.87,0,0,0,1.82-1.26,1.36,1.36,0,0,0,.08-.44Z"/><path class="cls-20" d="M202.13,71.73a5.17,5.17,0,0,1-2.16.43,3.58,3.58,0,0,1-3.75-3.84,3.82,3.82,0,0,1,4-4,4.55,4.55,0,0,1,1.9.39l-.31,1.06a3.15,3.15,0,0,0-1.59-.36,2.83,2.83,0,0,0,0,5.65,3.89,3.89,0,0,0,1.67-.37Z"/><path class="cls-20" d="M201.9,74.18a2.27,2.27,0,0,0,1.49-.57c.37-.44.51-1,.51-2.83V64.49h1.37v6.82a4.16,4.16,0,0,1-.9,3.09,3.53,3.53,0,0,1-2.34.85Zm3.52-11.8a.79.79,0,0,1-.85.83.81.81,0,0,1-.84-.83.84.84,0,0,1,.87-.86A.8.8,0,0,1,205.42,62.38Z"/><path class="cls-20" d="M211.67,72l-.11-1h-.05a2.81,2.81,0,0,1-2.3,1.12,2.14,2.14,0,0,1-2.3-2.16c0-1.82,1.62-2.81,4.52-2.8v-.15a1.55,1.55,0,0,0-1.71-1.74,3.68,3.68,0,0,0-1.95.56l-.31-.91a4.69,4.69,0,0,1,2.47-.66c2.3,0,2.85,1.57,2.85,3.07V70.2a11,11,0,0,0,.13,1.81Zm-.2-3.84c-1.5,0-3.19.23-3.19,1.69a1.21,1.21,0,0,0,1.29,1.31,1.87,1.87,0,0,0,1.82-1.26,1.7,1.7,0,0,0,.08-.44Z"/><path class="cls-20" d="M218.29,66.94c0-1,0-1.74-.06-2.45h1.22l.07,1.29h0a2.94,2.94,0,0,1,2.67-1.46c1.82,0,3.18,1.54,3.18,3.82,0,2.7-1.64,4-3.41,4A2.65,2.65,0,0,1,219.67,71h0v4.08h-1.35Zm1.35,2a3.31,3.31,0,0,0,.06.56,2.12,2.12,0,0,0,2.05,1.6c1.45,0,2.29-1.19,2.29-2.91,0-1.51-.8-2.8-2.24-2.8a2.19,2.19,0,0,0-2.07,1.7,2.52,2.52,0,0,0-.09.56Z"/><path class="cls-20" d="M233.93,68.19a3.67,3.67,0,0,1-3.74,4,3.57,3.57,0,0,1-3.6-3.87,3.66,3.66,0,0,1,3.72-4A3.56,3.56,0,0,1,233.93,68.19Zm-6,.07c0,1.65.95,2.89,2.28,2.89s2.29-1.23,2.29-2.92c0-1.27-.64-2.89-2.26-2.89S228,66.83,228,68.26Z"/><path class="cls-20" d="M234.7,71.21l3.4-4.42c.32-.41.64-.76,1-1.17v0H235v-1.1h5.73l0,.85-3.35,4.37c-.31.42-.62.79-1,1.18v0h4.39V72h-6.1Z"/><path class="cls-20" d="M243.72,62.38a.8.8,0,0,1-.87.83.81.81,0,0,1-.82-.83.83.83,0,0,1,.85-.86A.81.81,0,0,1,243.72,62.38ZM242.2,72V64.49h1.37V72Z"/><path class="cls-20" d="M252.64,68.19a3.67,3.67,0,0,1-3.74,4,3.58,3.58,0,0,1-3.61-3.87,3.67,3.67,0,0,1,3.73-4A3.56,3.56,0,0,1,252.64,68.19Zm-6,.07c0,1.65,1,2.89,2.29,2.89s2.28-1.23,2.28-2.92c0-1.27-.64-2.89-2.25-2.89S246.67,66.83,246.67,68.26Z"/><path class="cls-20" d="M254.37,66.52c0-.77,0-1.41-.07-2h1.2l.06,1.21h.05A2.58,2.58,0,0,1,258,64.32a2.23,2.23,0,0,1,2.13,1.5h0a3,3,0,0,1,.84-1,2.52,2.52,0,0,1,1.66-.53c1,0,2.47.65,2.47,3.26V72h-1.34V67.75c0-1.44-.52-2.31-1.63-2.31a1.76,1.76,0,0,0-1.61,1.24,2.25,2.25,0,0,0-.11.68V72h-1.34V67.5c0-1.19-.52-2.06-1.57-2.06a1.87,1.87,0,0,0-1.69,1.36,1.85,1.85,0,0,0-.11.67V72h-1.33Z"/><path class="cls-20" d="M273.62,70c0,.77,0,1.46.06,2.05h-1.21l-.08-1.23h0a2.85,2.85,0,0,1-2.49,1.4c-1.18,0-2.59-.66-2.59-3.3V64.49h1.37v4.16c0,1.43.43,2.39,1.67,2.39a1.94,1.94,0,0,0,1.93-1.94V64.49h1.37Z"/><path class="cls-20" d="M50.57,83.55h4.09v6.36h.05A3.9,3.9,0,0,1,56,88.82a3.85,3.85,0,0,1,1.69-.39c2.51,0,3.92,1.85,3.92,5.13v6.71h-4.1V94c0-1.37-.43-2.19-1.44-2.19a1.4,1.4,0,0,0-1.34.92,2.27,2.27,0,0,0-.09.68v6.83H50.57Z"/><path class="cls-20" d="M67.25,96c.14.92,1.41,1.44,2.85,1.44a9.43,9.43,0,0,0,3-.45l.52,2.85a11.1,11.1,0,0,1-4.16.73c-3.91,0-6.13-2.26-6.13-5.94,0-2.68,1.68-6.16,5.77-6.16,3.6,0,5.13,2.75,5.13,5.93A7.63,7.63,0,0,1,74.1,96Zm3.26-2.87a1.69,1.69,0,0,0-1.58-1.89c-1.2,0-1.65,1.16-1.72,1.89Z"/><path class="cls-20" d="M75.91,92.64c0-1.55,0-2.87-.09-4h3.42l.15,1.46h.09a3.86,3.86,0,0,1,3.31-1.71,3,3,0,0,1,3,1.85h0a4.58,4.58,0,0,1,1.54-1.38,4,4,0,0,1,2-.47c2.4,0,3.78,1.81,3.78,5v6.81h-4V94.1c0-1.44-.4-2.26-1.31-2.26a1.27,1.27,0,0,0-1.24,1,2.65,2.65,0,0,0-.12.85v6.59H82.54V94c0-1.29-.39-2.14-1.31-2.14a1.37,1.37,0,0,0-1.25.94,2.89,2.89,0,0,0-.11.87v6.62h-4Z"/><path class="cls-20" d="M106.75,94.36c0,4.21-2.89,6.17-6,6.17a5.62,5.62,0,0,1-5.91-6A5.73,5.73,0,0,1,101,88.43,5.57,5.57,0,0,1,106.75,94.36ZM99,94.48c0,1.74.54,3.06,1.81,3.06,1.11,0,1.69-1.2,1.69-3.06,0-1.61-.49-3.07-1.69-3.07C99.49,91.41,99,93,99,94.48Z"/><path class="cls-20" d="M119.55,98.57c0,2-.39,4-1.74,5.18a6.84,6.84,0,0,1-4.69,1.44,9.23,9.23,0,0,1-4.13-.87l.77-3.21A6.71,6.71,0,0,0,113,102a2.38,2.38,0,0,0,2.57-2.61v-.52h0a3.42,3.42,0,0,1-2.78,1.3c-2.72,0-4.68-2.26-4.68-5.63,0-3.65,2.26-6.07,5-6.07a3.11,3.11,0,0,1,2.87,1.5h0l.13-1.25h3.51c0,.73-.09,1.72-.09,3.58Zm-4.07-5.11a4.51,4.51,0,0,0,0-.54A1.45,1.45,0,0,0,114,91.6c-1,0-1.81,1-1.81,2.83,0,1.51.68,2.61,1.81,2.61a1.45,1.45,0,0,0,1.43-1.15,3.57,3.57,0,0,0,.07-.87Z"/><path class="cls-20" d="M121.85,83.55h4.09v16.72h-4.09Z"/><path class="cls-20" d="M139.62,94.36c0,4.21-2.89,6.17-6,6.17a5.61,5.61,0,0,1-5.9-6c0-3.7,2.32-6.14,6.12-6.14A5.56,5.56,0,0,1,139.62,94.36Zm-7.71.12c0,1.74.54,3.06,1.81,3.06,1.11,0,1.7-1.2,1.7-3.06,0-1.61-.5-3.07-1.7-3.07C132.36,91.41,131.91,93,131.91,94.48Z"/><path class="cls-20" d="M141.38,83.55h4.07v6.31h.05a3.78,3.78,0,0,1,3.16-1.43c2.63,0,4.57,2.26,4.55,5.81,0,4.19-2.53,6.29-5.11,6.29a3.49,3.49,0,0,1-3.17-1.75h0l-.16,1.49h-3.44c.05-.76.09-2.24.09-3.68Zm4.07,11.68a5,5,0,0,0,.05.59,1.69,1.69,0,0,0,1.6,1.39c1.2,0,2-.94,2-2.78,0-1.58-.61-2.76-2-2.76a1.67,1.67,0,0,0-1.6,1.44,5.48,5.48,0,0,0-.05.57Z"/><path class="cls-20" d="M159.08,85.51a2,2,0,0,1-2.1,2,2,2,0,1,1,2.1-2ZM155,100.27V88.68H159v11.59Z"/><path class="cls-20" d="M161.35,92.64c0-1.55,0-2.87-.1-4h3.53l.18,1.49H165a4,4,0,0,1,3.35-1.74c2.6,0,4,1.83,4,5v6.83h-4.09V94c0-1.34-.43-2.12-1.42-2.12a1.41,1.41,0,0,0-1.34,1,2.4,2.4,0,0,0-.11.85v6.57h-4.09Z"/><path class="cls-20" d="M177.58,88.68l1.33,5.21c.16.63.36,1.48.5,2.07h.07c.13-.61.29-1.46.41-2l1-5.23h4.34l-2.37,7.37c-1.67,4.85-2.76,6.62-4,7.73a6.54,6.54,0,0,1-3.71,1.69l-.83-3.58a5.49,5.49,0,0,0,1.4-.45,3.32,3.32,0,0,0,1.31-1.06,1,1,0,0,0,.21-.51,1.5,1.5,0,0,0-.16-.62l-4.07-10.57Z"/><path class="cls-20" d="M187.64,102.44a2.06,2.06,0,0,0,1.43-.57c.36-.44.5-1,.5-2.83V92.75h1.31v6.82a4.24,4.24,0,0,1-.87,3.09,3.21,3.21,0,0,1-2.23.85ZM191,90.64a.79.79,0,0,1-.82.84.8.8,0,0,1-.81-.84.83.83,0,0,1,.84-.86A.8.8,0,0,1,191,90.64Z"/><path class="cls-20" d="M198.93,98.22c0,.77,0,1.46.06,2h-1.16L197.75,99h0a2.71,2.71,0,0,1-2.39,1.4c-1.14,0-2.49-.65-2.49-3.29v-4.4h1.31v4.16c0,1.43.42,2.39,1.61,2.39a1.9,1.9,0,0,0,1.73-1.24,1.94,1.94,0,0,0,.12-.7V92.75h1.31Z"/><path class="cls-20" d="M200.16,99.48l3.26-4.43c.32-.41.61-.76.94-1.17v0h-3.91v-1.1H206l0,.85L202.72,98c-.3.42-.6.79-.92,1.18v0H206v1.09h-5.86Zm2.2-8.86a.78.78,0,0,1,.76-.81.77.77,0,0,1,.74.81.76.76,0,0,1-.74.79A.77.77,0,0,1,202.36,90.62Z"/><path class="cls-20" d="M210.37,92.64c0-1.55-.05-2.87-.09-4h3.5l.18,1.49h0a4.23,4.23,0,0,1,3.62-1.74c2.3,0,4.56,2.14,4.56,5.9,0,4.24-2.64,6.2-5.06,6.2a3.24,3.24,0,0,1-2.65-1.11h0v5.51h-4.07Zm4.07,2.57a3.08,3.08,0,0,0,.07.7,1.65,1.65,0,0,0,1.58,1.39c1.22,0,2-1.08,2-2.75s-.64-2.81-1.93-2.81a1.75,1.75,0,0,0-1.65,1.49,2.33,2.33,0,0,0,0,.54Z"/><path class="cls-20" d="M235.4,94.36c0,4.21-2.9,6.17-6,6.17a5.61,5.61,0,0,1-5.9-6,5.73,5.73,0,0,1,6.13-6.14A5.57,5.57,0,0,1,235.4,94.36Zm-7.72.12c0,1.74.55,3.06,1.81,3.06,1.11,0,1.7-1.2,1.7-3.06,0-1.61-.5-3.07-1.7-3.07C228.14,91.41,227.68,93,227.68,94.48Z"/><path class="cls-20" d="M247.13,100.27V96.83h-6.38V94.08L245.86,85H251v8.72h1.63v3.15H251v3.44Zm0-6.59V91.06c0-1,.07-2,.11-3h-.09c-.47,1-.88,2-1.42,3.06l-1.25,2.54,0,.05Z"/><path class="cls-20" d="M262.86,85.39v3.29h2.31v3.11h-2.31v3.32c0,1.39.3,2,1.29,2a2.75,2.75,0,0,0,1-.1v3.23a7.58,7.58,0,0,1-2.42.33,3.89,3.89,0,0,1-2.78-1.06,5.07,5.07,0,0,1-1-3.61V91.79H257.5V88.68h1.38V86.52Z"/><path class="cls-20" d="M270.3,88.68l1.33,5.21c.16.63.37,1.48.5,2.07h.07c.14-.61.29-1.46.41-2l1-5.23H278l-2.38,7.37c-1.67,4.85-2.76,6.62-4,7.73a6.52,6.52,0,0,1-3.7,1.69l-.84-3.58a5.25,5.25,0,0,0,1.4-.45,3.32,3.32,0,0,0,1.31-1.06.93.93,0,0,0,.21-.51,1.5,1.5,0,0,0-.16-.62l-4.07-10.57Z"/><path class="cls-20" d="M289.63,98.57c0,2-.38,4-1.74,5.18a6.82,6.82,0,0,1-4.68,1.44,9.25,9.25,0,0,1-4.14-.87l.77-3.21a6.78,6.78,0,0,0,3.21.85,2.39,2.39,0,0,0,2.58-2.61v-.52h-.05a3.4,3.4,0,0,1-2.78,1.3c-2.71,0-4.68-2.26-4.68-5.63,0-3.65,2.26-6.07,5.05-6.07a3.12,3.12,0,0,1,2.87,1.5h0l.14-1.25h3.5c0,.73-.09,1.72-.09,3.58Zm-4.07-5.11a4.56,4.56,0,0,0,0-.54,1.45,1.45,0,0,0-1.45-1.32c-1,0-1.81,1-1.81,2.83,0,1.51.68,2.61,1.81,2.61a1.43,1.43,0,0,0,1.42-1.15,3.57,3.57,0,0,0,.07-.87Z"/><path class="cls-20" d="M303.31,94.36c0,4.21-2.9,6.17-6,6.17a5.61,5.61,0,0,1-5.9-6,5.73,5.73,0,0,1,6.13-6.14A5.57,5.57,0,0,1,303.31,94.36Zm-7.71.12c0,1.74.54,3.06,1.81,3.06,1.11,0,1.69-1.2,1.69-3.06,0-1.61-.49-3.07-1.69-3.07C296.05,91.41,295.6,93,295.6,94.48Z"/><path class="cls-20" d="M316.4,83.55V96.62c0,1.43,0,2.87.09,3.65h-3.62l-.16-1.56h0a3.73,3.73,0,0,1-3.37,1.82c-2.58,0-4.73-2.33-4.73-6,0-3.91,2.36-6.14,5-6.14a3.15,3.15,0,0,1,2.73,1.12h.05v-6ZM312.33,93.7a4.78,4.78,0,0,0,0-.54,1.7,1.7,0,0,0-1.61-1.49c-1.38,0-2,1.28-2,2.78,0,1.79.84,2.71,2,2.71a1.62,1.62,0,0,0,1.58-1.39,2.73,2.73,0,0,0,.07-.78Z"/><path class="cls-20" d="M318.7,92.64c0-1.55,0-2.87-.09-4h3.53l.18,1.49h.07a4,4,0,0,1,3.35-1.74c2.6,0,4,1.83,4,5v6.83h-4.09V94c0-1.34-.43-2.12-1.43-2.12a1.41,1.41,0,0,0-1.33,1,2.4,2.4,0,0,0-.11.85v6.57h-4.1Z"/><path class="cls-20" d="M336.16,85.51a2,2,0,0,1-2.11,2,2,2,0,1,1,2.11-2ZM332,100.27V88.68h4.09v11.59Z"/><path class="cls-20" d="M348.3,97.44a18,18,0,0,0,.18,2.83h-3.66l-.21-1h-.09a3.82,3.82,0,0,1-3.07,1.28,3.57,3.57,0,0,1-3.69-3.65c0-3.11,2.69-4.5,6.47-4.5v-.09c0-.47-.34-1-1.83-1a6.92,6.92,0,0,0-3.15.84l-.7-2.66a9.62,9.62,0,0,1,4.62-1c3.82,0,5.13,2.21,5.13,5.1ZM344.36,95c-1.67,0-2.6.47-2.6,1.51a1,1,0,0,0,1.16,1.1,1.53,1.53,0,0,0,1.4-1.08,2.69,2.69,0,0,0,0-.59Z"/><path class="cls-20" d="M359.15,100a7.57,7.57,0,0,1-3,.49c-3.71,0-6-2.26-6-5.93,0-3.32,2.19-6.14,6.53-6.14a8.08,8.08,0,0,1,2.56.39l-.57,3.11a4.49,4.49,0,0,0-1.76-.28,2.52,2.52,0,0,0-2.58,2.76,2.57,2.57,0,0,0,2.69,2.8,4.66,4.66,0,0,0,1.79-.31Z"/><path class="cls-20" d="M360.62,83.55h4.09v6.36h.05a3.9,3.9,0,0,1,1.31-1.09,3.85,3.85,0,0,1,1.69-.39c2.51,0,3.91,1.85,3.91,5.13v6.71h-4.09V94c0-1.37-.43-2.19-1.45-2.19a1.39,1.39,0,0,0-1.33.92,2.27,2.27,0,0,0-.09.68v6.83h-4.09Z"/><g class="cls-21"><rect class="cls-22" x="10.52" y="46.18" width="32.43" height="32.43" transform="translate(-40.56 53.47) rotate(-59.25)"/></g><g class="cls-23"><rect class="cls-24" x="12.56" y="48.22" width="28.35" height="28.35" transform="translate(-40.56 53.47) rotate(-59.25)"/></g><g class="cls-25"><g class="cls-14"><g class="cls-26"><rect class="cls-27" x="13.29" y="46.26" width="44.84" height="44.84" transform="translate(-23.76 19.13) rotate(-22.72)"/></g></g></g><g class="cls-28"><g class="cls-29"><rect class="cls-30" x="15.17" y="48.8" width="20.83" height="20.57" transform="translate(-33.38 33.22) rotate(-42.9)"/></g></g><text class="cls-31" transform="translate(372.15 91.25)">(5)</text></g><g id="Warstwa_3" data-name="Warstwa 3"><g class="cls-32"><path class="cls-10" d="M439.87,21.41,468,38.18,451.28,66.35,423.11,49.59l16.76-28.18m0-25A25,25,0,0,0,418.38,8.63L401.62,36.81a25,25,0,0,0,8.7,34.26L438.5,87.84a25,25,0,0,0,34.27-8.71L489.53,51a25,25,0,0,0-8.7-34.27L452.65-.07a24.93,24.93,0,0,0-12.76-3.52Z"/></g><path class="cls-6" d="M433.62,43.88a12,12,0,1,0,11.95-12,12,12,0,0,0-11.95,12"/><g class="cls-33"><g class="cls-34"><g class="cls-35"><path class="cls-10" d="M466.79,20.58l17.51,41.8-41.8,17.5L425,38.08l41.8-17.5m0-25a24.9,24.9,0,0,0-9.64,1.95L415.34,15a25,25,0,0,0-13.41,32.72l17.51,41.8a25,25,0,0,0,32.72,13.4L494,85.44a25,25,0,0,0,13.4-32.72l-17.51-41.8A25,25,0,0,0,466.78-4.43Z"/></g><path class="cls-6" d="M464.58,38.41a15.44,15.44,0,1,1-21.76,1.89,15.44,15.44,0,0,1,21.76-1.89"/></g></g><text class="cls-31" transform="translate(385.48 93.4)">**</text></g></svg>