<svg id="Warstwa_1" data-name="Warstwa 1" xmlns="http://www.w3.org/2000/svg" xmlns:xlink="http://www.w3.org/1999/xlink" viewBox="0 0 300 300"><defs><style>.cls-1{fill:none;}.cls-2{clip-path:url(#clip-path);}.cls-3{fill:url(#Gradient_bez_nazwy_153);}.cls-4{clip-path:url(#clip-path-2);}.cls-5{fill:url(#Gradient_bez_nazwy_153-2);}.cls-6{fill:#dc94c0;}.cls-7{fill:#fff;}.cls-8{clip-path:url(#clip-path-3);}.cls-9{fill:url(#Gradient_bez_nazwy_153-3);}.cls-10{clip-path:url(#clip-path-4);}.cls-11{fill:url(#Gradient_bez_nazwy_153-4);}.cls-12{clip-path:url(#clip-path-5);}.cls-13{fill:url(#Gradient_bez_nazwy_153-5);}.cls-14{clip-path:url(#clip-path-6);}.cls-15{fill:url(#Gradient_bez_nazwy_153-6);}.cls-16{clip-path:url(#clip-path-7);}.cls-17{fill:url(#Gradient_bez_nazwy_153-7);}.cls-18{clip-path:url(#clip-path-8);}.cls-19{fill:url(#Gradient_bez_nazwy_153-8);}.cls-20{clip-path:url(#clip-path-9);}.cls-21{fill:url(#Gradient_bez_nazwy_153-9);}.cls-22{clip-path:url(#clip-path-10);}.cls-23{fill:url(#Gradient_bez_nazwy_153-10);}.cls-24{clip-path:url(#clip-path-11);}.cls-25{fill:url(#Gradient_bez_nazwy_153-11);}.cls-26{clip-path:url(#clip-path-12);}.cls-27{fill:url(#Gradient_bez_nazwy_153-12);}.cls-28{clip-path:url(#clip-path-13);}.cls-29{fill:url(#Gradient_bez_nazwy_153-13);}.cls-30{clip-path:url(#clip-path-14);}.cls-31{fill:url(#Gradient_bez_nazwy_153-14);}.cls-32{fill:#a90067;}</style><clipPath id="clip-path"><path class="cls-1" d="M64.17,175.77a86.78,86.78,0,0,0,81.28,86.6l51.79-160A86.76,86.76,0,0,0,64.17,175.77"/></clipPath><linearGradient id="Gradient_bez_nazwy_153" x1="-281.32" y1="460.34" x2="-278.75" y2="460.34" gradientTransform="matrix(98.45, 0, 0, -98.45, 27727.94, 45498.28)" gradientUnits="userSpaceOnUse"><stop offset="0" stop-color="#d7007f"/><stop offset="0.46" stop-color="#c10074"/><stop offset="1" stop-color="#a90067"/></linearGradient><clipPath id="clip-path-2"><path class="cls-1" d="M145.45,262.37c1.83.12,3.66.19,5.51.19a86.78,86.78,0,0,0,46.28-160.2Z"/></clipPath><linearGradient id="Gradient_bez_nazwy_153-2" x1="-281.05" y1="460.07" x2="-278.48" y2="460.07" gradientTransform="matrix(101.06, 0, 0, -101.06, 28471.55, 46679.37)" xlink:href="#Gradient_bez_nazwy_153"/><clipPath id="clip-path-3"><polygon class="cls-1" points="273.45 25.38 265.67 71.69 276.38 71.69 283.82 25.28 273.45 25.38"/></clipPath><linearGradient id="Gradient_bez_nazwy_153-3" x1="-290.76" y1="476.51" x2="-288.19" y2="476.51" gradientTransform="matrix(18.74, 0, 0, -18.74, 5612.65, 8980.23)" xlink:href="#Gradient_bez_nazwy_153"/><clipPath id="clip-path-4"><path class="cls-1" d="M252.43,63.81c-4.12-.44-1.89-12.46,1.88-11.62,4.06.61,2.47,11.63-1.63,11.63h-.25m-11.29-4.52c-.25,2.91.47,13.22,12.17,13.13s13.12-13.3,13.39-17.14-2-11.05-11-11.24h-.32c-8.78,0-13.6,7.53-14.28,15.25"/></clipPath><linearGradient id="Gradient_bez_nazwy_153-4" x1="-290.76" y1="476.41" x2="-288.19" y2="476.41" gradientTransform="matrix(18.74, 0, 0, -18.74, 5614.62, 8988.1)" xlink:href="#Gradient_bez_nazwy_153"/><clipPath id="clip-path-5"><polygon class="cls-1" points="230.04 25.37 221.16 71.92 231.93 71.92 237.18 48.32 241.58 48.35 244.65 48.35 246.12 40.19 238.12 40.18 239.51 33.34 250.02 33.34 251.21 25.37 230.04 25.37"/></clipPath><linearGradient id="Gradient_bez_nazwy_153-5" x1="-290.76" y1="476.85" x2="-288.19" y2="476.85" gradientTransform="matrix(18.74, 0, 0, -18.74, 5610.93, 8986.7)" xlink:href="#Gradient_bez_nazwy_153"/><clipPath id="clip-path-6"><path class="cls-1" d="M288.28,27.08h.61c.33,0,.69.06.69.48s-.33.52-.72.52h-.58Zm-.64-.5v3.51h.64V28.58h.42l.91,1.51h.66l-.94-1.54a.88.88,0,0,0,.91-.94c0-.74-.47-1-1.3-1Zm-1.16,1.77a2.35,2.35,0,1,1,2.35,2.5,2.38,2.38,0,0,1-2.35-2.5m-.74,0a3.1,3.1,0,1,0,3.09-3.1,3.09,3.09,0,0,0-3.09,3.1"/></clipPath><linearGradient id="Gradient_bez_nazwy_153-6" x1="-290.76" y1="477" x2="-288.19" y2="477" gradientTransform="matrix(18.74, 0, 0, -18.74, 5607.25, 8969.25)" xlink:href="#Gradient_bez_nazwy_153"/><clipPath id="clip-path-7"><polygon class="cls-1" points="209.32 51.07 207.82 60.05 220.6 60.05 222.3 51.07 209.32 51.07"/></clipPath><linearGradient id="Gradient_bez_nazwy_153-7" x1="-290.76" y1="476.87" x2="-288.19" y2="476.87" gradientTransform="matrix(18.74, 0, 0, -18.74, 5612.03, 8994.02)" xlink:href="#Gradient_bez_nazwy_153"/><clipPath id="clip-path-8"><path class="cls-1" d="M73.55,73.69c-2.35-.38-1.69-11.41,2-11C78,63.2,77,73.71,73.79,73.71Zm8.57-39L78.68,56.75s-.47-1.77-5.13-2.24S63.44,58.16,61.94,68.16,65.47,81.79,69,82a10.71,10.71,0,0,0,6.47-2.1v1.3h9.27l4.68-27.31h.66l3.08,18L88,81.17h9.08L113.68,49h-9.27L100,58.82l-1.31-9.73H90l2.4-14.42Z"/></clipPath><linearGradient id="Gradient_bez_nazwy_153-8" x1="-285.62" y1="466.76" x2="-283.05" y2="466.76" gradientTransform="matrix(40.45, 0, 0, -40.45, 11595.79, 18938.84)" xlink:href="#Gradient_bez_nazwy_153"/><clipPath id="clip-path-9"><polygon class="cls-1" points="11.85 34.67 9.99 43.69 17.14 43.69 12.47 71.91 23.14 71.91 27.5 43.59 33.87 43.65 35.02 34.67 11.85 34.67"/></clipPath><linearGradient id="Gradient_bez_nazwy_153-9" x1="-285.62" y1="467.13" x2="-283.05" y2="467.13" gradientTransform="matrix(40.45, 0, 0, -40.45, 11591.25, 18948.57)" xlink:href="#Gradient_bez_nazwy_153"/><clipPath id="clip-path-10"><path class="cls-1" d="M38.55,64.14C35.47,64,36.86,52.82,39.87,53.2c1.3-.09,2,2.69,1.79,5.47s-1.1,5.47-3,5.47Zm-.94-18.71c-4,.38-10.38,3.93-10.75,14.5s2.9,12.53,7.29,12.63,6-2.62,6-2.62v2h8.61l4-25.91H44.65l-.95,1.77a6.92,6.92,0,0,0-5.33-2.37l-.76,0"/></clipPath><linearGradient id="Gradient_bez_nazwy_153-10" x1="-285.62" y1="466.97" x2="-283.05" y2="466.97" gradientTransform="matrix(40.45, 0, 0, -40.45, 11593.79, 18947.81)" xlink:href="#Gradient_bez_nazwy_153"/><clipPath id="clip-path-11"><path class="cls-1" d="M70.19,44.72h0a6.58,6.58,0,0,0-3.16.81,13,13,0,0,0-3.27,2.52l-.19-2h-8.8L50.81,71.91h9.08s.18-12,3-15.25a9.76,9.76,0,0,1,7-3.18L71,44.78a4.5,4.5,0,0,0-.8-.06Z"/></clipPath><linearGradient id="Gradient_bez_nazwy_153-11" x1="-285.62" y1="466.88" x2="-283.05" y2="466.88" gradientTransform="matrix(40.45, 0, 0, -40.45, 11594.57, 18943.59)" xlink:href="#Gradient_bez_nazwy_153"/><clipPath id="clip-path-12"><path class="cls-1" d="M200.16,45.05h0c-3.24,0-6.23,2.54-6.23,2.54L193.78,46h-9.07l-4,25.91h8.87l2.53-14.59s.57-3.18,2.43-2.9,1.13,2.8,1.13,2.8l-2.1,14.69h9.25s3.7-19.18,3.33-21.7a6,6,0,0,0-5.71-5.15Z"/></clipPath><linearGradient id="Gradient_bez_nazwy_153-12" x1="-285.62" y1="466.28" x2="-283.05" y2="466.28" gradientTransform="matrix(40.45, 0, 0, -40.45, 11600.77, 18919.27)" xlink:href="#Gradient_bez_nazwy_153"/><clipPath id="clip-path-13"><path class="cls-1" d="M157.26,44.72h0a6.61,6.61,0,0,0-3.17.81,13.28,13.28,0,0,0-3.26,2.52l-.19-2h-8.8l-3.92,25.91H147s.19-12,3-15.25a9.75,9.75,0,0,1,7-3.18l1.12-8.7a4.64,4.64,0,0,0-.8-.06Z"/></clipPath><linearGradient id="Gradient_bez_nazwy_153-13" x1="-285.62" y1="466.49" x2="-283.05" y2="466.49" gradientTransform="matrix(40.45, 0, 0, -40.45, 11598.58, 18927.61)" xlink:href="#Gradient_bez_nazwy_153"/><clipPath id="clip-path-14"><path class="cls-1" d="M166.83,64c-4.11-.45-1.87-12.45,1.87-11.62,4.09.62,2.48,11.63-1.62,11.63h-.25m-11.28-4.53c-.25,2.92.46,13.23,12.17,13.14s13.09-13.29,13.36-17.13-2-11.05-10.94-11.23h-.32c-8.78,0-13.59,7.53-14.27,15.23"/></clipPath><linearGradient id="Gradient_bez_nazwy_153-14" x1="-285.62" y1="466.39" x2="-283.05" y2="466.39" gradientTransform="matrix(40.45, 0, 0, -40.45, 11599.59, 18923.94)" xlink:href="#Gradient_bez_nazwy_153"/></defs><title>tardy_fol</title><g class="cls-2"><rect class="cls-3" x="39.04" y="71.74" width="183.32" height="207.87" transform="translate(-51.14 53.7) rotate(-19.5)"/></g><g class="cls-4"><rect class="cls-5" x="121.36" y="91.55" width="140.48" height="181.83" transform="translate(-49.91 74.42) rotate(-19.5)"/></g><path class="cls-6" d="M237.75,175.77a86.72,86.72,0,0,0-40.51-73.41l-51.78,160c1.82.12,3.65.19,5.5.19a86.79,86.79,0,0,0,86.79-86.79"/><polygon class="cls-7" points="82.71 155.82 104.35 155.82 104.35 162.66 90.75 162.66 90.75 171.08 103.46 171.08 103.46 177.87 90.75 177.87 90.75 192.7 82.71 192.7 82.71 155.82"/><path class="cls-7" d="M113.86,182c.27,3.44,3.52,5.08,7.25,5.08a21.87,21.87,0,0,0,7.1-1.09l1,5.64a24.55,24.55,0,0,1-9.3,1.64c-8.72,0-13.71-5.26-13.71-13.63,0-6.78,4-14.28,13-14.28,8.3,0,11.46,6.73,11.46,13.35a20,20,0,0,1-.27,3.29Zm9.41-5.7c0-2-.84-5.41-4.52-5.41-3.36,0-4.73,3.17-4.94,5.41Z"/><polygon class="cls-7" points="140.93 157.49 140.93 164.45 147.33 164.45 147.33 167.45 140.93 167.45 140.93 174.47 137.93 174.47 137.93 167.45 131.53 167.45 131.53 164.45 137.93 164.45 137.93 157.49 140.93 157.49"/><path class="cls-7" d="M148.33,174.47v-2.93l2.57-2.43c4.35-4.05,6.47-6.38,6.52-8.81,0-1.69-1-3-3.27-3a7.05,7.05,0,0,0-4.26,1.73l-1.32-3.48a10.7,10.7,0,0,1,6.53-2.14c4.5,0,7,2.74,7,6.51,0,3.48-2.42,6.26-5.3,8.94l-1.84,1.59v.07h7.51v4Z"/><path class="cls-7" d="M181.38,176.4a41.09,41.09,0,0,1,6.9-.51c3.26,0,5.26.32,7,1.38a5.37,5.37,0,0,1,2.84,4.82,5.53,5.53,0,0,1-3.89,5.25v.07a6.11,6.11,0,0,1,4.7,6.06,6.66,6.66,0,0,1-2.46,5.22c-1.71,1.42-4.58,2.22-9.28,2.22a40.28,40.28,0,0,1-5.78-.36Zm5.29,9.41h1.75c2.8,0,4.31-1.21,4.31-3s-1.37-2.84-3.78-2.84a14.65,14.65,0,0,0-2.28.14Zm0,10.91a17,17,0,0,0,2.07.07c2.41,0,4.55-.95,4.55-3.54s-2.14-3.47-4.8-3.47h-1.82Z"/><path class="cls-7" d="M209.11,196.55c4.18,0,6.15-2.88,6.08-7.38a6.82,6.82,0,0,1-6.12,3c-4.78,0-7.81-3.17-7.81-8,0-5.16,3.52-8.4,8.87-8.4,6.39,0,10.26,4.57,10.26,12.13,0,7.88-4.25,13-11,13a15.78,15.78,0,0,1-7.59-2L203.9,195a9.18,9.18,0,0,0,5.21,1.58m-2.82-12.34a3.57,3.57,0,0,0,3.94,3.8c2.75,0,4.29-1.73,4.29-3.91,0-1.93-1.26-3.83-4.15-3.83-2.5,0-4.08,1.44-4.08,3.94"/><g class="cls-8"><rect class="cls-9" x="259.16" y="23.63" width="31.18" height="49.71" transform="translate(-1.94 84.26) rotate(-17.38)"/></g><g class="cls-10"><rect class="cls-11" x="237.23" y="40.8" width="33.37" height="34.96" transform="translate(-5.82 78.49) rotate(-17.38)"/></g><g class="cls-12"><rect class="cls-13" x="214.9" y="21.95" width="42.57" height="53.39" transform="translate(-3.75 72.76) rotate(-17.38)"/></g><g class="cls-14"><rect class="cls-15" x="284.95" y="24.47" width="7.76" height="7.77" transform="translate(4.71 87.55) rotate(-17.38)"/></g><g class="cls-16"><rect class="cls-17" x="206.81" y="49.12" width="16.5" height="12.89" transform="translate(-6.78 66.76) rotate(-17.38)"/></g><g class="cls-18"><rect class="cls-19" x="54.52" y="27.76" width="65.06" height="61.31" transform="translate(-13.54 28.9) rotate(-17.51)"/></g><g class="cls-20"><rect class="cls-21" x="4.97" y="31.77" width="35.07" height="43.05" transform="translate(-14.99 9.24) rotate(-17.51)"/></g><g class="cls-22"><rect class="cls-23" x="22.99" y="42.09" width="33.21" height="33.88" transform="matrix(0.95, -0.3, 0.3, 0.95, -15.92, 14.65)"/></g><g class="cls-24"><rect class="cls-25" x="47.18" y="42.31" width="27.45" height="32.02" transform="translate(-14.72 21.03) rotate(-17.51)"/></g><g class="cls-26"><rect class="cls-27" x="177.29" y="41.79" width="32.69" height="33.38" transform="translate(-8.62 60.96) rotate(-17.51)"/></g><g class="cls-28"><rect class="cls-29" x="134.25" y="42.31" width="27.45" height="32.01" transform="translate(-10.69 47.22) rotate(-17.51)"/></g><g class="cls-30"><rect class="cls-31" x="151.62" y="41.02" width="33.41" height="34.97" transform="translate(-9.8 53.35) rotate(-17.51)"/></g><path class="cls-7" d="M111.27,25.64h18.42l-1.21,8H120.7l-1.39,6.83h8l-.49,2.35s3.06-8.16,12.24-7.79,10.2,8.33,10.11,9.54-.48,5.53-.48,5.53H135.21a15,15,0,0,0-.47,3.55c0,1.86.2,3.37,2.07,3.18s2.7-3.74,2.7-3.74h8.42s-2,10.88-11.88,10.47c-13.37-.56-10.77-15-10.77-15h-6.91l-5.23,23.56H102.38Zm25,20.31h4.4s.89-4.76-1.88-4.3c-2.24.37-2.52,4.3-2.52,4.3"/><path class="cls-32" d="M111.27,25.64v-.38h18.86L128.8,34H121l-1.24,6.07h8l-.58,2.8-.37-.07-.36-.14a13.43,13.43,0,0,1,2.63-4,12.42,12.42,0,0,1,9.35-4h.63c4.53.18,7.2,2.2,8.67,4.39a10.62,10.62,0,0,1,1.81,5.38v.18h0c-.09,1.23-.47,5.53-.47,5.53l0,.34H135.21v-.37l.36.1s0,.1-.07.28a14.45,14.45,0,0,0-.39,3.17,6.07,6.07,0,0,0,.26,2.11,1.09,1.09,0,0,0,.4.52,1.28,1.28,0,0,0,.73.19l.27,0a1.57,1.57,0,0,0,1-.54,5.83,5.83,0,0,0,1.06-1.82c.11-.31.2-.58.26-.78s.05-.18.07-.23l0-.08.07-.29h9.17l-.09.45a16.82,16.82,0,0,1-2.2,5.37,10.86,10.86,0,0,1-9.5,5.42H136c-4.91-.2-7.81-2.27-9.4-4.84a14.86,14.86,0,0,1-1.94-7.72,18,18,0,0,1,.21-2.85l.37.07v.37h-6.61l-5.23,23.58H101.93l9-47.26h.32v.38l.37.07-8.8,46.05h10l5.22-23.57h7.68l-.08.45a.88.88,0,0,0,0,.19,17.3,17.3,0,0,0-.17,2.52,14.13,14.13,0,0,0,1.82,7.32c1.49,2.37,4.08,4.28,8.79,4.49h.53a10.12,10.12,0,0,0,8.86-5.07,16.37,16.37,0,0,0,1.66-3.52,12,12,0,0,0,.34-1.16c0-.14.06-.25.08-.32l0-.11.37.07v.38h-8.42v-.38l.37.09A10.08,10.08,0,0,1,139.2,55a5.89,5.89,0,0,1-.91,1.38,2.34,2.34,0,0,1-1.45.78h-.34a2,2,0,0,1-1.15-.31,2.15,2.15,0,0,1-.84-1.39,8.49,8.49,0,0,1-.15-1.87,15.5,15.5,0,0,1,.48-3.65l.08-.28h13.76v.38l-.37,0s.09-1.08.2-2.31.22-2.61.27-3.22h0v-.13a9.74,9.74,0,0,0-1.67-5c-1.38-2-3.77-3.87-8.08-4l-.6,0a11.67,11.67,0,0,0-8.79,3.78,13.62,13.62,0,0,0-1.91,2.61c-.2.36-.34.65-.44.86l-.1.23,0,.08-.72-.21.39-1.89-8,0,1.54-7.57h7.76l1.1-7.21h-18v-.38l.37.07Zm25,20.31v-.37h4.4V46l-.37-.07,0-.11a9.07,9.07,0,0,0,.11-1.4,4.2,4.2,0,0,0-.28-1.68,1.22,1.22,0,0,0-.38-.51,1,1,0,0,0-.61-.18,1.78,1.78,0,0,0-.31,0,1.85,1.85,0,0,0-1.11.7,5.2,5.2,0,0,0-.89,2.06,7.12,7.12,0,0,0-.17.86c0,.11,0,.19,0,.25V46l-.38,0v0l-.38,0a9.81,9.81,0,0,1,.44-2.1,5.28,5.28,0,0,1,.83-1.57,2.52,2.52,0,0,1,1.57-1,2.15,2.15,0,0,1,.43,0,1.73,1.73,0,0,1,1.05.33,2.31,2.31,0,0,1,.8,1.29,6.49,6.49,0,0,1,.18,1.51A9.7,9.7,0,0,1,141,46l-.06.31h-5.12l0-.41Z"/><path class="cls-6" d="M151,94.11a81.66,81.66,0,0,1,0,163.32c-1.56,0-3.2-.06-5.18-.19A81.65,81.65,0,0,1,151,94.11M151,89a86.79,86.79,0,0,0-5.51,173.4c1.83.11,3.66.19,5.51.19A86.8,86.8,0,0,0,151,89"/></svg>