<svg id="Warstwa_1_kopia" data-name="Warstwa 1 kopia" xmlns="http://www.w3.org/2000/svg" viewBox="0 0 250 60"><defs><style>.cls-1{fill:#fff;}.cls-2{fill:#575756;}.cls-3{fill:#cf007f;}</style></defs><title>WHO</title><path class="cls-1" d="M236.13,28.5h0c0,10.1-7.37,18.29-16.47,18.29H26.34c-9.1,0-16.47-8.19-16.47-18.29s7.37-18.29,16.47-18.29H219.66c9.1,0,16.47,8.19,16.47,18.29"/><polygon class="cls-2" points="34.48 22.6 34.48 23.55 27.4 32.16 34.56 32.16 34.54 33.29 25.8 33.29 25.8 32.34 32.88 23.73 26 23.73 26 22.6 34.48 22.6"/><path class="cls-2" d="M43.67,25.26v7.19a3.69,3.69,0,0,1-4,3.83,5.36,5.36,0,0,1-3.3-1.18l.55-.87a4.1,4.1,0,0,0,2.7,1,2.66,2.66,0,0,0,2.9-2.77V31.26a3.18,3.18,0,0,1-3,1.68,3.61,3.61,0,0,1-3.66-3.88,3.59,3.59,0,0,1,3.63-3.85,3.19,3.19,0,0,1,3,1.68V25.26Zm-1.19,3.83a2.76,2.76,0,1,0-5.51,0,2.76,2.76,0,1,0,5.51,0"/><path class="cls-2" d="M53.72,29.26a4.08,4.08,0,0,1-8.15,0,4.08,4.08,0,0,1,8.15,0m-7,0a2.89,2.89,0,1,0,5.77,0,2.89,2.89,0,1,0-5.77,0"/><path class="cls-2" d="M63.2,22V33.29H62V31.56a3.35,3.35,0,0,1-3.13,1.79A3.82,3.82,0,0,1,55,29.26a3.79,3.79,0,0,1,3.86-4.06A3.35,3.35,0,0,1,62,27V22ZM62,29.29a2.91,2.91,0,1,0-5.81,0,2.91,2.91,0,1,0,5.81,0"/><path class="cls-2" d="M73.54,28.34v4.95H72.35V28.65a2.09,2.09,0,0,0-2.27-2.29A2.62,2.62,0,0,0,67.38,29v4.31h-1.2v-8h1.2V27a3.17,3.17,0,0,1,3.11-1.82,2.84,2.84,0,0,1,3.05,3.13"/><path class="cls-2" d="M77.56,23A.78.78,0,1,1,76,23a.78.78,0,1,1,1.56,0m-.18,10.34H76.2v-8h1.18Z"/><path class="cls-2" d="M87.21,29.72H80.65a2.83,2.83,0,0,0,2.91,2.62,3.41,3.41,0,0,0,2.49-1l.65.68a4.26,4.26,0,0,1-3.23,1.33,3.84,3.84,0,0,1-4-4.06,3.87,3.87,0,0,1,4-4.06c2.6,0,3.88,1.79,3.76,4.51m-1.07-.95a2.53,2.53,0,0,0-2.69-2.56,2.69,2.69,0,0,0-2.8,2.56Z"/><polygon class="cls-2" points="99.65 25.26 99.65 26.14 94.62 32.28 99.78 32.3 99.78 33.3 93.18 33.29 93.18 32.4 98.22 26.27 93.32 26.25 93.32 25.26 99.65 25.26"/><polygon class="cls-2" points="112.28 25.26 112.28 26.14 107.25 32.28 112.41 32.3 112.41 33.3 105.81 33.29 105.81 32.4 110.85 26.27 105.95 26.25 105.95 25.26 112.28 25.26"/><path class="cls-2" d="M119.29,33.29V32a3.48,3.48,0,0,1-2.94,1.29,2.47,2.47,0,0,1-2.73-2.42c0-1.41,1.11-2.29,3-2.31h2.64v-.5c0-1.18-.73-1.89-2.15-1.89a4.35,4.35,0,0,0-2.55.93l-.5-.84a5.37,5.37,0,0,1,3.28-1.09c2,0,3.08,1.06,3.1,2.77v5.31Zm0-2.76v-1h-2.51c-1.34,0-2,.41-2,1.31s.72,1.48,1.85,1.48a2.59,2.59,0,0,0,2.7-1.81"/><rect class="cls-2" x="123.19" y="21.96" width="1.19" height="11.32"/><path class="cls-2" d="M134.29,29.72h-6.57a2.85,2.85,0,0,0,2.92,2.62,3.41,3.41,0,0,0,2.49-1l.65.68a4.26,4.26,0,0,1-3.23,1.33,3.84,3.84,0,0,1-4-4.06,3.87,3.87,0,0,1,4-4.06c2.6,0,3.88,1.79,3.76,4.51m-1.07-.95a2.54,2.54,0,0,0-2.69-2.56,2.71,2.71,0,0,0-2.81,2.56Z"/><path class="cls-2" d="M139.56,26.28a2.8,2.8,0,0,0-2.86,3,2.81,2.81,0,0,0,2.86,3,3.13,3.13,0,0,0,2.48-1l.69.7a4,4,0,0,1-3.22,1.39,3.85,3.85,0,0,1-4-4.06,3.87,3.87,0,0,1,4-4.06,4.26,4.26,0,0,1,3.1,1.19l-.66.83a3.32,3.32,0,0,0-2.39-.95"/><path class="cls-2" d="M151.45,29.72h-6.56a2.84,2.84,0,0,0,2.91,2.62,3.41,3.41,0,0,0,2.49-1L151,32a4.29,4.29,0,0,1-3.24,1.33,3.85,3.85,0,0,1-4-4.06,3.87,3.87,0,0,1,4-4.06c2.59,0,3.87,1.79,3.75,4.51m-1.07-.95a2.52,2.52,0,0,0-2.68-2.56,2.7,2.7,0,0,0-2.81,2.56Z"/><path class="cls-2" d="M160.86,28.34v4.95h-1.19V28.65a2.1,2.1,0,0,0-2.28-2.29,2.63,2.63,0,0,0-2.7,2.62v4.31H153.5v-8h1.19V27a3.18,3.18,0,0,1,3.11-1.82,2.84,2.84,0,0,1,3.06,3.13"/><path class="cls-2" d="M164.87,23a.78.78,0,1,1-1.55,0,.78.78,0,1,1,1.55,0m-.18,10.34h-1.18v-8h1.18Z"/><path class="cls-2" d="M172.58,33.29V32a3.48,3.48,0,0,1-2.94,1.29,2.47,2.47,0,0,1-2.73-2.42c0-1.41,1.11-2.29,3-2.31h2.64v-.5c0-1.18-.73-1.89-2.15-1.89a4.35,4.35,0,0,0-2.55.93l-.5-.84a5.39,5.39,0,0,1,3.28-1.09c2,0,3.08,1.06,3.1,2.77v5.31Zm0-2.76v-1h-2.5c-1.35,0-2,.41-2,1.31s.72,1.48,1.85,1.48a2.58,2.58,0,0,0,2.7-1.81"/><path class="cls-2" d="M189.7,28.34v4.95h-1.19V28.65a2.09,2.09,0,0,0-2.23-2.31,2.68,2.68,0,0,0-2.63,3v4h-1.2V28.65a2.08,2.08,0,0,0-2.23-2.31,2.7,2.7,0,0,0-2.64,3v4H176.4v-8h1.18v1.82a3.09,3.09,0,0,1,3.07-1.87,2.72,2.72,0,0,1,2.88,2.09,3.11,3.11,0,0,1,3.17-2.09,2.82,2.82,0,0,1,3,3.13"/><path class="cls-2" d="M193.7,23a.78.78,0,1,1-1.55,0,.78.78,0,1,1,1.55,0m-.18,10.34h-1.17v-8h1.17Z"/><polygon class="cls-3" points="206.42 27.8 209.05 32.62 209.64 27.16 210.31 27.03 212.94 31.86 213.53 26.4 214.23 26.26 213.41 32.55 212.72 32.69 210.15 28 209.52 33.32 208.83 33.45 205.69 27.94 206.42 27.8"/><path class="cls-3" d="M213.61,32.73l-1,.2-2.33-4.23-.56,4.8-1,.2-3.36-5.91,1.17-.23,2.38,4.35.53-4.93,1-.19,2.37,4.36.54-4.93,1.15-.23Zm-.5-.34.11,0,.76-5.84-.25,0Zm-.27,0,.16,0-2.8-5.13-.19,0Zm-3.63.72.11,0,.69-5.83-.17,0Zm-.27.05.17,0L206.3,28l-.27.06Z"/><polygon class="cls-3" points="215.79 25.95 216.32 28.63 219.87 27.93 219.35 25.25 220.02 25.12 221.18 31.02 220.51 31.15 219.99 28.54 216.44 29.24 216.95 31.85 216.28 31.99 215.11 26.09 215.79 25.95"/><path class="cls-3" d="M221.44,31.19l-1.1.22-.52-2.62-3.13.62.52,2.61-1.1.22-1.25-6.32,1.1-.22.53,2.67,3.13-.62-.53-2.67,1.1-.22Zm-.76-.29.25,0-1.08-5.48-.25.05.53,2.67-4,.79-.53-2.67-.25.05,1.08,5.47.25-.05-.52-2.61,4-.79Z"/><path class="cls-3" d="M228,26.61a3.15,3.15,0,1,1-3.67-2.36A3.06,3.06,0,0,1,228,26.61m-5.49,1.08a2.45,2.45,0,0,0,4.8-1,2.45,2.45,0,0,0-4.8,1"/><path class="cls-3" d="M225.56,30.4a3.24,3.24,0,1,1,2.67-3.83,3.27,3.27,0,0,1-2.67,3.83m-1.17-5.94a2.81,2.81,0,1,0,3.41,2.19,2.84,2.84,0,0,0-3.41-2.19m1.05,5.33a2.61,2.61,0,1,1,2.1-3.09,2.66,2.66,0,0,1-2.1,3.09m-.93-4.7a2.18,2.18,0,1,0,2.6,1.7,2.2,2.2,0,0,0-2.6-1.7"/><path class="cls-3" d="M205,24.57l-1.46.28a14.14,14.14,0,0,0,2.5,12.67l1.45-.29a12.78,12.78,0,0,1-3-6,12.6,12.6,0,0,1,.47-6.67"/><path class="cls-3" d="M229.73,26.27a12.6,12.6,0,0,1-.47,6.67l1.46-.28A14.06,14.06,0,0,0,228.22,20l-1.45.29a12.74,12.74,0,0,1,3,6"/><path class="cls-3" d="M219.63,41.34a12.78,12.78,0,0,1-11-3l-1.56.31a14.12,14.12,0,0,0,23.15-4.57l-1.56.31a12.8,12.8,0,0,1-9,7"/><path class="cls-3" d="M214.66,16.17a12.78,12.78,0,0,1,11,3l1.56-.3a14.11,14.11,0,0,0-23.15,4.56l1.56-.31a12.8,12.8,0,0,1,9-6.95"/><path class="cls-3" d="M225.66,19.17l-20,3.95a12.28,12.28,0,0,0-.6,1.45l21.74-4.29a14.53,14.53,0,0,0-1.11-1.11"/><path class="cls-3" d="M208.63,38.34l20-4a12.28,12.28,0,0,0,.6-1.45l-21.74,4.29a14.53,14.53,0,0,0,1.11,1.11"/><path class="cls-3" d="M229.26,32.94a12.28,12.28,0,0,1-.6,1.45l1.56-.31a15,15,0,0,0,.5-1.42Z"/><path class="cls-3" d="M207.52,37.23l-1.45.29a13.32,13.32,0,0,0,1,1.12l1.56-.3a14.53,14.53,0,0,1-1.11-1.11"/><path class="cls-3" d="M205,24.57a12.28,12.28,0,0,1,.6-1.45l-1.56.31a14.05,14.05,0,0,0-.5,1.42Z"/><path class="cls-3" d="M226.77,20.28l1.45-.29a11.77,11.77,0,0,0-1-1.12l-1.56.3a14.53,14.53,0,0,1,1.11,1.11"/></svg>