<svg xmlns="http://www.w3.org/2000/svg" xmlns:xlink="http://www.w3.org/1999/xlink" viewBox="0 0 700 400"><defs><style>.cls-1{fill:none;}.cls-2{fill:#575756;}.cls-3{fill:#b1b1b1;}.cls-4{fill:#b93183;}.cls-5{clip-path:url(#clip-path);}.cls-6{fill:url(#Gradient_bez_nazwy_2);}.cls-7{clip-path:url(#clip-path-2);}.cls-8{fill:url(#Gradient_bez_nazwy_2-2);}.cls-9{clip-path:url(#clip-path-3);}.cls-10{fill:url(#Gradient_bez_nazwy_2-3);}.cls-11{clip-path:url(#clip-path-4);}.cls-12{fill:url(#Gradient_bez_nazwy_2-4);}.cls-13{clip-path:url(#clip-path-5);}.cls-14{fill:url(#Gradient_bez_nazwy_2-5);}.cls-15{clip-path:url(#clip-path-6);}.cls-16{fill:url(#Gradient_bez_nazwy_2-6);}.cls-17{clip-path:url(#clip-path-7);}.cls-18{fill:url(#Gradient_bez_nazwy_2-7);}.cls-19{fill:#fff;}.cls-20{fill:#a80067;}.cls-21{clip-path:url(#clip-path-8);}.cls-22{fill:url(#Gradient_bez_nazwy_2-8);}</style><clipPath id="clip-path"><path class="cls-1" d="M534.62,337.35c-1.39-.22-1-6.74,1.15-6.52,1.46.33.9,6.53-1,6.53Zm5.06-23-2,13s-.28-1.05-3-1.32-6,2.15-6.86,8.05,2.09,8.05,4.19,8.16a6.33,6.33,0,0,0,3.82-1.24v.76h5.47L544,325.64h.39l1.82,10.61-3,5.51h5.35l9.78-19h-5.46l-2.6,5.81-.77-5.75h-5.14l1.41-8.51Z"/></clipPath><linearGradient id="Gradient_bez_nazwy_2" x1="-80.36" y1="517.64" x2="-78.46" y2="517.64" gradientTransform="translate(5123.34 -7482.1) scale(57.55 15.09)" gradientUnits="userSpaceOnUse"><stop offset="0" stop-color="#d6007f"/><stop offset="0.46" stop-color="#c10074"/><stop offset="1" stop-color="#a80067"/></linearGradient><clipPath id="clip-path-2"><polygon class="cls-1" points="498.19 314.31 497.09 319.63 501.31 319.63 498.56 336.3 504.86 336.3 507.43 319.58 511.19 319.61 511.87 314.31 498.19 314.31"/></clipPath><linearGradient id="Gradient_bez_nazwy_2-2" x1="-80.33" y1="520.34" x2="-78.44" y2="520.34" gradientTransform="translate(5193.09 -5884.88) scale(58.46 11.93)" xlink:href="#Gradient_bez_nazwy_2"/><clipPath id="clip-path-3"><path class="cls-1" d="M514,331.71c-1.82-.11-1-6.68.78-6.46.77-.05,1.16,1.59,1.06,3.23s-.65,3.23-1.76,3.23Zm-.55-11c-2.37.23-6.13,2.33-6.35,8.56s1.71,7.41,4.31,7.46a3.89,3.89,0,0,0,3.53-1.54v1.16H520l2.35-15.3h-4.76l-.56,1a4.11,4.11,0,0,0-3.15-1.4l-.45,0"/></clipPath><linearGradient id="Gradient_bez_nazwy_2-3" x1="-80.34" y1="524.94" x2="-78.45" y2="524.94" gradientTransform="translate(5147.86 -4375.59) scale(57.87 8.96)" xlink:href="#Gradient_bez_nazwy_2"/><clipPath id="clip-path-4"><path class="cls-1" d="M532.64,320.24h0a4.05,4.05,0,0,0-1.87.48,7.62,7.62,0,0,0-1.93,1.49L528.7,321h-5.19l-2.32,15.3h5.36s.11-7.08,1.77-9a5.72,5.72,0,0,1,4.14-1.87l.66-5.14a2.39,2.39,0,0,0-.47,0Z"/></clipPath><linearGradient id="Gradient_bez_nazwy_2-4" x1="-80.36" y1="525.08" x2="-78.46" y2="525.08" gradientTransform="translate(5120.85 -4335.62) scale(57.52 8.88)" xlink:href="#Gradient_bez_nazwy_2"/><clipPath id="clip-path-5"><path class="cls-1" d="M609.38,320.44h0a6.61,6.61,0,0,0-3.67,1.5l-.08-.94h-5.35l-2.35,15.3h5.24l1.49-8.62s.34-1.87,1.44-1.71.66,1.65.66,1.65l-1.24,8.68H611s2.18-11.33,2-12.82a3.5,3.5,0,0,0-3.37-3Z"/></clipPath><linearGradient id="Gradient_bez_nazwy_2-5" x1="-80.24" y1="525.29" x2="-78.35" y2="525.29" gradientTransform="translate(5353.8 -4283.78) scale(60.51 8.78)" xlink:href="#Gradient_bez_nazwy_2"/><clipPath id="clip-path-6"><path class="cls-1" d="M584.05,320.24h0a4,4,0,0,0-1.86.48,7.86,7.86,0,0,0-1.93,1.49l-.11-1.21h-5.2l-2.32,15.3H578s.11-7.08,1.77-9a5.72,5.72,0,0,1,4.14-1.87l.66-5.14a2.39,2.39,0,0,0-.47,0Z"/></clipPath><linearGradient id="Gradient_bez_nazwy_2-6" x1="-80.36" y1="525.08" x2="-78.46" y2="525.08" gradientTransform="translate(5120.77 -4335.93) scale(57.52 8.88)" xlink:href="#Gradient_bez_nazwy_2"/><clipPath id="clip-path-7"><path class="cls-1" d="M589.7,331.65c-2.42-.26-1.11-7.35,1.1-6.86,2.42.37,1.47,6.87-.95,6.87h-.15M583,329c-.15,1.72.27,7.81,7.18,7.75s7.73-7.84,7.9-10.11a6.17,6.17,0,0,0-6.46-6.63h-.2c-5.18,0-8,4.44-8.42,9"/></clipPath><linearGradient id="Gradient_bez_nazwy_2-7" x1="-80.34" y1="524.23" x2="-78.44" y2="524.23" gradientTransform="translate(5165.32 -4559.36) scale(58.09 9.32)" xlink:href="#Gradient_bez_nazwy_2"/><clipPath id="clip-path-8"><path class="cls-1" d="M616.27,320.49h.34c.2,0,.42,0,.42.29s-.2.3-.42.3h-.34Zm-.39-.29v2.07h.39v-.89h.23l.54.89h.39l-.56-.91a.51.51,0,0,0,.54-.55c0-.44-.26-.61-.76-.61Zm-.68,1a1.39,1.39,0,1,1,1.38,1.48,1.4,1.4,0,0,1-1.38-1.48m-.45,0a1.84,1.84,0,1,0,1.83-1.83,1.84,1.84,0,0,0-1.83,1.83"/></clipPath><linearGradient id="Gradient_bez_nazwy_2-8" x1="-119.8" y1="576.03" x2="-117.9" y2="576.03" gradientTransform="translate(846.08 -990.86) scale(1.93 2.28)" xlink:href="#Gradient_bez_nazwy_2"/></defs><title>wykres_toler_1</title><g id="Warstwa_2_kopia" data-name="Warstwa 2 kopia"><path class="cls-2" d="M540.73,56.31l1.74,1-.32.59-1.75-1v2h-.65l0-2-1.76,1-.33-.59,1.75-1-1.75-1,.33-.6,1.76,1,0-2h.65v2l1.75-1,.32.6Z"/><path class="cls-2" d="M553.27,57.21a3.25,3.25,0,0,1,1.32,1.33,4.22,4.22,0,0,1,0,3.91,3.35,3.35,0,0,1-1.31,1.33,3.77,3.77,0,0,1-1.88.47,3.46,3.46,0,0,1-1.62-.38,3,3,0,0,1-1.19-1.08V66.9h-1V56.8h1v1.46a3.12,3.12,0,0,1,1.18-1.13,3.52,3.52,0,0,1,1.67-.39A3.79,3.79,0,0,1,553.27,57.21ZM552.73,63a2.47,2.47,0,0,0,1-1,3.39,3.39,0,0,0,0-3,2.6,2.6,0,0,0-1-1,2.69,2.69,0,0,0-1.4-.37,2.65,2.65,0,0,0-1.41.37,2.6,2.6,0,0,0-1,1,3.39,3.39,0,0,0,0,3,2.47,2.47,0,0,0,1,1,2.74,2.74,0,0,0,1.41.36A2.78,2.78,0,0,0,552.73,63Z"/><path class="cls-2" d="M562.67,57.23l-5.16,2,5.16,2v.87l-6.1-2.44V58.8l6.1-2.45Z"/><path class="cls-2" d="M566.14,63.66a4,4,0,0,1-1.38-1.74,7.3,7.3,0,0,1,0-5.31,3.89,3.89,0,0,1,1.38-1.73,3.68,3.68,0,0,1,4.06,0,3.91,3.91,0,0,1,1.39,1.73,7.17,7.17,0,0,1,0,5.31,4,4,0,0,1-1.39,1.74,3.73,3.73,0,0,1-4.06,0Zm3.54-.8a3.18,3.18,0,0,0,1-1.39,6.93,6.93,0,0,0,0-4.41,3.24,3.24,0,0,0-1-1.39,2.66,2.66,0,0,0-3,0,3.14,3.14,0,0,0-1,1.39,6.76,6.76,0,0,0,0,4.41,3.09,3.09,0,0,0,1,1.39,2.66,2.66,0,0,0,3,0Z"/><path class="cls-2" d="M574.72,62.93a.76.76,0,0,1,.21.54,1.22,1.22,0,0,1,0,.37,4.39,4.39,0,0,1-.14.45l-.59,1.93h-.68l.48-2a.68.68,0,0,1-.36-.26.72.72,0,0,1-.14-.46.76.76,0,0,1,.21-.54.71.71,0,0,1,.53-.21A.72.72,0,0,1,574.72,62.93Z"/><path class="cls-2" d="M578.15,63.66a4,4,0,0,1-1.39-1.74,7.3,7.3,0,0,1,0-5.31,3.91,3.91,0,0,1,1.39-1.73,3.68,3.68,0,0,1,4.06,0,4,4,0,0,1,1.39,1.73,7.17,7.17,0,0,1,0,5.31,4.07,4.07,0,0,1-1.39,1.74,3.73,3.73,0,0,1-4.06,0Zm3.54-.8a3.09,3.09,0,0,0,1-1.39,6.76,6.76,0,0,0,0-4.41,3.14,3.14,0,0,0-1-1.39,2.66,2.66,0,0,0-3,0,3.24,3.24,0,0,0-1,1.39,6.93,6.93,0,0,0,0,4.41,3.18,3.18,0,0,0,1,1.39,2.66,2.66,0,0,0,3,0Z"/><path class="cls-2" d="M587.31,63.66a4,4,0,0,1-1.39-1.74,7.3,7.3,0,0,1,0-5.31,3.91,3.91,0,0,1,1.39-1.73,3.68,3.68,0,0,1,4.06,0,4,4,0,0,1,1.39,1.73,7.17,7.17,0,0,1,0,5.31,4.07,4.07,0,0,1-1.39,1.74,3.73,3.73,0,0,1-4.06,0Zm3.54-.8a3.09,3.09,0,0,0,1-1.39,6.76,6.76,0,0,0,0-4.41,3.14,3.14,0,0,0-1-1.39,2.66,2.66,0,0,0-3,0,3.24,3.24,0,0,0-1,1.39,6.93,6.93,0,0,0,0,4.41,3.18,3.18,0,0,0,1,1.39,2.66,2.66,0,0,0,3,0Z"/><path class="cls-2" d="M597.31,54.36v9.82h-1V55.25H594v-.89Z"/><path class="cls-2" d="M121.94,307.48a4.22,4.22,0,0,1-1.5-1.87,7.87,7.87,0,0,1,0-5.73,4.22,4.22,0,0,1,1.5-1.87,4,4,0,0,1,4.38,0,4.22,4.22,0,0,1,1.5,1.87,7.74,7.74,0,0,1,0,5.73,4.22,4.22,0,0,1-1.5,1.87,4,4,0,0,1-4.38,0Zm3.82-.86a3.33,3.33,0,0,0,1.09-1.5,7.25,7.25,0,0,0,0-4.75,3.33,3.33,0,0,0-1.09-1.5,2.81,2.81,0,0,0-3.26,0,3.35,3.35,0,0,0-1.1,1.5,7.43,7.43,0,0,0,0,4.75,3.35,3.35,0,0,0,1.1,1.5,2.81,2.81,0,0,0,3.26,0Z"/><path class="cls-2" d="M113.5,236.36V247h-1.09v-9.63h-2.5v-1Z"/><path class="cls-2" d="M118.06,246.4a4.34,4.34,0,0,1-1.5-1.87,8,8,0,0,1,0-5.74,4.28,4.28,0,0,1,1.5-1.87,4,4,0,0,1,4.38,0,4.37,4.37,0,0,1,1.51,1.87,7.9,7.9,0,0,1,0,5.74,4.43,4.43,0,0,1-1.51,1.87,4,4,0,0,1-4.38,0Zm3.82-.86A3.46,3.46,0,0,0,123,244a7.46,7.46,0,0,0,0-4.76,3.46,3.46,0,0,0-1.1-1.5,2.86,2.86,0,0,0-3.26,0,3.37,3.37,0,0,0-1.09,1.5,7.28,7.28,0,0,0,0,4.76,3.37,3.37,0,0,0,1.09,1.5,2.86,2.86,0,0,0,3.26,0Z"/><path class="cls-2" d="M117.8,185.93v1h-7.43v-.77l4.4-4.32a5.56,5.56,0,0,0,1.13-1.41,2.66,2.66,0,0,0,.29-1.21,1.78,1.78,0,0,0-.64-1.46,2.9,2.9,0,0,0-1.84-.52,3.66,3.66,0,0,0-2.89,1.18l-.77-.66a4,4,0,0,1,1.58-1.12,5.52,5.52,0,0,1,2.17-.4,4,4,0,0,1,2.57.77,2.54,2.54,0,0,1,.94,2.09,3.65,3.65,0,0,1-.36,1.58,6.63,6.63,0,0,1-1.38,1.74l-3.6,3.54Z"/><path class="cls-2" d="M121.2,186.34a4.28,4.28,0,0,1-1.5-1.87,7.9,7.9,0,0,1,0-5.74,4.34,4.34,0,0,1,1.5-1.87,4,4,0,0,1,4.37,0,4.36,4.36,0,0,1,1.51,1.87,7.9,7.9,0,0,1,0,5.74,4.3,4.3,0,0,1-1.51,1.87,4,4,0,0,1-4.37,0Zm3.81-.86a3.33,3.33,0,0,0,1.1-1.5,6.48,6.48,0,0,0,.39-2.38,6.39,6.39,0,0,0-.39-2.37,3.27,3.27,0,0,0-1.1-1.5,2.8,2.8,0,0,0-3.25,0,3.27,3.27,0,0,0-1.1,1.5,6.39,6.39,0,0,0-.39,2.37,6.48,6.48,0,0,0,.39,2.38,3.33,3.33,0,0,0,1.1,1.5,2.84,2.84,0,0,0,3.25,0Z"/><path class="cls-2" d="M116.7,120.66a2.75,2.75,0,0,1,.87,2.11,2.91,2.91,0,0,1-.44,1.61,3,3,0,0,1-1.3,1.12,4.92,4.92,0,0,1-2.1.4,6.28,6.28,0,0,1-2.18-.37,4.21,4.21,0,0,1-1.64-1l.53-.86a3.78,3.78,0,0,0,1.41.88,5.07,5.07,0,0,0,1.88.35,3.14,3.14,0,0,0,2-.57,1.91,1.91,0,0,0,.71-1.57,1.85,1.85,0,0,0-.71-1.54,3.39,3.39,0,0,0-2.15-.56h-.76v-.81l2.94-3.67h-5.42v-1h6.81V116l-3,3.77A3.9,3.9,0,0,1,116.7,120.66Z"/><path class="cls-2" d="M121.14,125.25a4.22,4.22,0,0,1-1.5-1.87,7.87,7.87,0,0,1,0-5.73,4.22,4.22,0,0,1,1.5-1.87,4,4,0,0,1,4.37,0,4.24,4.24,0,0,1,1.51,1.87,7.87,7.87,0,0,1,0,5.73,4.24,4.24,0,0,1-1.51,1.87,4,4,0,0,1-4.37,0Zm3.81-.86a3.27,3.27,0,0,0,1.1-1.5,7.43,7.43,0,0,0,0-4.75,3.27,3.27,0,0,0-1.1-1.5,2.8,2.8,0,0,0-3.25,0,3.27,3.27,0,0,0-1.1,1.5,7.43,7.43,0,0,0,0,4.75,3.27,3.27,0,0,0,1.1,1.5,2.8,2.8,0,0,0,3.25,0Z"/><path class="cls-2" d="M119.57,61.94h-2.12v2.79h-1.09V61.94h-6v-.79l5.62-7h1.21L111.79,61h4.6V58.52h1.06V61h2.12Z"/><path class="cls-2" d="M122.61,64.17a4.2,4.2,0,0,1-1.5-1.87,7.9,7.9,0,0,1,0-5.74,4.14,4.14,0,0,1,1.5-1.87,4,4,0,0,1,4.37,0,4.37,4.37,0,0,1,1.51,1.87,7.9,7.9,0,0,1,0,5.74A4.43,4.43,0,0,1,127,64.17a4,4,0,0,1-4.37,0Zm3.81-.87a3.3,3.3,0,0,0,1.1-1.49,7.46,7.46,0,0,0,0-4.76,3.38,3.38,0,0,0-1.1-1.5,2.7,2.7,0,0,0-1.63-.51,2.67,2.67,0,0,0-1.62.51,3.38,3.38,0,0,0-1.1,1.5,7.28,7.28,0,0,0,0,4.76,3.3,3.3,0,0,0,1.1,1.49,2.62,2.62,0,0,0,1.62.52A2.64,2.64,0,0,0,126.42,63.3Z"/><rect class="cls-3" x="141.19" y="210.85" width="14.1" height="2.05"/><rect class="cls-3" x="141.19" y="149.76" width="14.1" height="2.05"/><rect class="cls-3" x="141.19" y="88.68" width="14.1" height="2.05"/><rect class="cls-3" x="141.19" y="241.39" width="14.1" height="2.05"/><polyline class="cls-3" points="141.19 241.39 141.19 243.44 155.29 243.44 155.29 241.39"/><rect class="cls-3" x="141.19" y="271.93" width="14.1" height="2.05"/><rect class="cls-3" x="141.19" y="180.31" width="14.1" height="2.05"/><rect class="cls-3" x="141.19" y="119.22" width="14.1" height="2.05"/><rect class="cls-3" x="141.19" y="58.14" width="14.1" height="2.05"/><path class="cls-2" d="M208.73,92.44a3.44,3.44,0,0,1,.93,2.46,3.76,3.76,0,0,1-.56,2,3.94,3.94,0,0,1-1.7,1.45,6.43,6.43,0,0,1-2.77.53A8.86,8.86,0,0,1,202,98.5a6.68,6.68,0,0,1-2.15-1.08l1-1.83a5.14,5.14,0,0,0,1.69.91,6.15,6.15,0,0,0,2,.34,3.27,3.27,0,0,0,2-.52,1.75,1.75,0,0,0,0-2.8,3.56,3.56,0,0,0-2.08-.5h-1.17V91.41L206.24,88h-5.78V86h8.67v1.58L206,91.24A4.3,4.3,0,0,1,208.73,92.44Z"/><path class="cls-2" d="M220.42,96.71v2H211V97.13l5.05-4.8a5.59,5.59,0,0,0,1.16-1.42,2.73,2.73,0,0,0,.3-1.21,1.61,1.61,0,0,0-.6-1.36,2.79,2.79,0,0,0-1.77-.48,3.59,3.59,0,0,0-3,1.33l-1.65-1.27a4.92,4.92,0,0,1,2-1.56,6.92,6.92,0,0,1,2.82-.55,5.18,5.18,0,0,1,3.31,1,3.23,3.23,0,0,1,1.24,2.67,4.49,4.49,0,0,1-.44,2,7.79,7.79,0,0,1-1.67,2.07l-3.4,3.23Z"/><path class="cls-2" d="M224.27,96.24a1.47,1.47,0,0,1,.42,1.09,2.62,2.62,0,0,1-.08.61,10,10,0,0,1-.34,1l-.93,2.57h-1.47l.73-2.78a1.35,1.35,0,0,1-.63-.52,1.52,1.52,0,0,1-.23-.83,1.47,1.47,0,0,1,.42-1.09,1.54,1.54,0,0,1,2.11,0Z"/><path class="cls-2" d="M234.32,92.44a3.44,3.44,0,0,1,.93,2.46,3.68,3.68,0,0,1-.57,2,3.83,3.83,0,0,1-1.7,1.45,6.4,6.4,0,0,1-2.77.53,8.79,8.79,0,0,1-2.62-.39,6.84,6.84,0,0,1-2.16-1.08l1-1.83a5.19,5.19,0,0,0,1.68.91,6.17,6.17,0,0,0,2.05.34,3.29,3.29,0,0,0,2-.52,1.75,1.75,0,0,0,0-2.8,3.58,3.58,0,0,0-2.09-.5h-1.16V91.41L231.83,88h-5.78V86h8.67v1.58l-3.09,3.67A4.33,4.33,0,0,1,234.32,92.44Z"/><path class="cls-2" d="M241.19,88.72l2.07,1.14-.71,1.24-2.11-1.24,0,2.35h-1.38l0-2.33L237,91.1l-.73-1.24,2.09-1.14-2.09-1.15.73-1.25,2.09,1.23,0-2.32h1.38l0,2.34,2.11-1.25.71,1.25Z"/><path class="cls-2" d="M320.5,100.44a3.41,3.41,0,0,1,.92,2.45,3.73,3.73,0,0,1-.56,2,3.87,3.87,0,0,1-1.7,1.44,6.42,6.42,0,0,1-2.77.54,8.79,8.79,0,0,1-2.62-.39,6.73,6.73,0,0,1-2.16-1.08l1-1.84a5.21,5.21,0,0,0,1.68.92,6.41,6.41,0,0,0,2,.33,3.37,3.37,0,0,0,2-.51,1.67,1.67,0,0,0,.71-1.41,1.6,1.6,0,0,0-.68-1.39,3.47,3.47,0,0,0-2.08-.5h-1.16V99.4L318,96h-5.78V94h8.67v1.59l-3.09,3.67A4.25,4.25,0,0,1,320.5,100.44Z"/><path class="cls-2" d="M325.55,106.11a5.16,5.16,0,0,1-1.89-2.25,9.3,9.3,0,0,1,0-7,5.16,5.16,0,0,1,1.89-2.25,5.17,5.17,0,0,1,5.46,0,5.11,5.11,0,0,1,1.9,2.25,9.3,9.3,0,0,1,0,7,5.11,5.11,0,0,1-1.9,2.25,5.17,5.17,0,0,1-5.46,0Zm4.88-2.4a7.56,7.56,0,0,0,0-6.73,2.61,2.61,0,0,0-4.29,0,7.56,7.56,0,0,0,0,6.73,2.61,2.61,0,0,0,4.29,0Z"/><path class="cls-2" d="M337.69,104.23a1.49,1.49,0,0,1,.42,1.09,2.62,2.62,0,0,1-.08.61,10,10,0,0,1-.34,1l-.93,2.56h-1.47l.73-2.78a1.29,1.29,0,0,1-.63-.52,1.62,1.62,0,0,1,.19-1.92,1.56,1.56,0,0,1,2.11,0Z"/><path class="cls-2" d="M348,95.44a6.82,6.82,0,0,1,1.45,4.69,7.91,7.91,0,0,1-.78,3.66,5.44,5.44,0,0,1-2.19,2.31,6.65,6.65,0,0,1-3.27.79,7.8,7.8,0,0,1-1.84-.21,4.86,4.86,0,0,1-1.5-.61l.87-1.78a4.37,4.37,0,0,0,2.42.62,3.71,3.71,0,0,0,2.87-1.13,4.65,4.65,0,0,0,1-3.25v0a3.71,3.71,0,0,1-1.44,1,5.48,5.48,0,0,1-2,.33,5.09,5.09,0,0,1-2.25-.48,3.68,3.68,0,0,1-1.57-1.37,3.8,3.8,0,0,1-.56-2,3.84,3.84,0,0,1,.62-2.17,4.06,4.06,0,0,1,1.67-1.45,5.34,5.34,0,0,1,2.36-.51A5.12,5.12,0,0,1,348,95.44Zm-2,3.92a2,2,0,0,0,.71-1.56,1.92,1.92,0,0,0-.7-1.53,2.81,2.81,0,0,0-1.93-.61,2.64,2.64,0,0,0-1.8.59,2.14,2.14,0,0,0,0,3.15,2.77,2.77,0,0,0,1.85.58A2.73,2.73,0,0,0,346,99.36Z"/><path class="cls-2" d="M355.43,96.71l2.07,1.15-.71,1.23-2.11-1.23,0,2.34h-1.38l0-2.33-2.09,1.22-.73-1.23,2.09-1.15-2.09-1.14.73-1.26,2.09,1.24,0-2.33h1.38l0,2.35,2.11-1.26.71,1.26Z"/><path class="cls-2" d="M442.78,232v1.58l-4.95,11.14h-2.52L440.09,234h-5v2.16h-2.2V232Z"/><path class="cls-2" d="M446.72,242.26a1.47,1.47,0,0,1,.42,1.09,2.69,2.69,0,0,1-.08.61,10,10,0,0,1-.34.95l-.93,2.56h-1.47l.73-2.78a1.29,1.29,0,0,1-.63-.52,1.49,1.49,0,0,1-.23-.82,1.47,1.47,0,0,1,.42-1.09,1.54,1.54,0,0,1,2.11,0Z"/><path class="cls-2" d="M456.77,238.46a3.41,3.41,0,0,1,.93,2.45,3.74,3.74,0,0,1-.57,2,3.83,3.83,0,0,1-1.7,1.45,6.55,6.55,0,0,1-2.77.53,8.79,8.79,0,0,1-2.62-.39,6.73,6.73,0,0,1-2.16-1.08l1-1.84a5,5,0,0,0,1.68.92,6.17,6.17,0,0,0,2.05.34,3.36,3.36,0,0,0,2-.52,1.65,1.65,0,0,0,.72-1.41,1.62,1.62,0,0,0-.69-1.39,3.52,3.52,0,0,0-2.08-.5h-1.16v-1.62l2.89-3.43H448.5v-2h8.67v1.58l-3.09,3.67A4.35,4.35,0,0,1,456.77,238.46Z"/><path class="cls-2" d="M178.37,316.33h.91V325h-.91Z"/><path class="cls-2" d="M187.17,319.15a2.77,2.77,0,0,1,.73,2.07V325H187v-3.69a2.16,2.16,0,0,0-.51-1.55,1.93,1.93,0,0,0-1.45-.53,2.24,2.24,0,0,0-1.66.62,2.38,2.38,0,0,0-.62,1.73V325h-.87v-6.51h.84v1.2a2.46,2.46,0,0,1,1-.93,3.32,3.32,0,0,1,1.48-.32A2.63,2.63,0,0,1,187.17,319.15Z"/><path class="cls-2" d="M195.53,319.15a2.77,2.77,0,0,1,.72,2.07V325h-.88v-3.69a2.16,2.16,0,0,0-.51-1.55,1.9,1.9,0,0,0-1.44-.53,2.25,2.25,0,0,0-1.67.62,2.37,2.37,0,0,0-.61,1.73V325h-.88v-6.51h.84v1.2a2.43,2.43,0,0,1,1-.93,3.29,3.29,0,0,1,1.48-.32A2.66,2.66,0,0,1,195.53,319.15Z"/><path class="cls-2" d="M204.28,322h-5.44a2.31,2.31,0,0,0,.78,1.64,2.57,2.57,0,0,0,1.78.63,2.68,2.68,0,0,0,1.11-.22,2.22,2.22,0,0,0,.88-.64l.5.57a2.78,2.78,0,0,1-1.08.8,3.72,3.72,0,0,1-1.43.27,3.55,3.55,0,0,1-1.78-.43,3.05,3.05,0,0,1-1.21-1.18,3.34,3.34,0,0,1-.43-1.71,3.6,3.6,0,0,1,.41-1.71,3.05,3.05,0,0,1,1.14-1.17,3.22,3.22,0,0,1,1.63-.42,3.16,3.16,0,0,1,1.62.42,3,3,0,0,1,1.13,1.17,3.54,3.54,0,0,1,.41,1.71Zm-4.72-2.22a2.38,2.38,0,0,0-.72,1.57h4.61a2.29,2.29,0,0,0-.72-1.57,2.39,2.39,0,0,0-3.17,0Z"/><path class="cls-2" d="M214.32,318.85a3.06,3.06,0,0,1,1.17,1.17,3.75,3.75,0,0,1,0,3.45,3,3,0,0,1-1.16,1.17,3.31,3.31,0,0,1-1.67.42,3.1,3.1,0,0,1-1.43-.33,2.73,2.73,0,0,1-1-1v3.63h-.88v-8.91h.84v1.28a2.63,2.63,0,0,1,1-1,3.05,3.05,0,0,1,1.46-.34A3.4,3.4,0,0,1,214.32,318.85Zm-.48,5.11a2.26,2.26,0,0,0,.87-.89,2.9,2.9,0,0,0,0-2.65,2.26,2.26,0,0,0-.87-.89,2.37,2.37,0,0,0-1.24-.33,2.35,2.35,0,0,0-1.24.33,2.26,2.26,0,0,0-.87.89,3,3,0,0,0,0,2.65,2.26,2.26,0,0,0,.87.89,2.44,2.44,0,0,0,1.24.32A2.46,2.46,0,0,0,213.84,324Z"/><path class="cls-2" d="M219.45,318.77a3.19,3.19,0,0,1,1.52-.33v.85h-.21a2.08,2.08,0,0,0-1.61.63,2.5,2.5,0,0,0-.58,1.77V325h-.88v-6.51h.84v1.27A2.11,2.11,0,0,1,219.45,318.77Z"/><path class="cls-2" d="M228.31,322h-5.45a2.31,2.31,0,0,0,.78,1.64,2.58,2.58,0,0,0,1.78.63,2.73,2.73,0,0,0,1.12-.22,2.3,2.3,0,0,0,.88-.64l.49.57a2.78,2.78,0,0,1-1.08.8,3.68,3.68,0,0,1-1.43.27,3.58,3.58,0,0,1-1.78-.43,3.09,3.09,0,0,1-1.2-1.18,3.35,3.35,0,0,1-.44-1.71,3.49,3.49,0,0,1,.42-1.71,2.92,2.92,0,0,1,1.14-1.17,3.35,3.35,0,0,1,3.25,0,2.93,2.93,0,0,1,1.12,1.17,3.43,3.43,0,0,1,.41,1.71Zm-4.72-2.22a2.35,2.35,0,0,0-.73,1.57h4.62a2.38,2.38,0,0,0-.72-1.57,2.25,2.25,0,0,0-1.59-.6A2.21,2.21,0,0,0,223.59,319.79Z"/><path class="cls-2" d="M235.1,318.85a3,3,0,0,1,1.17,1.17,3.75,3.75,0,0,1,0,3.45,2.9,2.9,0,0,1-1.16,1.17,3.3,3.3,0,0,1-1.66.42,3,3,0,0,1-1.43-.33,2.69,2.69,0,0,1-1.05-1v3.63h-.88v-8.91h.84v1.28a2.77,2.77,0,0,1,1-1,3.07,3.07,0,0,1,1.47-.34A3.36,3.36,0,0,1,235.1,318.85Zm-.48,5.11a2.26,2.26,0,0,0,.87-.89,2.9,2.9,0,0,0,0-2.65,2.26,2.26,0,0,0-.87-.89,2.49,2.49,0,0,0-2.48,0,2.26,2.26,0,0,0-.87.89,3,3,0,0,0,0,2.65,2.26,2.26,0,0,0,.87.89,2.56,2.56,0,0,0,2.48,0Z"/><path class="cls-2" d="M242.7,319.07a2.46,2.46,0,0,1,.69,1.89v4h-.85v-1a2,2,0,0,1-.87.79,3,3,0,0,1-1.37.29,2.66,2.66,0,0,1-1.73-.52,1.68,1.68,0,0,1-.64-1.37,1.66,1.66,0,0,1,.6-1.34,2.91,2.91,0,0,1,1.91-.51h2.07v-.4a1.69,1.69,0,0,0-.47-1.28,2,2,0,0,0-1.38-.44,3.43,3.43,0,0,0-1.19.21,2.81,2.81,0,0,0-1,.56l-.4-.65a3.5,3.5,0,0,1,1.19-.65,4.42,4.42,0,0,1,1.46-.23A2.76,2.76,0,0,1,242.7,319.07Zm-1,5a2.08,2.08,0,0,0,.8-1V322h-2c-1.11,0-1.67.39-1.67,1.16a1.07,1.07,0,0,0,.44.9,1.94,1.94,0,0,0,1.21.33A2.36,2.36,0,0,0,241.71,324Z"/><path class="cls-2" d="M247.53,318.77a3.12,3.12,0,0,1,1.51-.33v.85h-.21a2.09,2.09,0,0,0-1.61.63,2.5,2.5,0,0,0-.58,1.77V325h-.88v-6.51h.84v1.27A2.13,2.13,0,0,1,247.53,318.77Z"/><path class="cls-2" d="M254.69,319.07a2.5,2.5,0,0,1,.68,1.89v4h-.85v-1a1.92,1.92,0,0,1-.87.79,3,3,0,0,1-1.37.29,2.66,2.66,0,0,1-1.73-.52,1.68,1.68,0,0,1-.64-1.37,1.66,1.66,0,0,1,.6-1.34,2.93,2.93,0,0,1,1.91-.51h2.07v-.4a1.69,1.69,0,0,0-.47-1.28,2,2,0,0,0-1.38-.44,3.33,3.33,0,0,0-1.18.21,2.86,2.86,0,0,0-1,.56l-.4-.65a3.5,3.5,0,0,1,1.19-.65,4.42,4.42,0,0,1,1.46-.23A2.8,2.8,0,0,1,254.69,319.07Zm-1,5a2.12,2.12,0,0,0,.79-1V322h-2c-1.12,0-1.68.39-1.68,1.16a1.07,1.07,0,0,0,.44.9,2,2,0,0,0,1.21.33A2.39,2.39,0,0,0,253.7,324Z"/><path class="cls-2" d="M261.17,324.6a1.64,1.64,0,0,1-.61.34,2.42,2.42,0,0,1-.76.12,1.91,1.91,0,0,1-1.41-.5,1.88,1.88,0,0,1-.5-1.39v-3.94h-1.16v-.74h1.16v-1.43h.88v1.43h2v.74h-2v3.89a1.24,1.24,0,0,0,.29.88,1.1,1.1,0,0,0,.84.3,1.53,1.53,0,0,0,.52-.08,1.26,1.26,0,0,0,.44-.25Z"/><path class="cls-2" d="M268.21,318.49,265,325.78a3.17,3.17,0,0,1-.92,1.3,2.06,2.06,0,0,1-1.25.38,2.58,2.58,0,0,1-.88-.15,2,2,0,0,1-.7-.44l.41-.66a1.62,1.62,0,0,0,1.19.5,1.24,1.24,0,0,0,.76-.25,2.32,2.32,0,0,0,.58-.84l.29-.64-2.91-6.49h.92L264.9,324l2.45-5.53Z"/><path class="cls-2" d="M192.09,336.67v.73h-5.3v-.58l4.1-5.19h-4v-.74H192v.58l-4.1,5.2Z"/><path class="cls-2" d="M197.92,331.47a2.46,2.46,0,0,1,.68,1.89v4h-.84v-1a2,2,0,0,1-.87.79,3.07,3.07,0,0,1-1.37.29,2.64,2.64,0,0,1-1.73-.52,1.69,1.69,0,0,1-.65-1.37,1.66,1.66,0,0,1,.6-1.34,2.94,2.94,0,0,1,1.92-.51h2.06v-.39a1.66,1.66,0,0,0-.47-1.29,1.94,1.94,0,0,0-1.37-.44,3.43,3.43,0,0,0-1.19.21,3.14,3.14,0,0,0-1,.56l-.39-.65a3.41,3.41,0,0,1,1.19-.65,4.38,4.38,0,0,1,1.46-.23A2.76,2.76,0,0,1,197.92,331.47Zm-1,5a2,2,0,0,0,.79-1v-1.06h-2c-1.11,0-1.67.39-1.67,1.16a1.06,1.06,0,0,0,.43.9,2,2,0,0,0,1.22.33A2.36,2.36,0,0,0,196.93,336.43Z"/><path class="cls-2" d="M210.32,330.89l-2.46,6.51H207L205,332.06l-2.06,5.34h-.83l-2.45-6.51h.84l2.05,5.53,2.09-5.53h.75l2.08,5.53,2.07-5.53Z"/><path class="cls-2" d="M211.62,329.28a.64.64,0,0,1-.18-.45.6.6,0,0,1,.18-.43.66.66,0,0,1,.46-.19.63.63,0,0,1,.46.18.59.59,0,0,1,.19.43.66.66,0,0,1-.19.46.63.63,0,0,1-.46.18A.65.65,0,0,1,211.62,329.28Zm0,1.61h.87v6.51h-.87Z"/><path class="cls-2" d="M220.62,334.41h-5.44a2.31,2.31,0,0,0,.78,1.64,2.57,2.57,0,0,0,1.78.63,2.72,2.72,0,0,0,1.11-.22,2.38,2.38,0,0,0,.88-.63l.5.56a2.74,2.74,0,0,1-1.09.8,3.68,3.68,0,0,1-1.43.27,3.52,3.52,0,0,1-1.77-.43,3.05,3.05,0,0,1-1.21-1.18,3.34,3.34,0,0,1-.43-1.71,3.6,3.6,0,0,1,.41-1.71,3.05,3.05,0,0,1,1.14-1.17,3.19,3.19,0,0,1,1.63-.42,3.16,3.16,0,0,1,1.62.42,3,3,0,0,1,1.13,1.17,3.54,3.54,0,0,1,.4,1.71Zm-4.72-2.22a2.29,2.29,0,0,0-.72,1.57h4.61a2.38,2.38,0,0,0-.72-1.57,2.25,2.25,0,0,0-1.59-.6A2.21,2.21,0,0,0,215.9,332.19Z"/><path class="cls-2" d="M224.17,331.17a3.15,3.15,0,0,1,1.51-.33v.85h-.21a2.06,2.06,0,0,0-1.6.63,2.51,2.51,0,0,0-.59,1.77v3.32h-.88v-6.51h.85v1.27A2.06,2.06,0,0,1,224.17,331.17Z"/><path class="cls-2" d="M231.33,331.47a2.5,2.5,0,0,1,.68,1.89v4h-.84v-1a2,2,0,0,1-.87.79,3.07,3.07,0,0,1-1.37.29,2.67,2.67,0,0,1-1.74-.52,1.71,1.71,0,0,1-.64-1.37,1.66,1.66,0,0,1,.6-1.34,2.93,2.93,0,0,1,1.91-.51h2.07v-.39a1.7,1.7,0,0,0-.47-1.29,1.94,1.94,0,0,0-1.37-.44,3.39,3.39,0,0,0-1.19.21,3,3,0,0,0-1,.56l-.4-.65a3.5,3.5,0,0,1,1.19-.65,4.42,4.42,0,0,1,1.46-.23A2.78,2.78,0,0,1,231.33,331.47Zm-1,5a2.06,2.06,0,0,0,.79-1v-1.06h-2c-1.12,0-1.67.39-1.67,1.16a1.06,1.06,0,0,0,.43.9,2,2,0,0,0,1.21.33A2.39,2.39,0,0,0,230.34,336.43Z"/><path class="cls-2" d="M232.65,339.76a1.43,1.43,0,0,1-.6-.32l.31-.67a1.48,1.48,0,0,0,1,.34,1,1,0,0,0,.8-.31,1.38,1.38,0,0,0,.28-.92v-7h.88v7a2.06,2.06,0,0,1-.5,1.45,1.85,1.85,0,0,1-1.41.53A2.76,2.76,0,0,1,232.65,339.76Zm1.79-10.49a.61.61,0,0,1-.19-.45.56.56,0,0,1,.19-.43.58.58,0,0,1,.45-.19.62.62,0,0,1,.46.18.56.56,0,0,1,.19.43.63.63,0,0,1-.65.64A.61.61,0,0,1,234.44,329.27Z"/><path class="cls-2" d="M242,331.47a2.5,2.5,0,0,1,.68,1.89v4h-.84v-1a1.94,1.94,0,0,1-.88.79,3,3,0,0,1-1.36.29,2.67,2.67,0,0,1-1.74-.52,1.71,1.71,0,0,1-.64-1.37,1.66,1.66,0,0,1,.6-1.34,2.93,2.93,0,0,1,1.91-.51h2.07v-.39a1.7,1.7,0,0,0-.47-1.29,1.94,1.94,0,0,0-1.37-.44,3.39,3.39,0,0,0-1.19.21,3,3,0,0,0-1,.56l-.4-.65a3.5,3.5,0,0,1,1.19-.65,4.42,4.42,0,0,1,1.46-.23A2.8,2.8,0,0,1,242,331.47Zm-1,5a2.06,2.06,0,0,0,.79-1v-1.06h-2c-1.12,0-1.67.39-1.67,1.16a1.06,1.06,0,0,0,.43.9,2,2,0,0,0,1.21.33A2.39,2.39,0,0,0,241,336.43Zm-.11,3.37a1.08,1.08,0,0,1-.37-.86c0-.76.58-1.39,1.74-1.88l.41.34c-1,.44-1.51.94-1.51,1.48a.62.62,0,0,0,.22.52.89.89,0,0,0,.58.18,1.15,1.15,0,0,0,.77-.24l.2.48a1.85,1.85,0,0,1-1.05.3A1.45,1.45,0,0,1,240.9,339.8Z"/><path class="cls-2" d="M246,337a3.09,3.09,0,0,1-1.2-1.18,3.64,3.64,0,0,1,0-3.43,3.07,3.07,0,0,1,1.2-1.17,3.48,3.48,0,0,1,1.72-.42,3.38,3.38,0,0,1,1.51.33,2.39,2.39,0,0,1,1,.95l-.65.45a2.09,2.09,0,0,0-.82-.72,2.45,2.45,0,0,0-1.08-.25,2.58,2.58,0,0,0-1.27.32,2.24,2.24,0,0,0-.88.9,2.74,2.74,0,0,0-.31,1.32,2.7,2.7,0,0,0,.31,1.33,2.22,2.22,0,0,0,.88.89,2.58,2.58,0,0,0,1.27.32,2.44,2.44,0,0,0,1.08-.24,2,2,0,0,0,.82-.71l.65.44a2.44,2.44,0,0,1-1,1,3.37,3.37,0,0,1-1.5.33A3.48,3.48,0,0,1,246,337Z"/><path class="cls-2" d="M257.41,334.41H252a2.31,2.31,0,0,0,.78,1.64,2.58,2.58,0,0,0,1.78.63,2.73,2.73,0,0,0,1.12-.22,2.38,2.38,0,0,0,.88-.63l.49.56a2.78,2.78,0,0,1-1.08.8,3.68,3.68,0,0,1-1.43.27,3.58,3.58,0,0,1-1.78-.43,3.09,3.09,0,0,1-1.2-1.18,3.35,3.35,0,0,1-.44-1.71,3.49,3.49,0,0,1,.42-1.71,2.92,2.92,0,0,1,1.14-1.17,3.35,3.35,0,0,1,3.25,0,3,3,0,0,1,1.12,1.17,3.54,3.54,0,0,1,.41,1.71Zm-4.72-2.22a2.35,2.35,0,0,0-.73,1.57h4.62a2.35,2.35,0,0,0-.73-1.57,2.38,2.38,0,0,0-3.16,0Z"/><path class="cls-2" d="M167.94,349.63a3.28,3.28,0,0,1-1.14-.57l.4-.7a3.32,3.32,0,0,0,1,.53,4,4,0,0,0,1.29.2,2.49,2.49,0,0,0,1.31-.27.89.89,0,0,0,.43-.79.71.71,0,0,0-.23-.56,1.55,1.55,0,0,0-.6-.31,9.63,9.63,0,0,0-1-.21,12.48,12.48,0,0,1-1.28-.3,1.85,1.85,0,0,1-.82-.53,1.43,1.43,0,0,1-.34-1,1.62,1.62,0,0,1,.68-1.34,3,3,0,0,1,1.89-.52,4.57,4.57,0,0,1,1.27.17,3.58,3.58,0,0,1,1,.44l-.39.7a3.27,3.27,0,0,0-1.92-.56,2.17,2.17,0,0,0-1.26.3.91.91,0,0,0-.43.78.78.78,0,0,0,.24.6,1.57,1.57,0,0,0,.6.32,8.64,8.64,0,0,0,1,.22,11.09,11.09,0,0,1,1.25.3,2,2,0,0,1,.81.5,1.41,1.41,0,0,1,.33,1,1.59,1.59,0,0,1-.71,1.36,3.43,3.43,0,0,1-2,.5A4.77,4.77,0,0,1,167.94,349.63Z"/><path class="cls-2" d="M173.74,341.68a.58.58,0,0,1-.19-.45.57.57,0,0,1,.19-.43.61.61,0,0,1,.45-.18.65.65,0,0,1,.46.17.59.59,0,0,1,.19.43.6.6,0,0,1-.19.46.63.63,0,0,1-.46.19A.62.62,0,0,1,173.74,341.68Zm0,1.61h.88v6.51h-.88Z"/><path class="cls-2" d="M181.3,343.88a2.46,2.46,0,0,1,.68,1.88v4h-.84v-1a2.09,2.09,0,0,1-.87.79,3.07,3.07,0,0,1-1.37.28,2.67,2.67,0,0,1-1.74-.52,1.79,1.79,0,0,1,0-2.71,2.93,2.93,0,0,1,1.91-.51h2.07v-.39a1.68,1.68,0,0,0-.47-1.28,1.9,1.9,0,0,0-1.37-.44,3.62,3.62,0,0,0-1.19.2,3.22,3.22,0,0,0-1,.56l-.4-.65a3.5,3.5,0,0,1,1.19-.65,4.7,4.7,0,0,1,1.46-.23A2.74,2.74,0,0,1,181.3,343.88Zm-1,4.95a2.06,2.06,0,0,0,.79-1v-1.06h-2c-1.12,0-1.67.39-1.67,1.16a1.06,1.06,0,0,0,.43.9,2,2,0,0,0,1.21.33A2.31,2.31,0,0,0,180.31,348.83Z"/><path class="cls-2" d="M186.11,343.57a3.15,3.15,0,0,1,1.51-.33v.85h-.21a2.09,2.09,0,0,0-1.61.63,2.55,2.55,0,0,0-.58,1.77v3.32h-.88v-6.51h.85v1.27A2.15,2.15,0,0,1,186.11,343.57Z"/><path class="cls-2" d="M190.27,349.44a3,3,0,0,1-1.2-1.18,3.41,3.41,0,0,1-.43-1.72,3.33,3.33,0,0,1,.43-1.7,3,3,0,0,1,1.2-1.18,3.48,3.48,0,0,1,1.72-.42,3.35,3.35,0,0,1,1.51.33,2.47,2.47,0,0,1,1,1l-.65.44a2.09,2.09,0,0,0-.82-.72A2.44,2.44,0,0,0,192,344a2.5,2.5,0,0,0-1.26.31,2.18,2.18,0,0,0-.88.9,2.92,2.92,0,0,0,0,2.66,2.22,2.22,0,0,0,.88.89,2.5,2.5,0,0,0,1.26.31,2.58,2.58,0,0,0,1.08-.23,2.09,2.09,0,0,0,.82-.72l.65.44a2.33,2.33,0,0,1-1,1,3.31,3.31,0,0,1-1.5.33A3.48,3.48,0,0,1,190.27,349.44Z"/><path class="cls-2" d="M200.84,349.07v.73h-5.29v-.58l4.09-5.19h-4v-.74h5.15v.58l-4.1,5.2Z"/><path class="cls-2" d="M206.67,343.88a2.42,2.42,0,0,1,.68,1.88v4h-.84v-1a2.09,2.09,0,0,1-.87.79,3,3,0,0,1-1.37.28,2.66,2.66,0,0,1-1.73-.52,1.66,1.66,0,0,1-.64-1.37,1.68,1.68,0,0,1,.6-1.34,2.91,2.91,0,0,1,1.91-.51h2.07v-.39a1.64,1.64,0,0,0-.48-1.28,1.9,1.9,0,0,0-1.37-.44,3.67,3.67,0,0,0-1.19.2,3.35,3.35,0,0,0-1,.56l-.39-.65a3.41,3.41,0,0,1,1.19-.65,4.7,4.7,0,0,1,1.46-.23A2.71,2.71,0,0,1,206.67,343.88Zm-1,4.95a2.08,2.08,0,0,0,.8-1v-1.06h-2c-1.11,0-1.67.39-1.67,1.16a1.09,1.09,0,0,0,.43.9,2,2,0,0,0,1.22.33A2.27,2.27,0,0,0,205.68,348.83Z"/><path class="cls-2" d="M215,344a2.77,2.77,0,0,1,.73,2.07v3.78h-.88v-3.69a2.16,2.16,0,0,0-.51-1.55,1.93,1.93,0,0,0-1.45-.53,2.21,2.21,0,0,0-1.66.63,2.33,2.33,0,0,0-.61,1.72v3.42h-.88v-6.51h.84v1.2a2.41,2.41,0,0,1,1-.92,3.14,3.14,0,0,1,1.48-.33A2.66,2.66,0,0,1,215,344Z"/><path class="cls-2" d="M225.91,349.07v.73h-5.3v-.58l4.1-5.19h-4v-.74h5.15v.58l-4.09,5.2Zm-3.07-7.25a.57.57,0,0,1-.17-.42.58.58,0,0,1,.59-.6.61.61,0,0,1,.42.17.57.57,0,0,1,.17.43.57.57,0,0,1-.17.42.61.61,0,0,1-.42.17A.57.57,0,0,1,222.84,341.82Z"/><path class="cls-2" d="M233.21,346.82h-5.45a2.35,2.35,0,0,0,.78,1.64,2.63,2.63,0,0,0,1.79.62,2.89,2.89,0,0,0,1.11-.21,2.53,2.53,0,0,0,.88-.64l.49.57a2.71,2.71,0,0,1-1.08.79,3.68,3.68,0,0,1-1.43.27,3.52,3.52,0,0,1-1.77-.43,3,3,0,0,1-1.21-1.18,3.34,3.34,0,0,1-.43-1.71,3.42,3.42,0,0,1,.41-1.7,3,3,0,0,1,1.14-1.18,3.35,3.35,0,0,1,3.25,0,2.93,2.93,0,0,1,1.12,1.17,3.43,3.43,0,0,1,.41,1.71Zm-4.72-2.23a2.39,2.39,0,0,0-.73,1.57h4.62a2.43,2.43,0,0,0-.72-1.57,2.25,2.25,0,0,0-1.59-.6A2.21,2.21,0,0,0,228.49,344.59Z"/><path class="cls-2" d="M235,340.62h.88v9.18H235Z"/><path class="cls-2" d="M242.53,343.88a2.42,2.42,0,0,1,.68,1.88v4h-.84v-1a2.09,2.09,0,0,1-.87.79,3.07,3.07,0,0,1-1.37.28,2.64,2.64,0,0,1-1.73-.52,1.78,1.78,0,0,1-.05-2.71,2.94,2.94,0,0,1,1.92-.51h2.06v-.39a1.64,1.64,0,0,0-.47-1.28,1.9,1.9,0,0,0-1.37-.44,3.67,3.67,0,0,0-1.19.2,3.35,3.35,0,0,0-1,.56l-.39-.65a3.41,3.41,0,0,1,1.19-.65,4.65,4.65,0,0,1,1.46-.23A2.71,2.71,0,0,1,242.53,343.88Zm-1,4.95a2,2,0,0,0,.79-1v-1.06h-2c-1.11,0-1.67.39-1.67,1.16a1.06,1.06,0,0,0,.43.9,2,2,0,0,0,1.22.33A2.27,2.27,0,0,0,241.54,348.83Z"/><path class="cls-2" d="M250,349.07v.73h-5.29v-.58l4.09-5.19h-4v-.74H250v.58l-4.1,5.2Z"/><path class="cls-2" d="M255.87,343.88a2.42,2.42,0,0,1,.69,1.88v4h-.85v-1a2,2,0,0,1-.87.79,3,3,0,0,1-1.37.28,2.66,2.66,0,0,1-1.73-.52,1.66,1.66,0,0,1-.64-1.37,1.68,1.68,0,0,1,.6-1.34,2.91,2.91,0,0,1,1.91-.51h2.07v-.39a1.68,1.68,0,0,0-.47-1.28,1.94,1.94,0,0,0-1.38-.44,3.67,3.67,0,0,0-1.19.2,3.17,3.17,0,0,0-1,.56l-.4-.65a3.5,3.5,0,0,1,1.19-.65,4.7,4.7,0,0,1,1.46-.23A2.71,2.71,0,0,1,255.87,343.88Zm-1,4.95a2.08,2.08,0,0,0,.8-1v-1.06h-2.05c-1.11,0-1.67.39-1.67,1.16a1.07,1.07,0,0,0,.44.9,1.94,1.94,0,0,0,1.21.33A2.27,2.27,0,0,0,254.88,348.83Z"/><path class="cls-2" d="M262.6,349.58a12.81,12.81,0,0,1-.38-3.17,13.09,13.09,0,0,1,.38-3.19,8.86,8.86,0,0,1,1.06-2.6h.84a9.64,9.64,0,0,0-1.07,2.68,14.35,14.35,0,0,0,0,6.21,9.7,9.7,0,0,0,1.07,2.69h-.84A9.22,9.22,0,0,1,262.6,349.58Z"/><path class="cls-2" d="M266.41,341.14h.91v8.66h-.91Z"/><path class="cls-2" d="M270.13,341.14h.92v8.66h-.92Z"/><path class="cls-2" d="M272.94,352.2a9.78,9.78,0,0,0,1.08-2.68,13.22,13.22,0,0,0,.35-3.11,13.37,13.37,0,0,0-.35-3.12,9.72,9.72,0,0,0-1.08-2.67h.84a9.16,9.16,0,0,1,1.08,2.6,13.1,13.1,0,0,1,.37,3.19,13,13,0,0,1-.37,3.18,9.06,9.06,0,0,1-1.08,2.61Z"/><path class="cls-2" d="M197.41,362a13,13,0,0,1-.38-3.18,13.09,13.09,0,0,1,.38-3.19,8.86,8.86,0,0,1,1.06-2.6h.84a9.7,9.7,0,0,0-1.07,2.69,14.35,14.35,0,0,0,0,6.21,9.82,9.82,0,0,0,1.07,2.69h-.84A9.34,9.34,0,0,1,197.41,362Z"/><path class="cls-2" d="M206.3,356.36a2.77,2.77,0,0,1,.72,2.07v3.77h-.88v-3.68a2.14,2.14,0,0,0-.5-1.55,1.89,1.89,0,0,0-1.45-.53,2.23,2.23,0,0,0-1.67.62,2.4,2.4,0,0,0-.61,1.73v3.41H201v-6.51h.84v1.2a2.47,2.47,0,0,1,1-.92,3.17,3.17,0,0,1,1.48-.33A2.63,2.63,0,0,1,206.3,356.36Z"/><path class="cls-2" d="M209,356.08h5.38v.73H209Zm0,2.86h5.38v.73H209Z"/><path class="cls-2" d="M220.93,358a2.27,2.27,0,0,1,.71,1.73,2.41,2.41,0,0,1-.36,1.31,2.38,2.38,0,0,1-1.06.91,3.91,3.91,0,0,1-1.72.34,5.24,5.24,0,0,1-1.78-.3,3.68,3.68,0,0,1-1.34-.82l.43-.7a3.06,3.06,0,0,0,1.15.72,4.13,4.13,0,0,0,1.54.28,2.56,2.56,0,0,0,1.64-.46,1.55,1.55,0,0,0,.58-1.28,1.53,1.53,0,0,0-.58-1.27,2.84,2.84,0,0,0-1.75-.45h-.62v-.66l2.4-3h-4.43v-.79h5.57v.63l-2.45,3.08A3.24,3.24,0,0,1,220.93,358Z"/><path class="cls-2" d="M228.79,361.41v.79h-6.07v-.63l3.6-3.53a4.71,4.71,0,0,0,.92-1.15,2.25,2.25,0,0,0,.24-1,1.44,1.44,0,0,0-.52-1.19,2.32,2.32,0,0,0-1.51-.43,3,3,0,0,0-2.36,1l-.63-.55a3.36,3.36,0,0,1,1.29-.91,4.56,4.56,0,0,1,1.78-.33,3.25,3.25,0,0,1,2.1.63,2.1,2.1,0,0,1,.77,1.71,2.91,2.91,0,0,1-.3,1.29,5.57,5.57,0,0,1-1.12,1.43L224,361.41Z"/><path class="cls-2" d="M236,353.54v.63l-3.63,8h-1l3.56-7.87h-4.45V356h-.88v-2.41Z"/><path class="cls-2" d="M239.58,353.54v8.66h-.89v-7.87h-2.05v-.79Z"/><path class="cls-2" d="M241.48,364.61a9.91,9.91,0,0,0,1.08-2.68,13.37,13.37,0,0,0,.35-3.12,13.22,13.22,0,0,0-.35-3.11,9.78,9.78,0,0,0-1.08-2.68h.84a8.87,8.87,0,0,1,1.07,2.6,12.62,12.62,0,0,1,.38,3.19,13,13,0,0,1-.37,3.18,9.24,9.24,0,0,1-1.08,2.62Z"/><path class="cls-2" d="M415.08,317.13a3,3,0,0,1,0,4.36,4,4,0,0,1-2.6.78h-2.32V325h-.92v-8.67h3.24A4,4,0,0,1,415.08,317.13Zm-.65,3.77a1.94,1.94,0,0,0,.68-1.59,2,2,0,0,0-.68-1.61,3,3,0,0,0-2-.57h-2.3v4.34h2.3A3,3,0,0,0,414.43,320.9Z"/><path class="cls-2" d="M419.69,318.78a3.19,3.19,0,0,1,1.52-.33v.85H421a2.08,2.08,0,0,0-1.61.63,2.5,2.5,0,0,0-.58,1.77V325h-.88V318.5h.84v1.27A2.11,2.11,0,0,1,419.69,318.78Z"/><path class="cls-2" d="M423.83,324.64a3.14,3.14,0,0,1-1.19-1.18,3.44,3.44,0,0,1-.43-1.71,3.5,3.5,0,0,1,.43-1.71,3.11,3.11,0,0,1,1.19-1.17,3.46,3.46,0,0,1,1.7-.42,3.39,3.39,0,0,1,1.69.42,3,3,0,0,1,1.19,1.17,3.49,3.49,0,0,1,.42,1.71,3.44,3.44,0,0,1-.42,1.71,3.07,3.07,0,0,1-1.19,1.18,3.29,3.29,0,0,1-1.69.43A3.36,3.36,0,0,1,423.83,324.64Zm2.94-.67a2.17,2.17,0,0,0,.86-.89,3,3,0,0,0,0-2.65,2.14,2.14,0,0,0-.86-.9,2.44,2.44,0,0,0-1.24-.32,2.5,2.5,0,0,0-1.25.32,2.26,2.26,0,0,0-.86.9,2.9,2.9,0,0,0,0,2.65,2.3,2.3,0,0,0,.86.89,2.5,2.5,0,0,0,1.25.32A2.44,2.44,0,0,0,426.77,324Z"/><path class="cls-2" d="M434,324.61a1.64,1.64,0,0,1-.61.34,2.42,2.42,0,0,1-.76.12,1.91,1.91,0,0,1-1.41-.5,1.89,1.89,0,0,1-.5-1.4v-3.93H429.6v-.74h1.16v-1.43h.88v1.43h2v.74h-2v3.88a1.25,1.25,0,0,0,.29.89,1.14,1.14,0,0,0,.84.3,1.49,1.49,0,0,0,.52-.08,1.26,1.26,0,0,0,.44-.25Z"/><path class="cls-2" d="M441.21,322h-5.45a2.31,2.31,0,0,0,.78,1.64,2.59,2.59,0,0,0,1.79.63,2.72,2.72,0,0,0,1.11-.22,2.3,2.3,0,0,0,.88-.64l.49.57a2.64,2.64,0,0,1-1.08.8,3.68,3.68,0,0,1-1.43.27,3.52,3.52,0,0,1-1.77-.43,3.05,3.05,0,0,1-1.21-1.18,3.34,3.34,0,0,1-.43-1.71,3.49,3.49,0,0,1,.41-1.71,3.05,3.05,0,0,1,1.14-1.17,3.35,3.35,0,0,1,3.25,0,2.93,2.93,0,0,1,1.12,1.17,3.43,3.43,0,0,1,.41,1.71Zm-4.72-2.22a2.35,2.35,0,0,0-.73,1.57h4.62a2.38,2.38,0,0,0-.72-1.57,2.25,2.25,0,0,0-1.59-.6A2.21,2.21,0,0,0,436.49,319.8Z"/><path class="cls-2" d="M443,316.89a.64.64,0,0,1-.18-.45A.6.6,0,0,1,443,316a.62.62,0,0,1,.46-.19.63.63,0,0,1,.46.18.58.58,0,0,1,.18.43.65.65,0,0,1-.18.46.63.63,0,0,1-.46.18A.65.65,0,0,1,443,316.89Zm0,1.61h.87V325H443Z"/><path class="cls-2" d="M451.58,319.16a2.77,2.77,0,0,1,.72,2.07V325h-.88v-3.69a2.2,2.2,0,0,0-.5-1.55,1.94,1.94,0,0,0-1.45-.53,2.26,2.26,0,0,0-1.67.62,2.37,2.37,0,0,0-.61,1.73V325h-.88V318.5h.84v1.2a2.43,2.43,0,0,1,1-.93,3.29,3.29,0,0,1,1.48-.32A2.66,2.66,0,0,1,451.58,319.16Z"/><path class="cls-2" d="M454.67,316.89a.61.61,0,0,1-.19-.45.57.57,0,0,1,.19-.43.58.58,0,0,1,.45-.19.63.63,0,0,1,.46.18.56.56,0,0,1,.19.43.62.62,0,0,1-.19.46.63.63,0,0,1-.46.18A.61.61,0,0,1,454.67,316.89Zm0,1.61h.88V325h-.88Z"/><path class="cls-2" d="M462.22,319.08a2.5,2.5,0,0,1,.68,1.89v4h-.85v-1a1.92,1.92,0,0,1-.87.79,3,3,0,0,1-1.37.29,2.66,2.66,0,0,1-1.73-.52,1.69,1.69,0,0,1-.64-1.38,1.66,1.66,0,0,1,.6-1.33,2.93,2.93,0,0,1,1.91-.51H462v-.4a1.69,1.69,0,0,0-.47-1.28,2,2,0,0,0-1.38-.44,3.43,3.43,0,0,0-1.19.21,2.9,2.9,0,0,0-1,.56l-.4-.65a3.34,3.34,0,0,1,1.19-.65,4.42,4.42,0,0,1,1.46-.23A2.8,2.8,0,0,1,462.22,319.08Zm-1,5a2.12,2.12,0,0,0,.79-1V322h-2c-1.11,0-1.67.39-1.67,1.16a1.07,1.07,0,0,0,.44.9,2,2,0,0,0,1.21.33A2.39,2.39,0,0,0,461.23,324Z"/><path class="cls-2" d="M470.54,319.16a2.77,2.77,0,0,1,.72,2.07V325h-.87v-3.69a2.16,2.16,0,0,0-.51-1.55,1.93,1.93,0,0,0-1.45-.53,2.26,2.26,0,0,0-1.67.62,2.42,2.42,0,0,0-.61,1.73V325h-.88V318.5h.85v1.2a2.4,2.4,0,0,1,1-.93,3.32,3.32,0,0,1,1.48-.32A2.63,2.63,0,0,1,470.54,319.16Z"/><path class="cls-2" d="M474.59,324.64a3,3,0,0,1-1.18-1.18,3.35,3.35,0,0,1-.44-1.71,3.4,3.4,0,0,1,.44-1.71,3,3,0,0,1,1.18-1.17,3.46,3.46,0,0,1,1.7-.42,3.39,3.39,0,0,1,1.69.42,3,3,0,0,1,1.19,1.17,3.49,3.49,0,0,1,.42,1.71,3.44,3.44,0,0,1-.42,1.71,3.07,3.07,0,0,1-1.19,1.18,3.29,3.29,0,0,1-1.69.43A3.36,3.36,0,0,1,474.59,324.64Zm2.94-.67a2.17,2.17,0,0,0,.86-.89,3,3,0,0,0,0-2.65,2.14,2.14,0,0,0-.86-.9,2.44,2.44,0,0,0-1.24-.32,2.5,2.5,0,0,0-1.25.32,2.26,2.26,0,0,0-.86.9,2.9,2.9,0,0,0,0,2.65,2.3,2.3,0,0,0,.86.89,2.5,2.5,0,0,0,1.25.32A2.44,2.44,0,0,0,477.53,324Z"/><path class="cls-2" d="M479.91,321.27h3.25V322h-3.25Z"/><path class="cls-2" d="M415.79,331.26a3,3,0,0,1,1.16,1.17,3.75,3.75,0,0,1,0,3.45,3,3,0,0,1-1.16,1.17,3.33,3.33,0,0,1-1.66.42,3,3,0,0,1-1.47-.35,2.63,2.63,0,0,1-1-1v1.29h-.85v-9.18h.88v3.91a2.69,2.69,0,0,1,1.05-1,3,3,0,0,1,1.43-.33A3.43,3.43,0,0,1,415.79,331.26Zm-.49,5.12a2.24,2.24,0,0,0,.88-.9,3,3,0,0,0,0-2.65,2.24,2.24,0,0,0-.88-.9,2.63,2.63,0,0,0-2.48,0,2.2,2.2,0,0,0-.86.9,2.9,2.9,0,0,0,0,2.65,2.2,2.2,0,0,0,.86.9,2.63,2.63,0,0,0,2.48,0Z"/><path class="cls-2" d="M425,330.9v6.51h-.84v-1.19a2.34,2.34,0,0,1-.95.92,2.88,2.88,0,0,1-1.39.33,2.74,2.74,0,0,1-2-.71,2.77,2.77,0,0,1-.74-2.09V330.9H420v3.69a2.19,2.19,0,0,0,.51,1.56,1.93,1.93,0,0,0,1.45.53,2.13,2.13,0,0,0,1.62-.63,2.42,2.42,0,0,0,.59-1.73V330.9Z"/><path class="cls-2" d="M429.22,331.18a3.19,3.19,0,0,1,1.52-.33v.85h-.21a2.08,2.08,0,0,0-1.61.63,2.5,2.5,0,0,0-.58,1.77v3.32h-.88V330.9h.84v1.27A2.21,2.21,0,0,1,429.22,331.18Z"/><path class="cls-2" d="M432.64,337.24a3.22,3.22,0,0,1-1.13-.57l.39-.7a3.32,3.32,0,0,0,1,.53,4,4,0,0,0,1.29.21,2.48,2.48,0,0,0,1.31-.28.89.89,0,0,0,.43-.79.71.71,0,0,0-.23-.56,1.55,1.55,0,0,0-.6-.31,9,9,0,0,0-.95-.21,12.48,12.48,0,0,1-1.28-.3,1.85,1.85,0,0,1-.82-.53,1.43,1.43,0,0,1-.34-1,1.62,1.62,0,0,1,.68-1.34,3.06,3.06,0,0,1,1.9-.52,5,5,0,0,1,1.26.17,3.58,3.58,0,0,1,1,.44l-.39.7a3.26,3.26,0,0,0-1.91-.56,2.18,2.18,0,0,0-1.27.3.91.91,0,0,0-.43.78.78.78,0,0,0,.24.6,1.57,1.57,0,0,0,.6.32,8.64,8.64,0,0,0,1,.22,11.09,11.09,0,0,1,1.25.3,2,2,0,0,1,.81.5,1.42,1.42,0,0,1,.33,1,1.58,1.58,0,0,1-.71,1.35,3.43,3.43,0,0,1-2,.5A4.77,4.77,0,0,1,432.64,337.24Z"/><path class="cls-2" d="M443,336.68v.73h-5.3v-.58l4.1-5.19h-4v-.74H443v.58l-4.1,5.2Z"/><path class="cls-2" d="M448.19,337a1.51,1.51,0,0,1-.61.34,2.46,2.46,0,0,1-.76.12,1.72,1.72,0,0,1-1.91-1.89v-3.94h-1.16v-.74h1.16v-1.42h.88v1.42h2v.74h-2v3.89a1.23,1.23,0,0,0,.29.88,1.07,1.07,0,0,0,.84.31,1.54,1.54,0,0,0,.52-.09,1.26,1.26,0,0,0,.44-.25Z"/><path class="cls-2" d="M455.23,330.9,452,338.19a3.17,3.17,0,0,1-.92,1.3,2,2,0,0,1-1.25.38,2.58,2.58,0,0,1-.88-.15,1.77,1.77,0,0,1-.7-.44l.41-.66a1.61,1.61,0,0,0,1.18.5,1.19,1.19,0,0,0,.77-.25,2.23,2.23,0,0,0,.58-.84l.29-.63-2.91-6.5h.92l2.45,5.53,2.45-5.53Z"/><path class="cls-2" d="M461.78,331.56a2.8,2.8,0,0,1,.72,2.07v3.78h-.88v-3.69a2.16,2.16,0,0,0-.51-1.55,1.92,1.92,0,0,0-1.44-.53,2.22,2.22,0,0,0-1.67.63,2.33,2.33,0,0,0-.61,1.72v3.42h-.88V330.9h.84v1.2a2.41,2.41,0,0,1,1-.92,3.14,3.14,0,0,1,1.48-.33A2.7,2.7,0,0,1,461.78,331.56Z"/><path class="cls-2" d="M464.85,329.29a.63.63,0,0,1,0-.88.63.63,0,0,1,.46-.18.65.65,0,0,1,.46.18.58.58,0,0,1,.18.42.63.63,0,0,1-.18.46.66.66,0,0,1-.46.19A.64.64,0,0,1,464.85,329.29Zm0,1.61h.88v6.51h-.88Z"/><path class="cls-2" d="M472.4,331.49a2.43,2.43,0,0,1,.68,1.89v4h-.84v-1a2.09,2.09,0,0,1-.87.79,3.07,3.07,0,0,1-1.37.28,2.64,2.64,0,0,1-1.73-.52,1.78,1.78,0,0,1,0-2.71,2.94,2.94,0,0,1,1.92-.51h2.06v-.39a1.64,1.64,0,0,0-.47-1.28,1.9,1.9,0,0,0-1.37-.44,3.67,3.67,0,0,0-1.19.2,3.35,3.35,0,0,0-1,.56l-.39-.65a3.41,3.41,0,0,1,1.19-.65,4.65,4.65,0,0,1,1.46-.23A2.71,2.71,0,0,1,472.4,331.49Zm-1,4.95a2,2,0,0,0,.79-1v-1.06h-2c-1.11,0-1.67.39-1.67,1.16a1.06,1.06,0,0,0,.43.9,2,2,0,0,0,1.22.33A2.27,2.27,0,0,0,471.41,336.44Z"/><path class="cls-2" d="M480.73,331.56a2.8,2.8,0,0,1,.72,2.07v3.78h-.88v-3.69a2.16,2.16,0,0,0-.51-1.55,1.92,1.92,0,0,0-1.44-.53,2.22,2.22,0,0,0-1.67.63,2.33,2.33,0,0,0-.61,1.72v3.42h-.88V330.9h.84v1.2a2.41,2.41,0,0,1,1-.92,3.14,3.14,0,0,1,1.48-.33A2.7,2.7,0,0,1,480.73,331.56Z"/><path class="cls-2" d="M432.45,349.08v.73h-5.3v-.58l4.1-5.19h-4v-.74h5.15v.58l-4.09,5.2Zm-3.07-7.25a.58.58,0,0,1-.18-.42.62.62,0,0,1,.6-.6.6.6,0,0,1,.59.6.58.58,0,0,1-.59.59A.57.57,0,0,1,429.38,341.83Z"/><path class="cls-2" d="M439.76,346.83h-5.44a2.32,2.32,0,0,0,.77,1.64,2.6,2.6,0,0,0,1.79.62,2.89,2.89,0,0,0,1.11-.21,2.53,2.53,0,0,0,.88-.64l.5.57a2.72,2.72,0,0,1-1.09.79,3.68,3.68,0,0,1-1.43.27,3.62,3.62,0,0,1-1.77-.42,3.12,3.12,0,0,1-1.21-1.18,3.39,3.39,0,0,1-.43-1.71,3.43,3.43,0,0,1,.41-1.71,3.08,3.08,0,0,1,1.14-1.18,3.19,3.19,0,0,1,1.63-.42,3.16,3.16,0,0,1,1.62.42,3,3,0,0,1,1.13,1.17,3.55,3.55,0,0,1,.4,1.72ZM435,344.61a2.29,2.29,0,0,0-.72,1.56h4.61a2.33,2.33,0,0,0-.72-1.56,2.25,2.25,0,0,0-1.59-.6A2.21,2.21,0,0,0,435,344.61Z"/><path class="cls-2" d="M441.54,340.63h.88v9.18h-.88Z"/><path class="cls-2" d="M449.08,343.89a2.43,2.43,0,0,1,.68,1.89v4h-.84v-1a2,2,0,0,1-.87.79,3.07,3.07,0,0,1-1.37.28,2.64,2.64,0,0,1-1.73-.52,1.78,1.78,0,0,1-.05-2.71,3,3,0,0,1,1.92-.5h2.06v-.4a1.64,1.64,0,0,0-.47-1.28A1.94,1.94,0,0,0,447,344a3.67,3.67,0,0,0-1.19.2,3.16,3.16,0,0,0-1,.57l-.39-.66a3.41,3.41,0,0,1,1.19-.65,4.65,4.65,0,0,1,1.46-.23A2.71,2.71,0,0,1,449.08,343.89Zm-1,4.95a2,2,0,0,0,.79-1v-1.07h-2c-1.11,0-1.67.39-1.67,1.17a1,1,0,0,0,.43.89,2,2,0,0,0,1.22.33A2.27,2.27,0,0,0,448.09,348.84Z"/><path class="cls-2" d="M456.59,349.08v.73H451.3v-.58l4.09-5.19h-4v-.74h5.15v.58l-4.1,5.2Z"/><path class="cls-2" d="M462.43,343.89a2.47,2.47,0,0,1,.68,1.89v4h-.85v-1a1.92,1.92,0,0,1-.87.79,3,3,0,0,1-1.37.28,2.66,2.66,0,0,1-1.73-.52,1.66,1.66,0,0,1-.64-1.37,1.68,1.68,0,0,1,.6-1.34,3,3,0,0,1,1.91-.5h2.07v-.4a1.68,1.68,0,0,0-.47-1.28,2,2,0,0,0-1.38-.44,3.67,3.67,0,0,0-1.19.2,3.11,3.11,0,0,0-1,.57l-.4-.66a3.5,3.5,0,0,1,1.19-.65,4.7,4.7,0,0,1,1.46-.23A2.76,2.76,0,0,1,462.43,343.89Zm-1,4.95a2.09,2.09,0,0,0,.79-1v-1.07h-2.05c-1.11,0-1.67.39-1.67,1.17a1.05,1.05,0,0,0,.44.89,2,2,0,0,0,1.21.33A2.31,2.31,0,0,0,461.44,348.84Z"/><path class="cls-2" d="M421,362a13.85,13.85,0,0,1,0-6.36A9.08,9.08,0,0,1,422,353h.84a10.15,10.15,0,0,0-1.07,2.69,14.35,14.35,0,0,0,0,6.21,10.15,10.15,0,0,0,1.07,2.69H422A9.52,9.52,0,0,1,421,362Z"/><path class="cls-2" d="M429.84,356.37a2.77,2.77,0,0,1,.73,2.07v3.78h-.88v-3.69a2.15,2.15,0,0,0-.51-1.55,1.89,1.89,0,0,0-1.45-.53,2.23,2.23,0,0,0-1.66.62,2.38,2.38,0,0,0-.62,1.73v3.42h-.87v-6.51h.84v1.2a2.46,2.46,0,0,1,1-.93,3.19,3.19,0,0,1,1.48-.32A2.63,2.63,0,0,1,429.84,356.37Z"/><path class="cls-2" d="M432.57,356.09H438v.73h-5.39Zm0,2.86H438v.73h-5.39Z"/><path class="cls-2" d="M446.82,359.94h-1.74v2.28h-.89v-2.28H439.3v-.65l4.6-5.74h1l-4.43,5.6h3.76v-2h.86v2h1.74Z"/><path class="cls-2" d="M450,353.55v8.67h-.89v-7.88h-2v-.79Z"/><path class="cls-2" d="M457.41,354.61a5,5,0,0,1,.92,3.2,5.51,5.51,0,0,1-.5,2.45,3.52,3.52,0,0,1-1.38,1.52,4.14,4.14,0,0,1-2.08.51,4,4,0,0,1-2.06-.47l.36-.72a3.06,3.06,0,0,0,1.69.41,2.87,2.87,0,0,0,2.25-.91,3.86,3.86,0,0,0,.82-2.64c0-.22,0-.45,0-.71a2.38,2.38,0,0,1-1,1.1,3.29,3.29,0,0,1-1.62.39,3.5,3.5,0,0,1-1.52-.32,2.43,2.43,0,0,1-1.4-2.28,2.6,2.6,0,0,1,.38-1.4,2.54,2.54,0,0,1,1.06-.94,3.56,3.56,0,0,1,1.52-.32A3.17,3.17,0,0,1,457.41,354.61ZM456,357.74a2,2,0,0,0,.79-.69,1.69,1.69,0,0,0,.28-1,1.75,1.75,0,0,0-.26-.92,2,2,0,0,0-.79-.68,2.77,2.77,0,0,0-1.24-.26,2.19,2.19,0,0,0-1.52.52,1.68,1.68,0,0,0-.59,1.36,1.7,1.7,0,0,0,.59,1.37,2.38,2.38,0,0,0,1.59.5A2.63,2.63,0,0,0,456,357.74Z"/><path class="cls-2" d="M465.82,358.49a2,2,0,0,1,.44,1.31,2.18,2.18,0,0,1-.4,1.32,2.62,2.62,0,0,1-1.17.87,4.9,4.9,0,0,1-1.79.3,4,4,0,0,1-2.45-.67,2.14,2.14,0,0,1-.9-1.82,2.09,2.09,0,0,1,.43-1.32,2.57,2.57,0,0,1,1.25-.81,2.11,2.11,0,0,1-1-.75,1.94,1.94,0,0,1-.35-1.15,2,2,0,0,1,.83-1.67,3.54,3.54,0,0,1,2.21-.62,4.16,4.16,0,0,1,1.6.28,2.43,2.43,0,0,1,1.07.79,2,2,0,0,1,.38,1.22,1.94,1.94,0,0,1-.35,1.15,2.23,2.23,0,0,1-1,.75A2.64,2.64,0,0,1,465.82,358.49Zm-1.12,2.57a1.57,1.57,0,0,0,0-2.54,3.08,3.08,0,0,0-1.8-.46,3,3,0,0,0-1.79.46,1.46,1.46,0,0,0-.65,1.27,1.49,1.49,0,0,0,.64,1.28,3.65,3.65,0,0,0,3.6,0Zm-3.37-4.13a2.57,2.57,0,0,0,1.57.42,2.64,2.64,0,0,0,1.58-.42,1.34,1.34,0,0,0,.57-1.13,1.35,1.35,0,0,0-.59-1.15,3.13,3.13,0,0,0-3.13,0,1.43,1.43,0,0,0,0,2.28Z"/><path class="cls-2" d="M467.34,364.62a9.91,9.91,0,0,0,1.08-2.68,14.44,14.44,0,0,0,0-6.23,9.91,9.91,0,0,0-1.08-2.68h.84a9.09,9.09,0,0,1,1.07,2.61,13.71,13.71,0,0,1,0,6.37,9.06,9.06,0,0,1-1.08,2.61Z"/><path class="cls-2" d="M310.05,320.69h.88V324a4.12,4.12,0,0,1-1.43.82,5.4,5.4,0,0,1-1.75.29,4.82,4.82,0,0,1-2.34-.57,4.27,4.27,0,0,1-1.63-1.58,4.62,4.62,0,0,1,0-4.52,4.27,4.27,0,0,1,1.63-1.58,4.85,4.85,0,0,1,2.36-.57,5,5,0,0,1,1.81.32,3.59,3.59,0,0,1,1.4.93l-.57.58a3.57,3.57,0,0,0-2.61-1,3.9,3.9,0,0,0-1.9.46,3.44,3.44,0,0,0-1.33,1.29,3.58,3.58,0,0,0-.48,1.84,3.52,3.52,0,0,0,.48,1.83,3.37,3.37,0,0,0,1.33,1.29,3.84,3.84,0,0,0,1.89.47,3.71,3.71,0,0,0,2.26-.67Z"/><path class="cls-2" d="M313.31,315.84h.88V325h-.88Z"/><path class="cls-2" d="M322.48,318.51V325h-.84v-1.19a2.34,2.34,0,0,1-.95.92,2.88,2.88,0,0,1-1.39.33,2.52,2.52,0,0,1-2.75-2.79v-3.78h.88v3.69a2.19,2.19,0,0,0,.51,1.56,1.93,1.93,0,0,0,1.45.53,2.16,2.16,0,0,0,1.62-.62,2.42,2.42,0,0,0,.59-1.74v-3.42Z"/><path class="cls-2" d="M327.35,321.75l-1.54,1.42V325h-.88v-9.18h.88v6.22l3.89-3.55h1.09L328,321.17l3.05,3.85H330Z"/><path class="cls-2" d="M333,324.66a3.09,3.09,0,0,1-1.19-1.19,3.52,3.52,0,0,1,0-3.41,3,3,0,0,1,1.19-1.18,3.39,3.39,0,0,1,1.69-.42,3.46,3.46,0,0,1,1.7.42,3,3,0,0,1,1.18,1.18,3.6,3.6,0,0,1,0,3.41,3.14,3.14,0,0,1-1.18,1.19,3.46,3.46,0,0,1-1.7.42A3.39,3.39,0,0,1,333,324.66ZM336,324a2.26,2.26,0,0,0,.86-.9,3,3,0,0,0,0-2.65,2.26,2.26,0,0,0-.86-.9,2.49,2.49,0,0,0-1.25-.31,2.43,2.43,0,0,0-1.24.31,2.22,2.22,0,0,0-.87.9,3,3,0,0,0,0,2.65,2.22,2.22,0,0,0,.87.9,2.43,2.43,0,0,0,1.24.31A2.49,2.49,0,0,0,336,324Z"/><path class="cls-2" d="M345.06,319.17a2.77,2.77,0,0,1,.73,2.08V325h-.88v-3.69a2.14,2.14,0,0,0-.51-1.54,1.89,1.89,0,0,0-1.45-.54,2.21,2.21,0,0,0-1.66.63,2.34,2.34,0,0,0-.61,1.73V325h-.88v-6.51h.84v1.2a2.47,2.47,0,0,1,1-.92,3.14,3.14,0,0,1,1.48-.33A2.66,2.66,0,0,1,345.06,319.17Z"/><path class="cls-2" d="M348.14,316.9a.6.6,0,0,1-.18-.44.62.62,0,0,1,.18-.44.68.68,0,0,1,.92,0,.58.58,0,0,1,.18.42.63.63,0,0,1-.18.46.65.65,0,0,1-.92,0Zm0,1.61H349V325h-.88Z"/><path class="cls-2" d="M355.71,319.1a2.47,2.47,0,0,1,.68,1.89v4h-.85v-1a2,2,0,0,1-.87.79,3,3,0,0,1-1.37.28,2.66,2.66,0,0,1-1.73-.52,1.66,1.66,0,0,1-.64-1.37,1.68,1.68,0,0,1,.6-1.34,2.91,2.91,0,0,1,1.91-.5h2.07V321a1.68,1.68,0,0,0-.47-1.28,2,2,0,0,0-1.38-.44,3.67,3.67,0,0,0-1.19.2,3,3,0,0,0-1,.57l-.4-.66a3.5,3.5,0,0,1,1.19-.65,4.7,4.7,0,0,1,1.46-.23A2.76,2.76,0,0,1,355.71,319.1Zm-1,4.95a2.05,2.05,0,0,0,.8-1V322h-2.05c-1.11,0-1.67.39-1.67,1.17a1.07,1.07,0,0,0,.44.89,2,2,0,0,0,1.21.33A2.27,2.27,0,0,0,354.71,324.05Z"/><path class="cls-2" d="M364,319.17a2.81,2.81,0,0,1,.72,2.08V325h-.88v-3.69a2.14,2.14,0,0,0-.51-1.54,1.89,1.89,0,0,0-1.44-.54,2.22,2.22,0,0,0-1.67.63,2.34,2.34,0,0,0-.61,1.73V325h-.88v-6.51h.84v1.2a2.47,2.47,0,0,1,1-.92,3.14,3.14,0,0,1,1.48-.33A2.7,2.7,0,0,1,364,319.17Z"/><path class="cls-2" d="M320.61,336.69v.73h-5.3v-.58l4.1-5.18h-4v-.75h5.15v.59l-4.1,5.19Zm-3.07-7.25a.57.57,0,0,1-.17-.42.59.59,0,0,1,.17-.42.57.57,0,0,1,.42-.17.54.54,0,0,1,.42.17.56.56,0,0,1,.18.42.54.54,0,0,1-.18.42.54.54,0,0,1-.42.17A.57.57,0,0,1,317.54,329.44Z"/><path class="cls-2" d="M327.93,334.44h-5.45a2.31,2.31,0,0,0,.78,1.64,2.58,2.58,0,0,0,1.78.63,2.9,2.9,0,0,0,1.12-.22,2.41,2.41,0,0,0,.88-.64l.49.57a2.76,2.76,0,0,1-1.08.79,3.54,3.54,0,0,1-1.43.28,3.69,3.69,0,0,1-1.78-.43,3,3,0,0,1-1.2-1.18,3.4,3.4,0,0,1-.44-1.71,3.44,3.44,0,0,1,.42-1.71,2.92,2.92,0,0,1,1.14-1.17,3.07,3.07,0,0,1,1.62-.43,3,3,0,0,1,1.62.43,3,3,0,0,1,1.13,1.17,3.52,3.52,0,0,1,.41,1.71Zm-4.72-2.22a2.35,2.35,0,0,0-.73,1.57h4.62a2.35,2.35,0,0,0-.73-1.57,2.38,2.38,0,0,0-3.16,0Z"/><path class="cls-2" d="M329.71,328.24h.88v9.18h-.88Z"/><path class="cls-2" d="M337.25,331.5a2.5,2.5,0,0,1,.68,1.89v4h-.84v-1a2,2,0,0,1-.88.79,3,3,0,0,1-1.36.29,2.73,2.73,0,0,1-1.74-.52,1.69,1.69,0,0,1-.64-1.38,1.64,1.64,0,0,1,.6-1.33,2.93,2.93,0,0,1,1.91-.51h2.07v-.4a1.68,1.68,0,0,0-.47-1.28,2,2,0,0,0-1.38-.44,3.37,3.37,0,0,0-1.18.21,2.86,2.86,0,0,0-1,.56l-.4-.66a3.68,3.68,0,0,1,1.19-.65,4.7,4.7,0,0,1,1.46-.23A2.8,2.8,0,0,1,337.25,331.5Zm-1,4.95a2,2,0,0,0,.79-1V334.4h-2c-1.12,0-1.67.39-1.67,1.17a1.06,1.06,0,0,0,.43.9,2,2,0,0,0,1.21.32A2.31,2.31,0,0,0,336.26,336.45Z"/><path class="cls-2" d="M344.76,336.69v.73h-5.3v-.58l4.1-5.18h-4v-.75h5.15v.59l-4.1,5.19Z"/><path class="cls-2" d="M350.59,331.5a2.5,2.5,0,0,1,.68,1.89v4h-.84v-1a2,2,0,0,1-.87.79,3.07,3.07,0,0,1-1.37.29,2.7,2.7,0,0,1-1.73-.52,1.7,1.7,0,0,1-.65-1.38,1.64,1.64,0,0,1,.6-1.33,2.94,2.94,0,0,1,1.92-.51h2.06v-.4a1.64,1.64,0,0,0-.47-1.28,1.94,1.94,0,0,0-1.37-.44,3.43,3.43,0,0,0-1.19.21,2.86,2.86,0,0,0-1,.56l-.39-.66a3.63,3.63,0,0,1,1.18-.65,4.76,4.76,0,0,1,1.47-.23A2.77,2.77,0,0,1,350.59,331.5Zm-1,4.95a1.94,1.94,0,0,0,.79-1V334.4h-2c-1.11,0-1.67.39-1.67,1.17a1.06,1.06,0,0,0,.43.9,2.06,2.06,0,0,0,1.22.32A2.27,2.27,0,0,0,349.6,336.45Z"/><path class="cls-2" d="M312.91,349.61a13.85,13.85,0,0,1,0-6.36,9.09,9.09,0,0,1,1.07-2.61h.84a9.7,9.7,0,0,0-1.07,2.69,14.35,14.35,0,0,0,0,6.21,9.82,9.82,0,0,0,1.07,2.69H314A9.66,9.66,0,0,1,312.91,349.61Z"/><path class="cls-2" d="M321.81,344a2.77,2.77,0,0,1,.72,2.07v3.78h-.88v-3.69a2.19,2.19,0,0,0-.5-1.55,1.9,1.9,0,0,0-1.45-.53,2.26,2.26,0,0,0-1.67.62,2.36,2.36,0,0,0-.61,1.73v3.42h-.88v-6.52h.84v1.2a2.47,2.47,0,0,1,1-.92,3.17,3.17,0,0,1,1.48-.33A2.67,2.67,0,0,1,321.81,344Z"/><path class="cls-2" d="M324.54,343.7h5.38v.73h-5.38Zm0,2.86h5.38v.73h-5.38Z"/><path class="cls-2" d="M336.44,345.39a2.27,2.27,0,0,1,.86,1.89,2.51,2.51,0,0,1-.36,1.34,2.36,2.36,0,0,1-1.05.94,3.94,3.94,0,0,1-1.74.34,5.21,5.21,0,0,1-1.76-.3,3.8,3.8,0,0,1-1.34-.81l.43-.71a3.1,3.1,0,0,0,1.14.72,4,4,0,0,0,1.52.28,2.59,2.59,0,0,0,1.67-.48,1.58,1.58,0,0,0,.58-1.29,1.55,1.55,0,0,0-.66-1.35,4.1,4.1,0,0,0-2.23-.46h-1.85l.45-4.34h4.74V342h-4l-.3,2.76h1.12A4.47,4.47,0,0,1,336.44,345.39Z"/><path class="cls-2" d="M344.53,341.16v.63l-3.63,8h-1L343.5,342H339v1.62h-.88v-2.41Z"/><path class="cls-2" d="M351.61,349v.8h-6.08v-.64l3.6-3.52a4.92,4.92,0,0,0,.92-1.16,2.22,2.22,0,0,0,.24-1,1.45,1.45,0,0,0-.52-1.19,2.36,2.36,0,0,0-1.51-.43,3,3,0,0,0-2.36,1l-.63-.55a3.36,3.36,0,0,1,1.29-.91,4.59,4.59,0,0,1,1.78-.32,3.24,3.24,0,0,1,2.1.62,2.11,2.11,0,0,1,.77,1.72,2.9,2.9,0,0,1-.3,1.28,5.2,5.2,0,0,1-1.12,1.43l-3,2.89Z"/><path class="cls-2" d="M352.56,352.23a9.91,9.91,0,0,0,1.08-2.68,14.44,14.44,0,0,0,0-6.23,9.78,9.78,0,0,0-1.08-2.68h.84a9.09,9.09,0,0,1,1.07,2.61,13,13,0,0,1,.38,3.18,13.1,13.1,0,0,1-.37,3.19,9.06,9.06,0,0,1-1.08,2.61Z"/><path class="cls-4" d="M556.36,264.29h-2.25v2.88h-2.29v-2.88h-7v-1.64l6.27-8.2h2.52l-5.9,7.84h4.16v-2.57h2.22v2.57h2.25Z"/><path class="cls-4" d="M559.85,264.7a1.49,1.49,0,0,1,.42,1.09,2.2,2.2,0,0,1-.09.61,7.92,7.92,0,0,1-.33,1l-.93,2.56h-1.47l.73-2.78a1.29,1.29,0,0,1-.63-.52,1.52,1.52,0,0,1-.23-.83,1.49,1.49,0,0,1,.42-1.09,1.56,1.56,0,0,1,2.11,0Z"/><path class="cls-4" d="M566.19,254.45v12.72h-2.36V256.43h-2.69v-2Z"/><polygon class="cls-3" points="176.37 302.51 174.79 302.51 155.29 302.51 155.29 302.47 155.29 58.14 153.24 58.14 153.24 92.24 153.24 94.29 153.24 151.54 153.24 153.6 153.24 302.47 141.19 302.47 141.19 304.52 154.47 304.52 155.29 304.52 174.79 304.52 176.37 304.52 623.5 304.52 623.5 302.51 176.37 302.51"/><g class="cls-5"><rect class="cls-6" x="526.87" y="314.31" width="31.44" height="28.04"/></g><g class="cls-7"><rect class="cls-8" x="497.09" y="314.31" width="14.78" height="21.99"/></g><g class="cls-9"><rect class="cls-10" x="506.83" y="320.64" width="15.49" height="16.09"/></g><g class="cls-11"><rect class="cls-12" x="521.19" y="320.24" width="11.93" height="16.06"/></g><g class="cls-13"><rect class="cls-14" x="597.91" y="320.44" width="15.24" height="15.86"/></g><g class="cls-15"><rect class="cls-16" x="572.6" y="320.24" width="11.93" height="16.06"/></g><g class="cls-17"><rect class="cls-18" x="582.89" y="319.99" width="15.39" height="16.8"/></g><path class="cls-19" d="M556.89,309h10.88l-.72,4.7h-4.59l-.82,4h4.72l-.29,1.38a7.47,7.47,0,0,1,7.22-4.6,5.78,5.78,0,0,1,6,5.64c0,.72-.27,3.26-.27,3.26h-8a8.79,8.79,0,0,0-.28,2.1c0,1.1.12,2,1.22,1.88s1.6-2.21,1.6-2.21h5s-1.2,6.43-7,6.18c-7.9-.33-6.36-8.84-6.36-8.84h-4.08L558,336.43h-6.35Zm14.75,12h2.6s.52-2.81-1.11-2.54c-1.33.22-1.49,2.54-1.49,2.54"/><path class="cls-20" d="M556.89,309v-.22H568l-.78,5.14h-4.61l-.73,3.59h4.72l-.34,1.66-.22,0-.21-.08a8.19,8.19,0,0,1,1.55-2.37,7.32,7.32,0,0,1,5.52-2.38h.37a6.12,6.12,0,0,1,5.12,2.59,6.25,6.25,0,0,1,1.07,3.18v.11h0c-.06.72-.28,3.26-.28,3.26l0,.2H571v-.22l.21.06s0,.06,0,.17a8.94,8.94,0,0,0-.23,1.87,3.27,3.27,0,0,0,.16,1.24.59.59,0,0,0,.23.31.71.71,0,0,0,.43.11H572a.93.93,0,0,0,.57-.32,3.4,3.4,0,0,0,.63-1.07,4,4,0,0,0,.15-.46c0-.06,0-.11,0-.14v0l0-.18h5.41l0,.27a9.86,9.86,0,0,1-1.3,3.17,6.42,6.42,0,0,1-5.61,3.2h-.33a6.37,6.37,0,0,1-5.55-2.85,8.78,8.78,0,0,1-1.15-4.56,10.38,10.38,0,0,1,.13-1.69l.22,0v.23h-3.91l-3.09,13.91h-6.79l5.33-27.89h.18V309l.22,0-5.19,27.19h5.9l3.09-13.92h4.53l-.05.26a1.13,1.13,0,0,0,0,.12,11,11,0,0,0-.1,1.49,8.28,8.28,0,0,0,1.08,4.32c.87,1.4,2.4,2.53,5.19,2.65h.31a6,6,0,0,0,5.23-3,9.45,9.45,0,0,0,1-2.08,6.93,6.93,0,0,0,.2-.68,1.37,1.37,0,0,0,0-.19v-.06l.22,0v.22h-5v-.22l.22.05a5.76,5.76,0,0,1-.41,1.11,3.23,3.23,0,0,1-.53.81,1.43,1.43,0,0,1-.86.46h-.2a1.16,1.16,0,0,1-.68-.19,1.25,1.25,0,0,1-.49-.82,4.76,4.76,0,0,1-.09-1.1,9.3,9.3,0,0,1,.28-2.16l.05-.16H579v.22l-.23,0s.06-.63.12-1.36l.16-1.9h0v-.08a5.72,5.72,0,0,0-1-2.93,5.63,5.63,0,0,0-4.77-2.39h-.35a6.87,6.87,0,0,0-5.19,2.23,8.43,8.43,0,0,0-1.13,1.54c-.12.21-.2.39-.26.5a.86.86,0,0,0-.05.15l0,0-.42-.12.23-1.12h-4.71l.91-4.47h4.58l.65-4.26H556.89V309l.22,0Zm14.75,12v-.22h2.6V321l-.22,0v-.07a5.88,5.88,0,0,0,.06-.82,2.63,2.63,0,0,0-.16-1,.8.8,0,0,0-.23-.3.62.62,0,0,0-.36-.1h-.18a1.09,1.09,0,0,0-.65.41,3,3,0,0,0-.53,1.22c-.05.2-.08.38-.1.5a1.39,1.39,0,0,1,0,.15V321l-.22,0v0h-.22a5.22,5.22,0,0,1,.26-1.25,2.94,2.94,0,0,1,.48-.93,1.56,1.56,0,0,1,.93-.57l.25,0a1.09,1.09,0,0,1,.63.19,1.39,1.39,0,0,1,.47.76,3.45,3.45,0,0,1,.1.9,6.22,6.22,0,0,1-.08,1l0,.18h-3l0-.23Z"/><g class="cls-21"><rect class="cls-22" x="614.75" y="319.41" width="3.66" height="3.66"/></g><path class="cls-2" d="M503,356.41a3.31,3.31,0,0,1-1.37-.82l.36-.7a3.4,3.4,0,0,0,1.25.76,4.67,4.67,0,0,0,1.61.29,2.88,2.88,0,0,0,1.74-.43,1.3,1.3,0,0,0,.59-1.1,1.1,1.1,0,0,0-.32-.83,2.1,2.1,0,0,0-.77-.48,12.67,12.67,0,0,0-1.28-.36,15.28,15.28,0,0,1-1.56-.48,2.49,2.49,0,0,1-1-.7,1.85,1.85,0,0,1-.42-1.28,2.18,2.18,0,0,1,.35-1.19,2.31,2.31,0,0,1,1.06-.86,4.26,4.26,0,0,1,1.78-.32,5.53,5.53,0,0,1,1.46.2,4.64,4.64,0,0,1,1.23.56l-.31.74a4.23,4.23,0,0,0-1.16-.54,4.4,4.4,0,0,0-1.22-.18,2.73,2.73,0,0,0-1.71.44,1.37,1.37,0,0,0-.58,1.13,1.11,1.11,0,0,0,.32.83,1.93,1.93,0,0,0,.79.49c.32.11.75.23,1.28.36a11.71,11.71,0,0,1,1.54.47,2.43,2.43,0,0,1,1,.69,1.85,1.85,0,0,1,.41,1.26,2.18,2.18,0,0,1-.35,1.19,2.47,2.47,0,0,1-1.09.86,4.49,4.49,0,0,1-1.79.31A5.44,5.44,0,0,1,503,356.41Z"/><path class="cls-2" d="M509.87,348.53a.65.65,0,0,1-.19-.45.65.65,0,0,1,.65-.62.65.65,0,0,1,.46.18.58.58,0,0,1,.18.43.62.62,0,0,1-.64.64A.63.63,0,0,1,509.87,348.53Zm0,1.61h.88v6.51h-.88Z"/><path class="cls-2" d="M517.43,350.72a2.5,2.5,0,0,1,.68,1.89v4h-.84v-1a2,2,0,0,1-.87.79,3.07,3.07,0,0,1-1.37.29,2.64,2.64,0,0,1-1.73-.52,1.7,1.7,0,0,1-.65-1.38,1.66,1.66,0,0,1,.6-1.33,2.94,2.94,0,0,1,1.92-.51h2.06v-.4a1.65,1.65,0,0,0-.47-1.28,1.94,1.94,0,0,0-1.37-.44,3.43,3.43,0,0,0-1.19.21,3,3,0,0,0-1,.56l-.39-.66a3.44,3.44,0,0,1,1.18-.64,4.48,4.48,0,0,1,1.47-.23A2.76,2.76,0,0,1,517.43,350.72Zm-1,4.95a1.94,1.94,0,0,0,.79-1v-1.06h-2c-1.11,0-1.67.38-1.67,1.16a1.06,1.06,0,0,0,.43.9,2,2,0,0,0,1.22.33A2.28,2.28,0,0,0,516.44,355.67Z"/><path class="cls-2" d="M522.24,350.42a3.17,3.17,0,0,1,1.52-.33v.85h-.21a2.08,2.08,0,0,0-1.61.63,2.5,2.5,0,0,0-.58,1.77v3.32h-.88v-6.51h.84v1.27A2.06,2.06,0,0,1,522.24,350.42Z"/><path class="cls-2" d="M526.4,356.29a3,3,0,0,1-1.19-1.18,3.56,3.56,0,0,1,0-3.43,3,3,0,0,1,1.19-1.17,3.52,3.52,0,0,1,1.73-.42,3.44,3.44,0,0,1,1.5.32,2.56,2.56,0,0,1,1,1l-.66.45a2.2,2.2,0,0,0-.82-.73,2.43,2.43,0,0,0-1.07-.24,2.55,2.55,0,0,0-1.27.32,2.18,2.18,0,0,0-.88.9,2.9,2.9,0,0,0,0,2.65,2.16,2.16,0,0,0,.88.89,2.55,2.55,0,0,0,1.27.32,2.43,2.43,0,0,0,1.07-.24A2,2,0,0,0,530,355l.66.44a2.52,2.52,0,0,1-1.06,1,3.3,3.3,0,0,1-1.49.33A3.52,3.52,0,0,1,526.4,356.29Z"/><path class="cls-2" d="M537,355.92v.73h-5.3v-.59l4.1-5.18h-4v-.74h5.15v.58l-4.1,5.2Z"/><path class="cls-2" d="M542.81,350.72a2.5,2.5,0,0,1,.68,1.89v4h-.85v-1a1.92,1.92,0,0,1-.87.79,3,3,0,0,1-1.37.29,2.66,2.66,0,0,1-1.73-.52,1.69,1.69,0,0,1-.64-1.38,1.66,1.66,0,0,1,.6-1.33,2.93,2.93,0,0,1,1.91-.51h2.07v-.4a1.69,1.69,0,0,0-.47-1.28,2,2,0,0,0-1.38-.44,3.43,3.43,0,0,0-1.19.21,2.9,2.9,0,0,0-1,.56l-.4-.66a3.49,3.49,0,0,1,1.19-.64,4.42,4.42,0,0,1,1.46-.23A2.8,2.8,0,0,1,542.81,350.72Zm-1,4.95a2,2,0,0,0,.79-1v-1.06h-2.05c-1.11,0-1.67.38-1.67,1.16a1.07,1.07,0,0,0,.44.9,2,2,0,0,0,1.21.33A2.31,2.31,0,0,0,541.82,355.67Z"/><path class="cls-2" d="M551.13,350.8a2.77,2.77,0,0,1,.72,2.07v3.78H551V353a2.16,2.16,0,0,0-.51-1.55,1.93,1.93,0,0,0-1.45-.53,2.26,2.26,0,0,0-1.67.62,2.42,2.42,0,0,0-.61,1.73v3.42h-.88v-6.51h.85v1.2a2.4,2.4,0,0,1,1-.93,3.32,3.32,0,0,1,1.48-.32A2.63,2.63,0,0,1,551.13,350.8Z"/><path class="cls-2" d="M562,355.92v.73h-5.3v-.59l4.1-5.18h-4v-.74H562v.58l-4.1,5.2ZM559,348.66a.54.54,0,0,1-.17-.42.57.57,0,0,1,.17-.42.61.61,0,0,1,.42-.17.6.6,0,0,1,.6.59.62.62,0,0,1-.6.6A.58.58,0,0,1,559,348.66Z"/><path class="cls-2" d="M569.34,353.66H563.9a2.31,2.31,0,0,0,.78,1.64,2.57,2.57,0,0,0,1.78.63,2.68,2.68,0,0,0,1.11-.22,2.22,2.22,0,0,0,.88-.64l.5.57a2.84,2.84,0,0,1-1.09.8,3.64,3.64,0,0,1-1.43.27,3.54,3.54,0,0,1-1.77-.43,3.05,3.05,0,0,1-1.21-1.18,3.34,3.34,0,0,1-.43-1.71,3.6,3.6,0,0,1,.41-1.71,3.05,3.05,0,0,1,1.14-1.17,3.19,3.19,0,0,1,1.63-.42,3.16,3.16,0,0,1,1.62.42,3,3,0,0,1,1.13,1.17,3.54,3.54,0,0,1,.41,1.71Zm-4.72-2.22a2.38,2.38,0,0,0-.72,1.57h4.61a2.34,2.34,0,0,0-.72-1.57,2.39,2.39,0,0,0-3.17,0Z"/><path class="cls-2" d="M571.14,347.46H572v9.19h-.88Z"/><path class="cls-2" d="M578.68,350.72a2.5,2.5,0,0,1,.68,1.89v4h-.84v-1a2,2,0,0,1-.88.79,3,3,0,0,1-1.36.29,2.67,2.67,0,0,1-1.74-.52,1.69,1.69,0,0,1-.64-1.38,1.66,1.66,0,0,1,.6-1.33,2.93,2.93,0,0,1,1.91-.51h2.07v-.4a1.69,1.69,0,0,0-.47-1.28,2,2,0,0,0-1.38-.44,3.37,3.37,0,0,0-1.18.21,2.86,2.86,0,0,0-1,.56l-.4-.66a3.49,3.49,0,0,1,1.19-.64,4.42,4.42,0,0,1,1.46-.23A2.8,2.8,0,0,1,578.68,350.72Zm-1,4.95a2,2,0,0,0,.79-1v-1.06h-2c-1.12,0-1.68.38-1.68,1.16a1.07,1.07,0,0,0,.44.9,2,2,0,0,0,1.21.33A2.31,2.31,0,0,0,577.69,355.67Z"/><path class="cls-2" d="M586.19,355.92v.73h-5.3v-.59l4.1-5.18h-4v-.74h5.15v.58l-4.1,5.2Z"/><path class="cls-2" d="M592,350.72a2.5,2.5,0,0,1,.68,1.89v4h-.84v-1a2,2,0,0,1-.87.79,3.07,3.07,0,0,1-1.37.29,2.67,2.67,0,0,1-1.74-.52,1.72,1.72,0,0,1-.64-1.38,1.66,1.66,0,0,1,.6-1.33,2.93,2.93,0,0,1,1.91-.51h2.07v-.4a1.69,1.69,0,0,0-.47-1.28,1.94,1.94,0,0,0-1.37-.44,3.39,3.39,0,0,0-1.19.21,2.86,2.86,0,0,0-1,.56l-.39-.66a3.35,3.35,0,0,1,1.18-.64,4.42,4.42,0,0,1,1.46-.23A2.78,2.78,0,0,1,592,350.72Zm-1,4.95a2,2,0,0,0,.79-1v-1.06h-2c-1.11,0-1.67.38-1.67,1.16a1.06,1.06,0,0,0,.43.9,2,2,0,0,0,1.21.33A2.31,2.31,0,0,0,591,355.67Z"/><path class="cls-2" d="M598.74,356.43a13.85,13.85,0,0,1,0-6.36,9.2,9.2,0,0,1,1.06-2.61h.85a9.52,9.52,0,0,0-1.07,2.69,14.35,14.35,0,0,0,0,6.21,9.52,9.52,0,0,0,1.07,2.69h-.85A9.52,9.52,0,0,1,598.74,356.43Z"/><path class="cls-2" d="M602.55,348h.92v8.67h-.92Z"/><path class="cls-2" d="M606.28,348h.91v8.67h-.91Z"/><path class="cls-2" d="M609.09,359.05a10.6,10.6,0,0,0,1.08-2.68,14.44,14.44,0,0,0,0-6.23,10.6,10.6,0,0,0-1.08-2.68h.84a9.21,9.21,0,0,1,1.07,2.61,13,13,0,0,1,.38,3.18,13.48,13.48,0,0,1-.37,3.19,9.06,9.06,0,0,1-1.08,2.61Z"/><path class="cls-2" d="M532.93,368.83a12.82,12.82,0,0,1-.37-3.17,13.1,13.1,0,0,1,.37-3.19,9.14,9.14,0,0,1,1.06-2.6h.84a10.08,10.08,0,0,0-1.07,2.68,14.39,14.39,0,0,0,0,6.22,10.08,10.08,0,0,0,1.07,2.68H534A9.52,9.52,0,0,1,532.93,368.83Z"/><path class="cls-2" d="M541.82,363.2a2.81,2.81,0,0,1,.73,2.08v3.77h-.88v-3.69a2.14,2.14,0,0,0-.51-1.54,1.89,1.89,0,0,0-1.45-.54,2.21,2.21,0,0,0-1.66.63,2.34,2.34,0,0,0-.62,1.72v3.42h-.87v-6.51h.84v1.2a2.44,2.44,0,0,1,1-.92,3.19,3.19,0,0,1,1.48-.33A2.67,2.67,0,0,1,541.82,363.2Z"/><path class="cls-2" d="M544.55,362.92h5.39v.73h-5.39Zm0,2.86h5.39v.73h-5.39Z"/><path class="cls-2" d="M553.83,360.39v8.66h-.89v-7.87h-2v-.79Z"/><path class="cls-2" d="M561.81,368.26v.79h-6.08v-.63l3.6-3.53a4.55,4.55,0,0,0,.92-1.16,2.18,2.18,0,0,0,.24-1,1.44,1.44,0,0,0-.52-1.19,2.3,2.3,0,0,0-1.51-.43,3,3,0,0,0-2.36,1l-.63-.54a3.38,3.38,0,0,1,1.29-.92,4.78,4.78,0,0,1,1.78-.32,3.25,3.25,0,0,1,2.1.63,2.09,2.09,0,0,1,.77,1.71,2.91,2.91,0,0,1-.3,1.29,5.18,5.18,0,0,1-1.12,1.42l-3,2.9Z"/><path class="cls-2" d="M568.24,361.44a5,5,0,0,1,.92,3.2,5.45,5.45,0,0,1-.5,2.45,3.47,3.47,0,0,1-1.38,1.52,4.14,4.14,0,0,1-2.08.51,3.88,3.88,0,0,1-2.06-.47l.36-.71a3.08,3.08,0,0,0,1.69.41,2.91,2.91,0,0,0,2.25-.91,3.87,3.87,0,0,0,.82-2.65c0-.21,0-.45,0-.7a2.36,2.36,0,0,1-1,1.09,3.29,3.29,0,0,1-1.62.39,3.36,3.36,0,0,1-1.52-.32,2.43,2.43,0,0,1-1.4-2.28,2.65,2.65,0,0,1,.38-1.4,2.59,2.59,0,0,1,1.06-.93,3.43,3.43,0,0,1,1.52-.33A3.2,3.2,0,0,1,568.24,361.44Zm-1.38,3.13a1.88,1.88,0,0,0,.79-.68,1.77,1.77,0,0,0,0-1.88,1.9,1.9,0,0,0-.79-.68,2.64,2.64,0,0,0-1.24-.26,2.24,2.24,0,0,0-1.52.51,1.7,1.7,0,0,0-.59,1.37,1.68,1.68,0,0,0,.59,1.36,2.34,2.34,0,0,0,1.59.51A2.5,2.5,0,0,0,566.86,364.57Z"/><path class="cls-2" d="M575.45,364.84a2.22,2.22,0,0,1,.72,1.72,2.51,2.51,0,0,1-.36,1.32,2.48,2.48,0,0,1-1.07.91,4,4,0,0,1-1.72.33,5.24,5.24,0,0,1-1.78-.3,3.61,3.61,0,0,1-1.34-.81l.43-.7a3.38,3.38,0,0,0,1.16.72,4.29,4.29,0,0,0,1.53.28,2.59,2.59,0,0,0,1.65-.47,1.68,1.68,0,0,0,0-2.54,2.87,2.87,0,0,0-1.76-.46h-.62v-.65l2.4-3h-4.43v-.79h5.57V361l-2.45,3.08A3.14,3.14,0,0,1,575.45,364.84Z"/><path class="cls-2" d="M577.25,371.45a9.66,9.66,0,0,0,1.08-2.68,14,14,0,0,0,0-6.22,9.66,9.66,0,0,0-1.08-2.68h.85a9.44,9.44,0,0,1,1.07,2.6,13.1,13.1,0,0,1,.37,3.19,13,13,0,0,1-.37,3.18,9,9,0,0,1-1.07,2.61Z"/></g><g id="Warstwa_3" data-name="Warstwa 3"><path class="cls-2" d="M41,57.24a5.24,5.24,0,0,1,0-6,3.31,3.31,0,0,1,5,0,5.23,5.23,0,0,1,0,6,3.31,3.31,0,0,1-5,0Zm4.23-.68a4.5,4.5,0,0,0,0-4.66,2.17,2.17,0,0,0-3.45,0,4.59,4.59,0,0,0,0,4.64,2.17,2.17,0,0,0,3.45,0Zm7.57-6.38H54L43.57,65.51H42.28ZM50.36,64.47a5.2,5.2,0,0,1,0-6,3.3,3.3,0,0,1,5,0,5.24,5.24,0,0,1,0,6,3.3,3.3,0,0,1-5,0Zm4.23-.69a4.52,4.52,0,0,0,0-4.64,2.17,2.17,0,0,0-3.45,0,4.5,4.5,0,0,0,0,4.66,2.17,2.17,0,0,0,3.45,0Z"/><path class="cls-2" d="M79.15,61.2H70.26l-2,4.31H67.1l7.06-15.33h1.11l7.06,15.33H81.12Zm-.42-1-4-8.85-4,8.85Z"/><path class="cls-2" d="M95.69,64.5v1H85.11V50.18H95.36v1H86.23v6H94.4v1H86.23V64.5Z"/></g></svg>