<svg id="Warstwa_1_kopia" data-name="Warstwa 1 kopia" xmlns="http://www.w3.org/2000/svg" xmlns:xlink="http://www.w3.org/1999/xlink" viewBox="0 0 560 400"><defs><style>.cls-1{fill:none;}.cls-2{fill:#575756;}.cls-3{fill:#b1b1b1;}.cls-4{fill:#b93183;}.cls-5{fill:#6f6f6e;}.cls-6{clip-path:url(#clip-path);}.cls-7{fill:url(#Gradient_bez_nazwy_21);}.cls-8{clip-path:url(#clip-path-2);}.cls-9{fill:url(#Gradient_bez_nazwy_21-2);}.cls-10{clip-path:url(#clip-path-3);}.cls-11{fill:url(#Gradient_bez_nazwy_21-3);}.cls-12{clip-path:url(#clip-path-4);}.cls-13{fill:url(#Gradient_bez_nazwy_21-4);}.cls-14{clip-path:url(#clip-path-5);}.cls-15{fill:url(#Gradient_bez_nazwy_21-5);}.cls-16{clip-path:url(#clip-path-6);}.cls-17{fill:url(#Gradient_bez_nazwy_21-6);}.cls-18{clip-path:url(#clip-path-7);}.cls-19{fill:url(#Gradient_bez_nazwy_21-7);}.cls-20{fill:#fff;}.cls-21{fill:#a80067;}.cls-22{clip-path:url(#clip-path-8);}.cls-23{fill:url(#Gradient_bez_nazwy_21-8);}</style><clipPath id="clip-path"><path class="cls-1" d="M458.47,338c-1.32-.21-1-6.41,1.1-6.2,1.38.32.85,6.21-1,6.21Zm4.81-21.9-1.93,12.39s-.26-1-2.88-1.25-5.68,2.05-6.52,7.66,2,7.65,4,7.75a6,6,0,0,0,3.64-1.18v.73h5.2l2.63-15.33h.37L469.5,337l-2.89,5.24h5.09l9.3-18.06h-5.2l-2.47,5.51-.73-5.46h-4.89l1.35-8.09Z"/></clipPath><linearGradient id="Gradient_bez_nazwy_21" x1="-150.64" y1="498.96" x2="-148.79" y2="498.96" gradientTransform="translate(8838.78 -6977.33) scale(55.86 14.64)" gradientUnits="userSpaceOnUse"><stop offset="0" stop-color="#d6007f"/><stop offset="0.46" stop-color="#c10074"/><stop offset="1" stop-color="#a80067"/></linearGradient><clipPath id="clip-path-2"><polygon class="cls-1" points="423.83 316.11 422.79 321.17 426.8 321.17 424.18 337.02 430.17 337.02 432.62 321.12 436.19 321.15 436.84 316.11 423.83 316.11"/></clipPath><linearGradient id="Gradient_bez_nazwy_21-2" x1="-150.61" y1="496.72" x2="-148.76" y2="496.72" gradientTransform="translate(8967.95 -5427.16) scale(56.74 11.58)" xlink:href="#Gradient_bez_nazwy_21"/><clipPath id="clip-path-3"><path class="cls-1" d="M438.82,332.65c-1.73-.1-.95-6.35.74-6.14.73-.05,1.1,1.51,1,3.07s-.62,3.07-1.68,3.07Zm-.53-10.5c-2.25.21-5.82,2.21-6,8.14s1.62,7,4.09,7.09a3.71,3.71,0,0,0,3.36-1.47V337h4.83l2.23-14.55h-4.52l-.54,1a3.88,3.88,0,0,0-3-1.33l-.43,0"/></clipPath><linearGradient id="Gradient_bez_nazwy_21-3" x1="-150.63" y1="493.48" x2="-148.77" y2="493.48" gradientTransform="translate(8883.99 -3962.32) scale(56.16 8.7)" xlink:href="#Gradient_bez_nazwy_21"/><clipPath id="clip-path-4"><path class="cls-1" d="M456.59,321.75h0a3.74,3.74,0,0,0-1.78.45,7.12,7.12,0,0,0-1.84,1.42l-.11-1.15h-4.93L445.7,337h5.1s.1-6.73,1.68-8.57a5.43,5.43,0,0,1,3.94-1.78l.63-4.89a3,3,0,0,0-.45,0Z"/></clipPath><linearGradient id="Gradient_bez_nazwy_21-4" x1="-150.64" y1="493.34" x2="-148.79" y2="493.34" gradientTransform="translate(8834.23 -3923.52) scale(55.83 8.62)" xlink:href="#Gradient_bez_nazwy_21"/><clipPath id="clip-path-5"><path class="cls-1" d="M529.56,321.93h0a6.31,6.31,0,0,0-3.5,1.43l-.07-.89h-5.09L518.65,337h5l1.42-8.2s.32-1.78,1.36-1.63.64,1.58.64,1.58L525.87,337h5.19s2.07-10.77,1.87-12.19a3.33,3.33,0,0,0-3.2-2.89Z"/></clipPath><linearGradient id="Gradient_bez_nazwy_21-5" x1="-150.52" y1="493.18" x2="-148.66" y2="493.18" gradientTransform="translate(9263.3 -3873.22) scale(58.73 8.52)" xlink:href="#Gradient_bez_nazwy_21"/><clipPath id="clip-path-6"><path class="cls-1" d="M505.47,321.75h0a3.77,3.77,0,0,0-1.78.45,7.17,7.17,0,0,0-1.83,1.42l-.11-1.15h-4.94L494.59,337h5.09s.11-6.73,1.68-8.57a5.43,5.43,0,0,1,3.94-1.78l.63-4.89a2.86,2.86,0,0,0-.45,0Z"/></clipPath><linearGradient id="Gradient_bez_nazwy_21-6" x1="-150.64" y1="493.34" x2="-148.79" y2="493.34" gradientTransform="translate(8833.98 -3923.83) scale(55.82 8.62)" xlink:href="#Gradient_bez_nazwy_21"/><clipPath id="clip-path-7"><path class="cls-1" d="M510.84,332.6c-2.3-.25-1-7,1.05-6.53,2.3.35,1.4,6.53-.9,6.53h-.15m1.68-11.1c-4.93,0-7.63,4.23-8,8.56-.14,1.63.26,7.42,6.83,7.37s7.35-7.46,7.51-9.61a5.88,5.88,0,0,0-6.15-6.32Z"/></clipPath><linearGradient id="Gradient_bez_nazwy_21-7" x1="-150.62" y1="493.99" x2="-148.77" y2="493.99" gradientTransform="translate(8916.38 -4140.68) scale(56.38 9.05)" xlink:href="#Gradient_bez_nazwy_21"/><clipPath id="clip-path-8"><path class="cls-1" d="M536.1,322h.33c.19,0,.4,0,.4.27s-.19.3-.41.3h-.32Zm-.37-.28v2h.37v-.85h.22l.52.85h.37l-.53-.87a.5.5,0,0,0,.52-.53c0-.41-.26-.58-.73-.58Zm-.64,1a1.32,1.32,0,1,1,1.32,1.4,1.33,1.33,0,0,1-1.32-1.4m-.42,0a1.74,1.74,0,1,0,1.74-1.74,1.74,1.74,0,0,0-1.74,1.74"/></clipPath><linearGradient id="Gradient_bez_nazwy_21-8" x1="-199.58" y1="452.33" x2="-197.72" y2="452.33" gradientTransform="translate(908.69 -677.28) scale(1.87 2.21)" xlink:href="#Gradient_bez_nazwy_21"/></defs><title>wykres_toler_2</title><path class="cls-2" d="M70.52,38.41a4.58,4.58,0,0,1-1-3,4.58,4.58,0,0,1,1-3A3.12,3.12,0,0,1,73,31.19a3.17,3.17,0,0,1,2.52,1.15,4.58,4.58,0,0,1,1,3,4.59,4.59,0,0,1-1,3A3.16,3.16,0,0,1,73,39.56,3.11,3.11,0,0,1,70.52,38.41Zm4.25-.69a3.7,3.7,0,0,0,.65-2.34A3.75,3.75,0,0,0,74.77,33,2.08,2.08,0,0,0,73,32.18a2,2,0,0,0-1.73.86,3.82,3.82,0,0,0-.64,2.34,3.79,3.79,0,0,0,.64,2.33,2.18,2.18,0,0,0,3.46,0Zm7.61-6.42h1.3L73.16,46.72h-1.3ZM80,45.67a5.2,5.2,0,0,1,0-6.05,3.31,3.31,0,0,1,5,0,5.25,5.25,0,0,1,0,6.05,3.31,3.31,0,0,1-5,0ZM84.23,45a3.79,3.79,0,0,0,.64-2.33,3.8,3.8,0,0,0-.64-2.34,2,2,0,0,0-1.74-.86,2.07,2.07,0,0,0-1.73.85,4.56,4.56,0,0,0,0,4.69,2.07,2.07,0,0,0,1.73.85A2,2,0,0,0,84.23,45Z"/><path class="cls-2" d="M52.36,307.72a4.31,4.31,0,0,1-1.5-1.88,8,8,0,0,1,0-5.77,4.31,4.31,0,0,1,1.5-1.88,4,4,0,0,1,4.4,0,4.35,4.35,0,0,1,1.52,1.88,8,8,0,0,1,0,5.77,4.35,4.35,0,0,1-1.52,1.88,4,4,0,0,1-4.4,0Zm3.84-.87a3.31,3.31,0,0,0,1.1-1.51,7.31,7.31,0,0,0,0-4.77,3.31,3.31,0,0,0-1.1-1.51,2.67,2.67,0,0,0-1.64-.52,2.64,2.64,0,0,0-1.63.52,3.39,3.39,0,0,0-1.11,1.51,7.49,7.49,0,0,0,0,4.77,3.39,3.39,0,0,0,1.11,1.51,2.64,2.64,0,0,0,1.63.52A2.67,2.67,0,0,0,56.2,306.85Z"/><path class="cls-2" d="M43.88,236.22v10.66h-1.1V237.2H40.27v-1Z"/><path class="cls-2" d="M48.47,246.31A4.2,4.2,0,0,1,47,244.43a7.95,7.95,0,0,1,0-5.76,4.2,4.2,0,0,1,1.51-1.88,4,4,0,0,1,4.39,0,4.29,4.29,0,0,1,1.52,1.88,7.82,7.82,0,0,1,0,5.76,4.29,4.29,0,0,1-1.52,1.88,4,4,0,0,1-4.39,0Zm3.83-.87a3.27,3.27,0,0,0,1.1-1.5,7.34,7.34,0,0,0,0-4.78,3.36,3.36,0,0,0-1.1-1.51,2.88,2.88,0,0,0-3.27,0,3.36,3.36,0,0,0-1.1,1.51,7.34,7.34,0,0,0,0,4.78,3.27,3.27,0,0,0,1.1,1.5,2.83,2.83,0,0,0,3.27,0Z"/><path class="cls-2" d="M48.2,185.53v1H40.73v-.77l4.43-4.34A6,6,0,0,0,46.29,180a2.7,2.7,0,0,0,.3-1.21,1.79,1.79,0,0,0-.65-1.47,2.87,2.87,0,0,0-1.85-.53,3.63,3.63,0,0,0-2.9,1.19l-.78-.67A4,4,0,0,1,42,176.16a5.57,5.57,0,0,1,2.18-.4,4,4,0,0,1,2.58.77,2.54,2.54,0,0,1,1,2.11,3.68,3.68,0,0,1-.36,1.58A6.77,6.77,0,0,1,46,182l-3.62,3.56Z"/><path class="cls-2" d="M51.62,185.94a4.2,4.2,0,0,1-1.51-1.88,8,8,0,0,1,0-5.77,4.32,4.32,0,0,1,1.51-1.88,3.85,3.85,0,0,1,2.2-.65,3.89,3.89,0,0,1,2.2.65,4.46,4.46,0,0,1,1.51,1.88,7.84,7.84,0,0,1,0,5.77A4.34,4.34,0,0,1,56,185.94a3.83,3.83,0,0,1-2.2.66A3.78,3.78,0,0,1,51.62,185.94Zm3.83-.87a3.36,3.36,0,0,0,1.11-1.5,7.52,7.52,0,0,0,0-4.78,3.45,3.45,0,0,0-1.11-1.51,2.83,2.83,0,0,0-3.27,0,3.36,3.36,0,0,0-1.1,1.51,7.34,7.34,0,0,0,0,4.78,3.27,3.27,0,0,0,1.1,1.5,2.83,2.83,0,0,0,3.27,0Z"/><path class="cls-2" d="M47.1,119.92A2.77,2.77,0,0,1,48,122a3,3,0,0,1-.44,1.62,3,3,0,0,1-1.31,1.12,5,5,0,0,1-2.11.41,6.38,6.38,0,0,1-2.19-.37,4.47,4.47,0,0,1-1.65-1l.53-.87a3.79,3.79,0,0,0,1.42.89,5.16,5.16,0,0,0,1.89.35,3.17,3.17,0,0,0,2-.57,1.92,1.92,0,0,0,.72-1.58,1.85,1.85,0,0,0-.72-1.55,3.44,3.44,0,0,0-2.16-.57h-.76v-.8l2.95-3.7H40.71v-1h6.85v.77l-3,3.79A3.93,3.93,0,0,1,47.1,119.92Z"/><path class="cls-2" d="M51.56,124.54a4.32,4.32,0,0,1-1.51-1.88,8,8,0,0,1,0-5.77A4.26,4.26,0,0,1,51.56,115,4,4,0,0,1,56,115a4.35,4.35,0,0,1,1.52,1.88,7.84,7.84,0,0,1,0,5.77A4.41,4.41,0,0,1,56,124.54a4,4,0,0,1-4.39,0Zm3.83-.87a3.36,3.36,0,0,0,1.1-1.51,7.34,7.34,0,0,0,0-4.78,3.27,3.27,0,0,0-1.1-1.5,2.83,2.83,0,0,0-3.27,0,3.27,3.27,0,0,0-1.1,1.5,7.34,7.34,0,0,0,0,4.78,3.36,3.36,0,0,0,1.1,1.51,2.83,2.83,0,0,0,3.27,0Z"/><path class="cls-2" d="M50,60.89H47.85v2.8h-1.1v-2.8h-6V60.1L46.39,53h1.22l-5.45,6.88h4.63V57.45h1.06v2.47H50Z"/><path class="cls-2" d="M53,63.13a4.31,4.31,0,0,1-1.5-1.88,8,8,0,0,1,0-5.77A4.37,4.37,0,0,1,53,53.6a4,4,0,0,1,4.4,0,4.39,4.39,0,0,1,1.51,1.88,7.84,7.84,0,0,1,0,5.77,4.33,4.33,0,0,1-1.51,1.88,4,4,0,0,1-4.4,0Zm3.84-.87a3.27,3.27,0,0,0,1.1-1.5A7.34,7.34,0,0,0,58,56a3.36,3.36,0,0,0-1.1-1.51A2.74,2.74,0,0,0,55.23,54a2.71,2.71,0,0,0-1.63.52A3.38,3.38,0,0,0,52.49,56a7.52,7.52,0,0,0,0,4.78,3.29,3.29,0,0,0,1.11,1.5,2.64,2.64,0,0,0,1.63.52A2.67,2.67,0,0,0,56.87,62.26Z"/><rect class="cls-3" x="71.71" y="210.58" width="14.18" height="2.06"/><rect class="cls-3" x="71.71" y="149.17" width="14.18" height="2.06"/><rect class="cls-3" x="71.71" y="87.78" width="14.18" height="2.06"/><rect class="cls-3" x="71.71" y="241.28" width="14.18" height="2.06"/><polyline class="cls-3" points="71.71 241.28 71.71 243.34 85.89 243.34 85.89 241.28"/><rect class="cls-3" x="71.71" y="271.98" width="14.18" height="2.06"/><rect class="cls-3" x="71.71" y="179.87" width="14.18" height="2.06"/><rect class="cls-3" x="71.71" y="118.48" width="14.18" height="2.06"/><rect class="cls-3" x="71.71" y="57.08" width="14.18" height="2.06"/><path class="cls-2" d="M369.27,231.85v1.59l-5,11.2h-2.53l4.8-10.78h-5V236h-2.21v-4.18Z"/><path class="cls-2" d="M373.24,242.15a1.49,1.49,0,0,1,.42,1.1,2.69,2.69,0,0,1-.08.61c-.06.21-.17.53-.34,1l-.93,2.58h-1.48l.73-2.8a1.29,1.29,0,0,1-.63-.52,1.44,1.44,0,0,1-.23-.83,1.49,1.49,0,0,1,.42-1.1,1.43,1.43,0,0,1,1.06-.42A1.45,1.45,0,0,1,373.24,242.15Z"/><path class="cls-2" d="M377.79,244a5.14,5.14,0,0,1-1.9-2.26,9.28,9.28,0,0,1,0-7.07,5.23,5.23,0,0,1,1.9-2.27,5,5,0,0,1,2.74-.77,5.09,5.09,0,0,1,2.75.77,5.29,5.29,0,0,1,1.9,2.27,9.28,9.28,0,0,1,0,7.07,5.21,5.21,0,0,1-1.9,2.26,5,5,0,0,1-2.75.78A4.91,4.91,0,0,1,377.79,244Zm4.9-2.42a7.54,7.54,0,0,0,0-6.76,2.62,2.62,0,0,0-4.31,0,7.54,7.54,0,0,0,0,6.76,2.62,2.62,0,0,0,4.31,0Z"/><path class="cls-2" d="M150.85,91.55a3.47,3.47,0,0,1,.94,2.47,3.77,3.77,0,0,1-.57,2,3.91,3.91,0,0,1-1.71,1.45,6.47,6.47,0,0,1-2.78.54,8.88,8.88,0,0,1-2.64-.39,6.8,6.8,0,0,1-2.17-1.09l1-1.85a5.39,5.39,0,0,0,1.69.93,6.54,6.54,0,0,0,2.06.34,3.3,3.3,0,0,0,2-.53,1.63,1.63,0,0,0,.72-1.41,1.65,1.65,0,0,0-.68-1.4,3.6,3.6,0,0,0-2.09-.5h-1.17V90.51l2.9-3.45h-5.81v-2h8.72v1.59l-3.11,3.69A4.36,4.36,0,0,1,150.85,91.55Z"/><path class="cls-2" d="M157.76,85.07V97.86h-2.38V87.06h-2.7v-2Z"/><path class="cls-2" d="M162.8,95.37a1.49,1.49,0,0,1,.42,1.1,2.69,2.69,0,0,1-.08.61c-.06.21-.17.53-.34,1l-.93,2.58h-1.48l.73-2.8a1.29,1.29,0,0,1-.63-.52,1.52,1.52,0,0,1-.23-.83,1.49,1.49,0,0,1,.42-1.1,1.55,1.55,0,0,1,2.12,0Z"/><path class="cls-2" d="M172.83,90.45a3.7,3.7,0,0,1,1.57,1.38,3.75,3.75,0,0,1,.57,2.06,3.93,3.93,0,0,1-.62,2.19,4.19,4.19,0,0,1-1.69,1.45,5.35,5.35,0,0,1-2.37.51,5.17,5.17,0,0,1-4.08-1.64,6.91,6.91,0,0,1-1.46-4.72,8,8,0,0,1,.79-3.68,5.43,5.43,0,0,1,2.2-2.32,6.61,6.61,0,0,1,3.28-.79,7.76,7.76,0,0,1,1.85.21,4.92,4.92,0,0,1,1.51.61l-.88,1.79a4.37,4.37,0,0,0-2.42-.62A3.73,3.73,0,0,0,168.19,88a4.65,4.65,0,0,0-1,3.27v0a3.56,3.56,0,0,1,1.44-1,5.58,5.58,0,0,1,2-.33A5.21,5.21,0,0,1,172.83,90.45ZM172,95.58a2.17,2.17,0,0,0,0-3.17,2.78,2.78,0,0,0-1.86-.58,2.82,2.82,0,0,0-1.88.62,2,2,0,0,0-.72,1.57,1.94,1.94,0,0,0,.71,1.54,2.84,2.84,0,0,0,1.94.62A2.67,2.67,0,0,0,172,95.58Z"/><path class="cls-2" d="M257.61,110.33v2h-9.43v-1.59l5.08-4.82a5.6,5.6,0,0,0,1.16-1.43,2.78,2.78,0,0,0,.3-1.22,1.66,1.66,0,0,0-.6-1.37,2.85,2.85,0,0,0-1.77-.47,3.58,3.58,0,0,0-3,1.33l-1.66-1.28a4.89,4.89,0,0,1,2-1.56,7,7,0,0,1,2.84-.56,5.15,5.15,0,0,1,3.32,1,3.24,3.24,0,0,1,1.25,2.68,4.5,4.5,0,0,1-.44,2,7.53,7.53,0,0,1-1.68,2.08l-3.42,3.25Z"/><path class="cls-2" d="M267.37,101a6.86,6.86,0,0,1,1.46,4.71,8,8,0,0,1-.79,3.68,5.43,5.43,0,0,1-2.2,2.32,6.61,6.61,0,0,1-3.28.8,7.76,7.76,0,0,1-1.85-.21,4.93,4.93,0,0,1-1.51-.62l.88-1.79a4.29,4.29,0,0,0,2.42.62,3.71,3.71,0,0,0,2.89-1.13,4.62,4.62,0,0,0,1-3.27v0a3.63,3.63,0,0,1-1.44,1,5.57,5.57,0,0,1-2,.34,5.08,5.08,0,0,1-2.27-.49,3.7,3.7,0,0,1-2.14-3.44,3.87,3.87,0,0,1,.62-2.18,4.22,4.22,0,0,1,1.69-1.46,5.35,5.35,0,0,1,2.37-.51A5.15,5.15,0,0,1,267.37,101Zm-2,3.94a2,2,0,0,0,0-3.11,2.84,2.84,0,0,0-1.94-.61,2.67,2.67,0,0,0-1.81.59,2.17,2.17,0,0,0,0,3.17,3.21,3.21,0,0,0,3.74,0Z"/><path class="cls-2" d="M272.94,109.86a1.48,1.48,0,0,1,.42,1.1,2.31,2.31,0,0,1-.09.61,7.92,7.92,0,0,1-.33,1L272,115.1h-1.48l.74-2.79a1.43,1.43,0,0,1-.64-.52,1.54,1.54,0,0,1-.22-.83,1.48,1.48,0,0,1,.42-1.1,1.43,1.43,0,0,1,1.06-.42A1.45,1.45,0,0,1,272.94,109.86Z"/><path class="cls-2" d="M279.31,99.56v12.78h-2.37V101.55h-2.71v-2Z"/><path class="cls-2" d="M113.12,316.61H114v8.71h-.92Z"/><path class="cls-2" d="M122,319.44a2.84,2.84,0,0,1,.72,2.09v3.79h-.88v-3.71a2.16,2.16,0,0,0-.51-1.55,1.92,1.92,0,0,0-1.46-.54,2.23,2.23,0,0,0-1.67.63,2.39,2.39,0,0,0-.62,1.74v3.43h-.88v-6.54h.85V320a2.47,2.47,0,0,1,1-.92,3.21,3.21,0,0,1,1.49-.33A2.71,2.71,0,0,1,122,319.44Z"/><path class="cls-2" d="M130.37,319.44a2.8,2.8,0,0,1,.73,2.09v3.79h-.88v-3.71a2.16,2.16,0,0,0-.51-1.55,1.92,1.92,0,0,0-1.46-.54,2.23,2.23,0,0,0-1.67.63,2.39,2.39,0,0,0-.62,1.74v3.43h-.88v-6.54h.85V320a2.47,2.47,0,0,1,1-.92,3.17,3.17,0,0,1,1.48-.33A2.68,2.68,0,0,1,130.37,319.44Z"/><path class="cls-2" d="M139.18,322.32H133.7a2.32,2.32,0,0,0,.79,1.65,2.59,2.59,0,0,0,1.79.63,2.76,2.76,0,0,0,1.12-.22,2.41,2.41,0,0,0,.88-.64l.5.57a2.81,2.81,0,0,1-1.09.8,3.77,3.77,0,0,1-1.44.27,3.69,3.69,0,0,1-1.78-.42,3.17,3.17,0,0,1-1.22-1.19,3.41,3.41,0,0,1-.43-1.72,3.51,3.51,0,0,1,.42-1.72,2.94,2.94,0,0,1,1.14-1.18,3.23,3.23,0,0,1,1.64-.42,3.19,3.19,0,0,1,1.63.42,3.06,3.06,0,0,1,1.13,1.18,3.56,3.56,0,0,1,.41,1.72Zm-4.75-2.23a2.37,2.37,0,0,0-.73,1.57h4.64a2.37,2.37,0,0,0-.73-1.57,2.41,2.41,0,0,0-3.18,0Z"/><path class="cls-2" d="M149.27,319.14a3.08,3.08,0,0,1,1.17,1.18,3.79,3.79,0,0,1,0,3.47,3,3,0,0,1-1.17,1.18,3.31,3.31,0,0,1-1.67.41,3.12,3.12,0,0,1-1.44-.33,2.69,2.69,0,0,1-1-1v3.65h-.88v-9h.84v1.29a2.77,2.77,0,0,1,1.05-1,3,3,0,0,1,1.48-.35A3.47,3.47,0,0,1,149.27,319.14Zm-.49,5.14a2.24,2.24,0,0,0,.88-.9,2.92,2.92,0,0,0,0-2.66,2.38,2.38,0,0,0-.88-.9,2.58,2.58,0,0,0-2.49,0,2.35,2.35,0,0,0-.87.9,2.92,2.92,0,0,0,0,2.66,2.22,2.22,0,0,0,.87.9,2.58,2.58,0,0,0,2.49,0Z"/><path class="cls-2" d="M154.41,319.06a3.21,3.21,0,0,1,1.53-.33v.86l-.22,0a2.1,2.1,0,0,0-1.61.64,2.51,2.51,0,0,0-.59,1.78v3.33h-.88v-6.54h.84v1.28A2.2,2.2,0,0,1,154.41,319.06Z"/><path class="cls-2" d="M163.31,322.32h-5.47a2.35,2.35,0,0,0,.78,1.65,2.61,2.61,0,0,0,1.79.63,2.73,2.73,0,0,0,1.12-.22,2.44,2.44,0,0,0,.89-.64l.5.57a2.89,2.89,0,0,1-1.09.8,3.77,3.77,0,0,1-1.44.27,3.73,3.73,0,0,1-1.79-.42,3.22,3.22,0,0,1-1.21-1.19,3.41,3.41,0,0,1-.43-1.72,3.5,3.5,0,0,1,.41-1.72,3,3,0,0,1,1.15-1.18,3.37,3.37,0,0,1,3.26,0,3.08,3.08,0,0,1,1.14,1.18,3.56,3.56,0,0,1,.41,1.72Zm-4.74-2.23a2.37,2.37,0,0,0-.73,1.57h4.64a2.37,2.37,0,0,0-.73-1.57,2.25,2.25,0,0,0-1.6-.6A2.21,2.21,0,0,0,158.57,320.09Z"/><path class="cls-2" d="M170.16,319.14a3.08,3.08,0,0,1,1.17,1.18,3.79,3.79,0,0,1,0,3.47,3,3,0,0,1-1.17,1.18,3.31,3.31,0,0,1-1.67.41,3.12,3.12,0,0,1-1.44-.33,2.83,2.83,0,0,1-1.05-1v3.65h-.88v-9H166v1.29a2.72,2.72,0,0,1,1.06-1,3,3,0,0,1,1.47-.35A3.47,3.47,0,0,1,170.16,319.14Zm-.49,5.14a2.18,2.18,0,0,0,.88-.9,2.92,2.92,0,0,0,0-2.66,2.31,2.31,0,0,0-.88-.9,2.58,2.58,0,0,0-2.49,0,2.35,2.35,0,0,0-.87.9,2.92,2.92,0,0,0,0,2.66,2.22,2.22,0,0,0,.87.9,2.58,2.58,0,0,0,2.49,0Z"/><path class="cls-2" d="M177.78,319.37a2.47,2.47,0,0,1,.69,1.9v4.05h-.85v-1a2,2,0,0,1-.87.8,3.12,3.12,0,0,1-1.38.28,2.67,2.67,0,0,1-1.74-.52,1.7,1.7,0,0,1-.65-1.38,1.66,1.66,0,0,1,.6-1.34,3,3,0,0,1,1.93-.51h2.07v-.4a1.68,1.68,0,0,0-.47-1.29,2,2,0,0,0-1.38-.44,3.67,3.67,0,0,0-1.19.2,3.1,3.1,0,0,0-1,.57l-.39-.66a3.5,3.5,0,0,1,1.19-.65,4.44,4.44,0,0,1,1.47-.23A2.74,2.74,0,0,1,177.78,319.37Zm-1,5a2,2,0,0,0,.79-1v-1.07h-2.05q-1.68,0-1.68,1.17a1.07,1.07,0,0,0,.44.9,2,2,0,0,0,1.22.33A2.42,2.42,0,0,0,176.79,324.35Z"/><path class="cls-2" d="M182.62,319.06a3.19,3.19,0,0,1,1.52-.33v.86l-.21,0a2.11,2.11,0,0,0-1.62.64,2.51,2.51,0,0,0-.58,1.78v3.33h-.88v-6.54h.84v1.28A2.2,2.2,0,0,1,182.62,319.06Z"/><path class="cls-2" d="M189.8,319.37a2.47,2.47,0,0,1,.69,1.9v4.05h-.85v-1a2,2,0,0,1-.88.8,3,3,0,0,1-1.37.28,2.67,2.67,0,0,1-1.74-.52,1.7,1.7,0,0,1-.65-1.38,1.66,1.66,0,0,1,.6-1.34,3,3,0,0,1,1.93-.51h2.07v-.4a1.68,1.68,0,0,0-.47-1.29,2,2,0,0,0-1.38-.44,3.62,3.62,0,0,0-1.19.2,3.1,3.1,0,0,0-1,.57l-.4-.66a3.55,3.55,0,0,1,1.2-.65,4.44,4.44,0,0,1,1.47-.23A2.74,2.74,0,0,1,189.8,319.37Zm-1,5a2.06,2.06,0,0,0,.79-1v-1.07h-2q-1.68,0-1.68,1.17a1.07,1.07,0,0,0,.44.9,2,2,0,0,0,1.22.33A2.42,2.42,0,0,0,188.81,324.35Z"/><path class="cls-2" d="M196.32,324.92a1.66,1.66,0,0,1-.61.35,2.81,2.81,0,0,1-.77.11,1.71,1.71,0,0,1-1.91-1.9v-4h-1.17v-.74H193v-1.43h.88v1.43h2v.74h-2v3.91a1.25,1.25,0,0,0,.29.89,1.14,1.14,0,0,0,.84.31,1.6,1.6,0,0,0,.53-.09,1.26,1.26,0,0,0,.44-.25Z"/><path class="cls-2" d="M203.4,318.78l-3.27,7.33a3.1,3.1,0,0,1-.92,1.3,2.05,2.05,0,0,1-1.26.39,2.54,2.54,0,0,1-.88-.15,2,2,0,0,1-.71-.45l.41-.66a1.64,1.64,0,0,0,1.2.5,1.18,1.18,0,0,0,.76-.25,2.29,2.29,0,0,0,.59-.85l.29-.63-2.93-6.53h.92l2.47,5.56,2.46-5.56Z"/><path class="cls-2" d="M126.92,337.05v.74H121.6v-.59l4.11-5.21h-4v-.75h5.18v.59l-4.12,5.22Z"/><path class="cls-2" d="M132.77,331.83a2.48,2.48,0,0,1,.68,1.9v4.06h-.84v-1a2.08,2.08,0,0,1-.88.8,3.09,3.09,0,0,1-1.38.28,2.67,2.67,0,0,1-1.74-.52,1.81,1.81,0,0,1,0-2.73,2.94,2.94,0,0,1,1.92-.51h2.08v-.39a1.68,1.68,0,0,0-.47-1.29,1.94,1.94,0,0,0-1.38-.44,3.44,3.44,0,0,0-1.2.2,3,3,0,0,0-1,.57l-.4-.66a3.7,3.7,0,0,1,1.19-.66,4.81,4.81,0,0,1,1.47-.23A2.81,2.81,0,0,1,132.77,331.83Zm-1,5a2,2,0,0,0,.8-1v-1.07h-2q-1.68,0-1.68,1.17a1.08,1.08,0,0,0,.43.91,2.06,2.06,0,0,0,1.22.32A2.29,2.29,0,0,0,131.77,336.81Z"/><path class="cls-2" d="M145.25,331.24l-2.48,6.55h-.83l-2.07-5.36-2.06,5.36H137l-2.46-6.55h.85l2,5.57,2.1-5.57h.76l2.09,5.57,2.08-5.57Z"/><path class="cls-2" d="M146.55,329.63a.64.64,0,0,1-.18-.45.62.62,0,0,1,.18-.44.66.66,0,0,1,.47-.18.65.65,0,0,1,.46.18.58.58,0,0,1,.18.43.62.62,0,0,1-.64.64A.66.66,0,0,1,146.55,329.63Zm0,1.61h.88v6.55h-.88Z"/><path class="cls-2" d="M155.59,334.79h-5.48a2.32,2.32,0,0,0,.79,1.65,2.59,2.59,0,0,0,1.79.63,2.73,2.73,0,0,0,1.12-.22,2.41,2.41,0,0,0,.88-.64l.5.57a2.74,2.74,0,0,1-1.09.8,3.7,3.7,0,0,1-1.44.27,3.58,3.58,0,0,1-1.78-.43,3,3,0,0,1-1.21-1.19,3.35,3.35,0,0,1-.44-1.71,3.51,3.51,0,0,1,.42-1.72,2.94,2.94,0,0,1,1.14-1.18,3.24,3.24,0,0,1,1.64-.43,3.2,3.2,0,0,1,1.63.43,3,3,0,0,1,1.13,1.17,3.62,3.62,0,0,1,.41,1.73Zm-4.75-2.23a2.35,2.35,0,0,0-.73,1.57h4.64a2.34,2.34,0,0,0-.72-1.57,2.39,2.39,0,0,0-3.19,0Z"/><path class="cls-2" d="M159.15,331.53a3.21,3.21,0,0,1,1.53-.34v.86h-.21a2.1,2.1,0,0,0-1.62.63,2.55,2.55,0,0,0-.59,1.78v3.34h-.88v-6.55h.85v1.29A2.08,2.08,0,0,1,159.15,331.53Z"/><path class="cls-2" d="M166.35,331.83a2.48,2.48,0,0,1,.68,1.9v4.06h-.84v-1a2.08,2.08,0,0,1-.88.8,3,3,0,0,1-1.37.28,2.72,2.72,0,0,1-1.75-.52,1.81,1.81,0,0,1,0-2.73,2.94,2.94,0,0,1,1.92-.51h2.08v-.39a1.68,1.68,0,0,0-.47-1.29,1.94,1.94,0,0,0-1.38-.44,3.44,3.44,0,0,0-1.2.2,3,3,0,0,0-1,.57l-.4-.66a3.65,3.65,0,0,1,1.2-.66,4.7,4.7,0,0,1,1.46-.23A2.81,2.81,0,0,1,166.35,331.83Zm-1,5a2,2,0,0,0,.8-1v-1.07H164.1q-1.68,0-1.68,1.17a1.08,1.08,0,0,0,.43.91,2.06,2.06,0,0,0,1.22.32A2.29,2.29,0,0,0,165.35,336.81Z"/><path class="cls-2" d="M167.68,340.16a1.54,1.54,0,0,1-.61-.32l.31-.67a1.53,1.53,0,0,0,1,.34,1.07,1.07,0,0,0,.81-.31,1.4,1.4,0,0,0,.28-.93v-7h.88v7a2.07,2.07,0,0,1-.5,1.46,1.82,1.82,0,0,1-1.42.53A2.76,2.76,0,0,1,167.68,340.16Zm1.79-10.55a.6.6,0,0,1-.18-.44.62.62,0,0,1,.18-.44.66.66,0,0,1,.46-.19.62.62,0,0,1,.46.18.57.57,0,0,1,.19.43.65.65,0,0,1-.65.65A.62.62,0,0,1,169.47,329.61Z"/><path class="cls-2" d="M177.08,331.83a2.52,2.52,0,0,1,.68,1.9v4.06h-.85v-1a2.11,2.11,0,0,1-.87.8,3.12,3.12,0,0,1-1.38.28,2.67,2.67,0,0,1-1.74-.52,1.7,1.7,0,0,1-.65-1.38,1.66,1.66,0,0,1,.61-1.35,2.94,2.94,0,0,1,1.92-.51h2.08v-.39a1.65,1.65,0,0,0-.48-1.29A1.91,1.91,0,0,0,175,332a3.42,3.42,0,0,0-1.19.2,3,3,0,0,0-1,.57l-.4-.66a3.7,3.7,0,0,1,1.19-.66,4.81,4.81,0,0,1,1.47-.23A2.83,2.83,0,0,1,177.08,331.83Zm-1,5a2.08,2.08,0,0,0,.8-1v-1.07h-2.06q-1.68,0-1.68,1.17a1.09,1.09,0,0,0,.44.91,2.06,2.06,0,0,0,1.22.32A2.31,2.31,0,0,0,176.08,336.81ZM176,340.2a1.07,1.07,0,0,1-.38-.86c0-.77.59-1.4,1.76-1.89l.41.34c-1,.45-1.52.94-1.52,1.49a.63.63,0,0,0,.23.52.89.89,0,0,0,.58.18,1.16,1.16,0,0,0,.77-.24l.2.49a1.86,1.86,0,0,1-1.06.3A1.44,1.44,0,0,1,176,340.2Z"/><path class="cls-2" d="M181.11,337.43a3.05,3.05,0,0,1-1.2-1.19,3.66,3.66,0,0,1,0-3.44,3,3,0,0,1,1.2-1.18,3.56,3.56,0,0,1,1.74-.43,3.35,3.35,0,0,1,1.51.33,2.58,2.58,0,0,1,1,1l-.66.45a2,2,0,0,0-.82-.73,2.44,2.44,0,0,0-1.08-.24,2.61,2.61,0,0,0-1.28.31,2.33,2.33,0,0,0-.88.91,2.75,2.75,0,0,0-.32,1.33,2.73,2.73,0,0,0,.32,1.33,2.24,2.24,0,0,0,.88.9,2.61,2.61,0,0,0,1.28.32,2.44,2.44,0,0,0,1.08-.24,2,2,0,0,0,.82-.72l.66.45a2.52,2.52,0,0,1-1.06,1,3.34,3.34,0,0,1-1.5.33A3.56,3.56,0,0,1,181.11,337.43Z"/><path class="cls-2" d="M192.55,334.79h-5.47a2.35,2.35,0,0,0,.78,1.65,2.61,2.61,0,0,0,1.79.63,2.73,2.73,0,0,0,1.12-.22,2.44,2.44,0,0,0,.89-.64l.5.57a2.89,2.89,0,0,1-1.09.8,3.77,3.77,0,0,1-1.44.27,3.62,3.62,0,0,1-1.79-.43,3.08,3.08,0,0,1-1.21-1.19,3.34,3.34,0,0,1-.43-1.71,3.5,3.5,0,0,1,.41-1.72,3,3,0,0,1,1.15-1.18,3.3,3.3,0,0,1,3.26,0,3.05,3.05,0,0,1,1.14,1.17,3.62,3.62,0,0,1,.41,1.73Zm-4.74-2.23a2.35,2.35,0,0,0-.73,1.57h4.64a2.35,2.35,0,0,0-.73-1.57,2.26,2.26,0,0,0-1.6-.61A2.21,2.21,0,0,0,187.81,332.56Z"/><path class="cls-2" d="M102.64,350.09a3.36,3.36,0,0,1-1.14-.58l.4-.7a3.32,3.32,0,0,0,1,.53,4.07,4.07,0,0,0,1.3.21,2.52,2.52,0,0,0,1.32-.28.89.89,0,0,0,.43-.79.72.72,0,0,0-.24-.57,1.44,1.44,0,0,0-.59-.31,9.29,9.29,0,0,0-1-.21,11.87,11.87,0,0,1-1.28-.3,1.83,1.83,0,0,1-.83-.53,1.46,1.46,0,0,1-.34-1,1.64,1.64,0,0,1,.68-1.35,3.14,3.14,0,0,1,1.91-.52,5,5,0,0,1,1.26.17,3.42,3.42,0,0,1,1,.44l-.39.71a3.32,3.32,0,0,0-1.92-.56,2.24,2.24,0,0,0-1.28.3.91.91,0,0,0-.43.78.78.78,0,0,0,.24.6,1.57,1.57,0,0,0,.61.33c.24.07.57.14,1,.22a11.93,11.93,0,0,1,1.26.3,1.93,1.93,0,0,1,.81.51,1.41,1.41,0,0,1,.33,1,1.56,1.56,0,0,1-.71,1.36,3.39,3.39,0,0,1-2,.51A5.08,5.08,0,0,1,102.64,350.09Z"/><path class="cls-2" d="M108.47,342.09a.6.6,0,0,1,0-.88.64.64,0,0,1,.46-.19.63.63,0,0,1,.46.18.61.61,0,0,1,.19.43.63.63,0,0,1-.19.46.65.65,0,0,1-.92,0Zm0,1.62h.88v6.55h-.88Z"/><path class="cls-2" d="M116.06,344.3a2.47,2.47,0,0,1,.68,1.9v4.06h-.84v-1a2,2,0,0,1-.88.79,3.07,3.07,0,0,1-1.37.29,2.76,2.76,0,0,1-1.75-.52,1.81,1.81,0,0,1,0-2.73,2.94,2.94,0,0,1,1.92-.51h2.08v-.4a1.68,1.68,0,0,0-.47-1.28,1.94,1.94,0,0,0-1.38-.45,3.44,3.44,0,0,0-1.2.21,3,3,0,0,0-1,.56l-.4-.66a3.5,3.5,0,0,1,1.19-.65,4.81,4.81,0,0,1,1.47-.23A2.81,2.81,0,0,1,116.06,344.3Zm-1,5a2,2,0,0,0,.8-1v-1.07h-2q-1.68,0-1.68,1.17a1.06,1.06,0,0,0,.43.9,2,2,0,0,0,1.22.33A2.29,2.29,0,0,0,115.06,349.28Z"/><path class="cls-2" d="M120.89,344a3.09,3.09,0,0,1,1.53-.34v.86h-.21a2.1,2.1,0,0,0-1.62.63,2.55,2.55,0,0,0-.59,1.78v3.34h-.88v-6.55H120V345A2.06,2.06,0,0,1,120.89,344Z"/><path class="cls-2" d="M125.06,349.9a3.12,3.12,0,0,1-1.2-1.19,3.45,3.45,0,0,1-.44-1.73,3.35,3.35,0,0,1,.44-1.71,3.12,3.12,0,0,1,1.2-1.19,3.56,3.56,0,0,1,1.74-.42,3.38,3.38,0,0,1,1.51.33,2.52,2.52,0,0,1,1.05,1l-.66.44a2.09,2.09,0,0,0-.82-.72,2.32,2.32,0,0,0-1.08-.25,2.59,2.59,0,0,0-1.28.32,2.18,2.18,0,0,0-.88.9,2.78,2.78,0,0,0-.32,1.33,2.74,2.74,0,0,0,.32,1.34,2.18,2.18,0,0,0,.88.9,2.58,2.58,0,0,0,1.28.31,2.44,2.44,0,0,0,1.08-.23,2.09,2.09,0,0,0,.82-.72l.66.44a2.48,2.48,0,0,1-1.06,1,3.37,3.37,0,0,1-1.5.33A3.56,3.56,0,0,1,125.06,349.9Z"/><path class="cls-2" d="M135.69,349.52v.74h-5.32v-.59l4.12-5.21h-4.05v-.75h5.18v.59l-4.12,5.22Z"/><path class="cls-2" d="M141.55,344.3a2.47,2.47,0,0,1,.69,1.9v4.06h-.85v-1a2,2,0,0,1-.88.79,3,3,0,0,1-1.37.29,2.73,2.73,0,0,1-1.74-.52,1.7,1.7,0,0,1-.65-1.39,1.68,1.68,0,0,1,.6-1.34,3,3,0,0,1,1.93-.51h2.07v-.4a1.64,1.64,0,0,0-.47-1.28,1.93,1.93,0,0,0-1.38-.45,3.39,3.39,0,0,0-1.19.21,3.08,3.08,0,0,0-1,.56l-.4-.66a3.55,3.55,0,0,1,1.2-.65,4.71,4.71,0,0,1,1.47-.23A2.78,2.78,0,0,1,141.55,344.3Zm-1,5a2.06,2.06,0,0,0,.79-1v-1.07h-2q-1.68,0-1.68,1.17a1.07,1.07,0,0,0,.44.9,2,2,0,0,0,1.22.33A2.33,2.33,0,0,0,140.56,349.28Z"/><path class="cls-2" d="M149.91,344.38a2.8,2.8,0,0,1,.73,2.08v3.8h-.89v-3.71a2.19,2.19,0,0,0-.51-1.56,1.93,1.93,0,0,0-1.45-.53,2.24,2.24,0,0,0-1.68.63,2.34,2.34,0,0,0-.61,1.73v3.44h-.89v-6.55h.85v1.21a2.43,2.43,0,0,1,1-.93,3.21,3.21,0,0,1,1.49-.33A2.67,2.67,0,0,1,149.91,344.38Z"/><path class="cls-2" d="M160.88,349.52v.74h-5.33v-.59l4.12-5.21h-4v-.75h5.18v.59l-4.12,5.22Zm-3.09-7.29a.57.57,0,0,1-.17-.42.57.57,0,0,1,.17-.43.61.61,0,0,1,.42-.17.58.58,0,0,1,.6.6.61.61,0,0,1-.17.42.57.57,0,0,1-.43.17A.57.57,0,0,1,157.79,342.23Z"/><path class="cls-2" d="M168.23,347.26h-5.48a2.32,2.32,0,0,0,.79,1.65,2.59,2.59,0,0,0,1.79.62,2.9,2.9,0,0,0,1.12-.21,2.53,2.53,0,0,0,.88-.64l.5.57a2.72,2.72,0,0,1-1.09.79,3.52,3.52,0,0,1-1.44.28,3.69,3.69,0,0,1-1.78-.43,3.08,3.08,0,0,1-1.21-1.19,3.64,3.64,0,0,1,0-3.43,3,3,0,0,1,1.14-1.19,3.23,3.23,0,0,1,1.64-.42,3.19,3.19,0,0,1,1.63.42,3.05,3.05,0,0,1,1.13,1.18,3.58,3.58,0,0,1,.41,1.72ZM163.48,345a2.39,2.39,0,0,0-.73,1.58h4.64a2.38,2.38,0,0,0-.72-1.58,2.42,2.42,0,0,0-3.19,0Z"/><path class="cls-2" d="M170,341h.89v9.24H170Z"/><path class="cls-2" d="M177.61,344.3a2.47,2.47,0,0,1,.68,1.9v4.06h-.84v-1a2,2,0,0,1-.88.79,3,3,0,0,1-1.37.29,2.78,2.78,0,0,1-1.75-.52,1.81,1.81,0,0,1,0-2.73,2.94,2.94,0,0,1,1.92-.51h2.08v-.4a1.68,1.68,0,0,0-.47-1.28,1.94,1.94,0,0,0-1.38-.45,3.44,3.44,0,0,0-1.2.21,3,3,0,0,0-1,.56l-.4-.66a3.46,3.46,0,0,1,1.2-.65,4.7,4.7,0,0,1,1.46-.23A2.81,2.81,0,0,1,177.61,344.3Zm-1,5a2,2,0,0,0,.8-1v-1.07h-2q-1.68,0-1.68,1.17a1.06,1.06,0,0,0,.43.9,2,2,0,0,0,1.22.33A2.29,2.29,0,0,0,176.61,349.28Z"/><path class="cls-2" d="M185.17,349.52v.74h-5.32v-.59l4.12-5.21h-4.05v-.75h5.18v.59L181,349.52Z"/><path class="cls-2" d="M191,344.3a2.47,2.47,0,0,1,.69,1.9v4.06h-.85v-1a2,2,0,0,1-.88.79,3,3,0,0,1-1.37.29,2.73,2.73,0,0,1-1.74-.52,1.7,1.7,0,0,1-.65-1.39,1.68,1.68,0,0,1,.6-1.34,3,3,0,0,1,1.93-.51h2.07v-.4a1.64,1.64,0,0,0-.47-1.28,1.93,1.93,0,0,0-1.38-.45,3.48,3.48,0,0,0-1.2.21,3.14,3.14,0,0,0-1,.56l-.4-.66a3.55,3.55,0,0,1,1.2-.65,4.71,4.71,0,0,1,1.47-.23A2.78,2.78,0,0,1,191,344.3Zm-1,5a2.06,2.06,0,0,0,.79-1v-1.07h-2q-1.68,0-1.68,1.17a1.07,1.07,0,0,0,.44.9,2,2,0,0,0,1.22.33A2.33,2.33,0,0,0,190,349.28Z"/><path class="cls-2" d="M197.77,350a13,13,0,0,1-.38-3.19,13.2,13.2,0,0,1,.38-3.21,8.73,8.73,0,0,1,1.07-2.62h.84a9.58,9.58,0,0,0-1.07,2.7,13.52,13.52,0,0,0-.35,3.13,13.37,13.37,0,0,0,.35,3.12,9.58,9.58,0,0,0,1.07,2.7h-.84A9,9,0,0,1,197.77,350Z"/><path class="cls-2" d="M201.6,341.55h.92v8.71h-.92Z"/><path class="cls-2" d="M205.34,341.55h.92v8.71h-.92Z"/><path class="cls-2" d="M208.17,352.67a10,10,0,0,0,1.08-2.69,14.17,14.17,0,0,0,0-6.26,9.91,9.91,0,0,0-1.08-2.7H209a9,9,0,0,1,1.08,2.62,13.2,13.2,0,0,1,.38,3.21,13.54,13.54,0,0,1-.37,3.19,8.81,8.81,0,0,1-1.09,2.63Z"/><path class="cls-2" d="M134.86,362.52a11.38,11.38,0,0,1-.34-2.86,11.52,11.52,0,0,1,.34-2.87,8,8,0,0,1,1-2.35h.75a8.93,8.93,0,0,0-1,2.42,12.8,12.8,0,0,0,0,5.6,8.93,8.93,0,0,0,1,2.42h-.75A8.34,8.34,0,0,1,134.86,362.52Z"/><path class="cls-2" d="M142.87,357.45a2.53,2.53,0,0,1,.65,1.87v3.39h-.79v-3.32a2,2,0,0,0-.46-1.39,1.71,1.71,0,0,0-1.3-.48,2,2,0,0,0-1.5.56,2.14,2.14,0,0,0-.55,1.56v3.07h-.8v-5.86h.76v1.08a2.32,2.32,0,0,1,.9-.83,3,3,0,0,1,1.33-.29A2.4,2.4,0,0,1,142.87,357.45Z"/><path class="cls-2" d="M145.34,357.2h4.84v.65h-4.84Zm0,2.57h4.84v.66h-4.84Z"/><path class="cls-2" d="M156.86,362v.71h-5.47v-.56l3.24-3.18a4.09,4.09,0,0,0,.83-1,2,2,0,0,0,.22-.89,1.3,1.3,0,0,0-.47-1.07,2.1,2.1,0,0,0-1.36-.39,2.69,2.69,0,0,0-2.13.87l-.57-.49a3.12,3.12,0,0,1,1.17-.83,4.23,4.23,0,0,1,1.6-.28,2.92,2.92,0,0,1,1.89.56,1.88,1.88,0,0,1,.69,1.54,2.62,2.62,0,0,1-.26,1.16,4.87,4.87,0,0,1-1,1.28L152.57,362Z"/><path class="cls-2" d="M163.45,359.36a1.79,1.79,0,0,1,.4,1.18,2,2,0,0,1-.37,1.19,2.24,2.24,0,0,1-1,.78,4.42,4.42,0,0,1-1.61.27,3.62,3.62,0,0,1-2.21-.6,2,2,0,0,1-.8-1.64,1.9,1.9,0,0,1,.38-1.19,2.41,2.41,0,0,1,1.12-.73,1.93,1.93,0,0,1-.91-.67,1.73,1.73,0,0,1-.31-1,1.78,1.78,0,0,1,.74-1.51,3.24,3.24,0,0,1,2-.55,3.74,3.74,0,0,1,1.44.25,2.11,2.11,0,0,1,1,.72,1.77,1.77,0,0,1,.34,1.09,1.74,1.74,0,0,1-.32,1,2,2,0,0,1-.93.67A2.38,2.38,0,0,1,163.45,359.36Zm-1,2.32a1.34,1.34,0,0,0,.58-1.15,1.33,1.33,0,0,0-.58-1.14,2.74,2.74,0,0,0-1.62-.42,2.7,2.7,0,0,0-1.61.42,1.41,1.41,0,0,0,0,2.29,3.33,3.33,0,0,0,3.24,0Zm-3-3.72a2.91,2.91,0,0,0,2.84,0,1.27,1.27,0,0,0,0-2.06,2.4,2.4,0,0,0-1.41-.37,2.34,2.34,0,0,0-1.41.37,1.21,1.21,0,0,0-.52,1A1.23,1.23,0,0,0,159.4,358Z"/><path class="cls-2" d="M170.55,359.36a1.79,1.79,0,0,1,.4,1.18,2,2,0,0,1-.37,1.19,2.24,2.24,0,0,1-1.05.78,4.42,4.42,0,0,1-1.61.27,3.62,3.62,0,0,1-2.21-.6,2,2,0,0,1-.8-1.64,1.9,1.9,0,0,1,.38-1.19,2.41,2.41,0,0,1,1.12-.73,1.93,1.93,0,0,1-.91-.67,1.73,1.73,0,0,1-.31-1,1.78,1.78,0,0,1,.74-1.51,3.24,3.24,0,0,1,2-.55,3.74,3.74,0,0,1,1.44.25,2.11,2.11,0,0,1,1,.72,1.77,1.77,0,0,1,.34,1.09,1.74,1.74,0,0,1-.32,1,2,2,0,0,1-.93.67A2.38,2.38,0,0,1,170.55,359.36Zm-1,2.32a1.34,1.34,0,0,0,.58-1.15,1.33,1.33,0,0,0-.58-1.14,2.74,2.74,0,0,0-1.62-.42,2.7,2.7,0,0,0-1.61.42,1.41,1.41,0,0,0,0,2.29,3.33,3.33,0,0,0,3.24,0Zm-3-3.72a2.91,2.91,0,0,0,2.84,0,1.21,1.21,0,0,0,.52-1,1.23,1.23,0,0,0-.53-1,2.4,2.4,0,0,0-1.41-.37,2.34,2.34,0,0,0-1.41.37,1.21,1.21,0,0,0-.52,1A1.23,1.23,0,0,0,166.5,358Z"/><path class="cls-2" d="M173.55,362.3a3.15,3.15,0,0,1-1.1-1.37,5.79,5.79,0,0,1,0-4.23,3.12,3.12,0,0,1,1.1-1.38,3,3,0,0,1,3.22,0,3.08,3.08,0,0,1,1.11,1.38,5.79,5.79,0,0,1,0,4.23,3.1,3.1,0,0,1-1.11,1.37,2.94,2.94,0,0,1-3.22,0Zm2.81-.63a2.42,2.42,0,0,0,.81-1.11,4.75,4.75,0,0,0,.29-1.75,4.82,4.82,0,0,0-.29-1.75,2.39,2.39,0,0,0-.81-1.1,2,2,0,0,0-1.2-.38,2,2,0,0,0-1.2.38,2.44,2.44,0,0,0-.8,1.1,4.62,4.62,0,0,0-.29,1.75,4.55,4.55,0,0,0,.29,1.75,2.48,2.48,0,0,0,.8,1.11,2,2,0,0,0,1.2.38A2,2,0,0,0,176.36,361.67Z"/><path class="cls-2" d="M179.29,364.88a9,9,0,0,0,1-2.42,12.8,12.8,0,0,0,0-5.6,9,9,0,0,0-1-2.42H180a8.34,8.34,0,0,1,1,2.35,12.28,12.28,0,0,1,0,5.74,7.9,7.9,0,0,1-1,2.35Z"/><path class="cls-2" d="M340.08,317.41a2.71,2.71,0,0,1,.95,2.19,2.68,2.68,0,0,1-.95,2.18,3.93,3.93,0,0,1-2.61.79h-2.34v2.75h-.92v-8.71h3.26A3.93,3.93,0,0,1,340.08,317.41Zm-.66,3.79a2,2,0,0,0,.69-1.6,2,2,0,0,0-.69-1.63,3,3,0,0,0-2-.56h-2.32v4.35h2.32A3,3,0,0,0,339.42,321.2Z"/><path class="cls-2" d="M344.72,319.06a3.19,3.19,0,0,1,1.52-.33v.86l-.21,0a2.11,2.11,0,0,0-1.62.64,2.51,2.51,0,0,0-.58,1.78v3.33h-.89v-6.54h.85v1.28A2.2,2.2,0,0,1,344.72,319.06Z"/><path class="cls-2" d="M348.88,325a3.16,3.16,0,0,1-1.19-1.19,3.58,3.58,0,0,1,0-3.44,3.07,3.07,0,0,1,1.19-1.18,3.46,3.46,0,0,1,1.7-.42,3.49,3.49,0,0,1,1.71.42,3.14,3.14,0,0,1,1.19,1.18,3.65,3.65,0,0,1,0,3.44,3.23,3.23,0,0,1-1.19,1.19,3.49,3.49,0,0,1-1.71.42A3.46,3.46,0,0,1,348.88,325Zm2.95-.68a2.22,2.22,0,0,0,.87-.9,3,3,0,0,0,0-2.66,2.22,2.22,0,0,0-.87-.9,2.45,2.45,0,0,0-1.25-.32,2.5,2.5,0,0,0-1.25.32,2.22,2.22,0,0,0-.87.9,3,3,0,0,0,0,2.66,2.22,2.22,0,0,0,.87.9,2.4,2.4,0,0,0,1.25.32A2.35,2.35,0,0,0,351.83,324.28Z"/><path class="cls-2" d="M359.14,324.92a1.66,1.66,0,0,1-.61.35,2.81,2.81,0,0,1-.77.11,2,2,0,0,1-1.42-.49,1.92,1.92,0,0,1-.49-1.41v-4h-1.17v-.74h1.17v-1.43h.88v1.43h2v.74h-2v3.91a1.25,1.25,0,0,0,.29.89,1.14,1.14,0,0,0,.84.31,1.6,1.6,0,0,0,.53-.09,1.26,1.26,0,0,0,.44-.25Z"/><path class="cls-2" d="M366.35,322.32h-5.48a2.32,2.32,0,0,0,.79,1.65,2.59,2.59,0,0,0,1.79.63,2.73,2.73,0,0,0,1.12-.22,2.41,2.41,0,0,0,.88-.64l.5.57a2.74,2.74,0,0,1-1.09.8,4,4,0,0,1-3.22-.15,3.15,3.15,0,0,1-1.21-1.19,3.41,3.41,0,0,1-.44-1.72,3.51,3.51,0,0,1,.42-1.72,3,3,0,0,1,1.14-1.18,3.23,3.23,0,0,1,1.64-.42,3.19,3.19,0,0,1,1.63.42,3,3,0,0,1,1.13,1.18,3.56,3.56,0,0,1,.41,1.72Zm-4.75-2.23a2.37,2.37,0,0,0-.73,1.57h4.64a2.36,2.36,0,0,0-.72-1.57,2.42,2.42,0,0,0-3.19,0Z"/><path class="cls-2" d="M368.13,317.16a.58.58,0,0,1-.19-.45.57.57,0,0,1,.19-.43.6.6,0,0,1,.46-.19.65.65,0,0,1,.46.18.59.59,0,0,1,.19.43.64.64,0,0,1-.19.46.66.66,0,0,1-.46.19A.64.64,0,0,1,368.13,317.16Zm0,1.62H369v6.54h-.88Z"/><path class="cls-2" d="M376.76,319.44a2.84,2.84,0,0,1,.72,2.09v3.79h-.88v-3.71a2.16,2.16,0,0,0-.51-1.55,1.9,1.9,0,0,0-1.46-.54,2.23,2.23,0,0,0-1.67.63,2.38,2.38,0,0,0-.61,1.74v3.43h-.89v-6.54h.85V320a2.47,2.47,0,0,1,1-.92,3.21,3.21,0,0,1,1.49-.33A2.71,2.71,0,0,1,376.76,319.44Z"/><path class="cls-2" d="M379.86,317.16a.62.62,0,0,1-.19-.45.61.61,0,0,1,.19-.43.62.62,0,0,1,.46-.19.63.63,0,0,1,.46.18.56.56,0,0,1,.19.43.6.6,0,0,1-.19.46.64.64,0,0,1-.46.19A.66.66,0,0,1,379.86,317.16Zm0,1.62h.89v6.54h-.89Z"/><path class="cls-2" d="M387.45,319.37a2.47,2.47,0,0,1,.68,1.9v4.05h-.84v-1a2,2,0,0,1-.88.8,3,3,0,0,1-1.37.28,2.72,2.72,0,0,1-1.75-.52,1.69,1.69,0,0,1-.64-1.38,1.66,1.66,0,0,1,.6-1.34,2.94,2.94,0,0,1,1.92-.51h2.08v-.4a1.71,1.71,0,0,0-.47-1.29,2,2,0,0,0-1.38-.44,3.68,3.68,0,0,0-1.2.2,3,3,0,0,0-1,.57l-.4-.66A3.46,3.46,0,0,1,384,319a4.42,4.42,0,0,1,1.46-.23A2.77,2.77,0,0,1,387.45,319.37Zm-1,5a2,2,0,0,0,.8-1v-1.07H385.2q-1.68,0-1.68,1.17a1.06,1.06,0,0,0,.43.9,2,2,0,0,0,1.22.33A2.37,2.37,0,0,0,386.45,324.35Z"/><path class="cls-2" d="M395.82,319.44a2.84,2.84,0,0,1,.73,2.09v3.79h-.89v-3.71a2.16,2.16,0,0,0-.51-1.55,1.89,1.89,0,0,0-1.45-.54,2.24,2.24,0,0,0-1.68.63,2.38,2.38,0,0,0-.61,1.74v3.43h-.89v-6.54h.85V320a2.47,2.47,0,0,1,1-.92,3.21,3.21,0,0,1,1.49-.33A2.71,2.71,0,0,1,395.82,319.44Z"/><path class="cls-2" d="M399.89,325a3.23,3.23,0,0,1-1.19-1.19,3.58,3.58,0,0,1,0-3.44,3.14,3.14,0,0,1,1.19-1.18,3.49,3.49,0,0,1,1.71-.42,3.43,3.43,0,0,1,1.7.42,3.07,3.07,0,0,1,1.19,1.18,3.65,3.65,0,0,1,0,3.44A3.16,3.16,0,0,1,403.3,325a3.43,3.43,0,0,1-1.7.42A3.49,3.49,0,0,1,399.89,325Zm3-.68a2.2,2.2,0,0,0,.86-.9,3,3,0,0,0,0-2.66,2.2,2.2,0,0,0-.86-.9,2.5,2.5,0,0,0-1.25-.32,2.47,2.47,0,0,0-1.25.32,2.22,2.22,0,0,0-.87.9,2.92,2.92,0,0,0,0,2.66,2.22,2.22,0,0,0,.87.9,2.38,2.38,0,0,0,1.25.32A2.4,2.4,0,0,0,402.85,324.28Z"/><path class="cls-2" d="M405.25,321.56h3.26v.78h-3.26Z"/><path class="cls-2" d="M340.79,331.61a3,3,0,0,1,1.17,1.18,3.49,3.49,0,0,1,.42,1.73,3.54,3.54,0,0,1-.42,1.73,3,3,0,0,1-1.17,1.18,3.34,3.34,0,0,1-1.67.42,3,3,0,0,1-1.47-.35,2.66,2.66,0,0,1-1-1v1.29h-.85v-9.23h.89v3.93a2.71,2.71,0,0,1,1.05-1,3.07,3.07,0,0,1,1.43-.33A3.34,3.34,0,0,1,340.79,331.61Zm-.48,5.14a2.22,2.22,0,0,0,.87-.9,2.92,2.92,0,0,0,0-2.66,2.31,2.31,0,0,0-.87-.91,2.52,2.52,0,0,0-1.25-.31,2.49,2.49,0,0,0-1.25.31,2.31,2.31,0,0,0-.87.91,2.75,2.75,0,0,0-.32,1.33,2.78,2.78,0,0,0,.32,1.33,2.22,2.22,0,0,0,.87.9,2.5,2.5,0,0,0,1.25.32A2.53,2.53,0,0,0,340.31,336.75Z"/><path class="cls-2" d="M350.06,331.24v6.55h-.84v-1.2a2.52,2.52,0,0,1-1,.93,2.9,2.9,0,0,1-1.4.33A2.53,2.53,0,0,1,344.1,335v-3.8H345V335a2.2,2.2,0,0,0,.51,1.57,1.89,1.89,0,0,0,1.45.53,2.13,2.13,0,0,0,1.63-.62,2.45,2.45,0,0,0,.6-1.75v-3.44Z"/><path class="cls-2" d="M354.3,331.53a3.19,3.19,0,0,1,1.52-.34v.86h-.21a2.1,2.1,0,0,0-1.62.63,2.54,2.54,0,0,0-.58,1.78v3.34h-.88v-6.55h.84v1.29A2.15,2.15,0,0,1,354.3,331.53Z"/><path class="cls-2" d="M357.72,337.62a3.28,3.28,0,0,1-1.14-.58l.4-.69a3.55,3.55,0,0,0,1,.53,4.36,4.36,0,0,0,1.3.2,2.45,2.45,0,0,0,1.32-.28.89.89,0,0,0,.43-.79.72.72,0,0,0-.24-.57,1.57,1.57,0,0,0-.59-.31,7.46,7.46,0,0,0-1-.2,9.66,9.66,0,0,1-1.28-.31,1.83,1.83,0,0,1-.83-.53,1.46,1.46,0,0,1-.34-1,1.62,1.62,0,0,1,.68-1.34,3.08,3.08,0,0,1,1.91-.53,5,5,0,0,1,1.26.17,3.42,3.42,0,0,1,1.05.44l-.39.71a3.32,3.32,0,0,0-1.92-.56,2.24,2.24,0,0,0-1.28.3.91.91,0,0,0-.43.79.76.76,0,0,0,.24.59,1.57,1.57,0,0,0,.61.33,8.64,8.64,0,0,0,1,.22,11.35,11.35,0,0,1,1.26.3,1.93,1.93,0,0,1,.81.51,1.42,1.42,0,0,1,.33,1,1.57,1.57,0,0,1-.71,1.36,3.46,3.46,0,0,1-2,.5A5.13,5.13,0,0,1,357.72,337.62Z"/><path class="cls-2" d="M368.18,337.05v.74h-5.33v-.59L367,332h-4v-.75h5.17v.59L364,337.05Z"/><path class="cls-2" d="M373.35,337.39a1.64,1.64,0,0,1-.61.34,2.48,2.48,0,0,1-.77.12,1.73,1.73,0,0,1-1.91-1.9v-4h-1.17v-.75h1.17v-1.43h.88v1.43h2V332h-2v3.91a1.27,1.27,0,0,0,.29.89,1.14,1.14,0,0,0,.84.3,1.6,1.6,0,0,0,.53-.09,1.25,1.25,0,0,0,.44-.24Z"/><path class="cls-2" d="M380.43,331.24l-3.27,7.33a3.06,3.06,0,0,1-.92,1.31,2,2,0,0,1-1.26.38,2.8,2.8,0,0,1-.88-.14,2,2,0,0,1-.71-.45l.41-.66a1.64,1.64,0,0,0,1.2.5,1.24,1.24,0,0,0,.76-.25,2.29,2.29,0,0,0,.59-.85l.29-.63-2.93-6.54h.93l2.46,5.57,2.46-5.57Z"/><path class="cls-2" d="M387,331.91a2.77,2.77,0,0,1,.73,2.08v3.8h-.88v-3.71a2.15,2.15,0,0,0-.51-1.55,1.92,1.92,0,0,0-1.46-.54,2.22,2.22,0,0,0-1.67.63,2.38,2.38,0,0,0-.62,1.73v3.44h-.88v-6.55h.84v1.21a2.49,2.49,0,0,1,1-.93,3.24,3.24,0,0,1,1.49-.33A2.66,2.66,0,0,1,387,331.91Z"/><path class="cls-2" d="M390.11,329.63a.64.64,0,0,1-.18-.45.62.62,0,0,1,.18-.44.65.65,0,0,1,.46-.18.62.62,0,0,1,.46.18.56.56,0,0,1,.19.43.63.63,0,0,1-.65.64A.65.65,0,0,1,390.11,329.63Zm0,1.61H391v6.55h-.89Z"/><path class="cls-2" d="M397.7,331.83a2.49,2.49,0,0,1,.69,1.9v4.06h-.85v-1a2.08,2.08,0,0,1-.88.8,3,3,0,0,1-1.37.28,2.67,2.67,0,0,1-1.74-.52,1.8,1.8,0,0,1-.05-2.73,3,3,0,0,1,1.93-.51h2.07v-.39a1.65,1.65,0,0,0-.47-1.29,1.92,1.92,0,0,0-1.38-.44,3.42,3.42,0,0,0-1.19.2,3.1,3.1,0,0,0-1,.57l-.4-.66a3.75,3.75,0,0,1,1.2-.66,4.71,4.71,0,0,1,1.47-.23A2.78,2.78,0,0,1,397.7,331.83Zm-1,5a2.06,2.06,0,0,0,.79-1v-1.07h-2.05q-1.68,0-1.68,1.17a1.09,1.09,0,0,0,.44.91,2,2,0,0,0,1.22.32A2.33,2.33,0,0,0,396.71,336.81Z"/><path class="cls-2" d="M406.07,331.91a2.77,2.77,0,0,1,.73,2.08v3.8h-.89v-3.71a2.15,2.15,0,0,0-.51-1.55A1.89,1.89,0,0,0,404,332a2.22,2.22,0,0,0-1.67.63,2.34,2.34,0,0,0-.62,1.73v3.44h-.88v-6.55h.84v1.21a2.49,2.49,0,0,1,1-.93,3.24,3.24,0,0,1,1.49-.33A2.67,2.67,0,0,1,406.07,331.91Z"/><path class="cls-2" d="M357.55,349.52v.74h-5.32v-.59l4.12-5.21H352.3v-.75h5.18v.59l-4.12,5.22Zm-3.08-7.29a.58.58,0,0,1-.18-.42.58.58,0,0,1,.18-.43.6.6,0,0,1,.84,0,.58.58,0,0,1,.18.43.58.58,0,0,1-.18.42.6.6,0,0,1-.84,0Z"/><path class="cls-2" d="M364.91,347.26h-5.48a2.35,2.35,0,0,0,.78,1.65,2.63,2.63,0,0,0,1.8.62,2.94,2.94,0,0,0,1.12-.21,2.53,2.53,0,0,0,.88-.64l.5.57a2.79,2.79,0,0,1-1.09.79,3.59,3.59,0,0,1-1.44.28,3.66,3.66,0,0,1-1.78-.43A3.1,3.1,0,0,1,359,348.7a3.41,3.41,0,0,1-.43-1.72,3.54,3.54,0,0,1,.41-1.71,3.06,3.06,0,0,1,1.15-1.19,3.39,3.39,0,0,1,3.27,0,3.13,3.13,0,0,1,1.13,1.18,3.58,3.58,0,0,1,.41,1.72ZM360.16,345a2.39,2.39,0,0,0-.73,1.58h4.64a2.39,2.39,0,0,0-.73-1.58,2.41,2.41,0,0,0-3.18,0Z"/><path class="cls-2" d="M366.71,341h.88v9.24h-.88Z"/><path class="cls-2" d="M374.29,344.3a2.5,2.5,0,0,1,.68,1.9v4.06h-.84v-1a2.05,2.05,0,0,1-.88.79,3.12,3.12,0,0,1-1.38.29,2.73,2.73,0,0,1-1.74-.52,1.81,1.81,0,0,1,0-2.73,2.94,2.94,0,0,1,1.92-.51h2.08v-.4a1.68,1.68,0,0,0-.47-1.28,1.94,1.94,0,0,0-1.38-.45,3.44,3.44,0,0,0-1.2.21,3,3,0,0,0-1,.56l-.4-.66a3.5,3.5,0,0,1,1.19-.65,4.81,4.81,0,0,1,1.47-.23A2.81,2.81,0,0,1,374.29,344.3Zm-1,5a2,2,0,0,0,.8-1v-1.07h-2q-1.68,0-1.68,1.17a1.06,1.06,0,0,0,.43.9,2,2,0,0,0,1.22.33A2.29,2.29,0,0,0,373.29,349.28Z"/><path class="cls-2" d="M381.85,349.52v.74h-5.32v-.59l4.12-5.21h-4v-.75h5.18v.59l-4.12,5.22Z"/><path class="cls-2" d="M387.71,344.3a2.47,2.47,0,0,1,.69,1.9v4.06h-.85v-1a2,2,0,0,1-.88.79,3,3,0,0,1-1.37.29,2.73,2.73,0,0,1-1.74-.52,1.7,1.7,0,0,1-.65-1.39,1.68,1.68,0,0,1,.6-1.34,3,3,0,0,1,1.93-.51h2.07v-.4a1.64,1.64,0,0,0-.47-1.28,1.93,1.93,0,0,0-1.38-.45,3.53,3.53,0,0,0-1.2.21,3.14,3.14,0,0,0-1,.56l-.4-.66a3.55,3.55,0,0,1,1.2-.65,4.71,4.71,0,0,1,1.47-.23A2.78,2.78,0,0,1,387.71,344.3Zm-1,5a2.06,2.06,0,0,0,.79-1v-1.07h-2.05q-1.68,0-1.68,1.17a1.07,1.07,0,0,0,.44.9,2,2,0,0,0,1.22.33A2.33,2.33,0,0,0,386.72,349.28Z"/><path class="cls-2" d="M348.58,362.52a11.87,11.87,0,0,1-.33-2.86,12,12,0,0,1,.33-2.87,8.63,8.63,0,0,1,1-2.35h.76a8.62,8.62,0,0,0-1,2.42,12.8,12.8,0,0,0,0,5.6,8.62,8.62,0,0,0,1,2.42h-.76A9,9,0,0,1,348.58,362.52Z"/><path class="cls-2" d="M356.59,357.45a2.49,2.49,0,0,1,.66,1.87v3.39h-.79v-3.32A2,2,0,0,0,356,358a1.73,1.73,0,0,0-1.31-.48,2,2,0,0,0-1.5.56,2.18,2.18,0,0,0-.55,1.56v3.07h-.79v-5.86h.76v1.08a2.26,2.26,0,0,1,.9-.83,2.93,2.93,0,0,1,1.33-.29A2.37,2.37,0,0,1,356.59,357.45Z"/><path class="cls-2" d="M359.06,357.2h4.85v.65h-4.85Zm0,2.57h4.85v.66h-4.85Z"/><path class="cls-2" d="M371.89,360.66h-1.56v2h-.8v-2h-4.4v-.58l4.13-5.17h.89l-4,5h3.39v-1.81h.78V360h1.56Z"/><path class="cls-2" d="M374.78,354.91v7.8H374v-7.08h-1.84v-.72Z"/><path class="cls-2" d="M381.43,355.87a4.45,4.45,0,0,1,.83,2.88,4.87,4.87,0,0,1-.45,2.2,3,3,0,0,1-1.25,1.37,3.63,3.63,0,0,1-1.87.46,3.54,3.54,0,0,1-1.85-.42l.32-.65a2.71,2.71,0,0,0,1.52.37,2.58,2.58,0,0,0,2-.82,3.46,3.46,0,0,0,.73-2.38q0-.28,0-.63a2.08,2.08,0,0,1-.92,1,2.92,2.92,0,0,1-1.46.35,3,3,0,0,1-1.37-.29,2.12,2.12,0,0,1-.93-.82,2.26,2.26,0,0,1-.33-1.23,2.24,2.24,0,0,1,1.29-2.1,3.06,3.06,0,0,1,1.37-.29A2.87,2.87,0,0,1,381.43,355.87Zm-1.24,2.81a1.77,1.77,0,0,0,.71-.61,1.56,1.56,0,0,0,.26-.87,1.52,1.52,0,0,0-.24-.83,1.79,1.79,0,0,0-.71-.61,2.44,2.44,0,0,0-1.12-.23,2,2,0,0,0-1.37.46,1.69,1.69,0,0,0,0,2.46,2.13,2.13,0,0,0,1.43.45A2.31,2.31,0,0,0,380.19,358.68Z"/><path class="cls-2" d="M389,359.36a1.84,1.84,0,0,1,.39,1.18,2,2,0,0,1-.36,1.19,2.32,2.32,0,0,1-1.06.78,4.34,4.34,0,0,1-1.61.27,3.59,3.59,0,0,1-2.2-.6,1.94,1.94,0,0,1-.81-1.64,1.85,1.85,0,0,1,.39-1.19,2.36,2.36,0,0,1,1.12-.73A2,2,0,0,1,384,358a1.91,1.91,0,0,1,.43-2.55,3.26,3.26,0,0,1,2-.55,3.83,3.83,0,0,1,1.45.25,2.08,2.08,0,0,1,1,.72,1.77,1.77,0,0,1,.34,1.09,1.67,1.67,0,0,1-.32,1,2,2,0,0,1-.92.67A2.43,2.43,0,0,1,389,359.36Zm-1,2.32a1.35,1.35,0,0,0,.59-1.15,1.34,1.34,0,0,0-.59-1.14,3.32,3.32,0,0,0-3.23,0,1.42,1.42,0,0,0,0,2.29,2.68,2.68,0,0,0,1.61.42A2.74,2.74,0,0,0,388,361.68ZM385,358a2.34,2.34,0,0,0,1.41.37,2.37,2.37,0,0,0,1.42-.37,1.21,1.21,0,0,0,.52-1,1.23,1.23,0,0,0-.53-1,2.87,2.87,0,0,0-2.82,0,1.24,1.24,0,0,0-.52,1A1.21,1.21,0,0,0,385,358Z"/><path class="cls-2" d="M390.37,364.88a9,9,0,0,0,1-2.42,12.41,12.41,0,0,0,0-5.6,9,9,0,0,0-1-2.42h.76a8.34,8.34,0,0,1,1,2.35,12.28,12.28,0,0,1,0,5.74,8.17,8.17,0,0,1-1,2.35Z"/><path class="cls-2" d="M242.57,321h.88v3.32a4.07,4.07,0,0,1-1.44.82,5.35,5.35,0,0,1-1.75.29,4.71,4.71,0,0,1-2.35-.58,4.25,4.25,0,0,1-1.65-1.58,4.66,4.66,0,0,1,0-4.54,4.21,4.21,0,0,1,1.65-1.59,4.82,4.82,0,0,1,2.36-.57,5,5,0,0,1,1.83.32,3.66,3.66,0,0,1,1.4.93l-.57.59a3.57,3.57,0,0,0-2.62-1,3.78,3.78,0,0,0-1.91.47,3.4,3.4,0,0,0-1.34,1.29,3.63,3.63,0,0,0-.49,1.85,3.59,3.59,0,0,0,.49,1.84,3.44,3.44,0,0,0,1.33,1.29,4.09,4.09,0,0,0,4.18-.2Z"/><path class="cls-2" d="M245.86,316.09h.88v9.23h-.88Z"/><path class="cls-2" d="M255.08,318.78v6.54h-.85v-1.19a2.36,2.36,0,0,1-1,.92,2.88,2.88,0,0,1-1.39.33,2.53,2.53,0,0,1-2.76-2.81v-3.79H250v3.71a2.17,2.17,0,0,0,.51,1.56,1.89,1.89,0,0,0,1.45.54,2.12,2.12,0,0,0,1.63-.63,2.43,2.43,0,0,0,.6-1.75v-3.43Z"/><path class="cls-2" d="M260,322l-1.55,1.42v1.86h-.88v-9.23h.88v6.26l3.91-3.57h1.09l-2.8,2.67,3.07,3.87H262.6Z"/><path class="cls-2" d="M265.66,325a3.23,3.23,0,0,1-1.19-1.19,3.58,3.58,0,0,1,0-3.44,3.14,3.14,0,0,1,1.19-1.18,3.49,3.49,0,0,1,1.71-.42,3.43,3.43,0,0,1,1.7.42,3,3,0,0,1,1.19,1.18,3.65,3.65,0,0,1,0,3.44,3.09,3.09,0,0,1-1.19,1.19,3.43,3.43,0,0,1-1.7.42A3.49,3.49,0,0,1,265.66,325Zm3-.68a2.14,2.14,0,0,0,.86-.9,3,3,0,0,0,0-2.66,2.14,2.14,0,0,0-.86-.9,2.5,2.5,0,0,0-1.25-.32,2.47,2.47,0,0,0-1.25.32,2.22,2.22,0,0,0-.87.9,2.92,2.92,0,0,0,0,2.66,2.22,2.22,0,0,0,.87.9,2.38,2.38,0,0,0,1.25.32A2.4,2.4,0,0,0,268.62,324.28Z"/><path class="cls-2" d="M277.78,319.44a2.84,2.84,0,0,1,.72,2.09v3.79h-.88v-3.71a2.16,2.16,0,0,0-.51-1.55,1.89,1.89,0,0,0-1.45-.54,2.24,2.24,0,0,0-1.68.63,2.38,2.38,0,0,0-.61,1.74v3.43h-.89v-6.54h.85V320a2.47,2.47,0,0,1,1-.92,3.21,3.21,0,0,1,1.49-.33A2.71,2.71,0,0,1,277.78,319.44Z"/><path class="cls-2" d="M280.87,317.16a.58.58,0,0,1-.19-.45.57.57,0,0,1,.19-.43.6.6,0,0,1,.46-.19.65.65,0,0,1,.46.18.59.59,0,0,1,.19.43.64.64,0,0,1-.19.46.66.66,0,0,1-.46.19A.64.64,0,0,1,280.87,317.16Zm0,1.62h.88v6.54h-.88Z"/><path class="cls-2" d="M288.46,319.37a2.5,2.5,0,0,1,.68,1.9v4.05h-.84v-1a2.07,2.07,0,0,1-.88.8,3.12,3.12,0,0,1-1.38.28,2.67,2.67,0,0,1-1.74-.52,1.69,1.69,0,0,1-.64-1.38,1.66,1.66,0,0,1,.6-1.34,2.94,2.94,0,0,1,1.92-.51h2.08v-.4a1.71,1.71,0,0,0-.47-1.29,2,2,0,0,0-1.38-.44,3.68,3.68,0,0,0-1.2.2,3,3,0,0,0-1,.57l-.4-.66A3.5,3.5,0,0,1,285,319a4.52,4.52,0,0,1,1.47-.23A2.77,2.77,0,0,1,288.46,319.37Zm-1,5a2.08,2.08,0,0,0,.8-1v-1.07h-2.05q-1.68,0-1.68,1.17a1.06,1.06,0,0,0,.43.9,2,2,0,0,0,1.22.33A2.37,2.37,0,0,0,287.46,324.35Z"/><path class="cls-2" d="M296.83,319.44a2.84,2.84,0,0,1,.72,2.09v3.79h-.88v-3.71a2.16,2.16,0,0,0-.51-1.55,1.92,1.92,0,0,0-1.46-.54,2.23,2.23,0,0,0-1.67.63,2.39,2.39,0,0,0-.62,1.74v3.43h-.88v-6.54h.85V320a2.47,2.47,0,0,1,1-.92,3.21,3.21,0,0,1,1.49-.33A2.71,2.71,0,0,1,296.83,319.44Z"/><path class="cls-2" d="M253.17,337.05v.74h-5.32v-.59L252,332h-4.05v-.75h5.18v.59L249,337.05Zm-3.08-7.29a.58.58,0,1,1,.42.18A.54.54,0,0,1,250.09,329.76Z"/><path class="cls-2" d="M260.53,334.79h-5.48a2.35,2.35,0,0,0,.78,1.65,2.62,2.62,0,0,0,1.8.63,2.76,2.76,0,0,0,1.12-.22,2.41,2.41,0,0,0,.88-.64l.5.57a2.81,2.81,0,0,1-1.09.8,3.77,3.77,0,0,1-1.44.27,3.55,3.55,0,0,1-1.78-.43,3,3,0,0,1-1.22-1.19,3.34,3.34,0,0,1-.43-1.71,3.61,3.61,0,0,1,.41-1.72,3,3,0,0,1,1.15-1.18,3.32,3.32,0,0,1,3.27,0,3,3,0,0,1,1.13,1.17,3.62,3.62,0,0,1,.41,1.73Zm-4.75-2.23a2.35,2.35,0,0,0-.73,1.57h4.64a2.35,2.35,0,0,0-.73-1.57,2.38,2.38,0,0,0-3.18,0Z"/><path class="cls-2" d="M262.33,328.56h.88v9.23h-.88Z"/><path class="cls-2" d="M269.91,331.83a2.52,2.52,0,0,1,.68,1.9v4.06h-.85v-1a2.05,2.05,0,0,1-.87.8,3.12,3.12,0,0,1-1.38.28,2.67,2.67,0,0,1-1.74-.52,1.7,1.7,0,0,1-.65-1.38,1.66,1.66,0,0,1,.61-1.35,2.94,2.94,0,0,1,1.92-.51h2.08v-.39a1.65,1.65,0,0,0-.48-1.29,1.91,1.91,0,0,0-1.38-.44,3.42,3.42,0,0,0-1.19.2,3,3,0,0,0-1,.57l-.4-.66a3.7,3.7,0,0,1,1.19-.66,4.81,4.81,0,0,1,1.47-.23A2.83,2.83,0,0,1,269.91,331.83Zm-1,5a2.08,2.08,0,0,0,.8-1v-1.07h-2.06q-1.68,0-1.68,1.17a1.09,1.09,0,0,0,.44.91,2.06,2.06,0,0,0,1.22.32A2.31,2.31,0,0,0,268.91,336.81Z"/><path class="cls-2" d="M277.47,337.05v.74h-5.32v-.59l4.11-5.21h-4v-.75h5.18v.59l-4.12,5.22Z"/><path class="cls-2" d="M283.33,331.83a2.49,2.49,0,0,1,.69,1.9v4.06h-.85v-1a2.08,2.08,0,0,1-.88.8,3,3,0,0,1-1.37.28,2.67,2.67,0,0,1-1.74-.52,1.8,1.8,0,0,1-.05-2.73,3,3,0,0,1,1.92-.51h2.08v-.39a1.68,1.68,0,0,0-.47-1.29,1.94,1.94,0,0,0-1.38-.44,3.48,3.48,0,0,0-1.2.2,3.16,3.16,0,0,0-1,.57l-.4-.66a3.75,3.75,0,0,1,1.2-.66,4.71,4.71,0,0,1,1.47-.23A2.78,2.78,0,0,1,283.33,331.83Zm-1,5a2.06,2.06,0,0,0,.79-1v-1.07h-2.05q-1.68,0-1.68,1.17a1.07,1.07,0,0,0,.44.91,2,2,0,0,0,1.21.32A2.34,2.34,0,0,0,282.34,336.81Z"/><path class="cls-2" d="M247.64,350.05a11.79,11.79,0,0,1-.33-2.85,12,12,0,0,1,.33-2.87,8.5,8.5,0,0,1,1-2.35h.76a8.62,8.62,0,0,0-1,2.42,12.76,12.76,0,0,0,0,5.59,8.5,8.5,0,0,0,1,2.42h-.76A8.83,8.83,0,0,1,247.64,350.05Z"/><path class="cls-2" d="M255.65,345a2.49,2.49,0,0,1,.65,1.87v3.4h-.79v-3.32a1.94,1.94,0,0,0-.45-1.39,1.73,1.73,0,0,0-1.31-.48,2,2,0,0,0-1.5.56,2.1,2.1,0,0,0-.55,1.55v3.08h-.79v-5.86h.76v1.08a2.1,2.1,0,0,1,.89-.83,2.88,2.88,0,0,1,1.34-.3A2.41,2.41,0,0,1,255.65,345Z"/><path class="cls-2" d="M258.12,344.73H263v.66h-4.85Zm0,2.58H263V348h-4.85Z"/><path class="cls-2" d="M271,348.2h-1.56v2.05h-.8V348.2h-4.4v-.58l4.13-5.17h.89l-4,5h3.39v-1.81h.78v1.81H271Z"/><path class="cls-2" d="M276.27,345.87a2.21,2.21,0,0,1,1.27,2.05,2.27,2.27,0,0,1-1.3,2.1,3,3,0,0,1-1.36.3,2.88,2.88,0,0,1-2.38-1,4.47,4.47,0,0,1-.82-2.88,4.92,4.92,0,0,1,.44-2.21,3.14,3.14,0,0,1,1.25-1.37,3.78,3.78,0,0,1,1.87-.46,3.52,3.52,0,0,1,1.85.42l-.32.65a2.78,2.78,0,0,0-1.52-.37,2.59,2.59,0,0,0-2,.82,3.41,3.41,0,0,0-.74,2.38c0,.19,0,.4,0,.64a2.12,2.12,0,0,1,.93-1,3,3,0,0,1,1.46-.35A3.09,3.09,0,0,1,276.27,345.87Zm0,3.3a1.68,1.68,0,0,0,0-2.45,2.08,2.08,0,0,0-1.43-.46,2.32,2.32,0,0,0-1.05.22,1.76,1.76,0,0,0-.7.62,1.48,1.48,0,0,0-.26.86,1.52,1.52,0,0,0,.24.83,1.65,1.65,0,0,0,.71.61,2.39,2.39,0,0,0,1.11.24A2,2,0,0,0,276.22,349.17Z"/><path class="cls-2" d="M280,349.84a3.12,3.12,0,0,1-1.1-1.38,5.77,5.77,0,0,1,0-4.22,3.12,3.12,0,0,1,1.1-1.38,2.94,2.94,0,0,1,3.22,0,3.14,3.14,0,0,1,1.11,1.38,5.77,5.77,0,0,1,0,4.22,3.14,3.14,0,0,1-1.11,1.38,2.94,2.94,0,0,1-3.22,0Zm2.81-.64a2.39,2.39,0,0,0,.81-1.1,5.43,5.43,0,0,0,0-3.5,2.39,2.39,0,0,0-.81-1.1,1.91,1.91,0,0,0-1.2-.38,2,2,0,0,0-1.2.38,2.44,2.44,0,0,0-.8,1.1,5.43,5.43,0,0,0,0,3.5,2.44,2.44,0,0,0,.8,1.1,2,2,0,0,0,1.2.38A1.91,1.91,0,0,0,282.76,349.2Z"/><path class="cls-2" d="M285.69,352.41a9.22,9.22,0,0,0,1-2.41,12.85,12.85,0,0,0,0-5.61,9.22,9.22,0,0,0-1-2.41h.76a8.5,8.5,0,0,1,1,2.35,11.46,11.46,0,0,1,.34,2.87,11.93,11.93,0,0,1-.33,2.86,8.34,8.34,0,0,1-1,2.35Z"/><path class="cls-4" d="M473.31,260.6a3.31,3.31,0,0,1,.89,2.36,3.6,3.6,0,0,1-.54,1.93,3.81,3.81,0,0,1-1.63,1.39,6.28,6.28,0,0,1-2.66.51,8.4,8.4,0,0,1-2.52-.37,6.49,6.49,0,0,1-2.07-1l1-1.76a5.07,5.07,0,0,0,1.61.88,6.19,6.19,0,0,0,2,.32,3.12,3.12,0,0,0,1.89-.5,1.68,1.68,0,0,0,0-2.68,3.39,3.39,0,0,0-2-.48h-1.11v-1.55l2.77-3.3h-5.55v-1.9h8.32v1.52l-3,3.52A4.14,4.14,0,0,1,473.31,260.6Z"/><path class="cls-4" d="M478.07,264.25a1.38,1.38,0,0,1,.4,1,2.53,2.53,0,0,1-.08.59,8.8,8.8,0,0,1-.32.91l-.89,2.46h-1.41l.69-2.67a1.27,1.27,0,0,1-.6-.5,1.46,1.46,0,0,1-.22-.79,1.39,1.39,0,0,1,.41-1,1.35,1.35,0,0,1,1-.41A1.38,1.38,0,0,1,478.07,264.25Z"/><path class="cls-4" d="M489.14,254.41v1.52l-4.74,10.69H482l4.59-10.29h-4.79v2.07h-2.11v-4Z"/><path class="cls-4" d="M494.76,257l2,1.09-.68,1.19-2-1.19,0,2.25h-1.32v-2.23l-2,1.17-.7-1.19,2-1.09-2-1.1.7-1.21,2,1.19v-2.23h1.32l0,2.25,2-1.21.68,1.21Z"/><polygon class="cls-3" points="107.08 302.72 105.48 302.72 85.89 302.72 85.89 302.68 85.89 57.08 83.82 57.08 83.82 91.35 83.82 93.42 83.82 150.96 83.82 153.03 83.82 302.68 71.71 302.68 71.71 304.74 85.06 304.74 85.89 304.74 105.48 304.74 107.08 304.74 556.53 304.74 556.53 302.72 107.08 302.72"/><path class="cls-5" d="M8.06,299.45c2.4,0,3.6,1.27,3.6,2.74s-1.14,2.65-3.44,2.66-3.56-1.24-3.56-2.75,1.23-2.65,3.4-2.65m.11,4.18c1.45,0,2.56-.51,2.56-1.48s-1.09-1.47-2.6-1.47-2.54.4-2.54,1.47,1.14,1.48,2.58,1.48m8.27-1.34L4.66,295.6v-1l11.78,6.69ZM12.78,292c2.4,0,3.59,1.26,3.59,2.72s-1.13,2.64-3.41,2.66-3.58-1.24-3.58-2.75,1.23-2.63,3.4-2.63m.1,4.17c1.46,0,2.57-.54,2.57-1.49s-1.09-1.47-2.6-1.47-2.54.4-2.54,1.47,1.14,1.49,2.57,1.49"/><path class="cls-5" d="M15.36,287.44l-5-3.84c-.46-.36-.86-.72-1.31-1.1H9v4.59H7.76v-6.47l1,0,4.93,3.79c.47.35.89.7,1.33,1.08h0v-5h1.23v6.89Z"/><path class="cls-5" d="M16.25,274.27l-1.07.12v.05a3.17,3.17,0,0,1,1.27,2.6A2.42,2.42,0,0,1,14,279.63c-2,0-3.18-1.82-3.16-5.1h-.18a1.75,1.75,0,0,0-2,1.93,4.29,4.29,0,0,0,.63,2.21l-1,.35a5.32,5.32,0,0,1-.75-2.79c0-2.59,1.77-3.22,3.47-3.22h3.18a12.52,12.52,0,0,0,2-.14Zm-4.33.23c0,1.68.26,3.59,1.91,3.59a1.37,1.37,0,0,0,1.48-1.46,2.12,2.12,0,0,0-1.43-2.05,1.62,1.62,0,0,0-.49-.08Z"/><path class="cls-5" d="M16.25,270.58c-.58,0-1.44-.07-2.19-.07H3.8V269H9.13v0a3.17,3.17,0,0,1-1.56-2.89c0-2.11,1.75-3.6,4.33-3.58,3,0,4.55,1.91,4.55,3.8a3,3,0,0,1-1.6,2.84v.05l1.4.08Zm-3.4-1.6a2.52,2.52,0,0,0,.56-.07,2.38,2.38,0,0,0,1.81-2.31C15.22,265,13.9,264,12,264c-1.7,0-3.16.88-3.16,2.52a2.45,2.45,0,0,0,1.89,2.35,2.81,2.81,0,0,0,.63.09Z"/><path class="cls-5" d="M13.94,253.42c.87,0,1.65,0,2.31-.07v1.37l-1.38.09v0a3.2,3.2,0,0,1,1.58,2.81c0,1.33-.74,2.93-3.72,2.93h-5V259h4.7c1.62,0,2.7-.49,2.7-1.89a2.25,2.25,0,0,0-1.4-2A2.22,2.22,0,0,0,13,255H7.76v-1.54Z"/><path class="cls-5" d="M10.41,250.85c-1,0-1.86,0-2.65.07v-1.35l1.67,0v-.07a2.56,2.56,0,0,1-1.86-2.35,1.9,1.9,0,0,1,0-.44H9.08a2.62,2.62,0,0,0-.05.52,2.18,2.18,0,0,0,2,2.08,4.88,4.88,0,0,0,.72.07h4.52v1.52Z"/><path class="cls-5" d="M15.36,245.92l-5-3.84c-.46-.37-.86-.72-1.31-1.11H9v4.6H7.76V239.1h1l4.93,3.79c.47.35.89.7,1.33,1.09h0v-5h1.23v6.89Z"/><path class="cls-5" d="M12.29,236.71a2.73,2.73,0,0,0,3-2.92,5.6,5.6,0,0,0-.44-2.34l1.1-.27a6.83,6.83,0,0,1,.53,2.82,3.94,3.94,0,0,1-4.28,4.18c-2.56,0-4.58-1.51-4.58-4,0-2.77,2.44-3.51,4-3.51a5.25,5.25,0,0,1,.72.06Zm-1.11-4.53a2.19,2.19,0,0,0-2.5,2.14,2.56,2.56,0,0,0,2.5,2.37Z"/><path class="cls-5" d="M10.06,228.77c-.88,0-1.59,0-2.3.07v-1.37l1.41-.09v0a3.11,3.11,0,0,1-1.6-2.8c0-1.18.7-3,3.61-3h5.07v1.54H11.36c-1.37,0-2.51.51-2.51,2a2.28,2.28,0,0,0,2.3,2.18h5.1v1.54Zm-6-6,2.51,2.13V226L4.1,224.48Z"/><path class="cls-5" d="M15.36,216.27l-5-3.84c-.46-.36-.86-.71-1.32-1.1H9v4.59H7.76v-6.46h1l4.93,3.79c.47.35.89.7,1.33,1.09h0v-5h1.23v6.89Zm-10-2.59a.89.89,0,0,1-.91-.89.87.87,0,0,1,.91-.86.87.87,0,0,1,.9.86.89.89,0,0,1-.9.89"/><path class="cls-5" d="M11.94,200.24a4.15,4.15,0,0,1,4.5,4.23,4,4,0,0,1-4.36,4.07,4.15,4.15,0,0,1-4.51-4.21,4,4,0,0,1,4.37-4.09M12,207c1.86,0,3.27-1.07,3.27-2.58s-1.39-2.58-3.3-2.58c-1.44,0-3.26.72-3.26,2.54S10.41,207,12,207"/><polygon class="cls-5" points="16.25 198.22 11.2 198.22 12.22 199.41 11.01 199.41 9.97 198.22 3.8 198.22 3.8 196.67 8.8 196.67 7.73 195.43 8.96 195.43 10.03 196.67 16.25 196.67 16.25 198.22"/><path class="cls-5" d="M8.32,194.09a5.32,5.32,0,0,1-.75-2.79c0-2.59,1.77-3.22,3.47-3.22h3.18a11.88,11.88,0,0,0,2-.14v.43a3.21,3.21,0,0,0,1.68.69.78.78,0,0,0,.88-.84,1.76,1.76,0,0,0-.18-.81l.81-.24a2.53,2.53,0,0,1,.42,1.45,1.43,1.43,0,0,1-1.49,1.56,4.2,4.2,0,0,1-2.17-.84l-1,.12v.06a3.14,3.14,0,0,1,1.27,2.59A2.42,2.42,0,0,1,14,194.7c-2,0-3.18-1.82-3.16-5.1h-.18a1.75,1.75,0,0,0-2,1.93,4.29,4.29,0,0,0,.63,2.21Zm3.6-4.52c0,1.68.26,3.59,1.91,3.59a1.37,1.37,0,0,0,1.48-1.45,2.1,2.1,0,0,0-1.43-2.05,1.37,1.37,0,0,0-.49-.09Z"/><path class="cls-5" d="M3.8,178.25H14.06c.75,0,1.61,0,2.19-.07v1.38l-1.47.07v0a3.14,3.14,0,0,1,1.66,2.89c0,2.06-1.73,3.63-4.31,3.63-2.82,0-4.56-1.73-4.56-3.8a2.82,2.82,0,0,1,1.3-2.56v0H3.8Zm7.42,1.54a2.81,2.81,0,0,0-.65.07,2.28,2.28,0,0,0-1.79,2.23c0,1.59,1.4,2.54,3.28,2.54,1.72,0,3.14-.84,3.14-2.5a2.32,2.32,0,0,0-1.84-2.27,2.81,2.81,0,0,0-.67-.07Z"/><path class="cls-5" d="M11.66,174.16v0c-.3-.21-.67-.51-1-.75l-2.93-2.49V169l3.49,3.28,5-3.74v1.88l-4.07,2.93.88.79h3.19v1.52H3.8v-1.52Z"/><path class="cls-5" d="M11.94,159.77a4.14,4.14,0,0,1,4.5,4.22,4,4,0,0,1-4.36,4.07,4.15,4.15,0,0,1-4.51-4.21c0-2.43,1.77-4.08,4.37-4.08M12,166.5c1.86,0,3.27-1.07,3.27-2.58s-1.39-2.57-3.3-2.57c-1.44,0-3.26.72-3.26,2.54s1.68,2.61,3.29,2.61"/><path class="cls-5" d="M7.76,157.32l4.32-1.12c.94-.25,1.82-.47,2.7-.63v0c-.86-.2-1.77-.48-2.68-.76l-4.34-1.38v-1.3L12,150.76c1-.31,1.91-.56,2.77-.75v0a25.69,25.69,0,0,1-2.76-.65L7.76,148.1v-1.53l8.49,2.74v1.4L12.2,152a27.87,27.87,0,0,1-2.79.75v0a24.43,24.43,0,0,1,2.81.77l4,1.37v1.4L7.76,158.9Z"/><path class="cls-5" d="M11.94,137.51a4.15,4.15,0,0,1,4.5,4.23,4,4,0,0,1-4.36,4.07,4.15,4.15,0,0,1-4.51-4.21,4,4,0,0,1,4.37-4.09m.08,6.74c1.86,0,3.27-1.07,3.27-2.58s-1.39-2.58-3.3-2.58c-1.44,0-3.26.72-3.26,2.54s1.68,2.62,3.29,2.62"/><rect class="cls-5" x="10.94" y="131.72" width="1.14" height="4.33"/><path class="cls-5" d="M18.71,132a2.55,2.55,0,0,0-.65-1.68c-.49-.42-1.16-.58-3.19-.58H7.76v-1.54h7.7c1.65,0,2.72.26,3.49,1a3.91,3.91,0,0,1,1,2.63ZM5.38,128a1,1,0,0,1,0,1.91.94.94,0,0,1-1-1,.91.91,0,0,1,1-.93"/><path class="cls-5" d="M12.29,124.78a2.72,2.72,0,0,0,3-2.91,5.65,5.65,0,0,0-.44-2.35l1.1-.26a6.76,6.76,0,0,1,.53,2.82,3.94,3.94,0,0,1-4.28,4.17c-2.56,0-4.58-1.5-4.58-4,0-2.76,2.44-3.5,4-3.5a5.59,5.59,0,0,1,.72,0Zm-1.11-4.52a2.19,2.19,0,0,0-2.5,2.14,2.54,2.54,0,0,0,2.5,2.36Z"/><rect class="cls-5" x="3.8" y="115.3" width="12.45" height="1.54"/><path class="cls-5" d="M5.38,111a.91.91,0,0,1,1,1,.92.92,0,0,1-1,.93.94.94,0,0,1-1-1,.9.9,0,0,1,1-.94m10.87,1.72H7.76v-1.55h8.49Z"/><path class="cls-5" d="M5.33,106.74H7.76v-2.21H8.94v2.21h4.58c1.05,0,1.64-.3,1.64-1.16a3.56,3.56,0,0,0-.1-.89l1.16-.07a3.85,3.85,0,0,1,.21,1.37,2.14,2.14,0,0,1-.65,1.66,3.14,3.14,0,0,1-2.21.6H8.94v1.31H7.76v-1.31h-2Z"/><path class="cls-5" d="M11.94,95.22a4.14,4.14,0,0,1,4.5,4.22,4,4,0,0,1-4.36,4.07A4.15,4.15,0,0,1,7.57,99.3c0-2.44,1.77-4.08,4.37-4.08M12,102c1.86,0,3.27-1.07,3.27-2.58S13.9,96.79,12,96.79c-1.44,0-3.26.72-3.26,2.55S10.41,102,12,102"/><path class="cls-5" d="M7.76,92.77l4.32-1.13c.94-.24,1.82-.47,2.7-.63V91c-.86-.19-1.77-.47-2.68-.75L7.76,88.82V87.53L12,86.21c1-.31,1.91-.56,2.77-.75V85.4A25.51,25.51,0,0,1,12,84.76L7.76,83.54V82l8.49,2.74v1.4l-4.05,1.3c-.95.29-1.79.54-2.79.75v0a26.65,26.65,0,0,1,2.81.77l4,1.37v1.41L7.76,94.35Z"/><path class="cls-5" d="M7.76,79.69l5-1.86c.56-.19,1.23-.4,1.74-.54v0c-.51-.15-1.16-.33-1.78-.54L7.76,75V73.4l6.05,2.31c2.91,1.11,4.4,1.86,5.32,2.91a4.38,4.38,0,0,1,1,1.9l-1.3.38a4.08,4.08,0,0,0-.76-1.35,4.5,4.5,0,0,0-1.71-1.29,1,1,0,0,0-.37-.13,1.47,1.47,0,0,0-.41.11L7.76,81.37Z"/><path class="cls-5" d="M15.94,66.11a5.89,5.89,0,0,1,.49,2.44,4,4,0,0,1-4.33,4.23,4.31,4.31,0,0,1-4.51-4.56A5.17,5.17,0,0,1,8,66.08l1.19.35a3.6,3.6,0,0,0-.4,1.79,2.93,2.93,0,0,0,3.2,3,2.92,2.92,0,0,0,3.18-3,4.36,4.36,0,0,0-.42-1.89Z"/><path class="cls-5" d="M3.8,64.3V62.76H9.1v0A2.81,2.81,0,0,1,8,61.62,3.22,3.22,0,0,1,7.57,60c0-1.14.7-3,3.63-3h5.05v1.55H11.38c-1.37,0-2.53.51-2.53,2a2.22,2.22,0,0,0,1.54,2.07,1.86,1.86,0,0,0,.74.11h5.12V64.3Z"/><path class="cls-2" d="M426.09,356.72a3.4,3.4,0,0,1-1.35-.81l.35-.69a3.34,3.34,0,0,0,1.24.75,4.5,4.5,0,0,0,1.58.28,2.91,2.91,0,0,0,1.72-.42,1.29,1.29,0,0,0,.57-1.09,1.06,1.06,0,0,0-.31-.81,2,2,0,0,0-.76-.47,12,12,0,0,0-1.26-.36,12.62,12.62,0,0,1-1.53-.47,2.5,2.5,0,0,1-1-.69,1.8,1.8,0,0,1-.41-1.25,2.11,2.11,0,0,1,.34-1.18,2.38,2.38,0,0,1,1-.85,4.28,4.28,0,0,1,1.75-.31,4.89,4.89,0,0,1,1.43.2,4.15,4.15,0,0,1,1.22.55l-.31.72a4.22,4.22,0,0,0-1.14-.53,4.26,4.26,0,0,0-1.2-.18,2.7,2.7,0,0,0-1.68.44,1.33,1.33,0,0,0-.57,1.11,1.09,1.09,0,0,0,.31.82,2.06,2.06,0,0,0,.78.48q.46.17,1.26.36a12,12,0,0,1,1.52.46,2.48,2.48,0,0,1,1,.68,1.78,1.78,0,0,1,.4,1.24,2.09,2.09,0,0,1-.35,1.17,2.34,2.34,0,0,1-1.06.84,4.42,4.42,0,0,1-1.77.31A5.56,5.56,0,0,1,426.09,356.72Z"/><path class="cls-2" d="M432.86,349a.63.63,0,0,1-.19-.44.59.59,0,0,1,.19-.43.61.61,0,0,1,.45-.18.64.64,0,0,1,.45.17.58.58,0,0,1,.18.42.65.65,0,0,1-.18.46.65.65,0,0,1-.9,0Zm0,1.58h.86V357h-.86Z"/><path class="cls-2" d="M440.31,351.12A2.42,2.42,0,0,1,441,353v4h-.82v-1a2.1,2.1,0,0,1-.86.78A3,3,0,0,1,438,357a2.68,2.68,0,0,1-1.71-.51,1.77,1.77,0,0,1,0-2.67,2.92,2.92,0,0,1,1.88-.5h2v-.39a1.68,1.68,0,0,0-.46-1.26,1.91,1.91,0,0,0-1.36-.43,3.35,3.35,0,0,0-1.17.2,3,3,0,0,0-1,.55l-.39-.64a3.48,3.48,0,0,1,1.17-.64,4.57,4.57,0,0,1,1.44-.23A2.68,2.68,0,0,1,440.31,351.12Zm-1,4.87a2,2,0,0,0,.78-1v-1h-2q-1.65,0-1.65,1.14a1,1,0,0,0,.43.88,1.89,1.89,0,0,0,1.19.33A2.24,2.24,0,0,0,439.34,356Z"/><path class="cls-2" d="M445.07,350.82a3.08,3.08,0,0,1,1.5-.33v.84h-.21a2.08,2.08,0,0,0-1.59.62,2.5,2.5,0,0,0-.57,1.74V357h-.86v-6.41h.83v1.25A2.07,2.07,0,0,1,445.07,350.82Z"/><path class="cls-2" d="M449.18,356.6a3.08,3.08,0,0,1-1.18-1.17,3.59,3.59,0,0,1,0-3.37,3,3,0,0,1,1.18-1.15,3.43,3.43,0,0,1,1.7-.42,3.38,3.38,0,0,1,1.48.32,2.48,2.48,0,0,1,1,.95l-.65.44a2,2,0,0,0-.8-.72,2.52,2.52,0,0,0-1.06-.23,2.49,2.49,0,0,0-1.25.31,2.09,2.09,0,0,0-.86.88,2.66,2.66,0,0,0-.32,1.3,2.62,2.62,0,0,0,.32,1.31,2.14,2.14,0,0,0,.86.88,2.49,2.49,0,0,0,1.25.31,2.38,2.38,0,0,0,1.06-.23,1.94,1.94,0,0,0,.8-.71l.65.44a2.45,2.45,0,0,1-1,.95,3.34,3.34,0,0,1-1.47.32A3.53,3.53,0,0,1,449.18,356.6Z"/><path class="cls-2" d="M459.6,356.23V357h-5.21v-.57l4-5.11h-4v-.73h5.07v.57l-4,5.12Z"/><path class="cls-2" d="M465.37,351.12A2.46,2.46,0,0,1,466,353v4h-.83v-1a2,2,0,0,1-.86.78A3,3,0,0,1,463,357a2.63,2.63,0,0,1-1.7-.51,1.76,1.76,0,0,1-.05-2.67,3,3,0,0,1,1.89-.5h2v-.39a1.64,1.64,0,0,0-.46-1.26,1.9,1.9,0,0,0-1.35-.43,3.27,3.27,0,0,0-1.17.2,3,3,0,0,0-1,.55l-.39-.64a3.48,3.48,0,0,1,1.17-.64,4.62,4.62,0,0,1,1.44-.23A2.72,2.72,0,0,1,465.37,351.12Zm-1,4.87a2,2,0,0,0,.78-1v-1h-2c-1.1,0-1.64.38-1.64,1.14a1,1,0,0,0,.42.88,1.92,1.92,0,0,0,1.2.33A2.23,2.23,0,0,0,464.39,356Z"/><path class="cls-2" d="M473.57,351.19a2.73,2.73,0,0,1,.72,2V357h-.87v-3.63a2.15,2.15,0,0,0-.5-1.53,1.9,1.9,0,0,0-1.42-.52,2.19,2.19,0,0,0-1.64.62,2.32,2.32,0,0,0-.61,1.7V357h-.86v-6.41h.83v1.18a2.4,2.4,0,0,1,1-.91,3.19,3.19,0,0,1,1.45-.32A2.59,2.59,0,0,1,473.57,351.19Z"/><path class="cls-2" d="M484.35,356.23V357h-5.21v-.57l4-5.11h-4v-.73h5.07v.57l-4,5.12Zm-3-7.14a.57.57,0,0,1-.17-.41.59.59,0,0,1,.17-.42.57.57,0,0,1,.41-.17.58.58,0,0,1,.59.59.57.57,0,0,1-.17.41.59.59,0,0,1-.42.17A.57.57,0,0,1,481.33,349.09Z"/><path class="cls-2" d="M491.58,354h-5.36a2.27,2.27,0,0,0,.76,1.62,2.57,2.57,0,0,0,1.76.61,2.75,2.75,0,0,0,1.09-.21,2.27,2.27,0,0,0,.87-.63l.49.56a2.8,2.8,0,0,1-1.07.78,3.84,3.84,0,0,1-3.16-.15,3.06,3.06,0,0,1-1.18-1.16,3.29,3.29,0,0,1-.43-1.69,3.48,3.48,0,0,1,.41-1.68,2.88,2.88,0,0,1,1.12-1.15,3.11,3.11,0,0,1,1.6-.42,3.06,3.06,0,0,1,1.6.42,2.93,2.93,0,0,1,1.11,1.15,3.42,3.42,0,0,1,.4,1.68Zm-4.65-2.18a2.26,2.26,0,0,0-.71,1.54h4.54a2.3,2.3,0,0,0-.71-1.54,2.33,2.33,0,0,0-3.12,0Z"/><path class="cls-2" d="M493.36,347.91h.86v9h-.86Z"/><path class="cls-2" d="M500.8,351.12a2.42,2.42,0,0,1,.67,1.86v4h-.83v-1a2,2,0,0,1-.86.78,2.91,2.91,0,0,1-1.34.28,2.64,2.64,0,0,1-1.71-.51,1.65,1.65,0,0,1-.63-1.35,1.62,1.62,0,0,1,.59-1.32,2.9,2.9,0,0,1,1.88-.5h2v-.39a1.64,1.64,0,0,0-.47-1.26,1.9,1.9,0,0,0-1.35-.43,3.31,3.31,0,0,0-1.17.2,3,3,0,0,0-1,.55l-.39-.64a3.3,3.3,0,0,1,1.17-.64,4.53,4.53,0,0,1,1.44-.23A2.71,2.71,0,0,1,500.8,351.12Zm-1,4.87a2,2,0,0,0,.78-1v-1h-2q-1.65,0-1.65,1.14a1,1,0,0,0,.43.88,1.89,1.89,0,0,0,1.19.33A2.24,2.24,0,0,0,499.83,356Z"/><path class="cls-2" d="M508.22,356.23V357H503v-.57l4-5.11h-4v-.73h5.07v.57l-4,5.12Z"/><path class="cls-2" d="M514,351.12a2.46,2.46,0,0,1,.67,1.86v4h-.83v-1a2,2,0,0,1-.86.78,3,3,0,0,1-1.35.28,2.63,2.63,0,0,1-1.7-.51,1.76,1.76,0,0,1-.05-2.67,2.93,2.93,0,0,1,1.89-.5h2v-.39a1.64,1.64,0,0,0-.46-1.26,1.9,1.9,0,0,0-1.35-.43,3.27,3.27,0,0,0-1.17.2,3,3,0,0,0-1,.55l-.39-.64a3.48,3.48,0,0,1,1.17-.64,4.62,4.62,0,0,1,1.44-.23A2.72,2.72,0,0,1,514,351.12ZM513,356a2,2,0,0,0,.78-1v-1h-2c-1.1,0-1.64.38-1.64,1.14a1,1,0,0,0,.42.88,1.92,1.92,0,0,0,1.2.33A2.23,2.23,0,0,0,513,356Z"/><path class="cls-2" d="M520.63,356.74a12.55,12.55,0,0,1-.37-3.13,12.69,12.69,0,0,1,.37-3.14,8.86,8.86,0,0,1,1-2.56h.83a9.46,9.46,0,0,0-1,2.64,13.94,13.94,0,0,0,0,6.12,9.46,9.46,0,0,0,1,2.64h-.83A9.16,9.16,0,0,1,520.63,356.74Z"/><path class="cls-2" d="M524.39,348.42h.9V357h-.9Z"/><path class="cls-2" d="M529.74,348.42h.9V357h-.9Z"/><path class="cls-2" d="M531.55,359.31a9.8,9.8,0,0,0,1.06-2.64,13.94,13.94,0,0,0,0-6.12,9.8,9.8,0,0,0-1.06-2.64h.83a9.15,9.15,0,0,1,1,2.56,12.69,12.69,0,0,1,.37,3.14,12.55,12.55,0,0,1-.37,3.13,8.77,8.77,0,0,1-1,2.57Z"/><path class="cls-2" d="M457.36,369.22a12.6,12.6,0,0,1,0-5.73,7.93,7.93,0,0,1,1-2.35h.76a9,9,0,0,0-1,2.42,12.33,12.33,0,0,0-.3,2.8,12.46,12.46,0,0,0,.3,2.8,8.89,8.89,0,0,0,1,2.41h-.76A8.28,8.28,0,0,1,457.36,369.22Z"/><path class="cls-2" d="M465.37,364.15A2.46,2.46,0,0,1,466,366v3.4h-.79v-3.32a1.91,1.91,0,0,0-.46-1.39,1.69,1.69,0,0,0-1.3-.48,2,2,0,0,0-1.5.56,2.12,2.12,0,0,0-.55,1.56v3.07h-.79v-5.86h.76v1.08a2.16,2.16,0,0,1,.89-.83,2.88,2.88,0,0,1,1.34-.3A2.38,2.38,0,0,1,465.37,364.15Z"/><path class="cls-2" d="M467.84,363.89h4.85v.66h-4.85Zm0,2.58h4.85v.66h-4.85Z"/><path class="cls-2" d="M476.2,361.61v7.8h-.8v-7.09h-1.84v-.71Z"/><path class="cls-2" d="M483.38,368.7v.71H477.9v-.57l3.25-3.17a4.16,4.16,0,0,0,.83-1.05,2,2,0,0,0,.22-.88,1.31,1.31,0,0,0-.48-1.08,2.11,2.11,0,0,0-1.35-.38,2.66,2.66,0,0,0-2.13.87l-.57-.49a3,3,0,0,1,1.16-.83,4.3,4.3,0,0,1,1.6-.29,2.88,2.88,0,0,1,1.89.57,1.86,1.86,0,0,1,.7,1.54,2.63,2.63,0,0,1-.27,1.16,4.6,4.6,0,0,1-1,1.28l-2.65,2.61Z"/><path class="cls-2" d="M489.17,362.56a4.47,4.47,0,0,1,.83,2.88,4.92,4.92,0,0,1-.45,2.21A3.09,3.09,0,0,1,488.3,369a3.63,3.63,0,0,1-1.87.46,3.54,3.54,0,0,1-1.85-.42l.32-.65a2.8,2.8,0,0,0,1.52.37,2.61,2.61,0,0,0,2-.82,3.46,3.46,0,0,0,.73-2.38c0-.2,0-.41,0-.64a2.1,2.1,0,0,1-.92,1,3,3,0,0,1-1.46.35,3.14,3.14,0,0,1-1.37-.29,2.19,2.19,0,0,1-.93-.82,2.26,2.26,0,0,1-.33-1.23,2.29,2.29,0,0,1,.34-1.26,2.35,2.35,0,0,1,.95-.84,3.06,3.06,0,0,1,1.37-.3A2.87,2.87,0,0,1,489.17,362.56Zm-1.24,2.82a1.79,1.79,0,0,0,.71-.62,1.56,1.56,0,0,0,.26-.87,1.51,1.51,0,0,0-.24-.82,1.71,1.71,0,0,0-.71-.61,2.44,2.44,0,0,0-1.12-.24,2,2,0,0,0-1.37.47,1.68,1.68,0,0,0,0,2.45,2.08,2.08,0,0,0,1.43.46A2.31,2.31,0,0,0,487.93,365.38Z"/><path class="cls-2" d="M495.67,365.62a2,2,0,0,1,.64,1.55,2.17,2.17,0,0,1-.33,1.19,2.2,2.2,0,0,1-1,.82,3.66,3.66,0,0,1-1.55.3,4.67,4.67,0,0,1-1.6-.27,3.4,3.4,0,0,1-1.21-.73l.39-.64a2.72,2.72,0,0,0,1,.65,3.77,3.77,0,0,0,1.39.25,2.39,2.39,0,0,0,1.48-.41,1.4,1.4,0,0,0,.52-1.16A1.35,1.35,0,0,0,495,366a2.5,2.5,0,0,0-1.58-.42h-.56V365l2.16-2.71h-4v-.71h5v.57L493.8,365A2.92,2.92,0,0,1,495.67,365.62Z"/><path class="cls-2" d="M497.29,371.57a8.89,8.89,0,0,0,1-2.41,12.85,12.85,0,0,0,0-5.61,9,9,0,0,0-1-2.41h.76a8.5,8.5,0,0,1,1,2.35,11.46,11.46,0,0,1,.34,2.87,11.87,11.87,0,0,1-.33,2.86,8.34,8.34,0,0,1-1,2.35Z"/><g class="cls-6"><rect class="cls-7" x="451.11" y="316.11" width="29.9" height="26.66"/></g><g class="cls-8"><rect class="cls-9" x="422.79" y="316.11" width="14.05" height="20.91"/></g><g class="cls-10"><rect class="cls-11" x="432.05" y="322.13" width="14.72" height="15.3"/></g><g class="cls-12"><rect class="cls-13" x="445.7" y="321.75" width="11.34" height="15.27"/></g><g class="cls-14"><rect class="cls-15" x="518.65" y="321.93" width="14.49" height="15.08"/></g><g class="cls-16"><rect class="cls-17" x="494.59" y="321.75" width="11.34" height="15.27"/></g><g class="cls-18"><rect class="cls-19" x="504.37" y="321.5" width="14.63" height="15.97"/></g><path class="cls-20" d="M479.65,311H490l-.68,4.48h-4.37l-.78,3.83h4.49l-.28,1.31a7.1,7.1,0,0,1,6.87-4.37,5.51,5.51,0,0,1,5.68,5.36c-.05.68-.26,3.1-.26,3.1h-7.57a8.25,8.25,0,0,0-.27,2c0,1,.12,1.89,1.17,1.78s1.52-2.1,1.52-2.1h4.72s-1.14,6.11-6.67,5.88c-7.51-.31-6-8.4-6-8.4h-3.88l-2.94,13.23h-6Zm14,11.41h2.47s.5-2.67-1.05-2.42c-1.26.21-1.42,2.42-1.42,2.42"/><path class="cls-21" d="M479.65,311v-.22h10.59l-.75,4.9h-4.37l-.7,3.41h4.49l-.33,1.56-.21,0-.2-.07a7.75,7.75,0,0,1,1.48-2.26,7,7,0,0,1,5.25-2.26h.35a5.84,5.84,0,0,1,4.87,2.46,6,6,0,0,1,1,3v.1h0c-.05.68-.26,3.1-.26,3.1l0,.19h-7.76v-.21l.2.06s0,.05,0,.15a8.61,8.61,0,0,0-.21,1.79,3.49,3.49,0,0,0,.14,1.18.62.62,0,0,0,.22.29.7.7,0,0,0,.42.11H494a.89.89,0,0,0,.55-.31,3.16,3.16,0,0,0,.59-1,3.29,3.29,0,0,0,.15-.44l0-.12v-.05l0-.16h5.15l-.05.25a9.43,9.43,0,0,1-1.24,3,6.12,6.12,0,0,1-5.33,3h-.32a6,6,0,0,1-5.27-2.71,8.32,8.32,0,0,1-1.09-4.34,10,10,0,0,1,.12-1.6l.21,0v.21H483.8l-2.93,13.23H474.4l5.07-26.53h.18V311l.2,0-4.93,25.85h5.61l2.93-13.23h4.31l0,.25a.65.65,0,0,0,0,.1,10.24,10.24,0,0,0-.1,1.42,7.85,7.85,0,0,0,1,4.11c.83,1.33,2.29,2.4,4.93,2.52h.3a5.65,5.65,0,0,0,5-2.84,9.06,9.06,0,0,0,.94-2c.09-.27.15-.49.19-.65s0-.14,0-.18v-.06l.21,0v.21h-4.72v-.21l.2.05a5.25,5.25,0,0,1-.38,1,3,3,0,0,1-.51.77,1.26,1.26,0,0,1-.81.44h-.19a1.11,1.11,0,0,1-.65-.18,1.18,1.18,0,0,1-.47-.77,5,5,0,0,1-.09-1.05,8,8,0,0,1,.28-2.06l0-.15h7.72v.21l-.21,0s.06-.6.12-1.29.12-1.47.15-1.81h0v-.07a5.54,5.54,0,0,0-.94-2.78,5.39,5.39,0,0,0-4.53-2.28h-.34a6.53,6.53,0,0,0-4.94,2.12,7.27,7.27,0,0,0-1.07,1.46c-.11.2-.19.37-.24.48l-.06.13,0,.05-.41-.12.23-1.06H483.9l.87-4.26h4.36l.61-4H479.65V311l.2,0Zm14,11.4v-.21h2.47v.21l-.21,0v-.06a5.48,5.48,0,0,0,.06-.79,2.32,2.32,0,0,0-.15-.94.74.74,0,0,0-.22-.29.55.55,0,0,0-.34-.1.52.52,0,0,0-.17,0,1,1,0,0,0-.62.38,3,3,0,0,0-.51,1.16c0,.19-.07.36-.09.48s0,.11,0,.15v0l-.21,0v0l-.21,0a5.08,5.08,0,0,1,.25-1.18,2.65,2.65,0,0,1,.46-.88,1.38,1.38,0,0,1,.88-.54,1,1,0,0,1,.24,0,.9.9,0,0,1,.59.18,1.34,1.34,0,0,1,.45.72,3.13,3.13,0,0,1,.1.85,5.86,5.86,0,0,1-.08.93l0,.17h-2.88l0-.23Z"/><g class="cls-22"><rect class="cls-23" x="534.67" y="320.96" width="3.48" height="3.48"/></g><path class="cls-4" d="M295.38,54.59l1.66.94-.31.56-1.67-1V57h-.62v-1.9l-1.67,1-.32-.56,1.67-.94-1.67-.93.32-.58,1.67,1v-1.9h.62v1.9l1.67-1,.31.58Z"/><path class="cls-2" d="M307.58,55.46a3.18,3.18,0,0,1,1.26,1.26,4,4,0,0,1,0,3.74,3.22,3.22,0,0,1-1.25,1.26,3.59,3.59,0,0,1-1.8.45,3.43,3.43,0,0,1-1.55-.35,3.12,3.12,0,0,1-1.13-1V64.7h-.95V55.06h.91v1.4a3,3,0,0,1,1.13-1.08,3.33,3.33,0,0,1,1.59-.37A3.58,3.58,0,0,1,307.58,55.46ZM307.06,61a2.46,2.46,0,0,0,.95-1,3.06,3.06,0,0,0,.34-1.44,3,3,0,0,0-.34-1.42,2.46,2.46,0,0,0-.95-1,2.65,2.65,0,0,0-1.34-.35,2.63,2.63,0,0,0-1.34.35,2.44,2.44,0,0,0-.94,1,2.87,2.87,0,0,0-.34,1.42,3,3,0,0,0,.34,1.44,2.44,2.44,0,0,0,.94,1,2.72,2.72,0,0,0,1.34.34A2.75,2.75,0,0,0,307.06,61Z"/><path class="cls-2" d="M320.18,55.18,315.36,57l4.82,1.88v.84l-5.82-2.29v-.84l5.82-2.29Zm-5.82,6.13h5.82v.79h-5.82Z"/><path class="cls-2" d="M327.12,61.61A3.86,3.86,0,0,1,325.79,60a7.1,7.1,0,0,1,0-5.08,3.74,3.74,0,0,1,1.33-1.65,3.52,3.52,0,0,1,3.87,0,3.81,3.81,0,0,1,1.33,1.65,7,7,0,0,1,0,5.08A3.93,3.93,0,0,1,331,61.61a3.57,3.57,0,0,1-3.87,0Zm3.37-.76a2.94,2.94,0,0,0,1-1.33,6.47,6.47,0,0,0,0-4.2,2.94,2.94,0,0,0-1-1.33,2.37,2.37,0,0,0-1.44-.45,2.42,2.42,0,0,0-1.44.45,3.09,3.09,0,0,0-1,1.33,6.66,6.66,0,0,0,0,4.2,3.09,3.09,0,0,0,1,1.33,2.42,2.42,0,0,0,1.44.45A2.37,2.37,0,0,0,330.49,60.85Z"/><path class="cls-2" d="M335.28,60.92a.73.73,0,0,1,.2.51,1.48,1.48,0,0,1-.05.35,3.53,3.53,0,0,1-.14.43l-.56,1.85h-.64l.45-1.94a.73.73,0,0,1-.35-.25.72.72,0,0,1-.13-.44.73.73,0,0,1,.2-.51.66.66,0,0,1,.51-.21A.69.69,0,0,1,335.28,60.92Z"/><path class="cls-2" d="M338.52,61.61A3.91,3.91,0,0,1,337.2,60a7,7,0,0,1,0-5.08,3.79,3.79,0,0,1,1.32-1.65,3.43,3.43,0,0,1,1.94-.58,3.38,3.38,0,0,1,1.93.58,3.74,3.74,0,0,1,1.33,1.65,6.83,6.83,0,0,1,0,5.08,3.86,3.86,0,0,1-1.33,1.65,3.37,3.37,0,0,1-1.93.57A3.43,3.43,0,0,1,338.52,61.61Zm3.38-.76a3.09,3.09,0,0,0,1-1.33,6.66,6.66,0,0,0,0-4.2,3.09,3.09,0,0,0-1-1.33,2.42,2.42,0,0,0-1.44-.45A2.37,2.37,0,0,0,339,54a2.94,2.94,0,0,0-1,1.33,6.48,6.48,0,0,0,0,4.2,2.94,2.94,0,0,0,1,1.33,2.37,2.37,0,0,0,1.44.45A2.42,2.42,0,0,0,341.9,60.85Z"/><path class="cls-2" d="M347.38,61.61A3.91,3.91,0,0,1,346.06,60a7,7,0,0,1,0-5.08,3.79,3.79,0,0,1,1.32-1.65,3.43,3.43,0,0,1,1.94-.58,3.38,3.38,0,0,1,1.93.58,3.74,3.74,0,0,1,1.33,1.65,6.83,6.83,0,0,1,0,5.08,3.86,3.86,0,0,1-1.33,1.65,3.37,3.37,0,0,1-1.93.57A3.43,3.43,0,0,1,347.38,61.61Zm3.38-.76a3,3,0,0,0,1-1.33,6.48,6.48,0,0,0,0-4.2,3,3,0,0,0-1-1.33,2.42,2.42,0,0,0-1.44-.45,2.37,2.37,0,0,0-1.44.45,2.94,2.94,0,0,0-1,1.33,6.48,6.48,0,0,0,0,4.2,2.94,2.94,0,0,0,1,1.33,2.37,2.37,0,0,0,1.44.45A2.42,2.42,0,0,0,350.76,60.85Z"/><path class="cls-2" d="M360.82,61.25v.85h-6.58v-.68l3.9-3.81a5.26,5.26,0,0,0,1-1.26,2.4,2.4,0,0,0,.26-1.06,1.57,1.57,0,0,0-.57-1.29,2.51,2.51,0,0,0-1.63-.46,3.2,3.2,0,0,0-2.55,1L354,54a3.57,3.57,0,0,1,1.4-1,5.09,5.09,0,0,1,1.92-.35,3.51,3.51,0,0,1,2.27.68,2.25,2.25,0,0,1,.84,1.85,3.26,3.26,0,0,1-.32,1.4,6,6,0,0,1-1.22,1.53l-3.19,3.14Z"/><path class="cls-2" d="M372.07,55.06l-3.13,7h-1l-3.12-7h1l2.64,6,2.67-6Z"/><path class="cls-2" d="M373.58,61.92a3.53,3.53,0,0,1-1.23-.62l.43-.75a3.86,3.86,0,0,0,1.11.57,4.36,4.36,0,0,0,1.4.22,2.66,2.66,0,0,0,1.42-.3,1,1,0,0,0,.46-.85.76.76,0,0,0-.25-.61,1.62,1.62,0,0,0-.64-.33,10.52,10.52,0,0,0-1-.23,10.31,10.31,0,0,1-1.38-.32,2,2,0,0,1-.89-.57,1.57,1.57,0,0,1-.37-1.11,1.75,1.75,0,0,1,.73-1.45,3.35,3.35,0,0,1,2.05-.56,5.37,5.37,0,0,1,1.37.18,3.63,3.63,0,0,1,1.12.48l-.41.76a3.57,3.57,0,0,0-2.08-.6,2.37,2.37,0,0,0-1.37.32,1,1,0,0,0-.46.84.84.84,0,0,0,.26.64,1.64,1.64,0,0,0,.65.36c.26.07.61.15,1.07.23s1,.22,1.35.32a2,2,0,0,1,.87.55,1.52,1.52,0,0,1,.36,1.07,1.69,1.69,0,0,1-.77,1.47,3.65,3.65,0,0,1-2.13.54A5.26,5.26,0,0,1,373.58,61.92Z"/><path class="cls-2" d="M383.37,53.32a.66.66,0,0,1-.2-.48.67.67,0,0,1,.2-.47.71.71,0,0,1,1,0,.63.63,0,0,1,.2.46.68.68,0,0,1-.2.49.65.65,0,0,1-.5.2A.64.64,0,0,1,383.37,53.32Zm0,1.74h.95v7h-.95Z"/><path class="cls-2" d="M392.68,55.78a3,3,0,0,1,.78,2.24V62.1h-.95v-4a2.32,2.32,0,0,0-.55-1.67,2.06,2.06,0,0,0-1.56-.57,2.4,2.4,0,0,0-1.8.67,2.54,2.54,0,0,0-.67,1.87V62.1H387v-7h.91v1.3a2.67,2.67,0,0,1,1.08-1,3.52,3.52,0,0,1,1.6-.35A2.9,2.9,0,0,1,392.68,55.78Z"/><path class="cls-2" d="M401.74,55.78a3,3,0,0,1,.78,2.24V62.1h-.95v-4a2.32,2.32,0,0,0-.55-1.67,2,2,0,0,0-1.56-.57,2.4,2.4,0,0,0-1.8.67,2.57,2.57,0,0,0-.66,1.87V62.1h-1v-7H397v1.3a2.59,2.59,0,0,1,1.07-1,3.55,3.55,0,0,1,1.6-.35A2.88,2.88,0,0,1,401.74,55.78Z"/><path class="cls-2" d="M411.26,58.88h-5.88a2.49,2.49,0,0,0,.84,1.77,2.81,2.81,0,0,0,1.93.68,3,3,0,0,0,1.2-.24,2.48,2.48,0,0,0,.95-.69l.54.62a3.24,3.24,0,0,1-1.17.86,4.11,4.11,0,0,1-1.55.29,3.9,3.9,0,0,1-1.92-.46,3.43,3.43,0,0,1-1.31-1.28,3.66,3.66,0,0,1-.47-1.85,3.74,3.74,0,0,1,.45-1.84,3.29,3.29,0,0,1,1.23-1.28,3.49,3.49,0,0,1,1.76-.45,3.44,3.44,0,0,1,1.76.45,3.38,3.38,0,0,1,1.22,1.27,3.86,3.86,0,0,1,.44,1.85Zm-5.1-2.4a2.51,2.51,0,0,0-.78,1.69h5a2.57,2.57,0,0,0-.79-1.69,2.57,2.57,0,0,0-3.42,0Z"/><path class="cls-2" d="M422.15,55.46a3.22,3.22,0,0,1,1.25,1.26,4,4,0,0,1,0,3.74,3.22,3.22,0,0,1-1.25,1.26,3.59,3.59,0,0,1-1.8.45,3.39,3.39,0,0,1-1.54-.35,3.07,3.07,0,0,1-1.14-1V64.7h-.95V55.06h.91v1.4a3,3,0,0,1,1.14-1.08,3.26,3.26,0,0,1,1.58-.37A3.64,3.64,0,0,1,422.15,55.46ZM421.62,61a2.4,2.4,0,0,0,.95-1,3.06,3.06,0,0,0,.34-1.44,3,3,0,0,0-.34-1.42,2.4,2.4,0,0,0-.95-1,2.62,2.62,0,0,0-1.33-.35,2.66,2.66,0,0,0-1.35.35,2.44,2.44,0,0,0-.94,1,3,3,0,0,0-.34,1.42A3.06,3.06,0,0,0,418,60a2.44,2.44,0,0,0,.94,1,2.76,2.76,0,0,0,1.35.34A2.71,2.71,0,0,0,421.62,61Z"/><path class="cls-2" d="M427.71,55.37a3.4,3.4,0,0,1,1.64-.36v.92h-.23a2.27,2.27,0,0,0-1.74.68,2.74,2.74,0,0,0-.63,1.92V62.1h-.95v-7h.91v1.38A2.31,2.31,0,0,1,427.71,55.37Z"/><path class="cls-2" d="M437.12,58.88h-5.89a2.54,2.54,0,0,0,.85,1.77,2.8,2.8,0,0,0,1.92.68,3,3,0,0,0,1.21-.24,2.48,2.48,0,0,0,1-.69l.54.62a3.19,3.19,0,0,1-1.18.86,4,4,0,0,1-1.54.29,3.87,3.87,0,0,1-1.92-.46,3.36,3.36,0,0,1-1.31-1.28,3.66,3.66,0,0,1-.47-1.85,3.74,3.74,0,0,1,.45-1.84A3.29,3.29,0,0,1,432,55.46a3.49,3.49,0,0,1,1.76-.45,3.44,3.44,0,0,1,1.76.45,3.38,3.38,0,0,1,1.22,1.27,3.86,3.86,0,0,1,.44,1.85Zm-5.1-2.4a2.57,2.57,0,0,0-.79,1.69h5a2.57,2.57,0,0,0-.79-1.69,2.38,2.38,0,0,0-1.72-.65A2.35,2.35,0,0,0,432,56.48Z"/><path class="cls-2" d="M444.5,55.46a3.31,3.31,0,0,1,1.26,1.26,4.11,4.11,0,0,1,0,3.74,3.25,3.25,0,0,1-1.26,1.26,3.59,3.59,0,0,1-1.8.45,3.39,3.39,0,0,1-1.54-.35,3,3,0,0,1-1.13-1V64.7h-.95V55.06H440v1.4a2.86,2.86,0,0,1,1.13-1.08A3.32,3.32,0,0,1,442.7,55,3.64,3.64,0,0,1,444.5,55.46ZM444,61a2.44,2.44,0,0,0,.94-1,3,3,0,0,0,.34-1.44,2.87,2.87,0,0,0-.34-1.42,2.44,2.44,0,0,0-.94-1,2.76,2.76,0,0,0-2.69,0,2.42,2.42,0,0,0-.93,1,2.87,2.87,0,0,0-.35,1.42,3,3,0,0,0,.35,1.44,2.42,2.42,0,0,0,.93,1A2.83,2.83,0,0,0,444,61Z"/><path class="cls-2" d="M452.69,55.7a2.67,2.67,0,0,1,.74,2V62.1h-.91V61a2.19,2.19,0,0,1-.95.85,3.23,3.23,0,0,1-1.48.31,2.91,2.91,0,0,1-1.87-.56,1.81,1.81,0,0,1-.7-1.49,1.79,1.79,0,0,1,.65-1.44,3.16,3.16,0,0,1,2.07-.55h2.24V57.7a1.81,1.81,0,0,0-.51-1.39,2.15,2.15,0,0,0-1.49-.47,3.71,3.71,0,0,0-1.28.22,3.24,3.24,0,0,0-1.06.61l-.43-.71a3.82,3.82,0,0,1,1.29-.7,4.84,4.84,0,0,1,1.58-.25A3,3,0,0,1,452.69,55.7Zm-1.07,5.35a2.22,2.22,0,0,0,.86-1.06V58.84h-2.21c-1.21,0-1.81.42-1.81,1.26a1.16,1.16,0,0,0,.47,1,2.17,2.17,0,0,0,1.31.35A2.45,2.45,0,0,0,451.62,61.05Z"/><path class="cls-2" d="M457.92,55.37a3.4,3.4,0,0,1,1.64-.36v.92h-.23a2.27,2.27,0,0,0-1.74.68,2.74,2.74,0,0,0-.63,1.92V62.1H456v-7h.91v1.38A2.31,2.31,0,0,1,457.92,55.37Z"/><path class="cls-2" d="M465.83,55.7a2.67,2.67,0,0,1,.74,2V62.1h-.91V61a2.16,2.16,0,0,1-.94.85,3.26,3.26,0,0,1-1.48.31,2.94,2.94,0,0,1-1.88-.56,1.83,1.83,0,0,1-.69-1.49,1.76,1.76,0,0,1,.65-1.44,3.13,3.13,0,0,1,2.06-.55h2.24V57.7a1.81,1.81,0,0,0-.51-1.39,2.13,2.13,0,0,0-1.49-.47,3.71,3.71,0,0,0-1.28.22,3.35,3.35,0,0,0-1.06.61l-.43-.71a3.82,3.82,0,0,1,1.29-.7,4.89,4.89,0,0,1,1.58-.25A3,3,0,0,1,465.83,55.7Zm-1.07,5.35a2.17,2.17,0,0,0,.86-1.06V58.84h-2.21c-1.2,0-1.81.42-1.81,1.26a1.16,1.16,0,0,0,.47,1,2.17,2.17,0,0,0,1.31.35A2.45,2.45,0,0,0,464.76,61.05Z"/><path class="cls-2" d="M472.86,61.68a1.75,1.75,0,0,1-.66.36,2.56,2.56,0,0,1-.82.13,2.09,2.09,0,0,1-1.53-.53,2.06,2.06,0,0,1-.54-1.52V55.87h-1.25v-.81h1.25V53.52h.95v1.54h2.15v.81h-2.15v4.2a1.34,1.34,0,0,0,.32,1,1.22,1.22,0,0,0,.9.32,1.79,1.79,0,0,0,.57-.09,1.42,1.42,0,0,0,.48-.27Z"/><path class="cls-2" d="M480.37,55.06,476.85,63a3.38,3.38,0,0,1-1,1.4,2.21,2.21,0,0,1-1.35.42,2.91,2.91,0,0,1-.95-.16,2.07,2.07,0,0,1-.77-.49l.45-.7a1.75,1.75,0,0,0,1.28.53,1.26,1.26,0,0,0,.82-.27,2.44,2.44,0,0,0,.64-.91l.31-.68-3.15-7h1l2.65,6,2.65-6Z"/><path class="cls-2" d="M490.18,61.31v.79h-5.73v-.63l4.43-5.6h-4.35v-.81h5.57v.63l-4.43,5.62Zm-3.32-7.84a.64.64,0,0,1-.19-.45.65.65,0,0,1,.65-.65.64.64,0,0,1,.45.19A.62.62,0,0,1,488,53a.65.65,0,0,1-.64.64A.62.62,0,0,1,486.86,53.47Z"/><path class="cls-2" d="M498.06,58.88h-5.88a2.49,2.49,0,0,0,.84,1.77,2.81,2.81,0,0,0,1.93.68,3,3,0,0,0,1.2-.24,2.48,2.48,0,0,0,1-.69l.54.62a3.24,3.24,0,0,1-1.17.86,4.11,4.11,0,0,1-1.55.29,3.9,3.9,0,0,1-1.92-.46,3.43,3.43,0,0,1-1.31-1.28,3.66,3.66,0,0,1-.47-1.85,3.74,3.74,0,0,1,.45-1.84,3.25,3.25,0,0,1,1.24-1.28,3.65,3.65,0,0,1,3.51,0,3.31,3.31,0,0,1,1.22,1.27,3.86,3.86,0,0,1,.44,1.85Zm-5.1-2.4a2.51,2.51,0,0,0-.78,1.69h5a2.52,2.52,0,0,0-.79-1.69,2.57,2.57,0,0,0-3.42,0Z"/><path class="cls-2" d="M500,52.17h1V62.1h-1Z"/><path class="cls-2" d="M508.2,55.7a2.66,2.66,0,0,1,.73,2V62.1H508V61a2.16,2.16,0,0,1-.94.85,3.26,3.26,0,0,1-1.48.31,2.9,2.9,0,0,1-1.87-.56,1.81,1.81,0,0,1-.7-1.49,1.79,1.79,0,0,1,.65-1.44,3.15,3.15,0,0,1,2.07-.55H508V57.7a1.81,1.81,0,0,0-.51-1.39,2.12,2.12,0,0,0-1.48-.47,3.72,3.72,0,0,0-1.29.22,3.19,3.19,0,0,0-1.05.61l-.43-.71a3.67,3.67,0,0,1,1.28-.7,4.89,4.89,0,0,1,1.58-.25A3,3,0,0,1,508.2,55.7Zm-1.07,5.35A2.2,2.2,0,0,0,508,60V58.84h-2.21q-1.8,0-1.8,1.26a1.14,1.14,0,0,0,.47,1,2.17,2.17,0,0,0,1.31.35A2.5,2.5,0,0,0,507.13,61.05Z"/><path class="cls-2" d="M516.48,61.31v.79h-5.73v-.63l4.43-5.6h-4.35v-.81h5.57v.63L512,61.31Z"/><path class="cls-2" d="M522.93,55.7a2.67,2.67,0,0,1,.74,2V62.1h-.91V61a2.16,2.16,0,0,1-.94.85,3.26,3.26,0,0,1-1.48.31,2.94,2.94,0,0,1-1.88-.56,1.83,1.83,0,0,1-.69-1.49,1.76,1.76,0,0,1,.65-1.44,3.13,3.13,0,0,1,2.06-.55h2.24V57.7a1.81,1.81,0,0,0-.51-1.39,2.12,2.12,0,0,0-1.48-.47,3.72,3.72,0,0,0-1.29.22,3.35,3.35,0,0,0-1.06.61L518,56a3.67,3.67,0,0,1,1.28-.7,4.89,4.89,0,0,1,1.58-.25A3,3,0,0,1,522.93,55.7Zm-1.07,5.35a2.17,2.17,0,0,0,.86-1.06V58.84h-2.21c-1.2,0-1.81.42-1.81,1.26a1.16,1.16,0,0,0,.47,1,2.19,2.19,0,0,0,1.31.35A2.45,2.45,0,0,0,521.86,61.05Z"/></svg>