<svg id="Warstwa_1_kopia" data-name="Warstwa 1 kopia" xmlns="http://www.w3.org/2000/svg" xmlns:xlink="http://www.w3.org/1999/xlink" viewBox="0 0 315 225"><defs><style>.cls-1{fill:none;}.cls-2{clip-path:url(#clip-path);}.cls-3{fill:url(#Gradient_bez_nazwy_8);}.cls-4{clip-path:url(#clip-path-2);}.cls-5{fill:url(#Gradient_bez_nazwy_8-2);}.cls-6{clip-path:url(#clip-path-3);}.cls-7{fill:url(#Gradient_bez_nazwy_8-3);}.cls-8{clip-path:url(#clip-path-4);}.cls-9{fill:url(#Gradient_bez_nazwy_8-4);}.cls-10{clip-path:url(#clip-path-5);}.cls-11{fill:url(#Gradient_bez_nazwy_8-5);}.cls-12{clip-path:url(#clip-path-6);}.cls-13{fill:url(#Gradient_bez_nazwy_8-6);}.cls-14{clip-path:url(#clip-path-7);}.cls-15{fill:url(#Gradient_bez_nazwy_8-7);}.cls-16{fill:#fff;}.cls-17{fill:#a90067;}.cls-18{clip-path:url(#clip-path-8);}.cls-19{fill:url(#Gradient_bez_nazwy_8-8);}.cls-20{fill:#b2b2b2;}.cls-21{fill:#ba3284;}.cls-22{fill:#575756;}.cls-23{fill:#706f6f;}</style><clipPath id="clip-path"><path class="cls-1" d="M106.27,205.57c-.89-.14-.64-4.34.75-4.2.94.21.58,4.21-.65,4.21Zm3.27-14.84-1.31,8.4s-.18-.67-2-.85-3.84,1.39-4.41,5.19,1.34,5.19,2.7,5.26a4.11,4.11,0,0,0,2.46-.8v.49h3.52L112.33,198h.25l1.17,6.83-2,3.56h3.45l6.31-12.25H118l-1.67,3.75-.5-3.71h-3.31l.91-5.48Z"/></clipPath><linearGradient id="Gradient_bez_nazwy_8" x1="-267.97" y1="424.25" x2="-266.97" y2="424.25" gradientTransform="translate(18929.84 -7623.01) scale(70.33 18.44)" gradientUnits="userSpaceOnUse"><stop offset="0" stop-color="#d7007f"/><stop offset="0.46" stop-color="#c10074"/><stop offset="1" stop-color="#a90067"/></linearGradient><clipPath id="clip-path-2"><polygon class="cls-1" points="82.8 190.73 82.09 194.16 84.81 194.16 83.03 204.9 87.09 204.9 88.75 194.12 91.18 194.14 91.61 190.73 82.8 190.73"/></clipPath><linearGradient id="Gradient_bez_nazwy_8-2" x1="-268.01" y1="425.64" x2="-267.01" y2="425.64" gradientTransform="translate(19228.47 -6010.24) scale(71.44 14.59)" xlink:href="#Gradient_bez_nazwy_8"/><clipPath id="clip-path-3"><path class="cls-1" d="M93,201.94c-1.18-.07-.65-4.31.5-4.16.49,0,.74,1,.68,2.08s-.42,2.08-1.14,2.08Zm-.36-7.12c-1.53.15-3.95,1.5-4.09,5.52s1.1,4.77,2.77,4.8a2.5,2.5,0,0,0,2.28-1v.75h3.27L98.34,195H95.28l-.36.67a2.65,2.65,0,0,0-2-.9H92.6"/></clipPath><linearGradient id="Gradient_bez_nazwy_8-3" x1="-267.98" y1="427.84" x2="-266.98" y2="427.84" gradientTransform="translate(19034.12 -4485.55) scale(70.72 10.95)" xlink:href="#Gradient_bez_nazwy_8"/><clipPath id="clip-path-4"><path class="cls-1" d="M105,194.55h0a2.56,2.56,0,0,0-1.2.31,5.13,5.13,0,0,0-1.25,1l-.07-.78H99.12l-1.5,9.86h3.46s.07-4.56,1.13-5.81a3.73,3.73,0,0,1,2.67-1.21l.43-3.31a2.08,2.08,0,0,0-.31,0Z"/></clipPath><linearGradient id="Gradient_bez_nazwy_8-4" x1="-267.96" y1="427.92" x2="-266.96" y2="427.92" gradientTransform="translate(18919.37 -4445.23) scale(70.29 10.85)" xlink:href="#Gradient_bez_nazwy_8"/><clipPath id="clip-path-5"><path class="cls-1" d="M154.46,194.68h0a4.3,4.3,0,0,0-2.37,1l0-.6h-3.45l-1.52,9.86h3.38l1-5.56s.22-1.2.92-1.1.43,1.07.43,1.07l-.8,5.59h3.52s1.41-7.3,1.27-8.26a2.26,2.26,0,0,0-2.17-2Z"/></clipPath><linearGradient id="Gradient_bez_nazwy_8-5" x1="-268.11" y1="428.02" x2="-267.11" y2="428.02" gradientTransform="translate(19908.72 -4392.87) scale(73.95 10.73)" xlink:href="#Gradient_bez_nazwy_8"/><clipPath id="clip-path-6"><path class="cls-1" d="M138.13,194.55h0a2.56,2.56,0,0,0-1.2.31,4.94,4.94,0,0,0-1.24,1l-.07-.78h-3.35l-1.5,9.86h3.46s.07-4.56,1.13-5.81a3.75,3.75,0,0,1,2.68-1.21l.42-3.31a1.85,1.85,0,0,0-.3,0Z"/></clipPath><linearGradient id="Gradient_bez_nazwy_8-6" x1="-267.96" y1="427.92" x2="-266.96" y2="427.92" gradientTransform="translate(18918.68 -4445.54) scale(70.29 10.86)" xlink:href="#Gradient_bez_nazwy_8"/><clipPath id="clip-path-7"><path class="cls-1" d="M141.77,201.9c-1.56-.17-.71-4.73.71-4.42s1,4.43-.61,4.43h-.1m-4.29-1.72c-.1,1.11.17,5,4.63,5s5-5.06,5.09-6.52a4,4,0,0,0-4.17-4.27h-.12c-3.34,0-5.17,2.86-5.43,5.79"/></clipPath><linearGradient id="Gradient_bez_nazwy_8-7" x1="-267.99" y1="427.5" x2="-266.99" y2="427.5" gradientTransform="translate(19109.07 -4671.19) scale(71 11.39)" xlink:href="#Gradient_bez_nazwy_8"/><clipPath id="clip-path-8"><path class="cls-1" d="M158.89,194.71h.22c.13,0,.28,0,.28.18s-.13.2-.28.2h-.22Zm-.25-.19v1.34h.25v-.58H159l.35.58h.25l-.36-.59a.33.33,0,0,0,.35-.36c0-.28-.17-.39-.49-.39Zm-.43.67a.89.89,0,1,1,.89,1,.9.9,0,0,1-.89-1m-.29,0A1.18,1.18,0,1,0,159.1,194a1.18,1.18,0,0,0-1.18,1.18"/></clipPath><linearGradient id="Gradient_bez_nazwy_8-8" x1="-180.56" y1="453.78" x2="-179.56" y2="453.78" gradientTransform="translate(584 -1067.98) scale(2.36 2.78)" xlink:href="#Gradient_bez_nazwy_8"/></defs><title>wykres_biodostepnosc</title><g class="cls-2"><rect class="cls-3" x="101.28" y="190.73" width="20.26" height="18.07"/></g><g class="cls-4"><rect class="cls-5" x="82.09" y="190.73" width="9.52" height="14.17"/></g><g class="cls-6"><rect class="cls-7" x="88.37" y="194.81" width="9.98" height="10.37"/></g><g class="cls-8"><rect class="cls-9" x="97.62" y="194.55" width="7.69" height="10.35"/></g><g class="cls-10"><rect class="cls-11" x="147.06" y="194.68" width="9.82" height="10.22"/></g><g class="cls-12"><rect class="cls-13" x="130.75" y="194.55" width="7.69" height="10.35"/></g><g class="cls-14"><rect class="cls-15" x="137.38" y="194.39" width="9.91" height="10.83"/></g><path class="cls-16" d="M120.63,187.29h7l-.46,3h-3l-.53,2.6h3l-.19.89a4.82,4.82,0,0,1,4.66-3,3.74,3.74,0,0,1,3.85,3.63l-.18,2.11h-5.13a5.62,5.62,0,0,0-.18,1.35c0,.71.08,1.28.79,1.21s1-1.43,1-1.43h3.2s-.77,4.15-4.52,4C125,201.5,126,196,126,196h-2.63l-2,9h-4.09Zm9.5,7.73h1.68s.33-1.81-.72-1.64c-.85.15-1,1.64-1,1.64"/><path class="cls-17" d="M120.63,187.29v-.14h7.18l-.51,3.31h-3l-.48,2.31h3l-.22,1.06-.14,0-.13-.05a5.18,5.18,0,0,1,1-1.53A4.74,4.74,0,0,1,131,190.7h.23a3.89,3.89,0,0,1,4,3.71v.07h0l-.18,2.1v.13h-5.26v-.14l.14,0,0,.11a5.47,5.47,0,0,0-.15,1.21,2.19,2.19,0,0,0,.1.8.46.46,0,0,0,.15.2.52.52,0,0,0,.28.07h.1a.55.55,0,0,0,.37-.2,1.88,1.88,0,0,0,.4-.7c.05-.11.08-.22.11-.29a.51.51,0,0,0,0-.09v0l0-.11h3.49l0,.17a6.44,6.44,0,0,1-.84,2.05,4.14,4.14,0,0,1-3.61,2.06h-.22a4.08,4.08,0,0,1-3.57-1.84,5.6,5.6,0,0,1-.74-2.94,7,7,0,0,1,.08-1.08l.14,0v.15h-2.51l-2,9h-4.38l3.44-18h.12v.14l.14,0-3.35,17.52h3.81l2-9h2.92l0,.17a.31.31,0,0,0,0,.07,7.4,7.4,0,0,0-.06,1,5.4,5.4,0,0,0,.69,2.79,3.83,3.83,0,0,0,3.35,1.71h.2a3.86,3.86,0,0,0,3.37-1.93,5.82,5.82,0,0,0,.63-1.34,3.73,3.73,0,0,0,.13-.44l0-.12v0l.14,0v.15h-3.2v-.15l.14,0a4.5,4.5,0,0,1-.26.71,2,2,0,0,1-.35.52.84.84,0,0,1-.55.3h-.13a.78.78,0,0,1-.44-.12.87.87,0,0,1-.32-.53,4,4,0,0,1-.05-.71,6,6,0,0,1,.18-1.39l0-.11h5.24v.15l-.15,0s0-.41.08-.87.09-1,.1-1.23h0v-.05a3.57,3.57,0,0,0-3.71-3.42H131a4.43,4.43,0,0,0-3.35,1.44,5,5,0,0,0-.73,1c-.07.14-.13.25-.16.33l0,.09v0l-.28-.08.15-.71h-3l.59-2.88h3l.42-2.75h-6.84v-.14l.14,0Zm9.5,7.73v-.14h1.68V195l-.14,0v0a3,3,0,0,0,0-.53,1.44,1.44,0,0,0-.1-.64.53.53,0,0,0-.15-.2.39.39,0,0,0-.23-.07h-.12a.72.72,0,0,0-.42.27,2,2,0,0,0-.34.78c0,.13,0,.25-.06.33a.38.38,0,0,0,0,.1v0h-.15v0H130a3.54,3.54,0,0,1,.17-.8,1.81,1.81,0,0,1,.31-.6,1,1,0,0,1,.6-.37h.16a.63.63,0,0,1,.4.12.88.88,0,0,1,.31.49,2.29,2.29,0,0,1,.06.58,4.33,4.33,0,0,1-.05.63l0,.11h-2V195Z"/><g class="cls-18"><rect class="cls-19" x="157.92" y="194.01" width="2.36" height="2.36"/></g><polygon class="cls-20" points="313.95 183.12 70.04 183.12 70.04 11.99 69.05 11.99 69.05 36.75 56.37 36.75 56.37 37.73 69.05 37.73 69.05 85.54 56.37 85.54 56.37 86.53 69.05 86.53 69.05 134.33 56.37 134.33 56.37 135.32 69.05 135.32 69.05 183.12 56.37 183.12 56.37 184.11 69.05 184.11 70.04 184.11 313.95 184.11 313.95 183.12"/><path class="cls-21" d="M104.49,36.56v6.76h-1.56v-5.5h-1.35V36.56Z"/><path class="cls-21" d="M108.28,36.56v6.76h-1.57v-5.5h-1.35V36.56Z"/><path class="cls-21" d="M111,41.78a.88.88,0,0,1,.26.67,1.31,1.31,0,0,1,0,.39,4,4,0,0,1-.21.58l-.55,1.39h-1l.42-1.54a.72.72,0,0,1-.38-.31,1,1,0,0,1,.12-1.18,1,1,0,0,1,.68-.25A.89.89,0,0,1,111,41.78Z"/><path class="cls-21" d="M117.28,36.56v1l-2.51,5.74h-1.7l2.42-5.48h-2.24v1.1h-1.39V36.56Z"/><path class="cls-21" d="M122.8,38.59v1.14h-1.68v1.58h-1.25V39.73H118.2V38.59h1.67V37h1.25v1.58Zm-4.6,3.55h4.6v1.18h-4.6Z"/><path class="cls-21" d="M128.2,39.34a2.15,2.15,0,0,1,.84.74,2.06,2.06,0,0,1,.31,1.11,2.16,2.16,0,0,1-.34,1.19,2.22,2.22,0,0,1-.93.78,3.23,3.23,0,0,1-3.52-.59,3.55,3.55,0,0,1-.8-2.48,4.12,4.12,0,0,1,.44-2,2.92,2.92,0,0,1,1.21-1.25,3.74,3.74,0,0,1,1.8-.42,4.42,4.42,0,0,1,1,.12,2.68,2.68,0,0,1,.84.34l-.58,1.15a2.15,2.15,0,0,0-1.26-.34,1.85,1.85,0,0,0-1.36.5,2.06,2.06,0,0,0-.54,1.46,2.25,2.25,0,0,1,1.67-.6A2.72,2.72,0,0,1,128.2,39.34ZM127.51,42a1,1,0,0,0,0-1.47,1.16,1.16,0,0,0-.83-.28,1.24,1.24,0,0,0-.84.29.92.92,0,0,0-.33.73.93.93,0,0,0,.32.72,1.25,1.25,0,0,0,.87.28A1.18,1.18,0,0,0,127.51,42Z"/><path class="cls-21" d="M131.48,41.78a.92.92,0,0,1,.26.67,1.74,1.74,0,0,1-.05.39,4,4,0,0,1-.21.58l-.55,1.39h-1l.43-1.54A.72.72,0,0,1,130,43a.85.85,0,0,1-.14-.51.88.88,0,0,1,.26-.67.93.93,0,0,1,.67-.25A.91.91,0,0,1,131.48,41.78Z"/><path class="cls-21" d="M136.88,39.34a2.15,2.15,0,0,1,.84.74,2,2,0,0,1,.31,1.11,2.08,2.08,0,0,1-.34,1.19,2.19,2.19,0,0,1-.92.78,2.92,2.92,0,0,1-1.3.28,2.86,2.86,0,0,1-2.22-.87,3.51,3.51,0,0,1-.8-2.48,4.13,4.13,0,0,1,.43-2,2.92,2.92,0,0,1,1.21-1.25,3.74,3.74,0,0,1,1.8-.42,4.42,4.42,0,0,1,1,.12,2.75,2.75,0,0,1,.85.34l-.58,1.15a2.21,2.21,0,0,0-1.27-.34,1.87,1.87,0,0,0-1.36.5,2.15,2.15,0,0,0-.54,1.46,2.26,2.26,0,0,1,1.67-.6A2.72,2.72,0,0,1,136.88,39.34ZM136.2,42a1,1,0,0,0,0-1.47,1.2,1.2,0,0,0-.84-.28,1.24,1.24,0,0,0-.84.29.92.92,0,0,0-.33.73.93.93,0,0,0,.32.72,1.26,1.26,0,0,0,.87.28A1.21,1.21,0,0,0,136.2,42Z"/><path class="cls-22" d="M184.65,63.84V70.6h-1.57V65.09h-1.35V63.84Z"/><path class="cls-22" d="M188.43,63.84V70.6h-1.56V65.09h-1.35V63.84Z"/><path class="cls-22" d="M194.43,65.87V67h-1.68v1.58H191.5V67h-1.67V65.87h1.67V64.28h1.25v1.59Zm-4.6,3.55h4.6V70.6h-4.6Z"/><path class="cls-22" d="M201.59,69.18h-1.1V70.6H199V69.18h-3.64V68.13l3.19-4.29h1.64l-3,4.07H199V66.64h1.48v1.27h1.1Z"/><path class="cls-22" d="M203.62,69.06a.9.9,0,0,1,.26.67,1.74,1.74,0,0,1,0,.39,4,4,0,0,1-.21.58l-.55,1.39h-1l.43-1.54a.8.8,0,0,1-.39-.31,1,1,0,0,1-.14-.51.87.87,0,0,1,.27-.67,1,1,0,0,1,1.34,0Z"/><path class="cls-22" d="M210,67.7a1.75,1.75,0,0,1,.26.94,1.83,1.83,0,0,1-.35,1.1,2.32,2.32,0,0,1-1,.72,4.43,4.43,0,0,1-3,0,2.2,2.2,0,0,1-1-.72,1.77,1.77,0,0,1-.36-1.1,1.67,1.67,0,0,1,.27-.94,1.87,1.87,0,0,1,.76-.65,1.64,1.64,0,0,1-.58-.59,1.52,1.52,0,0,1-.2-.81,1.7,1.7,0,0,1,.32-1A2.14,2.14,0,0,1,206,64a3.57,3.57,0,0,1,1.35-.24,3.64,3.64,0,0,1,1.37.24,2.08,2.08,0,0,1,.92.67,1.64,1.64,0,0,1,.33,1,1.62,1.62,0,0,1-.2.81,1.67,1.67,0,0,1-.59.59A1.9,1.9,0,0,1,210,67.7Zm-1.66,1.6a.87.87,0,0,0,.34-.71.84.84,0,0,0-.34-.7,1.48,1.48,0,0,0-.94-.27,1.41,1.41,0,0,0-.91.27.81.81,0,0,0-.34.7.86.86,0,0,0,.34.72,1.75,1.75,0,0,0,1.85,0Zm-1.69-4.2a.75.75,0,0,0-.29.62.73.73,0,0,0,.28.61,1.18,1.18,0,0,0,.76.22,1.25,1.25,0,0,0,.78-.22.74.74,0,0,0,.29-.61.75.75,0,0,0-.29-.62,1.25,1.25,0,0,0-.78-.23A1.18,1.18,0,0,0,206.63,65.1Z"/><path class="cls-22" d="M175.89,189.66h.49v4.61h-.49Z"/><path class="cls-22" d="M180.57,191.16a1.46,1.46,0,0,1,.39,1.1v2h-.47v-2a1.17,1.17,0,0,0-.27-.83,1,1,0,0,0-.77-.28,1.17,1.17,0,0,0-.88.33,1.25,1.25,0,0,0-.33.92v1.82h-.47v-3.46h.45v.63a1.32,1.32,0,0,1,.53-.49,1.8,1.8,0,0,1,.79-.17A1.41,1.41,0,0,1,180.57,191.16Z"/><path class="cls-22" d="M185,191.16a1.46,1.46,0,0,1,.39,1.1v2h-.47v-2a1.17,1.17,0,0,0-.27-.83,1,1,0,0,0-.77-.28,1.21,1.21,0,0,0-.89.33,1.29,1.29,0,0,0-.32.92v1.82h-.47v-3.46h.45v.63a1.26,1.26,0,0,1,.53-.49,1.76,1.76,0,0,1,.78-.17A1.43,1.43,0,0,1,185,191.16Z"/><path class="cls-22" d="M189.47,190.81l-1.73,3.87a1.59,1.59,0,0,1-.49.69,1,1,0,0,1-.66.21,1.45,1.45,0,0,1-.47-.08,1.18,1.18,0,0,1-.37-.24l.21-.35a.86.86,0,0,0,.64.26.62.62,0,0,0,.4-.13,1.1,1.1,0,0,0,.31-.45l.15-.33-1.54-3.45h.48l1.31,2.94,1.3-2.94Z"/><path class="cls-22" d="M194.5,191a1.54,1.54,0,0,1,.62.62,1.84,1.84,0,0,1,.22.92,1.87,1.87,0,0,1-.22.92,1.65,1.65,0,0,1-.61.62,1.75,1.75,0,0,1-.89.22,1.61,1.61,0,0,1-.76-.18,1.34,1.34,0,0,1-.55-.51v1.93h-.47v-4.73h.45v.68a1.47,1.47,0,0,1,.55-.53,1.66,1.66,0,0,1,.78-.18A1.72,1.72,0,0,1,194.5,191Zm-.25,2.72a1.25,1.25,0,0,0,.46-.48,1.55,1.55,0,0,0,0-1.41,1.22,1.22,0,0,0-.46-.47,1.25,1.25,0,0,0-.66-.17,1.2,1.2,0,0,0-.66.17,1.16,1.16,0,0,0-.46.47,1.55,1.55,0,0,0,0,1.41,1.18,1.18,0,0,0,.46.48,1.29,1.29,0,0,0,.66.16A1.34,1.34,0,0,0,194.25,193.72Z"/><path class="cls-22" d="M197.23,191a1.67,1.67,0,0,1,.81-.18v.45h-.12a1.11,1.11,0,0,0-.85.33,1.33,1.33,0,0,0-.31.94v1.77h-.47v-3.46h.45v.67A1.12,1.12,0,0,1,197.23,191Z"/><path class="cls-22" d="M201.93,192.68H199a1.2,1.2,0,0,0,.41.87,1.39,1.39,0,0,0,1,.33,1.44,1.44,0,0,0,.59-.11,1.32,1.32,0,0,0,.47-.34l.26.3a1.36,1.36,0,0,1-.58.42,1.87,1.87,0,0,1-.76.15,1.92,1.92,0,0,1-.94-.23,1.62,1.62,0,0,1-.64-.63,1.8,1.8,0,0,1-.23-.9,1.83,1.83,0,0,1,.22-.91,1.65,1.65,0,0,1,.6-.63,1.71,1.71,0,0,1,.87-.22,1.64,1.64,0,0,1,.86.22,1.56,1.56,0,0,1,.6.62,2,2,0,0,1,.22.92Zm-2.51-1.18a1.22,1.22,0,0,0-.38.83h2.45a1.23,1.23,0,0,0-.39-.83,1.17,1.17,0,0,0-.84-.32A1.2,1.2,0,0,0,199.42,191.5Z"/><path class="cls-22" d="M205.55,191a1.61,1.61,0,0,1,.62.62,1.84,1.84,0,0,1,.22.92,1.87,1.87,0,0,1-.22.92,1.68,1.68,0,0,1-.62.62,1.72,1.72,0,0,1-.88.22,1.58,1.58,0,0,1-.76-.18,1.37,1.37,0,0,1-.56-.51v1.93h-.47v-4.73h.45v.68a1.5,1.5,0,0,1,.56-.53,1.66,1.66,0,0,1,.78-.18A1.74,1.74,0,0,1,205.55,191Zm-.26,2.72a1.27,1.27,0,0,0,.47-.48,1.63,1.63,0,0,0,0-1.41,1.25,1.25,0,0,0-.47-.47,1.23,1.23,0,0,0-.66-.17,1.25,1.25,0,0,0-.66.17,1.22,1.22,0,0,0-.46.47,1.55,1.55,0,0,0,0,1.41,1.25,1.25,0,0,0,.46.48,1.34,1.34,0,0,0,.66.16A1.32,1.32,0,0,0,205.29,193.72Z"/><path class="cls-22" d="M209.58,191.12a1.3,1.3,0,0,1,.36,1v2.15h-.44v-.54a1.07,1.07,0,0,1-.47.42,1.61,1.61,0,0,1-.73.15,1.4,1.4,0,0,1-.92-.28.91.91,0,0,1-.34-.73.9.9,0,0,1,.32-.71,1.56,1.56,0,0,1,1-.27h1.1v-.21a.91.91,0,0,0-.25-.68,1,1,0,0,0-.73-.23,1.85,1.85,0,0,0-1.16.4l-.21-.34a1.88,1.88,0,0,1,.64-.35,2.43,2.43,0,0,1,.77-.12A1.45,1.45,0,0,1,209.58,191.12Zm-.53,2.63a1.16,1.16,0,0,0,.43-.52v-.57h-1.09c-.59,0-.89.21-.89.62a.59.59,0,0,0,.23.48,1.12,1.12,0,0,0,.65.17A1.2,1.2,0,0,0,209.05,193.75Z"/><path class="cls-22" d="M212.14,191a1.61,1.61,0,0,1,.8-.18v.45h-.11a1.1,1.1,0,0,0-.85.33,1.33,1.33,0,0,0-.31.94v1.77h-.47v-3.46h.45v.67A1.12,1.12,0,0,1,212.14,191Z"/><path class="cls-22" d="M215.94,191.12a1.3,1.3,0,0,1,.36,1v2.15h-.44v-.54a1.07,1.07,0,0,1-.47.42,1.59,1.59,0,0,1-.72.15,1.37,1.37,0,0,1-.92-.28.94.94,0,0,1,0-1.44,1.56,1.56,0,0,1,1-.27h1.1v-.21a.91.91,0,0,0-.25-.68,1,1,0,0,0-.73-.23,1.67,1.67,0,0,0-.63.11,1.53,1.53,0,0,0-.52.29l-.21-.34a1.75,1.75,0,0,1,.63-.35,2.43,2.43,0,0,1,.77-.12A1.45,1.45,0,0,1,215.94,191.12Zm-.52,2.63a1.15,1.15,0,0,0,.42-.52v-.57h-1.09c-.59,0-.89.21-.89.62a.59.59,0,0,0,.23.48,1.12,1.12,0,0,0,.65.17A1.25,1.25,0,0,0,215.42,193.75Z"/><path class="cls-22" d="M219.38,194.06a1.07,1.07,0,0,1-.32.18,1.4,1.4,0,0,1-.41.06.91.91,0,0,1-1-1V191.2H217v-.39h.62v-.76h.47v.76h1v.39h-1v2.07a.68.68,0,0,0,.15.47.63.63,0,0,0,.45.16.92.92,0,0,0,.28-.05.65.65,0,0,0,.23-.13Z"/><path class="cls-22" d="M181.33,200.47v.39h-2.82v-.31l2.18-2.76h-2.14v-.39h2.74v.31l-2.18,2.76Z"/><path class="cls-22" d="M184.42,197.71a1.28,1.28,0,0,1,.37,1v2.15h-.45v-.54a1.1,1.1,0,0,1-.46.42,1.67,1.67,0,0,1-.73.15,1.39,1.39,0,0,1-.92-.28.88.88,0,0,1-.35-.73.9.9,0,0,1,.32-.71,1.59,1.59,0,0,1,1-.27h1.1v-.21a.89.89,0,0,0-.25-.68,1.06,1.06,0,0,0-.73-.23,1.9,1.9,0,0,0-.63.11,1.48,1.48,0,0,0-.52.3l-.21-.35a1.75,1.75,0,0,1,.63-.35,2.43,2.43,0,0,1,.77-.12A1.43,1.43,0,0,1,184.42,197.71Zm-.52,2.63a1,1,0,0,0,.42-.52v-.57h-1.09c-.59,0-.88.21-.88.62a.56.56,0,0,0,.23.48,1.06,1.06,0,0,0,.64.17A1.25,1.25,0,0,0,183.9,200.34Z"/><path class="cls-22" d="M191,197.4l-1.31,3.46h-.44L188.18,198l-1.09,2.84h-.44l-1.3-3.46h.44l1.09,2.94L188,197.4h.4l1.11,2.94,1.09-2.94Z"/><path class="cls-22" d="M191.71,196.54a.34.34,0,0,1,0-.46.33.33,0,0,1,.25-.1.36.36,0,0,1,.24.09.3.3,0,0,1,.1.23.3.3,0,0,1-.1.24.33.33,0,0,1-.24.1A.33.33,0,0,1,191.71,196.54Zm0,.86h.47v3.46h-.47Z"/><path class="cls-22" d="M196.49,199.27h-2.9a1.25,1.25,0,0,0,.42.87,1.35,1.35,0,0,0,1,.34,1.45,1.45,0,0,0,.59-.12A1.41,1.41,0,0,0,196,200l.26.31a1.55,1.55,0,0,1-.58.42,2.06,2.06,0,0,1-.76.14,1.92,1.92,0,0,1-.94-.23,1.66,1.66,0,0,1-.64-.62,1.86,1.86,0,0,1-.23-.91,1.83,1.83,0,0,1,.22-.91,1.65,1.65,0,0,1,.6-.63,1.81,1.81,0,0,1,.87-.22,1.74,1.74,0,0,1,.86.22,1.65,1.65,0,0,1,.6.63,1.91,1.91,0,0,1,.22.91ZM194,198.09a1.28,1.28,0,0,0-.39.83h2.46a1.23,1.23,0,0,0-.39-.83,1.17,1.17,0,0,0-.84-.32A1.2,1.2,0,0,0,194,198.09Z"/><path class="cls-22" d="M198.38,197.55a1.67,1.67,0,0,1,.81-.18v.46h-.11a1.12,1.12,0,0,0-.86.33,1.33,1.33,0,0,0-.31.94v1.77h-.47V197.4h.45v.68A1.1,1.1,0,0,1,198.38,197.55Z"/><path class="cls-22" d="M202.18,197.71a1.32,1.32,0,0,1,.36,1v2.15h-.45v-.54a1,1,0,0,1-.46.42,1.64,1.64,0,0,1-.73.15,1.4,1.4,0,0,1-.92-.28.87.87,0,0,1-.34-.73.9.9,0,0,1,.32-.71,1.56,1.56,0,0,1,1-.27h1.1v-.21a.93.93,0,0,0-.25-.68,1.07,1.07,0,0,0-.74-.23,2,2,0,0,0-.63.11,1.58,1.58,0,0,0-.52.3l-.21-.35a1.93,1.93,0,0,1,.63-.35,2.54,2.54,0,0,1,.78-.12A1.45,1.45,0,0,1,202.18,197.71Zm-.53,2.63a1.11,1.11,0,0,0,.43-.52v-.57H201c-.59,0-.89.21-.89.62a.59.59,0,0,0,.23.48,1.12,1.12,0,0,0,.65.17A1.2,1.2,0,0,0,201.65,200.34Z"/><path class="cls-22" d="M202.87,202.11a.9.9,0,0,1-.32-.17l.17-.35a.8.8,0,0,0,.54.18.54.54,0,0,0,.42-.17.7.7,0,0,0,.15-.49V197.4h.47v3.71a1.09,1.09,0,0,1-.26.77,1,1,0,0,1-.75.29A1.42,1.42,0,0,1,202.87,202.11Zm1-5.57a.33.33,0,0,1-.1-.24.29.29,0,0,1,.1-.23.34.34,0,0,1,.48,0,.27.27,0,0,1,.1.22.33.33,0,0,1-.1.25.37.37,0,0,1-.48,0Z"/><path class="cls-22" d="M207.84,197.71a1.28,1.28,0,0,1,.37,1v2.15h-.45v-.54a1.07,1.07,0,0,1-.47.42,1.59,1.59,0,0,1-.72.15,1.39,1.39,0,0,1-.92-.28.88.88,0,0,1-.35-.73.9.9,0,0,1,.32-.71,1.59,1.59,0,0,1,1-.27h1.1v-.21a.89.89,0,0,0-.25-.68,1.06,1.06,0,0,0-.73-.23,1.9,1.9,0,0,0-.63.11,1.48,1.48,0,0,0-.52.3l-.21-.35a1.75,1.75,0,0,1,.63-.35,2.43,2.43,0,0,1,.77-.12A1.43,1.43,0,0,1,207.84,197.71Zm-.52,2.63a1,1,0,0,0,.42-.52v-.57h-1.09c-.59,0-.88.21-.88.62a.56.56,0,0,0,.23.48,1.06,1.06,0,0,0,.64.17A1.25,1.25,0,0,0,207.32,200.34Zm-.06,1.79a.56.56,0,0,1-.2-.45c0-.41.31-.74.93-1l.22.18c-.54.23-.81.5-.81.79a.32.32,0,0,0,.12.27.5.5,0,0,0,.31.1.65.65,0,0,0,.41-.13l.1.26a1,1,0,0,1-.55.15A.75.75,0,0,1,207.26,202.13Z"/><path class="cls-22" d="M210,200.67a1.62,1.62,0,0,1-.64-.63,1.86,1.86,0,0,1-.23-.91,1.84,1.84,0,0,1,.23-.91,1.62,1.62,0,0,1,.64-.63,1.94,1.94,0,0,1,.91-.22,1.85,1.85,0,0,1,.8.17,1.38,1.38,0,0,1,.56.51l-.35.24a1,1,0,0,0-.43-.38,1.38,1.38,0,0,0-1.25,0,1.18,1.18,0,0,0-.47.47,1.49,1.49,0,0,0-.17.71,1.42,1.42,0,0,0,.17.7,1.15,1.15,0,0,0,.47.48,1.36,1.36,0,0,0,.67.17,1.41,1.41,0,0,0,.58-.13,1,1,0,0,0,.43-.38l.35.24a1.38,1.38,0,0,1-.56.51,1.88,1.88,0,0,1-.8.17A1.83,1.83,0,0,1,210,200.67Z"/><path class="cls-22" d="M216.07,197.4l-1.73,3.87a1.53,1.53,0,0,1-.49.69,1,1,0,0,1-.66.21,1.4,1.4,0,0,1-.47-.08,1,1,0,0,1-.38-.24l.22-.35a.86.86,0,0,0,.63.27.64.64,0,0,0,.41-.14,1.16,1.16,0,0,0,.31-.44l.15-.34-1.55-3.45H213l1.3,2.94,1.31-2.94Z"/><path class="cls-22" d="M168.37,207.36a1.53,1.53,0,0,1-.6-.31l.21-.36a2,2,0,0,0,.54.28,2.26,2.26,0,0,0,.69.1,1.31,1.31,0,0,0,.7-.14.48.48,0,0,0,.23-.42.38.38,0,0,0-.13-.3.92.92,0,0,0-.31-.17c-.13,0-.3-.07-.51-.1s-.51-.11-.68-.16a1.07,1.07,0,0,1-.44-.28.81.81,0,0,1-.18-.55.85.85,0,0,1,.36-.71,1.62,1.62,0,0,1,1-.28,2.57,2.57,0,0,1,.67.09,1.65,1.65,0,0,1,.55.24l-.2.37a1.71,1.71,0,0,0-1-.3,1.2,1.2,0,0,0-.67.16.51.51,0,0,0-.23.42.39.39,0,0,0,.13.31.77.77,0,0,0,.32.18l.52.11a6.11,6.11,0,0,1,.67.16.9.9,0,0,1,.42.27.74.74,0,0,1,.18.53.83.83,0,0,1-.38.72,1.84,1.84,0,0,1-1,.26A2.69,2.69,0,0,1,168.37,207.36Z"/><path class="cls-22" d="M171.45,203.13a.31.31,0,0,1,0-.46.33.33,0,0,1,.25-.1.36.36,0,0,1,.24.09.34.34,0,0,1,.1.23.33.33,0,0,1-.1.24.33.33,0,0,1-.24.1A.33.33,0,0,1,171.45,203.13Zm0,.86h.46v3.46h-.46Z"/><path class="cls-22" d="M175.46,204.3a1.28,1.28,0,0,1,.37,1v2.15h-.45v-.54a1.1,1.1,0,0,1-.46.42,1.67,1.67,0,0,1-.73.15,1.44,1.44,0,0,1-.92-.27.9.9,0,0,1-.35-.73.88.88,0,0,1,.32-.71,1.59,1.59,0,0,1,1-.27h1.1v-.21a.9.9,0,0,0-.25-.69,1.06,1.06,0,0,0-.73-.23,1.9,1.9,0,0,0-.63.11,1.48,1.48,0,0,0-.52.3l-.21-.35a1.91,1.91,0,0,1,.63-.35,2.43,2.43,0,0,1,.77-.12A1.48,1.48,0,0,1,175.46,204.3Zm-.52,2.63a1,1,0,0,0,.42-.52v-.57h-1.09c-.59,0-.88.21-.88.62a.56.56,0,0,0,.23.48,1,1,0,0,0,.64.17A1.25,1.25,0,0,0,174.94,206.93Z"/><path class="cls-22" d="M178,204.14a1.67,1.67,0,0,1,.81-.18v.46h-.12a1.09,1.09,0,0,0-.85.34,1.3,1.3,0,0,0-.31.94v1.76h-.47V204h.45v.68A1.1,1.1,0,0,1,178,204.14Z"/><path class="cls-22" d="M180.23,207.26a1.59,1.59,0,0,1-.63-.63,1.92,1.92,0,0,1,0-1.82,1.57,1.57,0,0,1,.63-.62,1.87,1.87,0,0,1,.92-.23,1.74,1.74,0,0,1,.8.18,1.23,1.23,0,0,1,.55.51l-.35.23a1,1,0,0,0-.43-.38,1.25,1.25,0,0,0-.57-.13,1.4,1.4,0,0,0-.68.17,1.12,1.12,0,0,0-.46.48,1.35,1.35,0,0,0-.17.7,1.38,1.38,0,0,0,.17.71,1.16,1.16,0,0,0,.46.47,1.4,1.4,0,0,0,.68.17,1.25,1.25,0,0,0,.57-.13,1,1,0,0,0,.43-.38l.35.24a1.32,1.32,0,0,1-.56.51,1.83,1.83,0,0,1-.79.17A1.87,1.87,0,0,1,180.23,207.26Z"/><path class="cls-22" d="M185.85,207.06v.39H183v-.31l2.18-2.76h-2.14V204h2.74v.31l-2.18,2.76Z"/><path class="cls-22" d="M188.94,204.3a1.32,1.32,0,0,1,.36,1v2.15h-.45v-.54a1,1,0,0,1-.46.42,1.67,1.67,0,0,1-.73.15,1.46,1.46,0,0,1-.92-.27.9.9,0,0,1-.34-.73.86.86,0,0,1,.32-.71,1.54,1.54,0,0,1,1-.27h1.1v-.21a.9.9,0,0,0-.25-.69,1,1,0,0,0-.73-.23,1.9,1.9,0,0,0-.63.11,1.58,1.58,0,0,0-.52.3l-.21-.35a2.14,2.14,0,0,1,.63-.35,2.54,2.54,0,0,1,.78-.12A1.49,1.49,0,0,1,188.94,204.3Zm-.53,2.63a1,1,0,0,0,.42-.52v-.57h-1.08c-.6,0-.89.21-.89.62a.59.59,0,0,0,.23.48,1,1,0,0,0,.64.17A1.23,1.23,0,0,0,188.41,206.93Z"/><path class="cls-22" d="M193.36,204.34a1.5,1.5,0,0,1,.38,1.1v2h-.47v-2a1.14,1.14,0,0,0-.27-.82,1,1,0,0,0-.77-.29,1.15,1.15,0,0,0-.88.34,1.22,1.22,0,0,0-.33.91v1.82h-.46V204H191v.64a1.32,1.32,0,0,1,.53-.49,1.67,1.67,0,0,1,.79-.18A1.45,1.45,0,0,1,193.36,204.34Z"/><path class="cls-22" d="M199.15,207.06v.39h-2.81v-.31l2.18-2.76h-2.14V204h2.73v.31l-2.17,2.76Zm-1.63-3.85a.33.33,0,0,1-.09-.23.29.29,0,0,1,.09-.22.32.32,0,0,1,.23-.09.31.31,0,0,1,.22.09.29.29,0,0,1,.09.22.33.33,0,0,1-.09.23.31.31,0,0,1-.22.09A.32.32,0,0,1,197.52,203.21Z"/><path class="cls-22" d="M203,205.86h-2.9a1.28,1.28,0,0,0,.41.88,1.39,1.39,0,0,0,.95.33,1.41,1.41,0,0,0,.59-.12,1.21,1.21,0,0,0,.47-.34l.26.31a1.51,1.51,0,0,1-.57.42,2.06,2.06,0,0,1-.76.14,2,2,0,0,1-1-.22,1.7,1.7,0,0,1-.87-1.54,1.94,1.94,0,0,1,.22-.91,1.58,1.58,0,0,1,.61-.62,1.68,1.68,0,0,1,.86-.23,1.71,1.71,0,0,1,.87.23,1.53,1.53,0,0,1,.59.62,1.8,1.8,0,0,1,.22.91Zm-2.51-1.18a1.25,1.25,0,0,0-.39.84h2.45a1.24,1.24,0,0,0-.38-.84,1.21,1.21,0,0,0-.85-.32A1.16,1.16,0,0,0,200.53,204.68Z"/><path class="cls-22" d="M204,202.57h.47v4.88H204Z"/><path class="cls-22" d="M208,204.3a1.32,1.32,0,0,1,.36,1v2.15h-.44v-.54a1.07,1.07,0,0,1-.47.42,1.59,1.59,0,0,1-.72.15,1.47,1.47,0,0,1-.93-.27.93.93,0,0,1-.34-.73.88.88,0,0,1,.32-.71,1.56,1.56,0,0,1,1-.27h1.1v-.21a.94.94,0,0,0-.25-.69,1.06,1.06,0,0,0-.73-.23,1.9,1.9,0,0,0-.63.11,1.4,1.4,0,0,0-.52.3l-.22-.35a2.07,2.07,0,0,1,.64-.35A2.43,2.43,0,0,1,207,204,1.49,1.49,0,0,1,208,204.3Zm-.52,2.63a1.16,1.16,0,0,0,.42-.52v-.57h-1.09c-.59,0-.89.21-.89.62a.59.59,0,0,0,.23.48,1,1,0,0,0,.65.17A1.25,1.25,0,0,0,207.48,206.93Z"/><path class="cls-22" d="M212,207.06v.39h-2.81v-.31l2.17-2.76h-2.13V204H212v.31l-2.17,2.76Z"/><path class="cls-22" d="M215.09,204.3a1.32,1.32,0,0,1,.37,1v2.15H215v-.54a1.07,1.07,0,0,1-.47.42,1.59,1.59,0,0,1-.72.15,1.42,1.42,0,0,1-.92-.27.9.9,0,0,1-.35-.73.88.88,0,0,1,.32-.71,1.58,1.58,0,0,1,1-.27H215v-.21a.9.9,0,0,0-.25-.69,1.06,1.06,0,0,0-.73-.23,1.9,1.9,0,0,0-.63.11,1.4,1.4,0,0,0-.52.3l-.21-.35a1.91,1.91,0,0,1,.63-.35,2.43,2.43,0,0,1,.77-.12A1.48,1.48,0,0,1,215.09,204.3Zm-.52,2.63a1,1,0,0,0,.42-.52v-.57H213.9c-.59,0-.89.21-.89.62a.57.57,0,0,0,.24.48,1,1,0,0,0,.64.17A1.25,1.25,0,0,0,214.57,206.93Z"/><path class="cls-22" d="M218.66,207.33a6.91,6.91,0,0,1-.2-1.68,7.14,7.14,0,0,1,.2-1.7,4.8,4.8,0,0,1,.56-1.38h.45a5.09,5.09,0,0,0-.57,1.43,7.07,7.07,0,0,0-.18,1.65,7.19,7.19,0,0,0,.18,1.65,5.22,5.22,0,0,0,.57,1.43h-.45A5.19,5.19,0,0,1,218.66,207.33Z"/><path class="cls-22" d="M220.69,202.84h.48v4.61h-.48Z"/><path class="cls-22" d="M222.67,202.84h.48v4.61h-.48Z"/><path class="cls-22" d="M224.16,208.73a5.22,5.22,0,0,0,.57-1.43,7.3,7.3,0,0,0,0-3.31,5.15,5.15,0,0,0-.57-1.42h.45a5.11,5.11,0,0,1,.57,1.38,7.14,7.14,0,0,1,.2,1.7,7.05,7.05,0,0,1-.2,1.69,4.83,4.83,0,0,1-.57,1.39Z"/><path class="cls-22" d="M189.13,213.94a6.34,6.34,0,0,1,0-3,4.22,4.22,0,0,1,.5-1.22h.4a4.63,4.63,0,0,0-.51,1.26,6.73,6.73,0,0,0-.16,1.46,6.66,6.66,0,0,0,.16,1.46,4.83,4.83,0,0,0,.51,1.27h-.4A4.53,4.53,0,0,1,189.13,213.94Z"/><path class="cls-22" d="M193.31,211.29a1.27,1.27,0,0,1,.34,1V214h-.41V212.3a1,1,0,0,0-.24-.73.93.93,0,0,0-.68-.25,1,1,0,0,0-.78.3,1.06,1.06,0,0,0-.29.81V214h-.42V211h.4v.57a1.09,1.09,0,0,1,.47-.43,1.41,1.41,0,0,1,.69-.16A1.23,1.23,0,0,1,193.31,211.29Z"/><path class="cls-22" d="M194.6,211.16h2.53v.34H194.6Zm0,1.34h2.53v.34H194.6Z"/><path class="cls-22" d="M200.62,213.66V214h-2.86v-.3l1.69-1.66a2.17,2.17,0,0,0,.43-.54,1,1,0,0,0,.12-.47.68.68,0,0,0-.25-.56,1.11,1.11,0,0,0-.71-.2,1.42,1.42,0,0,0-1.11.45l-.3-.25a1.57,1.57,0,0,1,.61-.43,2.24,2.24,0,0,1,.84-.15,1.6,1.6,0,0,1,1,.29,1,1,0,0,1,.36.81,1.39,1.39,0,0,1-.14.6,2.36,2.36,0,0,1-.53.67l-1.39,1.36Z"/><path class="cls-22" d="M201.92,213.82a1.56,1.56,0,0,1-.58-.72,3,3,0,0,1,0-2.2,1.56,1.56,0,0,1,.58-.72,1.41,1.41,0,0,1,.84-.25,1.46,1.46,0,0,1,.84.25,1.56,1.56,0,0,1,.58.72,3,3,0,0,1,0,2.2,1.56,1.56,0,0,1-.58.72,1.46,1.46,0,0,1-.84.25A1.41,1.41,0,0,1,201.92,213.82Zm1.46-.33a1.25,1.25,0,0,0,.43-.58A2.44,2.44,0,0,0,204,212a2.53,2.53,0,0,0-.15-.92,1.27,1.27,0,0,0-.43-.57,1,1,0,0,0-.62-.2,1.05,1.05,0,0,0-.63.2,1.25,1.25,0,0,0-.42.57,2.53,2.53,0,0,0-.15.92,2.44,2.44,0,0,0,.15.91,1.23,1.23,0,0,0,.42.58,1.05,1.05,0,0,0,.63.2A1,1,0,0,0,203.38,213.49Z"/><path class="cls-22" d="M204.91,215.17a4.9,4.9,0,0,0,.51-1.26,6.19,6.19,0,0,0,.16-1.47,6.11,6.11,0,0,0-.16-1.46,4.63,4.63,0,0,0-.51-1.26h.4a4.22,4.22,0,0,1,.5,1.22,6.34,6.34,0,0,1,0,3,4.23,4.23,0,0,1-.5,1.23Z"/><path class="cls-22" d="M92.09,215.6a1.8,1.8,0,0,1-.72-.44l.19-.37a1.72,1.72,0,0,0,.66.4,2.3,2.3,0,0,0,.86.16,1.54,1.54,0,0,0,.92-.23.69.69,0,0,0,.31-.59.6.6,0,0,0-.16-.44,1.22,1.22,0,0,0-.41-.25,6.8,6.8,0,0,0-.68-.2,5.71,5.71,0,0,1-.83-.25,1.31,1.31,0,0,1-.53-.37,1,1,0,0,1-.22-.68,1.16,1.16,0,0,1,.18-.63,1.27,1.27,0,0,1,.57-.46,2.21,2.21,0,0,1,1-.17,2.52,2.52,0,0,1,.77.11,2.05,2.05,0,0,1,.65.3l-.16.38a2.31,2.31,0,0,0-.62-.28,2.08,2.08,0,0,0-.64-.1,1.49,1.49,0,0,0-.92.24.71.71,0,0,0-.3.6.57.57,0,0,0,.17.44,1.11,1.11,0,0,0,.42.26c.17.06.39.12.68.19a8.54,8.54,0,0,1,.82.25,1.31,1.31,0,0,1,.53.37,1,1,0,0,1,.21.67,1.16,1.16,0,0,1-.18.63,1.28,1.28,0,0,1-.58.45,2.27,2.27,0,0,1-1,.17A3,3,0,0,1,92.09,215.6Z"/><path class="cls-22" d="M95.73,211.41a.36.36,0,0,1-.09-.24.32.32,0,0,1,.34-.33.31.31,0,0,1,.24.1.28.28,0,0,1,.1.22.33.33,0,0,1-.1.25.35.35,0,0,1-.24.1A.37.37,0,0,1,95.73,211.41Zm0,.85h.47v3.46h-.47Z"/><path class="cls-22" d="M99.75,212.58a1.26,1.26,0,0,1,.37,1v2.14h-.45v-.54a1.1,1.1,0,0,1-.46.42,1.54,1.54,0,0,1-.73.16,1.44,1.44,0,0,1-.92-.28,1,1,0,0,1,0-1.44,1.59,1.59,0,0,1,1-.27h1.1v-.21a.86.86,0,0,0-.25-.68,1,1,0,0,0-.73-.24,1.9,1.9,0,0,0-.63.11,1.65,1.65,0,0,0-.52.3l-.21-.35a1.73,1.73,0,0,1,.63-.34,2.45,2.45,0,0,1,.78-.12A1.42,1.42,0,0,1,99.75,212.58Zm-.52,2.63a1.07,1.07,0,0,0,.42-.53v-.56H98.56c-.59,0-.88.2-.88.62a.53.53,0,0,0,.23.47,1,1,0,0,0,.64.18A1.25,1.25,0,0,0,99.23,215.21Z"/><path class="cls-22" d="M102.31,212.41a1.67,1.67,0,0,1,.81-.17v.45H103a1.09,1.09,0,0,0-.85.34,1.32,1.32,0,0,0-.31.94v1.76h-.47v-3.46h.45v.68A1.15,1.15,0,0,1,102.31,212.41Z"/><path class="cls-22" d="M104.51,215.53a1.59,1.59,0,0,1-.63-.63,1.84,1.84,0,0,1-.23-.91,1.86,1.86,0,0,1,.23-.91,1.63,1.63,0,0,1,.63-.62,1.87,1.87,0,0,1,.92-.22,1.71,1.71,0,0,1,.8.17,1.38,1.38,0,0,1,.56.51l-.35.24a1.17,1.17,0,0,0-.44-.39,1.33,1.33,0,0,0-.57-.13,1.36,1.36,0,0,0-.67.17,1.15,1.15,0,0,0-.47.48,1.48,1.48,0,0,0-.17.7,1.46,1.46,0,0,0,.17.71,1.18,1.18,0,0,0,.47.47,1.26,1.26,0,0,0,.67.17,1.32,1.32,0,0,0,.57-.12,1.1,1.1,0,0,0,.44-.39l.35.24a1.45,1.45,0,0,1-.56.51,1.74,1.74,0,0,1-.8.18A1.87,1.87,0,0,1,104.51,215.53Z"/><path class="cls-22" d="M110.14,215.33v.39h-2.82v-.31l2.18-2.75h-2.14v-.4h2.74v.31l-2.18,2.76Z"/><path class="cls-22" d="M113.23,212.58a1.29,1.29,0,0,1,.36,1v2.14h-.45v-.54a1,1,0,0,1-.46.42,1.54,1.54,0,0,1-.73.16,1.44,1.44,0,0,1-.92-.28.9.9,0,0,1-.34-.73A.87.87,0,0,1,111,214a1.54,1.54,0,0,1,1-.27h1.1v-.21a.86.86,0,0,0-.25-.68,1,1,0,0,0-.73-.24,1.9,1.9,0,0,0-.63.11,1.77,1.77,0,0,0-.52.3l-.21-.35a1.91,1.91,0,0,1,.63-.34,2.54,2.54,0,0,1,.78-.12A1.45,1.45,0,0,1,113.23,212.58Zm-.53,2.63a1.07,1.07,0,0,0,.42-.53v-.56H112c-.6,0-.89.2-.89.62a.56.56,0,0,0,.23.47,1,1,0,0,0,.64.18A1.23,1.23,0,0,0,112.7,215.21Z"/><path class="cls-22" d="M117.65,212.61a1.52,1.52,0,0,1,.38,1.11v2h-.47v-2a1.14,1.14,0,0,0-.27-.82,1,1,0,0,0-.77-.28,1.18,1.18,0,0,0-.88.33,1.25,1.25,0,0,0-.33.92v1.81h-.46v-3.46h.44v.64a1.39,1.39,0,0,1,.53-.49,1.67,1.67,0,0,1,.79-.17A1.44,1.44,0,0,1,117.65,212.61Z"/><path class="cls-22" d="M123.45,215.33v.39h-2.82v-.31l2.18-2.75h-2.14v-.4h2.74v.31l-2.18,2.76Zm-1.63-3.85a.31.31,0,0,1-.09-.22.32.32,0,0,1,.09-.23.29.29,0,0,1,.22-.09.33.33,0,0,1,.23.09.32.32,0,0,1,.09.23.31.31,0,0,1-.09.22.33.33,0,0,1-.23.09A.29.29,0,0,1,121.82,211.48Z"/><path class="cls-22" d="M127.33,214.14h-2.89a1.2,1.2,0,0,0,.41.87,1.39,1.39,0,0,0,1,.33,1.63,1.63,0,0,0,.59-.11,1.32,1.32,0,0,0,.47-.34l.26.3a1.51,1.51,0,0,1-.57.42,1.91,1.91,0,0,1-.76.15,2,2,0,0,1-1-.23,1.62,1.62,0,0,1-.64-.63A1.84,1.84,0,0,1,124,214a1.86,1.86,0,0,1,.22-.91,1.73,1.73,0,0,1,2.33-.62,1.56,1.56,0,0,1,.6.62,1.83,1.83,0,0,1,.22.91ZM124.82,213a1.27,1.27,0,0,0-.38.83h2.45a1.27,1.27,0,0,0-.38-.83,1.28,1.28,0,0,0-1.69,0Z"/><path class="cls-22" d="M128.29,210.84h.46v4.88h-.46Z"/><path class="cls-22" d="M132.3,212.58a1.29,1.29,0,0,1,.36,1v2.14h-.45v-.54a1,1,0,0,1-.46.42,1.51,1.51,0,0,1-.73.16,1.46,1.46,0,0,1-.92-.28,1,1,0,0,1,0-1.44,1.54,1.54,0,0,1,1-.27h1.1v-.21a.86.86,0,0,0-.25-.68,1,1,0,0,0-.73-.24,1.9,1.9,0,0,0-.63.11,1.77,1.77,0,0,0-.52.3l-.21-.35a1.91,1.91,0,0,1,.63-.34,2.54,2.54,0,0,1,.78-.12A1.45,1.45,0,0,1,132.3,212.58Zm-.53,2.63a1.07,1.07,0,0,0,.42-.53v-.56h-1.08c-.59,0-.89.2-.89.62a.56.56,0,0,0,.23.47,1,1,0,0,0,.64.18A1.23,1.23,0,0,0,131.77,215.21Z"/><path class="cls-22" d="M136.3,215.33v.39h-2.82v-.31l2.18-2.75h-2.14v-.4h2.74v.31l-2.18,2.76Z"/><path class="cls-22" d="M139.39,212.58a1.29,1.29,0,0,1,.36,1v2.14h-.44v-.54a1.13,1.13,0,0,1-.47.42,1.49,1.49,0,0,1-.73.16,1.46,1.46,0,0,1-.92-.28,1,1,0,0,1,0-1.44,1.56,1.56,0,0,1,1-.27h1.1v-.21a.9.9,0,0,0-.25-.68,1,1,0,0,0-.73-.24,2,2,0,0,0-.64.11,1.77,1.77,0,0,0-.52.3l-.21-.35a1.91,1.91,0,0,1,.63-.34,2.54,2.54,0,0,1,.78-.12A1.45,1.45,0,0,1,139.39,212.58Zm-.53,2.63a1.14,1.14,0,0,0,.43-.53v-.56H138.2c-.59,0-.89.2-.89.62a.56.56,0,0,0,.23.47,1,1,0,0,0,.65.18A1.2,1.2,0,0,0,138.86,215.21Z"/><path class="cls-22" d="M143,215.61a7.24,7.24,0,0,1,0-3.38,5,5,0,0,1,.56-1.39H144a5.09,5.09,0,0,0-.57,1.43,7.65,7.65,0,0,0,0,3.3A5.09,5.09,0,0,0,144,217h-.45A5.12,5.12,0,0,1,143,215.61Z"/><path class="cls-22" d="M145,211.12h.49v4.6H145Z"/><path class="cls-22" d="M147,211.12h.49v4.6H147Z"/><path class="cls-22" d="M148.46,217a5.41,5.41,0,0,0,.57-1.43,7.65,7.65,0,0,0,0-3.3,5.41,5.41,0,0,0-.57-1.43h.44a4.72,4.72,0,0,1,.57,1.39,6.53,6.53,0,0,1,.2,1.69,7.06,7.06,0,0,1-.19,1.69,5,5,0,0,1-.58,1.39Z"/><path class="cls-22" d="M113.09,222.21a5.91,5.91,0,0,1-.17-1.49,6,6,0,0,1,.17-1.5,4.28,4.28,0,0,1,.5-1.23h.4a4.83,4.83,0,0,0-.51,1.27,6.66,6.66,0,0,0-.16,1.46,6.73,6.73,0,0,0,.16,1.46,4.63,4.63,0,0,0,.51,1.26h-.4A4.28,4.28,0,0,1,113.09,222.21Z"/><path class="cls-22" d="M117.27,219.56a1.31,1.31,0,0,1,.34,1v1.77h-.41v-1.73a1,1,0,0,0-.24-.73.88.88,0,0,0-.68-.25,1.06,1.06,0,0,0-.78.29,1.14,1.14,0,0,0-.29.82v1.6h-.41v-3.06h.39v.57a1.17,1.17,0,0,1,.47-.44,1.54,1.54,0,0,1,.7-.15A1.24,1.24,0,0,1,117.27,219.56Z"/><path class="cls-22" d="M118.56,219.43h2.53v.35h-2.53Zm0,1.35h2.53v.34h-2.53Z"/><path class="cls-22" d="M124.58,221.94v.37h-2.86V222l1.69-1.66a2.09,2.09,0,0,0,.44-.55,1.11,1.11,0,0,0,.11-.46.66.66,0,0,0-.25-.56,1.06,1.06,0,0,0-.71-.2,1.42,1.42,0,0,0-1.11.45l-.29-.25a1.59,1.59,0,0,1,.6-.44,2.24,2.24,0,0,1,.84-.15,1.54,1.54,0,0,1,1,.3,1,1,0,0,1,.36.8,1.47,1.47,0,0,1-.14.61,2.5,2.5,0,0,1-.53.67l-1.39,1.36Z"/><path class="cls-22" d="M128,218.24v.3l-1.7,3.77h-.46l1.68-3.7h-2.1v.76H125v-1.13Z"/><path class="cls-22" d="M128.45,223.44a4.31,4.31,0,0,0,.5-1.26,6.09,6.09,0,0,0,.17-1.46,6.18,6.18,0,0,0-.17-1.47,4.54,4.54,0,0,0-.5-1.26h.39a4.29,4.29,0,0,1,.51,1.23,6,6,0,0,1,.18,1.5,5.91,5.91,0,0,1-.18,1.49,4,4,0,0,1-.51,1.23Z"/><path class="cls-22" d="M2.37,177.8H4.24a2.79,2.79,0,0,1,1.29.29,2.22,2.22,0,0,1,.87.82,2.46,2.46,0,0,1,0,2.39,2.13,2.13,0,0,1-.87.81,2.67,2.67,0,0,1-1.29.3H2.37ZM4.22,182a2.2,2.2,0,0,0,1-.24,1.74,1.74,0,0,0,.71-.66,1.86,1.86,0,0,0,.25-1,1.82,1.82,0,0,0-.25-1,1.7,1.7,0,0,0-.71-.67,2.2,2.2,0,0,0-1-.24H2.85V182Z"/><path class="cls-22" d="M9.94,179.26a1.3,1.3,0,0,1,.36,1v2.15H9.85v-.54a1,1,0,0,1-.46.42,1.64,1.64,0,0,1-.73.15,1.4,1.4,0,0,1-.92-.28.88.88,0,0,1-.34-.73.9.9,0,0,1,.32-.71,1.56,1.56,0,0,1,1-.27H9.83v-.21a.88.88,0,0,0-.25-.68,1,1,0,0,0-.73-.23,1.67,1.67,0,0,0-.63.11,1.75,1.75,0,0,0-.52.29l-.21-.34a1.93,1.93,0,0,1,.63-.35,2.54,2.54,0,0,1,.78-.12A1.45,1.45,0,0,1,9.94,179.26Zm-.53,2.63a1.09,1.09,0,0,0,.42-.52v-.57H8.75c-.59,0-.89.21-.89.62a.59.59,0,0,0,.23.48,1.09,1.09,0,0,0,.65.17A1.22,1.22,0,0,0,9.41,181.89Z"/><path class="cls-22" d="M16.53,179l-1.31,3.46h-.44l-1.09-2.84-1.09,2.84h-.44L10.85,179h.45l1.09,2.94L13.5,179h.4l1.1,2.94L16.1,179Z"/><path class="cls-22" d="M18.51,180.67l-.81.75v1h-.47v-4.89h.47v3.31L19.76,179h.58l-1.48,1.41,1.62,2h-.57Z"/><path class="cls-22" d="M23.25,179.26a1.3,1.3,0,0,1,.36,1v2.15h-.45v-.54a1,1,0,0,1-.46.42,1.67,1.67,0,0,1-.73.15,1.4,1.4,0,0,1-.92-.28.88.88,0,0,1-.34-.73.87.87,0,0,1,.32-.71,1.54,1.54,0,0,1,1-.27h1.1v-.21a.88.88,0,0,0-.25-.68,1,1,0,0,0-.73-.23,1.67,1.67,0,0,0-.63.11,1.75,1.75,0,0,0-.52.29l-.21-.34a1.93,1.93,0,0,1,.63-.35,2.54,2.54,0,0,1,.78-.12A1.45,1.45,0,0,1,23.25,179.26Zm-.53,2.63a1.09,1.09,0,0,0,.42-.52v-.57H22.06c-.6,0-.89.21-.89.62a.59.59,0,0,0,.23.48,1.08,1.08,0,0,0,.64.17A1.23,1.23,0,0,0,22.72,181.89Z"/><path class="cls-22" d="M29,182v.39H26.21v-.31l2.18-2.76H26.25V179H29v.3L26.81,182Zm-1.63-3.86a.29.29,0,0,1-.09-.22.33.33,0,0,1,.09-.23.29.29,0,0,1,.22-.09.31.31,0,0,1,.32.32.29.29,0,0,1-.09.22.33.33,0,0,1-.23.09A.29.29,0,0,1,27.4,178.16Z"/><path class="cls-22" d="M32.92,180.82H30a1.25,1.25,0,0,0,.42.87,1.37,1.37,0,0,0,.95.33,1.44,1.44,0,0,0,.59-.11,1.28,1.28,0,0,0,.46-.34l.27.3a1.42,1.42,0,0,1-.58.42,1.87,1.87,0,0,1-.76.15,1.92,1.92,0,0,1-.94-.23,1.55,1.55,0,0,1-.64-.63,1.7,1.7,0,0,1-.23-.9,1.83,1.83,0,0,1,.22-.91,1.58,1.58,0,0,1,.6-.63,1.71,1.71,0,0,1,.87-.22,1.67,1.67,0,0,1,.86.22,1.7,1.7,0,0,1,.6.62,2,2,0,0,1,.21.92Zm-2.51-1.18a1.23,1.23,0,0,0-.39.83h2.46a1.23,1.23,0,0,0-.39-.83,1.19,1.19,0,0,0-.84-.32A1.17,1.17,0,0,0,30.41,179.64Z"/><path class="cls-22" d="M33.87,177.52h.47v4.89h-.47Z"/><path class="cls-22" d="M37.89,179.26a1.3,1.3,0,0,1,.36,1v2.15H37.8v-.54a1.1,1.1,0,0,1-.46.42,1.67,1.67,0,0,1-.73.15,1.39,1.39,0,0,1-.92-.28,1,1,0,0,1,0-1.44,1.59,1.59,0,0,1,1-.27h1.1v-.21a.88.88,0,0,0-.25-.68,1,1,0,0,0-.73-.23,1.67,1.67,0,0,0-.63.11,1.63,1.63,0,0,0-.52.29l-.21-.34a1.75,1.75,0,0,1,.63-.35,2.45,2.45,0,0,1,.78-.12A1.47,1.47,0,0,1,37.89,179.26Zm-.53,2.63a1.09,1.09,0,0,0,.42-.52v-.57H36.69c-.59,0-.88.21-.88.62a.56.56,0,0,0,.23.48,1.06,1.06,0,0,0,.64.17A1.25,1.25,0,0,0,37.36,181.89Z"/><path class="cls-22" d="M41.88,182v.39H39.06v-.31l2.18-2.76H39.1V179h2.74v.3L39.66,182Z"/><path class="cls-22" d="M45,179.26a1.3,1.3,0,0,1,.36,1v2.15h-.45v-.54a1,1,0,0,1-.46.42,1.64,1.64,0,0,1-.73.15,1.4,1.4,0,0,1-.92-.28.88.88,0,0,1-.34-.73.9.9,0,0,1,.32-.71,1.56,1.56,0,0,1,1-.27h1.09v-.21a.88.88,0,0,0-.25-.68,1,1,0,0,0-.73-.23,1.71,1.71,0,0,0-.63.11,1.75,1.75,0,0,0-.52.29l-.21-.34a1.93,1.93,0,0,1,.63-.35,2.54,2.54,0,0,1,.78-.12A1.45,1.45,0,0,1,45,179.26Zm-.53,2.63a1.09,1.09,0,0,0,.42-.52v-.57H43.78c-.59,0-.89.21-.89.62a.59.59,0,0,0,.23.48,1.09,1.09,0,0,0,.65.17A1.2,1.2,0,0,0,44.44,181.89Z"/><path class="cls-22" d="M7,188.88a6.93,6.93,0,0,1-.2-1.69A7.05,7.05,0,0,1,7,185.5a4.54,4.54,0,0,1,.57-1.38H8a5.15,5.15,0,0,0-.57,1.42,7.7,7.7,0,0,0,0,3.31A5.15,5.15,0,0,0,8,190.27H7.54A4.72,4.72,0,0,1,7,188.88Z"/><path class="cls-22" d="M14.24,185.89a1.48,1.48,0,0,1,.37,1.1v2h-.47v-2a1.17,1.17,0,0,0-.26-.83,1,1,0,0,0-.73-.28,1.11,1.11,0,0,0-.85.33,1.3,1.3,0,0,0-.31.92V189h-.47v-2a1.17,1.17,0,0,0-.26-.83,1,1,0,0,0-.74-.28,1.11,1.11,0,0,0-.84.33,1.3,1.3,0,0,0-.31.92V189H8.9v-3.46h.45v.63a1.27,1.27,0,0,1,.51-.49,1.67,1.67,0,0,1,.76-.17,1.49,1.49,0,0,1,.75.18,1.23,1.23,0,0,1,.48.55,1.23,1.23,0,0,1,.55-.53,1.69,1.69,0,0,1,.82-.2A1.38,1.38,0,0,1,14.24,185.89Z"/><path class="cls-22" d="M19.08,185.54v3a1.78,1.78,0,0,1-.43,1.3,1.76,1.76,0,0,1-1.3.43,3,3,0,0,1-.91-.14,1.89,1.89,0,0,1-.7-.4l.23-.35a1.91,1.91,0,0,0,.61.35,2.36,2.36,0,0,0,.75.12,1.36,1.36,0,0,0,1-.3,1.28,1.28,0,0,0,.31-1v-.45a1.32,1.32,0,0,1-.57.5,1.66,1.66,0,0,1-.78.18,1.85,1.85,0,0,1-.88-.22,1.52,1.52,0,0,1-.63-.6,1.66,1.66,0,0,1-.23-.87,1.71,1.71,0,0,1,.23-.87,1.6,1.6,0,0,1,.62-.59,1.89,1.89,0,0,1,.89-.21,1.74,1.74,0,0,1,.8.18,1.47,1.47,0,0,1,.57.51v-.66ZM18,188.29a1.27,1.27,0,0,0,.47-.45,1.42,1.42,0,0,0,0-1.31,1.27,1.27,0,0,0-.47-.45,1.52,1.52,0,0,0-1.36,0,1.09,1.09,0,0,0-.46.44,1.25,1.25,0,0,0-.17.66,1.2,1.2,0,0,0,.17.66,1.17,1.17,0,0,0,.46.45,1.39,1.39,0,0,0,.68.16A1.42,1.42,0,0,0,18,188.29Z"/><path class="cls-22" d="M21.73,183.46h.43L20,189.66h-.42Z"/><path class="cls-22" d="M25.73,184.12V189h-.45v-.69a1.39,1.39,0,0,1-.56.54A1.65,1.65,0,0,1,24,189a1.78,1.78,0,0,1-.89-.22,1.54,1.54,0,0,1-.61-.63,1.94,1.94,0,0,1,0-1.83,1.52,1.52,0,0,1,.61-.62,1.78,1.78,0,0,1,.89-.22,1.73,1.73,0,0,1,.76.17,1.49,1.49,0,0,1,.55.51v-2.07Zm-1.09,4.33a1.18,1.18,0,0,0,.46-.48,1.55,1.55,0,0,0,0-1.41,1.25,1.25,0,0,0-1.12-.64,1.25,1.25,0,0,0-.66.17,1.22,1.22,0,0,0-.46.47,1.63,1.63,0,0,0,0,1.41,1.18,1.18,0,0,0,.46.48,1.35,1.35,0,0,0,.66.17A1.32,1.32,0,0,0,24.64,188.45Z"/><path class="cls-22" d="M29.46,188.61V189H26.65v-.31l2.18-2.76H26.69v-.39h2.74v.31l-2.18,2.76Z"/><path class="cls-22" d="M30.37,184.68a.33.33,0,0,1-.1-.23.33.33,0,0,1,.35-.33.36.36,0,0,1,.24.09.34.34,0,0,1,.1.23.33.33,0,0,1-.1.24.33.33,0,0,1-.24.1A.33.33,0,0,1,30.37,184.68Zm0,.86h.47V189h-.47Z"/><path class="cls-22" d="M35.16,187.41h-2.9a1.24,1.24,0,0,0,.41.87,1.4,1.4,0,0,0,.95.34,1.41,1.41,0,0,0,.59-.12,1.32,1.32,0,0,0,.47-.34l.26.3a1.44,1.44,0,0,1-.57.43,2.06,2.06,0,0,1-.76.14,1.9,1.9,0,0,1-.94-.23,1.64,1.64,0,0,1-.65-.63,1.8,1.8,0,0,1-.23-.9,1.94,1.94,0,0,1,.22-.91,1.61,1.61,0,0,1,.61-.63,1.67,1.67,0,0,1,.86-.22,1.71,1.71,0,0,1,.87.22,1.56,1.56,0,0,1,.59.63,1.78,1.78,0,0,1,.22.91Zm-2.51-1.18a1.23,1.23,0,0,0-.39.83h2.45a1.2,1.2,0,0,0-1.23-1.15A1.16,1.16,0,0,0,32.65,186.23Z"/><path class="cls-22" d="M38.91,185.89a1.5,1.5,0,0,1,.38,1.1v2h-.46v-2a1.17,1.17,0,0,0-.27-.83,1.05,1.05,0,0,0-.77-.28,1.19,1.19,0,0,0-.89.33,1.26,1.26,0,0,0-.32.92V189h-.47v-3.46h.45v.63a1.26,1.26,0,0,1,.53-.49,1.73,1.73,0,0,1,.78-.17A1.43,1.43,0,0,1,38.91,185.89Zm-.74-1.71h.62l-1.06.82h-.46Z"/><path class="cls-22" d="M40.17,190.27a5,5,0,0,0,.57-1.42,7.7,7.7,0,0,0,0-3.31,5,5,0,0,0-.57-1.42h.45a4.8,4.8,0,0,1,.56,1.38,6.58,6.58,0,0,1,.2,1.69,7.08,7.08,0,0,1-.19,1.7,4.77,4.77,0,0,1-.57,1.38Z"/><path class="cls-22" d="M49,7.56a6.81,6.81,0,0,1-.19-1.66A6.81,6.81,0,0,1,49,4.24a4.72,4.72,0,0,1,.56-1.35H50a5.17,5.17,0,0,0-.55,1.4,6.78,6.78,0,0,0-.18,1.61,6.93,6.93,0,0,0,.18,1.62A5.3,5.3,0,0,0,50,8.92h-.43A5,5,0,0,1,49,7.56Z"/><path class="cls-22" d="M56.1,4.62a1.46,1.46,0,0,1,.37,1.08v2H56V5.75a1.17,1.17,0,0,0-.25-.81A.94.94,0,0,0,55,4.67a1.06,1.06,0,0,0-.83.32,1.29,1.29,0,0,0-.31.9V7.67h-.45V5.75a1.18,1.18,0,0,0-.26-.81.94.94,0,0,0-.72-.27,1.06,1.06,0,0,0-.83.32,1.29,1.29,0,0,0-.31.9V7.67h-.45V4.28h.43V4.9a1.24,1.24,0,0,1,.51-.48,1.58,1.58,0,0,1,.74-.17,1.47,1.47,0,0,1,.74.18,1.12,1.12,0,0,1,.46.54,1.45,1.45,0,0,1,.54-.53,1.75,1.75,0,0,1,.8-.19A1.35,1.35,0,0,1,56.1,4.62Z"/><path class="cls-22" d="M60.85,4.28v3a1.75,1.75,0,0,1-.42,1.28A1.78,1.78,0,0,1,59.16,9a2.93,2.93,0,0,1-.9-.14,1.78,1.78,0,0,1-.68-.38l.23-.35a1.6,1.6,0,0,0,.6.34,2.24,2.24,0,0,0,.73.12,1.35,1.35,0,0,0,1-.29,1.29,1.29,0,0,0,.3-.94V6.88a1.3,1.3,0,0,1-.55.49,1.85,1.85,0,0,1-1.63,0,1.53,1.53,0,0,1-.62-.59,1.75,1.75,0,0,1,0-1.7,1.55,1.55,0,0,1,.61-.58,1.81,1.81,0,0,1,.87-.21,1.66,1.66,0,0,1,.78.18,1.35,1.35,0,0,1,.56.5V4.28ZM59.78,7a1.17,1.17,0,0,0,.46-.45,1.22,1.22,0,0,0,.17-.64,1.25,1.25,0,0,0-.17-.64,1.15,1.15,0,0,0-.46-.44,1.4,1.4,0,0,0-.66-.16,1.29,1.29,0,0,0-.66.16,1.09,1.09,0,0,0-.46.44,1.25,1.25,0,0,0-.17.64,1.22,1.22,0,0,0,.17.64,1.17,1.17,0,0,0,.46.45,1.4,1.4,0,0,0,.66.15A1.45,1.45,0,0,0,59.78,7Z"/><path class="cls-22" d="M63.46,2.24h.42L61.75,8.31h-.42Z"/><path class="cls-22" d="M67.38,2.89V7.67H67V7a1.37,1.37,0,0,1-.55.52,1.58,1.58,0,0,1-.76.18,1.71,1.71,0,0,1-.87-.22,1.53,1.53,0,0,1-.6-.61A1.77,1.77,0,0,1,64,6a1.75,1.75,0,0,1,.22-.89,1.53,1.53,0,0,1,.6-.61,1.81,1.81,0,0,1,.87-.22,1.64,1.64,0,0,1,.74.17,1.54,1.54,0,0,1,.55.5v-2ZM66.32,7.13a1.14,1.14,0,0,0,.45-.47A1.41,1.41,0,0,0,66.93,6a1.46,1.46,0,0,0-.16-.69,1.17,1.17,0,0,0-.45-.46,1.31,1.31,0,0,0-1.29,0,1.17,1.17,0,0,0-.45.46,1.47,1.47,0,0,0-.17.69,1.41,1.41,0,0,0,.17.69,1.14,1.14,0,0,0,.45.47,1.38,1.38,0,0,0,1.29,0Z"/><path class="cls-22" d="M68.28,8.92a5.33,5.33,0,0,0,.56-1.4A6.81,6.81,0,0,0,69,5.9a6.93,6.93,0,0,0-.18-1.62,5.26,5.26,0,0,0-.56-1.39h.44a4.71,4.71,0,0,1,.55,1.35,6.35,6.35,0,0,1,.2,1.66,6.81,6.81,0,0,1-.19,1.66,4.91,4.91,0,0,1-.56,1.36Z"/><polygon class="cls-23" points="34.49 136.37 40.88 134.47 34.49 132.57 34.49 131.27 40.88 129.36 34.49 127.47 34.49 126.1 42.35 128.72 42.35 130.08 36.22 131.94 42.35 133.82 42.35 135.19 34.49 137.8 34.49 136.37"/><path class="cls-23" d="M37.47,123.37a1.91,1.91,0,0,0,3.81,0,2.22,2.22,0,0,0-.72-1.76l.72-.72a3,3,0,0,1,1.11,2.54,3,3,0,0,1-6.06,0,3.15,3.15,0,0,1,1-2.47l.83.71a2.19,2.19,0,0,0-.67,1.7"/><path class="cls-23" d="M38.63,113.77h3.72v1.29H39a1.33,1.33,0,0,0-1.45,1.44,1.71,1.71,0,0,0,1.87,1.71h2.94v1.29H34v-1.29h3.52A2.26,2.26,0,0,1,36.33,116a2.09,2.09,0,0,1,2.3-2.23"/><polygon class="cls-23" points="37.25 109.18 37.62 110.44 42.34 110.44 42.34 111.73 37.99 111.73 38.36 112.99 37.43 112.99 37.06 111.73 34.02 111.73 34.02 110.44 36.69 110.44 36.32 109.18 37.25 109.18"/><path class="cls-23" d="M42.35,104.69h-.73a2.44,2.44,0,0,1,.78,2,1.89,1.89,0,0,1-1.85,2.1c-1.09,0-1.78-.82-1.79-2.25V104.7h-.18c-.76,0-1.2.48-1.2,1.42a3.19,3.19,0,0,0,.6,1.77l-.89.52a4.32,4.32,0,0,1-.76-2.57c0-1.53.79-2.39,2.1-2.41h3.92Zm-2.1,0H39.7v1.62c0,.84.22,1.23.79,1.23s.89-.44.89-1.15c0-.93-.48-1.63-1.13-1.7"/><path class="cls-23" d="M38.63,96h3.72v1.29H39a1.33,1.33,0,0,0-1.45,1.44,1.68,1.68,0,0,0,1.63,1.69h3.18v1.29h-6v-1.29h1.14a2.26,2.26,0,0,1-1.19-2.2A2.09,2.09,0,0,1,38.63,96"/><path class="cls-23" d="M34.67,92.88a.75.75,0,1,1,0,1.5.75.75,0,1,1,0-1.5m1.71.11h6v1.28h-6Z"/><path class="cls-23" d="M42.35,87.51h-.73a2.45,2.45,0,0,1,.78,2,1.88,1.88,0,0,1-1.85,2.09c-1.09,0-1.78-.82-1.79-2.25V87.52h-.18c-.76,0-1.2.48-1.2,1.43a3.18,3.18,0,0,0,.6,1.76l-.89.52a4.31,4.31,0,0,1-.76-2.56c0-1.54.79-2.4,2.1-2.41l3.92,0Zm-2.1,0H39.7v1.62c0,.84.22,1.23.79,1.23s.89-.44.89-1.16c0-.91-.48-1.62-1.13-1.69"/><path class="cls-23" d="M38.63,78.81h3.72V80.1H39a1.33,1.33,0,0,0-1.45,1.44,1.68,1.68,0,0,0,1.63,1.69h3.18v1.29h-6V83.23h1.14A2.25,2.25,0,0,1,36.33,81a2.09,2.09,0,0,1,2.3-2.22"/><path class="cls-23" d="M34.67,75.7a.76.76,0,1,1-.77.75.75.75,0,0,1,.77-.75m1.71.11h6v1.28h-6Z"/><path class="cls-23" d="M39.85,68.66v4.51a1.82,1.82,0,0,0,1.5-1.85,2.3,2.3,0,0,0-.7-1.68l.73-.69a3.26,3.26,0,0,1,1,2.47,2.87,2.87,0,0,1-3,3,2.9,2.9,0,0,1-3-3c0-2.09,1.37-3,3.52-2.79m-.94,1.12a1.53,1.53,0,0,0-1.54,1.66,1.69,1.69,0,0,0,1.54,1.75Z"/><polygon class="cls-23" points="34.49 58.61 35.68 58.62 35.68 62.56 37.95 62.56 37.95 58.99 39.13 58.99 39.13 62.56 42.35 62.56 42.35 63.88 34.49 63.88 34.49 58.61"/><path class="cls-23" d="M39.85,52.27v4.5a1.82,1.82,0,0,0,1.5-1.85,2.32,2.32,0,0,0-.7-1.68l.73-.68a3.23,3.23,0,0,1,1,2.47,2.87,2.87,0,0,1-3,3,2.9,2.9,0,0,1-3-3c0-2.1,1.37-3,3.52-2.79m-.94,1.12a1.52,1.52,0,0,0-1.54,1.66,1.69,1.69,0,0,0,1.54,1.75Z"/><path class="cls-22" d="M259,192.1l-.95,1v1.21h-.48v-4.61H258v2.78l2.71-2.78h.56l-2,2.09,2.14,2.52h-.58Z"/><path class="cls-22" d="M262.64,194.07a1.73,1.73,0,0,1-.63-.63,1.8,1.8,0,0,1-.23-.9,1.84,1.84,0,0,1,.23-.91,1.73,1.73,0,0,1,.63-.63,2,2,0,0,1,1.81,0,1.63,1.63,0,0,1,.62.63,1.74,1.74,0,0,1,.23.91,1.7,1.7,0,0,1-.23.9,1.63,1.63,0,0,1-.62.63,1.9,1.9,0,0,1-1.81,0Zm1.57-.35a1.23,1.23,0,0,0,.45-.48,1.55,1.55,0,0,0,0-1.41,1.3,1.3,0,0,0-.45-.48,1.46,1.46,0,0,0-1.33,0,1.41,1.41,0,0,0-.46.48,1.63,1.63,0,0,0,0,1.41,1.33,1.33,0,0,0,.46.48,1.46,1.46,0,0,0,1.33,0Z"/><path class="cls-22" d="M271.59,191.15a1.55,1.55,0,0,1,.37,1.11v2h-.47v-2a1.17,1.17,0,0,0-.26-.83.94.94,0,0,0-.73-.28,1.11,1.11,0,0,0-.85.33,1.28,1.28,0,0,0-.31.92v1.82h-.47v-2a1.17,1.17,0,0,0-.26-.83.94.94,0,0,0-.74-.28,1.11,1.11,0,0,0-.84.33,1.28,1.28,0,0,0-.31.92v1.82h-.47v-3.46h.45v.63a1.21,1.21,0,0,1,.51-.49,1.67,1.67,0,0,1,.76-.17,1.51,1.51,0,0,1,.75.18,1.23,1.23,0,0,1,.48.55,1.3,1.3,0,0,1,.55-.54,1.64,1.64,0,0,1,.81-.19A1.38,1.38,0,0,1,271.59,191.15Z"/><path class="cls-22" d="M275.88,191a1.61,1.61,0,0,1,.62.62,1.84,1.84,0,0,1,.22.92,1.87,1.87,0,0,1-.22.92,1.68,1.68,0,0,1-.62.62,1.72,1.72,0,0,1-.88.22,1.58,1.58,0,0,1-.76-.18,1.37,1.37,0,0,1-.56-.51v1.93h-.46v-4.73h.44v.68a1.5,1.5,0,0,1,.56-.53,1.66,1.66,0,0,1,.78-.18A1.74,1.74,0,0,1,275.88,191Zm-.26,2.72a1.21,1.21,0,0,0,.47-.48,1.63,1.63,0,0,0,0-1.41,1.28,1.28,0,0,0-1.12-.64,1.26,1.26,0,0,0-.67.17,1.3,1.3,0,0,0-.46.47,1.63,1.63,0,0,0,0,1.41,1.33,1.33,0,0,0,.46.48,1.35,1.35,0,0,0,.67.16A1.28,1.28,0,0,0,275.62,193.72Z"/><path class="cls-22" d="M277.66,189.38h.47v4.89h-.47Z"/><path class="cls-22" d="M282.44,192.68h-2.9a1.25,1.25,0,0,0,.42.87,1.37,1.37,0,0,0,1,.33,1.44,1.44,0,0,0,.59-.11,1.28,1.28,0,0,0,.46-.34l.27.3a1.36,1.36,0,0,1-.58.42,1.87,1.87,0,0,1-.76.15,1.92,1.92,0,0,1-.94-.23,1.55,1.55,0,0,1-.64-.63,1.7,1.7,0,0,1-.23-.9,1.83,1.83,0,0,1,.22-.91,1.58,1.58,0,0,1,.6-.63,1.71,1.71,0,0,1,.87-.22,1.64,1.64,0,0,1,.86.22,1.7,1.7,0,0,1,.6.62,2,2,0,0,1,.22.92Zm-2.51-1.18a1.28,1.28,0,0,0-.39.83H282a1.23,1.23,0,0,0-.39-.83,1.17,1.17,0,0,0-.84-.32A1.19,1.19,0,0,0,279.93,191.5Z"/><path class="cls-22" d="M284.68,192.53l-.82.75v1h-.47v-4.89h.47v3.31l2.07-1.88h.57L285,192.22l1.62,2.05h-.57Z"/><path class="cls-22" d="M287.4,194.18a1.87,1.87,0,0,1-.6-.31l.21-.37a1.67,1.67,0,0,0,.55.28,2.2,2.2,0,0,0,.68.11,1.28,1.28,0,0,0,.7-.15.48.48,0,0,0,.23-.41.35.35,0,0,0-.13-.3.78.78,0,0,0-.31-.17c-.13,0-.3-.07-.51-.11a4.6,4.6,0,0,1-.68-.16,1,1,0,0,1-.43-.28.77.77,0,0,1-.19-.54.86.86,0,0,1,.37-.71,1.57,1.57,0,0,1,1-.28,2.52,2.52,0,0,1,.67.09,1.82,1.82,0,0,1,.56.23l-.21.38a1.71,1.71,0,0,0-1-.3,1.14,1.14,0,0,0-.67.16.48.48,0,0,0-.23.41.41.41,0,0,0,.13.32.71.71,0,0,0,.32.17,4.38,4.38,0,0,0,.53.12,4.58,4.58,0,0,1,.66.16.93.93,0,0,1,.43.27.71.71,0,0,1,.18.52.85.85,0,0,1-.38.72,1.79,1.79,0,0,1-1.05.27A2.74,2.74,0,0,1,287.4,194.18Z"/><path class="cls-22" d="M256.13,197.4l-1.31,3.46h-.44L253.29,198l-1.09,2.84h-.44l-1.31-3.46h.45l1.09,2.94,1.11-2.94h.4l1.1,2.94,1.1-2.94Z"/><path class="cls-22" d="M257.21,200.66a1.63,1.63,0,0,1-.63-.62,1.76,1.76,0,0,1-.23-.91,1.74,1.74,0,0,1,.23-.91,1.59,1.59,0,0,1,.63-.63,2,2,0,0,1,1.8,0,1.59,1.59,0,0,1,.63.63,1.84,1.84,0,0,1,.23.91,1.86,1.86,0,0,1-.23.91,1.63,1.63,0,0,1-.63.62,1.88,1.88,0,0,1-1.8,0Zm1.56-.35a1.12,1.12,0,0,0,.46-.48,1.63,1.63,0,0,0,0-1.41,1.16,1.16,0,0,0-.46-.47,1.2,1.2,0,0,0-.66-.17,1.23,1.23,0,0,0-.66.17,1.16,1.16,0,0,0-.46.47,1.55,1.55,0,0,0,0,1.41,1.12,1.12,0,0,0,.46.48,1.32,1.32,0,0,0,.66.17A1.3,1.3,0,0,0,258.77,200.31Z"/><path class="cls-22" d="M264,196v4.88h-.44v-.69a1.52,1.52,0,0,1-.56.54,1.66,1.66,0,0,1-.78.18,1.74,1.74,0,0,1-.88-.22,1.57,1.57,0,0,1-.62-.63,1.83,1.83,0,0,1-.22-.91,1.87,1.87,0,0,1,.22-.92,1.61,1.61,0,0,1,.62-.62,1.83,1.83,0,0,1,1.64-.05,1.49,1.49,0,0,1,.55.51V196Zm-1.09,4.33a1.12,1.12,0,0,0,.46-.48,1.55,1.55,0,0,0,0-1.41,1.16,1.16,0,0,0-.46-.47,1.35,1.35,0,0,0-1.31,0,1.16,1.16,0,0,0-.46.47,1.55,1.55,0,0,0,0,1.41,1.12,1.12,0,0,0,.46.48,1.35,1.35,0,0,0,1.31,0Z"/><path class="cls-22" d="M265.78,200.66a1.63,1.63,0,0,1-.63-.62,1.86,1.86,0,0,1-.23-.91,1.84,1.84,0,0,1,.23-.91,1.59,1.59,0,0,1,.63-.63,1.93,1.93,0,0,1,.9-.22,1.87,1.87,0,0,1,.9.22,1.59,1.59,0,0,1,.63.63,1.84,1.84,0,0,1,.23.91,1.86,1.86,0,0,1-.23.91,1.63,1.63,0,0,1-.63.62,1.77,1.77,0,0,1-.9.23A1.83,1.83,0,0,1,265.78,200.66Zm1.56-.35a1.12,1.12,0,0,0,.46-.48,1.55,1.55,0,0,0,0-1.41,1.16,1.16,0,0,0-.46-.47,1.2,1.2,0,0,0-.66-.17,1.25,1.25,0,0,0-.66.17,1.22,1.22,0,0,0-.46.47,1.55,1.55,0,0,0,0,1.41,1.18,1.18,0,0,0,.46.48,1.35,1.35,0,0,0,.66.17A1.3,1.3,0,0,0,267.34,200.31Z"/><path class="cls-22" d="M270.32,197.55a1.67,1.67,0,0,1,.81-.18v.46H271a1.12,1.12,0,0,0-.86.33,1.38,1.38,0,0,0-.31.94v1.77h-.46V197.4h.44v.68A1.15,1.15,0,0,1,270.32,197.55Z"/><path class="cls-22" d="M272.52,200.66a1.78,1.78,0,0,1-.63-.62,1.86,1.86,0,0,1-.23-.91,1.84,1.84,0,0,1,.23-.91,1.73,1.73,0,0,1,.63-.63,2,2,0,0,1,1.81,0,1.73,1.73,0,0,1,.63.63,1.83,1.83,0,0,1,.22.91,1.86,1.86,0,0,1-.22.91,1.78,1.78,0,0,1-.63.62,1.9,1.9,0,0,1-1.81,0Zm1.57-.35a1.16,1.16,0,0,0,.45-.48,1.55,1.55,0,0,0,0-1.41,1.2,1.2,0,0,0-.45-.47,1.39,1.39,0,0,0-1.33,0,1.3,1.3,0,0,0-.46.47,1.63,1.63,0,0,0,0,1.41,1.25,1.25,0,0,0,.46.48,1.39,1.39,0,0,0,1.33,0Z"/><path class="cls-22" d="M278,200.65a.83.83,0,0,1-.32.18,1.4,1.4,0,0,1-.41.06.91.91,0,0,1-1-1v-2.09h-.62v-.39h.62v-.76h.47v.76h1.05v.39h-1.05v2.07a.68.68,0,0,0,.15.47.57.57,0,0,0,.44.16.87.87,0,0,0,.28-.05.7.7,0,0,0,.24-.13Z"/><path class="cls-22" d="M278.79,196h.46v4.88h-.46Z"/><path class="cls-22" d="M283.56,199.27h-2.89a1.24,1.24,0,0,0,.41.87,1.35,1.35,0,0,0,.95.34,1.41,1.41,0,0,0,.59-.12,1.32,1.32,0,0,0,.47-.34l.26.31a1.51,1.51,0,0,1-.57.42,2.1,2.1,0,0,1-.76.14,2,2,0,0,1-.95-.23,1.73,1.73,0,0,1-.64-.62,1.86,1.86,0,0,1-.23-.91,1.94,1.94,0,0,1,.22-.91,1.61,1.61,0,0,1,.61-.63,1.79,1.79,0,0,1,1.72,0,1.52,1.52,0,0,1,.6.63,1.8,1.8,0,0,1,.22.91Zm-2.51-1.18a1.27,1.27,0,0,0-.38.83h2.45a1.27,1.27,0,0,0-.38-.83,1.28,1.28,0,0,0-1.69,0Z"/><path class="cls-22" d="M287.32,197.75a1.5,1.5,0,0,1,.38,1.1v2h-.47v-2a1.13,1.13,0,0,0-.27-.82,1,1,0,0,0-.76-.29,1.19,1.19,0,0,0-.89.33,1.26,1.26,0,0,0-.33.92v1.82h-.46V197.4H285V198a1.41,1.41,0,0,1,.53-.5,1.8,1.8,0,0,1,.79-.17A1.45,1.45,0,0,1,287.32,197.75Z"/><path class="cls-22" d="M292,199.27h-2.89a1.2,1.2,0,0,0,.41.87,1.35,1.35,0,0,0,.95.34,1.45,1.45,0,0,0,.59-.12,1.32,1.32,0,0,0,.47-.34l.26.31a1.47,1.47,0,0,1-.58.42,2.06,2.06,0,0,1-.76.14,1.92,1.92,0,0,1-.94-.23,1.66,1.66,0,0,1-.64-.62,1.86,1.86,0,0,1-.23-.91,1.83,1.83,0,0,1,.22-.91,1.65,1.65,0,0,1,.6-.63,1.81,1.81,0,0,1,.87-.22,1.74,1.74,0,0,1,.86.22,1.52,1.52,0,0,1,.6.63,1.8,1.8,0,0,1,.22.91Zm-2.51-1.18a1.27,1.27,0,0,0-.38.83h2.45a1.27,1.27,0,0,0-.38-.83,1.28,1.28,0,0,0-1.69,0Z"/><path class="cls-22" d="M294.21,199.12l-.82.75v1h-.47V196h.47v3.31l2.07-1.89H296l-1.48,1.41,1.61,2.05h-.57Z"/><path class="cls-22" d="M260,207.06v.39h-2.81v-.31l2.17-2.76h-2.13V204H260v.31l-2.18,2.76Zm-1.63-3.85a.33.33,0,0,1-.09-.23.29.29,0,0,1,.09-.22.31.31,0,0,1,.22-.09.32.32,0,0,1,.23.09.29.29,0,0,1,.09.22.33.33,0,0,1-.09.23.32.32,0,0,1-.23.09A.31.31,0,0,1,258.4,203.21Z"/><path class="cls-22" d="M263.92,205.86H261a1.29,1.29,0,0,0,.42.88,1.37,1.37,0,0,0,.95.33A1.45,1.45,0,0,0,263,207a1.29,1.29,0,0,0,.47-.34l.26.31a1.55,1.55,0,0,1-.58.42,2.06,2.06,0,0,1-.76.14,1.92,1.92,0,0,1-.94-.22,1.76,1.76,0,0,1-.64-.63,1.74,1.74,0,0,1-.23-.91,1.83,1.83,0,0,1,.22-.91,1.56,1.56,0,0,1,.6-.62,1.71,1.71,0,0,1,.87-.23,1.65,1.65,0,0,1,.86.23,1.63,1.63,0,0,1,.6.62,1.91,1.91,0,0,1,.22.91Zm-2.51-1.18a1.3,1.3,0,0,0-.39.84h2.46a1.25,1.25,0,0,0-.39-.84,1.17,1.17,0,0,0-.84-.32A1.2,1.2,0,0,0,261.41,204.68Z"/><path class="cls-22" d="M264.87,202.57h.47v4.88h-.47Z"/><path class="cls-22" d="M268.88,204.3a1.32,1.32,0,0,1,.36,1v2.15h-.45v-.54a1,1,0,0,1-.46.42,1.64,1.64,0,0,1-.73.15,1.46,1.46,0,0,1-.92-.27.9.9,0,0,1-.34-.73.88.88,0,0,1,.32-.71,1.56,1.56,0,0,1,1-.27h1.09v-.21a.9.9,0,0,0-.25-.69,1,1,0,0,0-.73-.23,1.94,1.94,0,0,0-.63.11,1.58,1.58,0,0,0-.52.3l-.21-.35a2.14,2.14,0,0,1,.63-.35,2.54,2.54,0,0,1,.78-.12A1.49,1.49,0,0,1,268.88,204.3Zm-.53,2.63a1,1,0,0,0,.42-.52v-.57h-1.08c-.59,0-.89.21-.89.62a.59.59,0,0,0,.23.48,1,1,0,0,0,.65.17A1.2,1.2,0,0,0,268.35,206.93Z"/><path class="cls-22" d="M272.87,207.06v.39h-2.81v-.31l2.17-2.76H270.1V204h2.73v.31l-2.17,2.76Z"/><path class="cls-22" d="M276,204.3a1.32,1.32,0,0,1,.36,1v2.15h-.44v-.54a1.07,1.07,0,0,1-.47.42,1.59,1.59,0,0,1-.72.15,1.47,1.47,0,0,1-.93-.27.93.93,0,0,1-.34-.73.88.88,0,0,1,.32-.71,1.56,1.56,0,0,1,1-.27h1.1v-.21a.94.94,0,0,0-.25-.69,1.06,1.06,0,0,0-.73-.23,2,2,0,0,0-.64.11,1.44,1.44,0,0,0-.51.3l-.22-.35a2.07,2.07,0,0,1,.64-.35,2.43,2.43,0,0,1,.77-.12A1.49,1.49,0,0,1,276,204.3Zm-.52,2.63a1.16,1.16,0,0,0,.42-.52v-.57h-1.09c-.59,0-.89.21-.89.62a.59.59,0,0,0,.23.48,1,1,0,0,0,.65.17A1.25,1.25,0,0,0,275.45,206.93Z"/><path class="cls-22" d="M279.54,207.33a6.92,6.92,0,0,1-.19-1.68,7.14,7.14,0,0,1,.19-1.7,4.81,4.81,0,0,1,.57-1.38h.45A5.09,5.09,0,0,0,280,204a7.07,7.07,0,0,0-.18,1.65,7.19,7.19,0,0,0,.18,1.65,5.22,5.22,0,0,0,.57,1.43h-.45A5.2,5.2,0,0,1,279.54,207.33Z"/><path class="cls-22" d="M281.57,202.84h.49v4.61h-.49Z"/><path class="cls-22" d="M283.55,202.84H284v4.61h-.49Z"/><path class="cls-22" d="M285.53,202.84H286v4.61h-.49Z"/><path class="cls-22" d="M287,208.73a5.58,5.58,0,0,0,.58-1.43,7.7,7.7,0,0,0,0-3.31,5.51,5.51,0,0,0-.58-1.42h.45A4.54,4.54,0,0,1,288,204a7.14,7.14,0,0,1,.2,1.7,7.05,7.05,0,0,1-.2,1.69,4.83,4.83,0,0,1-.57,1.39Z"/><path class="cls-22" d="M254.09,213.65V214h-2.81v-.31l2.17-2.75h-2.13v-.4h2.73v.31l-2.18,2.76Z"/><path class="cls-22" d="M259.39,210.78a1.54,1.54,0,0,1,.62.62,2,2,0,0,1,0,1.83,1.54,1.54,0,0,1-.62.62,1.75,1.75,0,0,1-.88.23,1.55,1.55,0,0,1-.76-.18,1.45,1.45,0,0,1-.56-.51v1.93h-.47v-4.74h.45v.69a1.42,1.42,0,0,1,.56-.53,1.66,1.66,0,0,1,.78-.18A1.77,1.77,0,0,1,259.39,210.78Zm-.26,2.71a1.16,1.16,0,0,0,.46-.47,1.55,1.55,0,0,0,0-1.41,1.25,1.25,0,0,0-.46-.48,1.37,1.37,0,0,0-1.32,0,1.32,1.32,0,0,0-.46.48,1.55,1.55,0,0,0,0,1.41,1.22,1.22,0,0,0,.46.47,1.37,1.37,0,0,0,1.32,0Z"/><path class="cls-22" d="M261.68,213.85a1.73,1.73,0,0,1-.63-.63,1.92,1.92,0,0,1,0-1.82,1.78,1.78,0,0,1,.63-.62,2,2,0,0,1,1.81,0,1.68,1.68,0,0,1,.62.62,1.92,1.92,0,0,1,0,1.82,1.63,1.63,0,0,1-.62.63,1.9,1.9,0,0,1-1.81,0Zm1.57-.36a1.2,1.2,0,0,0,.45-.47,1.49,1.49,0,0,0,.17-.71,1.45,1.45,0,0,0-.17-.7,1.16,1.16,0,0,0-.45-.48,1.39,1.39,0,0,0-1.33,0,1.18,1.18,0,0,0-.46.48,1.45,1.45,0,0,0-.17.7,1.49,1.49,0,0,0,.17.71,1.22,1.22,0,0,0,.46.47,1.39,1.39,0,0,0,1.33,0Z"/><path class="cls-22" d="M265.29,209.16h.46V214h-.46Z"/><path class="cls-22" d="M267,209.73a.36.36,0,0,1-.09-.24.32.32,0,0,1,.34-.33.31.31,0,0,1,.24.1.28.28,0,0,1,.1.22.33.33,0,0,1-.1.25.35.35,0,0,1-.24.1A.37.37,0,0,1,267,209.73Zm0,.85h.47V214h-.47Z"/><path class="cls-22" d="M274.15,210.93a1.55,1.55,0,0,1,.37,1.11v2h-.47v-2a1.19,1.19,0,0,0-.26-.82.94.94,0,0,0-.73-.28,1.11,1.11,0,0,0-.85.33,1.28,1.28,0,0,0-.31.92V214h-.47v-2a1.14,1.14,0,0,0-.26-.82.94.94,0,0,0-.74-.28,1.09,1.09,0,0,0-.84.33,1.29,1.29,0,0,0-.32.92V214h-.46v-3.46h.44v.63a1.27,1.27,0,0,1,.52-.48,1.54,1.54,0,0,1,.75-.17,1.55,1.55,0,0,1,.76.18,1.07,1.07,0,0,1,.47.55,1.36,1.36,0,0,1,.55-.54,1.71,1.71,0,0,1,.82-.19A1.38,1.38,0,0,1,274.15,210.93Z"/><path class="cls-22" d="M278,210.89a1.29,1.29,0,0,1,.37,1V214h-.45v-.54a1.07,1.07,0,0,1-.47.42,1.59,1.59,0,0,1-.72.16,1.42,1.42,0,0,1-.92-.28.9.9,0,0,1-.35-.73.88.88,0,0,1,.32-.71,1.59,1.59,0,0,1,1-.27h1.1v-.21a.9.9,0,0,0-.25-.68,1,1,0,0,0-.73-.24,1.9,1.9,0,0,0-.63.11,1.48,1.48,0,0,0-.52.3l-.21-.35a1.73,1.73,0,0,1,.63-.34,2.43,2.43,0,0,1,.77-.12A1.48,1.48,0,0,1,278,210.89Zm-.52,2.64a1.07,1.07,0,0,0,.42-.53v-.56h-1.09c-.59,0-.88.2-.88.62a.53.53,0,0,0,.23.47,1,1,0,0,0,.64.18A1.25,1.25,0,0,0,277.5,213.53Z"/><path class="cls-22" d="M279.64,209.16h.47V214h-.47Z"/><path class="cls-22" d="M283.23,213.83a.88.88,0,0,1-.33.18,1.34,1.34,0,0,1-.4.07.93.93,0,0,1-1-1V211h-.61v-.4h.61v-.75H282v.75H283v.4H282V213a.61.61,0,0,0,.16.47.57.57,0,0,0,.44.16.86.86,0,0,0,.28,0,.73.73,0,0,0,.23-.13Z"/><path class="cls-22" d="M284.54,213.85a1.59,1.59,0,0,1-.63-.63,1.92,1.92,0,0,1,0-1.82,1.63,1.63,0,0,1,.63-.62,1.79,1.79,0,0,1,.9-.22,1.82,1.82,0,0,1,.9.22,1.63,1.63,0,0,1,.63.62,1.92,1.92,0,0,1,0,1.82,1.59,1.59,0,0,1-.63.63,1.83,1.83,0,0,1-.9.23A1.8,1.8,0,0,1,284.54,213.85Zm1.56-.36a1.22,1.22,0,0,0,.46-.47,1.49,1.49,0,0,0,.16-.71,1.45,1.45,0,0,0-.16-.7,1.18,1.18,0,0,0-.46-.48,1.35,1.35,0,0,0-.66-.17,1.3,1.3,0,0,0-.66.17,1.12,1.12,0,0,0-.46.48,1.45,1.45,0,0,0-.17.7,1.49,1.49,0,0,0,.17.71,1.16,1.16,0,0,0,.46.47,1.3,1.3,0,0,0,.66.17A1.35,1.35,0,0,0,286.1,213.49Z"/><path class="cls-22" d="M290.54,213.65V214h-2.81v-.31l2.18-2.75h-2.14v-.4h2.73v.31l-2.17,2.76Z"/><path class="cls-22" d="M293.64,210.89a1.32,1.32,0,0,1,.36,1V214h-.45v-.54a1.1,1.1,0,0,1-.46.42,1.67,1.67,0,0,1-.73.16,1.44,1.44,0,0,1-.92-.28.9.9,0,0,1-.34-.73.86.86,0,0,1,.32-.71,1.54,1.54,0,0,1,1-.27h1.1v-.21a.86.86,0,0,0-.25-.68,1,1,0,0,0-.73-.24,1.9,1.9,0,0,0-.63.11,1.48,1.48,0,0,0-.52.3l-.21-.35a1.73,1.73,0,0,1,.63-.34,2.5,2.5,0,0,1,.78-.12A1.51,1.51,0,0,1,293.64,210.89Zm-.53,2.64a1.07,1.07,0,0,0,.42-.53v-.56h-1.09c-.59,0-.88.2-.88.62a.53.53,0,0,0,.23.47,1,1,0,0,0,.64.18A1.25,1.25,0,0,0,293.11,213.53Zm-.06,1.79a.6.6,0,0,1-.2-.46c0-.4.31-.74.93-1l.22.18c-.54.24-.81.5-.81.79a.32.32,0,0,0,.12.27.46.46,0,0,0,.31.1.65.65,0,0,0,.41-.12l.11.25a1,1,0,0,1-.56.16A.8.8,0,0,1,293.05,215.32Z"/><path class="cls-22" d="M266.92,220.53a6.7,6.7,0,0,1,0-3,4.34,4.34,0,0,1,.5-1.22h.4a4.63,4.63,0,0,0-.51,1.26,6.73,6.73,0,0,0-.16,1.46,6.66,6.66,0,0,0,.16,1.46,4.69,4.69,0,0,0,.51,1.27h-.4A4.53,4.53,0,0,1,266.92,220.53Z"/><path class="cls-22" d="M271.1,217.88a1.27,1.27,0,0,1,.34,1v1.78H271v-1.74a1,1,0,0,0-.24-.72.88.88,0,0,0-.68-.25,1,1,0,0,0-.78.29,1.09,1.09,0,0,0-.29.81v1.61h-.42v-3.06h.4v.56a1.09,1.09,0,0,1,.47-.43,1.42,1.42,0,0,1,.7-.16A1.21,1.21,0,0,1,271.1,217.88Z"/><path class="cls-22" d="M272.39,217.75h2.53v.34h-2.53Zm0,1.34h2.53v.34h-2.53Z"/><path class="cls-22" d="M278,218.65a1,1,0,0,1,.34.81,1.11,1.11,0,0,1-.67,1,2,2,0,0,1-.81.15,2.35,2.35,0,0,1-.84-.14,1.77,1.77,0,0,1-.63-.38l.21-.33a1.43,1.43,0,0,0,.54.34,1.88,1.88,0,0,0,.72.13,1.18,1.18,0,0,0,.77-.22.71.71,0,0,0,.28-.6.72.72,0,0,0-.28-.6,1.32,1.32,0,0,0-.82-.21h-.29v-.31l1.13-1.42h-2.09v-.37h2.62v.3L277,218.3A1.45,1.45,0,0,1,278,218.65Z"/><path class="cls-22" d="M278.83,221.76a4.63,4.63,0,0,0,.51-1.26,6.19,6.19,0,0,0,.16-1.47,6.11,6.11,0,0,0-.16-1.46,4.63,4.63,0,0,0-.51-1.26h.4a4.65,4.65,0,0,1,.5,1.22,6.34,6.34,0,0,1,0,3,4.12,4.12,0,0,1-.5,1.23Z"/><path class="cls-22" d="M256.08,153.4v1.27H251v-1l2.61-2.46a2.8,2.8,0,0,0,.55-.68,1.21,1.21,0,0,0,.15-.57.72.72,0,0,0-.28-.62,1.23,1.23,0,0,0-.8-.22,1.85,1.85,0,0,0-.8.17,1.47,1.47,0,0,0-.6.51l-1.14-.74a2.67,2.67,0,0,1,1.09-.92,3.64,3.64,0,0,1,1.59-.33,3.31,3.31,0,0,1,1.32.24,2.07,2.07,0,0,1,.88.7,1.79,1.79,0,0,1,.31,1.06,2.28,2.28,0,0,1-.23,1,3.81,3.81,0,0,1-.9,1.1l-1.55,1.47Z"/><path class="cls-22" d="M258.27,153.13a.92.92,0,0,1,.26.67,1.74,1.74,0,0,1,0,.39,4,4,0,0,1-.21.58l-.55,1.39h-1l.43-1.53a.79.79,0,0,1-.38-.32.85.85,0,0,1-.14-.51.88.88,0,0,1,.26-.67,1,1,0,0,1,1.34,0Z"/><path class="cls-22" d="M263.74,151.33a1.84,1.84,0,0,1,.47,1.28,2,2,0,0,1-.31,1.08,2.13,2.13,0,0,1-.94.8,3.6,3.6,0,0,1-1.55.3,5.16,5.16,0,0,1-1.41-.19,3.5,3.5,0,0,1-1.17-.53l.61-1.2a3.1,3.1,0,0,0,.89.45,3.64,3.64,0,0,0,1,.16,1.68,1.68,0,0,0,.93-.23.74.74,0,0,0,.33-.64c0-.56-.42-.83-1.26-.83h-.72v-1l1.39-1.57h-2.87v-1.26h4.73v1l-1.53,1.74A2.22,2.22,0,0,1,263.74,151.33Z"/><path class="cls-22" d="M270.31,151.78a1.63,1.63,0,0,1,.26.93,1.74,1.74,0,0,1-.35,1.1,2.32,2.32,0,0,1-1,.72,4.43,4.43,0,0,1-3,0,2.2,2.2,0,0,1-1-.72,1.74,1.74,0,0,1-.35-1.1,1.63,1.63,0,0,1,.26-.93,2,2,0,0,1,.76-.66,1.78,1.78,0,0,1-.58-.58,1.57,1.57,0,0,1-.2-.81,1.64,1.64,0,0,1,.33-1,2.07,2.07,0,0,1,.91-.68,4.14,4.14,0,0,1,2.72,0,2,2,0,0,1,.92.68,1.64,1.64,0,0,1,.33,1,1.68,1.68,0,0,1-.2.81,1.73,1.73,0,0,1-.59.58A1.93,1.93,0,0,1,270.31,151.78Zm-1.66,1.6a.86.86,0,0,0,.34-.71.83.83,0,0,0-.34-.71,1.54,1.54,0,0,0-.94-.26,1.47,1.47,0,0,0-.91.26.91.91,0,0,0,0,1.42,1.47,1.47,0,0,0,.91.26A1.54,1.54,0,0,0,268.65,153.38ZM267,149.17a.82.82,0,0,0,0,1.24,1.25,1.25,0,0,0,.76.22,1.31,1.31,0,0,0,.78-.22.75.75,0,0,0,.29-.61.77.77,0,0,0-.29-.63,1.25,1.25,0,0,0-.78-.22A1.17,1.17,0,0,0,267,149.17Z"/><path class="cls-22" d="M276.09,149.94v1.14h-1.68v1.59h-1.25v-1.59h-1.67v-1.14h1.67v-1.58h1.25v1.58Zm-4.6,3.56h4.6v1.17h-4.6Z"/><path class="cls-22" d="M278.44,154.38a2.8,2.8,0,0,1-1-1.21,4.94,4.94,0,0,1,0-3.75,2.8,2.8,0,0,1,1-1.21,2.75,2.75,0,0,1,1.49-.41,2.67,2.67,0,0,1,2.53,1.62,4.94,4.94,0,0,1,0,3.75,2.67,2.67,0,0,1-2.53,1.62A2.75,2.75,0,0,1,278.44,154.38Zm2.46-1.44a3,3,0,0,0,.36-1.65,3,3,0,0,0-.36-1.64,1.1,1.1,0,0,0-1-.53,1.12,1.12,0,0,0-1,.53,3.08,3.08,0,0,0-.35,1.64,3.12,3.12,0,0,0,.35,1.65,1.12,1.12,0,0,0,1,.53A1.1,1.1,0,0,0,280.9,152.94Z"/><path class="cls-22" d="M285.14,153.13a.92.92,0,0,1,.26.67,1.74,1.74,0,0,1,0,.39,4,4,0,0,1-.21.58l-.55,1.39h-1l.43-1.53a.79.79,0,0,1-.38-.32.85.85,0,0,1-.14-.51.88.88,0,0,1,.26-.67.93.93,0,0,1,.67-.25A.91.91,0,0,1,285.14,153.13Z"/><path class="cls-22" d="M290.52,150.69a2.23,2.23,0,0,1,.84.74,2,2,0,0,1,.31,1.11,2.08,2.08,0,0,1-.34,1.19,2.13,2.13,0,0,1-.92.78,2.92,2.92,0,0,1-1.3.28,2.86,2.86,0,0,1-2.22-.87,3.51,3.51,0,0,1-.8-2.48,4.15,4.15,0,0,1,.43-2,3,3,0,0,1,1.21-1.25,3.74,3.74,0,0,1,1.8-.42,4.42,4.42,0,0,1,1,.12,2.75,2.75,0,0,1,.85.34l-.58,1.15a2.21,2.21,0,0,0-1.27-.34,1.87,1.87,0,0,0-1.36.5,2.17,2.17,0,0,0-.54,1.46,2.26,2.26,0,0,1,1.67-.6A2.69,2.69,0,0,1,290.52,150.69Zm-.68,2.66a.9.9,0,0,0,.31-.73.92.92,0,0,0-.31-.74,1.2,1.2,0,0,0-.84-.28,1.24,1.24,0,0,0-.84.29.92.92,0,0,0-.33.73.93.93,0,0,0,.32.72,1.28,1.28,0,0,0,.87.28A1.21,1.21,0,0,0,289.84,153.35Z"/><path class="cls-22" d="M296.65,151a1.9,1.9,0,0,1,.68,1.53,2.05,2.05,0,0,1-.31,1.12,2.24,2.24,0,0,1-.94.82,3.62,3.62,0,0,1-1.56.3,5.16,5.16,0,0,1-1.41-.19,3.5,3.5,0,0,1-1.17-.53l.62-1.2a3,3,0,0,0,.89.45,3.52,3.52,0,0,0,1,.16,1.6,1.6,0,0,0,.93-.24.75.75,0,0,0,.34-.64.73.73,0,0,0-.36-.66,2.39,2.39,0,0,0-1.22-.22h-1.73l.35-3.81h4.12v1.26h-2.82l-.1,1.28h.55A3.26,3.26,0,0,1,296.65,151Z"/><path class="cls-21" d="M99.66,3.49a1.66,1.66,0,0,1,.58,1.33,1.66,1.66,0,0,1-.58,1.33,2.4,2.4,0,0,1-1.59.48H96.65V8.3h-.56V3h2A2.4,2.4,0,0,1,99.66,3.49Zm-.4,2.3a1.18,1.18,0,0,0,.42-1,1.21,1.21,0,0,0-.42-1,1.84,1.84,0,0,0-1.2-.34H96.65V6.13h1.41A1.84,1.84,0,0,0,99.26,5.79Z"/><path class="cls-21" d="M104,4.68a1.49,1.49,0,0,1,.42,1.15V8.3h-.52V7.68a1.24,1.24,0,0,1-.53.48,1.78,1.78,0,0,1-.83.17A1.63,1.63,0,0,1,101.47,8a1.06,1.06,0,0,1-.4-.84,1,1,0,0,1,.37-.82,1.78,1.78,0,0,1,1.17-.31h1.26V5.81a1,1,0,0,0-.29-.78,1.17,1.17,0,0,0-.83-.27,2.19,2.19,0,0,0-.73.12,2,2,0,0,0-.6.35l-.24-.4a2.06,2.06,0,0,1,.73-.4,2.91,2.91,0,0,1,.89-.14A1.67,1.67,0,0,1,104,4.68Zm-.6,3a1.25,1.25,0,0,0,.48-.6V6.45h-1.25c-.68,0-1,.24-1,.71a.65.65,0,0,0,.27.55,1.21,1.21,0,0,0,.74.2A1.42,1.42,0,0,0,103.39,7.7Z"/><path class="cls-21" d="M106.46,8.08a1.83,1.83,0,0,1-.73-.73,2,2,0,0,1-.26-1,2,2,0,0,1,.26-1,1.87,1.87,0,0,1,.73-.72,2.15,2.15,0,0,1,1.05-.26,2.08,2.08,0,0,1,.92.2,1.52,1.52,0,0,1,.64.59l-.4.27a1.17,1.17,0,0,0-.5-.44,1.45,1.45,0,0,0-.66-.15,1.54,1.54,0,0,0-.77.19,1.36,1.36,0,0,0-.54.55,1.67,1.67,0,0,0-.19.81,1.62,1.62,0,0,0,.19.81,1.43,1.43,0,0,0,.54.55,1.66,1.66,0,0,0,.77.19,1.45,1.45,0,0,0,.66-.15,1.22,1.22,0,0,0,.5-.43l.4.27a1.56,1.56,0,0,1-.64.58,2,2,0,0,1-.92.2A2.14,2.14,0,0,1,106.46,8.08Z"/><path class="cls-21" d="M109.06,9.74a1,1,0,0,1-.37-.2l.19-.41a.9.9,0,0,0,.62.21.61.61,0,0,0,.49-.19.83.83,0,0,0,.17-.56V4.32h.53V8.59a1.24,1.24,0,0,1-.3.88,1.11,1.11,0,0,1-.86.33A1.84,1.84,0,0,1,109.06,9.74Zm1.09-6.41a.39.39,0,0,1-.11-.27.4.4,0,0,1,.11-.27.41.41,0,0,1,.56,0,.33.33,0,0,1,.11.26.36.36,0,0,1-.11.28.41.41,0,0,1-.56,0Z"/><path class="cls-21" d="M115.65,6.47h-3.32a1.46,1.46,0,0,0,.47,1,1.61,1.61,0,0,0,1.09.38,1.87,1.87,0,0,0,.68-.13,1.5,1.5,0,0,0,.54-.39l.3.34a1.68,1.68,0,0,1-.66.49,2.28,2.28,0,0,1-.87.16,2.17,2.17,0,0,1-1.09-.26,1.81,1.81,0,0,1-.73-.72,2,2,0,0,1-.27-1,2.19,2.19,0,0,1,.25-1,1.8,1.8,0,0,1,.7-.72,2,2,0,0,1,2,0,1.88,1.88,0,0,1,.69.71,2.14,2.14,0,0,1,.25,1Zm-2.88-1.35a1.39,1.39,0,0,0-.44,1h2.82a1.45,1.45,0,0,0-.45-1,1.44,1.44,0,0,0-1.93,0Z"/><path class="cls-21" d="M120,4.73A1.67,1.67,0,0,1,120.41,6V8.3h-.53V6a1.35,1.35,0,0,0-.31-.94,1.16,1.16,0,0,0-.89-.33,1.33,1.33,0,0,0-1,.39,1.42,1.42,0,0,0-.38,1V8.3h-.53v-4h.51v.73a1.5,1.5,0,0,1,.61-.56,2,2,0,0,1,.9-.2A1.62,1.62,0,0,1,120,4.73Z"/><path class="cls-21" d="M122.46,8.08a1.75,1.75,0,0,1-.72-.73,2,2,0,0,1-.27-1,2,2,0,0,1,.27-1,1.78,1.78,0,0,1,.72-.72,2.19,2.19,0,0,1,1.06-.26,2.11,2.11,0,0,1,.92.2,1.52,1.52,0,0,1,.64.59l-.41.27a1.15,1.15,0,0,0-.49-.44,1.49,1.49,0,0,0-.66-.15,1.55,1.55,0,0,0-.78.19,1.34,1.34,0,0,0-.53.55,1.68,1.68,0,0,0-.2.81,1.62,1.62,0,0,0,.2.81,1.4,1.4,0,0,0,.53.55,1.67,1.67,0,0,0,.78.19,1.49,1.49,0,0,0,.66-.15,1.19,1.19,0,0,0,.49-.43l.41.27a1.52,1.52,0,0,1-.65.58,1.93,1.93,0,0,1-.91.2A2.18,2.18,0,0,1,122.46,8.08Z"/><path class="cls-21" d="M126.12,3.34a.36.36,0,0,1,0-.54.39.39,0,0,1,.28-.11.41.41,0,0,1,.28.11.36.36,0,0,1,.11.26.38.38,0,0,1-.39.39A.39.39,0,0,1,126.12,3.34Zm0,1h.53v4h-.53Z"/><path class="cls-21" d="M130.14,2.69h.53V8.3h-.53Z"/><path class="cls-21" d="M135.63,6.47h-3.32a1.46,1.46,0,0,0,.47,1,1.61,1.61,0,0,0,1.09.38,1.83,1.83,0,0,0,.68-.13,1.5,1.5,0,0,0,.54-.39l.3.34a1.68,1.68,0,0,1-.66.49,2.28,2.28,0,0,1-.87.16,2.17,2.17,0,0,1-1.09-.26,1.81,1.81,0,0,1-.73-.72,2,2,0,0,1-.27-1,2.19,2.19,0,0,1,.25-1,1.8,1.8,0,0,1,.7-.72,2,2,0,0,1,1-.26,1.92,1.92,0,0,1,1,.26,1.81,1.81,0,0,1,.69.71,2.14,2.14,0,0,1,.25,1Zm-2.88-1.35a1.39,1.39,0,0,0-.44,1h2.82a1.45,1.45,0,0,0-.45-1,1.44,1.44,0,0,0-1.93,0Z"/><path class="cls-21" d="M137.33,8.08a1.83,1.83,0,0,1-.73-.73,2,2,0,0,1-.27-1,2,2,0,0,1,.27-1,1.87,1.87,0,0,1,.73-.72,2.15,2.15,0,0,1,1-.26,2.08,2.08,0,0,1,.92.2,1.52,1.52,0,0,1,.64.59l-.4.27a1.17,1.17,0,0,0-.5-.44,1.45,1.45,0,0,0-.66-.15,1.54,1.54,0,0,0-.77.19,1.36,1.36,0,0,0-.54.55,1.67,1.67,0,0,0-.19.81,1.62,1.62,0,0,0,.19.81,1.43,1.43,0,0,0,.54.55,1.66,1.66,0,0,0,.77.19,1.45,1.45,0,0,0,.66-.15,1.22,1.22,0,0,0,.5-.43l.4.27a1.56,1.56,0,0,1-.64.58,2,2,0,0,1-.92.2A2.14,2.14,0,0,1,137.33,8.08Z"/><path class="cls-21" d="M143.79,7.85V8.3h-3.23V7.94l2.5-3.17H140.6V4.32h3.15v.36l-2.5,3.17Z"/><path class="cls-21" d="M148.28,6.47H145a1.43,1.43,0,0,0,.48,1,1.58,1.58,0,0,0,1.08.38,1.83,1.83,0,0,0,.68-.13,1.5,1.5,0,0,0,.54-.39l.3.34a1.55,1.55,0,0,1-.66.49,2.21,2.21,0,0,1-.87.16,2.11,2.11,0,0,1-1.08-.26,1.77,1.77,0,0,1-.74-.72,2,2,0,0,1-.27-1,2.08,2.08,0,0,1,.26-1,1.84,1.84,0,0,1,.69-.72,2,2,0,0,1,2,0,1.79,1.79,0,0,1,.68.71,2.14,2.14,0,0,1,.25,1Zm-2.89-1.35a1.44,1.44,0,0,0-.44,1h2.82a1.44,1.44,0,0,0-.44-1,1.35,1.35,0,0,0-1-.37A1.34,1.34,0,0,0,145.39,5.12Z"/><path class="cls-21" d="M152.59,4.73A1.67,1.67,0,0,1,153,6V8.3h-.54V6a1.3,1.3,0,0,0-.31-.94,1.15,1.15,0,0,0-.88-.33,1.35,1.35,0,0,0-1,.39,1.42,1.42,0,0,0-.38,1V8.3h-.53v-4h.51v.73a1.5,1.5,0,0,1,.61-.56,2,2,0,0,1,.9-.2A1.62,1.62,0,0,1,152.59,4.73Z"/><path class="cls-21" d="M154.49,3.34a.36.36,0,0,1,0-.54.39.39,0,0,1,.28-.11.41.41,0,0,1,.28.11.36.36,0,0,1,.11.26.38.38,0,0,1-.39.39A.39.39,0,0,1,154.49,3.34Zm0,1H155v4h-.54Z"/><path class="cls-21" d="M161.31,7.85V8.3h-3.23V7.94l2.5-3.17h-2.46V4.32h3.14v.36l-2.5,3.17Z"/><path class="cls-21" d="M167.41,4.54a1.82,1.82,0,0,1,.71.72,2.27,2.27,0,0,1,0,2.11,1.86,1.86,0,0,1-.71.71,2,2,0,0,1-1,.25,1.81,1.81,0,0,1-.88-.2,1.69,1.69,0,0,1-.64-.58V9.76h-.53V4.32h.51v.79a1.63,1.63,0,0,1,.64-.61,1.87,1.87,0,0,1,.9-.21A2.13,2.13,0,0,1,167.41,4.54Zm-.3,3.13a1.43,1.43,0,0,0,.54-.55,1.67,1.67,0,0,0,.19-.81,1.67,1.67,0,0,0-.19-.81,1.4,1.4,0,0,0-.54-.54,1.48,1.48,0,0,0-2,.54,1.67,1.67,0,0,0-.19.81,1.67,1.67,0,0,0,.19.81,1.4,1.4,0,0,0,.53.55,1.6,1.6,0,0,0,1.51,0Z"/><path class="cls-21" d="M170.06,8.07a1.78,1.78,0,0,1-.72-.72,2,2,0,0,1-.27-1,2,2,0,0,1,.27-1,1.78,1.78,0,0,1,.72-.72,2.19,2.19,0,0,1,2.07,0,1.78,1.78,0,0,1,.72.72,2,2,0,0,1,.26,1,2,2,0,0,1-.26,1,1.78,1.78,0,0,1-.72.72,2.19,2.19,0,0,1-2.07,0Zm1.8-.4a1.45,1.45,0,0,0,.52-.55,1.67,1.67,0,0,0,.19-.81,1.67,1.67,0,0,0-.19-.81,1.38,1.38,0,0,0-.52-.55,1.51,1.51,0,0,0-.76-.19,1.45,1.45,0,0,0-.76.19,1.34,1.34,0,0,0-.53.55,1.67,1.67,0,0,0-.19.81,1.67,1.67,0,0,0,.19.81,1.4,1.4,0,0,0,.53.55,1.56,1.56,0,0,0,.76.19A1.61,1.61,0,0,0,171.86,7.67Z"/><path class="cls-21" d="M179.9,4.32l-1.5,4h-.51L176.64,5,175.38,8.3h-.5l-1.5-4h.51l1.25,3.38,1.28-3.38h.46l1.27,3.38,1.26-3.38Z"/><path class="cls-21" d="M181.15,8.07a1.87,1.87,0,0,1-.73-.72,2.11,2.11,0,0,1-.26-1,2.08,2.08,0,0,1,.26-1,1.87,1.87,0,0,1,.73-.72,2.19,2.19,0,0,1,2.07,0,1.78,1.78,0,0,1,.72.72,2.08,2.08,0,0,1,.26,1,2.11,2.11,0,0,1-.26,1,1.78,1.78,0,0,1-.72.72,2.19,2.19,0,0,1-2.07,0Zm1.79-.4a1.4,1.4,0,0,0,.53-.55,1.82,1.82,0,0,0,0-1.62,1.34,1.34,0,0,0-.53-.55,1.48,1.48,0,0,0-.76-.19,1.51,1.51,0,0,0-.76.19,1.4,1.4,0,0,0-.53.55,1.82,1.82,0,0,0,0,1.62,1.47,1.47,0,0,0,.53.55,1.61,1.61,0,0,0,.76.19A1.59,1.59,0,0,0,182.94,7.67Z"/><path class="cls-21" d="M188.92,2.69V8.3h-.51V7.51a1.56,1.56,0,0,1-.64.61,1.86,1.86,0,0,1-.89.21,2.06,2.06,0,0,1-1-.25,1.82,1.82,0,0,1-.71-.72,2.14,2.14,0,0,1-.25-1.05,2.14,2.14,0,0,1,.25-1,1.82,1.82,0,0,1,.71-.72,2.17,2.17,0,0,1,1-.25,1.92,1.92,0,0,1,.87.2,1.64,1.64,0,0,1,.64.59V2.69Zm-1.25,5a1.4,1.4,0,0,0,.53-.55,1.67,1.67,0,0,0,.19-.81,1.67,1.67,0,0,0-.19-.81,1.34,1.34,0,0,0-.53-.55,1.44,1.44,0,0,0-.75-.19,1.48,1.48,0,0,0-.76.19,1.4,1.4,0,0,0-.53.55,1.67,1.67,0,0,0-.19.81,1.67,1.67,0,0,0,.19.81,1.47,1.47,0,0,0,.53.55,1.59,1.59,0,0,0,.76.19A1.55,1.55,0,0,0,187.67,7.67Z"/><path class="cls-21" d="M194,4.32v4h-.51V7.57a1.49,1.49,0,0,1-.58.56,1.95,1.95,0,0,1-2.08-.23,1.68,1.68,0,0,1-.45-1.27V4.32h.54V6.57a1.29,1.29,0,0,0,.31.95,1.14,1.14,0,0,0,.88.33,1.31,1.31,0,0,0,1-.38,1.5,1.5,0,0,0,.36-1.06V4.32Z"/><path class="cls-21" d="M200.07,4.68a1.49,1.49,0,0,1,.42,1.15V8.3H200V7.68a1.3,1.3,0,0,1-.53.48,1.83,1.83,0,0,1-.84.17,1.62,1.62,0,0,1-1-.31,1,1,0,0,1-.4-.84,1,1,0,0,1,.37-.82,1.76,1.76,0,0,1,1.17-.31H200V5.81a1,1,0,0,0-.29-.78,1.18,1.18,0,0,0-.84-.27,2.18,2.18,0,0,0-.72.12,2,2,0,0,0-.6.35l-.24-.4a2.1,2.1,0,0,1,.72-.4,3,3,0,0,1,.9-.14A1.69,1.69,0,0,1,200.07,4.68Zm-.61,3a1.27,1.27,0,0,0,.49-.6V6.45H198.7c-.68,0-1,.24-1,.71a.65.65,0,0,0,.27.55,1.21,1.21,0,0,0,.74.2A1.36,1.36,0,0,0,199.46,7.7Z"/><path class="cls-21" d="M205.16,4.73A1.71,1.71,0,0,1,205.6,6V8.3h-.54V6a1.3,1.3,0,0,0-.31-.94,1.14,1.14,0,0,0-.88-.33,1.35,1.35,0,0,0-1,.39,1.42,1.42,0,0,0-.37,1V8.3h-.54v-4h.52v.73a1.44,1.44,0,0,1,.61-.56,2,2,0,0,1,.9-.2A1.63,1.63,0,0,1,205.16,4.73Z"/><path class="cls-21" d="M210.52,6.47H207.2a1.42,1.42,0,0,0,.47,1,1.61,1.61,0,0,0,1.09.38,1.87,1.87,0,0,0,.68-.13,1.5,1.5,0,0,0,.54-.39l.3.34a1.68,1.68,0,0,1-.66.49,2.28,2.28,0,0,1-.87.16,2.17,2.17,0,0,1-1.09-.26,1.9,1.9,0,0,1-.74-.72,2.11,2.11,0,0,1-.26-1,2.08,2.08,0,0,1,.25-1,1.8,1.8,0,0,1,.7-.72,2,2,0,0,1,2,0,1.88,1.88,0,0,1,.69.71,2.14,2.14,0,0,1,.25,1Zm-2.88-1.35a1.39,1.39,0,0,0-.44,1H210a1.39,1.39,0,0,0-.44-1,1.44,1.44,0,0,0-1.93,0Z"/><path class="cls-21" d="M217.76,4.72A1.75,1.75,0,0,1,218.18,6V8.3h-.53V6a1.34,1.34,0,0,0-.3-.94,1.08,1.08,0,0,0-.84-.33,1.26,1.26,0,0,0-1,.39,1.45,1.45,0,0,0-.35,1V8.3h-.54V6a1.34,1.34,0,0,0-.3-.94,1.09,1.09,0,0,0-.85-.33,1.25,1.25,0,0,0-1,.39,1.45,1.45,0,0,0-.36,1V8.3h-.54v-4h.52v.73a1.39,1.39,0,0,1,.59-.56,1.86,1.86,0,0,1,.87-.2,1.69,1.69,0,0,1,.86.21,1.26,1.26,0,0,1,.55.63,1.63,1.63,0,0,1,.63-.62,2.07,2.07,0,0,1,.94-.22A1.59,1.59,0,0,1,217.76,4.72Z"/><path class="cls-21" d="M219.63,3.34a.39.39,0,0,1,0-.54.41.41,0,0,1,.28-.11.39.39,0,0,1,.28.11.34.34,0,0,1,.12.26.38.38,0,0,1-.12.28.39.39,0,0,1-.28.11A.41.41,0,0,1,219.63,3.34Zm0,1h.54v4h-.54Z"/><path class="cls-21" d="M221.67,3.34a.36.36,0,0,1,0-.54.39.39,0,0,1,.28-.11.41.41,0,0,1,.28.11.36.36,0,0,1,.11.26.38.38,0,0,1-.39.39A.39.39,0,0,1,221.67,3.34Zm0,1h.54v4h-.54Z"/><path class="cls-21" d="M228.49,7.85V8.3h-3.23V7.94l2.5-3.17H225.3V4.32h3.15v.36l-2.51,3.17Z"/><path class="cls-21" d="M234.75,4.73A1.71,1.71,0,0,1,235.19,6V8.3h-.54V6a1.3,1.3,0,0,0-.31-.94,1.15,1.15,0,0,0-.88-.33,1.35,1.35,0,0,0-1,.39,1.42,1.42,0,0,0-.37,1V8.3h-.54v-4H232v.73a1.5,1.5,0,0,1,.61-.56,2,2,0,0,1,.9-.2A1.66,1.66,0,0,1,234.75,4.73Z"/><path class="cls-21" d="M236.64,3.34a.36.36,0,0,1,0-.54.39.39,0,0,1,.28-.11.41.41,0,0,1,.28.11.36.36,0,0,1,.11.26.38.38,0,0,1-.39.39A.39.39,0,0,1,236.64,3.34Zm0,1h.54v4h-.54Z"/><path class="cls-21" d="M242.14,6.47h-3.33a1.43,1.43,0,0,0,.48,1,1.61,1.61,0,0,0,1.09.38,1.91,1.91,0,0,0,.68-.13,1.55,1.55,0,0,0,.53-.39l.31.34a1.68,1.68,0,0,1-.66.49,2.3,2.3,0,0,1-.88.16,2.13,2.13,0,0,1-1.08-.26,1.83,1.83,0,0,1-.74-.72,2.11,2.11,0,0,1-.26-1,2.08,2.08,0,0,1,.25-1,1.8,1.8,0,0,1,.7-.72,2,2,0,0,1,2,0,1.88,1.88,0,0,1,.69.71,2.26,2.26,0,0,1,.25,1Zm-2.88-1.35a1.45,1.45,0,0,0-.45,1h2.82a1.39,1.39,0,0,0-.44-1,1.34,1.34,0,0,0-1-.37A1.31,1.31,0,0,0,239.26,5.12Z"/><path class="cls-21" d="M246.87,2.69V8.3h-.51V7.51a1.7,1.7,0,0,1-.64.61,1.93,1.93,0,0,1-.9.21,2,2,0,0,1-1-.25,1.82,1.82,0,0,1-.71-.72,2.25,2.25,0,0,1,0-2.1,1.82,1.82,0,0,1,.71-.72,2.13,2.13,0,0,1,1-.25,1.92,1.92,0,0,1,.87.2,1.58,1.58,0,0,1,.64.59V2.69Zm-1.25,5a1.47,1.47,0,0,0,.53-.55,1.67,1.67,0,0,0,.19-.81,1.67,1.67,0,0,0-.19-.81,1.4,1.4,0,0,0-.53-.55,1.49,1.49,0,0,0-.75-.19,1.45,1.45,0,0,0-.76.19,1.34,1.34,0,0,0-.53.55,1.67,1.67,0,0,0-.19.81,1.67,1.67,0,0,0,.19.81,1.4,1.4,0,0,0,.53.55,1.56,1.56,0,0,0,.76.19A1.61,1.61,0,0,0,245.62,7.67Z"/><path class="cls-21" d="M249,8.07a1.87,1.87,0,0,1-.73-.72,2,2,0,0,1-.27-1,2,2,0,0,1,.27-1,1.87,1.87,0,0,1,.73-.72,2.07,2.07,0,0,1,1-.26,2.14,2.14,0,0,1,1,.26,1.91,1.91,0,0,1,.72.72,2.08,2.08,0,0,1,.26,1,2.11,2.11,0,0,1-.26,1,1.91,1.91,0,0,1-.72.72,2,2,0,0,1-1,.26A2,2,0,0,1,249,8.07Zm1.79-.4a1.47,1.47,0,0,0,.53-.55,1.91,1.91,0,0,0,0-1.62,1.4,1.4,0,0,0-.53-.55,1.48,1.48,0,0,0-.76-.19,1.51,1.51,0,0,0-.76.19,1.4,1.4,0,0,0-.53.55,1.67,1.67,0,0,0-.19.81,1.67,1.67,0,0,0,.19.81,1.47,1.47,0,0,0,.53.55,1.61,1.61,0,0,0,.76.19A1.59,1.59,0,0,0,250.75,7.67Z"/><path class="cls-21" d="M256.16,4.54a1.85,1.85,0,0,1,.72.72,2.14,2.14,0,0,1,.25,1,2.14,2.14,0,0,1-.25,1.05,1.85,1.85,0,0,1-.72.72,2,2,0,0,1-1,.25,1.86,1.86,0,0,1-.89-.21,1.56,1.56,0,0,1-.64-.61V8.3h-.52V2.69h.54V5.08a1.64,1.64,0,0,1,.64-.59,1.92,1.92,0,0,1,.87-.2A2.13,2.13,0,0,1,256.16,4.54Zm-.29,3.13a1.4,1.4,0,0,0,.53-.55,1.67,1.67,0,0,0,.19-.81,1.67,1.67,0,0,0-.19-.81,1.34,1.34,0,0,0-.53-.55,1.61,1.61,0,0,0-1.52,0,1.32,1.32,0,0,0-.52.55,1.74,1.74,0,0,0,0,1.62,1.38,1.38,0,0,0,.52.55,1.61,1.61,0,0,0,1.52,0Z"/><path class="cls-21" d="M258.82,8.07a1.87,1.87,0,0,1-.73-.72,2.11,2.11,0,0,1-.26-1,2.08,2.08,0,0,1,.26-1,1.87,1.87,0,0,1,.73-.72,2.07,2.07,0,0,1,1-.26,2.11,2.11,0,0,1,1,.26,1.85,1.85,0,0,1,.72.72,2.08,2.08,0,0,1,.26,1,2.11,2.11,0,0,1-.26,1,1.85,1.85,0,0,1-.72.72,2,2,0,0,1-1,.26A2,2,0,0,1,258.82,8.07Zm1.79-.4a1.4,1.4,0,0,0,.53-.55,1.82,1.82,0,0,0,0-1.62,1.34,1.34,0,0,0-.53-.55,1.48,1.48,0,0,0-.76-.19,1.51,1.51,0,0,0-.76.19,1.4,1.4,0,0,0-.53.55,1.82,1.82,0,0,0,0,1.62,1.47,1.47,0,0,0,.53.55,1.61,1.61,0,0,0,.76.19A1.59,1.59,0,0,0,260.61,7.67Z"/><path class="cls-21" d="M264,4.49a2,2,0,0,1,.93-.2v.52h-.13a1.24,1.24,0,0,0-1,.39,1.53,1.53,0,0,0-.36,1.08v2H263v-4h.51V5.1A1.33,1.33,0,0,1,264,4.49Z"/><path class="cls-21" d="M269.58,4.32v4h-.52V7.57a1.42,1.42,0,0,1-.58.56,1.66,1.66,0,0,1-.84.2,1.69,1.69,0,0,1-1.23-.43A1.68,1.68,0,0,1,266,6.63V4.32h.54V6.57a1.34,1.34,0,0,0,.3.95,1.18,1.18,0,0,0,.89.33,1.31,1.31,0,0,0,1-.38A1.5,1.5,0,0,0,269,6.41V4.32Z"/><path class="cls-21" d="M275.87,7.85V8.3h-3.24V7.94l2.5-3.17h-2.45V4.32h3.14v.36l-2.5,3.17ZM274,3.42a.35.35,0,0,1-.11-.26.34.34,0,0,1,.11-.25.36.36,0,0,1,.26-.11.34.34,0,0,1,.25.11.31.31,0,0,1,.11.25.31.31,0,0,1-.11.26.34.34,0,0,1-.25.11A.36.36,0,0,1,274,3.42Z"/><path class="cls-21" d="M280.35,6.47H277a1.43,1.43,0,0,0,.48,1,1.58,1.58,0,0,0,1.08.38,1.93,1.93,0,0,0,.69-.13,1.55,1.55,0,0,0,.53-.39l.3.34a1.55,1.55,0,0,1-.66.49,2.21,2.21,0,0,1-.87.16,2.11,2.11,0,0,1-1.08-.26,1.83,1.83,0,0,1-.74-.72,2,2,0,0,1-.27-1,2.08,2.08,0,0,1,.26-1,1.84,1.84,0,0,1,.69-.72,2,2,0,0,1,2,0,1.79,1.79,0,0,1,.68.71,2.14,2.14,0,0,1,.25,1Zm-2.89-1.35a1.44,1.44,0,0,0-.44,1h2.82a1.44,1.44,0,0,0-.44-1,1.35,1.35,0,0,0-1-.37A1.34,1.34,0,0,0,277.46,5.12Z"/><path class="cls-21" d="M281.45,2.69H282V8.3h-.54Z"/><path class="cls-21" d="M286.07,4.68a1.52,1.52,0,0,1,.41,1.15V8.3H286V7.68a1.3,1.3,0,0,1-.53.48,1.86,1.86,0,0,1-.84.17A1.65,1.65,0,0,1,283.54,8a1.05,1.05,0,0,1-.39-.84,1,1,0,0,1,.37-.82,1.75,1.75,0,0,1,1.16-.31H286V5.81a1,1,0,0,0-.29-.78,1.18,1.18,0,0,0-.84-.27,2.28,2.28,0,0,0-.73.12,1.81,1.81,0,0,0-.59.35l-.24-.4a2.1,2.1,0,0,1,.72-.4,2.91,2.91,0,0,1,.89-.14A1.7,1.7,0,0,1,286.07,4.68Zm-.61,3a1.27,1.27,0,0,0,.49-.6V6.45H284.7c-.68,0-1,.24-1,.71a.66.66,0,0,0,.26.55,1.25,1.25,0,0,0,.74.2A1.38,1.38,0,0,0,285.46,7.7Z"/><path class="cls-21" d="M290.67,7.85V8.3h-3.24V7.94l2.51-3.17h-2.46V4.32h3.14v.36l-2.5,3.17Z"/><path class="cls-21" d="M294.24,4.68a1.49,1.49,0,0,1,.42,1.15V8.3h-.51V7.68a1.33,1.33,0,0,1-.54.48,1.78,1.78,0,0,1-.83.17A1.63,1.63,0,0,1,291.72,8a1.05,1.05,0,0,1-.39-.84,1,1,0,0,1,.36-.82,1.8,1.8,0,0,1,1.17-.31h1.26V5.81a1,1,0,0,0-.29-.78,1.17,1.17,0,0,0-.83-.27,2.24,2.24,0,0,0-.73.12,2,2,0,0,0-.6.35l-.24-.4a2.15,2.15,0,0,1,.73-.4,2.91,2.91,0,0,1,.89-.14A1.66,1.66,0,0,1,294.24,4.68Zm-.6,3a1.2,1.2,0,0,0,.48-.6V6.45h-1.24c-.68,0-1,.24-1,.71a.64.64,0,0,0,.26.55,1.23,1.23,0,0,0,.74.2A1.42,1.42,0,0,0,293.64,7.7Z"/></svg>