<svg xmlns="http://www.w3.org/2000/svg" xmlns:xlink="http://www.w3.org/1999/xlink" viewBox="0 0 400 160"><defs><style>.cls-1{clip-path:url(#clip-path);}.cls-2,.cls-6{fill:none;}.cls-3{isolation:isolate;}.cls-4{fill:#fff;}.cls-5{fill:url(#Gradient_bez_nazwy);}.cls-6,.cls-7,.cls-8{stroke:#f9eaf2;stroke-linecap:round;stroke-linejoin:round;stroke-width:25px;}.cls-21,.cls-22,.cls-7{fill:#d977ac;}.cls-23,.cls-8{fill:#db92bf;}.cls-9{clip-path:url(#clip-path-3);}.cls-10{fill:url(#Gradient_bez_nazwy_54);}.cls-11{fill:#f9eaf2;}.cls-12{clip-path:url(#clip-path-4);}.cls-13{fill:url(#Gradient_bez_nazwy_54-2);}.cls-14{mask:url(#mask);}.cls-15{clip-path:url(#clip-path-5);}.cls-16{clip-path:url(#clip-path-6);}.cls-17{fill:url(#Gradient_bez_nazwy_55);}.cls-18{clip-path:url(#clip-path-7);}.cls-19{mask:url(#mask-2);}.cls-20{fill:url(#Gradient_bez_nazwy_56);}.cls-21{font-size:12px;font-family:MyriadPro-Regular, Myriad Pro;}.cls-24{clip-path:url(#clip-path-8);}.cls-25{fill:url(#Gradient_bez_nazwy_54-3);}.cls-26{clip-path:url(#clip-path-9);}.cls-27{fill:url(#Gradient_bez_nazwy_54-4);}.cls-28{mask:url(#mask-3);}.cls-29{clip-path:url(#clip-path-11);}.cls-30{fill:url(#Gradient_bez_nazwy_55-2);}.cls-31{clip-path:url(#clip-path-12);}.cls-32{mask:url(#mask-4);}.cls-33{fill:url(#Gradient_bez_nazwy_56-2);}</style><clipPath id="clip-path"><rect class="cls-2" x="19.2" y="34.78" width="30.9" height="30.9"/></clipPath><linearGradient id="Gradient_bez_nazwy" x1="-1008.09" y1="484.3" x2="-1006.13" y2="484.3" gradientTransform="matrix(0, 9.08, 9.08, 0, -4371.98, 9179.26)" gradientUnits="userSpaceOnUse"><stop offset="0" stop-color="#fff"/><stop offset="1"/></linearGradient><clipPath id="clip-path-3"><path class="cls-6" d="M13.62,43.88a12,12,0,1,0,12-12,12,12,0,0,0-12,12"/></clipPath><linearGradient id="Gradient_bez_nazwy_54" x1="-1024.33" y1="335.87" x2="-1020.87" y2="335.87" gradientTransform="matrix(7.96, -13.38, -13.38, -7.96, 12656.48, -10961.14)" gradientUnits="userSpaceOnUse"><stop offset="0" stop-color="#d6007f"/><stop offset="0.46" stop-color="#c10074"/><stop offset="1" stop-color="#a80067"/></linearGradient><clipPath id="clip-path-4"><path class="cls-6" d="M15.12,43.88A10.45,10.45,0,1,0,25.57,33.43,10.45,10.45,0,0,0,15.12,43.88"/></clipPath><linearGradient id="Gradient_bez_nazwy_54-2" x1="-1120.94" y1="443.36" x2="-1117.27" y2="443.36" gradientTransform="matrix(-6.96, 11.69, 11.69, 6.96, -12941.04, 10042.24)" xlink:href="#Gradient_bez_nazwy_54"/><mask id="mask" x="-20.01" y="-4.43" width="109.31" height="109.31" maskUnits="userSpaceOnUse"><g class="cls-1"><rect x="17.33" y="32.92" width="34.63" height="34.63"/><g class="cls-3"><path class="cls-4" d="M36.41,42.8a9.34,9.34,0,1,1-9.34-9.34,9.34,9.34,0,0,1,9.34,9.34"/></g></g></mask><clipPath id="clip-path-5"><rect class="cls-2" x="19.2" y="34.78" width="30.9" height="30.9"/></clipPath><clipPath id="clip-path-6"><path class="cls-6" d="M44.58,38.41A15.44,15.44,0,1,1,22.82,40.3a15.44,15.44,0,0,1,21.76-1.89"/></clipPath><linearGradient id="Gradient_bez_nazwy_55" x1="-907.77" y1="352.33" x2="-904.73" y2="352.33" gradientTransform="matrix(5.88, -2.46, -2.46, -5.88, 6229.99, -108.65)" gradientUnits="userSpaceOnUse"><stop offset="0" stop-color="#ca0079"/><stop offset="1" stop-color="#b7006f"/></linearGradient><clipPath id="clip-path-7"><path class="cls-6" d="M22.55,35.15c-4.22,1.58-6.81,5.08-5.78,7.83s5.28,3.69,9.5,2.12S33.07,40,32,37.27c-.68-1.84-2.83-2.88-5.45-2.88a11.79,11.79,0,0,0-4,.76"/></clipPath><mask id="mask-2" x="-15.38" y="0.75" width="79.57" height="79.56" maskUnits="userSpaceOnUse"><rect class="cls-5" x="13.88" y="30.14" width="21.05" height="20.79" transform="translate(-21.06 27.46) rotate(-42.9)"/></mask><linearGradient id="Gradient_bez_nazwy_56" x1="-1009.74" y1="484.3" x2="-1005.42" y2="484.3" gradientTransform="matrix(6.18, 6.65, 6.65, -6.18, 3025.25, 9727.61)" gradientUnits="userSpaceOnUse"><stop offset="0" stop-color="#fff"/><stop offset="1" stop-color="#fff"/></linearGradient><clipPath id="clip-path-8"><path class="cls-2" d="M13.62,43.88a12,12,0,1,0,12-12,12,12,0,0,0-12,12"/></clipPath><linearGradient id="Gradient_bez_nazwy_54-3" x1="-1023.52" y1="335.87" x2="-1021.56" y2="335.87" gradientTransform="matrix(15.57, 0, 0, -15.57, 15941.46, 5272.18)" xlink:href="#Gradient_bez_nazwy_54"/><clipPath id="clip-path-9"><path class="cls-2" d="M15.12,43.88A10.45,10.45,0,1,0,25.57,33.43,10.45,10.45,0,0,0,15.12,43.88"/></clipPath><linearGradient id="Gradient_bez_nazwy_54-4" x1="-1120.01" y1="443.36" x2="-1118.05" y2="443.36" gradientTransform="matrix(-13.6, 0, 0, 13.6, -15196.81, -5987.63)" xlink:href="#Gradient_bez_nazwy_54"/><mask id="mask-3" x="4.99" y="20.58" width="59.31" height="59.31" maskUnits="userSpaceOnUse"><g class="cls-1"><rect x="17.33" y="32.92" width="34.63" height="34.63"/><g class="cls-3"><path class="cls-4" d="M36.41,42.8a9.34,9.34,0,1,1-9.34-9.34,9.34,9.34,0,0,1,9.34,9.34"/></g></g></mask><clipPath id="clip-path-11"><path class="cls-2" d="M44.58,38.41A15.44,15.44,0,1,1,22.82,40.3a15.44,15.44,0,0,1,21.76-1.89"/></clipPath><linearGradient id="Gradient_bez_nazwy_55-2" x1="-907.06" y1="352.33" x2="-905.1" y2="352.33" gradientTransform="matrix(6.38, 0, 0, -6.38, 5810.45, 2296.9)" xlink:href="#Gradient_bez_nazwy_55"/><clipPath id="clip-path-12"><path class="cls-2" d="M22.55,35.15c-4.22,1.58-6.81,5.08-5.78,7.83s5.28,3.69,9.5,2.12S33.07,40,32,37.27c-.68-1.84-2.83-2.88-5.45-2.88a11.79,11.79,0,0,0-4,.76"/></clipPath><mask id="mask-4" x="9.62" y="25.75" width="29.57" height="29.56" maskUnits="userSpaceOnUse"><rect class="cls-5" x="13.88" y="30.14" width="21.05" height="20.79" transform="translate(-21.06 27.46) rotate(-42.9)"/></mask><linearGradient id="Gradient_bez_nazwy_56-2" x1="-1008.09" y1="484.3" x2="-1006.13" y2="484.3" gradientTransform="matrix(0, 9.08, 9.08, 0, -4371.98, 9179.26)" xlink:href="#Gradient_bez_nazwy_56"/></defs><title>zmniejszenie_zmeczenia</title><g id="Warstwa_3" data-name="Warstwa 3"><path class="cls-7" d="M48.32,49.65l7.09-10.11v-.1H49V35.89H61v2.46L54.1,48.29v.1h7v3.55H48.32Z"/><path class="cls-7" d="M63.15,44.22c0-1.57,0-2.9-.1-4h3.6l.16,1.47h.1A4.1,4.1,0,0,1,70.38,40a3.23,3.23,0,0,1,3.17,1.88h0a4.85,4.85,0,0,1,1.61-1.4A4.46,4.46,0,0,1,77.29,40c2.52,0,4,1.84,4,5.1v6.88H77.1V45.7c0-1.45-.43-2.28-1.39-2.28a1.32,1.32,0,0,0-1.3,1,2.4,2.4,0,0,0-.12.85v6.67H70.12V45.58c0-1.31-.4-2.16-1.38-2.16a1.44,1.44,0,0,0-1.31.95,2.92,2.92,0,0,0-.12.88v6.69H63.15Z"/><path class="cls-7" d="M83.86,44.22c0-1.57,0-2.9-.1-4h3.71l.2,1.5h.07A4.26,4.26,0,0,1,91.26,40C94,40,95.5,41.82,95.5,45v6.91H91.19V45.56c0-1.36-.45-2.14-1.5-2.14a1.49,1.49,0,0,0-1.41,1,2.46,2.46,0,0,0-.11.86v6.64H83.86Z"/><path class="cls-7" d="M102.47,37a2,2,0,0,1-2.21,2,2,2,0,1,1,2.21-2ZM98.11,51.94V40.23h4.31V51.94Z"/><path class="cls-7" d="M108.59,47.58c.14.93,1.47,1.45,3,1.45a10.47,10.47,0,0,0,3.19-.45l.54,2.88a12,12,0,0,1-4.38.74c-4.11,0-6.45-2.29-6.45-6A6,6,0,0,1,110.56,40c3.79,0,5.41,2.79,5.41,6a7.71,7.71,0,0,1-.17,1.62Zm3.43-2.9a1.73,1.73,0,0,0-1.67-1.91,1.93,1.93,0,0,0-1.81,1.91Z"/><path class="cls-7" d="M115.71,53.75a3.31,3.31,0,0,0,2.07-.72c.52-.5.69-1.43.69-3.57V40.23h4.3V50.37c0,2.66-.64,4.26-1.76,5.23a7.43,7.43,0,0,1-4.9,1.48ZM122.8,37a2.05,2.05,0,0,1-2.22,2,2,2,0,1,1,2.22-2Z"/><path class="cls-7" d="M125.44,48.34a7.65,7.65,0,0,0,3.24.88c.93,0,1.28-.19,1.28-.64s-.26-.62-1.52-1C125.85,46.75,125,45.34,125,44c0-2.34,2-4,5.09-4a9.23,9.23,0,0,1,3.48.67l-.69,2.9a6.83,6.83,0,0,0-2.6-.64c-.73,0-1.16.19-1.16.67s.38.62,1.76,1.07c2.31.76,3.19,1.95,3.21,3.64,0,2.24-1.74,3.93-5.35,3.93a9.16,9.16,0,0,1-4-.84Z"/><path class="cls-7" d="M135.32,49.48l3-3.64c.74-.83,1.28-1.42,2-2.16v0H135.7v-3.4h9.86V42.8l-2.81,3.4c-.69.81-1.36,1.59-2.07,2.29v0h5.09v3.41H135.32Z"/><path class="cls-7" d="M151,47.58c.14.93,1.47,1.45,3,1.45a10.36,10.36,0,0,0,3.18-.45l.55,2.88a12,12,0,0,1-4.38.74c-4.12,0-6.45-2.29-6.45-6A6,6,0,0,1,153,40c3.79,0,5.4,2.79,5.4,6a7.86,7.86,0,0,1-.16,1.62Zm3.42-2.9a1.72,1.72,0,0,0-1.66-1.91A1.93,1.93,0,0,0,151,44.68Z"/><path class="cls-7" d="M160.31,44.22c0-1.57,0-2.9-.09-4h3.71l.19,1.5h.07A4.26,4.26,0,0,1,167.72,40C170.45,40,172,41.82,172,45v6.91h-4.31V45.56c0-1.36-.45-2.14-1.5-2.14a1.48,1.48,0,0,0-1.4,1,2.45,2.45,0,0,0-.12.86v6.64h-4.31Z"/><path class="cls-7" d="M178.93,37a2.05,2.05,0,0,1-2.22,2,2,2,0,1,1,2.22-2Zm-4.36,14.93V40.23h4.31V51.94Z"/><path class="cls-7" d="M185,47.58c.15.93,1.48,1.45,3,1.45a10.39,10.39,0,0,0,3.19-.45l.55,2.88a12,12,0,0,1-4.38.74c-4.12,0-6.45-2.29-6.45-6A6,6,0,0,1,187,40c3.79,0,5.4,2.79,5.4,6a7.86,7.86,0,0,1-.16,1.62Zm3.43-2.9a1.72,1.72,0,0,0-1.66-1.91A1.93,1.93,0,0,0,185,44.68Z"/><path class="cls-8" d="M205.24,49.86c0,.79,0,1.48.06,2.08h-1.23L204,50.7h0a2.89,2.89,0,0,1-2.52,1.41c-1.19,0-2.62-.66-2.62-3.33V44.33h1.38v4.21c0,1.45.44,2.42,1.7,2.42a2,2,0,0,0,1.82-1.25,2,2,0,0,0,.13-.71V44.33h1.38Z"/><path class="cls-8" d="M213,51.65a5,5,0,0,1-2.18.44A3.61,3.61,0,0,1,207,48.21a3.86,3.86,0,0,1,4.08-4,4.62,4.62,0,0,1,1.92.39l-.31,1.07a3.21,3.21,0,0,0-1.61-.36A2.86,2.86,0,0,0,211,51a4,4,0,0,0,1.69-.37Z"/><path class="cls-8" d="M213.7,51.14l3.44-4.48c.33-.41.65-.77,1-1.18v0H214V44.33h5.79v.87l-3.4,4.41c-.31.43-.62.8-1,1.2v0h4.44v1.1H213.7Z"/><path class="cls-8" d="M227.65,49.86c0,.79,0,1.48.06,2.08h-1.22l-.08-1.24h0a2.89,2.89,0,0,1-2.52,1.41c-1.19,0-2.62-.66-2.62-3.33V44.33h1.38v4.21c0,1.45.44,2.42,1.7,2.42a2,2,0,0,0,1.82-1.25,2,2,0,0,0,.13-.71V44.33h1.38Z"/><path class="cls-8" d="M235.36,51.65a5,5,0,0,1-2.18.44,3.61,3.61,0,0,1-3.79-3.88,3.86,3.86,0,0,1,4.08-4,4.62,4.62,0,0,1,1.92.39l-.31,1.07a3.21,3.21,0,0,0-1.61-.36,2.86,2.86,0,0,0,0,5.71,4,4,0,0,0,1.69-.37Z"/><path class="cls-8" d="M238.52,42.2a.86.86,0,0,1-1.72,0,.84.84,0,0,1,.87-.86A.82.82,0,0,1,238.52,42.2ZM237,51.94V44.33h1.38v7.61Z"/><path class="cls-8" d="M244.86,51.94l-.11-1h-.05a2.84,2.84,0,0,1-2.32,1.13,2.17,2.17,0,0,1-2.33-2.18c0-1.84,1.64-2.85,4.58-2.83v-.16a1.57,1.57,0,0,0-1.73-1.76,3.73,3.73,0,0,0-2,.57l-.32-.91a4.71,4.71,0,0,1,2.5-.68c2.33,0,2.89,1.59,2.89,3.11v2.84a10.22,10.22,0,0,0,.13,1.83Zm-.2-3.88c-1.51,0-3.22.23-3.22,1.71a1.22,1.22,0,0,0,1.3,1.32,1.9,1.9,0,0,0,1.84-1.27,1.41,1.41,0,0,0,.08-.44Z"/><path class="cls-7" d="M48.39,78.05l3-3.64c.74-.83,1.28-1.43,2-2.17v0H48.77v-3.4h9.85v2.57l-2.8,3.4c-.69.81-1.36,1.6-2.08,2.29v0h5.1v3.4H48.39Z"/><path class="cls-7" d="M60.72,72.79c0-1.57,0-2.9-.09-4h3.59l.17,1.48h.09A4.09,4.09,0,0,1,68,68.53a3.23,3.23,0,0,1,3.16,1.88h0A4.68,4.68,0,0,1,72.79,69a4.39,4.39,0,0,1,2.07-.48c2.52,0,4,1.83,4,5.09V80.5H74.67V74.26c0-1.45-.43-2.28-1.38-2.28A1.34,1.34,0,0,0,72,73a2.49,2.49,0,0,0-.12.86V80.5H67.69V74.15c0-1.31-.4-2.17-1.38-2.17a1.44,1.44,0,0,0-1.31,1,3,3,0,0,0-.12.88V80.5H60.72Z"/><path class="cls-7" d="M91.16,85a4.57,4.57,0,0,1-2.81.91c-1.61,0-2.57-.84-2.57-2.12a4.29,4.29,0,0,1,1.55-2.95v0h-.17c-4,0-6.3-2.31-6.3-6a6,6,0,0,1,6.07-6.23c3.78,0,5.4,2.78,5.4,6a8.2,8.2,0,0,1-.14,1.62H85c.14.92,1.48,1.45,3,1.45a10.69,10.69,0,0,0,3.21-.45L91.69,80c-.34.14-.69.23-1,.35-.83.41-2,1.45-2,2.17a.69.69,0,0,0,.76.69,2.4,2.4,0,0,0,1-.24ZM88.38,73.24a1.72,1.72,0,0,0-1.64-1.9,1.93,1.93,0,0,0-1.84,1.9Z"/><path class="cls-7" d="M103.26,80.24a8.34,8.34,0,0,1-3.22.5c-3.9,0-6.35-2.29-6.35-6,0-3.35,2.31-6.21,6.88-6.21a9,9,0,0,1,2.69.4l-.6,3.15a4.78,4.78,0,0,0-1.86-.29,2.59,2.59,0,0,0-2.71,2.78,2.65,2.65,0,0,0,2.83,2.84,5.07,5.07,0,0,0,1.88-.31Z"/><path class="cls-7" d="M104.28,78.05l3-3.64c.74-.83,1.28-1.43,2-2.17v0h-4.62v-3.4h9.85v2.57l-2.8,3.4c-.69.81-1.36,1.6-2.08,2.29v0h5.1v3.4H104.28Z"/><path class="cls-7" d="M119.94,76.15c.15.92,1.48,1.45,3,1.45a10.43,10.43,0,0,0,3.19-.45l.55,2.88a12.29,12.29,0,0,1-4.38.73c-4.12,0-6.45-2.28-6.45-6a6,6,0,0,1,6.07-6.23c3.78,0,5.4,2.78,5.4,6a7.08,7.08,0,0,1-.17,1.62Zm3.43-2.91a1.72,1.72,0,0,0-1.67-1.9,1.91,1.91,0,0,0-1.8,1.9Z"/><path class="cls-7" d="M129.25,72.79c0-1.57-.05-2.9-.09-4h3.71l.19,1.5h.07a4.26,4.26,0,0,1,3.52-1.76c2.74,0,4.24,1.86,4.24,5.07v6.9h-4.31V74.12c0-1.35-.45-2.14-1.5-2.14a1.48,1.48,0,0,0-1.4,1,2.27,2.27,0,0,0-.12.86V80.5h-4.31Z"/><path class="cls-7" d="M147.86,65.58a2.19,2.19,0,1,1-2.19-2A2,2,0,0,1,147.86,65.58ZM143.51,80.5V68.79h4.31V80.5Z"/><path class="cls-7" d="M160.86,77.65a16.91,16.91,0,0,0,.19,2.85h-3.86l-.21-1h-.09a4.12,4.12,0,0,1-3.24,1.28,3.67,3.67,0,0,1-3.88-3.69c0-3.14,2.83-4.54,6.81-4.54v-.1c0-.47-.36-1-1.93-1a7.43,7.43,0,0,0-3.31.86l-.74-2.69a10.5,10.5,0,0,1,4.86-1.07c4,0,5.4,2.24,5.4,5.16Zm-4.14-2.5c-1.76,0-2.74.47-2.74,1.52a1.07,1.07,0,0,0,1.22,1.12,1.59,1.59,0,0,0,1.47-1.1,2.17,2.17,0,0,0,.05-.59Z"/><path class="cls-8" d="M174.93,76.64a3.71,3.71,0,0,1-3.78,4,3.61,3.61,0,0,1-3.65-3.91,3.71,3.71,0,0,1,3.77-4A3.6,3.6,0,0,1,174.93,76.64Zm-6,.08c0,1.66,1,2.92,2.31,2.92s2.31-1.24,2.31-3c0-1.29-.65-2.93-2.28-2.93S168.9,75.27,168.9,76.72Z"/><path class="cls-7" d="M180.64,80.5V77.91L182.78,76c3.14-2.72,4.73-4.34,4.76-5.91,0-1.11-.74-1.92-2.31-1.92a5.84,5.84,0,0,0-3.31,1.26l-1.17-3.07a9.33,9.33,0,0,1,5.34-1.62c3.59,0,5.73,2,5.73,5,0,2.47-1.76,4.47-3.59,6l-1.53,1.19v0h5.38V80.5Z"/><path class="cls-7" d="M195.37,77.41a12.08,12.08,0,0,0,1.52,0,6.39,6.39,0,0,0,3-.71,4,4,0,0,0,1.91-2.34l-.05,0a4,4,0,0,1-2.85.88,4.7,4.7,0,0,1-4.93-4.85A5.76,5.76,0,0,1,200,64.77c4.33,0,6.16,3.26,6.16,6.71,0,3.17-1,5.5-2.74,7.07a9.69,9.69,0,0,1-6.52,2.19,13.88,13.88,0,0,1-1.52,0Zm2.81-7.31c0,1.09.55,2.14,1.83,2.14a1.74,1.74,0,0,0,1.57-.74,2,2,0,0,0,.17-1c0-1.22-.45-2.67-1.88-2.67C198.92,67.86,198.15,68.74,198.18,70.1Z"/><path class="cls-7" d="M216.55,69.36c0,3.24-2.19,5-4.54,5a4.39,4.39,0,0,1-4.45-4.69c0-2.64,1.69-4.88,4.59-4.88A4.25,4.25,0,0,1,216.55,69.36Zm-5.85.19c0,1.48.45,2.5,1.4,2.5s1.31-.86,1.31-2.5c0-1.43-.35-2.5-1.35-2.5S210.7,68.15,210.7,69.55Zm1.64,11.21,8.81-15.94h2.19l-8.78,15.94Zm15.83-5c0,3.21-2.19,4.95-4.55,4.95a4.39,4.39,0,0,1-4.45-4.69,4.55,4.55,0,0,1,4.6-4.86A4.27,4.27,0,0,1,228.17,75.79Zm-5.85.19c0,1.47.45,2.47,1.4,2.47S225,77.6,225,76c0-1.45-.36-2.5-1.36-2.5S222.32,74.57,222.32,76Z"/><path class="cls-8" d="M49.51,95.59l1,3.86c.22.85.42,1.63.56,2.42h.05c.17-.77.43-1.59.68-2.4l1.24-3.88h1.16l1.18,3.8c.28.91.5,1.71.67,2.48h0a24.6,24.6,0,0,1,.58-2.47l1.08-3.81h1.37l-2.45,7.6H55.44l-1.17-3.63c-.26-.85-.48-1.6-.67-2.5h0a22.55,22.55,0,0,1-.7,2.52l-1.22,3.61H50.39l-2.29-7.6Z"/><path class="cls-8" d="M66.92,95.59c0,.55-.07,1.16-.07,2.09v4.41c0,1.74-.34,2.81-1.08,3.47a4,4,0,0,1-2.77.91,4.85,4.85,0,0,1-2.52-.63l.34-1a4.32,4.32,0,0,0,2.23.6c1.42,0,2.45-.74,2.45-2.66v-.84h0a2.72,2.72,0,0,1-2.42,1.27c-1.88,0-3.23-1.6-3.23-3.71,0-2.57,1.68-4,3.42-4a2.54,2.54,0,0,1,2.37,1.32h0l.07-1.14Zm-1.43,3a2,2,0,0,0-.08-.63,2,2,0,0,0-1.93-1.46c-1.32,0-2.27,1.11-2.27,2.87,0,1.49.76,2.73,2.25,2.73a2,2,0,0,0,1.92-1.41,2.33,2.33,0,0,0,.11-.74Z"/><path class="cls-8" d="M72.29,101.78a3.66,3.66,0,0,0,1.82.54c1,0,1.47-.5,1.47-1.13s-.39-1-1.41-1.39c-1.37-.49-2-1.24-2-2.16a2.35,2.35,0,0,1,2.62-2.23,3.69,3.69,0,0,1,1.87.48l-.34,1a3,3,0,0,0-1.56-.44c-.81,0-1.27.47-1.27,1s.46.91,1.45,1.29c1.31.5,2,1.16,2,2.29,0,1.33-1,2.28-2.84,2.28a4.36,4.36,0,0,1-2.14-.52Z"/><path class="cls-8" d="M80.06,99.07h0c.19-.26.46-.59.68-.86L83,95.59h1.66l-2.94,3.12,3.35,4.48H83.39l-2.62-3.65-.71.79v2.86H78.69V92h1.37Z"/><path class="cls-8" d="M90.55,103.19l-.11-1h0a2.81,2.81,0,0,1-2.32,1.13,2.17,2.17,0,0,1-2.33-2.18c0-1.84,1.64-2.84,4.58-2.83v-.16a1.58,1.58,0,0,0-1.73-1.76,3.83,3.83,0,0,0-2,.57l-.31-.91a4.65,4.65,0,0,1,2.49-.68c2.33,0,2.89,1.59,2.89,3.11v2.85a10.11,10.11,0,0,0,.13,1.82Zm-.2-3.88c-1.51,0-3.22.23-3.22,1.71a1.22,1.22,0,0,0,1.3,1.32,1.9,1.9,0,0,0,1.84-1.27,1.36,1.36,0,0,0,.08-.44Z"/><path class="cls-8" d="M93.91,92h1.38v11.15H93.91Z"/><path class="cls-8" d="M99.16,93.45a.86.86,0,0,1-1.71,0,.84.84,0,0,1,.86-.86A.82.82,0,0,1,99.16,93.45Zm-1.54,9.74v-7.6H99v7.6Z"/><path class="cls-8" d="M106.43,103.19,103,92.6h1.48l1.65,5.22c.45,1.43.85,2.71,1.13,4h0c.3-1.23.74-2.57,1.21-4l1.79-5.23h1.46l-3.78,10.59Z"/><path class="cls-8" d="M113.7,99.86l-1.1,3.33h-1.41l3.59-10.59h1.65l3.62,10.59h-1.47l-1.13-3.33Zm3.47-1.07-1-3.05c-.24-.69-.4-1.32-.55-1.93h0c-.15.63-.33,1.27-.53,1.92l-1,3.06Z"/><path class="cls-8" d="M121.41,101.52a4.81,4.81,0,0,0,2.45.69c1.4,0,2.22-.73,2.22-1.8s-.57-1.56-2-2.11c-1.73-.61-2.79-1.5-2.79-3s1.36-2.87,3.42-2.87a4.78,4.78,0,0,1,2.34.52l-.38,1.11a4.29,4.29,0,0,0-2-.5c-1.44,0-2,.86-2,1.59,0,1,.64,1.47,2.1,2,1.79.69,2.7,1.55,2.7,3.11s-1.21,3-3.7,3a5.42,5.42,0,0,1-2.7-.68Z"/><path class="cls-8" d="M139,101.12c0,.78,0,1.47.06,2.07h-1.23l-.08-1.24h0a2.86,2.86,0,0,1-2.51,1.41c-1.19,0-2.62-.66-2.62-3.33V95.59H134V99.8c0,1.44.44,2.41,1.7,2.41a2,2,0,0,0,1.82-1.25,2,2,0,0,0,.12-.71V95.59H139Z"/><path class="cls-8" d="M146,99.07h0c.18-.26.45-.59.67-.86l2.23-2.62h1.67l-2.94,3.12,3.34,4.48H149.3l-2.62-3.65-.71.79v2.86h-1.36V92H146Z"/><path class="cls-8" d="M158.85,99.32a3.71,3.71,0,0,1-3.78,4,3.62,3.62,0,0,1-3.65-3.91,3.72,3.72,0,0,1,3.77-4A3.6,3.6,0,0,1,158.85,99.32Zm-6,.08c0,1.67,1,2.92,2.31,2.92s2.31-1.24,2.31-2.95c0-1.29-.64-2.92-2.28-2.92S152.82,98,152.82,99.4Z"/><path class="cls-8" d="M160.53,103.19c0-.52.07-1.29.07-2V92H162v4.77h0a2.84,2.84,0,0,1,2.59-1.4c1.89,0,3.22,1.58,3.21,3.88,0,2.72-1.71,4.07-3.41,4.07a2.69,2.69,0,0,1-2.54-1.43h-.05l-.06,1.26Zm1.43-3a2.63,2.63,0,0,0,.06.5,2.14,2.14,0,0,0,2.08,1.62c1.44,0,2.31-1.18,2.31-2.92,0-1.52-.79-2.83-2.27-2.83a2.2,2.2,0,0,0-2.1,1.7,2.89,2.89,0,0,0-.08.57Z"/><path class="cls-8" d="M171.07,93.45a.86.86,0,0,1-1.71,0,.84.84,0,0,1,.86-.86A.82.82,0,0,1,171.07,93.45Zm-1.54,9.74v-7.6h1.38v7.6Z"/><path class="cls-8" d="M174,99.64a2.43,2.43,0,0,0,2.6,2.64,5.2,5.2,0,0,0,2.11-.39l.23,1a6.1,6.1,0,0,1-2.53.48,3.53,3.53,0,0,1-3.73-3.84c0-2.29,1.35-4.1,3.56-4.1,2.48,0,3.14,2.19,3.14,3.59,0,.28,0,.5,0,.64Zm4.05-1a2,2,0,0,0-1.92-2.25A2.29,2.29,0,0,0,174,98.65Z"/><path class="cls-8" d="M182.74,93.4v2.19h2v1h-2v4.1c0,.94.27,1.47,1,1.47a3,3,0,0,0,.8-.09l.06,1a3.4,3.4,0,0,1-1.23.19,1.91,1.91,0,0,1-1.49-.59,2.8,2.8,0,0,1-.53-2V96.64h-1.18v-1h1.18V93.77Z"/><path class="cls-8" d="M188.74,102.39l3.44-4.48c.33-.41.64-.77,1-1.18v0h-4.12V95.59h5.8l0,.86-3.39,4.41c-.31.43-.63.81-1,1.2v0h4.44v1.1h-6.17Z"/><path class="cls-8" d="M199.65,97.64c0-.78,0-1.43-.06-2h1.23l.07,1.25h0a2.78,2.78,0,0,1,2.51-1.43c1.05,0,2.68.63,2.68,3.24v4.54h-1.38V98.81c0-1.23-.45-2.25-1.76-2.25A2,2,0,0,0,201.13,98a2.13,2.13,0,0,0-.09.65v4.57h-1.39Z"/><path class="cls-8" d="M209.91,93.45a.86.86,0,0,1-1.71,0,.84.84,0,0,1,.86-.86A.82.82,0,0,1,209.91,93.45Zm-1.54,9.74v-7.6h1.38v7.6Z"/><path class="cls-8" d="M211.86,101.78a3.66,3.66,0,0,0,1.82.54c1,0,1.47-.5,1.47-1.13s-.39-1-1.41-1.39c-1.37-.49-2-1.24-2-2.16a2.35,2.35,0,0,1,2.62-2.23,3.69,3.69,0,0,1,1.87.48l-.34,1a3,3,0,0,0-1.56-.44c-.82,0-1.27.47-1.27,1s.45.91,1.44,1.29c1.32.5,2,1.16,2,2.29,0,1.33-1,2.28-2.84,2.28a4.36,4.36,0,0,1-2.14-.52Z"/><path class="cls-8" d="M219.63,99.07h0c.19-.26.46-.59.68-.86l2.23-2.62h1.66l-2.94,3.12,3.35,4.48H223l-2.62-3.65-.71.79v2.86h-1.37V92h1.37Z"/><path class="cls-8" d="M225.87,96.09a4.65,4.65,0,0,1,2.49-.68c2.33,0,2.89,1.59,2.89,3.11v2.85a9.7,9.7,0,0,0,.13,1.82H231a2.88,2.88,0,0,0-.62,1.51.7.7,0,0,0,.76.78,1.59,1.59,0,0,0,.72-.16l.22.73a2.33,2.33,0,0,1-1.3.37,1.27,1.27,0,0,1-1.4-1.33,3.81,3.81,0,0,1,.75-2l-.11-.91h0a2.81,2.81,0,0,1-2.32,1.13,2.17,2.17,0,0,1-2.33-2.18c0-1.84,1.64-2.84,4.58-2.83v-.16a1.58,1.58,0,0,0-1.73-1.76,3.83,3.83,0,0,0-2,.57Zm4,3.22c-1.51,0-3.22.23-3.22,1.71a1.22,1.22,0,0,0,1.3,1.32,1.9,1.9,0,0,0,1.84-1.27,1.36,1.36,0,0,0,.08-.44Z"/><path class="cls-8" d="M49,114.72h1.39v11.15H49Z"/><path class="cls-8" d="M59,123.79c0,.79,0,1.48.06,2.08H57.87l-.08-1.24h0A2.86,2.86,0,0,1,55.25,126c-1.2,0-2.63-.66-2.63-3.33v-4.44H54v4.2c0,1.45.43,2.42,1.69,2.42a2,2,0,0,0,1.82-1.25,2,2,0,0,0,.13-.71v-4.66H59Z"/><path class="cls-8" d="M61.26,125.87c0-.52.06-1.29.06-2v-9.18h1.37v4.77h0a2.84,2.84,0,0,1,2.59-1.4c1.89,0,3.22,1.57,3.21,3.88,0,2.72-1.71,4.07-3.41,4.07a2.73,2.73,0,0,1-2.55-1.43h0l-.07,1.26Zm1.43-3.05a2.73,2.73,0,0,0,.06.5,2.14,2.14,0,0,0,2.08,1.62c1.44,0,2.3-1.18,2.3-2.92,0-1.53-.78-2.83-2.26-2.83a2.2,2.2,0,0,0-2.1,1.7,2.68,2.68,0,0,0-.08.56Z"/><path class="cls-8" d="M80.14,118.27c0,.54-.06,1.16-.06,2.08v4.42c0,1.74-.35,2.81-1.09,3.47a4,4,0,0,1-2.76.91,4.89,4.89,0,0,1-2.53-.63l.35-1.05a4.29,4.29,0,0,0,2.23.6c1.41,0,2.45-.74,2.45-2.66v-.85h0a2.69,2.69,0,0,1-2.41,1.27c-1.89,0-3.24-1.6-3.24-3.7,0-2.58,1.68-4,3.42-4a2.54,2.54,0,0,1,2.38,1.32h0l.06-1.14Zm-1.43,3a2,2,0,0,0-2-2.08c-1.32,0-2.26,1.11-2.26,2.87,0,1.49.75,2.73,2.24,2.73a2,2,0,0,0,1.92-1.41,2.37,2.37,0,0,0,.11-.74Z"/><path class="cls-8" d="M82.29,120.64c0-.9,0-1.67-.06-2.37h1.21l0,1.49h.07a2.28,2.28,0,0,1,2.1-1.67,1.48,1.48,0,0,1,.39,0v1.3a2.17,2.17,0,0,0-.47,0,1.93,1.93,0,0,0-1.85,1.77,4.1,4.1,0,0,0-.06.64v4.06H82.29Z"/><path class="cls-8" d="M91.57,125.87l-.11-1h0A2.84,2.84,0,0,1,89.09,126a2.16,2.16,0,0,1-2.32-2.18c0-1.84,1.63-2.85,4.57-2.83v-.16a1.57,1.57,0,0,0-1.73-1.76,3.73,3.73,0,0,0-2,.57l-.31-.91a4.65,4.65,0,0,1,2.49-.68c2.33,0,2.89,1.59,2.89,3.11V124a10.22,10.22,0,0,0,.13,1.83Zm-.2-3.88c-1.51,0-3.22.23-3.22,1.71a1.22,1.22,0,0,0,1.3,1.32,1.9,1.9,0,0,0,1.84-1.27,1.41,1.41,0,0,0,.08-.44Z"/><path class="cls-8" d="M94.93,120.32c0-.78,0-1.43-.06-2h1.22l.08,1.25h0a2.81,2.81,0,0,1,2.52-1.43c1,0,2.68.63,2.68,3.24v4.54H100v-4.39c0-1.22-.45-2.24-1.76-2.24a2,2,0,0,0-1.85,1.41,2.06,2.06,0,0,0-.1.65v4.57H94.93Z"/><path class="cls-8" d="M105.19,116.13a.86.86,0,0,1-1.71,0,.84.84,0,0,1,.86-.86A.82.82,0,0,1,105.19,116.13Zm-1.54,9.74v-7.6H105v7.6Z"/><path class="cls-8" d="M112.74,125.58a5,5,0,0,1-2.18.44,3.61,3.61,0,0,1-3.79-3.88,3.86,3.86,0,0,1,4.09-4,4.57,4.57,0,0,1,1.91.39l-.31,1.07a3.19,3.19,0,0,0-1.6-.36,2.86,2.86,0,0,0,0,5.71,4,4,0,0,0,1.7-.37Z"/><path class="cls-8" d="M113.5,125.07l3.44-4.48c.33-.41.64-.77,1-1.18v0h-4.12v-1.11h5.8l0,.86-3.39,4.41c-.32.43-.63.8-1,1.2v0h4.45v1.1H113.5Z"/><path class="cls-8" d="M121.08,120.32c0-.78,0-1.43-.06-2h1.22l.08,1.25h0a2.81,2.81,0,0,1,2.52-1.43c1,0,2.68.63,2.68,3.24v4.54h-1.38v-4.39c0-1.22-.46-2.24-1.76-2.24a2,2,0,0,0-1.85,1.41,1.81,1.81,0,0,0-.1.65v4.57h-1.38Z"/><path class="cls-8" d="M129.75,118.77a4.71,4.71,0,0,1,2.5-.68c2.32,0,2.89,1.59,2.89,3.11V124a10.85,10.85,0,0,0,.12,1.83h-.39a2.93,2.93,0,0,0-.61,1.5.7.7,0,0,0,.75.79,1.53,1.53,0,0,0,.72-.16l.22.72a2.27,2.27,0,0,1-1.3.38,1.28,1.28,0,0,1-1.4-1.33,3.73,3.73,0,0,1,.76-2l-.11-.91h-.05a2.84,2.84,0,0,1-2.32,1.13,2.17,2.17,0,0,1-2.33-2.18c0-1.84,1.63-2.85,4.57-2.83v-.16a1.57,1.57,0,0,0-1.73-1.76,3.79,3.79,0,0,0-2,.57ZM133.8,122c-1.5,0-3.22.23-3.22,1.71a1.23,1.23,0,0,0,1.31,1.32,1.88,1.88,0,0,0,1.83-1.27,1.41,1.41,0,0,0,.08-.44Z"/><path class="cls-8" d="M140.84,125.87v-6.55h-1.07v-1h1.07v-.37a3.56,3.56,0,0,1,.88-2.65,2.66,2.66,0,0,1,1.85-.71,3.22,3.22,0,0,1,1.18.22l-.19,1.07a2.13,2.13,0,0,0-.88-.17c-1.18,0-1.48,1-1.48,2.2v.41H144v1H142.2v6.55Z"/><path class="cls-8" d="M145.86,122.32a2.44,2.44,0,0,0,2.61,2.64,5,5,0,0,0,2.11-.4l.23,1a6.18,6.18,0,0,1-2.53.47,3.53,3.53,0,0,1-3.74-3.83c0-2.29,1.35-4.1,3.57-4.1,2.48,0,3.14,2.19,3.14,3.58a4.38,4.38,0,0,1-.05.65Zm4.06-1a2,2,0,0,0-1.92-2.25,2.29,2.29,0,0,0-2.12,2.25Z"/><path class="cls-8" d="M153,120.64c0-.9,0-1.67-.06-2.37h1.21l0,1.49h.06a2.28,2.28,0,0,1,2.1-1.67,1.62,1.62,0,0,1,.4,0v1.3a2.33,2.33,0,0,0-.48,0,1.93,1.93,0,0,0-1.85,1.77,4.1,4.1,0,0,0-.06.64v4.06H153Z"/><path class="cls-8" d="M158.15,120.64c0-.9,0-1.67-.07-2.37h1.21l.05,1.49h.06a2.29,2.29,0,0,1,2.11-1.67,1.6,1.6,0,0,1,.39,0v1.3a2.17,2.17,0,0,0-.47,0,1.93,1.93,0,0,0-1.86,1.77,4.1,4.1,0,0,0-.06.64v4.06h-1.36Z"/><path class="cls-8" d="M164.18,118.27l1.66,4.49c.17.5.36,1.1.49,1.55h0c.14-.45.3-1,.49-1.59l1.5-4.45h1.46l-2.07,5.41c-1,2.61-1.66,3.94-2.61,4.76a3.8,3.8,0,0,1-1.69.9l-.35-1.17a3.37,3.37,0,0,0,1.21-.67,4.1,4.1,0,0,0,1.16-1.54.84.84,0,0,0,.11-.33,1.22,1.22,0,0,0-.09-.36l-2.81-7Z"/><path class="cls-8" d="M172.73,116.08v2.19h2v1h-2v4.1c0,.94.27,1.47,1,1.47a3,3,0,0,0,.8-.09l.07,1a3.44,3.44,0,0,1-1.23.19,1.91,1.91,0,0,1-1.49-.58,2.83,2.83,0,0,1-.54-2v-4.14h-1.17v-1h1.17v-1.83Z"/><path class="cls-8" d="M176.91,118.27l1.67,4.49c.17.5.36,1.1.48,1.55h0c.15-.45.3-1,.49-1.59l1.51-4.45h1.46l-2.07,5.41c-1,2.61-1.67,3.94-2.61,4.76a3.82,3.82,0,0,1-1.7.9l-.34-1.17a3.45,3.45,0,0,0,1.21-.67A4.21,4.21,0,0,0,178.2,126a1,1,0,0,0,.11-.33,1.22,1.22,0,0,0-.09-.36l-2.82-7Z"/><path class="cls-8" d="M183.81,120.32c0-.78,0-1.43-.07-2H185l.08,1.25h0a2.81,2.81,0,0,1,2.51-1.43c1,0,2.69.63,2.69,3.24v4.54H188.9v-4.39c0-1.22-.46-2.24-1.76-2.24a2,2,0,0,0-1.86,1.41,2.08,2.08,0,0,0-.09.65v4.57h-1.38Z"/><path class="cls-8" d="M192.82,118.27l1.67,4.49c.17.5.36,1.1.48,1.55h0c.15-.45.3-1,.49-1.59l1.51-4.45h1.46l-2.07,5.41c-1,2.61-1.67,3.94-2.61,4.76a3.82,3.82,0,0,1-1.7.9l-.34-1.17a3.45,3.45,0,0,0,1.21-.67,4.21,4.21,0,0,0,1.16-1.54,1,1,0,0,0,.11-.33,1.22,1.22,0,0,0-.09-.36l-2.82-7Z"/><path class="cls-8" d="M204.87,111.5a7.47,7.47,0,0,0-1.43,4.64,7.65,7.65,0,0,0,1.43,4.62h-.79a7.41,7.41,0,0,1-1.48-4.62,7.52,7.52,0,0,1,1.48-4.64Z"/><path class="cls-8" d="M205.85,118.23a3.22,3.22,0,0,0,1.63.47c1.29,0,1.68-.82,1.67-1.43,0-1-.94-1.48-1.91-1.48h-.55V115h.55c.73,0,1.65-.37,1.65-1.25,0-.59-.37-1.11-1.29-1.11a2.71,2.71,0,0,0-1.48.49l-.26-.73a3.51,3.51,0,0,1,1.93-.57c1.45,0,2.11.86,2.11,1.76a1.83,1.83,0,0,1-1.36,1.74v0a1.94,1.94,0,0,1,1.65,1.9c0,1.18-.92,2.22-2.7,2.22a3.76,3.76,0,0,1-1.92-.5Z"/><path class="cls-8" d="M211.15,120.76a7.68,7.68,0,0,0,1.43-4.65,7.51,7.51,0,0,0-1.43-4.61h.78a7.26,7.26,0,0,1,1.48,4.62,7.44,7.44,0,0,1-1.48,4.64Z"/><g class="cls-9"><path class="cls-10" d="M31.28,78.85a12.5,12.5,0,0,1-6.39-1.76L-3.28,60.33A12.49,12.49,0,0,1-7.64,43.2L9.13,15a12.49,12.49,0,0,1,17.13-4.35L54.43,27.43a12.51,12.51,0,0,1,4.36,17.14L42,72.74a12.45,12.45,0,0,1-10.74,6.11Z"/><path class="cls-11" d="M19.87,21.41,48,38.18,31.28,66.35,3.11,49.59,19.87,21.41m0-25A25,25,0,0,0-1.62,8.63L-18.38,36.81a25,25,0,0,0-2.74,18.93A25,25,0,0,0-9.68,71.07L18.5,87.84a25,25,0,0,0,34.27-8.71L69.53,51a25,25,0,0,0-8.7-34.27L32.65-.07A24.93,24.93,0,0,0,19.89-3.59Z"/></g><path class="cls-6" d="M13.62,43.88a12,12,0,1,0,12-12,12,12,0,0,0-12,12"/><g class="cls-12"><path class="cls-13" d="M30.55,76a12.47,12.47,0,0,1-6.38-1.76L-.45,59.61A12.48,12.48,0,0,1-4.8,42.48L9.84,17.85A12.5,12.5,0,0,1,27,13.5L51.6,28.15A12.49,12.49,0,0,1,56,45.29L41.3,69.91A12.48,12.48,0,0,1,30.55,76Z"/><path class="cls-11" d="M20.59,24.25,45.21,38.9,30.56,63.52,5.94,48.87,20.59,24.25m0-25A25,25,0,0,0-.9,11.46L-15.55,36.09A25,25,0,0,0-6.84,70.35L17.78,85a25,25,0,0,0,34.27-8.7L66.7,51.68A25,25,0,0,0,58,17.41L33.37,2.76A24.93,24.93,0,0,0,20.61-.76Z"/></g><path class="cls-6" d="M15.12,43.88A10.45,10.45,0,1,0,25.57,33.43,10.45,10.45,0,0,0,15.12,43.88"/><g class="cls-14"><g class="cls-15"><g class="cls-16"><path class="cls-17" d="M22.5,92.38A12.48,12.48,0,0,1,11,84.71L-6.54,42.91A12.51,12.51,0,0,1,.16,26.55L42,9.05a12.39,12.39,0,0,1,4.82-1,12.48,12.48,0,0,1,11.53,7.67l17.51,41.8a12.5,12.5,0,0,1-6.7,16.36l-41.8,17.5A12.47,12.47,0,0,1,22.5,92.38Z"/><path class="cls-11" d="M46.79,20.58,64.3,62.38,22.5,79.88,5,38.08l41.8-17.5m0-25a24.9,24.9,0,0,0-9.64,1.95L-4.66,15A25,25,0,0,0-18.07,47.74L-.56,89.54a25,25,0,0,0,32.72,13.4L74,85.44a25,25,0,0,0,13.4-32.72L69.85,10.92A25,25,0,0,0,46.78-4.43Z"/></g><path class="cls-6" d="M44.58,38.41A15.44,15.44,0,1,1,22.82,40.3a15.44,15.44,0,0,1,21.76-1.89"/></g></g><g class="cls-18"><g class="cls-19"><path class="cls-20" d="M23.32,67.8a12.48,12.48,0,0,1-8.7-4L.47,48.59a12.5,12.5,0,0,1,.64-17.66L16.53,16.59A12.52,12.52,0,0,1,25,13.25h.46a12.5,12.5,0,0,1,8.7,4L48.35,32.47a12.5,12.5,0,0,1-.65,17.67L32.28,64.47a12.48,12.48,0,0,1-8.51,3.34Z"/><path class="cls-11" d="M25,25.75,39.2,41,23.77,55.31,9.62,40.08,25,25.75m0-25A24.9,24.9,0,0,0,8,7.44L-7.4,21.77A25,25,0,0,0-8.69,57.1L5.46,72.33a25,25,0,0,0,35.33,1.29L56.21,59.29A25,25,0,0,0,57.51,24L43.36,8.73A25,25,0,0,0,25,.75Z"/></g></g><path class="cls-6" d="M22.55,35.15c-4.22,1.58-6.81,5.08-5.78,7.83s5.28,3.69,9.5,2.12S33.07,40,32,37.27c-.68-1.84-2.83-2.88-5.45-2.88a11.79,11.79,0,0,0-4,.76"/><text class="cls-21" transform="translate(215 119.08)">*</text></g><g id="Warstwa_3_kopia" data-name="Warstwa 3 kopia"><path class="cls-22" d="M48.32,49.65l7.09-10.11v-.1H49V35.89H61v2.46L54.1,48.29v.1h7v3.55H48.32Z"/><path class="cls-22" d="M63.15,44.22c0-1.57,0-2.9-.1-4h3.6l.16,1.47h.1A4.1,4.1,0,0,1,70.38,40a3.23,3.23,0,0,1,3.17,1.88h0a4.85,4.85,0,0,1,1.61-1.4A4.46,4.46,0,0,1,77.29,40c2.52,0,4,1.84,4,5.1v6.88H77.1V45.7c0-1.45-.43-2.28-1.39-2.28a1.32,1.32,0,0,0-1.3,1,2.4,2.4,0,0,0-.12.85v6.67H70.12V45.58c0-1.31-.4-2.16-1.38-2.16a1.44,1.44,0,0,0-1.31.95,2.92,2.92,0,0,0-.12.88v6.69H63.15Z"/><path class="cls-22" d="M83.86,44.22c0-1.57,0-2.9-.1-4h3.71l.2,1.5h.07A4.26,4.26,0,0,1,91.26,40C94,40,95.5,41.82,95.5,45v6.91H91.19V45.56c0-1.36-.45-2.14-1.5-2.14a1.49,1.49,0,0,0-1.41,1,2.46,2.46,0,0,0-.11.86v6.64H83.86Z"/><path class="cls-22" d="M102.47,37a2,2,0,0,1-2.21,2,2,2,0,1,1,2.21-2ZM98.11,51.94V40.23h4.31V51.94Z"/><path class="cls-22" d="M108.59,47.58c.14.93,1.47,1.45,3,1.45a10.47,10.47,0,0,0,3.19-.45l.54,2.88a12,12,0,0,1-4.38.74c-4.11,0-6.45-2.29-6.45-6A6,6,0,0,1,110.56,40c3.79,0,5.41,2.79,5.41,6a7.71,7.71,0,0,1-.17,1.62Zm3.43-2.9a1.73,1.73,0,0,0-1.67-1.91,1.93,1.93,0,0,0-1.81,1.91Z"/><path class="cls-22" d="M115.71,53.75a3.31,3.31,0,0,0,2.07-.72c.52-.5.69-1.43.69-3.57V40.23h4.3V50.37c0,2.66-.64,4.26-1.76,5.23a7.43,7.43,0,0,1-4.9,1.48ZM122.8,37a2.05,2.05,0,0,1-2.22,2,2,2,0,1,1,2.22-2Z"/><path class="cls-22" d="M125.44,48.34a7.65,7.65,0,0,0,3.24.88c.93,0,1.28-.19,1.28-.64s-.26-.62-1.52-1C125.85,46.75,125,45.34,125,44c0-2.34,2-4,5.09-4a9.23,9.23,0,0,1,3.48.67l-.69,2.9a6.83,6.83,0,0,0-2.6-.64c-.73,0-1.16.19-1.16.67s.38.62,1.76,1.07c2.31.76,3.19,1.95,3.21,3.64,0,2.24-1.74,3.93-5.35,3.93a9.16,9.16,0,0,1-4-.84Z"/><path class="cls-22" d="M135.32,49.48l3-3.64c.74-.83,1.28-1.42,2-2.16v0H135.7v-3.4h9.86V42.8l-2.81,3.4c-.69.81-1.36,1.59-2.07,2.29v0h5.09v3.41H135.32Z"/><path class="cls-22" d="M151,47.58c.14.93,1.47,1.45,3,1.45a10.36,10.36,0,0,0,3.18-.45l.55,2.88a12,12,0,0,1-4.38.74c-4.12,0-6.45-2.29-6.45-6A6,6,0,0,1,153,40c3.79,0,5.4,2.79,5.4,6a7.86,7.86,0,0,1-.16,1.62Zm3.42-2.9a1.72,1.72,0,0,0-1.66-1.91A1.93,1.93,0,0,0,151,44.68Z"/><path class="cls-22" d="M160.31,44.22c0-1.57,0-2.9-.09-4h3.71l.19,1.5h.07A4.26,4.26,0,0,1,167.72,40C170.45,40,172,41.82,172,45v6.91h-4.31V45.56c0-1.36-.45-2.14-1.5-2.14a1.48,1.48,0,0,0-1.4,1,2.45,2.45,0,0,0-.12.86v6.64h-4.31Z"/><path class="cls-22" d="M178.93,37a2.05,2.05,0,0,1-2.22,2,2,2,0,1,1,2.22-2Zm-4.36,14.93V40.23h4.31V51.94Z"/><path class="cls-22" d="M185,47.58c.15.93,1.48,1.45,3,1.45a10.39,10.39,0,0,0,3.19-.45l.55,2.88a12,12,0,0,1-4.38.74c-4.12,0-6.45-2.29-6.45-6A6,6,0,0,1,187,40c3.79,0,5.4,2.79,5.4,6a7.86,7.86,0,0,1-.16,1.62Zm3.43-2.9a1.72,1.72,0,0,0-1.66-1.91A1.93,1.93,0,0,0,185,44.68Z"/><path class="cls-23" d="M205.24,49.86c0,.79,0,1.48.06,2.08h-1.23L204,50.7h0a2.89,2.89,0,0,1-2.52,1.41c-1.19,0-2.62-.66-2.62-3.33V44.33h1.38v4.21c0,1.45.44,2.42,1.7,2.42a2,2,0,0,0,1.82-1.25,2,2,0,0,0,.13-.71V44.33h1.38Z"/><path class="cls-23" d="M213,51.65a5,5,0,0,1-2.18.44A3.61,3.61,0,0,1,207,48.21a3.86,3.86,0,0,1,4.08-4,4.62,4.62,0,0,1,1.92.39l-.31,1.07a3.21,3.21,0,0,0-1.61-.36A2.86,2.86,0,0,0,211,51a4,4,0,0,0,1.69-.37Z"/><path class="cls-23" d="M213.7,51.14l3.44-4.48c.33-.41.65-.77,1-1.18v0H214V44.33h5.79v.87l-3.4,4.41c-.31.43-.62.8-1,1.2v0h4.44v1.1H213.7Z"/><path class="cls-23" d="M227.65,49.86c0,.79,0,1.48.06,2.08h-1.22l-.08-1.24h0a2.89,2.89,0,0,1-2.52,1.41c-1.19,0-2.62-.66-2.62-3.33V44.33h1.38v4.21c0,1.45.44,2.42,1.7,2.42a2,2,0,0,0,1.82-1.25,2,2,0,0,0,.13-.71V44.33h1.38Z"/><path class="cls-23" d="M235.36,51.65a5,5,0,0,1-2.18.44,3.61,3.61,0,0,1-3.79-3.88,3.86,3.86,0,0,1,4.08-4,4.62,4.62,0,0,1,1.92.39l-.31,1.07a3.21,3.21,0,0,0-1.61-.36,2.86,2.86,0,0,0,0,5.71,4,4,0,0,0,1.69-.37Z"/><path class="cls-23" d="M238.52,42.2a.86.86,0,0,1-1.72,0,.84.84,0,0,1,.87-.86A.82.82,0,0,1,238.52,42.2ZM237,51.94V44.33h1.38v7.61Z"/><path class="cls-23" d="M244.86,51.94l-.11-1h-.05a2.84,2.84,0,0,1-2.32,1.13,2.17,2.17,0,0,1-2.33-2.18c0-1.84,1.64-2.85,4.58-2.83v-.16a1.57,1.57,0,0,0-1.73-1.76,3.73,3.73,0,0,0-2,.57l-.32-.91a4.71,4.71,0,0,1,2.5-.68c2.33,0,2.89,1.59,2.89,3.11v2.84a10.22,10.22,0,0,0,.13,1.83Zm-.2-3.88c-1.51,0-3.22.23-3.22,1.71a1.22,1.22,0,0,0,1.3,1.32,1.9,1.9,0,0,0,1.84-1.27,1.41,1.41,0,0,0,.08-.44Z"/><path class="cls-22" d="M48.39,78.05l3-3.64c.74-.83,1.28-1.43,2-2.17v0H48.77v-3.4h9.85v2.57l-2.8,3.4c-.69.81-1.36,1.6-2.08,2.29v0h5.1v3.4H48.39Z"/><path class="cls-22" d="M60.72,72.79c0-1.57,0-2.9-.09-4h3.59l.17,1.48h.09A4.09,4.09,0,0,1,68,68.53a3.23,3.23,0,0,1,3.16,1.88h0A4.68,4.68,0,0,1,72.79,69a4.39,4.39,0,0,1,2.07-.48c2.52,0,4,1.83,4,5.09V80.5H74.67V74.26c0-1.45-.43-2.28-1.38-2.28A1.34,1.34,0,0,0,72,73a2.49,2.49,0,0,0-.12.86V80.5H67.69V74.15c0-1.31-.4-2.17-1.38-2.17a1.44,1.44,0,0,0-1.31,1,3,3,0,0,0-.12.88V80.5H60.72Z"/><path class="cls-22" d="M91.16,85a4.57,4.57,0,0,1-2.81.91c-1.61,0-2.57-.84-2.57-2.12a4.29,4.29,0,0,1,1.55-2.95v0h-.17c-4,0-6.3-2.31-6.3-6a6,6,0,0,1,6.07-6.23c3.78,0,5.4,2.78,5.4,6a8.2,8.2,0,0,1-.14,1.62H85c.14.92,1.48,1.45,3,1.45a10.69,10.69,0,0,0,3.21-.45L91.69,80c-.34.14-.69.23-1,.35-.83.41-2,1.45-2,2.17a.69.69,0,0,0,.76.69,2.4,2.4,0,0,0,1-.24ZM88.38,73.24a1.72,1.72,0,0,0-1.64-1.9,1.93,1.93,0,0,0-1.84,1.9Z"/><path class="cls-22" d="M103.26,80.24a8.34,8.34,0,0,1-3.22.5c-3.9,0-6.35-2.29-6.35-6,0-3.35,2.31-6.21,6.88-6.21a9,9,0,0,1,2.69.4l-.6,3.15a4.78,4.78,0,0,0-1.86-.29,2.59,2.59,0,0,0-2.71,2.78,2.65,2.65,0,0,0,2.83,2.84,5.07,5.07,0,0,0,1.88-.31Z"/><path class="cls-22" d="M104.28,78.05l3-3.64c.74-.83,1.28-1.43,2-2.17v0h-4.62v-3.4h9.85v2.57l-2.8,3.4c-.69.81-1.36,1.6-2.08,2.29v0h5.1v3.4H104.28Z"/><path class="cls-22" d="M119.94,76.15c.15.92,1.48,1.45,3,1.45a10.43,10.43,0,0,0,3.19-.45l.55,2.88a12.29,12.29,0,0,1-4.38.73c-4.12,0-6.45-2.28-6.45-6a6,6,0,0,1,6.07-6.23c3.78,0,5.4,2.78,5.4,6a7.08,7.08,0,0,1-.17,1.62Zm3.43-2.91a1.72,1.72,0,0,0-1.67-1.9,1.91,1.91,0,0,0-1.8,1.9Z"/><path class="cls-22" d="M129.25,72.79c0-1.57-.05-2.9-.09-4h3.71l.19,1.5h.07a4.26,4.26,0,0,1,3.52-1.76c2.74,0,4.24,1.86,4.24,5.07v6.9h-4.31V74.12c0-1.35-.45-2.14-1.5-2.14a1.48,1.48,0,0,0-1.4,1,2.27,2.27,0,0,0-.12.86V80.5h-4.31Z"/><path class="cls-22" d="M147.86,65.58a2.19,2.19,0,1,1-2.19-2A2,2,0,0,1,147.86,65.58ZM143.51,80.5V68.79h4.31V80.5Z"/><path class="cls-22" d="M160.86,77.65a16.91,16.91,0,0,0,.19,2.85h-3.86l-.21-1h-.09a4.12,4.12,0,0,1-3.24,1.28,3.67,3.67,0,0,1-3.88-3.69c0-3.14,2.83-4.54,6.81-4.54v-.1c0-.47-.36-1-1.93-1a7.43,7.43,0,0,0-3.31.86l-.74-2.69a10.5,10.5,0,0,1,4.86-1.07c4,0,5.4,2.24,5.4,5.16Zm-4.14-2.5c-1.76,0-2.74.47-2.74,1.52a1.07,1.07,0,0,0,1.22,1.12,1.59,1.59,0,0,0,1.47-1.1,2.17,2.17,0,0,0,.05-.59Z"/><path class="cls-23" d="M174.93,76.64a3.71,3.71,0,0,1-3.78,4,3.61,3.61,0,0,1-3.65-3.91,3.71,3.71,0,0,1,3.77-4A3.6,3.6,0,0,1,174.93,76.64Zm-6,.08c0,1.66,1,2.92,2.31,2.92s2.31-1.24,2.31-3c0-1.29-.65-2.93-2.28-2.93S168.9,75.27,168.9,76.72Z"/><path class="cls-22" d="M180.64,80.5V77.91L182.78,76c3.14-2.72,4.73-4.34,4.76-5.91,0-1.11-.74-1.92-2.31-1.92a5.84,5.84,0,0,0-3.31,1.26l-1.17-3.07a9.33,9.33,0,0,1,5.34-1.62c3.59,0,5.73,2,5.73,5,0,2.47-1.76,4.47-3.59,6l-1.53,1.19v0h5.38V80.5Z"/><path class="cls-22" d="M195.37,77.41a12.08,12.08,0,0,0,1.52,0,6.39,6.39,0,0,0,3-.71,4,4,0,0,0,1.91-2.34l-.05,0a4,4,0,0,1-2.85.88,4.7,4.7,0,0,1-4.93-4.85A5.76,5.76,0,0,1,200,64.77c4.33,0,6.16,3.26,6.16,6.71,0,3.17-1,5.5-2.74,7.07a9.69,9.69,0,0,1-6.52,2.19,13.88,13.88,0,0,1-1.52,0Zm2.81-7.31c0,1.09.55,2.14,1.83,2.14a1.74,1.74,0,0,0,1.57-.74,2,2,0,0,0,.17-1c0-1.22-.45-2.67-1.88-2.67C198.92,67.86,198.15,68.74,198.18,70.1Z"/><path class="cls-22" d="M216.55,69.36c0,3.24-2.19,5-4.54,5a4.39,4.39,0,0,1-4.45-4.69c0-2.64,1.69-4.88,4.59-4.88A4.25,4.25,0,0,1,216.55,69.36Zm-5.85.19c0,1.48.45,2.5,1.4,2.5s1.31-.86,1.31-2.5c0-1.43-.35-2.5-1.35-2.5S210.7,68.15,210.7,69.55Zm1.64,11.21,8.81-15.94h2.19l-8.78,15.94Zm15.83-5c0,3.21-2.19,4.95-4.55,4.95a4.39,4.39,0,0,1-4.45-4.69,4.55,4.55,0,0,1,4.6-4.86A4.27,4.27,0,0,1,228.17,75.79Zm-5.85.19c0,1.47.45,2.47,1.4,2.47S225,77.6,225,76c0-1.45-.36-2.5-1.36-2.5S222.32,74.57,222.32,76Z"/><path class="cls-23" d="M49.51,95.59l1,3.86c.22.85.42,1.63.56,2.42h.05c.17-.77.43-1.59.68-2.4l1.24-3.88h1.16l1.18,3.8c.28.91.5,1.71.67,2.48h0a24.6,24.6,0,0,1,.58-2.47l1.08-3.81h1.37l-2.45,7.6H55.44l-1.17-3.63c-.26-.85-.48-1.6-.67-2.5h0a22.55,22.55,0,0,1-.7,2.52l-1.22,3.61H50.39l-2.29-7.6Z"/><path class="cls-23" d="M66.92,95.59c0,.55-.07,1.16-.07,2.09v4.41c0,1.74-.34,2.81-1.08,3.47a4,4,0,0,1-2.77.91,4.85,4.85,0,0,1-2.52-.63l.34-1a4.32,4.32,0,0,0,2.23.6c1.42,0,2.45-.74,2.45-2.66v-.84h0a2.72,2.72,0,0,1-2.42,1.27c-1.88,0-3.23-1.6-3.23-3.71,0-2.57,1.68-4,3.42-4a2.54,2.54,0,0,1,2.37,1.32h0l.07-1.14Zm-1.43,3a2,2,0,0,0-.08-.63,2,2,0,0,0-1.93-1.46c-1.32,0-2.27,1.11-2.27,2.87,0,1.49.76,2.73,2.25,2.73a2,2,0,0,0,1.92-1.41,2.33,2.33,0,0,0,.11-.74Z"/><path class="cls-23" d="M72.29,101.78a3.66,3.66,0,0,0,1.82.54c1,0,1.47-.5,1.47-1.13s-.39-1-1.41-1.39c-1.37-.49-2-1.24-2-2.16a2.35,2.35,0,0,1,2.62-2.23,3.69,3.69,0,0,1,1.87.48l-.34,1a3,3,0,0,0-1.56-.44c-.81,0-1.27.47-1.27,1s.46.91,1.45,1.29c1.31.5,2,1.16,2,2.29,0,1.33-1,2.28-2.84,2.28a4.36,4.36,0,0,1-2.14-.52Z"/><path class="cls-23" d="M80.06,99.07h0c.19-.26.46-.59.68-.86L83,95.59h1.66l-2.94,3.12,3.35,4.48H83.39l-2.62-3.65-.71.79v2.86H78.69V92h1.37Z"/><path class="cls-23" d="M90.55,103.19l-.11-1h0a2.81,2.81,0,0,1-2.32,1.13,2.17,2.17,0,0,1-2.33-2.18c0-1.84,1.64-2.84,4.58-2.83v-.16a1.58,1.58,0,0,0-1.73-1.76,3.83,3.83,0,0,0-2,.57l-.31-.91a4.65,4.65,0,0,1,2.49-.68c2.33,0,2.89,1.59,2.89,3.11v2.85a10.11,10.11,0,0,0,.13,1.82Zm-.2-3.88c-1.51,0-3.22.23-3.22,1.71a1.22,1.22,0,0,0,1.3,1.32,1.9,1.9,0,0,0,1.84-1.27,1.36,1.36,0,0,0,.08-.44Z"/><path class="cls-23" d="M93.91,92h1.38v11.15H93.91Z"/><path class="cls-23" d="M99.16,93.45a.86.86,0,0,1-1.71,0,.84.84,0,0,1,.86-.86A.82.82,0,0,1,99.16,93.45Zm-1.54,9.74v-7.6H99v7.6Z"/><path class="cls-23" d="M106.43,103.19,103,92.6h1.48l1.65,5.22c.45,1.43.85,2.71,1.13,4h0c.3-1.23.74-2.57,1.21-4l1.79-5.23h1.46l-3.78,10.59Z"/><path class="cls-23" d="M113.7,99.86l-1.1,3.33h-1.41l3.59-10.59h1.65l3.62,10.59h-1.47l-1.13-3.33Zm3.47-1.07-1-3.05c-.24-.69-.4-1.32-.55-1.93h0c-.15.63-.33,1.27-.53,1.92l-1,3.06Z"/><path class="cls-23" d="M121.41,101.52a4.81,4.81,0,0,0,2.45.69c1.4,0,2.22-.73,2.22-1.8s-.57-1.56-2-2.11c-1.73-.61-2.79-1.5-2.79-3s1.36-2.87,3.42-2.87a4.78,4.78,0,0,1,2.34.52l-.38,1.11a4.29,4.29,0,0,0-2-.5c-1.44,0-2,.86-2,1.59,0,1,.64,1.47,2.1,2,1.79.69,2.7,1.55,2.7,3.11s-1.21,3-3.7,3a5.42,5.42,0,0,1-2.7-.68Z"/><path class="cls-23" d="M139,101.12c0,.78,0,1.47.06,2.07h-1.23l-.08-1.24h0a2.86,2.86,0,0,1-2.51,1.41c-1.19,0-2.62-.66-2.62-3.33V95.59H134V99.8c0,1.44.44,2.41,1.7,2.41a2,2,0,0,0,1.82-1.25,2,2,0,0,0,.12-.71V95.59H139Z"/><path class="cls-23" d="M146,99.07h0c.18-.26.45-.59.67-.86l2.23-2.62h1.67l-2.94,3.12,3.34,4.48H149.3l-2.62-3.65-.71.79v2.86h-1.36V92H146Z"/><path class="cls-23" d="M158.85,99.32a3.71,3.71,0,0,1-3.78,4,3.62,3.62,0,0,1-3.65-3.91,3.72,3.72,0,0,1,3.77-4A3.6,3.6,0,0,1,158.85,99.32Zm-6,.08c0,1.67,1,2.92,2.31,2.92s2.31-1.24,2.31-2.95c0-1.29-.64-2.92-2.28-2.92S152.82,98,152.82,99.4Z"/><path class="cls-23" d="M160.53,103.19c0-.52.07-1.29.07-2V92H162v4.77h0a2.84,2.84,0,0,1,2.59-1.4c1.89,0,3.22,1.58,3.21,3.88,0,2.72-1.71,4.07-3.41,4.07a2.69,2.69,0,0,1-2.54-1.43h-.05l-.06,1.26Zm1.43-3a2.63,2.63,0,0,0,.06.5,2.14,2.14,0,0,0,2.08,1.62c1.44,0,2.31-1.18,2.31-2.92,0-1.52-.79-2.83-2.27-2.83a2.2,2.2,0,0,0-2.1,1.7,2.89,2.89,0,0,0-.08.57Z"/><path class="cls-23" d="M171.07,93.45a.86.86,0,0,1-1.71,0,.84.84,0,0,1,.86-.86A.82.82,0,0,1,171.07,93.45Zm-1.54,9.74v-7.6h1.38v7.6Z"/><path class="cls-23" d="M174,99.64a2.43,2.43,0,0,0,2.6,2.64,5.2,5.2,0,0,0,2.11-.39l.23,1a6.1,6.1,0,0,1-2.53.48,3.53,3.53,0,0,1-3.73-3.84c0-2.29,1.35-4.1,3.56-4.1,2.48,0,3.14,2.19,3.14,3.59,0,.28,0,.5,0,.64Zm4.05-1a2,2,0,0,0-1.92-2.25A2.29,2.29,0,0,0,174,98.65Z"/><path class="cls-23" d="M182.74,93.4v2.19h2v1h-2v4.1c0,.94.27,1.47,1,1.47a3,3,0,0,0,.8-.09l.06,1a3.4,3.4,0,0,1-1.23.19,1.91,1.91,0,0,1-1.49-.59,2.8,2.8,0,0,1-.53-2V96.64h-1.18v-1h1.18V93.77Z"/><path class="cls-23" d="M188.74,102.39l3.44-4.48c.33-.41.64-.77,1-1.18v0h-4.12V95.59h5.8l0,.86-3.39,4.41c-.31.43-.63.81-1,1.2v0h4.44v1.1h-6.17Z"/><path class="cls-23" d="M199.65,97.64c0-.78,0-1.43-.06-2h1.23l.07,1.25h0a2.78,2.78,0,0,1,2.51-1.43c1.05,0,2.68.63,2.68,3.24v4.54h-1.38V98.81c0-1.23-.45-2.25-1.76-2.25A2,2,0,0,0,201.13,98a2.13,2.13,0,0,0-.09.65v4.57h-1.39Z"/><path class="cls-23" d="M209.91,93.45a.86.86,0,0,1-1.71,0,.84.84,0,0,1,.86-.86A.82.82,0,0,1,209.91,93.45Zm-1.54,9.74v-7.6h1.38v7.6Z"/><path class="cls-23" d="M211.86,101.78a3.66,3.66,0,0,0,1.82.54c1,0,1.47-.5,1.47-1.13s-.39-1-1.41-1.39c-1.37-.49-2-1.24-2-2.16a2.35,2.35,0,0,1,2.62-2.23,3.69,3.69,0,0,1,1.87.48l-.34,1a3,3,0,0,0-1.56-.44c-.82,0-1.27.47-1.27,1s.45.91,1.44,1.29c1.32.5,2,1.16,2,2.29,0,1.33-1,2.28-2.84,2.28a4.36,4.36,0,0,1-2.14-.52Z"/><path class="cls-23" d="M219.63,99.07h0c.19-.26.46-.59.68-.86l2.23-2.62h1.66l-2.94,3.12,3.35,4.48H223l-2.62-3.65-.71.79v2.86h-1.37V92h1.37Z"/><path class="cls-23" d="M225.87,96.09a4.65,4.65,0,0,1,2.49-.68c2.33,0,2.89,1.59,2.89,3.11v2.85a9.7,9.7,0,0,0,.13,1.82H231a2.88,2.88,0,0,0-.62,1.51.7.7,0,0,0,.76.78,1.59,1.59,0,0,0,.72-.16l.22.73a2.33,2.33,0,0,1-1.3.37,1.27,1.27,0,0,1-1.4-1.33,3.81,3.81,0,0,1,.75-2l-.11-.91h0a2.81,2.81,0,0,1-2.32,1.13,2.17,2.17,0,0,1-2.33-2.18c0-1.84,1.64-2.84,4.58-2.83v-.16a1.58,1.58,0,0,0-1.73-1.76,3.83,3.83,0,0,0-2,.57Zm4,3.22c-1.51,0-3.22.23-3.22,1.71a1.22,1.22,0,0,0,1.3,1.32,1.9,1.9,0,0,0,1.84-1.27,1.36,1.36,0,0,0,.08-.44Z"/><path class="cls-23" d="M49,114.72h1.39v11.15H49Z"/><path class="cls-23" d="M59,123.79c0,.79,0,1.48.06,2.08H57.87l-.08-1.24h0A2.86,2.86,0,0,1,55.25,126c-1.2,0-2.63-.66-2.63-3.33v-4.44H54v4.2c0,1.45.43,2.42,1.69,2.42a2,2,0,0,0,1.82-1.25,2,2,0,0,0,.13-.71v-4.66H59Z"/><path class="cls-23" d="M61.26,125.87c0-.52.06-1.29.06-2v-9.18h1.37v4.77h0a2.84,2.84,0,0,1,2.59-1.4c1.89,0,3.22,1.57,3.21,3.88,0,2.72-1.71,4.07-3.41,4.07a2.73,2.73,0,0,1-2.55-1.43h0l-.07,1.26Zm1.43-3.05a2.73,2.73,0,0,0,.06.5,2.14,2.14,0,0,0,2.08,1.62c1.44,0,2.3-1.18,2.3-2.92,0-1.53-.78-2.83-2.26-2.83a2.2,2.2,0,0,0-2.1,1.7,2.68,2.68,0,0,0-.08.56Z"/><path class="cls-23" d="M80.14,118.27c0,.54-.06,1.16-.06,2.08v4.42c0,1.74-.35,2.81-1.09,3.47a4,4,0,0,1-2.76.91,4.89,4.89,0,0,1-2.53-.63l.35-1.05a4.29,4.29,0,0,0,2.23.6c1.41,0,2.45-.74,2.45-2.66v-.85h0a2.69,2.69,0,0,1-2.41,1.27c-1.89,0-3.24-1.6-3.24-3.7,0-2.58,1.68-4,3.42-4a2.54,2.54,0,0,1,2.38,1.32h0l.06-1.14Zm-1.43,3a2,2,0,0,0-2-2.08c-1.32,0-2.26,1.11-2.26,2.87,0,1.49.75,2.73,2.24,2.73a2,2,0,0,0,1.92-1.41,2.37,2.37,0,0,0,.11-.74Z"/><path class="cls-23" d="M82.29,120.64c0-.9,0-1.67-.06-2.37h1.21l0,1.49h.07a2.28,2.28,0,0,1,2.1-1.67,1.48,1.48,0,0,1,.39,0v1.3a2.17,2.17,0,0,0-.47,0,1.93,1.93,0,0,0-1.85,1.77,4.1,4.1,0,0,0-.06.64v4.06H82.29Z"/><path class="cls-23" d="M91.57,125.87l-.11-1h0A2.84,2.84,0,0,1,89.09,126a2.16,2.16,0,0,1-2.32-2.18c0-1.84,1.63-2.85,4.57-2.83v-.16a1.57,1.57,0,0,0-1.73-1.76,3.73,3.73,0,0,0-2,.57l-.31-.91a4.65,4.65,0,0,1,2.49-.68c2.33,0,2.89,1.59,2.89,3.11V124a10.22,10.22,0,0,0,.13,1.83Zm-.2-3.88c-1.51,0-3.22.23-3.22,1.71a1.22,1.22,0,0,0,1.3,1.32,1.9,1.9,0,0,0,1.84-1.27,1.41,1.41,0,0,0,.08-.44Z"/><path class="cls-23" d="M94.93,120.32c0-.78,0-1.43-.06-2h1.22l.08,1.25h0a2.81,2.81,0,0,1,2.52-1.43c1,0,2.68.63,2.68,3.24v4.54H100v-4.39c0-1.22-.45-2.24-1.76-2.24a2,2,0,0,0-1.85,1.41,2.06,2.06,0,0,0-.1.65v4.57H94.93Z"/><path class="cls-23" d="M105.19,116.13a.86.86,0,0,1-1.71,0,.84.84,0,0,1,.86-.86A.82.82,0,0,1,105.19,116.13Zm-1.54,9.74v-7.6H105v7.6Z"/><path class="cls-23" d="M112.74,125.58a5,5,0,0,1-2.18.44,3.61,3.61,0,0,1-3.79-3.88,3.86,3.86,0,0,1,4.09-4,4.57,4.57,0,0,1,1.91.39l-.31,1.07a3.19,3.19,0,0,0-1.6-.36,2.86,2.86,0,0,0,0,5.71,4,4,0,0,0,1.7-.37Z"/><path class="cls-23" d="M113.5,125.07l3.44-4.48c.33-.41.64-.77,1-1.18v0h-4.12v-1.11h5.8l0,.86-3.39,4.41c-.32.43-.63.8-1,1.2v0h4.45v1.1H113.5Z"/><path class="cls-23" d="M121.08,120.32c0-.78,0-1.43-.06-2h1.22l.08,1.25h0a2.81,2.81,0,0,1,2.52-1.43c1,0,2.68.63,2.68,3.24v4.54h-1.38v-4.39c0-1.22-.46-2.24-1.76-2.24a2,2,0,0,0-1.85,1.41,1.81,1.81,0,0,0-.1.65v4.57h-1.38Z"/><path class="cls-23" d="M129.75,118.77a4.71,4.71,0,0,1,2.5-.68c2.32,0,2.89,1.59,2.89,3.11V124a10.85,10.85,0,0,0,.12,1.83h-.39a2.93,2.93,0,0,0-.61,1.5.7.7,0,0,0,.75.79,1.53,1.53,0,0,0,.72-.16l.22.72a2.27,2.27,0,0,1-1.3.38,1.28,1.28,0,0,1-1.4-1.33,3.73,3.73,0,0,1,.76-2l-.11-.91h-.05a2.84,2.84,0,0,1-2.32,1.13,2.17,2.17,0,0,1-2.33-2.18c0-1.84,1.63-2.85,4.57-2.83v-.16a1.57,1.57,0,0,0-1.73-1.76,3.79,3.79,0,0,0-2,.57ZM133.8,122c-1.5,0-3.22.23-3.22,1.71a1.23,1.23,0,0,0,1.31,1.32,1.88,1.88,0,0,0,1.83-1.27,1.41,1.41,0,0,0,.08-.44Z"/><path class="cls-23" d="M140.84,125.87v-6.55h-1.07v-1h1.07v-.37a3.56,3.56,0,0,1,.88-2.65,2.66,2.66,0,0,1,1.85-.71,3.22,3.22,0,0,1,1.18.22l-.19,1.07a2.13,2.13,0,0,0-.88-.17c-1.18,0-1.48,1-1.48,2.2v.41H144v1H142.2v6.55Z"/><path class="cls-23" d="M145.86,122.32a2.44,2.44,0,0,0,2.61,2.64,5,5,0,0,0,2.11-.4l.23,1a6.18,6.18,0,0,1-2.53.47,3.53,3.53,0,0,1-3.74-3.83c0-2.29,1.35-4.1,3.57-4.1,2.48,0,3.14,2.19,3.14,3.58a4.38,4.38,0,0,1-.05.65Zm4.06-1a2,2,0,0,0-1.92-2.25,2.29,2.29,0,0,0-2.12,2.25Z"/><path class="cls-23" d="M153,120.64c0-.9,0-1.67-.06-2.37h1.21l0,1.49h.06a2.28,2.28,0,0,1,2.1-1.67,1.62,1.62,0,0,1,.4,0v1.3a2.33,2.33,0,0,0-.48,0,1.93,1.93,0,0,0-1.85,1.77,4.1,4.1,0,0,0-.06.64v4.06H153Z"/><path class="cls-23" d="M158.15,120.64c0-.9,0-1.67-.07-2.37h1.21l.05,1.49h.06a2.29,2.29,0,0,1,2.11-1.67,1.6,1.6,0,0,1,.39,0v1.3a2.17,2.17,0,0,0-.47,0,1.93,1.93,0,0,0-1.86,1.77,4.1,4.1,0,0,0-.06.64v4.06h-1.36Z"/><path class="cls-23" d="M164.18,118.27l1.66,4.49c.17.5.36,1.1.49,1.55h0c.14-.45.3-1,.49-1.59l1.5-4.45h1.46l-2.07,5.41c-1,2.61-1.66,3.94-2.61,4.76a3.8,3.8,0,0,1-1.69.9l-.35-1.17a3.37,3.37,0,0,0,1.21-.67,4.1,4.1,0,0,0,1.16-1.54.84.84,0,0,0,.11-.33,1.22,1.22,0,0,0-.09-.36l-2.81-7Z"/><path class="cls-23" d="M172.73,116.08v2.19h2v1h-2v4.1c0,.94.27,1.47,1,1.47a3,3,0,0,0,.8-.09l.07,1a3.44,3.44,0,0,1-1.23.19,1.91,1.91,0,0,1-1.49-.58,2.83,2.83,0,0,1-.54-2v-4.14h-1.17v-1h1.17v-1.83Z"/><path class="cls-23" d="M176.91,118.27l1.67,4.49c.17.5.36,1.1.48,1.55h0c.15-.45.3-1,.49-1.59l1.51-4.45h1.46l-2.07,5.41c-1,2.61-1.67,3.94-2.61,4.76a3.82,3.82,0,0,1-1.7.9l-.34-1.17a3.45,3.45,0,0,0,1.21-.67A4.21,4.21,0,0,0,178.2,126a1,1,0,0,0,.11-.33,1.22,1.22,0,0,0-.09-.36l-2.82-7Z"/><path class="cls-23" d="M183.81,120.32c0-.78,0-1.43-.07-2H185l.08,1.25h0a2.81,2.81,0,0,1,2.51-1.43c1,0,2.69.63,2.69,3.24v4.54H188.9v-4.39c0-1.22-.46-2.24-1.76-2.24a2,2,0,0,0-1.86,1.41,2.08,2.08,0,0,0-.09.65v4.57h-1.38Z"/><path class="cls-23" d="M192.82,118.27l1.67,4.49c.17.5.36,1.1.48,1.55h0c.15-.45.3-1,.49-1.59l1.51-4.45h1.46l-2.07,5.41c-1,2.61-1.67,3.94-2.61,4.76a3.82,3.82,0,0,1-1.7.9l-.34-1.17a3.45,3.45,0,0,0,1.21-.67,4.21,4.21,0,0,0,1.16-1.54,1,1,0,0,0,.11-.33,1.22,1.22,0,0,0-.09-.36l-2.82-7Z"/><g class="cls-24"><rect class="cls-25" x="9.18" y="27.49" width="32.78" height="32.78" transform="translate(-25.21 43.43) rotate(-59.25)"/></g><g class="cls-26"><rect class="cls-27" x="11.25" y="29.56" width="28.65" height="28.65" transform="translate(-25.21 43.42) rotate(-59.25)"/></g><g class="cls-28"><g class="cls-15"><g class="cls-29"><rect class="cls-30" x="11.99" y="27.57" width="45.32" height="45.32" transform="translate(-16.71 17.28) rotate(-22.72)"/></g></g></g><g class="cls-31"><g class="cls-32"><rect class="cls-33" x="13.88" y="30.14" width="21.05" height="20.79" transform="translate(-21.06 27.46) rotate(-42.9)"/></g></g><path class="cls-22" d="M203.64,114.38a7.52,7.52,0,0,0-1.45,4.68,7.68,7.68,0,0,0,1.45,4.65h-.8a7.42,7.42,0,0,1-1.49-4.65,7.56,7.56,0,0,1,1.49-4.68Z"/><path class="cls-22" d="M207.49,122.32v-2H204v-.67l3.33-4.75h1.08v4.63h1.05v.79h-1.05v2Zm0-2.81V117c0-.39,0-.78,0-1.17h0c-.23.44-.41.76-.62,1.1l-1.82,2.53v0Z"/><path class="cls-22" d="M210,123.71a7.75,7.75,0,0,0,1.44-4.68,7.61,7.61,0,0,0-1.44-4.65h.77a7.24,7.24,0,0,1,1.5,4.66,7.39,7.39,0,0,1-1.5,4.67Z"/></g></svg>